<?xml version="1.0" encoding="utf-8"?>
<!-- Generator: Adobe Illustrator 16.0.4, SVG Export Plug-In . SVG Version: 6.00 Build 0)  -->
<!DOCTYPE svg PUBLIC "-//W3C//DTD SVG 1.1//EN" "http://www.w3.org/Graphics/SVG/1.1/DTD/svg11.dtd">
<svg version="1.1" id="Layer_1" xmlns="http://www.w3.org/2000/svg" xmlns:xlink="http://www.w3.org/1999/xlink" x="0px" y="0px"
	 width="252.076px" height="38.167px" viewBox="0 0 252.076 38.167" enable-background="new 0 0 252.076 38.167"
	 xml:space="preserve">
<g>
	<g>
		<circle fill="#BF1F43" cx="13.363" cy="13.363" r="13.363"/>
		<g>
			<path fill="#CCCCCC" d="M13.326,5.857c2.525,0,3.809,1.647,3.809,4.148c0,1.007-0.15,2.61-1.09,3.359
				c1.131,0.919,1.26,2.33,1.26,3.359c0,2.737-1.475,4.385-3.998,4.385c-3.166,0-3.936-2.59-3.936-4.172
				c0-0.62,0.576-0.62,0.576-0.62h0.855c0,0,0.643,0,0.643,0.62c0,1.411,0.705,2.159,1.861,2.159c1.068,0,1.924-0.448,1.924-2.372
				c0-1.84-0.855-2.44-1.605-2.44h-0.447c-0.641,0-0.641-0.641-0.641-0.641v-0.771c0,0,0-0.599,0.641-0.599h0.471
				c0.727,0,1.412-0.449,1.412-2.269c0-1.688-0.793-2.116-1.734-2.116c-1.133,0-1.668,0.621-1.668,1.925
				c0,0.62-0.641,0.62-0.641,0.62h-0.836c0,0-0.598,0-0.598-0.62C9.584,7.312,11.125,5.857,13.326,5.857z"/>
		</g>
	</g>
	<g>
		<g>
			<line fill="none" stroke="#BF1F43" stroke-miterlimit="10" x1="26.727" y1="13.363" x2="106.665" y2="34.487"/>
			<g>
				<circle fill="#BF1F43" cx="106.494" cy="34.407" r="3.76"/>
			</g>
		</g>
	</g>
	<g>
		<g>
			<line fill="none" stroke="#BF1F43" stroke-miterlimit="10" x1="26.727" y1="13.363" x2="245.258" y2="34.404"/>
			<g>
				<circle fill="#BF1F43" cx="245.073" cy="34.372" r="3.76"/>
			</g>
		</g>
	</g>
	<g>
		<g>
			<line fill="none" stroke="#BF1F43" stroke-miterlimit="10" x1="26.727" y1="13.363" x2="176.241" y2="34.145"/>
			<g>
				<circle fill="#BF1F43" cx="176.058" cy="34.099" r="3.76"/>
			</g>
		</g>
	</g>
</g>
</svg>
