<?xml version="1.0" encoding="utf-8"?>
<!-- Generator: Adobe Illustrator 16.0.4, SVG Export Plug-In . SVG Version: 6.00 Build 0)  -->
<!DOCTYPE svg PUBLIC "-//W3C//DTD SVG 1.1//EN" "http://www.w3.org/Graphics/SVG/1.1/DTD/svg11.dtd">
<svg version="1.1" id="Layer_1" xmlns="http://www.w3.org/2000/svg" xmlns:xlink="http://www.w3.org/1999/xlink" x="0px" y="0px"
	 width="80.932px" height="26.727px" viewBox="9.431 0 80.932 26.727" enable-background="new 9.431 0 80.932 26.727"
	 xml:space="preserve">
<g>
	<circle fill="#C01F43" cx="77" cy="13.363" r="13.363"/>
	<g>
		<path fill="#CCCCCC" d="M80.605,15.584c0.643,0,0.643,0.601,0.643,0.601v0.791c0,0,0,0.643-0.664,0.643h-0.77v2.717
			c0,0.642-0.619,0.642-0.619,0.642h-0.814c0,0-0.641,0-0.641-0.642v-2.717H73.1c-0.664,0-0.664-0.643-0.664-0.643v-0.643
			c0-0.256,0-0.642,0.129-0.855l4.342-9.046c0.256-0.387,0.578-0.429,0.578-0.429h1.688c0,0,0.644,0,0.644,0.643v8.938H80.605z
			 M77.74,15.584V8.889l-3.102,6.694H77.74z"/>
	</g>
</g>
<g>
	<g>
		<line fill="none" stroke="#BF1F43" stroke-miterlimit="10" x1="64" y1="13.5" x2="13.375" y2="13.5"/>
		<g>
			<circle fill="#BF1F43" cx="13.172" cy="13.5" r="3.172"/>
		</g>
	</g>
</g>
</svg>
