<svg xmlns="http://www.w3.org/2000/svg" version="1.1" id="Layer_1" x="0" y="0" width="252.08" height="38.17" viewBox="0 0 252.08 38.17" enable-background="new 0 0 252.076 38.167" xml:space="preserve"><circle fill="#BF1F43" cx="13.36" cy="13.36" r="13.36"/><path fill="#CCCCCC" d="M13.33 5.86c2.53 0 3.81 1.65 3.81 4.15 0 1.01-0.15 2.61-1.09 3.36 1.13 0.92 1.26 2.33 1.26 3.36 0 2.74-1.47 4.39-4 4.39 -3.17 0-3.94-2.59-3.94-4.17 0-0.62 0.58-0.62 0.58-0.62h0.86c0 0 0.64 0 0.64 0.62 0 1.41 0.71 2.16 1.86 2.16 1.07 0 1.92-0.45 1.92-2.37 0-1.84-0.85-2.44-1.6-2.44h-0.45c-0.64 0-0.64-0.64-0.64-0.64v-0.77c0 0 0-0.6 0.64-0.6h0.47c0.73 0 1.41-0.45 1.41-2.27 0-1.69-0.79-2.12-1.73-2.12 -1.13 0-1.67 0.62-1.67 1.93 0 0.62-0.64 0.62-0.64 0.62h-0.84c0 0-0.6 0-0.6-0.62C9.58 7.31 11.13 5.86 13.33 5.86z"/><line fill="none" stroke="#BF1F43" stroke-miterlimit="10" x1="26.73" y1="13.36" x2="106.67" y2="34.49"/><circle fill="#BF1F43" cx="106.49" cy="34.41" r="3.76"/><line fill="none" stroke="#BF1F43" stroke-miterlimit="10" x1="26.73" y1="13.36" x2="245.26" y2="34.4"/><circle fill="#BF1F43" cx="245.07" cy="34.37" r="3.76"/><line fill="none" stroke="#BF1F43" stroke-miterlimit="10" x1="26.73" y1="13.36" x2="176.24" y2="34.15"/><circle fill="#BF1F43" cx="176.06" cy="34.1" r="3.76"/></svg>