<?xml version="1.0" encoding="utf-8"?>
<!-- Generator: Adobe Illustrator 16.0.4, SVG Export Plug-In . SVG Version: 6.00 Build 0)  -->
<!DOCTYPE svg PUBLIC "-//W3C//DTD SVG 1.1//EN" "http://www.w3.org/Graphics/SVG/1.1/DTD/svg11.dtd">
<svg version="1.1" id="Layer_1" xmlns="http://www.w3.org/2000/svg" xmlns:xlink="http://www.w3.org/1999/xlink" x="0px" y="0px"
	 width="251.062px" height="57.167px" viewBox="0 0 251.062 57.167" enable-background="new 0 0 251.062 57.167"
	 xml:space="preserve">
<g>
	<g>
		<line fill="none" stroke="#BF1F43" stroke-miterlimit="10" x1="26.727" y1="13.363" x2="176.444" y2="53.248"/>
		<g>
			<circle fill="#BF1F43" cx="176.262" cy="53.199" r="3.76"/>
		</g>
	</g>
</g>
<g>
	<g>
		<line fill="none" stroke="#BF1F43" stroke-miterlimit="10" x1="26.727" y1="13.363" x2="106.702" y2="53.39"/>
		<g>
			<circle fill="#BF1F43" cx="106.533" cy="53.306" r="3.76"/>
		</g>
	</g>
</g>
<g>
	<g>
		<line fill="none" stroke="#BF1F43" stroke-miterlimit="10" x1="26.727" y1="13.363" x2="247.264" y2="53.441"/>
		<g>
			<circle fill="#BF1F43" cx="247.079" cy="53.408" r="3.76"/>
		</g>
	</g>
</g>
<g>
	<circle fill="#BF1F43" cx="13.363" cy="13.363" r="13.363"/>
	<g>
		<path fill="#CCCCCC" d="M9.756,20.975c-0.621,0-0.621-0.6-0.621-0.6v-0.834c0,0,0-0.598,0.598-0.598h2.824V8.033h-1.561
			c-0.621,0-0.621-0.598-0.621-0.598V6.601c0,0,0-0.598,0.602-0.598h3.035c0.621,0,0.621,0.62,0.621,0.62v12.32h2.803
			c0.598,0,0.598,0.598,0.598,0.598v0.834c0,0,0,0.6-0.621,0.6H9.756z"/>
	</g>
</g>
</svg>
