<?xml version="1.0" encoding="utf-8"?>
<!-- Generator: Adobe Illustrator 16.0.4, SVG Export Plug-In . SVG Version: 6.00 Build 0)  -->
<!DOCTYPE svg PUBLIC "-//W3C//DTD SVG 1.1//EN" "http://www.w3.org/Graphics/SVG/1.1/DTD/svg11.dtd">
<svg version="1.1" id="Layer_1" xmlns="http://www.w3.org/2000/svg" xmlns:xlink="http://www.w3.org/1999/xlink" x="0px" y="0px"
	 width="253px" height="70px" viewBox="0 0 253 70" enable-background="new 0 0 253 70" xml:space="preserve">
<g>
	<g>
		<circle fill="#BF1F43" cx="239.146" cy="13.363" r="13.363"/>
	</g>
	<g>
		<g>
			<path fill="#CCCCCC" d="M243.297,9.602c0,1.305-0.277,2.717-1.625,4.406l-3.68,4.577h4.619c0.623,0,0.623,0.601,0.623,0.601
				v0.877c0,0-0.066,0.556-0.623,0.556h-6.756c-0.56,0-0.621-0.556-0.621-0.556v-0.877c0-0.172,0-0.238,0.106-0.451l4.385-5.539
				c1.324-1.691,1.498-2.289,1.498-3.594c0-1.561-0.795-2.268-1.799-2.268c-1.111,0-1.709,0.814-1.709,2.119
				c0,0.619-0.666,0.619-0.666,0.619h-0.832c0,0-0.603,0-0.603-0.619c0-2.503,1.521-3.957,3.746-3.957
				C242.229,5.496,243.297,7.568,243.297,9.602z"/>
		</g>
	</g>
</g>
<g>
	<g>
		<g>
			<polygon fill="#BF1F43" points="174.476,65.747 173.813,64.997 225.397,15.124 226.06,15.874 			"/>
		</g>
		<g>
			<g>
				<path fill="#BF1F43" d="M174.269,61.771c1.917,0,3.477,1.56,3.477,3.477c0,1.935-1.56,3.492-3.477,3.492
					c-1.918,0-3.477-1.558-3.477-3.492C170.792,63.33,172.351,61.771,174.269,61.771z"/>
			</g>
		</g>
	</g>
</g>
<g>
	<g>
		<g>
			
				<rect x="170.187" y="-20.508" transform="matrix(0.407 0.9134 -0.9134 0.407 137.8153 -132.1592)" fill="#BF1F43" width="1.001" height="121.128"/>
		</g>
		<g>
			<g>
				<path fill="#BF1F43" d="M115.538,61.173c1.926,0,3.479,1.56,3.479,3.477s-1.554,3.477-3.479,3.477
					c-1.926,0-3.477-1.56-3.477-3.477S113.612,61.173,115.538,61.173z"/>
			</g>
		</g>
	</g>
</g>
<g>
	<g>
		<g>
			
				<rect x="143.147" y="-45.404" transform="matrix(0.29 0.957 -0.957 0.29 140.6106 -108.8179)" fill="#BF1F43" width="1" height="171.529"/>
		</g>
		<g>
			<g>
				<path fill="#BF1F43" d="M61.737,61.69c1.917,0,3.477,1.56,3.477,3.494c0,1.918-1.56,3.478-3.477,3.478
					c-1.926,0-3.485-1.56-3.485-3.478C58.251,63.25,59.811,61.69,61.737,61.69z"/>
			</g>
		</g>
	</g>
</g>
<g>
	<g>
		<g>
			
				<rect x="114.155" y="-73.704" transform="matrix(0.2195 0.9756 -0.9756 0.2195 128.9223 -80.3106)" fill="#BF1F43" width="1.001" height="228.25"/>
		</g>
		<g>
			<g>
				<path fill="#BF1F43" d="M3.477,61.938c1.926,0,3.485,1.56,3.485,3.491c0,1.919-1.559,3.479-3.485,3.479
					C1.559,68.908,0,67.349,0,65.43C0,63.498,1.559,61.938,3.477,61.938z"/>
			</g>
		</g>
	</g>
</g>
</svg>
