<svg xmlns="http://www.w3.org/2000/svg" version="1.1" x="0" y="0" width="80.9" height="26.7" viewBox="9.4 0 80.9 26.7" enable-background="new 9.431 0 80.932 26.727" xml:space="preserve"><circle fill="#C01F43" cx="77" cy="13.4" r="13.4"/><path fill="#CCCCCC" d="M80.6 15.6c0.6 0 0.6 0.6 0.6 0.6v0.8c0 0 0 0.6-0.7 0.6h-0.8v2.7c0 0.6-0.6 0.6-0.6 0.6h-0.8c0 0-0.6 0-0.6-0.6v-2.7H73.1c-0.7 0-0.7-0.6-0.7-0.6v-0.6c0-0.3 0-0.6 0.1-0.9l4.3-9c0.3-0.4 0.6-0.4 0.6-0.4h1.7c0 0 0.6 0 0.6 0.6v8.9H80.6zM77.7 15.6V8.9l-3.1 6.7H77.7z"/><line fill="none" stroke="#BF1F43" stroke-miterlimit="10" x1="64" y1="13.5" x2="13.4" y2="13.5"/><circle fill="#BF1F43" cx="13.2" cy="13.5" r="3.2"/></svg>