<?xml version="1.0" encoding="utf-8"?>
<!-- Generator: Adobe Illustrator 16.0.4, SVG Export Plug-In . SVG Version: 6.00 Build 0)  -->
<!DOCTYPE svg PUBLIC "-//W3C//DTD SVG 1.1//EN" "http://www.w3.org/Graphics/SVG/1.1/DTD/svg11.dtd">
<svg version="1.1" id="Layer_1" xmlns="http://www.w3.org/2000/svg" xmlns:xlink="http://www.w3.org/1999/xlink" x="0px" y="0px"
	 width="122px" height="122px" viewBox="89 89 122 122" enable-background="new 89 89 122 122" xml:space="preserve">
<g>
	<g>
		<circle fill="#74787B" cx="155" cy="-191" r="138.051"/>
	</g>
	<g>
		<path fill="#74787B" d="M155-335c38.463,0,74.624,14.979,101.822,42.178C284.021-265.624,299-229.463,299-191
			s-14.979,74.624-42.178,101.822C229.624-61.979,193.463-47,155-47S80.375-61.979,53.177-89.178C25.979-116.376,11-152.537,11-191
			s14.979-74.624,42.177-101.822C80.375-320.021,116.537-335,155-335 M155-341C72.159-341,5-273.84,5-191
			C5-108.159,72.159-41,155-41s150-67.159,150-150C305-273.84,237.841-341,155-341L155-341z"/>
	</g>
</g>
<g>
	<path fill="#FFFFFF" d="M-252.457-141.721c-31.775-27.413-82.518-19.937-107.716-2.077c0,0-68.395,52.612-21.599,127.93
		c26.029,31.291,46.52,27.69,46.52,27.69s33.782,2.021,37.659-37.617c-0.514-11.983-0.796-17.556,4.534-21.276
		c6.065-4.233,10.794-3.025,29.941,1.437c18.936,4.412,26.652,3.807,39.111-14.261C-211.545-77.963-220.684-114.307-252.457-141.721
		z M-359.859-36.799c-7.034,0-12.737-5.703-12.737-12.737c0-7.034,5.704-12.737,12.737-12.737c7.035,0,12.738,5.703,12.738,12.737
		C-347.121-42.502-352.825-36.799-359.859-36.799z M-357.171-83.47c-7.035,0-12.737-5.703-12.737-12.737s5.703-12.737,12.737-12.737
		c7.034,0,12.737,5.703,12.737,12.737S-350.137-83.47-357.171-83.47z M-319.313-111.31c-7.035,0-12.737-5.703-12.737-12.737
		c0-7.035,5.703-12.738,12.737-12.738s12.737,5.703,12.737,12.738C-306.576-117.013-312.279-111.31-319.313-111.31z M-272.395-100.6
		c-7.034,0-12.738-5.703-12.738-12.738c0-7.034,5.704-12.737,12.738-12.737c7.033,0,12.737,5.704,12.737,12.737
		C-259.657-106.303-265.361-100.6-272.395-100.6z"/>
	<path fill="#FFFFFF" d="M-188.389-150.962c-0.727-5.503-2.568-6.504-3.98-6.403c-0.81,0.057-1.483,0.293-2.146,1.626
		c-2.704,5.442-5.612,5.706-9.207,7.719c-4.327,2.423-9.588,2.976-14.916,5.884c-5.329,2.907-13.777,10.488-13.571,18.088
		c0.056,2.002,0.557,3.989,1.326,5.862c-5.702,7.59-19.004,25.567-31.648,44.668c-30.953,46.759-31.433,59.66-29.1,65.296
		c1.087,2.629,3.255,4.138,5.945,4.139c0.015,0,0.029,0,0.044,0c3.45,0,11.565-0.227,49.529-54.313
		c12.922-18.411,25.018-36.979,31.104-46.447c0.536-0.036,1.088-0.074,1.669-0.118
		C-176.552-114.826-187.662-145.458-188.389-150.962z M-241.943-63.106c-30.062,42.878-40.122,50.152-42.978,51.331
		c-0.636-3.428,0.974-15.841,28.604-57.587c11.418-17.25,23.388-33.591,29.706-42.058c1.727,1.926,3.551,3.316,4.994,3.862
		c2.647,1.001,2.584,2.447,7.628,2.841C-220.477-94.697-230.894-78.865-241.943-63.106z"/>
</g>
<circle fill="none" cx="-185.494" cy="134.542" r="12.738"/>
<circle fill="none" cx="-223.352" cy="162.382" r="12.737"/>
<circle fill="none" cx="-226.04" cy="209.054" r="12.737"/>
<path fill="none" d="M-136.373,211.316c-14.304,24.341-15.234,32.771-14.729,35.498c2.367-0.979,9.696-6.164,29.25-32.32
	c-2.288-0.389-4.751-0.91-7.448-1.539C-131.916,212.346-134.255,211.799-136.373,211.316z"/>
<circle fill="none" cx="-138.575" cy="145.252" r="12.738"/>
<path fill="none" d="M-80.17,153.874c-5.044-0.396-4.98-1.84-7.628-2.841c-1.443-0.546-3.268-1.937-4.994-3.863
	c-0.201,0.27-0.424,0.569-0.636,0.854c2.882,5.487,5.044,10.953,6.475,16.235C-84.402,160.386-82.108,156.866-80.17,153.874z"/>
<g>
	<g>
		<path fill="#525252" d="M150,92.4c15.385,0,29.85,5.992,40.729,16.872C201.608,120.15,207.6,134.615,207.6,150
			c0,15.385-5.991,29.85-16.871,40.729C179.85,201.608,165.385,207.6,150,207.6c-15.385,0-29.85-5.991-40.729-16.871
			C98.392,179.85,92.4,165.385,92.4,150c0-15.385,5.992-29.85,16.871-40.729C120.15,98.392,134.615,92.4,150,92.4 M150,90
			c-33.136,0-60,26.864-60,60c0,33.137,26.864,60,60,60c33.137,0,60-26.863,60-60C210,116.864,183.137,90,150,90L150,90z"/>
	</g>
	<g>
		<g>
			<circle fill="#525252" cx="139.002" cy="131.15" r="5.095"/>
		</g>
		<g>
			<circle fill="#525252" cx="123.859" cy="142.286" r="5.095"/>
		</g>
		<g>
			<circle fill="#525252" cx="122.784" cy="160.955" r="5.095"/>
		</g>
		<g>
			<circle fill="#525252" cx="157.77" cy="135.435" r="5.095"/>
		</g>
		<g>
			<path fill="#525252" d="M150,94.78c-30.497,0-55.22,24.723-55.22,55.22s24.724,55.221,55.22,55.221
				c30.497,0,55.221-24.724,55.221-55.221S180.497,94.78,150,94.78z M185.392,138.785c-0.233,0.018-0.453,0.033-0.668,0.047
				c-1.279,1.99-3.226,4.991-5.532,8.454c0.328,3.739-0.365,7.059-2.066,9.525c-3.268,4.739-5.721,6.475-9.158,6.609
				c-11.517,15.64-14.258,15.715-15.496,15.715c-0.006,0-0.012,0-0.018,0c-1.076-0.001-1.943-0.604-2.378-1.655
				c-0.742-1.794-0.766-5.438,5.494-16.273c-3.048-0.559-4.438-0.403-6.064,0.732c-2.132,1.489-2.019,3.718-1.813,8.511
				c-1.551,15.856-15.063,15.047-15.063,15.047s-8.196,1.44-18.608-11.076c-18.719-30.126,8.64-51.17,8.64-51.17
				c10.08-7.144,30.377-10.135,43.087,0.83c3.503,3.022,6.314,6.316,8.45,9.653c0.061-0.082,0.122-0.162,0.179-0.239
				c-0.308-0.749-0.509-1.543-0.53-2.344c-0.082-3.041,3.297-6.073,5.429-7.236c2.131-1.163,4.235-1.384,5.967-2.354
				c1.438-0.805,2.601-0.911,3.683-3.087c0.265-0.533,0.534-0.627,0.858-0.651c0.564-0.041,1.302,0.359,1.592,2.561
				S196.107,134.839,185.392,138.785z"/>
		</g>
		<g>
			<path fill="#525252" d="M176.083,136.202c-0.08,0.108-0.169,0.227-0.254,0.341c-2.585,3.471-7.206,9.801-11.628,16.482
				c-2.261,3.414-4.079,6.332-5.551,8.835c-5.722,9.737-6.094,13.108-5.891,14.199c0.945-0.391,3.877-2.466,11.699-12.928
				c1.615-2.159,3.434-4.669,5.491-7.604c3.1-4.421,6.072-8.852,8.469-12.49c1.021-1.55,1.938-2.958,2.713-4.154
				c-2.018-0.158-1.992-0.736-3.051-1.136C177.504,137.528,176.774,136.973,176.083,136.202z"/>
		</g>
	</g>
</g>
<path fill="#FFFFFF" d="M258.432-268.038c-0.728-5.504-2.567-6.504-3.979-6.403c-0.812,0.058-1.483,0.294-2.146,1.627
	c-2.703,5.441-5.611,5.706-9.207,7.719c-4.326,2.423-9.588,2.977-14.916,5.884s-13.777,10.488-13.57,18.089
	c0.056,2.002,0.557,3.989,1.326,5.861c-0.146,0.191-0.295,0.394-0.448,0.598c-5.341-8.343-12.368-16.577-21.125-24.133
	c-31.775-27.413-82.519-19.937-107.717-2.076c0,0-68.395,52.611-21.599,127.93c26.029,31.291,46.52,27.689,46.52,27.689
	s33.782,2.023,37.659-37.617c-0.514-11.982-0.796-17.555,4.535-21.275c4.067-2.84,7.541-3.229,15.159-1.832
	c-15.646,27.09-15.59,36.196-13.733,40.682c1.088,2.629,3.256,4.137,5.945,4.139c0.016,0,0.029,0,0.045,0
	c3.094,0,9.949-0.191,38.741-39.288c8.593-0.339,14.724-4.677,22.896-16.524c4.254-6.168,5.985-14.468,5.164-23.813
	c5.768-8.659,10.633-16.16,13.832-21.136c0.535-0.035,1.088-0.073,1.668-0.117C270.268-231.902,259.157-262.534,258.432-268.038z
	 M86.959-153.875c-7.034,0-12.737-5.703-12.737-12.738c0-7.033,5.704-12.736,12.737-12.736c7.035,0,12.738,5.703,12.738,12.736
	C99.697-159.578,93.994-153.875,86.959-153.875z M89.648-200.547c-7.035,0-12.737-5.702-12.737-12.736
	c0-7.035,5.703-12.737,12.737-12.737s12.737,5.702,12.737,12.737C102.385-206.249,96.682-200.547,89.648-200.547z M127.506-228.386
	c-7.035,0-12.737-5.703-12.737-12.737c0-7.035,5.703-12.738,12.737-12.738c7.034,0,12.737,5.703,12.737,12.738
	C140.243-234.089,134.54-228.386,127.506-228.386z M161.688-230.414c0-7.033,5.703-12.737,12.737-12.737
	c7.033,0,12.737,5.704,12.737,12.737c0,7.035-5.704,12.738-12.737,12.738C167.391-217.676,161.688-223.379,161.688-230.414z
	 M226.047-211.406c-5.99,9.093-13.422,20.172-21.171,31.225c-5.146,7.337-9.69,13.609-13.728,19.01
	c-19.556,26.156-26.885,31.344-29.25,32.32c-0.506-2.727,0.425-11.157,14.729-35.498c3.678-6.258,8.225-13.551,13.875-22.088
	c11.055-16.701,22.609-32.528,29.07-41.204c0.212-0.285,0.435-0.584,0.636-0.854c1.728,1.926,3.551,3.316,4.994,3.862
	c2.647,1.001,2.584,2.446,7.628,2.841C230.893-218.8,228.598-215.28,226.047-211.406z"/>
</svg>
