<svg xmlns="http://www.w3.org/2000/svg" version="1.1" x="0" y="0" width="122" height="122" viewBox="89 89 122 122" enable-background="new 89 89 122 122" xml:space="preserve"><circle fill="#74787B" cx="155" cy="-191" r="138.1"/><path fill="#74787B" d="M155-335c38.5 0 74.6 15 101.8 42.2C284-265.6 299-229.5 299-191s-15 74.6-42.2 101.8C229.6-62 193.5-47 155-47S80.4-62 53.2-89.2C26-116.4 11-152.5 11-191s15-74.6 42.2-101.8C80.4-320 116.5-335 155-335M155-341C72.2-341 5-273.8 5-191 5-108.2 72.2-41 155-41s150-67.2 150-150C305-273.8 237.8-341 155-341L155-341z"/><path fill="#FFFFFF" d="M-252.5-141.7c-31.8-27.4-82.5-19.9-107.7-2.1 0 0-68.4 52.6-21.6 127.9 26 31.3 46.5 27.7 46.5 27.7s33.8 2 37.7-37.6c-0.5-12-0.8-17.6 4.5-21.3 6.1-4.2 10.8-3 29.9 1.4 18.9 4.4 26.7 3.8 39.1-14.3C-211.5-78-220.7-114.3-252.5-141.7zM-359.9-36.8c-7 0-12.7-5.7-12.7-12.7 0-7 5.7-12.7 12.7-12.7 7 0 12.7 5.7 12.7 12.7C-347.1-42.5-352.8-36.8-359.9-36.8zM-357.2-83.5c-7 0-12.7-5.7-12.7-12.7s5.7-12.7 12.7-12.7c7 0 12.7 5.7 12.7 12.7S-350.1-83.5-357.2-83.5zM-319.3-111.3c-7 0-12.7-5.7-12.7-12.7 0-7 5.7-12.7 12.7-12.7s12.7 5.7 12.7 12.7C-306.6-117-312.3-111.3-319.3-111.3zM-272.4-100.6c-7 0-12.7-5.7-12.7-12.7 0-7 5.7-12.7 12.7-12.7 7 0 12.7 5.7 12.7 12.7C-259.7-106.3-265.4-100.6-272.4-100.6zM-188.4-151c-0.7-5.5-2.6-6.5-4-6.4 -0.8 0.1-1.5 0.3-2.1 1.6 -2.7 5.4-5.6 5.7-9.2 7.7 -4.3 2.4-9.6 3-14.9 5.9 -5.3 2.9-13.8 10.5-13.6 18.1 0.1 2 0.6 4 1.3 5.9 -5.7 7.6-19 25.6-31.6 44.7 -31 46.8-31.4 59.7-29.1 65.3 1.1 2.6 3.3 4.1 5.9 4.1 0 0 0 0 0 0 3.5 0 11.6-0.2 49.5-54.3 12.9-18.4 25-37 31.1-46.4 0.5 0 1.1-0.1 1.7-0.1C-176.6-114.8-187.7-145.5-188.4-151zM-241.9-63.1c-30.1 42.9-40.1 50.2-43 51.3 -0.6-3.4 1-15.8 28.6-57.6 11.4-17.2 23.4-33.6 29.7-42.1 1.7 1.9 3.6 3.3 5 3.9 2.6 1 2.6 2.4 7.6 2.8C-220.5-94.7-230.9-78.9-241.9-63.1z"/><circle fill="none" cx="-185.5" cy="134.5" r="12.7"/><circle fill="none" cx="-223.4" cy="162.4" r="12.7"/><circle fill="none" cx="-226" cy="209.1" r="12.7"/><path fill="none" d="M-136.4 211.3c-14.3 24.3-15.2 32.8-14.7 35.5 2.4-1 9.7-6.2 29.3-32.3 -2.3-0.4-4.8-0.9-7.4-1.5C-131.9 212.3-134.3 211.8-136.4 211.3z"/><circle fill="none" cx="-138.6" cy="145.3" r="12.7"/><path fill="none" d="M-80.2 153.9c-5-0.4-5-1.8-7.6-2.8 -1.4-0.5-3.3-1.9-5-3.9 -0.2 0.3-0.4 0.6-0.6 0.9 2.9 5.5 5 11 6.5 16.2C-84.4 160.4-82.1 156.9-80.2 153.9z"/><path fill="#525252" d="M150 92.4c15.4 0 29.9 6 40.7 16.9C201.6 120.2 207.6 134.6 207.6 150c0 15.4-6 29.9-16.9 40.7C179.9 201.6 165.4 207.6 150 207.6c-15.4 0-29.8-6-40.7-16.9C98.4 179.9 92.4 165.4 92.4 150c0-15.4 6-29.8 16.9-40.7C120.2 98.4 134.6 92.4 150 92.4M150 90c-33.1 0-60 26.9-60 60 0 33.1 26.9 60 60 60 33.1 0 60-26.9 60-60C210 116.9 183.1 90 150 90L150 90z"/><circle fill="#525252" cx="139" cy="131.2" r="5.1"/><circle fill="#525252" cx="123.9" cy="142.3" r="5.1"/><circle fill="#525252" cx="122.8" cy="161" r="5.1"/><circle fill="#525252" cx="157.8" cy="135.4" r="5.1"/><path fill="#525252" d="M150 94.8c-30.5 0-55.2 24.7-55.2 55.2s24.7 55.2 55.2 55.2c30.5 0 55.2-24.7 55.2-55.2S180.5 94.8 150 94.8zM185.4 138.8c-0.2 0-0.5 0-0.7 0 -1.3 2-3.2 5-5.5 8.5 0.3 3.7-0.4 7.1-2.1 9.5 -3.3 4.7-5.7 6.5-9.2 6.6 -11.5 15.6-14.3 15.7-15.5 15.7 0 0 0 0 0 0 -1.1 0-1.9-0.6-2.4-1.7 -0.7-1.8-0.8-5.4 5.5-16.3 -3-0.6-4.4-0.4-6.1 0.7 -2.1 1.5-2 3.7-1.8 8.5 -1.6 15.9-15.1 15-15.1 15s-8.2 1.4-18.6-11.1c-18.7-30.1 8.6-51.2 8.6-51.2 10.1-7.1 30.4-10.1 43.1 0.8 3.5 3 6.3 6.3 8.5 9.7 0.1-0.1 0.1-0.2 0.2-0.2 -0.3-0.7-0.5-1.5-0.5-2.3 -0.1-3 3.3-6.1 5.4-7.2 2.1-1.2 4.2-1.4 6-2.4 1.4-0.8 2.6-0.9 3.7-3.1 0.3-0.5 0.5-0.6 0.9-0.7 0.6 0 1.3 0.4 1.6 2.6S196.1 134.8 185.4 138.8z"/><path fill="#525252" d="M176.1 136.2c-0.1 0.1-0.2 0.2-0.3 0.3 -2.6 3.5-7.2 9.8-11.6 16.5 -2.3 3.4-4.1 6.3-5.6 8.8 -5.7 9.7-6.1 13.1-5.9 14.2 0.9-0.4 3.9-2.5 11.7-12.9 1.6-2.2 3.4-4.7 5.5-7.6 3.1-4.4 6.1-8.9 8.5-12.5 1-1.5 1.9-3 2.7-4.2 -2-0.2-2-0.7-3.1-1.1C177.5 137.5 176.8 137 176.1 136.2z"/><path fill="#FFFFFF" d="M258.4-268c-0.7-5.5-2.6-6.5-4-6.4 -0.8 0.1-1.5 0.3-2.1 1.6 -2.7 5.4-5.6 5.7-9.2 7.7 -4.3 2.4-9.6 3-14.9 5.9s-13.8 10.5-13.6 18.1c0.1 2 0.6 4 1.3 5.9 -0.1 0.2-0.3 0.4-0.4 0.6 -5.3-8.3-12.4-16.6-21.1-24.1 -31.8-27.4-82.5-19.9-107.7-2.1 0 0-68.4 52.6-21.6 127.9 26 31.3 46.5 27.7 46.5 27.7s33.8 2 37.7-37.6c-0.5-12-0.8-17.6 4.5-21.3 4.1-2.8 7.5-3.2 15.2-1.8 -15.6 27.1-15.6 36.2-13.7 40.7 1.1 2.6 3.3 4.1 5.9 4.1 0 0 0 0 0 0 3.1 0 9.9-0.2 38.7-39.3 8.6-0.3 14.7-4.7 22.9-16.5 4.3-6.2 6-14.5 5.2-23.8 5.8-8.7 10.6-16.2 13.8-21.1 0.5 0 1.1-0.1 1.7-0.1C270.3-231.9 259.2-262.5 258.4-268zM87-153.9c-7 0-12.7-5.7-12.7-12.7 0-7 5.7-12.7 12.7-12.7 7 0 12.7 5.7 12.7 12.7C99.7-159.6 94-153.9 87-153.9zM89.6-200.5c-7 0-12.7-5.7-12.7-12.7 0-7 5.7-12.7 12.7-12.7s12.7 5.7 12.7 12.7C102.4-206.2 96.7-200.5 89.6-200.5zM127.5-228.4c-7 0-12.7-5.7-12.7-12.7 0-7 5.7-12.7 12.7-12.7 7 0 12.7 5.7 12.7 12.7C140.2-234.1 134.5-228.4 127.5-228.4zM161.7-230.4c0-7 5.7-12.7 12.7-12.7 7 0 12.7 5.7 12.7 12.7 0 7-5.7 12.7-12.7 12.7C167.4-217.7 161.7-223.4 161.7-230.4zM226-211.4c-6 9.1-13.4 20.2-21.2 31.2 -5.1 7.3-9.7 13.6-13.7 19 -19.6 26.2-26.9 31.3-29.2 32.3 -0.5-2.7 0.4-11.2 14.7-35.5 3.7-6.3 8.2-13.6 13.9-22.1 11.1-16.7 22.6-32.5 29.1-41.2 0.2-0.3 0.4-0.6 0.6-0.9 1.7 1.9 3.6 3.3 5 3.9 2.6 1 2.6 2.4 7.6 2.8C230.9-218.8 228.6-215.3 226-211.4z"/></svg>