<?xml version="1.0" encoding="utf-8"?>
<!-- Generator: Adobe Illustrator 16.0.4, SVG Export Plug-In . SVG Version: 6.00 Build 0)  -->
<!DOCTYPE svg PUBLIC "-//W3C//DTD SVG 1.1//EN" "http://www.w3.org/Graphics/SVG/1.1/DTD/svg11.dtd">
<svg version="1.1" id="Layer_1" xmlns="http://www.w3.org/2000/svg" xmlns:xlink="http://www.w3.org/1999/xlink" x="0px" y="0px"
	 width="300px" height="300px" viewBox="0 0 300 300" enable-background="new 0 0 300 300" xml:space="preserve">
<g>
	<g>
		<circle fill="#74787B" cx="155" cy="-191" r="138.051"/>
	</g>
	<g>
		<path fill="#74787B" d="M155-335c38.463,0,74.624,14.979,101.822,42.178C284.021-265.624,299-229.463,299-191
			s-14.979,74.624-42.178,101.822C229.624-61.979,193.463-47,155-47S80.375-61.979,53.177-89.178C25.979-116.376,11-152.537,11-191
			s14.979-74.624,42.177-101.822C80.375-320.021,116.537-335,155-335 M155-341C72.159-341,5-273.84,5-191
			C5-108.159,72.159-41,155-41s150-67.159,150-150C305-273.84,237.841-341,155-341L155-341z"/>
	</g>
</g>
<g>
	<path fill="#FFFFFF" d="M-252.457-141.721c-31.775-27.413-82.518-19.937-107.716-2.077c0,0-68.395,52.612-21.599,127.93
		c26.029,31.291,46.52,27.69,46.52,27.69s33.782,2.021,37.659-37.617c-0.514-11.983-0.796-17.556,4.534-21.276
		c6.065-4.233,10.794-3.025,29.941,1.437c18.936,4.412,26.652,3.807,39.111-14.261C-211.545-77.963-220.684-114.307-252.457-141.721
		z M-359.859-36.799c-7.034,0-12.737-5.703-12.737-12.737c0-7.034,5.704-12.737,12.737-12.737c7.035,0,12.738,5.703,12.738,12.737
		C-347.121-42.502-352.825-36.799-359.859-36.799z M-357.171-83.47c-7.035,0-12.737-5.703-12.737-12.737s5.703-12.737,12.737-12.737
		c7.034,0,12.737,5.703,12.737,12.737S-350.137-83.47-357.171-83.47z M-319.313-111.31c-7.035,0-12.737-5.703-12.737-12.737
		c0-7.035,5.703-12.738,12.737-12.738s12.737,5.703,12.737,12.738C-306.576-117.013-312.279-111.31-319.313-111.31z M-272.395-100.6
		c-7.034,0-12.738-5.703-12.738-12.738c0-7.034,5.704-12.737,12.738-12.737c7.033,0,12.737,5.704,12.737,12.737
		C-259.657-106.303-265.361-100.6-272.395-100.6z"/>
	<path fill="#FFFFFF" d="M-188.389-150.962c-0.727-5.503-2.568-6.504-3.98-6.403c-0.81,0.057-1.483,0.293-2.146,1.626
		c-2.704,5.442-5.612,5.706-9.207,7.719c-4.327,2.423-9.588,2.976-14.916,5.884c-5.329,2.907-13.777,10.488-13.571,18.088
		c0.056,2.002,0.557,3.989,1.326,5.862c-5.702,7.59-19.004,25.567-31.648,44.668c-30.953,46.759-31.433,59.66-29.1,65.296
		c1.087,2.629,3.255,4.138,5.945,4.139c0.015,0,0.029,0,0.044,0c3.45,0,11.565-0.227,49.529-54.313
		c12.922-18.411,25.018-36.979,31.104-46.447c0.536-0.036,1.088-0.074,1.669-0.118
		C-176.552-114.826-187.662-145.458-188.389-150.962z M-241.943-63.106c-30.062,42.878-40.122,50.152-42.978,51.331
		c-0.636-3.428,0.974-15.841,28.604-57.587c11.418-17.25,23.388-33.591,29.706-42.058c1.727,1.926,3.551,3.316,4.994,3.862
		c2.647,1.001,2.584,2.447,7.628,2.841C-220.477-94.697-230.894-78.865-241.943-63.106z"/>
</g>
<circle fill="none" cx="-185.494" cy="134.542" r="12.738"/>
<circle fill="none" cx="-223.352" cy="162.382" r="12.737"/>
<circle fill="none" cx="-226.04" cy="209.054" r="12.737"/>
<path fill="none" d="M-136.373,211.316c-14.304,24.341-15.234,32.771-14.729,35.498c2.367-0.978,9.696-6.164,29.25-32.32
	c-2.288-0.389-4.751-0.91-7.448-1.539C-131.916,212.346-134.255,211.799-136.373,211.316z"/>
<circle fill="none" cx="-138.575" cy="145.252" r="12.738"/>
<path fill="none" d="M-80.17,153.874c-5.044-0.396-4.98-1.84-7.628-2.841c-1.443-0.546-3.268-1.937-4.994-3.863
	c-0.201,0.27-0.424,0.569-0.636,0.854c2.882,5.487,5.044,10.953,6.475,16.235C-84.402,160.386-82.108,156.866-80.17,153.874z"/>
<g>
	<g>
		<path fill="#525252" d="M150,6c38.463,0,74.624,14.979,101.822,42.178C279.021,75.376,294,111.537,294,150
			s-14.979,74.624-42.178,101.822C224.624,279.021,188.463,294,150,294s-74.625-14.979-101.823-42.178
			C20.979,224.624,6,188.463,6,150S20.979,75.376,48.177,48.178C75.375,20.979,111.537,6,150,6 M150,0C67.159,0,0,67.16,0,150
			c0,82.841,67.159,150,150,150s150-67.159,150-150C300,67.16,232.841,0,150,0L150,0z"/>
	</g>
	<g>
		<g>
			<circle fill="#525252" cx="122.506" cy="102.876" r="12.738"/>
		</g>
		<g>
			<circle fill="#525252" cx="84.648" cy="130.716" r="12.737"/>
		</g>
		<g>
			<circle fill="#525252" cx="81.959" cy="177.388" r="12.737"/>
		</g>
		<g>
			<circle fill="#525252" cx="169.424" cy="113.586" r="12.738"/>
		</g>
		<g>
			<path fill="#525252" d="M150,11.949C73.758,11.949,11.949,73.758,11.949,150S73.759,288.051,150,288.051
				c76.242,0,138.051-61.809,138.051-138.051S226.242,11.949,150,11.949z M238.479,121.963c-0.582,0.044-1.133,0.082-1.67,0.117
				c-3.197,4.976-8.064,12.477-13.83,21.136c0.82,9.347-0.912,17.646-5.166,23.813c-8.17,11.848-14.301,16.186-22.895,16.523
				c-28.792,39.098-35.646,39.288-38.742,39.288c-0.015,0-0.029,0-0.044,0c-2.688-0.002-4.856-1.51-5.945-4.139
				c-1.856-4.485-1.914-13.593,13.733-40.683c-7.618-1.396-11.092-1.008-15.16,1.832c-5.33,3.722-5.048,9.293-4.534,21.275
				c-3.877,39.641-37.659,37.617-37.659,37.617s-20.491,3.602-46.52-27.689C13.25,135.738,81.646,83.127,81.646,83.127
				c25.198-17.86,75.941-25.337,107.717,2.076c8.757,7.556,15.785,15.79,21.125,24.133c0.152-0.204,0.305-0.406,0.447-0.598
				c-0.77-1.872-1.271-3.859-1.326-5.861c-0.205-7.601,8.242-15.182,13.572-18.089c5.327-2.907,10.588-3.461,14.916-5.884
				c3.594-2.013,6.502-2.277,9.207-7.719c0.662-1.333,1.336-1.569,2.146-1.627c1.411-0.101,3.254,0.899,3.979,6.403
				C254.156,81.465,265.268,112.098,238.479,121.963z"/>
		</g>
		<g>
			<path fill="#525252" d="M215.208,115.505c-0.201,0.27-0.424,0.568-0.636,0.854c-6.461,8.676-18.016,24.503-29.07,41.204
				c-5.65,8.537-10.197,15.83-13.875,22.088c-14.305,24.342-15.234,32.771-14.729,35.498c2.365-0.977,9.695-6.164,29.25-32.319
				c4.037-5.399,8.582-11.673,13.728-19.011c7.749-11.053,15.181-22.131,21.171-31.225c2.551-3.874,4.846-7.394,6.783-10.386
				c-5.044-0.395-4.98-1.84-7.628-2.841C218.759,118.821,216.936,117.431,215.208,115.505z"/>
		</g>
	</g>
</g>
<path fill="#FFFFFF" d="M258.432-268.038c-0.728-5.504-2.568-6.504-3.98-6.403c-0.811,0.058-1.483,0.294-2.146,1.627
	c-2.703,5.441-5.611,5.706-9.207,7.719c-4.326,2.423-9.588,2.977-14.916,5.884s-13.777,10.488-13.57,18.089
	c0.056,2.002,0.557,3.989,1.326,5.861c-0.145,0.191-0.295,0.394-0.448,0.598c-5.341-8.343-12.368-16.577-21.125-24.133
	c-31.775-27.413-82.519-19.937-107.717-2.076c0,0-68.395,52.611-21.599,127.93c26.029,31.291,46.52,27.689,46.52,27.689
	s33.782,2.023,37.659-37.617c-0.514-11.982-0.796-17.555,4.535-21.275c4.067-2.84,7.541-3.229,15.159-1.832
	c-15.646,27.09-15.59,36.196-13.733,40.682c1.088,2.629,3.256,4.137,5.945,4.139c0.016,0,0.029,0,0.045,0
	c3.094,0,9.949-0.191,38.741-39.288c8.593-0.339,14.724-4.677,22.896-16.524c4.254-6.168,5.985-14.468,5.164-23.813
	c5.767-8.659,10.633-16.16,13.832-21.136c0.535-0.035,1.088-0.073,1.668-0.117C270.268-231.902,259.157-262.534,258.432-268.038z
	 M86.959-153.875c-7.034,0-12.737-5.703-12.737-12.738c0-7.033,5.704-12.736,12.737-12.736c7.035,0,12.738,5.703,12.738,12.736
	C99.697-159.578,93.994-153.875,86.959-153.875z M89.648-200.547c-7.035,0-12.737-5.702-12.737-12.736
	c0-7.035,5.703-12.737,12.737-12.737s12.737,5.702,12.737,12.737C102.385-206.249,96.682-200.547,89.648-200.547z M127.506-228.386
	c-7.035,0-12.737-5.703-12.737-12.737c0-7.035,5.703-12.738,12.737-12.738c7.034,0,12.737,5.703,12.737,12.738
	C140.243-234.089,134.54-228.386,127.506-228.386z M161.688-230.414c0-7.033,5.703-12.737,12.737-12.737
	c7.033,0,12.737,5.704,12.737,12.737c0,7.035-5.704,12.738-12.737,12.738C167.391-217.676,161.688-223.379,161.688-230.414z
	 M226.047-211.406c-5.99,9.093-13.422,20.172-21.171,31.225c-5.146,7.337-9.69,13.609-13.728,19.01
	c-19.555,26.156-26.885,31.344-29.25,32.32c-0.506-2.727,0.425-11.157,14.729-35.498c3.678-6.258,8.225-13.551,13.875-22.088
	c11.055-16.701,22.609-32.528,29.07-41.204c0.212-0.285,0.435-0.584,0.636-0.854c1.728,1.926,3.551,3.316,4.994,3.862
	c2.647,1.001,2.584,2.446,7.628,2.841C230.893-218.8,228.598-215.28,226.047-211.406z"/>
</svg>
