<svg xmlns="http://www.w3.org/2000/svg" version="1.1" x="0" y="0" width="122" height="122" viewBox="0 0 122 122" enable-background="new 0 0 122 122" xml:space="preserve"><path fill="#525252" d="M61 3.4c15.4 0 29.9 6 40.7 16.9S118.6 45.6 118.6 61s-6 29.9-16.9 40.7C90.9 112.6 76.4 118.6 61 118.6s-29.8-6-40.7-16.9C9.4 90.9 3.4 76.4 3.4 61s6-29.8 16.9-40.7S45.6 3.4 61 3.4M61 1C27.9 1 1 27.9 1 61c0 33.1 26.9 60 60 60s60-26.9 60-60C121 27.9 94.1 1 61 1L61 1z"/><path fill="#525252" d="M23.8 69.3c-1.3 0-2.5 0.6-3.4 1.5 -1.9 1.9-1.8 5 0.1 6.9s5 1.8 6.9-0.1c0.9-0.9 1.4-2.2 1.4-3.5 0-1.3-0.6-2.5-1.5-3.4C26.4 69.8 25.1 69.3 23.8 69.3z"/><path fill="#525252" d="M28.1 40.1c0 0-0.1 0-0.1 0 -1.3 0-2.5 0.6-3.4 1.5 -0.9 0.9-1.4 2.2-1.4 3.5 0 1.3 0.6 2.5 1.5 3.4 0.9 0.9 2.2 1.4 3.5 1.4s2.5-0.6 3.4-1.5c0.9-0.9 1.4-2.2 1.4-3.5 0-1.3-0.6-2.5-1.5-3.4C30.6 40.6 29.4 40.1 28.1 40.1z"/><path fill="#525252" d="M93.8 49.9c1.3 0 2.5-0.5 3.5-1.4 0.9-0.9 1.5-2.1 1.5-3.4 0-1.3-0.5-2.5-1.4-3.5 -0.9-0.9-2.1-1.5-3.4-1.5 0 0-0.1 0-0.1 0 -1.3 0-2.5 0.5-3.4 1.4 -0.9 0.9-1.5 2.1-1.5 3.4 0 1.3 0.5 2.5 1.4 3.5C91.3 49.4 92.5 49.9 93.8 49.9z"/><path fill="#525252" d="M60.9 94c-1.3 0-2.5 0.6-3.4 1.5 -0.9 0.9-1.4 2.2-1.4 3.5 0 1.3 0.6 2.5 1.5 3.4 1.9 1.9 5 1.8 6.9-0.1s1.8-5-0.1-6.9c-0.9-0.9-2.1-1.4-3.4-1.4C61 94 60.9 94 60.9 94z"/><path fill="#525252" d="M65.9 23c0-1.3-0.6-2.5-1.5-3.4 -0.9-0.9-2.1-1.4-3.4-1.4 0 0-0.1 0-0.1 0 -1.3 0-2.5 0.6-3.4 1.5 -0.9 0.9-1.4 2.2-1.4 3.5 0 1.3 0.6 2.5 1.5 3.4s2.2 1.4 3.5 1.4c1.3 0 2.5-0.6 3.4-1.5C65.4 25.6 65.9 24.4 65.9 23z"/><path fill="#525252" d="M61 5.8C30.5 5.8 5.8 30.5 5.8 61S30.5 116.2 61 116.2c30.5 0 55.2-24.7 55.2-55.2S91.5 5.8 61 5.8zM98.1 81.7c-1.9 0-3.9-0.8-5.3-2.3 -1.4-1.4-2.1-3.3-2.1-5.3 0-0.4 0.1-0.8 0.1-1.2l-24.6-9.2c-0.3 0.4-0.6 0.8-0.9 1.1 -0.9 0.8-1.9 1.4-3 1.6v25.2c1.4 0.2 2.8 0.9 3.9 2 2.9 2.8 3 7.5 0.2 10.4 -1.4 1.5-3.4 2.3-5.3 2.3 -1.8 0-3.7-0.7-5.1-2.1 -1.4-1.4-2.2-3.2-2.3-5.2 0-2 0.7-3.8 2.1-5.3 1.1-1.1 2.5-1.9 4.1-2.2V66.4c-1.2-0.2-2.3-0.8-3.2-1.8 -0.3-0.3-0.6-0.7-0.8-1L31.2 72.9c0.1 0.4 0.1 0.8 0.1 1.2 0 2-0.7 3.8-2.1 5.3 -1.4 1.5-3.4 2.3-5.3 2.3 -1.8 0-3.7-0.7-5.1-2.1 -2.9-2.8-3-7.5-0.2-10.4 1.4-1.4 3.2-2.2 5.2-2.3 2 0 3.8 0.7 5.3 2.1 0.5 0.5 0.9 1 1.3 1.6l24.6-9.2c-0.1-0.8-0.1-1.6 0.1-2.3l-20.9-9.7c-0.2 0.3-0.5 0.6-0.7 0.9 -1.4 1.4-3.2 2.2-5.2 2.3 -2 0-3.8-0.7-5.3-2.1 -1.4-1.4-2.2-3.2-2.3-5.2 0-2 0.7-3.8 2.1-5.3 1.4-1.4 3.2-2.2 5.2-2.3 2 0 3.8 0.7 5.3 2.1 1.4 1.4 2.2 3.2 2.3 5.2 0 0.7-0.1 1.4-0.3 2.1L56.1 56.7c0.2-0.2 0.4-0.5 0.6-0.7 0.9-0.8 1.9-1.4 3-1.6V30.4c-1.4-0.2-2.8-0.9-3.9-2 -1.4-1.4-2.2-3.2-2.3-5.2 0-2 0.7-3.8 2.1-5.3 1.4-1.4 3.2-2.2 5.2-2.3 2 0 3.8 0.7 5.3 2.1 1.4 1.4 2.2 3.2 2.3 5.2 0 2-0.7 3.8-2.1 5.3 -1.1 1.1-2.5 1.9-4.1 2.2v24c1.2 0.2 2.3 0.8 3.2 1.8 0.2 0.2 0.3 0.4 0.5 0.6l20.8-9.7c-0.2-0.7-0.3-1.4-0.3-2.1 0-2 0.8-3.8 2.3-5.2s3.3-2.1 5.3-2.1c2 0 3.8 0.8 5.2 2.3 1.4 1.4 2.1 3.3 2.1 5.3 0 2-0.8 3.8-2.3 5.2l0 0c-1.4 1.4-3.3 2.1-5.3 2.1 -2 0-3.8-0.8-5.2-2.3 -0.3-0.3-0.5-0.6-0.7-0.9L67 59c0.2 0.8 0.2 1.6 0.1 2.3l24.6 9.2c0.3-0.6 0.8-1.1 1.3-1.6 2.9-2.8 7.6-2.7 10.4 0.2 2.8 2.9 2.7 7.6-0.2 10.4C101.8 81 99.9 81.7 98.1 81.7z"/><path fill="#525252" d="M98.1 69.4c-1.2 0-2.4 0.5-3.4 1.4 -0.9 0.9-1.5 2.1-1.5 3.4 0 1.3 0.5 2.5 1.4 3.5 1.9 1.9 5 2 6.9 0.1 1.9-1.9 2-5 0.1-6.9C100.6 69.9 99.4 69.4 98.1 69.4z"/></svg>