<?xml version="1.0" encoding="utf-8"?>
<!-- Generator: Adobe Illustrator 16.0.4, SVG Export Plug-In . SVG Version: 6.00 Build 0)  -->
<!DOCTYPE svg PUBLIC "-//W3C//DTD SVG 1.1//EN" "http://www.w3.org/Graphics/SVG/1.1/DTD/svg11.dtd">
<svg version="1.1" id="Layer_1" xmlns="http://www.w3.org/2000/svg" xmlns:xlink="http://www.w3.org/1999/xlink" x="0px" y="0px"
	 width="122px" height="122px" viewBox="0 0 122 122" enable-background="new 0 0 122 122" xml:space="preserve">
<g>
	<g>
		<path fill="#525252" d="M61,3.4c15.385,0,29.85,5.992,40.729,16.871S118.6,45.615,118.6,61s-5.99,29.85-16.871,40.729
			C90.85,112.607,76.385,118.6,61,118.6s-29.85-5.99-40.729-16.871C9.393,90.85,3.4,76.385,3.4,61s5.992-29.85,16.871-40.729
			S45.615,3.4,61,3.4 M61,1C27.863,1,1,27.864,1,61c0,33.137,26.863,60,60,60s60-26.863,60-60C121,27.864,94.137,1,61,1L61,1z"/>
	</g>
	<g>
		<g>
			<path fill="#525252" d="M23.826,69.346c-1.307,0.024-2.521,0.557-3.428,1.496c-1.869,1.941-1.811,5.041,0.131,6.909
				s5.041,1.81,6.91-0.132c0.904-0.939,1.39-2.176,1.365-3.48c-0.025-1.307-0.557-2.522-1.498-3.428
				C26.368,69.807,25.135,69.322,23.826,69.346z"/>
		</g>
		<g>
			<path fill="#525252" d="M28.122,40.111c-0.032,0-0.063,0-0.095,0c-1.305,0.024-2.522,0.557-3.428,1.496
				c-0.906,0.94-1.391,2.178-1.365,3.482c0.024,1.305,0.557,2.521,1.496,3.428c0.94,0.905,2.176,1.391,3.481,1.365
				s2.522-0.557,3.429-1.498c0.904-0.939,1.389-2.177,1.364-3.482c-0.024-1.305-0.557-2.521-1.497-3.426
				C30.591,40.594,29.393,40.111,28.122,40.111z"/>
		</g>
		<g>
			<path fill="#525252" d="M93.787,49.936c1.309,0.024,2.542-0.461,3.482-1.367c0.938-0.905,1.472-2.123,1.496-3.426
				c0.024-1.306-0.459-2.543-1.365-3.482c-0.905-0.94-2.123-1.473-3.428-1.497c-0.031-0.001-0.063-0.001-0.096-0.001
				c-1.271,0-2.47,0.482-3.387,1.365c-0.94,0.906-1.473,2.123-1.497,3.429c-0.024,1.305,0.461,2.542,1.366,3.481
				C91.266,49.378,92.482,49.91,93.787,49.936z"/>
		</g>
		<g>
			<path fill="#525252" d="M60.907,93.979c-1.306,0.023-2.522,0.556-3.427,1.496c-0.905,0.939-1.391,2.176-1.365,3.48
				c0.023,1.306,0.557,2.523,1.496,3.427c1.941,1.869,5.041,1.81,6.91-0.131s1.81-5.042-0.131-6.909
				c-0.918-0.883-2.117-1.365-3.388-1.365C60.971,93.977,60.939,93.977,60.907,93.979z"/>
		</g>
		<g>
			<path fill="#525252" d="M65.883,23.048c-0.023-1.306-0.557-2.522-1.496-3.428c-0.916-0.884-2.117-1.366-3.387-1.366
				c-0.032,0-0.062,0-0.096,0.001c-1.305,0.025-2.521,0.556-3.428,1.497c-0.904,0.939-1.39,2.178-1.365,3.482
				c0.025,1.306,0.558,2.521,1.498,3.427s2.174,1.391,3.481,1.366c1.306-0.025,2.522-0.558,3.429-1.497
				C65.424,25.589,65.908,24.354,65.883,23.048z"/>
		</g>
		<g>
			<path fill="#525252" d="M61,5.78C30.503,5.78,5.779,30.503,5.779,61S30.504,116.221,61,116.221
				c30.497,0,55.221-24.724,55.221-55.221S91.497,5.78,61,5.78z M98.082,81.661c-1.938,0-3.873-0.757-5.318-2.259
				c-1.369-1.422-2.102-3.289-2.062-5.26c0.008-0.422,0.051-0.836,0.127-1.242l-24.639-9.217c-0.26,0.409-0.57,0.797-0.937,1.146
				c-0.864,0.833-1.912,1.359-3.009,1.586v25.167c1.449,0.246,2.792,0.919,3.875,1.961c2.932,2.822,3.021,7.505,0.197,10.438
				c-1.445,1.502-3.381,2.259-5.318,2.259c-1.844,0-3.689-0.685-5.119-2.062c-1.42-1.367-2.223-3.205-2.261-5.178
				c-0.038-1.971,0.694-3.839,2.062-5.26c1.107-1.15,2.523-1.895,4.068-2.157V66.416c-1.168-0.242-2.279-0.826-3.169-1.751
				c-0.308-0.317-0.571-0.662-0.795-1.022L31.171,72.85c0.077,0.405,0.119,0.819,0.127,1.241c0.038,1.972-0.694,3.839-2.062,5.259
				c-1.447,1.504-3.383,2.26-5.319,2.26c-1.843,0-3.688-0.685-5.118-2.062c-2.933-2.821-3.021-7.505-0.199-10.438
				c1.367-1.42,3.207-2.224,5.178-2.26c1.973-0.039,3.84,0.693,5.26,2.062c0.498,0.479,0.921,1.019,1.261,1.599l24.632-9.213
				c-0.113-0.779-0.076-1.577,0.11-2.345l-20.858-9.745c-0.222,0.318-0.472,0.623-0.746,0.909c-1.367,1.42-3.207,2.223-5.179,2.261
				c-1.972,0.037-3.84-0.695-5.26-2.062c-1.421-1.366-2.224-3.205-2.261-5.176c-0.039-1.972,0.693-3.84,2.062-5.261
				c1.367-1.42,3.206-2.224,5.179-2.261c1.971-0.039,3.838,0.695,5.26,2.062c1.42,1.367,2.223,3.206,2.261,5.179
				c0.014,0.716-0.075,1.418-0.257,2.091L56.113,56.7c0.188-0.249,0.398-0.485,0.631-0.709c0.865-0.833,1.91-1.359,3.006-1.585
				V30.418c-1.45-0.245-2.792-0.918-3.875-1.96c-1.42-1.368-2.223-3.206-2.262-5.179c-0.036-1.971,0.695-3.838,2.062-5.26
				c1.367-1.42,3.207-2.223,5.178-2.261c1.973-0.039,3.84,0.695,5.26,2.062c1.422,1.369,2.226,3.207,2.262,5.179
				c0.037,1.972-0.693,3.839-2.062,5.26c-1.106,1.149-2.522,1.896-4.066,2.157v23.988c1.169,0.242,2.279,0.826,3.171,1.752
				c0.181,0.186,0.342,0.381,0.493,0.582l20.846-9.74c-0.184-0.673-0.271-1.375-0.257-2.092c0.037-1.973,0.841-3.811,2.261-5.178
				s3.288-2.102,5.26-2.062c1.973,0.037,3.811,0.84,5.178,2.261c1.367,1.422,2.101,3.289,2.062,5.26
				c-0.038,1.972-0.841,3.811-2.261,5.178l0,0c-1.422,1.367-3.29,2.102-5.26,2.062c-1.973-0.037-3.811-0.841-5.178-2.261
				c-0.275-0.286-0.524-0.59-0.748-0.908L66.969,59c0.182,0.771,0.213,1.568,0.092,2.348l24.641,9.217
				c0.341-0.582,0.763-1.121,1.261-1.601c2.933-2.823,7.615-2.733,10.438,0.198c2.822,2.934,2.733,7.615-0.198,10.438
				C101.771,80.977,99.925,81.661,98.082,81.661z"/>
		</g>
		<g>
			<path fill="#525252" d="M98.08,69.396c-1.221,0-2.441,0.453-3.389,1.364c-0.94,0.905-1.474,2.122-1.498,3.429
				c-0.023,1.305,0.461,2.541,1.367,3.48c1.867,1.941,4.967,1.999,6.907,0.131c1.941-1.867,2-4.968,0.132-6.908
				C100.645,69.898,99.361,69.396,98.08,69.396z"/>
		</g>
	</g>
</g>
</svg>
