<?xml version="1.0" encoding="utf-8"?>
<!-- Generator: Adobe Illustrator 16.0.4, SVG Export Plug-In . SVG Version: 6.00 Build 0)  -->
<!DOCTYPE svg PUBLIC "-//W3C//DTD SVG 1.1//EN" "http://www.w3.org/Graphics/SVG/1.1/DTD/svg11.dtd">
<svg version="1.1" id="Layer_1" xmlns="http://www.w3.org/2000/svg" xmlns:xlink="http://www.w3.org/1999/xlink" x="0px" y="0px"
	 width="300px" height="300px" viewBox="0 0 300 300" enable-background="new 0 0 300 300" xml:space="preserve">
<g>
	<g>
		<path fill="#74787B" d="M-599,197.579c38.463,0,74.624,14.979,101.822,42.178C-469.979,266.955-455,303.116-455,341.579
			s-14.979,74.624-42.178,101.822C-524.376,470.6-560.537,485.579-599,485.579s-74.625-14.979-101.823-42.178
			C-728.021,416.203-743,380.042-743,341.579s14.979-74.624,42.177-101.822C-673.625,212.559-637.463,197.579-599,197.579
			 M-599,191.579c-82.841,0-150,67.159-150,150s67.159,150,150,150s150-67.159,150-150S-516.159,191.579-599,191.579L-599,191.579z"
			/>
	</g>
	<g>
		<g>
			<path fill="#74787B" d="M-532.434,383.158c-5.426,0-10.567,2.074-14.479,5.837c-4.019,3.868-6.289,9.071-6.396,14.646
				c-0.105,5.578,1.965,10.86,5.833,14.878c3.974,4.128,9.316,6.4,15.048,6.4c5.426,0,10.569-2.073,14.479-5.837
				c8.294-7.987,8.546-21.23,0.562-29.526C-521.359,385.432-526.703,383.158-532.434,383.158z"/>
		</g>
		<g>
			<path fill="#74787B" d="M-550.378,300c5.426,0,10.568-2.073,14.479-5.838c4.018-3.867,6.29-9.07,6.396-14.646
				s-1.966-10.861-5.835-14.879c-3.973-4.127-9.315-6.4-15.046-6.4c-5.427,0-10.569,2.074-14.479,5.84
				c-8.296,7.984-8.548,21.23-0.562,29.525C-561.451,297.729-556.107,300-550.378,300z"/>
		</g>
		<g>
			<path fill="#74787B" d="M-599,203.527c-76.242,0-138.051,61.811-138.051,138.052c0,76.242,61.81,138.051,138.051,138.051
				c76.242,0,138.051-61.809,138.051-138.051C-460.949,265.338-522.758,203.527-599,203.527z M-510.554,426.766
				c-5.907,5.687-13.676,8.818-21.874,8.818c-8.656,0-16.727-3.435-22.729-9.668c-5.844-6.068-8.974-14.052-8.812-22.477
				c0.034-1.797,0.226-3.568,0.553-5.301l-105.298-39.388c-1.106,1.753-2.432,3.399-3.991,4.901
				c-10.429,10.037-27.023,9.724-37.063-0.707c-10.041-10.43-9.724-27.022,0.705-37.063c10.429-10.039,27.023-9.724,37.064,0.705
				c0.765,0.795,1.461,1.628,2.106,2.488l89.097-41.63c-2.93-10.772-0.052-22.78,8.54-31.055c5.908-5.688,13.677-8.817,21.875-8.817
				c8.656,0,16.727,3.434,22.729,9.668c5.844,6.069,8.974,14.053,8.813,22.477c-0.161,8.425-3.592,16.282-9.663,22.125
				c-5.907,5.688-13.674,8.82-21.874,8.82c-8.655,0-16.726-3.435-22.728-9.668c-1.183-1.229-2.239-2.529-3.184-3.888l-89.088,41.625
				c0.775,3.293,0.906,6.703,0.395,10.031l105.295,39.387c1.452-2.484,3.248-4.787,5.38-6.838
				c5.908-5.687,13.676-8.818,21.874-8.818c8.655,0,16.727,3.436,22.728,9.668C-497.643,394.693-498.024,414.701-510.554,426.766z"
				/>
		</g>
	</g>
</g>
<g>
	<g>
		<circle fill="#74787B" cx="170" cy="-186" r="138.051"/>
	</g>
	<g>
		<path fill="#74787B" d="M170-330c38.463,0,74.624,14.979,101.822,42.178C299.021-260.624,314-224.463,314-186
			s-14.979,74.624-42.178,101.822C244.624-56.979,208.463-42,170-42S95.375-56.979,68.177-84.178C40.979-111.376,26-147.537,26-186
			s14.979-74.624,42.177-101.822C95.375-315.021,131.537-330,170-330 M170-336c-82.841,0-150,67.16-150,150
			c0,82.841,67.159,150,150,150s150-67.159,150-150C320-268.84,252.841-336,170-336L170-336z"/>
	</g>
</g>
<path d="M259.294-145.416c-6.001-6.233-14.071-9.668-22.728-9.668c-8.198,0-15.967,3.133-21.875,8.818
	c-2.131,2.051-3.928,4.354-5.379,6.839l-105.295-39.388c0.511-3.328,0.381-6.738-0.395-10.031l89.088-41.625
	c0.944,1.357,2.001,2.658,3.185,3.887c6.002,6.234,14.071,9.667,22.728,9.667c8.2,0,15.967-3.133,21.874-8.82
	c6.07-5.843,9.502-13.7,9.663-22.125c0.159-8.424-2.97-16.407-8.813-22.477c-6.002-6.235-14.072-9.668-22.729-9.668
	c-8.198,0-15.967,3.131-21.875,8.819c-8.592,8.272-11.471,20.281-8.54,31.053l-89.097,41.63c-0.645-0.86-1.341-1.693-2.106-2.488
	c-10.041-10.429-26.635-10.745-37.064-0.705c-10.429,10.041-10.746,26.634-0.705,37.063c10.04,10.431,26.634,10.745,37.063,0.707
	c1.559-1.502,2.885-3.148,3.991-4.901l105.298,39.388c-0.327,1.731-0.52,3.504-0.553,5.3c-0.16,8.425,2.97,16.408,8.812,22.477
	c6.002,6.233,14.072,9.668,22.729,9.668c8.199,0,15.968-3.133,21.875-8.818C270.977-112.878,271.357-132.886,259.294-145.416z
	 M204.139-263.504c3.909-3.765,9.053-5.838,14.479-5.838c5.729,0,11.073,2.272,15.046,6.399c3.869,4.019,5.941,9.303,5.835,14.88
	c-0.106,5.576-2.379,10.778-6.396,14.646c-3.912,3.765-9.055,5.838-14.479,5.838c-5.729,0-11.073-2.273-15.045-6.399
	C195.591-242.273,195.843-255.519,204.139-263.504z M251.052-108.495c-3.909,3.764-9.054,5.837-14.479,5.837
	c-5.731,0-11.074-2.273-15.048-6.4c-3.868-4.018-5.938-9.3-5.834-14.878c0.106-5.576,2.377-10.778,6.396-14.647
	c3.912-3.763,9.055-5.837,14.479-5.837c5.73,0,11.074,2.273,15.047,6.398C259.598-129.726,259.346-116.482,251.052-108.495z"/>
<g>
	<g>
		<path fill="#525252" d="M150,6c38.463,0,74.624,14.979,101.822,42.178C279.021,75.376,294,111.537,294,150
			s-14.979,74.624-42.178,101.822C224.624,279.021,188.463,294,150,294s-74.625-14.979-101.823-42.178
			C20.979,224.624,6,188.463,6,150S20.979,75.376,48.177,48.178C75.375,20.979,111.537,6,150,6 M150,0C67.159,0,0,67.16,0,150
			c0,82.841,67.159,150,150,150s150-67.159,150-150C300,67.16,232.841,0,150,0L150,0z"/>
	</g>
	<g>
		<g>
			<path fill="#525252" d="M57.065,170.863c-3.263,0.062-6.306,1.392-8.569,3.742c-4.671,4.854-4.524,12.602,0.329,17.272
				c4.853,4.672,12.602,4.522,17.274-0.328c2.263-2.352,3.475-5.44,3.413-8.704c-0.062-3.265-1.391-6.308-3.742-8.568
				C63.419,172.014,60.337,170.805,57.065,170.863z"/>
		</g>
		<g>
			<path fill="#525252" d="M67.805,97.777c-0.079,0-0.159,0-0.238,0.002c-3.263,0.062-6.306,1.391-8.569,3.742
				s-3.475,5.442-3.413,8.706c0.062,3.262,1.391,6.305,3.742,8.568c2.35,2.264,5.439,3.478,8.704,3.414
				c3.262-0.063,6.306-1.392,8.569-3.743c2.264-2.351,3.475-5.442,3.413-8.705c-0.062-3.263-1.391-6.306-3.742-8.568
				C73.978,98.985,70.979,97.777,67.805,97.777z"/>
		</g>
		<g>
			<path fill="#525252" d="M231.969,122.336c3.271,0.064,6.354-1.15,8.704-3.414c2.351-2.264,3.681-5.306,3.742-8.568
				s-1.149-6.354-3.413-8.705s-5.307-3.68-8.568-3.742c-0.08-0.002-0.16-0.002-0.238-0.002c-3.176,0-6.174,1.208-8.467,3.416
				c-2.352,2.263-3.68,5.306-3.742,8.569c-0.062,3.263,1.15,6.354,3.414,8.705C225.662,120.946,228.706,122.274,231.969,122.336z"/>
		</g>
		<g>
			<path fill="#525252" d="M149.767,232.443c-3.263,0.062-6.305,1.391-8.568,3.74c-2.264,2.352-3.475,5.442-3.414,8.705
				c0.062,3.264,1.392,6.307,3.742,8.567c4.853,4.672,12.602,4.524,17.273-0.328s4.523-12.603-0.327-17.272
				c-2.295-2.209-5.293-3.416-8.468-3.416C149.926,232.439,149.847,232.441,149.767,232.443z"/>
		</g>
		<g>
			<path fill="#525252" d="M162.208,55.119c-0.062-3.263-1.392-6.305-3.741-8.569c-2.293-2.208-5.292-3.415-8.467-3.415
				c-0.079,0-0.159,0-0.238,0.002c-3.263,0.062-6.306,1.391-8.569,3.742c-2.263,2.35-3.475,5.442-3.413,8.705
				s1.391,6.306,3.743,8.568c2.35,2.263,5.434,3.476,8.704,3.414c3.261-0.062,6.305-1.391,8.569-3.742
				C161.061,61.473,162.27,58.382,162.208,55.119z"/>
		</g>
		<g>
			<path fill="#525252" d="M150,11.949C73.758,11.949,11.949,73.758,11.949,150S73.759,288.051,150,288.051
				c76.242,0,138.051-61.809,138.051-138.051S226.242,11.949,150,11.949z M242.705,201.652c-4.844,0-9.682-1.892-13.299-5.647
				c-3.42-3.552-5.25-8.222-5.156-13.149c0.02-1.053,0.127-2.09,0.318-3.104l-61.598-23.041c-0.646,1.023-1.425,1.989-2.337,2.867
				c-2.163,2.082-4.782,3.4-7.521,3.965v62.918c3.623,0.613,6.979,2.297,9.686,4.9c7.33,7.058,7.555,18.764,0.496,26.094
				c-3.617,3.758-8.455,5.648-13.298,5.648c-4.608,0-9.222-1.709-12.796-5.151c-3.551-3.419-5.558-8.017-5.652-12.944
				c-0.095-4.928,1.737-9.599,5.155-13.15c2.768-2.875,6.308-4.736,10.171-5.393v-62.923c-2.922-0.604-5.698-2.065-7.924-4.378
				c-0.767-0.795-1.427-1.654-1.988-2.557l-61.532,23.018c0.191,1.014,0.298,2.05,0.318,3.104c0.094,4.929-1.737,9.598-5.156,13.148
				c-3.617,3.756-8.456,5.646-13.298,5.646c-4.608,0-9.222-1.709-12.796-5.15c-7.331-7.057-7.554-18.764-0.497-26.094
				c3.419-3.551,8.016-5.56,12.944-5.652c4.931-0.098,9.6,1.736,13.15,5.155c1.246,1.2,2.302,2.544,3.152,3.997l61.579-23.033
				c-0.283-1.951-0.19-3.943,0.277-5.862l-52.145-24.363c-0.556,0.797-1.179,1.557-1.867,2.272
				c-3.418,3.551-8.015,5.558-12.944,5.652c-4.929,0.092-9.599-1.737-13.149-5.156c-3.552-3.418-5.559-8.015-5.653-12.944
				c-0.094-4.928,1.737-9.598,5.156-13.15c3.418-3.551,8.015-5.559,12.944-5.652c4.927-0.098,9.599,1.737,13.15,5.156
				c3.551,3.418,5.559,8.016,5.653,12.944c0.034,1.791-0.187,3.547-0.644,5.229l52.181,24.381c0.472-0.621,0.999-1.214,1.578-1.772
				c2.163-2.082,4.778-3.398,7.516-3.964v-59.97c-3.625-0.612-6.979-2.295-9.686-4.9c-3.551-3.419-5.558-8.015-5.652-12.944
				c-0.094-4.928,1.737-9.598,5.156-13.15c3.418-3.551,8.016-5.559,12.944-5.652c4.93-0.098,9.599,1.737,13.15,5.156
				s5.56,8.016,5.651,12.945c0.094,4.929-1.736,9.599-5.155,13.15c-2.769,2.874-6.308,4.737-10.17,5.393v59.971
				c2.924,0.605,5.7,2.066,7.929,4.379c0.448,0.464,0.855,0.952,1.232,1.455L214.393,115c-0.457-1.682-0.678-3.438-0.643-5.229
				c0.094-4.929,2.102-9.526,5.652-12.944s8.219-5.255,13.148-5.156c4.93,0.093,9.525,2.101,12.944,5.652
				c3.418,3.551,5.25,8.221,5.155,13.15c-0.094,4.928-2.102,9.525-5.652,12.944v-0.001c-3.553,3.42-8.225,5.253-13.148,5.157
				c-4.93-0.095-9.525-2.102-12.945-5.653c-0.688-0.715-1.312-1.474-1.867-2.271l-52.114,24.35c0.454,1.926,0.53,3.92,0.229,5.869
				l61.598,23.041c0.852-1.454,1.906-2.8,3.152-3.999c7.332-7.059,19.037-6.834,26.095,0.496c7.058,7.332,6.835,19.037-0.497,26.096
				C251.927,199.941,247.312,201.652,242.705,201.652z"/>
		</g>
		<g>
			<path fill="#525252" d="M242.699,170.994c-3.051,0-6.104,1.133-8.471,3.41c-2.351,2.263-3.681,5.306-3.742,8.568
				c-0.061,3.262,1.15,6.354,3.414,8.705c4.672,4.854,12.42,4.999,17.272,0.328c4.854-4.672,5-12.421,0.329-17.273
				C249.109,172.246,245.906,170.994,242.699,170.994z"/>
		</g>
	</g>
</g>
</svg>
