<?xml version="1.0" encoding="utf-8"?>
<!-- Generator: Adobe Illustrator 16.0.4, SVG Export Plug-In . SVG Version: 6.00 Build 0)  -->
<!DOCTYPE svg PUBLIC "-//W3C//DTD SVG 1.1//EN" "http://www.w3.org/Graphics/SVG/1.1/DTD/svg11.dtd">
<svg version="1.1" id="Layer_1" xmlns="http://www.w3.org/2000/svg" xmlns:xlink="http://www.w3.org/1999/xlink" x="0px" y="0px"
	 width="122px" height="122px" viewBox="89 89 122 122" enable-background="new 89 89 122 122" xml:space="preserve">
<g id="Layer_2" display="none">
</g>
<g>
	<g>
		<path fill="#525252" d="M150,92.4c15.385,0,29.85,5.992,40.729,16.872C201.608,120.15,207.6,134.615,207.6,150
			c0,15.385-5.991,29.85-16.871,40.729C179.85,201.608,165.385,207.6,150,207.6c-15.385,0-29.85-5.991-40.729-16.871
			C98.392,179.85,92.4,165.385,92.4,150c0-15.385,5.992-29.85,16.871-40.729C120.15,98.392,134.615,92.4,150,92.4 M150,90
			c-33.136,0-60,26.864-60,60c0,33.137,26.864,60,60,60c33.137,0,60-26.863,60-60C210,116.864,183.137,90,150,90L150,90z"/>
	</g>
	<g>
		<g>
			<path fill="#525252" d="M142.834,164.305c0.918,0,1.665-0.746,1.665-1.664s-0.746-1.664-1.665-1.664
				c-0.917,0-1.664,0.746-1.664,1.664S141.917,164.305,142.834,164.305z"/>
		</g>
		<g>
			<path fill="#525252" d="M179.054,169.423c-0.919,0-1.664,0.745-1.664,1.663s0.745,1.664,1.664,1.664
				c0.918,0,1.663-0.746,1.663-1.664S179.972,169.423,179.054,169.423z"/>
		</g>
		<g>
			<path fill="#525252" d="M149.897,156.24c0.918,0,1.664-0.746,1.664-1.664s-0.746-1.663-1.664-1.663
				c-0.917,0-1.664,0.745-1.664,1.663S148.98,156.24,149.897,156.24z"/>
		</g>
		<g>
			<path fill="#525252" d="M143.985,114.645c0.918,0,1.664-0.746,1.664-1.664s-0.746-1.664-1.664-1.664s-1.664,0.746-1.664,1.664
				S143.067,114.645,143.985,114.645z"/>
		</g>
		<g>
			<circle fill="#525252" cx="179.054" cy="119.828" r="1.664"/>
		</g>
		<g>
			<path fill="#525252" d="M151.921,136.403c0.918,0,1.664-0.747,1.664-1.665c0-0.917-0.746-1.664-1.664-1.664
				s-1.664,0.747-1.664,1.664C150.257,135.657,151.003,136.403,151.921,136.403z"/>
		</g>
		<g>
			<path fill="#525252" d="M179.438,147.153c-0.918,0-1.664,0.746-1.664,1.664c0,0.917,0.746,1.665,1.664,1.665
				s1.663-0.747,1.663-1.665S180.356,147.153,179.438,147.153z"/>
		</g>
		<g>
			<path fill="#525252" d="M150,94.78c-30.497,0-55.22,24.723-55.22,55.22s24.724,55.221,55.22,55.221
				c30.497,0,55.221-24.724,55.221-55.221S180.497,94.78,150,94.78z M143.985,109.781c1.5,0,2.762,1.037,3.106,2.432h12.953
				l6.849,6.847h9.053c0.345-1.395,1.607-2.432,3.107-2.432c1.765,0,3.199,1.435,3.199,3.2s-1.435,3.2-3.199,3.2
				c-1.5,0-2.763-1.037-3.107-2.432h-9.688l-6.848-6.848h-12.318c-0.345,1.396-1.607,2.433-3.106,2.433c-1.765,0-3.2-1.435-3.2-3.2
				C140.786,111.216,142.221,109.781,143.985,109.781z M197.483,171.854H182.16c-0.345,1.396-1.608,2.432-3.107,2.432
				c-1.764,0-3.2-1.435-3.2-3.199c0-1.764,1.437-3.2,3.2-3.2c1.499,0,2.762,1.038,3.107,2.433h15.323V171.854z M197.483,159.57
				h-18.367l-7.166-7.166v-19.204l-13.948-13.948h-28.094v2.496h26.497l12.331,12.886v26.615l-24.738,25.854l-1.109-1.062
				l24.312-25.408v-25.382l-11.45-11.967h-25.841v3.776h24.635l10.625,10.625v22.585l-28.35,28.35l-1.086-1.086l27.9-27.899v-21.314
				l-9.725-9.725h-24v5.375h18.907c0.345-1.395,1.607-2.432,3.107-2.432c1.765,0,3.199,1.436,3.199,3.2c0,1.765-1.435,3.2-3.199,3.2
				c-1.5,0-2.762-1.038-3.107-2.433h-18.907v9.151h9.82c0.345-1.395,1.607-2.432,3.107-2.432c1.765,0,3.2,1.435,3.2,3.2
				c0,1.765-1.436,3.2-3.2,3.2c-1.5,0-2.762-1.037-3.107-2.432h-9.82v11.125l4.335-3.511h12.548
				c0.345-1.394,1.607-2.431,3.107-2.431c1.765,0,3.2,1.436,3.2,3.199c0,1.766-1.435,3.199-3.2,3.199
				c-1.5,0-2.762-1.036-3.107-2.431h-12.004l-4.879,3.95v5.447l3.568-2.869h6.252c0.345-1.395,1.607-2.433,3.107-2.433
				c1.765,0,3.2,1.437,3.2,3.2c0,1.765-1.436,3.2-3.2,3.2c-1.5,0-2.762-1.038-3.107-2.433h-5.71l-4.109,3.307v19.826
				c0,0.844-0.692,1.535-1.536,1.535h-8.768c-0.845,0-1.536-0.691-1.536-1.535v-10.305l-7.389,5.943l-0.963-1.197l8.352-6.718
				v-5.387l-7.259,5.876l-0.966-1.193l8.225-6.659v-20.709h-7.87v-1.536h7.871v-9.15h-7.871v-1.536h7.871v-5.374h-7.871v-1.536
				h7.871v-3.775h-7.871v-1.536h7.871v-2.496h-7.871v-1.536h7.871v-1.792c0-0.844,0.691-1.536,1.536-1.536h8.767
				c0.844,0,1.536,0.691,1.536,1.536v1.792h28.729l14.849,14.849v19.204l6.267,6.267h17.73L197.483,159.57L197.483,159.57z
				 M182.545,149.584c-0.345,1.395-1.607,2.432-3.106,2.432c-1.765,0-3.2-1.436-3.2-3.2c0-1.765,1.436-3.2,3.2-3.2
				c1.499,0,2.761,1.037,3.106,2.432h14.938v1.536H182.545z"/>
		</g>
		<g>
			<path fill="#525252" d="M142.834,147.089c0.918,0,1.665-0.747,1.665-1.664c0-0.918-0.746-1.664-1.665-1.664
				c-0.917,0-1.664,0.746-1.664,1.664C141.17,146.343,141.917,147.089,142.834,147.089z"/>
		</g>
	</g>
</g>
</svg>
