<svg xmlns="http://www.w3.org/2000/svg" version="1.1" x="0" y="0" width="122" height="122" viewBox="89 89 122 122" enable-background="new 89 89 122 122" xml:space="preserve"><g display="none"/><path fill="#525252" d="M150 92.4c15.4 0 29.9 6 40.7 16.9C201.6 120.2 207.6 134.6 207.6 150c0 15.4-6 29.9-16.9 40.7C179.9 201.6 165.4 207.6 150 207.6c-15.4 0-29.8-6-40.7-16.9C98.4 179.9 92.4 165.4 92.4 150c0-15.4 6-29.8 16.9-40.7C120.2 98.4 134.6 92.4 150 92.4M150 90c-33.1 0-60 26.9-60 60 0 33.1 26.9 60 60 60 33.1 0 60-26.9 60-60C210 116.9 183.1 90 150 90L150 90z"/><path fill="#525252" d="M142.8 164.3c0.9 0 1.7-0.7 1.7-1.7s-0.7-1.7-1.7-1.7c-0.9 0-1.7 0.7-1.7 1.7S141.9 164.3 142.8 164.3z"/><path fill="#525252" d="M179.1 169.4c-0.9 0-1.7 0.7-1.7 1.7s0.7 1.7 1.7 1.7c0.9 0 1.7-0.7 1.7-1.7S180 169.4 179.1 169.4z"/><path fill="#525252" d="M149.9 156.2c0.9 0 1.7-0.7 1.7-1.7s-0.7-1.7-1.7-1.7c-0.9 0-1.7 0.7-1.7 1.7S149 156.2 149.9 156.2z"/><path fill="#525252" d="M144 114.6c0.9 0 1.7-0.7 1.7-1.7s-0.7-1.7-1.7-1.7 -1.7 0.7-1.7 1.7S143.1 114.6 144 114.6z"/><circle fill="#525252" cx="179.1" cy="119.8" r="1.7"/><path fill="#525252" d="M151.9 136.4c0.9 0 1.7-0.7 1.7-1.7 0-0.9-0.7-1.7-1.7-1.7s-1.7 0.7-1.7 1.7C150.3 135.7 151 136.4 151.9 136.4z"/><path fill="#525252" d="M179.4 147.2c-0.9 0-1.7 0.7-1.7 1.7 0 0.9 0.7 1.7 1.7 1.7s1.7-0.7 1.7-1.7S180.4 147.2 179.4 147.2z"/><path fill="#525252" d="M150 94.8c-30.5 0-55.2 24.7-55.2 55.2s24.7 55.2 55.2 55.2c30.5 0 55.2-24.7 55.2-55.2S180.5 94.8 150 94.8zM144 109.8c1.5 0 2.8 1 3.1 2.4h13l6.8 6.8h9.1c0.3-1.4 1.6-2.4 3.1-2.4 1.8 0 3.2 1.4 3.2 3.2s-1.4 3.2-3.2 3.2c-1.5 0-2.8-1-3.1-2.4h-9.7l-6.8-6.8h-12.3c-0.3 1.4-1.6 2.4-3.1 2.4 -1.8 0-3.2-1.4-3.2-3.2C140.8 111.2 142.2 109.8 144 109.8zM197.5 171.9H182.2c-0.3 1.4-1.6 2.4-3.1 2.4 -1.8 0-3.2-1.4-3.2-3.2 0-1.8 1.4-3.2 3.2-3.2 1.5 0 2.8 1 3.1 2.4h15.3V171.9zM197.5 159.6h-18.4l-7.2-7.2v-19.2l-13.9-13.9h-28.1v2.5h26.5l12.3 12.9v26.6l-24.7 25.9 -1.1-1.1 24.3-25.4v-25.4l-11.4-12h-25.8v3.8h24.6l10.6 10.6v22.6l-28.3 28.4 -1.1-1.1 27.9-27.9v-21.3l-9.7-9.7h-24v5.4h18.9c0.3-1.4 1.6-2.4 3.1-2.4 1.8 0 3.2 1.4 3.2 3.2 0 1.8-1.4 3.2-3.2 3.2 -1.5 0-2.8-1-3.1-2.4h-18.9v9.2h9.8c0.3-1.4 1.6-2.4 3.1-2.4 1.8 0 3.2 1.4 3.2 3.2 0 1.8-1.4 3.2-3.2 3.2 -1.5 0-2.8-1-3.1-2.4h-9.8v11.1l4.3-3.5h12.5c0.3-1.4 1.6-2.4 3.1-2.4 1.8 0 3.2 1.4 3.2 3.2 0 1.8-1.4 3.2-3.2 3.2 -1.5 0-2.8-1-3.1-2.4h-12l-4.9 4v5.4l3.6-2.9h6.3c0.3-1.4 1.6-2.4 3.1-2.4 1.8 0 3.2 1.4 3.2 3.2 0 1.8-1.4 3.2-3.2 3.2 -1.5 0-2.8-1-3.1-2.4h-5.7l-4.1 3.3v19.8c0 0.8-0.7 1.5-1.5 1.5h-8.8c-0.8 0-1.5-0.7-1.5-1.5v-10.3l-7.4 5.9 -1-1.2 8.4-6.7v-5.4l-7.3 5.9 -1-1.2 8.2-6.7v-20.7h-7.9v-1.5h7.9v-9.1h-7.9v-1.5h7.9v-5.4h-7.9v-1.5h7.9v-3.8h-7.9v-1.5h7.9v-2.5h-7.9v-1.5h7.9v-1.8c0-0.8 0.7-1.5 1.5-1.5h8.8c0.8 0 1.5 0.7 1.5 1.5v1.8h28.7l14.8 14.8v19.2l6.3 6.3h17.7L197.5 159.6 197.5 159.6zM182.5 149.6c-0.3 1.4-1.6 2.4-3.1 2.4 -1.8 0-3.2-1.4-3.2-3.2 0-1.8 1.4-3.2 3.2-3.2 1.5 0 2.8 1 3.1 2.4h14.9v1.5H182.5z"/><path fill="#525252" d="M142.8 147.1c0.9 0 1.7-0.7 1.7-1.7 0-0.9-0.7-1.7-1.7-1.7 -0.9 0-1.7 0.7-1.7 1.7C141.2 146.3 141.9 147.1 142.8 147.1z"/></svg>