<?xml version="1.0" encoding="utf-8"?>
<!-- Generator: Adobe Illustrator 16.0.4, SVG Export Plug-In . SVG Version: 6.00 Build 0)  -->
<!DOCTYPE svg PUBLIC "-//W3C//DTD SVG 1.1//EN" "http://www.w3.org/Graphics/SVG/1.1/DTD/svg11.dtd">
<svg version="1.1" id="Layer_1" xmlns="http://www.w3.org/2000/svg" xmlns:xlink="http://www.w3.org/1999/xlink" x="0px" y="0px"
	 width="300px" height="300px" viewBox="0 0 300 300" enable-background="new 0 0 300 300" xml:space="preserve">
<g id="Layer_2" display="none">
	<g display="inline">
	</g>
</g>
<g>
	<g>
		<path fill="#525252" d="M150,6c38.463,0,74.624,14.979,101.822,42.178C279.021,75.376,294,111.537,294,150
			s-14.979,74.624-42.178,101.822C224.624,279.021,188.463,294,150,294s-74.625-14.979-101.823-42.178
			C20.979,224.624,6,188.463,6,150S20.979,75.376,48.177,48.178C75.375,20.979,111.537,6,150,6 M150,0C67.159,0,0,67.16,0,150
			c0,82.841,67.159,150,150,150s150-67.159,150-150C300,67.16,232.841,0,150,0L150,0z"/>
	</g>
	<g>
		<g>
			<path fill="#525252" d="M132.085,185.762c2.295,0,4.161-1.865,4.161-4.16s-1.865-4.16-4.161-4.16c-2.294,0-4.16,1.865-4.16,4.16
				S129.791,185.762,132.085,185.762z"/>
		</g>
		<g>
			<path fill="#525252" d="M222.634,198.557c-2.296,0-4.159,1.864-4.159,4.158c0,2.295,1.863,4.161,4.159,4.161
				s4.159-1.866,4.159-4.161C226.793,200.421,224.93,198.557,222.634,198.557z"/>
		</g>
		<g>
			<path fill="#525252" d="M149.744,165.602c2.295,0,4.16-1.867,4.16-4.162c0-2.293-1.865-4.158-4.16-4.158
				c-2.294,0-4.16,1.865-4.16,4.158C145.584,163.734,147.45,165.602,149.744,165.602z"/>
		</g>
		<g>
			<path fill="#525252" d="M134.963,61.613c2.295,0,4.161-1.866,4.161-4.161s-1.866-4.159-4.161-4.159
				c-2.294,0-4.16,1.864-4.16,4.159S132.669,61.613,134.963,61.613z"/>
		</g>
		<g>
			<circle fill="#525252" cx="222.634" cy="74.571" r="4.16"/>
		</g>
		<g>
			<path fill="#525252" d="M154.803,116.007c2.295,0,4.16-1.866,4.16-4.161c0-2.294-1.865-4.16-4.16-4.16s-4.16,1.866-4.16,4.16
				C150.643,114.142,152.508,116.007,154.803,116.007z"/>
		</g>
		<g>
			<path fill="#525252" d="M223.596,142.882c-2.295,0-4.16,1.865-4.16,4.16c0,2.293,1.865,4.161,4.16,4.161s4.159-1.867,4.159-4.161
				S225.891,142.882,223.596,142.882z"/>
		</g>
		<g>
			<path fill="#525252" d="M150,11.949C73.758,11.949,11.949,73.758,11.949,150S73.759,288.051,150,288.051
				c76.242,0,138.051-61.809,138.051-138.051S226.242,11.949,150,11.949z M134.963,49.453c3.75,0,6.904,2.593,7.767,6.08h32.383
				l17.121,17.118h22.632c0.862-3.486,4.018-6.079,7.768-6.079c4.411,0,7.999,3.588,7.999,8c0,4.411-3.588,8-7.999,8
				c-3.75,0-6.905-2.593-7.768-6.08h-24.222l-17.119-17.119H142.73c-0.863,3.488-4.018,6.081-7.767,6.081c-4.411,0-8-3.588-8-8
				C126.964,53.041,130.552,49.453,134.963,49.453z M268.708,204.635H230.4c-0.862,3.487-4.02,6.079-7.768,6.079
				c-4.41,0-8-3.587-8-7.999c0-4.41,3.59-8,8-8c3.748,0,6.904,2.594,7.768,6.08h38.308V204.635z M268.708,173.926h-45.917
				l-17.915-17.915v-48.009l-34.871-34.87H99.769v6.239h66.243l30.826,32.216v66.538l-61.845,64.634l-2.774-2.653l60.78-63.521
				v-63.455l-28.626-29.918H99.769v9.439h61.588l26.562,26.562v56.464l-70.874,70.873l-2.715-2.715l69.75-69.748v-53.285
				L159.768,96.49H99.769v13.438h47.267c0.862-3.486,4.019-6.08,7.769-6.08c4.411,0,7.998,3.588,7.998,7.999
				c0,4.412-3.587,8-7.998,8c-3.75,0-6.906-2.593-7.769-6.081H99.769v22.877h24.55c0.863-3.487,4.018-6.08,7.767-6.08
				c4.412,0,8,3.588,8,8s-3.589,7.999-8,7.999c-3.75,0-6.904-2.592-7.767-6.08h-24.55v27.813l10.838-8.775h31.37
				c0.863-3.485,4.018-6.078,7.768-6.078c4.412,0,8,3.589,8,7.998c0,4.414-3.588,8-8,8c-3.75,0-6.904-2.592-7.768-6.078h-30.009
				l-12.199,9.875v13.619l8.92-7.174h15.63c0.863-3.486,4.018-6.08,7.767-6.08c4.412,0,8,3.59,8,8c0,4.412-3.589,8-8,8
				c-3.75,0-6.904-2.594-7.767-6.08h-14.276l-10.273,8.265v49.565c0,2.11-1.729,3.838-3.839,3.838h-21.92
				c-2.111,0-3.839-1.728-3.839-3.838v-25.76l-18.473,14.856l-2.407-2.993l20.879-16.793v-13.467l-18.148,14.691l-2.415-2.986
				l20.563-16.646v-51.774H50.496v-3.839h19.676v-22.877H50.496v-3.839h19.676V96.489H50.496v-3.84h19.676V83.21H50.496v-3.84
				h19.676v-6.239H50.496v-3.84h19.676v-4.48c0-2.111,1.728-3.84,3.839-3.84h21.918c2.111,0,3.839,1.729,3.839,3.84v4.48h71.825
				l37.121,37.121v48.009l15.667,15.666h44.326L268.708,173.926L268.708,173.926z M231.361,148.961
				c-0.861,3.488-4.018,6.08-7.766,6.08c-4.412,0-8-3.588-8-7.999c0-4.412,3.588-8,8-8c3.748,0,6.903,2.593,7.766,6.08h37.347v3.839
				H231.361z"/>
		</g>
		<g>
			<path fill="#525252" d="M132.085,142.723c2.295,0,4.161-1.866,4.161-4.16c0-2.295-1.865-4.16-4.161-4.16
				c-2.294,0-4.16,1.865-4.16,4.16C127.925,140.857,129.791,142.723,132.085,142.723z"/>
		</g>
	</g>
</g>
</svg>
