<svg xmlns="http://www.w3.org/2000/svg" version="1.1" x="0" y="0" width="307.7" height="177" viewBox="0 0 307.7 177" enable-background="new 0 0 307.667 177" xml:space="preserve"><polygon fill="#878787" stroke="#383838" stroke-width="0.3" stroke-miterlimit="10" points="197.2 80.3 197.2 77.3 194.7 77.3 194.7 80.3 187.8 80.3 187.8 77.3 185.2 77.3 185.2 80.7 183.9 82.1 182.2 80.3 182.2 80.3 182.2 77.3 179.6 77.3 179.6 80.3 172.8 80.3 172.8 77.3 170.2 77.3 170.2 80.8 170.2 80.8 168.9 82.1 167.3 80.4 167.3 77.3 164.7 77.3 164.7 80.3 157.9 80.3 157.9 77.3 155.3 77.3 155.3 80.8 153.9 82.2 152.4 80.6 152.4 77.3 149.9 77.3 149.9 80.3 143 80.3 143 77.3 140.4 77.3 140.4 80.5 139 82.1 137.5 80.5 137.5 77.3 134.9 77.3 134.9 80.3 128.1 80.3 128.1 77.3 125.5 77.3 125.5 80.6 124.1 82.2 122.4 80.5 122.4 77.3 119.9 77.3 119.9 80.3 113 80.3 113 77.3 110.5 77.3 110.5 80.7 108.9 82.3 107.5 80.8 107.5 77.3 104.9 77.3 104.9 80.3 98.1 80.3 98.1 77.3 95.5 77.3 95.5 80.3 93.7 80.3 93.7 92.5 107.1 92.5 108.9 90.6 110.8 92.5 122.3 92.5 124.1 90.7 125.8 92.5 137.4 92.5 139 90.8 140.6 92.5 152.2 92.5 153.9 90.7 155.7 92.5 167.2 92.5 168.9 90.7 170.7 92.5 182.2 92.5 183.9 90.7 185.6 92.5 199 92.5 199 80.3 "/><rect x="49.1" y="67.8" fill="#9E9E9E" stroke="#383838" stroke-width="0.3" stroke-miterlimit="10" width="209.6" height="9.5"/><polygon fill="#9E9E9E" stroke="#383838" stroke-width="0.3" stroke-miterlimit="10" points="301.3 96.2 10.7 96.2 6.6 105.7 297.1 105.7 "/><rect x="93.6" y="105.7" fill="#383838" width="105.6" height="20.9"/><line fill="none" stroke="#383838" stroke-width="0.7" stroke-linejoin="round" stroke-miterlimit="10" x1="294.1" y1="111.9" x2="304" y2="89.9"/><line fill="none" stroke="#383838" stroke-width="0.7" stroke-linejoin="round" stroke-miterlimit="10" x1="13.4" y1="90" x2="3.6" y2="111.8"/><path fill="#CCCCCC" stroke="#383838" stroke-width="0.4" stroke-linejoin="round" stroke-miterlimit="10" d="M103.4 80.3h-3.7V61h3.7V80.3zM102.2 59h-1.3l-1.2 2.1h3.7L102.2 59z"/><path fill="#CCCCCC" stroke="#383838" stroke-width="0.4" stroke-linejoin="round" stroke-miterlimit="10" d="M118.1 80.3h-3.7V61h3.7V80.3zM116.8 59h-1.3l-1.2 2.1h3.7L116.8 59z"/><path fill="#CCCCCC" stroke="#383838" stroke-width="0.4" stroke-linejoin="round" stroke-miterlimit="10" d="M133.4 80.3h-3.7V61h3.7V80.3zM132.2 59h-1.3l-1.2 2.1h3.7L132.2 59z"/><path fill="#CCCCCC" stroke="#383838" stroke-width="0.4" stroke-linejoin="round" stroke-miterlimit="10" d="M148.3 80.3h-3.7V61h3.7V80.3zM147 59h-1.3l-1.2 2.1h3.7L147 59z"/><path fill="#CCCCCC" stroke="#383838" stroke-width="0.4" stroke-linejoin="round" stroke-miterlimit="10" d="M163.3 80.3h-3.7V61h3.7V80.3zM162.1 59h-1.3l-1.2 2.1h3.7L162.1 59z"/><path fill="#CCCCCC" stroke="#383838" stroke-width="0.4" stroke-linejoin="round" stroke-miterlimit="10" d="M178.3 80.3h-3.7V61h3.7V80.3zM177 59h-1.3l-1.2 2.1h3.7L177 59z"/><path fill="#CCCCCC" stroke="#383838" stroke-width="0.4" stroke-linejoin="round" stroke-miterlimit="10" d="M193.4 80.3h-3.7V61h3.7V80.3zM192.1 59h-1.3l-1.2 2.1h3.7L192.1 59z"/><path fill="#CCCCCC" stroke="#383838" stroke-width="0.4" stroke-linejoin="round" stroke-miterlimit="10" d="M189.5 92.5h3.7v32h-3.7V92.5zM190.8 126.6h1.3l1.2-2.1h-3.7L190.8 126.6z"/><path fill="#CCCCCC" stroke="#383838" stroke-width="0.4" stroke-linejoin="round" stroke-miterlimit="10" d="M174.8 92.5h3.7v32h-3.7V92.5zM176.1 126.6h1.3l1.2-2.1h-3.7L176.1 126.6z"/><path fill="#CCCCCC" stroke="#383838" stroke-width="0.4" stroke-linejoin="round" stroke-miterlimit="10" d="M159.5 92.5h3.7v32h-3.7V92.5zM160.7 126.6h1.3l1.2-2.1h-3.7L160.7 126.6z"/><path fill="#CCCCCC" stroke="#383838" stroke-width="0.4" stroke-linejoin="round" stroke-miterlimit="10" d="M144.7 92.5h3.7v32h-3.7V92.5zM145.9 126.6h1.3l1.2-2.1h-3.7L145.9 126.6z"/><path fill="#CCCCCC" stroke="#383838" stroke-width="0.4" stroke-linejoin="round" stroke-miterlimit="10" d="M129.6 92.5h3.7v32h-3.7V92.5zM130.8 126.6h1.3l1.2-2.1h-3.7L130.8 126.6z"/><path fill="#CCCCCC" stroke="#383838" stroke-width="0.4" stroke-linejoin="round" stroke-miterlimit="10" d="M114.6 92.5h3.7v32h-3.7V92.5zM115.9 126.6h1.3l1.2-2.1h-3.7L115.9 126.6z"/><path fill="#CCCCCC" stroke="#383838" stroke-width="0.4" stroke-linejoin="round" stroke-miterlimit="10" d="M99.6 92.5h3.7v32h-3.7V92.5zM100.8 126.6h1.3l1.2-2.1h-3.7L100.8 126.6z"/><path fill="#CCCCCC" d="M233.5 56.5h-5.2 5.2v18.3c0 0 0.7 2.6 2.8 2.6 2.1 0 2.6-2.7 2.6-2.7V56.5h5.2 -5.2M244 56.5l3.4 8.6v2.2h-2.2v10h4.5v18.6h-5.3c0 0 2.5 11.1 2.4 12.1 -0.1 0.9 0 1.8-0.6 3.5 -0.6 1.6-3.3 7-3.3 7h-4.5V98.1c0 0-0.4-2.1-2.3-2.1s-2.3 2.1-2.3 2.1v20.4h-4.5c0 0-2.7-5.4-3.3-7 -0.6-1.6-0.5-2.5-0.6-3.5 -0.1-0.9 2.4-12.1 2.4-12.1h-5.3v-18.6h4.5v-10h-2.3v-2.2l3.4-8.6"/><path fill="none" stroke="#383838" stroke-width="0.7" stroke-linejoin="round" stroke-miterlimit="10" d="M249.7 95.9h-27V77.3h27V95.9zM228.3 56.5h5.2v18.3c0 0 0.7 2.6 2.8 2.6 2.1 0 2.6-2.7 2.6-2.7V56.5h5.2M247.4 65.1h-5.2v2.2h5.2V65.1zM242.3 65.1l-3.5-8.6M247.5 65.1l-3.5-8.6L247.5 65.1zM242.3 67.4h-3.4M224.9 67.4h5.2v-2.2h-5.2V67.4zM233.5 56.5l-3.5 8.6M224.8 65.1l3.5-8.6L224.8 65.1zM233.4 67.4h-3.4M227.2 67.4v10M245.2 67.4v10M228 95.9c0 0-2.5 11.1-2.4 12.1 0.1 0.9 0 1.8 0.6 3.5s3.3 7 3.3 7h4.5V98.1c0 0 0.4-2.1 2.3-2.1M236.2 95.9c1.9 0 2.3 2.1 2.3 2.1v20.4h4.5c0 0 2.7-5.4 3.3-7 0.6-1.6 0.5-2.5 0.6-3.5 0.1-0.9-2.4-12.1-2.4-12.1"/><path fill="#CCCCCC" d="M69 56.5h-5.2 5.2v18.3c0 0 0.7 2.6 2.8 2.6s2.6-2.7 2.6-2.7V56.5h5.2 -5.2M79.5 56.5l3.4 8.6v2.2h-2.2v10h4.5v18.6h-5.3c0 0 2.5 11.1 2.4 12.1 -0.1 0.9 0 1.8-0.6 3.5 -0.6 1.6-3.3 7-3.3 7H74V98.1c0 0-0.4-2.1-2.3-2.1s-2.3 2.1-2.3 2.1v20.4h-4.5c0 0-2.7-5.4-3.3-7 -0.6-1.6-0.5-2.5-0.6-3.5 -0.1-0.9 2.4-12.1 2.4-12.1h-5.3v-18.6h4.5v-10h-2.3v-2.2l3.4-8.6"/><path fill="none" stroke="#383838" stroke-width="0.7" stroke-linejoin="round" stroke-miterlimit="10" d="M85.2 95.9h-27V77.3h27L85.2 95.9 85.2 95.9zM63.8 56.5h5.2v18.3c0 0 0.7 2.6 2.8 2.6s2.6-2.7 2.6-2.7V56.5h5.2M82.9 65.1h-5.2v2.2h5.2V65.1zM77.8 65.1l-3.5-8.6M83 65.1l-3.5-8.6L83 65.1zM77.8 67.4h-3.4M60.3 67.4h5.2v-2.2h-5.2V67.4zM69 56.5l-3.5 8.6M60.3 65.1l3.5-8.6L60.3 65.1zM68.9 67.4h-3.4M62.7 67.4v10M80.7 67.4v10M63.5 95.9c0 0-2.5 11.1-2.4 12.1 0.1 0.9 0 1.8 0.6 3.5 0.6 1.6 3.3 7 3.3 7h4.5V98.1c0 0 0.4-2.1 2.3-2.1M71.7 95.9c1.9 0 2.3 2.1 2.3 2.1v20.4h4.5c0 0 2.7-5.4 3.3-7 0.6-1.6 0.5-2.5 0.6-3.5 0.1-0.9-2.4-12.1-2.4-12.1"/><line fill="none" stroke="#74787B" stroke-width="0.5" stroke-miterlimit="10" x1="263.8" y1="77.3" x2="281.1" y2="77.3"/><polygon fill="#74787B" points="272.7 82.7 273.9 82.7 272.5 77.3 271 82.7 272.2 82.7 272.2 90.8 271 90.8 272.5 96.2 273.9 90.8 272.7 90.8 "/><polygon fill="#74787B" points="212.6 97 213.8 97 212.3 91.6 210.9 97 212.1 97 212.1 121.2 210.9 121.2 212.3 126.6 213.8 121.2 212.6 121.2 "/><line fill="none" stroke="#74787B" stroke-width="0.5" stroke-miterlimit="10" x1="203.7" y1="91.6" x2="221" y2="91.6"/><line fill="none" stroke="#74787B" stroke-width="0.5" stroke-miterlimit="10" x1="203.7" y1="126.6" x2="221" y2="126.6"/><g enable-background="new    "><path fill="#74787B" d="M280.6 87.8l-0.5 1.5h-0.6l1.6-4.7h0.7l1.6 4.7h-0.6l-0.5-1.5H280.6zM282.2 87.3l-0.5-1.4c-0.1-0.3-0.2-0.6-0.2-0.9h0c-0.1 0.3-0.1 0.6-0.2 0.9l-0.5 1.4H282.2z"/></g><g enable-background="new    "><path fill="#74787B" d="M214.7 111.5c0.3-0.1 0.7-0.1 1.1-0.1 0.6 0 1 0.1 1.3 0.3 0.2 0.2 0.4 0.5 0.4 0.8 0 0.5-0.3 0.9-0.8 1v0c0.4 0.1 1 0.5 1 1.2 0 0.4-0.2 0.7-0.4 0.9 -0.3 0.3-0.9 0.4-1.6 0.4 -0.4 0-0.7 0-0.9-0.1V111.5zM215.3 113.5h0.6c0.6 0 1-0.3 1-0.8 0-0.5-0.4-0.8-1-0.8 -0.3 0-0.4 0-0.5 0V113.5zM215.3 115.7c0.1 0 0.3 0 0.5 0 0.6 0 1.2-0.2 1.2-0.9 0-0.6-0.6-0.9-1.2-0.9h-0.5V115.7z"/></g><g enable-background="new    "><path fill="#74787B" d="M123.6 136.7c0.3 0.2 0.7 0.3 1.1 0.3 0.6 0 1-0.3 1-0.8 0-0.4-0.3-0.7-0.9-0.9 -0.8-0.3-1.2-0.7-1.2-1.3 0-0.7 0.6-1.3 1.5-1.3 0.5 0 0.8 0.1 1 0.2l-0.2 0.5c-0.1-0.1-0.5-0.2-0.9-0.2 -0.6 0-0.9 0.4-0.9 0.7 0 0.4 0.3 0.6 0.9 0.9 0.8 0.3 1.2 0.7 1.2 1.4 0 0.7-0.5 1.4-1.6 1.4 -0.5 0-0.9-0.1-1.2-0.3L123.6 136.7z"/><path fill="#74787B" d="M129.4 136.7c0 0.3 0 0.6 0 0.8h-0.6l-0.1-0.4h0c-0.2 0.3-0.6 0.5-1 0.5 -0.7 0-1-0.5-1-1 0-0.8 0.7-1.3 2-1.3v-0.1c0-0.3-0.1-0.8-0.8-0.8 -0.3 0-0.6 0.1-0.9 0.3l-0.1-0.4c0.3-0.2 0.7-0.3 1.1-0.3 1 0 1.3 0.7 1.3 1.4V136.7zM128.8 135.8c-0.7 0-1.4 0.1-1.4 0.8 0 0.4 0.3 0.6 0.6 0.6 0.4 0 0.7-0.3 0.8-0.6 0-0.1 0-0.1 0-0.2V135.8z"/><path fill="#74787B" d="M130.4 135c0-0.4 0-0.6 0-0.9h0.5l0 0.5h0c0.2-0.3 0.5-0.6 1.1-0.6 0.5 0 0.8 0.3 0.9 0.7h0c0.1-0.2 0.2-0.3 0.4-0.4 0.2-0.2 0.4-0.2 0.7-0.2 0.5 0 1.1 0.3 1.1 1.5v2h-0.6v-1.9c0-0.7-0.2-1-0.7-1 -0.4 0-0.6 0.3-0.7 0.6 0 0.1 0 0.2 0 0.3v2.1h-0.6v-2c0-0.5-0.2-0.9-0.7-0.9 -0.4 0-0.7 0.3-0.8 0.6 0 0.1 0 0.2 0 0.3v2h-0.6V135z"/><path fill="#74787B" d="M137 133.3v0.8h0.9v0.5h-0.9v1.8c0 0.4 0.1 0.7 0.5 0.7 0.2 0 0.3 0 0.4 0l0 0.5c-0.1 0-0.3 0.1-0.5 0.1 -0.3 0-0.5-0.1-0.7-0.3 -0.2-0.2-0.2-0.5-0.2-0.9v-1.8h-0.5v-0.5h0.5v-0.6L137 133.3z"/><path fill="#74787B" d="M138.8 135.9c0 0.8 0.5 1.2 1.2 1.2 0.4 0 0.7-0.1 0.9-0.2l0.1 0.4c-0.2 0.1-0.6 0.2-1.1 0.2 -1 0-1.7-0.7-1.7-1.7 0-1 0.6-1.8 1.6-1.8 1.1 0 1.4 1 1.4 1.6 0 0.1 0 0.2 0 0.3H138.8zM140.6 135.5c0-0.4-0.2-1-0.8-1 -0.6 0-0.9 0.6-0.9 1H140.6z"/><path fill="#74787B" d="M144.4 137.4c-0.2 0.1-0.5 0.2-1 0.2 -1 0-1.7-0.7-1.7-1.7 0-1 0.7-1.8 1.8-1.8 0.4 0 0.7 0.1 0.9 0.2l-0.1 0.5c-0.1-0.1-0.4-0.2-0.7-0.2 -0.8 0-1.2 0.6-1.2 1.3 0 0.8 0.5 1.3 1.2 1.3 0.3 0 0.6-0.1 0.8-0.2L144.4 137.4z"/><path fill="#74787B" d="M147.2 132.8v2h2.3v-2h0.6v4.7h-0.6v-2.2h-2.3v2.2h-0.6v-4.7H147.2z"/><path fill="#74787B" d="M151.1 132.8h0.6v4.2h2v0.5h-2.6V132.8z"/><path fill="#74787B" d="M156.9 135.3h-1.8v1.7h2v0.5h-2.6v-4.7h2.5v0.5h-1.9v1.5h1.8V135.3z"/><path fill="#74787B" d="M159.3 136.7c0.3 0.2 0.7 0.3 1.1 0.3 0.6 0 1-0.3 1-0.8 0-0.4-0.3-0.7-0.9-0.9 -0.8-0.3-1.2-0.7-1.2-1.3 0-0.7 0.6-1.3 1.5-1.3 0.5 0 0.8 0.1 1 0.2l-0.2 0.5c-0.1-0.1-0.5-0.2-0.9-0.2 -0.6 0-0.9 0.4-0.9 0.7 0 0.4 0.3 0.6 0.9 0.9 0.8 0.3 1.2 0.7 1.2 1.4 0 0.7-0.5 1.4-1.6 1.4 -0.5 0-0.9-0.1-1.2-0.3L159.3 136.7z"/><path fill="#74787B" d="M164.2 137.6c-0.9 0-1.6-0.7-1.6-1.7 0-1.1 0.7-1.8 1.7-1.8 1 0 1.6 0.7 1.6 1.7 0 1.3-0.9 1.8-1.7 1.8H164.2zM164.2 137.1c0.6 0 1-0.6 1-1.3 0-0.6-0.3-1.3-1-1.3 -0.7 0-1 0.7-1 1.3 0 0.7 0.4 1.3 1 1.3H164.2z"/><path fill="#74787B" d="M169.1 137.4c-0.2 0.1-0.5 0.2-1 0.2 -1 0-1.7-0.7-1.7-1.7 0-1 0.7-1.8 1.8-1.8 0.4 0 0.7 0.1 0.9 0.2l-0.1 0.5c-0.1-0.1-0.4-0.2-0.7-0.2 -0.8 0-1.2 0.6-1.2 1.3 0 0.8 0.5 1.3 1.2 1.3 0.3 0 0.6-0.1 0.8-0.2L169.1 137.4z"/><path fill="#74787B" d="M170.4 135.7h0c0.1-0.1 0.2-0.3 0.3-0.4l1-1.2h0.7l-1.3 1.4 1.5 2h-0.7l-1.2-1.6 -0.3 0.3v1.3h-0.6v-5h0.6V135.7z"/><path fill="#74787B" d="M173.4 135.9c0 0.8 0.5 1.2 1.2 1.2 0.4 0 0.7-0.1 0.9-0.2l0.1 0.4c-0.2 0.1-0.6 0.2-1.1 0.2 -1 0-1.7-0.7-1.7-1.7 0-1 0.6-1.8 1.6-1.8 1.1 0 1.4 1 1.4 1.6 0 0.1 0 0.2 0 0.3H173.4zM175.2 135.5c0-0.4-0.2-1-0.8-1 -0.6 0-0.9 0.6-0.9 1H175.2z"/><path fill="#74787B" d="M177.3 133.3v0.8h0.9v0.5h-0.9v1.8c0 0.4 0.1 0.7 0.5 0.7 0.2 0 0.3 0 0.4 0l0 0.5c-0.1 0-0.3 0.1-0.5 0.1 -0.3 0-0.5-0.1-0.7-0.3 -0.2-0.2-0.2-0.5-0.2-0.9v-1.8h-0.5v-0.5h0.5v-0.6L177.3 133.3z"/></g><g enable-background="new    "><path fill="#74787B" d="M197.7 73.6c-0.1 0.1-0.4 0.1-0.8 0.1 -0.9 0-1.5-0.6-1.5-1.6 0-1 0.7-1.6 1.6-1.6 0.4 0 0.6 0.1 0.7 0.1l-0.1 0.3c-0.1-0.1-0.4-0.1-0.6-0.1 -0.7 0-1.2 0.5-1.2 1.3 0 0.8 0.4 1.3 1.2 1.3 0.3 0 0.5-0.1 0.7-0.1L197.7 73.6z"/><path fill="#74787B" d="M199.1 73.7c-0.6 0-1.1-0.4-1.1-1.2 0-0.8 0.5-1.2 1.1-1.2 0.6 0 1.1 0.5 1.1 1.2 0 0.8-0.6 1.2-1.1 1.2H199.1zM199.1 73.4c0.4 0 0.7-0.4 0.7-0.9 0-0.4-0.2-0.9-0.7-0.9 -0.5 0-0.7 0.4-0.7 0.9 0 0.5 0.3 0.9 0.7 0.9H199.1z"/><path fill="#74787B" d="M200.7 70.4h0.4v3.3h-0.4V70.4z"/><path fill="#74787B" d="M202.8 73.7c-0.6 0-1.1-0.4-1.1-1.2 0-0.8 0.5-1.2 1.1-1.2 0.6 0 1.1 0.5 1.1 1.2 0 0.8-0.6 1.2-1.1 1.2H202.8zM202.8 73.4c0.4 0 0.7-0.4 0.7-0.9 0-0.4-0.2-0.9-0.7-0.9 -0.5 0-0.7 0.4-0.7 0.9 0 0.5 0.3 0.9 0.7 0.9H202.8z"/><path fill="#74787B" d="M206.3 73.1c0 0.2 0 0.4 0 0.6h-0.4l0-0.4H205.9c-0.1 0.2-0.3 0.4-0.7 0.4 -0.4 0-0.8-0.2-0.8-1v-1.3h0.4v1.2c0 0.4 0.1 0.7 0.5 0.7 0.3 0 0.5-0.2 0.5-0.4 0-0.1 0-0.1 0-0.2v-1.4h0.4V73.1z"/><path fill="#74787B" d="M207 72.1c0-0.3 0-0.5 0-0.7h0.4l0 0.4h0c0.1-0.3 0.4-0.5 0.6-0.5 0 0 0.1 0 0.1 0v0.4c0 0-0.1 0-0.1 0 -0.3 0-0.5 0.2-0.5 0.5 0 0.1 0 0.1 0 0.2v1.2h-0.4V72.1z"/><path fill="#74787B" d="M210.7 73.6c-0.1 0.1-0.4 0.1-0.8 0.1 -0.9 0-1.5-0.6-1.5-1.6 0-1 0.7-1.6 1.6-1.6 0.4 0 0.6 0.1 0.7 0.1l-0.1 0.3c-0.1-0.1-0.4-0.1-0.6-0.1 -0.7 0-1.2 0.5-1.2 1.3 0 0.8 0.4 1.3 1.2 1.3 0.3 0 0.5-0.1 0.7-0.1L210.7 73.6z"/><path fill="#74787B" d="M211.9 73.7l-1-3.1h0.4l0.5 1.5c0.1 0.4 0.2 0.8 0.3 1.2h0c0.1-0.4 0.2-0.8 0.4-1.2l0.5-1.5h0.4l-1.1 3.1H211.9z"/><path fill="#74787B" d="M214.8 70.6c0.2 0 0.5-0.1 0.8-0.1 0.4 0 0.7 0.1 0.9 0.3 0.2 0.1 0.3 0.4 0.3 0.7 0 0.3-0.1 0.5-0.2 0.7 -0.2 0.2-0.6 0.3-1 0.3 -0.1 0-0.2 0-0.3 0v1.3h-0.4V70.6zM215.2 72.1c0.1 0 0.2 0 0.3 0 0.5 0 0.8-0.2 0.8-0.7 0-0.4-0.3-0.6-0.7-0.6 -0.2 0-0.3 0-0.4 0V72.1z"/><path fill="#74787B" d="M219.5 73.6c-0.1 0.1-0.4 0.1-0.8 0.1 -0.9 0-1.5-0.6-1.5-1.6 0-1 0.7-1.6 1.6-1.6 0.4 0 0.6 0.1 0.7 0.1l-0.1 0.3c-0.1-0.1-0.4-0.1-0.6-0.1 -0.7 0-1.2 0.5-1.2 1.3 0 0.8 0.4 1.3 1.2 1.3 0.3 0 0.5-0.1 0.7-0.1L219.5 73.6z"/><path fill="#74787B" d="M220 70.6c0.2 0 0.5-0.1 0.7-0.1 0.4 0 0.7 0.1 0.9 0.2 0.2 0.1 0.3 0.3 0.3 0.6 0 0.3-0.2 0.6-0.5 0.7v0c0.3 0.1 0.6 0.3 0.6 0.8 0 0.3-0.1 0.5-0.3 0.6 -0.2 0.2-0.6 0.3-1.1 0.3 -0.3 0-0.5 0-0.6 0V70.6zM220.4 71.9h0.4c0.4 0 0.7-0.2 0.7-0.5 0-0.4-0.3-0.5-0.7-0.5 -0.2 0-0.3 0-0.4 0V71.9zM220.4 73.4c0.1 0 0.2 0 0.3 0 0.4 0 0.8-0.2 0.8-0.6 0-0.4-0.4-0.6-0.8-0.6h-0.3V73.4z"/></g><g enable-background="new    "><path fill="#74787B" d="M117 48h0l-0.8 0.4 -0.1-0.5 1-0.5h0.5v4.5h-0.6V48z"/><path fill="#74787B" d="M121.2 52v-1.2h-2.1v-0.4l2-2.9h0.7v2.8h0.6v0.5h-0.6v1.2H121.2zM121.2 50.3v-1.5c0-0.2 0-0.5 0-0.7h0c-0.1 0.3-0.3 0.5-0.4 0.7l-1.1 1.5v0H121.2z"/><path fill="#74787B" d="M124.5 49.9v0.4h-1.7v-0.4H124.5z"/><path fill="#74787B" d="M125.2 49.7c0-0.4 0-0.8 0-1.1h0.6l0 0.6h0c0.2-0.4 0.6-0.7 1.2-0.7 0.8 0 1.4 0.7 1.4 1.7 0 1.2-0.7 1.8-1.5 1.8 -0.5 0-0.8-0.2-1-0.5h0v1.8h-0.6V49.7zM125.8 50.6c0 0.1 0 0.2 0 0.3 0.1 0.4 0.5 0.7 0.9 0.7 0.6 0 1-0.5 1-1.3 0-0.7-0.3-1.3-1-1.3 -0.4 0-0.8 0.3-0.9 0.8 0 0.1 0 0.2 0 0.2V50.6z"/><path fill="#74787B" d="M129.4 48c-0.2 0-0.4-0.2-0.4-0.4 0-0.2 0.2-0.4 0.4-0.4 0.2 0 0.4 0.2 0.4 0.4 0 0.2-0.1 0.4-0.4 0.4H129.4zM129.2 52v-3.4h0.6v3.4H129.2z"/><path fill="#74787B" d="M130.8 49.5c0-0.4 0-0.6 0-0.9h0.5l0 0.6h0c0.2-0.3 0.6-0.6 1.1-0.6 0.5 0 1.2 0.3 1.2 1.4v2h-0.6v-1.9c0-0.5-0.2-1-0.8-1 -0.4 0-0.7 0.3-0.8 0.6 0 0.1 0 0.2 0 0.3v2h-0.6V49.5z"/><path fill="#74787B" d="M134.3 52.9c0.2-0.4 0.3-1.2 0.4-1.7l0.7-0.1c-0.2 0.6-0.5 1.4-0.7 1.7L134.3 52.9z"/><path fill="#74787B" d="M140.5 47v4.1c0 0.3 0 0.6 0 0.9h-0.6l0-0.6h0c-0.2 0.4-0.6 0.7-1.1 0.7 -0.8 0-1.4-0.7-1.4-1.7 0-1.1 0.7-1.8 1.5-1.8 0.5 0 0.9 0.2 1 0.5h0v-2H140.5zM139.9 50c0-0.1 0-0.2 0-0.3 -0.1-0.4-0.4-0.7-0.9-0.7 -0.6 0-1 0.6-1 1.3 0 0.7 0.3 1.3 1 1.3 0.4 0 0.8-0.3 0.9-0.7 0-0.1 0-0.2 0-0.3V50z"/><path fill="#74787B" d="M144.3 51.1c0 0.4 0 0.7 0 0.9h-0.5l0-0.6h0c-0.2 0.3-0.5 0.6-1.1 0.6 -0.5 0-1.2-0.3-1.2-1.5v-2h0.6v1.9c0 0.6 0.2 1.1 0.8 1.1 0.4 0 0.7-0.3 0.8-0.6 0-0.1 0.1-0.2 0.1-0.3v-2.1h0.6V51.1z"/><path fill="#74787B" d="M147.7 51.2c0 0.3 0 0.6 0 0.8h-0.6l-0.1-0.4h0c-0.2 0.3-0.6 0.5-1 0.5 -0.7 0-1-0.5-1-1 0-0.8 0.7-1.3 2-1.3v-0.1c0-0.3-0.1-0.8-0.8-0.8 -0.3 0-0.6 0.1-0.9 0.3l-0.1-0.4c0.3-0.2 0.7-0.3 1.1-0.3 1 0 1.3 0.7 1.3 1.4V51.2zM147.1 50.3c-0.7 0-1.4 0.1-1.4 0.8 0 0.4 0.3 0.6 0.6 0.6 0.4 0 0.7-0.3 0.8-0.6 0-0.1 0-0.1 0-0.2V50.3z"/><path fill="#74787B" d="M148.7 47h0.6v5h-0.6V47z"/><path fill="#74787B" d="M151.8 49.7c0-0.4 0-0.7 0-1.1h0.5l0 0.7h0c0.2-0.5 0.5-0.7 0.9-0.7 0.1 0 0.1 0 0.2 0v0.6c-0.1 0-0.1 0-0.2 0 -0.4 0-0.7 0.3-0.8 0.8 0 0.1 0 0.2 0 0.3v1.8h-0.6V49.7z"/><path fill="#74787B" d="M155.4 52.1c-0.9 0-1.6-0.7-1.6-1.7 0-1.1 0.7-1.8 1.7-1.8 1 0 1.6 0.7 1.6 1.7 0 1.3-0.9 1.8-1.7 1.8H155.4zM155.5 51.6c0.6 0 1-0.6 1-1.3 0-0.6-0.3-1.3-1-1.3 -0.7 0-1 0.7-1 1.3 0 0.7 0.4 1.3 1 1.3H155.5z"/><path fill="#74787B" d="M158.1 48.6l0.5 1.7c0.1 0.4 0.2 0.7 0.2 1.1h0c0.1-0.3 0.2-0.7 0.3-1.1l0.6-1.7h0.5l0.5 1.7c0.1 0.4 0.2 0.8 0.3 1.1h0c0.1-0.3 0.1-0.7 0.3-1.1l0.5-1.7h0.6l-1.1 3.4h-0.6l-0.5-1.6c-0.1-0.4-0.2-0.7-0.3-1.1h0c-0.1 0.4-0.2 0.8-0.3 1.1l-0.5 1.6h-0.6l-1-3.4H158.1z"/><path fill="#74787B" d="M164.4 47h0.6v2.1h0c0.1-0.2 0.3-0.3 0.4-0.4 0.2-0.1 0.4-0.2 0.6-0.2 0.5 0 1.2 0.3 1.2 1.4v2h-0.6v-1.9c0-0.5-0.2-1-0.8-1 -0.4 0-0.7 0.3-0.8 0.6 0 0.1 0 0.2 0 0.3v2h-0.6V47z"/><path fill="#74787B" d="M168.7 50.4c0 0.8 0.5 1.2 1.2 1.2 0.4 0 0.7-0.1 0.9-0.2l0.1 0.4c-0.2 0.1-0.6 0.2-1.1 0.2 -1 0-1.7-0.7-1.7-1.7 0-1 0.6-1.8 1.6-1.8 1.1 0 1.4 1 1.4 1.6 0 0.1 0 0.2 0 0.3H168.7zM170.5 50c0-0.4-0.2-1-0.8-1 -0.6 0-0.9 0.6-0.9 1H170.5z"/><path fill="#74787B" d="M174.2 51.2c0 0.3 0 0.6 0 0.8h-0.6l-0.1-0.4h0c-0.2 0.3-0.6 0.5-1 0.5 -0.7 0-1-0.5-1-1 0-0.8 0.7-1.3 2-1.3v-0.1c0-0.3-0.1-0.8-0.8-0.8 -0.3 0-0.6 0.1-0.9 0.3l-0.1-0.4c0.3-0.2 0.7-0.3 1.1-0.3 1 0 1.3 0.7 1.3 1.4V51.2zM173.6 50.3c-0.7 0-1.4 0.1-1.4 0.8 0 0.4 0.3 0.6 0.6 0.6 0.4 0 0.7-0.3 0.8-0.6 0-0.1 0-0.1 0-0.2V50.3z"/><path fill="#74787B" d="M178.1 47v4.1c0 0.3 0 0.6 0 0.9h-0.6l0-0.6h0c-0.2 0.4-0.6 0.7-1.1 0.7 -0.8 0-1.4-0.7-1.4-1.7 0-1.1 0.7-1.8 1.5-1.8 0.5 0 0.9 0.2 1 0.5h0v-2H178.1zM177.5 50c0-0.1 0-0.2 0-0.3 -0.1-0.4-0.4-0.7-0.9-0.7 -0.6 0-1 0.6-1 1.3 0 0.7 0.3 1.3 1 1.3 0.4 0 0.8-0.3 0.9-0.7 0-0.1 0-0.2 0-0.3V50z"/><path fill="#74787B" d="M179.5 50.4c0 0.8 0.5 1.2 1.2 1.2 0.4 0 0.7-0.1 0.9-0.2l0.1 0.4c-0.2 0.1-0.6 0.2-1.1 0.2 -1 0-1.7-0.7-1.7-1.7 0-1 0.6-1.8 1.6-1.8 1.1 0 1.4 1 1.4 1.6 0 0.1 0 0.2 0 0.3H179.5zM181.3 50c0-0.4-0.2-1-0.8-1 -0.6 0-0.9 0.6-0.9 1H181.3z"/><path fill="#74787B" d="M182.6 49.7c0-0.4 0-0.7 0-1.1h0.5l0 0.7h0c0.2-0.5 0.5-0.7 0.9-0.7 0.1 0 0.1 0 0.2 0v0.6c-0.1 0-0.1 0-0.2 0 -0.4 0-0.7 0.3-0.8 0.8 0 0.1 0 0.2 0 0.3v1.8h-0.6V49.7z"/></g><g enable-background="new    "><path fill="#74787B" d="M213.5 38.9h0.6v2.3h0c0.1-0.2 0.3-0.3 0.4-0.5l1.4-1.8h0.8l-1.7 2 1.8 2.7h-0.7l-1.5-2.3 -0.5 0.5v1.8h-0.6V38.9z"/><path fill="#74787B" d="M217.6 42c0 0.8 0.5 1.2 1.2 1.2 0.4 0 0.7-0.1 0.9-0.2l0.1 0.4c-0.2 0.1-0.6 0.2-1.1 0.2 -1 0-1.7-0.7-1.7-1.7 0-1 0.6-1.8 1.6-1.8 1.1 0 1.4 1 1.4 1.6 0 0.1 0 0.2 0 0.3H217.6zM219.4 41.6c0-0.4-0.2-1-0.8-1 -0.6 0-0.9 0.6-0.9 1H219.4z"/><path fill="#74787B" d="M221 40.2l0.7 2c0.1 0.2 0.2 0.5 0.2 0.7h0c0.1-0.2 0.1-0.5 0.2-0.7l0.7-2h0.6l-0.9 2.4c-0.4 1.2-0.7 1.7-1.2 2.1 -0.3 0.3-0.6 0.4-0.8 0.4l-0.2-0.5c0.2 0 0.4-0.1 0.5-0.3 0.2-0.1 0.4-0.4 0.5-0.7 0-0.1 0-0.1 0-0.1s0-0.1 0-0.2l-1.2-3.1H221z"/><path fill="#74787B" d="M223.9 43c0.2 0.1 0.5 0.2 0.8 0.2 0.4 0 0.6-0.2 0.6-0.5 0-0.3-0.2-0.4-0.6-0.6 -0.6-0.2-0.9-0.6-0.9-1 0-0.5 0.4-1 1.2-1 0.3 0 0.6 0.1 0.8 0.2l-0.1 0.4c-0.1-0.1-0.4-0.2-0.7-0.2 -0.4 0-0.6 0.2-0.6 0.5 0 0.3 0.2 0.4 0.6 0.6 0.6 0.2 0.9 0.5 0.9 1 0 0.6-0.5 1-1.3 1 -0.4 0-0.7-0.1-0.9-0.2L223.9 43z"/><path fill="#74787B" d="M227.5 39.4v0.8h0.9v0.5h-0.9v1.8c0 0.4 0.1 0.7 0.5 0.7 0.2 0 0.3 0 0.4 0l0 0.5c-0.1 0-0.3 0.1-0.5 0.1 -0.3 0-0.5-0.1-0.7-0.3 -0.2-0.2-0.2-0.5-0.2-0.9v-1.8h-0.5v-0.5h0.5V39.6L227.5 39.4z"/><path fill="#74787B" d="M230.4 43.7c-0.9 0-1.6-0.7-1.6-1.7 0-1.1 0.7-1.8 1.7-1.8 1 0 1.6 0.7 1.6 1.7 0 1.3-0.9 1.8-1.7 1.8H230.4zM230.5 43.2c0.6 0 1-0.6 1-1.3 0-0.6-0.3-1.3-1-1.3 -0.7 0-1 0.7-1 1.3 0 0.7 0.4 1.3 1 1.3H230.5z"/><path fill="#74787B" d="M232.9 41.2c0-0.4 0-0.6 0-0.9h0.5l0 0.6h0c0.2-0.3 0.6-0.6 1.1-0.6 0.5 0 1.2 0.3 1.2 1.4v2h-0.6v-1.9c0-0.5-0.2-1-0.8-1 -0.4 0-0.7 0.3-0.8 0.6 0 0.1 0 0.2 0 0.3v2h-0.6V41.2z"/><path fill="#74787B" d="M237.1 42c0 0.8 0.5 1.2 1.2 1.2 0.4 0 0.7-0.1 0.9-0.2l0.1 0.4c-0.2 0.1-0.6 0.2-1.1 0.2 -1 0-1.7-0.7-1.7-1.7 0-1 0.6-1.8 1.6-1.8 1.1 0 1.4 1 1.4 1.6 0 0.1 0 0.2 0 0.3H237.1zM238.9 41.6c0-0.4-0.2-1-0.8-1 -0.6 0-0.9 0.6-0.9 1H238.9z"/><path fill="#74787B" d="M243.1 39c0.9 0 1.3 0.5 1.3 1.1 0 0.4-0.2 0.8-0.8 1.1v0c0.6 0.2 0.9 0.6 0.9 1.2 0 0.8-0.7 1.3-1.5 1.3 -0.9 0-1.5-0.6-1.5-1.2 0-0.6 0.3-1 0.9-1.2v0c-0.5-0.2-0.7-0.6-0.7-1 0-0.7 0.6-1.2 1.4-1.2H243.1zM243 43.2c0.6 0 0.9-0.3 0.9-0.8 0-0.5-0.4-0.8-1-1 -0.5 0.2-0.8 0.5-0.8 0.9 0 0.5 0.3 0.9 0.9 0.9H243zM243 39.4c-0.5 0-0.8 0.3-0.8 0.7 0 0.5 0.3 0.7 0.9 0.8 0.4-0.1 0.7-0.4 0.7-0.8 0-0.4-0.2-0.7-0.8-0.7H243z"/><path fill="#74787B" d="M246.6 39c0.9 0 1.3 0.5 1.3 1.1 0 0.4-0.2 0.8-0.8 1.1v0c0.6 0.2 0.9 0.6 0.9 1.2 0 0.8-0.7 1.3-1.5 1.3 -0.9 0-1.5-0.6-1.5-1.2 0-0.6 0.3-1 0.9-1.2v0c-0.5-0.2-0.7-0.6-0.7-1 0-0.7 0.6-1.2 1.4-1.2H246.6zM246.6 43.2c0.6 0 0.9-0.3 0.9-0.8 0-0.5-0.4-0.8-1-1 -0.5 0.2-0.8 0.5-0.8 0.9 0 0.5 0.3 0.9 0.9 0.9H246.6zM246.6 39.4c-0.5 0-0.8 0.3-0.8 0.7 0 0.5 0.3 0.7 0.9 0.8 0.4-0.1 0.7-0.4 0.7-0.8 0-0.4-0.2-0.7-0.8-0.7H246.6z"/><path fill="#74787B" d="M249.2 40.2l0.5 0.7c0.1 0.2 0.2 0.4 0.3 0.6h0c0.1-0.2 0.2-0.4 0.3-0.6l0.5-0.7h0.7l-1.2 1.6 1.2 1.7h-0.7l-0.5-0.8c-0.1-0.2-0.2-0.4-0.4-0.6h0c-0.1 0.2-0.2 0.4-0.4 0.6l-0.5 0.8h-0.7l1.2-1.7 -1.1-1.7H249.2z"/><path fill="#74787B" d="M252.4 40.2l0.5 0.7c0.1 0.2 0.2 0.4 0.3 0.6h0c0.1-0.2 0.2-0.4 0.3-0.6l0.5-0.7h0.7l-1.1 1.6 1.2 1.7h-0.7l-0.5-0.8c-0.1-0.2-0.2-0.4-0.4-0.6h0c-0.1 0.2-0.2 0.4-0.4 0.6l-0.5 0.8h-0.7l1.2-1.7 -1.1-1.7H252.4z"/></g><g enable-background="new    "><path fill="#74787B" d="M223.4 51.4c0.2 0.1 0.5 0.2 0.8 0.2 0.4 0 0.6-0.2 0.6-0.5 0-0.3-0.2-0.4-0.6-0.6 -0.6-0.2-0.9-0.6-0.9-1 0-0.5 0.4-1 1.2-1 0.3 0 0.6 0.1 0.8 0.2l-0.1 0.4c-0.1-0.1-0.4-0.2-0.7-0.2 -0.4 0-0.6 0.2-0.6 0.5 0 0.3 0.2 0.4 0.6 0.6 0.6 0.2 0.9 0.5 0.9 1 0 0.6-0.5 1-1.3 1 -0.4 0-0.7-0.1-0.9-0.2L223.4 51.4z"/><path fill="#74787B" d="M227 47.8v0.8h0.9v0.5h-0.9v1.8c0 0.4 0.1 0.7 0.5 0.7 0.2 0 0.3 0 0.4 0l0 0.5c-0.1 0-0.3 0.1-0.5 0.1 -0.3 0-0.5-0.1-0.7-0.3 -0.2-0.2-0.2-0.5-0.2-0.9v-1.8h-0.5v-0.5h0.5v-0.6L227 47.8z"/><path fill="#74787B" d="M230.9 51.2c0 0.3 0 0.6 0 0.8h-0.6l-0.1-0.4h0c-0.2 0.3-0.6 0.5-1 0.5 -0.7 0-1-0.5-1-1 0-0.8 0.7-1.3 2-1.3v-0.1c0-0.3-0.1-0.8-0.8-0.8 -0.3 0-0.6 0.1-0.9 0.3l-0.1-0.4c0.3-0.2 0.7-0.3 1.1-0.3 1 0 1.3 0.7 1.3 1.4V51.2zM230.3 50.3c-0.7 0-1.4 0.1-1.4 0.8 0 0.4 0.3 0.6 0.6 0.6 0.4 0 0.7-0.3 0.8-0.6 0-0.1 0-0.1 0-0.2V50.3z"/><path fill="#74787B" d="M231.9 49.5c0-0.4 0-0.6 0-0.9h0.5l0 0.6h0c0.2-0.3 0.6-0.6 1.1-0.6 0.5 0 1.2 0.3 1.2 1.4v2h-0.6v-1.9c0-0.5-0.2-1-0.8-1 -0.4 0-0.7 0.3-0.8 0.6 0 0.1 0 0.2 0 0.3v2h-0.6V49.5z"/><path fill="#74787B" d="M238.7 47v4.1c0 0.3 0 0.6 0 0.9h-0.6l0-0.6h0c-0.2 0.4-0.6 0.7-1.1 0.7 -0.8 0-1.4-0.7-1.4-1.7 0-1.1 0.7-1.8 1.5-1.8 0.5 0 0.9 0.2 1 0.5h0v-2H238.7zM238.1 50c0-0.1 0-0.2 0-0.3 -0.1-0.4-0.4-0.7-0.9-0.7 -0.6 0-1 0.6-1 1.3 0 0.7 0.3 1.3 1 1.3 0.4 0 0.8-0.3 0.9-0.7 0-0.1 0-0.2 0-0.3V50z"/><path fill="#74787B" d="M241.1 52.1c-0.9 0-1.6-0.7-1.6-1.7 0-1.1 0.7-1.8 1.7-1.8 1 0 1.6 0.7 1.6 1.7 0 1.3-0.9 1.8-1.7 1.8H241.1zM241.1 51.6c0.6 0 1-0.6 1-1.3 0-0.6-0.3-1.3-1-1.3 -0.7 0-1 0.7-1 1.3 0 0.7 0.4 1.3 1 1.3H241.1z"/><path fill="#74787B" d="M245.6 52v-2.9h-1.4v2.9h-0.6v-2.9h-0.5v-0.5h0.5v-0.1c0-0.5 0.1-0.9 0.4-1.2 0.2-0.2 0.5-0.3 0.9-0.3 0.2 0 0.4 0.1 0.5 0.1l-0.1 0.5c-0.1 0-0.2-0.1-0.4-0.1 -0.5 0-0.6 0.4-0.6 0.9v0.1h1.4v-0.2c0-0.5 0.1-0.9 0.4-1.2 0.2-0.2 0.5-0.3 0.8-0.3 0.2 0 0.4 0 0.5 0.1l-0.1 0.5c-0.1 0-0.2-0.1-0.4-0.1 -0.5 0-0.7 0.5-0.7 1v0.2h0.8v0.5h-0.8v2.9H245.6z"/></g><g enable-background="new    "><path fill="#74787B" d="M49 38.9h0.6v2.3h0c0.1-0.2 0.3-0.3 0.4-0.5l1.4-1.8h0.8l-1.7 2 1.8 2.7h-0.7l-1.5-2.3 -0.5 0.5v1.8h-0.6V38.9z"/><path fill="#74787B" d="M53.1 42c0 0.8 0.5 1.2 1.2 1.2 0.4 0 0.7-0.1 0.9-0.2l0.1 0.4c-0.2 0.1-0.6 0.2-1.1 0.2 -1 0-1.7-0.7-1.7-1.7 0-1 0.6-1.8 1.6-1.8 1.1 0 1.4 1 1.4 1.6 0 0.1 0 0.2 0 0.3H53.1zM54.9 41.6c0-0.4-0.2-1-0.8-1 -0.6 0-0.9 0.6-0.9 1H54.9z"/><path fill="#74787B" d="M56.5 40.2l0.7 2c0.1 0.2 0.2 0.5 0.2 0.7h0c0.1-0.2 0.1-0.5 0.2-0.7l0.7-2h0.6l-0.9 2.4c-0.4 1.2-0.7 1.7-1.2 2.1 -0.3 0.3-0.6 0.4-0.8 0.4l-0.2-0.5c0.2 0 0.4-0.1 0.5-0.3 0.2-0.1 0.4-0.4 0.5-0.7 0-0.1 0-0.1 0-0.1s0-0.1 0-0.2l-1.2-3.1H56.5z"/><path fill="#74787B" d="M59.4 43c0.2 0.1 0.5 0.2 0.8 0.2 0.4 0 0.6-0.2 0.6-0.5 0-0.3-0.2-0.4-0.6-0.6 -0.6-0.2-0.9-0.6-0.9-1 0-0.5 0.4-1 1.2-1 0.3 0 0.6 0.1 0.8 0.2l-0.1 0.4c-0.1-0.1-0.4-0.2-0.7-0.2 -0.4 0-0.6 0.2-0.6 0.5 0 0.3 0.2 0.4 0.6 0.6 0.6 0.2 0.9 0.5 0.9 1 0 0.6-0.5 1-1.3 1 -0.4 0-0.7-0.1-0.9-0.2L59.4 43z"/><path fill="#74787B" d="M63 39.4v0.8h0.9v0.5H63v1.8c0 0.4 0.1 0.7 0.5 0.7 0.2 0 0.3 0 0.4 0l0 0.5c-0.1 0-0.3 0.1-0.5 0.1 -0.3 0-0.5-0.1-0.7-0.3 -0.2-0.2-0.2-0.5-0.2-0.9v-1.8h-0.5v-0.5h0.5V39.6L63 39.4z"/><path fill="#74787B" d="M65.9 43.7c-0.9 0-1.6-0.7-1.6-1.7 0-1.1 0.7-1.8 1.7-1.8 1 0 1.6 0.7 1.6 1.7 0 1.3-0.9 1.8-1.7 1.8H65.9zM66 43.2c0.6 0 1-0.6 1-1.3 0-0.6-0.3-1.3-1-1.3 -0.7 0-1 0.7-1 1.3 0 0.7 0.4 1.3 1 1.3H66z"/><path fill="#74787B" d="M68.4 41.2c0-0.4 0-0.6 0-0.9h0.5l0 0.6h0c0.2-0.3 0.6-0.6 1.1-0.6 0.5 0 1.2 0.3 1.2 1.4v2h-0.6v-1.9c0-0.5-0.2-1-0.8-1 -0.4 0-0.7 0.3-0.8 0.6 0 0.1 0 0.2 0 0.3v2h-0.6V41.2z"/><path fill="#74787B" d="M72.6 42c0 0.8 0.5 1.2 1.2 1.2 0.4 0 0.7-0.1 0.9-0.2l0.1 0.4c-0.2 0.1-0.6 0.2-1.1 0.2 -1 0-1.7-0.7-1.7-1.7 0-1 0.6-1.8 1.6-1.8 1.1 0 1.4 1 1.4 1.6 0 0.1 0 0.2 0 0.3H72.6zM74.4 41.6c0-0.4-0.2-1-0.8-1 -0.6 0-0.9 0.6-0.9 1H74.4z"/><path fill="#74787B" d="M78.6 39c0.9 0 1.3 0.5 1.3 1.1 0 0.4-0.2 0.8-0.8 1.1v0c0.6 0.2 0.9 0.6 0.9 1.2 0 0.8-0.7 1.3-1.5 1.3 -0.9 0-1.5-0.6-1.5-1.2 0-0.6 0.3-1 0.9-1.2v0c-0.5-0.2-0.7-0.6-0.7-1 0-0.7 0.6-1.2 1.4-1.2H78.6zM78.5 43.2c0.6 0 0.9-0.3 0.9-0.8 0-0.5-0.4-0.8-1-1 -0.5 0.2-0.8 0.5-0.8 0.9 0 0.5 0.3 0.9 0.9 0.9H78.5zM78.5 39.4c-0.5 0-0.8 0.3-0.8 0.7 0 0.5 0.3 0.7 0.9 0.8 0.4-0.1 0.7-0.4 0.7-0.8 0-0.4-0.2-0.7-0.8-0.7H78.5z"/><path fill="#74787B" d="M82.1 39c0.9 0 1.3 0.5 1.3 1.1 0 0.4-0.2 0.8-0.8 1.1v0c0.6 0.2 0.9 0.6 0.9 1.2 0 0.8-0.7 1.3-1.5 1.3 -0.9 0-1.5-0.6-1.5-1.2 0-0.6 0.3-1 0.9-1.2v0c-0.5-0.2-0.7-0.6-0.7-1 0-0.7 0.6-1.2 1.4-1.2H82.1zM82.1 43.2c0.6 0 0.9-0.3 0.9-0.8 0-0.5-0.4-0.8-1-1 -0.5 0.2-0.8 0.5-0.8 0.9 0 0.5 0.3 0.9 0.9 0.9H82.1zM82.1 39.4c-0.5 0-0.8 0.3-0.8 0.7 0 0.5 0.3 0.7 0.9 0.8 0.4-0.1 0.7-0.4 0.7-0.8 0-0.4-0.2-0.7-0.8-0.7H82.1z"/><path fill="#74787B" d="M84.7 40.2l0.5 0.7c0.1 0.2 0.2 0.4 0.3 0.6h0c0.1-0.2 0.2-0.4 0.3-0.6l0.5-0.7h0.7l-1.2 1.6 1.2 1.7h-0.7l-0.5-0.8c-0.1-0.2-0.2-0.4-0.4-0.6h0c-0.1 0.2-0.2 0.4-0.4 0.6l-0.5 0.8h-0.7l1.2-1.7 -1.1-1.7H84.7z"/><path fill="#74787B" d="M87.9 40.2l0.5 0.7c0.1 0.2 0.2 0.4 0.3 0.6h0c0.1-0.2 0.2-0.4 0.3-0.6l0.5-0.7h0.7l-1.2 1.6 1.2 1.7h-0.7l-0.5-0.8c-0.1-0.2-0.2-0.4-0.4-0.6h0c-0.1 0.2-0.2 0.4-0.4 0.6l-0.5 0.8h-0.7l1.2-1.7 -1.1-1.7H87.9z"/></g><g enable-background="new    "><path fill="#74787B" d="M58.9 51.4c0.2 0.1 0.5 0.2 0.8 0.2 0.4 0 0.6-0.2 0.6-0.5 0-0.3-0.2-0.4-0.6-0.6 -0.6-0.2-0.9-0.6-0.9-1 0-0.5 0.4-1 1.2-1 0.3 0 0.6 0.1 0.8 0.2l-0.1 0.4c-0.1-0.1-0.4-0.2-0.7-0.2 -0.4 0-0.6 0.2-0.6 0.5 0 0.3 0.2 0.4 0.6 0.6 0.6 0.2 0.9 0.5 0.9 1 0 0.6-0.5 1-1.3 1 -0.4 0-0.7-0.1-0.9-0.2L58.9 51.4z"/><path fill="#74787B" d="M62.5 47.8v0.8h0.9v0.5h-0.9v1.8c0 0.4 0.1 0.7 0.5 0.7 0.2 0 0.3 0 0.4 0l0 0.5c-0.1 0-0.3 0.1-0.5 0.1 -0.3 0-0.5-0.1-0.7-0.3 -0.2-0.2-0.2-0.5-0.2-0.9v-1.8h-0.5v-0.5h0.5v-0.6L62.5 47.8z"/><path fill="#74787B" d="M66.4 51.2c0 0.3 0 0.6 0 0.8h-0.6l-0.1-0.4H65.8c-0.2 0.3-0.6 0.5-1 0.5 -0.7 0-1-0.5-1-1 0-0.8 0.7-1.3 2-1.3v-0.1c0-0.3-0.1-0.8-0.8-0.8 -0.3 0-0.6 0.1-0.9 0.3l-0.1-0.4c0.3-0.2 0.7-0.3 1.1-0.3 1 0 1.3 0.7 1.3 1.4V51.2zM65.8 50.3c-0.7 0-1.4 0.1-1.4 0.8 0 0.4 0.3 0.6 0.6 0.6 0.4 0 0.7-0.3 0.8-0.6 0-0.1 0-0.1 0-0.2V50.3z"/><path fill="#74787B" d="M67.4 49.5c0-0.4 0-0.6 0-0.9h0.5l0 0.6h0c0.2-0.3 0.6-0.6 1.1-0.6 0.5 0 1.2 0.3 1.2 1.4v2h-0.6v-1.9c0-0.5-0.2-1-0.8-1 -0.4 0-0.7 0.3-0.8 0.6 0 0.1 0 0.2 0 0.3v2h-0.6V49.5z"/><path fill="#74787B" d="M74.2 47v4.1c0 0.3 0 0.6 0 0.9h-0.6l0-0.6h0c-0.2 0.4-0.6 0.7-1.1 0.7 -0.8 0-1.4-0.7-1.4-1.7 0-1.1 0.7-1.8 1.5-1.8 0.5 0 0.9 0.2 1 0.5h0v-2H74.2zM73.6 50c0-0.1 0-0.2 0-0.3 -0.1-0.4-0.4-0.7-0.9-0.7 -0.6 0-1 0.6-1 1.3 0 0.7 0.3 1.3 1 1.3 0.4 0 0.8-0.3 0.9-0.7 0-0.1 0-0.2 0-0.3V50z"/><path fill="#74787B" d="M76.6 52.1c-0.9 0-1.6-0.7-1.6-1.7 0-1.1 0.7-1.8 1.7-1.8 1 0 1.6 0.7 1.6 1.7 0 1.3-0.9 1.8-1.7 1.8H76.6zM76.6 51.6c0.6 0 1-0.6 1-1.3 0-0.6-0.3-1.3-1-1.3 -0.7 0-1 0.7-1 1.3 0 0.7 0.4 1.3 1 1.3H76.6z"/><path fill="#74787B" d="M81.1 52v-2.9h-1.4v2.9h-0.6v-2.9h-0.5v-0.5h0.5v-0.1c0-0.5 0.1-0.9 0.4-1.2 0.2-0.2 0.5-0.3 0.9-0.3 0.2 0 0.4 0.1 0.5 0.1l-0.1 0.5c-0.1 0-0.2-0.1-0.4-0.1 -0.5 0-0.6 0.4-0.6 0.9v0.1h1.4v-0.2c0-0.5 0.1-0.9 0.4-1.2 0.2-0.2 0.5-0.3 0.8-0.3 0.2 0 0.4 0 0.5 0.1l-0.1 0.5c-0.1 0-0.2-0.1-0.4-0.1 -0.5 0-0.7 0.5-0.7 1v0.2h0.8v0.5h-0.8v2.9H81.1z"/></g></svg>