<?xml version="1.0" encoding="utf-8"?>
<!-- Generator: Adobe Illustrator 16.0.4, SVG Export Plug-In . SVG Version: 6.00 Build 0)  -->
<!DOCTYPE svg PUBLIC "-//W3C//DTD SVG 1.1//EN" "http://www.w3.org/Graphics/SVG/1.1/DTD/svg11.dtd">
<svg version="1.1" id="board" xmlns="http://www.w3.org/2000/svg" xmlns:xlink="http://www.w3.org/1999/xlink" x="0px" y="0px"
	 width="307.667px" height="177px" viewBox="0 0 307.667 177" enable-background="new 0 0 307.667 177" xml:space="preserve">
<polygon fill="#878787" stroke="#383838" stroke-width="0.3" stroke-miterlimit="10" points="197.234,80.34 197.234,77.25 
	194.655,77.25 194.655,80.34 187.826,80.34 187.826,77.25 185.246,77.25 185.246,80.709 183.903,82.126 182.21,80.34 182.194,80.34 
	182.194,77.25 179.615,77.25 179.615,80.34 172.785,80.34 172.785,77.25 170.205,77.25 170.205,80.79 170.226,80.79 168.947,82.14 
	167.262,80.362 167.262,77.25 164.683,77.25 164.683,80.34 157.853,80.34 157.853,77.25 155.273,77.25 155.273,80.773 153.93,82.19 
	152.429,80.606 152.429,77.25 149.85,77.25 149.85,80.34 143.02,80.34 143.02,77.25 140.44,77.25 140.44,80.529 138.987,82.063 
	137.498,80.492 137.498,77.25 134.918,77.25 134.918,80.34 128.088,80.34 128.088,77.25 125.509,77.25 125.509,80.644 
	124.064,82.167 122.444,80.458 122.444,77.25 119.865,77.25 119.865,80.34 113.035,80.34 113.035,77.25 110.456,77.25 
	110.456,80.678 108.936,82.281 107.513,80.779 107.513,77.25 104.934,77.25 104.934,80.34 98.104,80.34 98.104,77.25 95.524,77.25 
	95.524,80.34 93.699,80.34 93.699,92.533 107.098,92.533 108.937,90.593 110.775,92.533 122.334,92.533 124.064,90.706 
	125.796,92.533 137.355,92.533 138.987,90.812 140.619,92.533 152.178,92.533 153.93,90.684 155.683,92.533 167.242,92.533 
	168.947,90.734 170.652,92.533 182.21,92.533 183.903,90.747 185.595,92.533 198.996,92.533 198.996,80.34 "/>
<rect x="49.062" y="67.756" fill="#9E9E9E" stroke="#383838" stroke-width="0.3" stroke-miterlimit="10" width="209.646" height="9.494"/>
<polygon fill="#9E9E9E" stroke="#383838" stroke-width="0.3" stroke-miterlimit="10" points="301.337,96.238 10.697,96.238 
	6.629,105.721 297.05,105.721 "/>
<rect x="93.623" y="105.721" fill="#383838" width="105.599" height="20.889"/>
<line fill="none" stroke="#383838" stroke-width="0.7" stroke-linejoin="round" stroke-miterlimit="10" x1="294.14" y1="111.859" x2="304.021" y2="89.917"/>
<line fill="none" stroke="#383838" stroke-width="0.7" stroke-linejoin="round" stroke-miterlimit="10" x1="13.382" y1="89.989" x2="3.646" y2="111.788"/>
<path fill="#CCCCCC" stroke="#383838" stroke-width="0.4" stroke-linejoin="round" stroke-miterlimit="10" d="M103.408,80.253
	h-3.729V61.022h3.729V80.253z M102.154,58.964h-1.308l-1.168,2.058h3.729L102.154,58.964z"/>
<path fill="#CCCCCC" stroke="#383838" stroke-width="0.4" stroke-linejoin="round" stroke-miterlimit="10" d="M118.085,80.253
	h-3.729V61.022h3.729V80.253z M116.832,58.964h-1.308l-1.168,2.058h3.729L116.832,58.964z"/>
<path fill="#CCCCCC" stroke="#383838" stroke-width="0.4" stroke-linejoin="round" stroke-miterlimit="10" d="M133.44,80.253h-3.729
	V61.022h3.729V80.253z M132.187,58.964h-1.308l-1.168,2.058h3.729L132.187,58.964z"/>
<path fill="#CCCCCC" stroke="#383838" stroke-width="0.4" stroke-linejoin="round" stroke-miterlimit="10" d="M148.263,80.253
	h-3.729V61.022h3.729V80.253z M147.01,58.964h-1.308l-1.168,2.058h3.729L147.01,58.964z"/>
<path fill="#CCCCCC" stroke="#383838" stroke-width="0.4" stroke-linejoin="round" stroke-miterlimit="10" d="M163.328,80.253
	h-3.729V61.022h3.729V80.253z M162.074,58.964h-1.308l-1.168,2.058h3.729L162.074,58.964z"/>
<path fill="#CCCCCC" stroke="#383838" stroke-width="0.4" stroke-linejoin="round" stroke-miterlimit="10" d="M178.296,80.253
	h-3.729V61.022h3.729V80.253z M177.042,58.964h-1.31l-1.168,2.058h3.729L177.042,58.964z"/>
<path fill="#CCCCCC" stroke="#383838" stroke-width="0.4" stroke-linejoin="round" stroke-miterlimit="10" d="M193.36,80.253h-3.729
	V61.022h3.729V80.253z M192.107,58.964h-1.309l-1.168,2.058h3.729L192.107,58.964z"/>
<path fill="#CCCCCC" stroke="#383838" stroke-width="0.4" stroke-linejoin="round" stroke-miterlimit="10" d="M189.509,92.533h3.729
	v32.018h-3.729V92.533z M190.764,126.609h1.308l1.168-2.061h-3.729L190.764,126.609z"/>
<path fill="#CCCCCC" stroke="#383838" stroke-width="0.4" stroke-linejoin="round" stroke-miterlimit="10" d="M174.833,92.533h3.729
	v32.018h-3.729V92.533z M176.085,126.609h1.309l1.168-2.061h-3.729L176.085,126.609z"/>
<path fill="#CCCCCC" stroke="#383838" stroke-width="0.4" stroke-linejoin="round" stroke-miterlimit="10" d="M159.478,92.533h3.729
	v32.018h-3.729V92.533z M160.731,126.609h1.308l1.168-2.061h-3.729L160.731,126.609z"/>
<path fill="#CCCCCC" stroke="#383838" stroke-width="0.4" stroke-linejoin="round" stroke-miterlimit="10" d="M144.655,92.533h3.729
	v32.018h-3.729V92.533z M145.908,126.609h1.308l1.168-2.061h-3.729L145.908,126.609z"/>
<path fill="#CCCCCC" stroke="#383838" stroke-width="0.4" stroke-linejoin="round" stroke-miterlimit="10" d="M129.591,92.533h3.729
	v32.018h-3.729V92.533z M130.844,126.609h1.308l1.168-2.061h-3.729L130.844,126.609z"/>
<path fill="#CCCCCC" stroke="#383838" stroke-width="0.4" stroke-linejoin="round" stroke-miterlimit="10" d="M114.622,92.533h3.729
	v32.018h-3.729V92.533z M115.875,126.609h1.308l1.168-2.061h-3.729L115.875,126.609z"/>
<path fill="#CCCCCC" stroke="#383838" stroke-width="0.4" stroke-linejoin="round" stroke-miterlimit="10" d="M99.557,92.533h3.73
	v32.018h-3.73V92.533z M100.811,126.609h1.309l1.168-2.061h-3.73L100.811,126.609z"/>
<g>
	<path fill="#CCCCCC" d="M233.494,56.517h-5.229h5.157v18.262c0,0,0.726,2.568,2.811,2.568c2.082,0,2.566-2.713,2.566-2.713V56.517
		h5.183h-5.204 M243.979,56.517l3.44,8.622v2.229h-2.217v9.979h4.541v18.601h-5.27c0,0,2.471,11.116,2.359,12.062
		c-0.106,0.944,0.037,1.816-0.58,3.451c-0.616,1.635-3.271,7.012-3.271,7.012h-4.505V98.055c0,0-0.398-2.105-2.252-2.105
		s-2.253,2.105-2.253,2.105v20.418h-4.505c0,0-2.652-5.377-3.27-7.013c-0.619-1.635-0.475-2.507-0.582-3.451
		c-0.109-0.944,2.36-12.062,2.36-12.062h-5.269v-18.6h4.469v-9.979h-2.334v-2.229l3.412-8.622"/>
	<path fill="none" stroke="#383838" stroke-width="0.7" stroke-linejoin="round" stroke-miterlimit="10" d="M249.746,95.948h-27.029
		V77.347h27.029V95.948z M228.263,56.517h5.158v18.262c0,0,0.725,2.568,2.81,2.568c2.082,0,2.567-2.713,2.567-2.713V56.517h5.182
		 M247.419,65.139h-5.156v2.229h5.156V65.139z M242.263,65.139l-3.487-8.622 M247.494,65.139l-3.486-8.622L247.494,65.139z
		 M242.263,67.367h-3.439 M224.85,67.367h5.155v-2.229h-5.155V67.367z M233.494,56.517l-3.488,8.622 M224.774,65.139l3.488-8.622
		L224.774,65.139z M233.446,67.367h-3.44 M227.184,67.367v9.979 M245.203,67.367v9.979 M227.983,95.948
		c0,0-2.471,11.116-2.36,12.062c0.107,0.944-0.037,1.816,0.58,3.451s3.271,7.012,3.271,7.012h4.505V98.055
		c0,0,0.397-2.105,2.253-2.105 M236.23,95.948c1.854,0,2.252,2.106,2.252,2.106v20.418h4.505c0,0,2.652-5.377,3.271-7.014
		c0.617-1.635,0.474-2.507,0.58-3.451c0.109-0.943-2.359-12.062-2.359-12.062"/>
</g>
<g>
	<path fill="#CCCCCC" d="M68.993,56.517h-5.231h5.158v18.262c0,0,0.725,2.568,2.809,2.568s2.568-2.713,2.568-2.713V56.517h5.183
		h-5.206 M79.479,56.517l3.438,8.622v2.229h-2.216v9.979h4.541v18.601h-5.268c0,0,2.47,11.116,2.361,12.062
		c-0.109,0.944,0.036,1.816-0.582,3.451c-0.617,1.635-3.27,7.012-3.27,7.012H73.98V98.055c0,0-0.399-2.105-2.252-2.105
		s-2.252,2.105-2.252,2.105v20.418h-4.505c0,0-2.652-5.377-3.27-7.013c-0.618-1.635-0.473-2.507-0.582-3.451
		c-0.109-0.944,2.361-12.062,2.361-12.062h-5.268v-18.6h4.469v-9.979h-2.333v-2.229l3.413-8.622"/>
	<path fill="none" stroke="#383838" stroke-width="0.7" stroke-linejoin="round" stroke-miterlimit="10" d="M85.243,95.948h-27.03
		V77.347h27.029L85.243,95.948L85.243,95.948z M63.762,56.517h5.158v18.262c0,0,0.725,2.568,2.809,2.568s2.568-2.713,2.568-2.713
		V56.517h5.183 M82.917,65.139h-5.156v2.229h5.156V65.139z M77.761,65.139l-3.488-8.622 M82.993,65.139l-3.488-8.622L82.993,65.139z
		 M77.761,67.367h-3.439 M60.349,67.367h5.156v-2.229h-5.156V67.367z M68.993,56.517l-3.488,8.622 M60.274,65.139l3.488-8.622
		L60.274,65.139z M68.944,67.367h-3.439 M62.682,67.367v9.979 M80.702,67.367v9.979 M63.481,95.948c0,0-2.47,11.116-2.361,12.062
		c0.109,0.944-0.036,1.816,0.582,3.451c0.618,1.635,3.27,7.012,3.27,7.012h4.505V98.055c0,0,0.399-2.105,2.252-2.105 M71.728,95.948
		c1.853,0,2.252,2.106,2.252,2.106v20.418h4.505c0,0,2.652-5.377,3.27-7.014c0.618-1.635,0.473-2.507,0.582-3.451
		c0.109-0.943-2.361-12.062-2.361-12.062"/>
</g>
<line fill="none" stroke="#74787B" stroke-width="0.5" stroke-miterlimit="10" x1="263.843" y1="77.25" x2="281.136" y2="77.25"/>
<polygon fill="#74787B" points="272.737,82.67 273.939,82.67 272.487,77.25 271.035,82.67 272.237,82.67 272.237,90.818 
	271.035,90.818 272.487,96.238 273.939,90.818 272.737,90.818 "/>
<polygon fill="#74787B" points="212.576,97.008 213.777,97.008 212.326,91.588 210.873,97.008 212.076,97.008 212.076,121.189 
	210.873,121.189 212.326,126.609 213.777,121.189 212.576,121.189 "/>
<line fill="none" stroke="#74787B" stroke-width="0.5" stroke-miterlimit="10" x1="203.681" y1="91.588" x2="220.974" y2="91.588"/>
<line fill="none" stroke="#74787B" stroke-width="0.5" stroke-miterlimit="10" x1="203.681" y1="126.609" x2="220.974" y2="126.609"/>
<g enable-background="new    ">
	<path fill="#74787B" d="M280.641,87.785l-0.488,1.479h-0.628l1.598-4.7h0.732l1.604,4.7h-0.648l-0.502-1.479H280.641z
		 M282.182,87.312l-0.468-1.354c-0.098-0.307-0.166-0.585-0.236-0.857h-0.021c-0.062,0.272-0.139,0.564-0.229,0.851l-0.46,1.36
		H282.182z"/>
</g>
<g enable-background="new    ">
	<path fill="#74787B" d="M214.72,111.535c0.266-0.063,0.691-0.104,1.109-0.104c0.607,0,0.997,0.104,1.283,0.341
		c0.244,0.182,0.397,0.461,0.397,0.83c0,0.46-0.307,0.857-0.795,1.032v0.021c0.446,0.104,0.97,0.475,0.97,1.172
		c0,0.404-0.161,0.711-0.404,0.941c-0.321,0.3-0.852,0.439-1.619,0.439c-0.418,0-0.738-0.028-0.941-0.056V111.535z M215.328,113.459
		h0.551c0.635,0,1.012-0.341,1.012-0.795c0-0.544-0.412-0.767-1.025-0.767c-0.279,0-0.439,0.021-0.537,0.042V113.459z
		 M215.328,115.705c0.125,0.021,0.293,0.027,0.509,0.027c0.628,0,1.206-0.229,1.206-0.913c0-0.635-0.551-0.906-1.213-0.906h-0.502
		V115.705z"/>
</g>
<g enable-background="new    ">
	<path fill="#74787B" d="M123.576,136.739c0.272,0.167,0.663,0.3,1.081,0.3c0.621,0,0.983-0.32,0.983-0.795
		c0-0.439-0.251-0.697-0.886-0.935c-0.767-0.265-1.241-0.669-1.241-1.324c0-0.732,0.606-1.276,1.52-1.276
		c0.474,0,0.83,0.111,1.032,0.223l-0.167,0.502c-0.146-0.09-0.46-0.223-0.886-0.223c-0.642,0-0.886,0.384-0.886,0.704
		c0,0.433,0.286,0.648,0.935,0.899c0.795,0.314,1.192,0.69,1.192,1.381c0,0.719-0.53,1.353-1.639,1.353
		c-0.453,0-0.948-0.139-1.199-0.307L123.576,136.739z"/>
	<path fill="#74787B" d="M129.449,136.67c0,0.293,0.014,0.578,0.049,0.809h-0.551l-0.056-0.426h-0.021
		c-0.181,0.266-0.551,0.503-1.032,0.503c-0.683,0-1.032-0.481-1.032-0.97c0-0.815,0.725-1.262,2.029-1.255v-0.07
		c0-0.278-0.077-0.788-0.767-0.78c-0.321,0-0.648,0.09-0.886,0.251l-0.14-0.412c0.279-0.174,0.69-0.293,1.116-0.293
		c1.039,0,1.29,0.705,1.29,1.381V136.67z M128.849,135.756c-0.669-0.014-1.429,0.104-1.429,0.761c0,0.404,0.265,0.585,0.572,0.585
		c0.446,0,0.732-0.278,0.83-0.564c0.021-0.062,0.028-0.133,0.028-0.195V135.756z"/>
	<path fill="#74787B" d="M130.433,135.017c0-0.355-0.014-0.634-0.028-0.913h0.537l0.028,0.544h0.021
		c0.188-0.321,0.502-0.621,1.067-0.621c0.453,0,0.802,0.279,0.948,0.677h0.014c0.104-0.195,0.244-0.335,0.383-0.439
		c0.202-0.153,0.418-0.237,0.739-0.237c0.453,0,1.116,0.293,1.116,1.465v1.987h-0.6v-1.911c0-0.655-0.244-1.038-0.732-1.038
		c-0.355,0-0.621,0.258-0.732,0.551c-0.028,0.09-0.049,0.202-0.049,0.307v2.092h-0.6v-2.029c0-0.537-0.237-0.92-0.705-0.92
		c-0.376,0-0.662,0.307-0.76,0.613c-0.035,0.091-0.049,0.195-0.049,0.3v2.036h-0.6V135.017z"/>
	<path fill="#74787B" d="M136.961,133.295v0.809h0.879v0.467h-0.879v1.813c0,0.418,0.119,0.655,0.46,0.655
		c0.167,0,0.265-0.014,0.355-0.042l0.028,0.468c-0.118,0.042-0.307,0.083-0.544,0.083c-0.286,0-0.516-0.098-0.662-0.258
		c-0.167-0.188-0.237-0.488-0.237-0.886v-1.834h-0.523v-0.467h0.523v-0.621L136.961,133.295z"/>
	<path fill="#74787B" d="M138.838,135.902c0.014,0.823,0.537,1.165,1.15,1.165c0.439,0,0.711-0.077,0.935-0.175l0.111,0.439
		c-0.216,0.098-0.593,0.216-1.129,0.216c-1.032,0-1.66-0.69-1.66-1.701c0-1.018,0.606-1.82,1.59-1.82c1.102,0,1.388,0.97,1.388,1.59
		c0,0.126-0.007,0.217-0.021,0.286H138.838z M140.63,135.463c0.007-0.391-0.161-0.997-0.844-0.997c-0.627,0-0.893,0.572-0.941,0.997
		H140.63z"/>
	<path fill="#74787B" d="M144.39,137.353c-0.161,0.077-0.516,0.195-0.97,0.195c-1.018,0-1.68-0.69-1.68-1.722
		c0-1.039,0.711-1.8,1.813-1.8c0.362,0,0.683,0.091,0.851,0.182l-0.139,0.467c-0.146-0.076-0.377-0.16-0.711-0.16
		c-0.774,0-1.192,0.579-1.192,1.276c0,0.781,0.502,1.262,1.171,1.262c0.349,0,0.579-0.083,0.753-0.16L144.39,137.353z"/>
	<path fill="#74787B" d="M147.215,132.778v1.967h2.273v-1.967h0.613v4.7h-0.613v-2.203h-2.273v2.203h-0.614v-4.7H147.215z"/>
	<path fill="#74787B" d="M151.149,132.778h0.614v4.191h2.008v0.509h-2.622V132.778z"/>
	<path fill="#74787B" d="M156.875,135.275h-1.819v1.694h2.036v0.509h-2.65v-4.7h2.546v0.509h-1.932v1.485h1.819V135.275z"/>
	<path fill="#74787B" d="M159.283,136.739c0.271,0.167,0.662,0.3,1.08,0.3c0.621,0,0.984-0.32,0.984-0.795
		c0-0.439-0.252-0.697-0.887-0.935c-0.767-0.265-1.24-0.669-1.24-1.324c0-0.732,0.605-1.276,1.52-1.276
		c0.475,0,0.83,0.111,1.032,0.223l-0.167,0.502c-0.146-0.09-0.461-0.223-0.887-0.223c-0.641,0-0.885,0.384-0.885,0.704
		c0,0.433,0.285,0.648,0.934,0.899c0.795,0.314,1.193,0.69,1.193,1.381c0,0.719-0.53,1.353-1.639,1.353
		c-0.453,0-0.949-0.139-1.199-0.307L159.283,136.739z"/>
	<path fill="#74787B" d="M164.193,137.556c-0.907,0-1.618-0.67-1.618-1.736c0-1.13,0.746-1.793,1.673-1.793
		c0.97,0,1.625,0.705,1.625,1.729c0,1.256-0.871,1.8-1.674,1.8H164.193z M164.22,137.095c0.586,0,1.025-0.551,1.025-1.317
		c0-0.572-0.286-1.29-1.012-1.29c-0.718,0-1.031,0.669-1.031,1.311c0,0.739,0.418,1.297,1.011,1.297H164.22z"/>
	<path fill="#74787B" d="M169.054,137.353c-0.16,0.077-0.516,0.195-0.97,0.195c-1.019,0-1.681-0.69-1.681-1.722
		c0-1.039,0.711-1.8,1.813-1.8c0.362,0,0.683,0.091,0.851,0.182l-0.139,0.467c-0.146-0.076-0.377-0.16-0.712-0.16
		c-0.774,0-1.192,0.579-1.192,1.276c0,0.781,0.502,1.262,1.172,1.262c0.348,0,0.578-0.083,0.752-0.16L169.054,137.353z"/>
	<path fill="#74787B" d="M170.386,135.651h0.014c0.084-0.118,0.195-0.265,0.293-0.384l0.998-1.164h0.731l-1.304,1.388l1.485,1.987
		h-0.746l-1.157-1.618l-0.314,0.349v1.27h-0.613v-4.951h0.613V135.651z"/>
	<path fill="#74787B" d="M173.393,135.902c0.014,0.823,0.536,1.165,1.15,1.165c0.439,0,0.712-0.077,0.935-0.175l0.111,0.439
		c-0.217,0.098-0.593,0.216-1.129,0.216c-1.033,0-1.66-0.69-1.66-1.701c0-1.018,0.606-1.82,1.59-1.82c1.102,0,1.388,0.97,1.388,1.59
		c0,0.126-0.007,0.217-0.021,0.286H173.393z M175.185,135.463c0.007-0.391-0.16-0.997-0.844-0.997c-0.627,0-0.893,0.572-0.941,0.997
		H175.185z"/>
	<path fill="#74787B" d="M177.278,133.295v0.809h0.879v0.467h-0.879v1.813c0,0.418,0.118,0.655,0.46,0.655
		c0.168,0,0.266-0.014,0.355-0.042l0.028,0.468c-0.118,0.042-0.307,0.083-0.544,0.083c-0.285,0-0.516-0.098-0.662-0.258
		c-0.168-0.188-0.237-0.488-0.237-0.886v-1.834h-0.522v-0.467h0.522v-0.621L177.278,133.295z"/>
</g>
<g enable-background="new    ">
	<path fill="#74787B" d="M197.744,73.581c-0.145,0.074-0.447,0.149-0.828,0.149c-0.885,0-1.545-0.559-1.545-1.587
		c0-0.982,0.665-1.644,1.638-1.644c0.386,0,0.638,0.084,0.745,0.136l-0.104,0.335c-0.148-0.075-0.367-0.131-0.627-0.131
		c-0.736,0-1.225,0.471-1.225,1.289c0,0.769,0.441,1.257,1.201,1.257c0.251,0,0.502-0.051,0.665-0.13L197.744,73.581z"/>
	<path fill="#74787B" d="M199.105,73.734c-0.605,0-1.08-0.446-1.08-1.158c0-0.754,0.498-1.196,1.117-1.196
		c0.647,0,1.084,0.47,1.084,1.154c0,0.838-0.581,1.2-1.116,1.2H199.105z M199.125,73.428c0.391,0,0.684-0.368,0.684-0.88
		c0-0.382-0.191-0.86-0.675-0.86c-0.479,0-0.688,0.446-0.688,0.874c0,0.494,0.279,0.866,0.674,0.866H199.125z"/>
	<path fill="#74787B" d="M200.742,70.379h0.409v3.305h-0.409V70.379z"/>
	<path fill="#74787B" d="M202.755,73.734c-0.605,0-1.08-0.446-1.08-1.158c0-0.754,0.498-1.196,1.117-1.196
		c0.647,0,1.084,0.47,1.084,1.154c0,0.838-0.581,1.2-1.116,1.2H202.755z M202.775,73.428c0.391,0,0.684-0.368,0.684-0.88
		c0-0.382-0.191-0.86-0.675-0.86c-0.479,0-0.688,0.446-0.688,0.874c0,0.494,0.279,0.866,0.674,0.866H202.775z"/>
	<path fill="#74787B" d="M206.277,73.064c0,0.237,0.004,0.442,0.018,0.619h-0.362l-0.023-0.367H205.9
		c-0.104,0.181-0.345,0.418-0.745,0.418c-0.354,0-0.777-0.199-0.777-0.986v-1.317h0.409v1.243c0,0.428,0.135,0.722,0.503,0.722
		c0.274,0,0.466-0.191,0.54-0.377c0.023-0.057,0.037-0.131,0.037-0.21v-1.378h0.41V73.064z"/>
	<path fill="#74787B" d="M206.955,72.134c0-0.266-0.006-0.493-0.02-0.703h0.359l0.018,0.442h0.014
		c0.104-0.303,0.354-0.493,0.629-0.493c0.042,0,0.074,0.005,0.111,0.01v0.386c-0.041-0.005-0.084-0.009-0.139-0.009
		c-0.289,0-0.494,0.219-0.55,0.521c-0.009,0.061-0.014,0.126-0.014,0.191v1.205h-0.409V72.134z"/>
	<path fill="#74787B" d="M210.675,73.581c-0.144,0.074-0.446,0.149-0.828,0.149c-0.884,0-1.545-0.559-1.545-1.587
		c0-0.982,0.666-1.644,1.639-1.644c0.386,0,0.637,0.084,0.744,0.136l-0.103,0.335c-0.149-0.075-0.368-0.131-0.628-0.131
		c-0.735,0-1.225,0.471-1.225,1.289c0,0.769,0.442,1.257,1.201,1.257c0.252,0,0.502-0.051,0.666-0.13L210.675,73.581z"/>
	<path fill="#74787B" d="M211.93,73.684l-1.028-3.137h0.441l0.489,1.545c0.13,0.424,0.247,0.81,0.335,1.173h0.01
		c0.088-0.363,0.214-0.759,0.357-1.168l0.531-1.55h0.433l-1.122,3.137H211.93z"/>
	<path fill="#74787B" d="M214.822,70.589c0.195-0.037,0.451-0.065,0.777-0.065c0.4,0,0.693,0.093,0.88,0.261
		c0.172,0.149,0.278,0.377,0.278,0.651c0,0.284-0.083,0.508-0.246,0.67c-0.214,0.229-0.562,0.345-0.959,0.345
		c-0.121,0-0.232-0.005-0.325-0.027v1.261h-0.405V70.589z M215.227,72.092c0.089,0.023,0.2,0.033,0.335,0.033
		c0.488,0,0.787-0.238,0.787-0.666c0-0.414-0.294-0.614-0.74-0.614c-0.178,0-0.312,0.014-0.382,0.032V72.092z"/>
	<path fill="#74787B" d="M219.483,73.581c-0.144,0.074-0.446,0.149-0.828,0.149c-0.884,0-1.546-0.559-1.546-1.587
		c0-0.982,0.666-1.644,1.639-1.644c0.387,0,0.638,0.084,0.744,0.136l-0.102,0.335c-0.149-0.075-0.368-0.131-0.629-0.131
		c-0.734,0-1.224,0.471-1.224,1.289c0,0.769,0.442,1.257,1.2,1.257c0.252,0,0.503-0.051,0.666-0.13L219.483,73.581z"/>
	<path fill="#74787B" d="M219.993,70.594c0.177-0.042,0.461-0.07,0.74-0.07c0.405,0,0.665,0.07,0.856,0.229
		c0.162,0.121,0.266,0.307,0.266,0.554c0,0.307-0.205,0.572-0.531,0.688v0.014c0.298,0.07,0.646,0.316,0.646,0.782
		c0,0.27-0.106,0.475-0.27,0.628c-0.214,0.2-0.567,0.294-1.08,0.294c-0.279,0-0.492-0.019-0.628-0.038V70.594z M220.398,71.878
		h0.367c0.424,0,0.676-0.229,0.676-0.53c0-0.363-0.275-0.513-0.685-0.513c-0.187,0-0.294,0.015-0.358,0.028V71.878z M220.398,73.376
		c0.084,0.015,0.195,0.02,0.34,0.02c0.418,0,0.805-0.154,0.805-0.61c0-0.423-0.367-0.604-0.81-0.604h-0.335V73.376z"/>
</g>
<g enable-background="new    ">
	<path fill="#74787B" d="M117.022,48.026h-0.014l-0.788,0.426l-0.119-0.468l0.99-0.529h0.523v4.532h-0.593V48.026z"/>
	<path fill="#74787B" d="M121.165,51.987v-1.241h-2.106v-0.397l2.022-2.894h0.662v2.816h0.635v0.475h-0.635v1.241H121.165z
		 M121.165,50.271v-1.513c0-0.237,0.007-0.475,0.021-0.711h-0.021c-0.139,0.265-0.251,0.46-0.376,0.669l-1.109,1.541v0.014H121.165z
		"/>
	<path fill="#74787B" d="M124.464,49.882v0.446h-1.723v-0.446H124.464z"/>
	<path fill="#74787B" d="M125.184,49.714c0-0.433-0.007-0.781-0.028-1.102h0.551l0.035,0.579h0.014
		c0.244-0.419,0.648-0.656,1.192-0.656c0.823,0,1.437,0.69,1.437,1.716c0,1.213-0.746,1.813-1.534,1.813
		c-0.454,0-0.837-0.195-1.039-0.53h-0.014v1.834h-0.613V49.714z M125.797,50.613c0,0.084,0.007,0.175,0.028,0.251
		c0.105,0.426,0.481,0.719,0.914,0.719c0.648,0,1.025-0.53,1.025-1.304c0-0.677-0.349-1.256-0.998-1.256
		c-0.418,0-0.816,0.293-0.934,0.761c-0.014,0.076-0.035,0.167-0.035,0.243V50.613z"/>
	<path fill="#74787B" d="M129.445,48.04c-0.223,0-0.37-0.174-0.37-0.376c0-0.217,0.154-0.384,0.384-0.384
		c0.223,0,0.376,0.167,0.376,0.384c0,0.202-0.146,0.376-0.383,0.376H129.445z M129.152,51.987v-3.375h0.613v3.375H129.152z"/>
	<path fill="#74787B" d="M130.785,49.525c0-0.355-0.007-0.634-0.028-0.913h0.544l0.035,0.551h0.014
		c0.167-0.313,0.558-0.628,1.116-0.628c0.467,0,1.192,0.279,1.192,1.437v2.016h-0.613v-1.945c0-0.544-0.203-1.004-0.781-1.004
		c-0.397,0-0.711,0.285-0.823,0.627c-0.028,0.077-0.042,0.188-0.042,0.286v2.036h-0.613V49.525z"/>
	<path fill="#74787B" d="M134.258,52.852c0.153-0.418,0.341-1.164,0.418-1.673l0.684-0.07c-0.167,0.593-0.474,1.367-0.669,1.694
		L134.258,52.852z"/>
	<path fill="#74787B" d="M140.493,47.036v4.079c0,0.3,0.007,0.642,0.028,0.872h-0.551l-0.028-0.586h-0.014
		c-0.188,0.377-0.593,0.663-1.144,0.663c-0.816,0-1.45-0.69-1.45-1.716c-0.007-1.13,0.697-1.813,1.513-1.813
		c0.523,0,0.872,0.244,1.018,0.51h0.014v-2.009H140.493z M139.879,49.986c0-0.084-0.007-0.182-0.028-0.266
		c-0.09-0.383-0.425-0.704-0.886-0.704c-0.634,0-1.011,0.558-1.011,1.297c0,0.69,0.342,1.256,0.997,1.256
		c0.412,0,0.788-0.279,0.899-0.739c0.021-0.077,0.028-0.161,0.028-0.259V49.986z"/>
	<path fill="#74787B" d="M144.336,51.06c0,0.355,0.007,0.663,0.028,0.928h-0.544l-0.035-0.551h-0.014
		c-0.154,0.271-0.516,0.628-1.116,0.628c-0.53,0-1.165-0.3-1.165-1.479v-1.974h0.613v1.861c0,0.642,0.203,1.081,0.753,1.081
		c0.411,0,0.697-0.285,0.809-0.564c0.035-0.084,0.056-0.195,0.056-0.313v-2.064h0.613V51.06z"/>
	<path fill="#74787B" d="M147.733,51.179c0,0.293,0.014,0.578,0.049,0.809h-0.551l-0.056-0.426h-0.021
		c-0.181,0.266-0.551,0.503-1.032,0.503c-0.683,0-1.032-0.481-1.032-0.97c0-0.815,0.725-1.262,2.029-1.255v-0.07
		c0-0.278-0.077-0.788-0.767-0.78c-0.321,0-0.648,0.09-0.886,0.251l-0.14-0.412c0.279-0.174,0.69-0.293,1.116-0.293
		c1.039,0,1.29,0.705,1.29,1.381V51.179z M147.133,50.265c-0.669-0.014-1.429,0.104-1.429,0.761c0,0.404,0.265,0.585,0.572,0.585
		c0.446,0,0.732-0.278,0.83-0.564c0.021-0.062,0.028-0.133,0.028-0.195V50.265z"/>
	<path fill="#74787B" d="M148.718,47.036h0.613v4.951h-0.613V47.036z"/>
	<path fill="#74787B" d="M151.842,49.665c0-0.397-0.007-0.739-0.028-1.053h0.537l0.028,0.662h0.021
		c0.153-0.453,0.53-0.739,0.941-0.739c0.063,0,0.111,0.008,0.167,0.015v0.578c-0.063-0.007-0.125-0.014-0.209-0.014
		c-0.432,0-0.739,0.328-0.823,0.781c-0.014,0.091-0.021,0.188-0.021,0.286v1.806h-0.613V49.665z"/>
	<path fill="#74787B" d="M155.427,52.064c-0.906,0-1.618-0.67-1.618-1.736c0-1.13,0.747-1.793,1.673-1.793
		c0.97,0,1.625,0.705,1.625,1.729c0,1.256-0.872,1.8-1.674,1.8H155.427z M155.455,51.604c0.586,0,1.025-0.551,1.025-1.317
		c0-0.572-0.285-1.29-1.011-1.29c-0.718,0-1.032,0.669-1.032,1.311c0,0.739,0.418,1.297,1.012,1.297H155.455z"/>
	<path fill="#74787B" d="M158.078,48.612l0.454,1.708c0.091,0.377,0.181,0.732,0.244,1.081h0.021c0.076-0.342,0.188-0.704,0.3-1.073
		l0.552-1.716h0.516l0.523,1.688c0.125,0.397,0.223,0.76,0.299,1.102h0.021c0.056-0.342,0.146-0.697,0.258-1.095l0.48-1.694h0.607
		l-1.088,3.375h-0.559l-0.516-1.61c-0.118-0.384-0.216-0.719-0.3-1.116h-0.014c-0.083,0.404-0.188,0.76-0.307,1.123l-0.544,1.604
		h-0.559l-1.018-3.375H158.078z"/>
	<path fill="#74787B" d="M164.447,47.036h0.613v2.106h0.014c0.098-0.175,0.252-0.335,0.439-0.433
		c0.182-0.111,0.398-0.175,0.628-0.175c0.453,0,1.179,0.279,1.179,1.444v2.008h-0.613v-1.945c0-0.544-0.203-0.997-0.781-0.997
		c-0.398,0-0.705,0.278-0.823,0.613c-0.034,0.084-0.042,0.175-0.042,0.293v2.036h-0.613V47.036z"/>
	<path fill="#74787B" d="M168.667,50.411c0.014,0.823,0.536,1.165,1.15,1.165c0.439,0,0.712-0.077,0.935-0.175l0.111,0.439
		c-0.217,0.098-0.593,0.216-1.129,0.216c-1.033,0-1.66-0.69-1.66-1.701c0-1.018,0.606-1.82,1.59-1.82c1.102,0,1.388,0.97,1.388,1.59
		c0,0.126-0.007,0.217-0.021,0.286H168.667z M170.458,49.972c0.007-0.391-0.16-0.997-0.844-0.997c-0.627,0-0.893,0.572-0.941,0.997
		H170.458z"/>
	<path fill="#74787B" d="M174.19,51.179c0,0.293,0.015,0.578,0.049,0.809h-0.551l-0.056-0.426h-0.021
		c-0.181,0.266-0.551,0.503-1.031,0.503c-0.684,0-1.032-0.481-1.032-0.97c0-0.815,0.726-1.262,2.029-1.255v-0.07
		c0-0.278-0.077-0.788-0.767-0.78c-0.321,0-0.648,0.09-0.887,0.251l-0.139-0.412c0.279-0.174,0.689-0.293,1.115-0.293
		c1.039,0,1.29,0.705,1.29,1.381V51.179z M173.59,50.265c-0.669-0.014-1.429,0.104-1.429,0.761c0,0.404,0.264,0.585,0.571,0.585
		c0.446,0,0.731-0.278,0.829-0.564c0.021-0.062,0.028-0.133,0.028-0.195V50.265z"/>
	<path fill="#74787B" d="M178.089,47.036v4.079c0,0.3,0.006,0.642,0.027,0.872h-0.551l-0.027-0.586h-0.015
		c-0.188,0.377-0.593,0.663-1.144,0.663c-0.816,0-1.45-0.69-1.45-1.716c-0.007-1.13,0.697-1.813,1.513-1.813
		c0.523,0,0.872,0.244,1.019,0.51h0.014v-2.009H178.089z M177.475,49.986c0-0.084-0.007-0.182-0.028-0.266
		c-0.09-0.383-0.425-0.704-0.885-0.704c-0.635,0-1.012,0.558-1.012,1.297c0,0.69,0.342,1.256,0.998,1.256
		c0.411,0,0.787-0.279,0.898-0.739c0.021-0.077,0.028-0.161,0.028-0.259V49.986z"/>
	<path fill="#74787B" d="M179.457,50.411c0.014,0.823,0.537,1.165,1.15,1.165c0.439,0,0.712-0.077,0.936-0.175l0.111,0.439
		c-0.217,0.098-0.594,0.216-1.13,0.216c-1.032,0-1.659-0.69-1.659-1.701c0-1.018,0.605-1.82,1.59-1.82
		c1.102,0,1.387,0.97,1.387,1.59c0,0.126-0.007,0.217-0.021,0.286H179.457z M181.25,49.972c0.006-0.391-0.161-0.997-0.844-0.997
		c-0.628,0-0.893,0.572-0.941,0.997H181.25z"/>
	<path fill="#74787B" d="M182.603,49.665c0-0.397-0.008-0.739-0.028-1.053h0.537l0.028,0.662h0.021
		c0.153-0.453,0.53-0.739,0.941-0.739c0.063,0,0.111,0.008,0.167,0.015v0.578c-0.062-0.007-0.125-0.014-0.209-0.014
		c-0.432,0-0.739,0.328-0.822,0.781c-0.014,0.091-0.021,0.188-0.021,0.286v1.806h-0.613V49.665z"/>
</g>
<g enable-background="new    ">
	<path fill="#74787B" d="M213.533,38.916h0.607v2.267h0.021c0.125-0.182,0.25-0.349,0.369-0.502l1.437-1.765h0.753l-1.701,1.994
		l1.834,2.706h-0.719l-1.541-2.309l-0.453,0.517v1.792h-0.607V38.916z"/>
	<path fill="#74787B" d="M217.642,42.04c0.014,0.823,0.537,1.165,1.15,1.165c0.439,0,0.711-0.077,0.935-0.175l0.111,0.439
		c-0.216,0.098-0.593,0.216-1.13,0.216c-1.031,0-1.659-0.69-1.659-1.701c0-1.018,0.606-1.82,1.59-1.82
		c1.102,0,1.388,0.97,1.388,1.59c0,0.126-0.007,0.217-0.021,0.286H217.642z M219.434,41.601c0.007-0.391-0.161-0.997-0.844-0.997
		c-0.628,0-0.893,0.572-0.941,0.997H219.434z"/>
	<path fill="#74787B" d="M221.011,40.241l0.731,1.994c0.083,0.224,0.167,0.488,0.224,0.69h0.014c0.062-0.202,0.133-0.46,0.216-0.704
		l0.669-1.98h0.649l-0.921,2.405c-0.439,1.158-0.738,1.744-1.157,2.113c-0.308,0.258-0.6,0.362-0.753,0.391l-0.154-0.509
		c0.154-0.049,0.355-0.146,0.537-0.3c0.168-0.133,0.37-0.37,0.517-0.684c0.028-0.062,0.049-0.111,0.049-0.146
		s-0.015-0.084-0.049-0.16l-1.241-3.11H221.011z"/>
	<path fill="#74787B" d="M223.947,42.988c0.189,0.112,0.51,0.237,0.816,0.237c0.439,0,0.648-0.216,0.648-0.502
		c0-0.293-0.174-0.446-0.621-0.613c-0.613-0.224-0.898-0.559-0.898-0.956c0-0.544,0.445-0.99,1.164-0.99
		c0.342,0,0.642,0.091,0.822,0.21l-0.146,0.438c-0.132-0.076-0.376-0.194-0.689-0.194c-0.363,0-0.559,0.209-0.559,0.46
		c0,0.278,0.195,0.404,0.635,0.578c0.579,0.217,0.886,0.51,0.886,1.012c0,0.6-0.468,1.018-1.255,1.018
		c-0.369,0-0.711-0.098-0.949-0.236L223.947,42.988z"/>
	<path fill="#74787B" d="M227.533,39.433v0.809h0.879v0.467h-0.879v1.813c0,0.418,0.118,0.655,0.46,0.655
		c0.167,0,0.265-0.014,0.355-0.042l0.028,0.468c-0.119,0.042-0.307,0.083-0.545,0.083c-0.285,0-0.516-0.098-0.662-0.258
		c-0.167-0.188-0.236-0.488-0.236-0.886v-1.834h-0.523v-0.467h0.523V39.62L227.533,39.433z"/>
	<path fill="#74787B" d="M230.434,43.693c-0.907,0-1.618-0.67-1.618-1.736c0-1.13,0.746-1.793,1.674-1.793
		c0.969,0,1.625,0.705,1.625,1.729c0,1.256-0.871,1.8-1.674,1.8H230.434z M230.462,43.232c0.586,0,1.024-0.551,1.024-1.317
		c0-0.572-0.286-1.29-1.011-1.29c-0.719,0-1.032,0.669-1.032,1.311c0,0.739,0.419,1.297,1.011,1.297H230.462z"/>
	<path fill="#74787B" d="M232.89,41.154c0-0.355-0.008-0.634-0.029-0.913h0.545l0.035,0.551h0.014
		c0.167-0.313,0.558-0.628,1.115-0.628c0.467,0,1.192,0.279,1.192,1.437v2.016h-0.613v-1.945c0-0.544-0.202-1.004-0.781-1.004
		c-0.397,0-0.712,0.285-0.823,0.627c-0.027,0.077-0.041,0.188-0.041,0.286v2.036h-0.613V41.154z"/>
	<path fill="#74787B" d="M237.11,42.04c0.014,0.823,0.536,1.165,1.15,1.165c0.439,0,0.712-0.077,0.935-0.175l0.111,0.439
		c-0.217,0.098-0.593,0.216-1.129,0.216c-1.033,0-1.66-0.69-1.66-1.701c0-1.018,0.606-1.82,1.59-1.82c1.102,0,1.388,0.97,1.388,1.59
		c0,0.126-0.007,0.217-0.021,0.286H237.11z M238.902,41.601c0.007-0.391-0.16-0.997-0.844-0.997c-0.627,0-0.893,0.572-0.941,0.997
		H238.902z"/>
	<path fill="#74787B" d="M243.059,39.007c0.878,0,1.325,0.544,1.325,1.116c0,0.383-0.195,0.802-0.754,1.06v0.021
		c0.565,0.224,0.914,0.628,0.914,1.172c0,0.795-0.676,1.318-1.541,1.318c-0.949,0-1.521-0.559-1.521-1.221
		c0-0.572,0.342-0.983,0.893-1.221v-0.021c-0.509-0.237-0.726-0.628-0.726-1.019c0-0.718,0.607-1.206,1.402-1.206H243.059z
		 M243.017,43.247c0.551,0,0.906-0.342,0.906-0.81c0-0.544-0.383-0.815-0.996-0.99c-0.531,0.153-0.816,0.51-0.816,0.941
		c-0.021,0.453,0.328,0.858,0.899,0.858H243.017z M243.025,39.446c-0.51,0-0.789,0.335-0.789,0.726
		c-0.007,0.453,0.342,0.697,0.865,0.836c0.391-0.132,0.69-0.411,0.69-0.822c0-0.362-0.216-0.739-0.761-0.739H243.025z"/>
	<path fill="#74787B" d="M246.637,39.007c0.878,0,1.325,0.544,1.325,1.116c0,0.383-0.195,0.802-0.754,1.06v0.021
		c0.565,0.224,0.914,0.628,0.914,1.172c0,0.795-0.676,1.318-1.541,1.318c-0.949,0-1.521-0.559-1.521-1.221
		c0-0.572,0.342-0.983,0.893-1.221v-0.021c-0.509-0.237-0.726-0.628-0.726-1.019c0-0.718,0.607-1.206,1.402-1.206H246.637z
		 M246.595,43.247c0.551,0,0.906-0.342,0.906-0.81c0-0.544-0.383-0.815-0.996-0.99c-0.531,0.153-0.816,0.51-0.816,0.941
		c-0.021,0.453,0.328,0.858,0.899,0.858H246.595z M246.603,39.446c-0.51,0-0.789,0.335-0.789,0.726
		c-0.007,0.453,0.342,0.697,0.865,0.836c0.391-0.132,0.69-0.411,0.69-0.822c0-0.362-0.216-0.739-0.761-0.739H246.603z"/>
	<path fill="#74787B" d="M249.176,40.241l0.481,0.726c0.125,0.188,0.23,0.355,0.342,0.551h0.021
		c0.112-0.202,0.224-0.377,0.342-0.559l0.468-0.718h0.669l-1.151,1.632l1.18,1.743h-0.697l-0.496-0.76
		c-0.133-0.195-0.244-0.384-0.362-0.586h-0.014c-0.112,0.202-0.23,0.384-0.356,0.586l-0.487,0.76h-0.677l1.199-1.723l-1.144-1.652
		H249.176z"/>
	<path fill="#74787B" d="M252.406,40.241l0.48,0.726c0.127,0.188,0.23,0.355,0.342,0.551h0.021c0.111-0.202,0.223-0.377,0.342-0.559
		l0.467-0.718h0.67l-1.15,1.632l1.178,1.743h-0.697l-0.494-0.76c-0.133-0.195-0.244-0.384-0.363-0.586h-0.014
		c-0.111,0.202-0.23,0.384-0.355,0.586l-0.488,0.76h-0.677l1.2-1.723l-1.145-1.652H252.406z"/>
</g>
<g enable-background="new    ">
	<path fill="#74787B" d="M223.369,51.359c0.188,0.112,0.509,0.237,0.815,0.237c0.439,0,0.648-0.216,0.648-0.502
		c0-0.293-0.175-0.446-0.62-0.613c-0.614-0.224-0.9-0.559-0.9-0.956c0-0.544,0.447-0.99,1.165-0.99c0.342,0,0.642,0.091,0.823,0.21
		l-0.146,0.438c-0.133-0.076-0.377-0.194-0.691-0.194c-0.361,0-0.557,0.209-0.557,0.46c0,0.278,0.195,0.404,0.634,0.578
		c0.579,0.217,0.886,0.51,0.886,1.012c0,0.6-0.467,1.018-1.255,1.018c-0.37,0-0.712-0.098-0.948-0.236L223.369,51.359z"/>
	<path fill="#74787B" d="M226.953,47.804v0.809h0.879v0.467h-0.879v1.813c0,0.418,0.119,0.655,0.461,0.655
		c0.168,0,0.266-0.014,0.355-0.042l0.027,0.468c-0.117,0.042-0.307,0.083-0.543,0.083c-0.286,0-0.516-0.098-0.662-0.258
		c-0.168-0.188-0.238-0.488-0.238-0.886v-1.834h-0.522v-0.467h0.522v-0.621L226.953,47.804z"/>
	<path fill="#74787B" d="M230.9,51.179c0,0.293,0.015,0.578,0.049,0.809h-0.551l-0.055-0.426h-0.021
		c-0.182,0.266-0.551,0.503-1.032,0.503c-0.683,0-1.032-0.481-1.032-0.97c0-0.815,0.726-1.262,2.029-1.255v-0.07
		c0-0.278-0.076-0.788-0.767-0.78c-0.321,0-0.648,0.09-0.886,0.251l-0.14-0.412c0.279-0.174,0.69-0.293,1.116-0.293
		c1.039,0,1.289,0.705,1.289,1.381V51.179z M230.3,50.265c-0.669-0.014-1.429,0.104-1.429,0.761c0,0.404,0.265,0.585,0.571,0.585
		c0.447,0,0.732-0.278,0.83-0.564c0.021-0.062,0.027-0.133,0.027-0.195V50.265z"/>
	<path fill="#74787B" d="M231.885,49.525c0-0.355-0.007-0.634-0.028-0.913h0.544l0.035,0.551h0.014
		c0.167-0.313,0.558-0.628,1.116-0.628c0.467,0,1.191,0.279,1.191,1.437v2.016h-0.613v-1.945c0-0.544-0.202-1.004-0.781-1.004
		c-0.396,0-0.711,0.285-0.822,0.627c-0.027,0.077-0.042,0.188-0.042,0.286v2.036h-0.613V49.525z"/>
	<path fill="#74787B" d="M238.671,47.036v4.079c0,0.3,0.006,0.642,0.027,0.872h-0.551l-0.027-0.586h-0.015
		c-0.188,0.377-0.593,0.663-1.144,0.663c-0.816,0-1.45-0.69-1.45-1.716c-0.007-1.13,0.697-1.813,1.513-1.813
		c0.523,0,0.872,0.244,1.019,0.51h0.014v-2.009H238.671z M238.057,49.986c0-0.084-0.007-0.182-0.028-0.266
		c-0.09-0.383-0.425-0.704-0.885-0.704c-0.635,0-1.012,0.558-1.012,1.297c0,0.69,0.342,1.256,0.998,1.256
		c0.411,0,0.787-0.279,0.898-0.739c0.021-0.077,0.028-0.161,0.028-0.259V49.986z"/>
	<path fill="#74787B" d="M241.064,52.064c-0.906,0-1.617-0.67-1.617-1.736c0-1.13,0.746-1.793,1.673-1.793
		c0.97,0,1.625,0.705,1.625,1.729c0,1.256-0.872,1.8-1.674,1.8H241.064z M241.091,51.604c0.586,0,1.025-0.551,1.025-1.317
		c0-0.572-0.285-1.29-1.011-1.29c-0.718,0-1.032,0.669-1.032,1.311c0,0.739,0.418,1.297,1.012,1.297H241.091z"/>
	<path fill="#74787B" d="M245.605,51.987v-2.908h-1.416v2.908h-0.613v-2.908h-0.467v-0.467h0.467v-0.098
		c0-0.475,0.111-0.886,0.377-1.157c0.201-0.195,0.48-0.314,0.857-0.314c0.195,0,0.377,0.063,0.48,0.119l-0.132,0.46
		c-0.091-0.049-0.224-0.091-0.356-0.091c-0.48,0-0.62,0.411-0.62,0.941v0.14h1.423v-0.16c0-0.475,0.111-0.907,0.397-1.179
		c0.229-0.224,0.536-0.313,0.815-0.313c0.224,0,0.404,0.049,0.523,0.098l-0.076,0.474c-0.098-0.042-0.217-0.076-0.398-0.076
		c-0.516,0-0.655,0.46-0.655,0.976v0.182h0.815v0.467h-0.809v2.908H245.605z"/>
</g>
<g enable-background="new    ">
	<path fill="#74787B" d="M49.031,38.916h0.607v2.267h0.021c0.125-0.182,0.251-0.349,0.37-0.502l1.437-1.765h0.753l-1.702,1.994
		l1.834,2.706h-0.718l-1.541-2.309l-0.453,0.517v1.792h-0.607V38.916z"/>
	<path fill="#74787B" d="M53.14,42.04c0.014,0.823,0.537,1.165,1.15,1.165c0.439,0,0.711-0.077,0.935-0.175l0.111,0.439
		c-0.216,0.098-0.593,0.216-1.129,0.216c-1.032,0-1.66-0.69-1.66-1.701c0-1.018,0.606-1.82,1.59-1.82c1.102,0,1.388,0.97,1.388,1.59
		c0,0.126-0.007,0.217-0.021,0.286H53.14z M54.932,41.601c0.007-0.391-0.161-0.997-0.844-0.997c-0.627,0-0.893,0.572-0.941,0.997
		H54.932z"/>
	<path fill="#74787B" d="M56.509,40.241l0.732,1.994c0.083,0.224,0.167,0.488,0.223,0.69h0.014c0.062-0.202,0.132-0.46,0.216-0.704
		l0.669-1.98h0.649l-0.921,2.405c-0.439,1.158-0.739,1.744-1.157,2.113c-0.307,0.258-0.6,0.362-0.753,0.391l-0.153-0.509
		c0.153-0.049,0.355-0.146,0.537-0.3c0.167-0.133,0.37-0.37,0.516-0.684c0.028-0.062,0.049-0.111,0.049-0.146
		s-0.014-0.084-0.049-0.16l-1.241-3.11H56.509z"/>
	<path fill="#74787B" d="M59.445,42.988c0.188,0.112,0.509,0.237,0.816,0.237c0.439,0,0.648-0.216,0.648-0.502
		c0-0.293-0.174-0.446-0.621-0.613c-0.614-0.224-0.899-0.559-0.899-0.956c0-0.544,0.446-0.99,1.165-0.99
		c0.342,0,0.642,0.091,0.823,0.21l-0.146,0.438c-0.132-0.076-0.376-0.194-0.69-0.194c-0.362,0-0.558,0.209-0.558,0.46
		c0,0.278,0.195,0.404,0.634,0.578c0.579,0.217,0.886,0.51,0.886,1.012c0,0.6-0.467,1.018-1.255,1.018
		c-0.37,0-0.711-0.098-0.949-0.236L59.445,42.988z"/>
	<path fill="#74787B" d="M63.03,39.433v0.809h0.879v0.467H63.03v1.813c0,0.418,0.119,0.655,0.46,0.655
		c0.167,0,0.265-0.014,0.355-0.042l0.028,0.468c-0.118,0.042-0.307,0.083-0.544,0.083c-0.286,0-0.516-0.098-0.662-0.258
		c-0.167-0.188-0.237-0.488-0.237-0.886v-1.834h-0.523v-0.467h0.523V39.62L63.03,39.433z"/>
	<path fill="#74787B" d="M65.932,43.693c-0.907,0-1.618-0.67-1.618-1.736c0-1.13,0.746-1.793,1.673-1.793
		c0.969,0,1.625,0.705,1.625,1.729c0,1.256-0.872,1.8-1.674,1.8H65.932z M65.96,43.232c0.586,0,1.025-0.551,1.025-1.317
		c0-0.572-0.286-1.29-1.011-1.29c-0.718,0-1.032,0.669-1.032,1.311c0,0.739,0.418,1.297,1.011,1.297H65.96z"/>
	<path fill="#74787B" d="M68.388,41.154c0-0.355-0.007-0.634-0.028-0.913h0.544l0.035,0.551h0.014
		c0.167-0.313,0.558-0.628,1.116-0.628c0.467,0,1.192,0.279,1.192,1.437v2.016h-0.613v-1.945c0-0.544-0.202-1.004-0.781-1.004
		c-0.397,0-0.711,0.285-0.823,0.627c-0.028,0.077-0.042,0.188-0.042,0.286v2.036h-0.613V41.154z"/>
	<path fill="#74787B" d="M72.608,42.04c0.014,0.823,0.537,1.165,1.15,1.165c0.439,0,0.711-0.077,0.935-0.175l0.111,0.439
		c-0.216,0.098-0.593,0.216-1.129,0.216c-1.032,0-1.66-0.69-1.66-1.701c0-1.018,0.606-1.82,1.59-1.82c1.102,0,1.388,0.97,1.388,1.59
		c0,0.126-0.007,0.217-0.021,0.286H72.608z M74.4,41.601c0.007-0.391-0.161-0.997-0.844-0.997c-0.627,0-0.893,0.572-0.941,0.997
		H74.4z"/>
	<path fill="#74787B" d="M78.557,39.007c0.878,0,1.325,0.544,1.325,1.116c0,0.383-0.195,0.802-0.753,1.06v0.021
		c0.565,0.224,0.914,0.628,0.914,1.172c0,0.795-0.676,1.318-1.541,1.318c-0.949,0-1.521-0.559-1.521-1.221
		c0-0.572,0.342-0.983,0.893-1.221v-0.021c-0.509-0.237-0.725-0.628-0.725-1.019c0-0.718,0.607-1.206,1.402-1.206H78.557z
		 M78.515,43.247c0.551,0,0.907-0.342,0.907-0.81c0-0.544-0.384-0.815-0.997-0.99c-0.53,0.153-0.816,0.51-0.816,0.941
		c-0.021,0.453,0.328,0.858,0.899,0.858H78.515z M78.522,39.446c-0.509,0-0.788,0.335-0.788,0.726
		c-0.007,0.453,0.342,0.697,0.865,0.836c0.39-0.132,0.69-0.411,0.69-0.822c0-0.362-0.216-0.739-0.76-0.739H78.522z"/>
	<path fill="#74787B" d="M82.135,39.007c0.878,0,1.325,0.544,1.325,1.116c0,0.383-0.195,0.802-0.753,1.06v0.021
		c0.565,0.224,0.914,0.628,0.914,1.172c0,0.795-0.676,1.318-1.541,1.318c-0.949,0-1.521-0.559-1.521-1.221
		c0-0.572,0.342-0.983,0.893-1.221v-0.021c-0.509-0.237-0.725-0.628-0.725-1.019c0-0.718,0.607-1.206,1.402-1.206H82.135z
		 M82.093,43.247c0.551,0,0.907-0.342,0.907-0.81c0-0.544-0.384-0.815-0.997-0.99c-0.53,0.153-0.816,0.51-0.816,0.941
		c-0.021,0.453,0.328,0.858,0.899,0.858H82.093z M82.101,39.446c-0.509,0-0.788,0.335-0.788,0.726
		c-0.007,0.453,0.342,0.697,0.865,0.836c0.39-0.132,0.69-0.411,0.69-0.822c0-0.362-0.216-0.739-0.76-0.739H82.101z"/>
	<path fill="#74787B" d="M84.674,40.241l0.481,0.726c0.126,0.188,0.23,0.355,0.342,0.551h0.021c0.112-0.202,0.223-0.377,0.342-0.559
		l0.467-0.718h0.669l-1.151,1.632l1.179,1.743h-0.697l-0.495-0.76c-0.133-0.195-0.244-0.384-0.363-0.586h-0.014
		c-0.112,0.202-0.23,0.384-0.356,0.586l-0.488,0.76h-0.677l1.2-1.723l-1.144-1.652H84.674z"/>
	<path fill="#74787B" d="M87.904,40.241l0.481,0.726c0.126,0.188,0.23,0.355,0.342,0.551h0.021c0.112-0.202,0.223-0.377,0.342-0.559
		l0.467-0.718h0.669l-1.151,1.632l1.179,1.743h-0.697l-0.495-0.76c-0.133-0.195-0.244-0.384-0.363-0.586h-0.014
		c-0.112,0.202-0.23,0.384-0.356,0.586l-0.488,0.76h-0.677l1.2-1.723l-1.144-1.652H87.904z"/>
</g>
<g enable-background="new    ">
	<path fill="#74787B" d="M58.867,51.359c0.188,0.112,0.509,0.237,0.816,0.237c0.439,0,0.648-0.216,0.648-0.502
		c0-0.293-0.174-0.446-0.621-0.613c-0.614-0.224-0.899-0.559-0.899-0.956c0-0.544,0.446-0.99,1.165-0.99
		c0.342,0,0.642,0.091,0.823,0.21l-0.146,0.438c-0.132-0.076-0.376-0.194-0.69-0.194c-0.362,0-0.558,0.209-0.558,0.46
		c0,0.278,0.195,0.404,0.634,0.578c0.579,0.217,0.886,0.51,0.886,1.012c0,0.6-0.467,1.018-1.255,1.018
		c-0.37,0-0.711-0.098-0.949-0.236L58.867,51.359z"/>
	<path fill="#74787B" d="M62.452,47.804v0.809h0.879v0.467h-0.879v1.813c0,0.418,0.119,0.655,0.46,0.655
		c0.167,0,0.265-0.014,0.355-0.042l0.028,0.468c-0.118,0.042-0.307,0.083-0.544,0.083c-0.286,0-0.516-0.098-0.662-0.258
		c-0.167-0.188-0.237-0.488-0.237-0.886v-1.834h-0.523v-0.467h0.523v-0.621L62.452,47.804z"/>
	<path fill="#74787B" d="M66.399,51.179c0,0.293,0.014,0.578,0.049,0.809h-0.551l-0.056-0.426H65.82
		c-0.181,0.266-0.551,0.503-1.032,0.503c-0.683,0-1.032-0.481-1.032-0.97c0-0.815,0.725-1.262,2.029-1.255v-0.07
		c0-0.278-0.077-0.788-0.767-0.78c-0.321,0-0.648,0.09-0.886,0.251l-0.14-0.412c0.279-0.174,0.69-0.293,1.116-0.293
		c1.039,0,1.29,0.705,1.29,1.381V51.179z M65.799,50.265c-0.669-0.014-1.429,0.104-1.429,0.761c0,0.404,0.265,0.585,0.572,0.585
		c0.446,0,0.732-0.278,0.83-0.564c0.021-0.062,0.028-0.133,0.028-0.195V50.265z"/>
	<path fill="#74787B" d="M67.384,49.525c0-0.355-0.007-0.634-0.028-0.913h0.544l0.035,0.551h0.014
		c0.167-0.313,0.558-0.628,1.116-0.628c0.467,0,1.192,0.279,1.192,1.437v2.016h-0.613v-1.945c0-0.544-0.203-1.004-0.781-1.004
		c-0.397,0-0.711,0.285-0.823,0.627c-0.028,0.077-0.042,0.188-0.042,0.286v2.036h-0.613V49.525z"/>
	<path fill="#74787B" d="M74.169,47.036v4.079c0,0.3,0.007,0.642,0.028,0.872h-0.551l-0.028-0.586h-0.014
		c-0.188,0.377-0.593,0.663-1.144,0.663c-0.816,0-1.45-0.69-1.45-1.716c-0.007-1.13,0.697-1.813,1.513-1.813
		c0.523,0,0.872,0.244,1.018,0.51h0.014v-2.009H74.169z M73.556,49.986c0-0.084-0.007-0.182-0.028-0.266
		c-0.09-0.383-0.425-0.704-0.885-0.704c-0.635,0-1.011,0.558-1.011,1.297c0,0.69,0.341,1.256,0.997,1.256
		c0.412,0,0.788-0.279,0.899-0.739c0.021-0.077,0.028-0.161,0.028-0.259V49.986z"/>
	<path fill="#74787B" d="M76.562,52.064c-0.907,0-1.618-0.67-1.618-1.736c0-1.13,0.746-1.793,1.673-1.793
		c0.969,0,1.625,0.705,1.625,1.729c0,1.256-0.872,1.8-1.674,1.8H76.562z M76.59,51.604c0.586,0,1.025-0.551,1.025-1.317
		c0-0.572-0.286-1.29-1.011-1.29c-0.718,0-1.032,0.669-1.032,1.311c0,0.739,0.418,1.297,1.011,1.297H76.59z"/>
	<path fill="#74787B" d="M81.104,51.987v-2.908h-1.416v2.908h-0.614v-2.908h-0.467v-0.467h0.467v-0.098
		c0-0.475,0.111-0.886,0.376-1.157c0.202-0.195,0.481-0.314,0.858-0.314c0.195,0,0.376,0.063,0.481,0.119l-0.132,0.46
		c-0.091-0.049-0.223-0.091-0.356-0.091c-0.481,0-0.621,0.411-0.621,0.941v0.14h1.423v-0.16c0-0.475,0.111-0.907,0.397-1.179
		c0.23-0.224,0.537-0.313,0.816-0.313c0.223,0,0.404,0.049,0.523,0.098l-0.077,0.474c-0.098-0.042-0.216-0.076-0.397-0.076
		c-0.516,0-0.656,0.46-0.656,0.976v0.182h0.816v0.467h-0.809v2.908H81.104z"/>
</g>
</svg>
