<svg xmlns="http://www.w3.org/2000/svg" version="1.1" x="0" y="0" width="450" height="260" viewBox="0 0 450 260" enable-background="new 0 0 449.994 260" xml:space="preserve"><g display="none"/><path fill="#777777" d="M378.4 89.6c5.7 0 10.3-4.6 10.3-10.2 0-5.7-4.6-10.2-10.3-10.2s-10.2 4.6-10.2 10.3C368.2 85 372.8 89.6 378.4 89.6zM378.4 71.1c4.6 0 8.3 3.7 8.3 8.3 0 4.5-3.7 8.3-8.3 8.3 -4.5 0-8.2-3.7-8.2-8.2C370.2 74.8 373.9 71.1 378.4 71.1z"/><path fill="#777777" d="M360.5 123.7c2.2 0 4-1.8 4-4s-1.8-4-4-4c-2.2 0-4 1.8-4 4C356.5 121.9 358.3 123.7 360.5 123.7zM360.5 116.7c1.6 0 3 1.3 3 3s-1.3 3-3 3c-1.6 0-3-1.3-3-3C357.5 118.1 358.9 116.7 360.5 116.7z"/><path fill="#777777" d="M372.5 123.7c2.2 0 4-1.8 4-4s-1.8-4-4-4c-2.2 0-4 1.8-4 4C368.5 121.9 370.3 123.7 372.5 123.7zM372.5 116.7c1.6 0 3 1.3 3 3s-1.3 3-3 3c-1.6 0-3-1.3-3-3C369.5 118.1 370.8 116.7 372.5 116.7z"/><path fill="#777777" d="M360.5 134.1c2.2 0 4-1.8 4-4 0-2.2-1.8-4-4-4 -2.1 0-3.8 1.6-3.9 3.7h-14.1v0.5h14.1C356.7 132.5 358.4 134.1 360.5 134.1zM360.5 127.2c1.6 0 3 1.3 3 3 0 1.6-1.3 3-3 3 -1.6 0-2.8-1.2-2.9-2.7h2.9v-0.5h-2.9C357.7 128.4 358.9 127.2 360.5 127.2z"/><path fill="#777777" d="M372.5 134.1c2.2 0 4-1.8 4-4 0-2.2-1.8-4-4-4 -2.2 0-4 1.8-4 4C368.5 132.3 370.3 134.1 372.5 134.1zM372.5 127.2c1.6 0 3 1.3 3 3 0 1.6-1.3 3-3 3 -1.6 0-3-1.3-3-3C369.5 128.5 370.8 127.2 372.5 127.2z"/><path fill="#777777" d="M360.5 146.1c2.2 0 4-1.8 4-4 0-2.2-1.8-4-4-4 -2.1 0-3.8 1.6-3.9 3.7h-14.1v0.5h14.1C356.7 144.4 358.4 146.1 360.5 146.1zM360.5 139.1c1.6 0 3 1.3 3 3 0 1.6-1.3 3-3 3 -1.6 0-2.8-1.2-2.9-2.7h2.9v-0.5h-2.9C357.7 140.3 358.9 139.1 360.5 139.1z"/><path fill="#777777" d="M372.5 146.1c2.2 0 4-1.8 4-4 0-2.2-1.8-4-4-4 -2.2 0-4 1.8-4 4C368.5 144.3 370.3 146.1 372.5 146.1zM372.5 139.1c1.6 0 3 1.3 3 3 0 1.6-1.3 3-3 3 -1.6 0-3-1.3-3-3C369.5 140.5 370.8 139.1 372.5 139.1z"/><path fill="#777777" d="M360.5 150.1c-2.2 0-4 1.8-4 4s1.8 4 4 4c2.2 0 4-1.8 4-4C364.5 151.9 362.7 150.1 360.5 150.1zM360.5 157c-1.6 0-3-1.3-3-3s1.3-3 3-3c1.6 0 3 1.3 3 3S362.1 157 360.5 157z"/><path fill="#777777" d="M372.5 158c2.2 0 4-1.8 4-4 0-2.2-1.8-4-4-4 -2.2 0-4 1.8-4 4S370.3 158 372.5 158zM372.5 151.1c1.6 0 3 1.3 3 3s-1.3 3-3 3c-1.6 0-3-1.3-3-3S370.8 151.1 372.5 151.1z"/><path fill="#777777" d="M360.5 160.6c-2.2 0-4 1.8-4 4 0 2.2 1.8 4 4 4 2.2 0 4-1.8 4-4C364.5 162.3 362.7 160.6 360.5 160.6zM360.5 167.5c-1.6 0-3-1.3-3-3s1.3-3 3-3c1.6 0 3 1.3 3 3S362.1 167.5 360.5 167.5z"/><path fill="#777777" d="M372.5 168.5c2.2 0 4-1.8 4-4s-1.8-4-4-4c-2.2 0-4 1.8-4 4S370.3 168.5 372.5 168.5zM372.5 161.6c1.6 0 3 1.3 3 3 0 1.6-1.3 3-3 3 -1.6 0-3-1.3-3-3C369.5 162.9 370.8 161.6 372.5 161.6z"/><path fill="#777777" d="M364.5 176.5c0-2.2-1.8-4-4-4 -2.2 0-4 1.8-4 4 0 2.1 1.7 3.8 3.7 3.9v16h0.5v-16C362.8 180.3 364.5 178.6 364.5 176.5zM357.5 176.5c0-1.6 1.3-3 3-3 1.6 0 3 1.3 3 3 0 1.6-1.2 2.8-2.7 2.9v-2.9h-0.5v2.9C358.7 179.3 357.5 178 357.5 176.5z"/><path fill="#777777" d="M378.4 194.6c-2.1 0-4.1 0.6-5.7 1.8v-16c2.1-0.1 3.7-1.8 3.7-3.9 0-2.2-1.8-4-4-4 -2.2 0-4 1.8-4 4 0 2.1 1.7 3.8 3.7 3.9v16h0.5c-2.7 1.8-4.5 5-4.5 8.5 0 5.7 4.6 10.3 10.3 10.3s10.3-4.6 10.3-10.2S384.1 194.6 378.4 194.6zM369.5 176.5c0-1.6 1.3-3 3-3 1.6 0 3 1.3 3 3 0 1.6-1.2 2.8-2.7 2.9v-2.9h-0.5v2.9C370.7 179.3 369.5 178 369.5 176.5zM378.4 213.1c-4.5 0-8.2-3.7-8.2-8.2s3.7-8.2 8.3-8.2c4.6 0 8.3 3.7 8.3 8.3S383 213.1 378.4 213.1z"/><path fill="#777777" d="M414.9 108v-0.5h-19.3V76.4c0-1.7-0.3-3.3-0.7-4.8v-9.9h16.6v-0.5h-16.6V28.7h-0.5v11.1l-4.2-2.4v2.2H53.5v-2.2l-4 2.3V28.7h-0.5v32.8H2.4v0.5h46.7v9.6c-0.5 1.5-0.8 3.2-0.8 4.9v2.7H29.3v0.5h19v126.8c0 1.7 0.3 3.3 0.8 4.9v9.8H1.4v0.5h47.6v34.1h0.5v-34.1h9.9c1.5 0.5 3.1 0.8 4.8 0.8h3v33.4h0.5v-33.4h311.9c8.8 0 16-7.2 16-16v-98.5H414.9zM394.3 70.3c-1.6-3.8-4.7-6.9-8.5-8.5h8.5V70.3zM49.6 40l4 2.3v-2.2H390.2v2.2l4.2-2.4v21.4h-9.9c-1.5-0.5-3.1-0.7-4.8-0.7H64.3c-1.9 0-3.7 0.3-5.3 0.9h-9.4L49.6 40 49.6 40zM49.6 61.9h8.1c-3.6 1.7-6.5 4.6-8.1 8.3V61.9zM49.6 221.2v-8.5c1.6 3.8 4.7 6.9 8.5 8.5H49.6zM393.6 206.5c0 7.7-6.3 14-14 14H67.8v-5.3c5.5-0.1 10-4.7 10-10.2 0-5.7-4.6-10.2-10.2-10.2 -5.7 0-10.2 4.6-10.2 10.3 0 5.6 4.5 10.1 10 10.2v5.3h-3c-7.7 0-14-6.3-14-14V79.7h7c0.2 5.5 4.7 9.9 10.2 9.9 5.7 0 10.3-4.6 10.3-10.2 0-5.7-4.6-10.2-10.2-10.2 -5.6 0-10.2 4.5-10.2 10.1h-7v-2.7c0-7.7 6.3-14 14-14h315.4c7.7 0 14 6.3 14 14v31h-17.2c-0.1-2.1-1.8-3.7-3.9-3.7 -2.1 0-3.8 1.6-3.9 3.7h-4.1c-0.1-2.1-1.8-3.7-3.9-3.7 -2.2 0-4 1.8-4 4s1.8 4 4 4c2.1 0 3.8-1.6 3.9-3.7h4.1c0.1 2.1 1.8 3.7 3.9 3.7 2.1 0 3.8-1.6 3.9-3.7h17.2L393.6 206.5 393.6 206.5zM67.3 213.1c-4.4-0.1-8-3.8-8-8.2 0-4.5 3.7-8.2 8.3-8.2 4.5 0 8.3 3.7 8.3 8.3 0 4.5-3.6 8.1-8 8.2v-6.6h-0.5V213.1zM59.3 79.2c0.1-4.5 3.7-8.1 8.2-8.1 4.5 0 8.3 3.7 8.3 8.3 0 4.5-3.7 8.3-8.2 8.3 -4.4 0-8.1-3.5-8.2-7.9h9.3v-0.5H59.3zM369.5 107.5c0.1-1.5 1.4-2.7 2.9-2.7s2.8 1.2 2.9 2.7H369.5zM375.4 108c-0.1 1.5-1.4 2.7-2.9 2.7s-2.8-1.2-2.9-2.7H375.4zM363.4 108c-0.1 1.5-1.4 2.7-2.9 2.7 -1.6 0-3-1.3-3-3 0-1.6 1.3-3 3-3 1.6 0 2.8 1.2 2.9 2.7h-2.9v0.5H363.4z"/><polygon fill="#777777" points="349 153.8 344.1 153.8 344.1 154.3 349 154.3 349 156.5 353.2 154.1 349 151.6 "/><polygon fill="#777777" points="84.9 202.5 80.7 204.9 84.9 207.3 84.9 205.1 108 205.1 108 204.6 84.9 204.6 "/><polygon fill="#777777" points="371.7 184.2 367.5 181.8 367.5 183.9 365.5 183.9 365.5 181.8 361.3 184.2 365.5 186.6 365.5 184.4 367.5 184.4 367.5 186.6 "/><polygon fill="#777777" points="373.2 184.2 377.4 186.6 377.4 184.4 388.9 184.4 388.9 186.6 393.1 184.2 388.9 181.8 388.9 183.9 377.4 183.9 377.4 181.8 "/><polygon fill="#777777" points="376.5 226 372.1 229 357 229 357 229.5 372.3 229.5 376.7 226.4 378 228.2 380 223.8 375.2 224.2 "/><polygon fill="#777777" points="352.4 135 349.9 130.4 347.5 135 349.7 135 349.7 137.3 347.5 137.3 349.9 141.9 352.4 137.3 350.2 137.3 350.2 135 "/><polygon fill="#777777" points="407.4 66.2 404.9 62 402.5 66.2 404.7 66.2 404.7 102.9 402.5 102.9 404.9 107.1 407.4 102.9 405.2 102.9 405.2 66.2 "/><polygon fill="#777777" points="62.8 244.1 54 244.1 54 241.9 49.6 244.3 54 246.7 54 244.6 62.8 244.6 62.8 246.7 67.2 244.3 62.8 241.9 "/><polygon fill="#777777" points="11 216.8 13.4 221 15.8 216.8 13.7 216.8 13.7 66.3 15.8 66.3 13.4 62.1 11 66.3 13.2 66.3 13.2 216.8 "/><polygon fill="#777777" points="37.9 74.8 40.3 79.1 42.7 74.8 40.6 74.8 40.6 66.3 42.7 66.3 40.3 61.9 37.9 66.3 40.1 66.3 40.1 74.8 "/><polygon fill="#777777" points="268.8 151.6 269 152.2 270 151.6 270 151.6 270 156.7 270.8 156.7 270.8 150.9 270.1 150.9 "/><path fill="#777777" d="M276.1 150.9h-0.9l-2.6 3.7v0.5h2.7v1.6h0.7v-1.6h0.8V154.5h-0.8V150.9zM275.4 152.6v1.9h-1.9v0l1.4-2c0.2-0.3 0.3-0.5 0.5-0.9h0C275.4 151.9 275.4 152.2 275.4 152.6z"/><path fill="#777777" d="M281.1 152.4h-0.9l-0.6 0.9c-0.2 0.2-0.3 0.5-0.4 0.7h0c-0.1-0.3-0.3-0.5-0.4-0.7l-0.6-0.9h-0.9l1.5 2.1 -1.5 2.2h0.9l0.6-1c0.2-0.3 0.3-0.5 0.5-0.8h0c0.2 0.3 0.3 0.5 0.5 0.8l0.6 1h0.9l-1.5-2.2L281.1 152.4z"/><path fill="#777777" d="M286.9 150.6l-0.5-0.3 -0.5 0.7c-0.4-0.3-1-0.5-1.5-0.5 -1.6 0-2.8 1.2-2.8 3.2 0 0.9 0.3 1.7 0.8 2.2l-0.6 0.8 0.4 0.4 0.6-0.8c0.4 0.3 1 0.5 1.5 0.5 1.5 0 2.8-1.1 2.8-3.2 0-0.9-0.3-1.7-0.8-2.2L286.9 150.6zM282.8 155.3c-0.3-0.5-0.4-1-0.4-1.6 0-1.3 0.7-2.5 2-2.5 0.5 0 0.8 0.2 1.1 0.4l-2.7 3.7L282.8 155.3zM284.4 156.2c-0.5 0-0.8-0.2-1.1-0.4l2.6-3.7h0c0.3 0.5 0.4 1.1 0.4 1.6C286.3 155 285.6 156.2 284.4 156.2z"/><path fill="#777777" d="M289.8 150.8c-1.2 0-2 1.1-2 3 0 1.9 0.8 3 1.9 3h0c1.3 0 2-1.1 2-3.1C291.7 151.9 291 150.8 289.8 150.8zM289.8 156.2h0c-0.7 0-1.2-0.9-1.2-2.4 0-1.5 0.5-2.4 1.2-2.4 0.8 0 1.2 0.9 1.2 2.4C290.9 155.3 290.6 156.2 289.8 156.2z"/><path fill="#777777" d="M293.1 155.7c-0.3 0-0.5 0.2-0.5 0.6s0.2 0.6 0.5 0.6h0c0.3 0 0.5-0.2 0.5-0.6C293.6 155.9 293.4 155.7 293.1 155.7z"/><path fill="#777777" d="M296.3 150.8c-1.2 0-2 1.1-2 3 0 1.9 0.8 3 1.9 3h0c1.3 0 2-1.1 2-3.1C298.2 151.9 297.5 150.8 296.3 150.8zM296.2 156.2h0c-0.7 0-1.2-0.9-1.2-2.4 0-1.5 0.5-2.4 1.2-2.4 0.8 0 1.2 0.9 1.2 2.4C297.4 155.3 297 156.2 296.2 156.2z"/><path fill="#777777" d="M302.5 155.1c0-0.8-0.6-1.4-1.3-1.5v0c0.7-0.3 1.1-0.8 1.1-1.4 0-0.7-0.5-1.4-1.7-1.4 -0.6 0-1.2 0.2-1.5 0.4l0.2 0.6c0.3-0.2 0.7-0.4 1.2-0.4 0.7 0 1 0.4 1 0.9 0 0.7-0.7 1-1.3 1h-0.4v0.6h0.4c0.8 0 1.5 0.4 1.5 1.2 0 0.5-0.3 1.1-1.3 1.1 -0.6 0-1.1-0.2-1.3-0.4l-0.2 0.6c0.3 0.2 0.9 0.4 1.5 0.4C301.8 156.8 302.5 156 302.5 155.1z"/><path fill="#777777" d="M305.5 150.8c-1.2 0-2 1-2 2.1 0 1 0.7 1.8 1.7 1.8 0.6 0 1.1-0.2 1.4-0.6h0c-0.1 0.7-0.4 1.2-0.8 1.6 -0.3 0.3-0.8 0.5-1.2 0.6 -0.3 0-0.5 0-0.6 0v0.6c0.2 0 0.4 0 0.7 0 0.6-0.1 1.2-0.4 1.7-0.8 0.6-0.6 1-1.5 1-2.7C307.4 151.7 306.7 150.8 305.5 150.8zM306.5 153.4c-0.2 0.4-0.6 0.6-1.2 0.6 -0.7 0-1.1-0.5-1.1-1.2 0-0.8 0.5-1.4 1.1-1.4h0c0.8 0 1.2 0.8 1.2 1.8C306.6 153.3 306.6 153.4 306.5 153.4z"/><path fill="#777777" d="M309.3 152.7l0.5-0.1c0.2-0.4 0.6-1.4 0.8-2.1l-0.8 0.1C309.8 151.2 309.5 152.2 309.3 152.7z"/><path fill="#777777" d="M308.5 150.6c-0.1 0.6-0.3 1.6-0.5 2.1l0.5-0.1c0.2-0.4 0.6-1.4 0.8-2.1L308.5 150.6z"/><polygon fill="#777777" points="315.1 150.6 314.5 150.6 312 157.1 312.6 157.1 "/><polygon fill="#777777" points="317.9 151.6 318.1 152.2 319.1 151.6 319.1 151.6 319.1 156.7 319.9 156.7 319.9 150.9 319.2 150.9 "/><path fill="#777777" d="M328.5 156.7v-2.6c0-1.5-0.9-1.9-1.4-1.9 -0.4 0-0.7 0.1-0.9 0.3 -0.2 0.1-0.4 0.3-0.5 0.6h0c-0.2-0.5-0.6-0.9-1.2-0.9 -0.7 0-1.1 0.4-1.4 0.8h0l0-0.7h-0.7c0 0.4 0 0.7 0 1.2v3.2h0.8v-2.6c0-0.1 0-0.3 0.1-0.4 0.1-0.4 0.5-0.8 1-0.8 0.6 0 0.9 0.5 0.9 1.2v2.6h0.8v-2.7c0-0.1 0-0.3 0.1-0.4 0.1-0.4 0.5-0.7 0.9-0.7 0.6 0 0.9 0.5 0.9 1.3v2.5H328.5z"/><path fill="#777777" d="M333.2 156.7v-2.7c0-0.1 0-0.3 0.1-0.4 0.1-0.4 0.5-0.7 0.9-0.7 0.6 0 0.9 0.5 0.9 1.3v2.5h0.8v-2.6c0-1.5-0.9-1.9-1.4-1.9 -0.4 0-0.7 0.1-0.9 0.3 -0.2 0.1-0.4 0.3-0.5 0.6h0c-0.2-0.5-0.6-0.9-1.2-0.9 -0.7 0-1.1 0.4-1.4 0.8h0l0-0.7h-0.7c0 0.4 0 0.7 0 1.2v3.2h0.8v-2.6c0-0.1 0-0.3 0.1-0.4 0.1-0.4 0.5-0.8 1-0.8 0.6 0 0.9 0.5 0.9 1.2v2.6H333.2z"/><path fill="#777777" d="M114.9 202.2h-0.9l-2.6 3.7v0.5h2.7v1.6h0.7V206.4h0.8v-0.6h-0.8L114.9 202.2 114.9 202.2zM114.2 203.8v1.9h-1.9v0l1.4-2c0.2-0.3 0.3-0.5 0.5-0.9h0C114.2 203.2 114.2 203.5 114.2 203.8z"/><path fill="#777777" d="M119.9 203.7h-0.9l-0.6 0.9c-0.2 0.2-0.3 0.5-0.4 0.7h0c-0.1-0.3-0.3-0.5-0.4-0.7l-0.6-0.9h-0.9l1.5 2.1 -1.5 2.2h0.9l0.6-1c0.2-0.3 0.3-0.5 0.5-0.8h0c0.2 0.3 0.3 0.5 0.5 0.8l0.6 1h0.9l-1.5-2.2L119.9 203.7z"/><path fill="#777777" d="M125.7 201.9l-0.5-0.3 -0.5 0.7c-0.4-0.3-1-0.5-1.5-0.5 -1.6 0-2.8 1.2-2.8 3.2 0 0.9 0.3 1.7 0.8 2.2l-0.6 0.8 0.4 0.4 0.6-0.8c0.4 0.3 1 0.5 1.5 0.5 1.5 0 2.8-1.1 2.8-3.2 0-0.9-0.3-1.7-0.8-2.2L125.7 201.9zM121.6 206.6c-0.3-0.5-0.4-1-0.4-1.6 0-1.3 0.7-2.5 2-2.5 0.5 0 0.8 0.2 1.1 0.4l-2.7 3.7L121.6 206.6zM123.2 207.5c-0.5 0-0.8-0.2-1.1-0.4l2.6-3.7h0c0.3 0.5 0.4 1.1 0.4 1.6C125.1 206.3 124.4 207.5 123.2 207.5z"/><path fill="#777777" d="M128.6 202.1c-1.2 0-2 1.1-2 3 0 1.9 0.8 3 1.9 3h0c1.3 0 2-1.1 2-3.1C130.6 203.2 129.8 202.1 128.6 202.1zM128.6 207.5h0c-0.7 0-1.2-0.9-1.2-2.4 0-1.5 0.5-2.4 1.2-2.4 0.8 0 1.2 0.9 1.2 2.4C129.8 206.5 129.4 207.5 128.6 207.5z"/><path fill="#777777" d="M131.9 207c-0.3 0-0.5 0.2-0.5 0.6 0 0.3 0.2 0.6 0.5 0.6h0c0.3 0 0.5-0.2 0.5-0.6C132.4 207.2 132.2 207 131.9 207z"/><polygon fill="#777777" points="133.7 202.8 133.8 203.4 134.8 202.9 134.8 202.9 134.8 208 135.6 208 135.6 202.2 134.9 202.2 "/><path fill="#777777" d="M138.8 207.3l0.5-0.4c1.2-1.2 2-2.1 2-3.1 0-0.8-0.5-1.7-1.8-1.7 -0.7 0-1.3 0.3-1.7 0.6l0.3 0.6c0.3-0.2 0.7-0.5 1.2-0.5 0.9 0 1.1 0.5 1.1 1.1 0 0.9-0.7 1.6-2.2 3l-0.6 0.6v0.5h3.7v-0.7h-2.6V207.3z"/><path fill="#777777" d="M145.1 204.6c-0.4-0.2-0.8-0.3-1.3-0.3 -0.2 0-0.3 0-0.5 0l0.2-1.5h2.2v-0.7h-2.8l-0.4 2.8c0.2 0 0.5-0.1 0.8-0.1 1.2 0 1.7 0.5 1.7 1.3 0 0.8-0.6 1.3-1.4 1.3 -0.5 0-1-0.2-1.3-0.3l-0.2 0.6c0.3 0.2 0.8 0.4 1.5 0.4 1.3 0 2.2-0.9 2.2-2C145.9 205.4 145.5 204.9 145.1 204.6z"/><path fill="#777777" d="M147.4 201.9c-0.1 0.6-0.3 1.6-0.5 2.1l0.5-0.1c0.2-0.4 0.6-1.4 0.8-2.1L147.4 201.9z"/><path fill="#777777" d="M148.2 204l0.5-0.1c0.2-0.4 0.6-1.4 0.8-2.1l-0.8 0.1C148.6 202.5 148.3 203.4 148.2 204z"/><polygon fill="#777777" points="150.8 208.4 151.4 208.4 153.9 201.9 153.3 201.9 "/><path fill="#777777" d="M158.5 204.9v0c0.7-0.3 1.1-0.8 1.1-1.4 0-0.7-0.5-1.4-1.7-1.4 -0.6 0-1.2 0.2-1.5 0.4l0.2 0.6c0.3-0.2 0.7-0.4 1.2-0.4 0.7 0 1 0.4 1 0.9 0 0.7-0.7 1-1.3 1h-0.4v0.6h0.4c0.8 0 1.5 0.4 1.5 1.2 0 0.5-0.3 1.1-1.3 1.1 -0.6 0-1.1-0.2-1.3-0.4l-0.2 0.6c0.3 0.2 0.9 0.4 1.5 0.4 1.4 0 2.1-0.8 2.1-1.7C159.8 205.5 159.2 205 158.5 204.9z"/><path fill="#777777" d="M161.4 207c-0.3 0-0.5 0.2-0.5 0.6 0 0.3 0.2 0.6 0.5 0.6h0c0.3 0 0.5-0.2 0.5-0.6C161.9 207.2 161.7 207 161.4 207z"/><path fill="#777777" d="M163.8 207.3l0.5-0.4c1.2-1.2 2-2.1 2-3.1 0-0.8-0.5-1.7-1.8-1.7 -0.7 0-1.3 0.3-1.7 0.6l0.3 0.6c0.3-0.2 0.7-0.5 1.2-0.5 0.9 0 1.1 0.5 1.1 1.1 0 0.9-0.7 1.6-2.2 3l-0.6 0.6v0.5h3.7v-0.7h-2.6V207.3z"/><path fill="#777777" d="M172.3 203.6c-0.4 0-0.7 0.1-1 0.3 -0.2 0.1-0.4 0.3-0.5 0.6h0c-0.2-0.5-0.6-0.9-1.2-0.9 -0.7 0-1.1 0.4-1.4 0.8h0l0-0.7h-0.7c0 0.4 0 0.7 0 1.2v3.2h0.8v-2.6c0-0.1 0-0.3 0.1-0.4 0.1-0.4 0.5-0.8 1-0.8 0.6 0 0.9 0.5 0.9 1.2v2.6h0.8v-2.7c0-0.1 0-0.3 0.1-0.4 0.1-0.4 0.5-0.7 0.9-0.7 0.6 0 0.9 0.5 0.9 1.3v2.5h0.8v-2.6C173.7 203.9 172.9 203.6 172.3 203.6z"/><path fill="#777777" d="M179.8 203.6c-0.4 0-0.7 0.1-1 0.3 -0.2 0.1-0.4 0.3-0.5 0.6h0c-0.2-0.5-0.6-0.9-1.2-0.9 -0.7 0-1.1 0.4-1.4 0.8h0l0-0.7h-0.7c0 0.4 0 0.7 0 1.2v3.2h0.8v-2.6c0-0.1 0-0.3 0.1-0.4 0.1-0.4 0.5-0.8 1-0.8 0.6 0 0.9 0.5 0.9 1.2v2.6h0.8v-2.7c0-0.1 0-0.3 0.1-0.4 0.1-0.4 0.5-0.7 0.9-0.7 0.6 0 0.9 0.5 0.9 1.3v2.5h0.8v-2.6C181.2 203.9 180.4 203.6 179.8 203.6z"/><path fill="#777777" d="M75.1 241.1h-0.9l-2.6 3.7v0.5h2.7v1.6h0.7v-1.6h0.8v-0.6h-0.8V241.1zM74.4 242.8v1.9h-1.9v0l1.4-2c0.2-0.3 0.3-0.5 0.5-0.9H74.4C74.4 242.2 74.4 242.5 74.4 242.8z"/><path fill="#777777" d="M80.1 242.6h-0.9l-0.6 0.9c-0.2 0.2-0.3 0.5-0.4 0.7h0c-0.1-0.3-0.3-0.5-0.4-0.7l-0.6-0.9h-0.9l1.5 2.1 -1.5 2.2h0.9l0.6-1c0.2-0.3 0.3-0.5 0.5-0.8h0c0.2 0.3 0.3 0.5 0.5 0.8l0.6 1h0.9l-1.5-2.2L80.1 242.6z"/><path fill="#777777" d="M83.2 245.9c-0.3 0-0.5 0.2-0.5 0.6 0 0.3 0.2 0.6 0.5 0.6h0c0.3 0 0.5-0.2 0.5-0.6C83.7 246.2 83.5 245.9 83.2 245.9z"/><polygon fill="#777777" points="85 241.8 85.1 242.4 86.1 241.9 86.2 241.9 86.2 247 86.9 247 86.9 241.1 86.2 241.1 "/><path fill="#777777" d="M91.8 243.6c-0.4-0.2-0.8-0.3-1.3-0.3 -0.2 0-0.3 0-0.5 0l0.2-1.5h2.2v-0.7h-2.8l-0.4 2.8c0.2 0 0.5-0.1 0.8-0.1 1.2 0 1.7 0.5 1.7 1.3 0 0.8-0.6 1.3-1.4 1.3 -0.5 0-1-0.2-1.3-0.3l-0.2 0.6c0.3 0.2 0.8 0.4 1.5 0.4 1.3 0 2.2-0.9 2.2-2C92.6 244.3 92.3 243.8 91.8 243.6z"/><path fill="#777777" d="M94.1 240.8c-0.1 0.6-0.3 1.6-0.5 2.1l0.5-0.1c0.2-0.4 0.6-1.4 0.8-2.1L94.1 240.8z"/><path fill="#777777" d="M94.9 242.9l0.5-0.1c0.2-0.4 0.6-1.4 0.8-2.1l-0.8 0.1C95.3 241.5 95.1 242.4 94.9 242.9z"/><polygon fill="#777777" points="97.5 247.3 98.1 247.3 100.7 240.8 100 240.8 "/><path fill="#777777" d="M105.2 243.8v0c0.7-0.3 1.1-0.8 1.1-1.4 0-0.7-0.5-1.4-1.7-1.4 -0.6 0-1.2 0.2-1.5 0.4l0.2 0.6c0.3-0.2 0.7-0.4 1.2-0.4 0.7 0 1 0.4 1 0.9 0 0.7-0.7 1-1.3 1h-0.4v0.6h0.4c0.8 0 1.5 0.4 1.5 1.2 0 0.5-0.3 1.1-1.3 1.1 -0.6 0-1.1-0.2-1.3-0.4l-0.2 0.6c0.3 0.2 0.9 0.4 1.5 0.4 1.4 0 2.1-0.8 2.1-1.7C106.5 244.5 106 243.9 105.2 243.8z"/><path fill="#777777" d="M108.1 245.9c-0.3 0-0.5 0.2-0.5 0.6 0 0.3 0.2 0.6 0.5 0.6h0c0.3 0 0.5-0.2 0.5-0.6C108.7 246.2 108.4 245.9 108.1 245.9z"/><path fill="#777777" d="M112.1 243.9v0c0.7-0.3 1-0.9 1-1.4 0-0.7-0.6-1.4-1.7-1.4h0c-1 0-1.8 0.6-1.8 1.6 0 0.5 0.3 1 0.9 1.3v0c-0.7 0.3-1.1 0.8-1.1 1.6 0 0.9 0.7 1.6 2 1.6 1.1 0 2-0.7 2-1.7C113.3 244.7 112.8 244.1 112.1 243.9zM110.3 242.5c0-0.5 0.4-0.9 1-0.9h0c0.7 0 1 0.5 1 1 0 0.5-0.4 0.9-0.9 1.1C110.7 243.4 110.3 243.1 110.3 242.5zM111.3 246.5h0c-0.7 0-1.2-0.5-1.2-1.1 0-0.6 0.4-1 1.1-1.2 0.8 0.2 1.3 0.6 1.3 1.3C112.5 246 112 246.5 111.3 246.5z"/><polygon fill="#777777" points="114.5 241.8 114.7 242.4 115.7 241.9 115.7 241.9 115.7 247 116.5 247 116.5 241.1 115.8 241.1 "/><path fill="#777777" d="M123.6 242.5c-0.4 0-0.7 0.1-1 0.3 -0.2 0.1-0.4 0.3-0.5 0.6h0c-0.2-0.5-0.6-0.9-1.2-0.9 -0.7 0-1.1 0.4-1.4 0.8h0l0-0.7h-0.7c0 0.4 0 0.7 0 1.2v3.2h0.8v-2.6c0-0.1 0-0.3 0.1-0.4 0.1-0.4 0.5-0.8 1-0.8 0.6 0 0.9 0.5 0.9 1.2v2.6h0.8v-2.7c0-0.1 0-0.3 0.1-0.4 0.1-0.4 0.5-0.7 0.9-0.7 0.6 0 0.9 0.5 0.9 1.3v2.5h0.8v-2.6C125 242.9 124.2 242.5 123.6 242.5z"/><path fill="#777777" d="M131.1 242.5c-0.4 0-0.7 0.1-1 0.3 -0.2 0.1-0.4 0.3-0.5 0.6h0c-0.2-0.5-0.6-0.9-1.2-0.9 -0.7 0-1.1 0.4-1.4 0.8h0l0-0.7h-0.7c0 0.4 0 0.7 0 1.2v3.2h0.8v-2.6c0-0.1 0-0.3 0.1-0.4 0.1-0.4 0.5-0.8 1-0.8 0.6 0 0.9 0.5 0.9 1.2v2.6h0.8v-2.7c0-0.1 0-0.3 0.1-0.4 0.1-0.4 0.5-0.7 0.9-0.7 0.6 0 0.9 0.5 0.9 1.3v2.5h0.8v-2.6C132.5 242.9 131.7 242.5 131.1 242.5z"/><path fill="#777777" d="M303.5 180.9c-1.2 0-2 1.1-2 3 0 1.9 0.8 3 1.9 3h0c1.3 0 2-1.1 2-3.1C305.5 182 304.8 180.9 303.5 180.9zM303.5 186.3h0c-0.7 0-1.2-0.9-1.2-2.4 0-1.5 0.5-2.4 1.2-2.4 0.8 0 1.2 0.9 1.2 2.4C304.7 185.4 304.3 186.3 303.5 186.3z"/><path fill="#777777" d="M306.8 185.8c-0.3 0-0.5 0.2-0.5 0.6s0.2 0.6 0.5 0.6h0c0.3 0 0.5-0.2 0.5-0.6C307.3 186 307.1 185.8 306.8 185.8z"/><polygon fill="#777777" points="308.6 181.7 308.7 182.3 309.7 181.7 309.7 181.7 309.7 186.8 310.5 186.8 310.5 181 309.8 181 "/><path fill="#777777" d="M313.1 180.7c-0.1 0.6-0.3 1.6-0.5 2.1l0.5-0.1c0.2-0.4 0.6-1.4 0.8-2.1L313.1 180.7z"/><path fill="#777777" d="M313.9 182.8l0.5-0.1c0.2-0.4 0.6-1.4 0.8-2.1l-0.8 0.1C314.3 181.3 314.1 182.3 313.9 182.8z"/><polygon fill="#777777" points="316.5 187.2 317.1 187.2 319.6 180.7 319 180.7 "/><path fill="#777777" d="M323 186.1l0.5-0.4c1.2-1.2 2-2.1 2-3.1 0-0.8-0.5-1.7-1.8-1.7 -0.7 0-1.3 0.3-1.6 0.6l0.3 0.6c0.3-0.2 0.7-0.5 1.2-0.5 0.9 0 1.1 0.5 1.1 1.1 0 0.9-0.7 1.6-2.2 3.1l-0.6 0.6v0.5h3.7v-0.7h-2.6v0H323z"/><path fill="#777777" d="M327.1 185.8c-0.3 0-0.5 0.2-0.5 0.6s0.2 0.6 0.5 0.6h0c0.3 0 0.5-0.2 0.5-0.6C327.6 186 327.4 185.8 327.1 185.8z"/><path fill="#777777" d="M331.1 183.4c-0.4-0.2-0.8-0.3-1.3-0.3 -0.2 0-0.3 0-0.5 0l0.2-1.5h2.2v-0.7h-2.8l-0.4 2.8c0.2 0 0.5-0.1 0.8-0.1 1.2 0 1.7 0.5 1.7 1.3 0 0.8-0.6 1.3-1.4 1.3 -0.5 0-1-0.2-1.3-0.3l-0.2 0.6c0.3 0.2 0.8 0.4 1.5 0.4 1.3 0 2.2-0.9 2.2-2C332 184.2 331.6 183.7 331.1 183.4z"/><path fill="#777777" d="M336.2 181h-0.9l-2.6 3.7v0.5h2.7v1.6h0.7v-1.6h0.8v-0.6h-0.8V181L336.2 181zM335.4 182.7v1.9h-1.9v0l1.4-2c0.2-0.3 0.3-0.5 0.5-0.9h0C335.4 182.1 335.4 182.4 335.4 182.7z"/><path fill="#777777" d="M342.6 182.4c-0.4 0-0.7 0.1-0.9 0.3 -0.2 0.1-0.4 0.3-0.5 0.6h0c-0.2-0.5-0.6-0.9-1.2-0.9 -0.7 0-1.1 0.4-1.4 0.8h0l0-0.7h-0.7c0 0.4 0 0.7 0 1.2v3.2h0.8v-2.6c0-0.1 0-0.3 0.1-0.4 0.1-0.4 0.5-0.8 1-0.8 0.6 0 0.9 0.5 0.9 1.2v2.6h0.8v-2.7c0-0.1 0-0.3 0.1-0.4 0.1-0.4 0.5-0.7 0.9-0.7 0.6 0 0.9 0.5 0.9 1.3v2.5h0.8v-2.6C344 182.8 343.2 182.4 342.6 182.4z"/><path fill="#777777" d="M350.1 182.4c-0.4 0-0.7 0.1-0.9 0.3 -0.2 0.1-0.4 0.3-0.5 0.6h0c-0.2-0.5-0.6-0.9-1.2-0.9 -0.7 0-1.1 0.4-1.4 0.8h0l0-0.7h-0.7c0 0.4 0 0.7 0 1.2v3.2h0.8v-2.6c0-0.1 0-0.3 0.1-0.4 0.1-0.4 0.5-0.8 1-0.8 0.6 0 0.9 0.5 0.9 1.2v2.6h0.8v-2.7c0-0.1 0-0.3 0.1-0.4 0.1-0.4 0.5-0.7 0.9-0.7 0.6 0 0.9 0.5 0.9 1.3v2.5h0.8v-2.6C351.5 182.8 350.7 182.4 350.1 182.4z"/><path fill="#777777" d="M281.8 225.7h-0.9l-2.6 3.7v0.5h2.7v1.6h0.7v-1.6h0.8v-0.6h-0.8V225.7L281.8 225.7zM281.1 227.4v1.9h-1.9v0l1.4-2c0.2-0.3 0.3-0.5 0.5-0.9h0C281.1 226.8 281.1 227.1 281.1 227.4z"/><path fill="#777777" d="M286.9 227.2h-0.9l-0.6 0.9c-0.2 0.2-0.3 0.5-0.4 0.7h0c-0.1-0.3-0.3-0.5-0.4-0.7l-0.6-0.9h-0.9l1.5 2.1 -1.5 2.2h0.9l0.6-1c0.2-0.3 0.3-0.5 0.5-0.8h0c0.2 0.3 0.3 0.5 0.5 0.8l0.6 1h0.9l-1.5-2.2L286.9 227.2z"/><path fill="#777777" d="M292.2 228.7v0c0.6-0.2 1.1-0.7 1.1-1.5 0-0.5-0.2-0.9-0.5-1.1 -0.4-0.3-0.9-0.5-1.8-0.5 -0.5 0-1.1 0.1-1.5 0.1v6h0.8v-2.6h0.7c0.7 0 1 0.3 1.2 1.2 0.2 0.8 0.3 1.3 0.4 1.4h0.8c-0.1-0.2-0.3-0.8-0.5-1.7C292.9 229.3 292.6 228.8 292.2 228.7zM291.2 228.3h-0.8v-2.2c0.1 0 0.4-0.1 0.8-0.1 0.8 0 1.4 0.3 1.4 1.1C292.5 227.9 292 228.3 291.2 228.3z"/><path fill="#777777" d="M296.1 225.6c-1.2 0-2 1.1-2 3 0 1.9 0.8 3 1.9 3h0c1.3 0 2-1.1 2-3.1C298 226.7 297.3 225.6 296.1 225.6zM296 231h0c-0.7 0-1.2-0.9-1.2-2.4 0-1.5 0.5-2.4 1.2-2.4 0.8 0 1.2 0.9 1.2 2.4C297.2 230.1 296.8 231 296 231z"/><path fill="#777777" d="M299.3 230.5c-0.3 0-0.5 0.2-0.5 0.6 0 0.3 0.2 0.6 0.5 0.6h0c0.3 0 0.5-0.2 0.5-0.6C299.9 230.8 299.7 230.5 299.3 230.5z"/><polygon fill="#777777" points="301.1 226.4 301.3 227 302.3 226.5 302.3 226.5 302.3 231.6 303.1 231.6 303.1 225.7 302.4 225.7 "/><path fill="#777777" d="M306.3 230.9l0.5-0.4c1.2-1.2 2-2.1 2-3.1 0-0.8-0.5-1.7-1.8-1.7 -0.7 0-1.3 0.3-1.6 0.6l0.3 0.6c0.3-0.2 0.7-0.5 1.2-0.5 0.9 0 1.1 0.5 1.1 1.1 0 0.9-0.7 1.6-2.2 3l-0.6 0.6v0.5h3.7v-0.7h-2.6L306.3 230.9 306.3 230.9z"/><path fill="#777777" d="M312.6 228.2c-0.4-0.2-0.8-0.3-1.3-0.3 -0.2 0-0.3 0-0.5 0l0.2-1.5h2.2v-0.7h-2.8l-0.4 2.8c0.2 0 0.5-0.1 0.8-0.1 1.2 0 1.7 0.5 1.7 1.3 0 0.8-0.6 1.3-1.4 1.3 -0.5 0-1-0.2-1.3-0.3l-0.2 0.6c0.3 0.2 0.8 0.4 1.5 0.4 1.3 0 2.2-0.9 2.2-2C313.4 228.9 313 228.4 312.6 228.2z"/><path fill="#777777" d="M314.8 225.4c-0.1 0.6-0.3 1.6-0.5 2.1l0.5-0.1c0.2-0.4 0.6-1.4 0.8-2.1L314.8 225.4z"/><path fill="#777777" d="M315.6 227.5l0.5-0.1c0.2-0.4 0.6-1.4 0.8-2.1l-0.8 0.1C316.1 226.1 315.8 227 315.6 227.5z"/><polygon fill="#777777" points="318.3 231.9 318.9 231.9 321.4 225.4 320.8 225.4 "/><path fill="#777777" d="M326 228.4v0c0.7-0.3 1.1-0.8 1.1-1.4 0-0.7-0.5-1.4-1.7-1.4 -0.6 0-1.2 0.2-1.5 0.4l0.2 0.6c0.3-0.2 0.7-0.4 1.2-0.4 0.7 0 1 0.4 1 0.9 0 0.7-0.7 1-1.3 1h-0.4v0.6h0.4c0.8 0 1.5 0.4 1.5 1.2 0 0.5-0.3 1.1-1.3 1.1 -0.6 0-1.1-0.2-1.3-0.4l-0.2 0.6c0.3 0.2 0.9 0.4 1.5 0.4 1.4 0 2.1-0.8 2.1-1.7C327.3 229.1 326.7 228.5 326 228.4z"/><path fill="#777777" d="M328.9 230.5c-0.3 0-0.5 0.2-0.5 0.6 0 0.3 0.2 0.6 0.5 0.6h0c0.3 0 0.5-0.2 0.5-0.6C329.4 230.8 329.2 230.5 328.9 230.5z"/><path fill="#777777" d="M331.3 230.9l0.5-0.4c1.2-1.2 2-2.1 2-3.1 0-0.8-0.5-1.7-1.8-1.7 -0.7 0-1.3 0.3-1.6 0.6l0.3 0.6c0.3-0.2 0.7-0.5 1.2-0.5 0.9 0 1.1 0.5 1.1 1.1 0 0.9-0.7 1.6-2.2 3l-0.6 0.6v0.5h3.7v-0.7h-2.6V230.9L331.3 230.9z"/><path fill="#777777" d="M339.8 227.1c-0.4 0-0.7 0.1-0.9 0.3 -0.2 0.1-0.4 0.3-0.5 0.6h0c-0.2-0.5-0.6-0.9-1.2-0.9 -0.7 0-1.1 0.4-1.4 0.8h0l0-0.7h-0.7c0 0.4 0 0.7 0 1.2v3.2h0.8v-2.6c0-0.1 0-0.3 0.1-0.4 0.1-0.4 0.5-0.8 1-0.8 0.6 0 0.9 0.5 0.9 1.2v2.6h0.8v-2.7c0-0.1 0-0.3 0.1-0.4 0.1-0.4 0.5-0.7 0.9-0.7 0.6 0 0.9 0.5 0.9 1.3v2.5h0.8v-2.6C341.2 227.5 340.3 227.1 339.8 227.1z"/><path fill="#777777" d="M347.2 227.1c-0.4 0-0.7 0.1-1 0.3 -0.2 0.1-0.4 0.3-0.5 0.6h0c-0.2-0.5-0.6-0.9-1.2-0.9 -0.7 0-1.1 0.4-1.4 0.8h0l0-0.7h-0.7c0 0.4 0 0.7 0 1.2v3.2h0.8v-2.6c0-0.1 0-0.3 0.1-0.4 0.1-0.4 0.5-0.8 1-0.8 0.6 0 0.9 0.5 0.9 1.2v2.6h0.8v-2.7c0-0.1 0-0.3 0.1-0.4 0.1-0.4 0.5-0.7 0.9-0.7 0.6 0 0.9 0.5 0.9 1.3v2.5h0.8v-2.6C348.7 227.5 347.8 227.1 347.2 227.1z"/><path fill="#777777" d="M199.1 47.6c0-0.8-0.6-1.4-1.3-1.5v0c0.7-0.3 1.1-0.8 1.1-1.4 0-0.7-0.5-1.4-1.7-1.4 -0.6 0-1.2 0.2-1.5 0.4l0.2 0.6c0.3-0.2 0.7-0.4 1.2-0.4 0.7 0 1 0.4 1 0.9 0 0.7-0.7 1-1.3 1h-0.4v0.6h0.4c0.8 0 1.5 0.4 1.5 1.2 0 0.5-0.3 1.1-1.3 1.1 -0.6 0-1.1-0.2-1.3-0.4l-0.2 0.6c0.3 0.2 0.9 0.4 1.5 0.4C198.3 49.4 199.1 48.6 199.1 47.6z"/><path fill="#777777" d="M200.6 49.4h0c0.3 0 0.5-0.2 0.5-0.6 0-0.3-0.2-0.6-0.5-0.6s-0.5 0.2-0.5 0.6C200.1 49.2 200.3 49.4 200.6 49.4z"/><path fill="#777777" d="M203.8 49.4h0c1.3 0 2-1.1 2-3.1 0-1.9-0.7-3-1.9-3 -1.2 0-2 1.1-2 3C201.8 48.3 202.6 49.4 203.8 49.4zM203.8 44c0.8 0 1.2 0.9 1.2 2.4 0 1.5-0.4 2.4-1.2 2.4h0c-0.7 0-1.2-0.9-1.2-2.4C202.6 44.9 203.1 44 203.8 44z"/><path fill="#777777" d="M208.2 45.2c0.2-0.4 0.6-1.4 0.8-2.1l-0.8 0.1c-0.1 0.6-0.3 1.6-0.5 2.1L208.2 45.2z"/><path fill="#777777" d="M207.7 43.1l-0.8 0.1c-0.1 0.6-0.3 1.6-0.5 2.1l0.5-0.1C207.2 44.8 207.5 43.8 207.7 43.1z"/><polygon fill="#777777" points="213.5 43.1 212.9 43.1 210.4 49.7 211 49.7 "/><polygon fill="#777777" points="218.8 44.1 216.2 49.3 217 49.3 219.6 44 219.6 43.5 215.9 43.5 215.9 44.1 218.8 44.1 "/><path fill="#777777" d="M222.3 49.4c1.2 0 1.9-1 1.9-2.1 0-1.1-0.7-1.9-1.8-1.9 -0.6 0-1.1 0.3-1.4 0.7h0c0.1-1 0.8-1.9 2-2.1 0.2 0 0.4-0.1 0.6 0v-0.6c-0.1 0-0.3 0-0.6 0 -0.7 0.1-1.4 0.4-1.9 0.9 -0.6 0.6-1 1.5-1 2.6C220.3 48.4 221.1 49.4 222.3 49.4zM221.2 46.8c0.2-0.4 0.7-0.7 1.1-0.7 0.7 0 1.2 0.5 1.2 1.3s-0.5 1.4-1.1 1.4h0c-0.8 0-1.3-0.7-1.3-1.7C221.1 47 221.1 46.9 221.2 46.8z"/><path fill="#777777" d="M225.6 49.4h0c0.3 0 0.5-0.2 0.5-0.6 0-0.3-0.2-0.6-0.5-0.6 -0.3 0-0.5 0.2-0.5 0.6C225.1 49.2 225.3 49.4 225.6 49.4z"/><path fill="#777777" d="M230.6 48.6h-2.6v0l0.5-0.4c1.2-1.2 2-2.1 2-3.1 0-0.8-0.5-1.7-1.8-1.7 -0.7 0-1.3 0.3-1.6 0.6l0.3 0.6c0.3-0.2 0.7-0.5 1.2-0.5 0.9 0 1.1 0.5 1.1 1.1 0 0.9-0.7 1.6-2.2 3.1l-0.6 0.6v0.5h3.7V48.6L230.6 48.6z"/><path fill="#777777" d="M231.7 49.3h0.8v-2.6c0-0.1 0-0.3 0.1-0.4 0.1-0.4 0.5-0.8 1-0.8 0.6 0 0.9 0.5 0.9 1.2v2.6h0.8v-2.7c0-0.1 0-0.3 0.1-0.4 0.1-0.4 0.5-0.7 0.9-0.7 0.6 0 0.9 0.5 0.9 1.3v2.5h0.8v-2.6c0-1.5-0.9-1.9-1.4-1.9 -0.4 0-0.7 0.1-0.9 0.3 -0.2 0.1-0.4 0.3-0.5 0.6h0c-0.2-0.5-0.6-0.9-1.2-0.9 -0.7 0-1.1 0.4-1.4 0.8h0l0-0.7h-0.7c0 0.4 0 0.7 0 1.2v3.2H231.7z"/><path fill="#777777" d="M239.2 49.3h0.8v-2.6c0-0.1 0-0.3 0.1-0.4 0.1-0.4 0.5-0.8 1-0.8 0.6 0 0.9 0.5 0.9 1.2v2.6h0.8v-2.7c0-0.1 0-0.3 0.1-0.4 0.1-0.4 0.5-0.7 0.9-0.7 0.6 0 0.9 0.5 0.9 1.3v2.5h0.8v-2.6c0-1.5-0.9-1.9-1.4-1.9 -0.4 0-0.7 0.1-1 0.3 -0.2 0.1-0.4 0.3-0.5 0.6h0c-0.2-0.5-0.6-0.9-1.2-0.9 -0.7 0-1.1 0.4-1.4 0.8h0l0-0.7h-0.7c0 0.4 0 0.7 0 1.2v3.2H239.2z"/><path fill="#777777" d="M400.6 180.9c-1.2 0-2 1.1-2 3 0 1.9 0.8 3 1.9 3h0c1.3 0 2-1.1 2-3.1C402.5 182 401.8 180.9 400.6 180.9zM400.5 186.3h0c-0.7 0-1.2-0.9-1.2-2.4 0-1.5 0.5-2.4 1.2-2.4 0.8 0 1.2 0.9 1.2 2.4C401.7 185.4 401.3 186.3 400.5 186.3z"/><path fill="#777777" d="M403.8 185.8c-0.3 0-0.5 0.2-0.5 0.6s0.2 0.6 0.5 0.6h0c0.3 0 0.5-0.2 0.5-0.6C404.3 186 404.1 185.8 403.8 185.8z"/><path fill="#777777" d="M406.2 186.1l0.5-0.4c1.2-1.2 2-2.1 2-3.1 0-0.8-0.5-1.7-1.8-1.7 -0.7 0-1.3 0.3-1.6 0.6l0.3 0.6c0.3-0.2 0.7-0.5 1.2-0.5 0.9 0 1.1 0.5 1.1 1.1 0 0.9-0.7 1.6-2.2 3.1l-0.6 0.6v0.5h3.7v-0.7h-2.6L406.2 186.1 406.2 186.1z"/><path fill="#777777" d="M410.9 182.8l0.5-0.1c0.2-0.4 0.6-1.4 0.8-2.1l-0.8 0.1C411.3 181.3 411.1 182.3 410.9 182.8z"/><path fill="#777777" d="M410.1 180.7c-0.1 0.6-0.3 1.6-0.5 2.1l0.5-0.1c0.2-0.4 0.6-1.4 0.8-2.1L410.1 180.7z"/><polygon fill="#777777" points="413.6 187.2 414.2 187.2 416.7 180.7 416.1 180.7 "/><path fill="#777777" d="M421.7 183.4c-0.4-0.2-0.8-0.3-1.3-0.3 -0.2 0-0.3 0-0.5 0l0.2-1.5h2.2v-0.7h-2.8l-0.4 2.8c0.2 0 0.5-0.1 0.8-0.1 1.2 0 1.7 0.5 1.7 1.3 0 0.8-0.6 1.3-1.4 1.3 -0.5 0-1-0.2-1.3-0.3l-0.2 0.6c0.3 0.2 0.8 0.4 1.5 0.4 1.3 0 2.2-0.9 2.2-2C422.6 184.2 422.2 183.7 421.7 183.4z"/><path fill="#777777" d="M424.2 185.8c-0.3 0-0.5 0.2-0.5 0.6s0.2 0.6 0.5 0.6h0c0.3 0 0.5-0.2 0.5-0.6C424.7 186 424.5 185.8 424.2 185.8z"/><path fill="#777777" d="M427.4 180.9c-1.2 0-2 1.1-2 3 0 1.9 0.8 3 1.9 3h0c1.3 0 2-1.1 2-3.1C429.3 182 428.6 180.9 427.4 180.9zM427.3 186.3h0c-0.7 0-1.2-0.9-1.2-2.4 0-1.5 0.5-2.4 1.2-2.4 0.8 0 1.2 0.9 1.2 2.4C428.5 185.4 428.1 186.3 427.3 186.3z"/><path fill="#777777" d="M432.7 183.7v0c0.7-0.3 1-0.9 1-1.4 0-0.7-0.6-1.4-1.7-1.4h0c-1 0-1.8 0.6-1.8 1.6 0 0.5 0.3 1 0.9 1.3v0c-0.7 0.3-1.1 0.8-1.1 1.6 0 0.9 0.7 1.6 2 1.6 1.1 0 2-0.7 2-1.7C433.9 184.5 433.4 184 432.7 183.7zM430.9 182.4c0-0.5 0.4-0.9 1-0.9h0c0.7 0 1 0.5 1 1 0 0.5-0.4 0.9-0.9 1.1C431.4 183.3 430.9 183 430.9 182.4zM431.9 186.3h0c-0.7 0-1.2-0.5-1.2-1.1 0-0.6 0.4-1 1.1-1.2 0.8 0.2 1.3 0.6 1.3 1.3C433.1 185.9 432.6 186.3 431.9 186.3z"/><path fill="#777777" d="M439.6 182.4c-0.4 0-0.7 0.1-0.9 0.3 -0.2 0.1-0.4 0.3-0.5 0.6h0c-0.2-0.5-0.6-0.9-1.2-0.9 -0.7 0-1.1 0.4-1.4 0.8h0l0-0.7h-0.7c0 0.4 0 0.7 0 1.2v3.2h0.8v-2.6c0-0.1 0-0.3 0.1-0.4 0.1-0.4 0.5-0.8 1-0.8 0.6 0 0.9 0.5 0.9 1.2v2.6h0.8v-2.7c0-0.1 0-0.3 0.1-0.4 0.1-0.4 0.5-0.7 0.9-0.7 0.6 0 0.9 0.5 0.9 1.3v2.5h0.8v-2.6C441.1 182.8 440.2 182.4 439.6 182.4z"/><path fill="#777777" d="M447.1 182.4c-0.4 0-0.7 0.1-0.9 0.3 -0.2 0.1-0.4 0.3-0.5 0.6h0c-0.2-0.5-0.6-0.9-1.2-0.9 -0.7 0-1.1 0.4-1.4 0.8h0l0-0.7h-0.7c0 0.4 0 0.7 0 1.2v3.2h0.8v-2.6c0-0.1 0-0.3 0.1-0.4 0.1-0.4 0.5-0.8 1-0.8 0.6 0 0.9 0.5 0.9 1.2v2.6h0.8v-2.7c0-0.1 0-0.3 0.1-0.4 0.1-0.4 0.5-0.7 0.9-0.7 0.6 0 0.9 0.5 0.9 1.3v2.5h0.8v-2.6C448.6 182.8 447.7 182.4 447.1 182.4z"/><path fill="#777777" d="M404.7 58.8c1.9 0 3-0.8 3-1.9v0c0-1.3-1.1-2-3.1-2 -1.9 0-3 0.7-3 1.9C401.6 58 402.7 58.8 404.7 58.8zM404.6 55.6c1.5 0 2.4 0.4 2.4 1.2v0c0 0.7-0.9 1.2-2.4 1.2 -1.5 0-2.4-0.5-2.4-1.2C402.2 56 403.2 55.6 404.6 55.6z"/><path fill="#777777" d="M407.7 53.5c0-0.3-0.2-0.5-0.6-0.5 -0.3 0-0.6 0.2-0.6 0.5s0.2 0.5 0.6 0.5c0.3 0 0.6-0.2 0.6-0.5V53.5z"/><path fill="#777777" d="M405.4 48.3v0.8h-3.6v0.9l3.7 2.6h0.5v-2.7h1.6v-0.7h-1.6v-0.8H405.4zM405.4 51.7h0l-2-1.4c-0.3-0.2-0.5-0.3-0.9-0.5V49.8c0.3 0 0.6 0 0.9 0h1.9V51.7z"/><path fill="#777777" d="M403.5 46.4l-0.1-0.5c-0.4-0.2-1.4-0.6-2.1-0.8l0.1 0.8C402.1 46 403 46.3 403.5 46.4z"/><path fill="#777777" d="M403.5 47.8l-0.1-0.5c-0.4-0.2-1.4-0.6-2.1-0.8l0.1 0.8C402.1 47.3 403 47.6 403.5 47.8z"/><polygon fill="#777777" points="407.9 43.2 401.4 40.7 401.4 41.3 407.9 43.8 "/><polygon fill="#777777" points="407.6 36.7 407.6 35.9 401.7 35.9 401.7 36.6 402.4 37.9 403 37.7 402.5 36.7 402.5 36.7 "/><path fill="#777777" d="M404.7 33.9c1.9 0 3-0.8 3-1.9v0c0-1.3-1.1-2-3.1-2 -1.9 0-3 0.7-3 1.9C401.6 33 402.7 33.9 404.7 33.9zM404.6 30.7c1.5 0 2.4 0.4 2.4 1.2v0c0 0.7-0.9 1.2-2.4 1.2 -1.5 0-2.4-0.5-2.4-1.2C402.2 31.1 403.2 30.7 404.6 30.7z"/><path fill="#777777" d="M407.1 29.1c0.3 0 0.6-0.2 0.6-0.5V28.6c0-0.3-0.2-0.5-0.6-0.5 -0.3 0-0.6 0.2-0.6 0.5S406.8 29.1 407.1 29.1z"/><polygon fill="#777777" points="407.6 25.6 407.6 24.9 401.7 24.9 401.7 25.5 402.4 26.8 403 26.6 402.5 25.6 402.5 25.6 "/><path fill="#777777" d="M402.6 21.8c0.6 0.6 1.5 1 2.6 1 1.5 0 2.5-0.8 2.5-2.1 0-1.2-1-1.9-2.1-1.9 -1.1 0-1.9 0.7-1.9 1.8 0 0.6 0.3 1.1 0.7 1.4v0c-1-0.1-1.9-0.8-2.1-2 0-0.2-0.1-0.4 0-0.6h-0.6c0 0.1 0 0.3 0 0.6C401.8 20.7 402.1 21.4 402.6 21.8zM404.3 20.8c0-0.7 0.5-1.2 1.3-1.2s1.4 0.5 1.4 1.1v0c0 0.8-0.7 1.3-1.7 1.3 -0.1 0-0.3 0-0.3-0.1C404.6 21.7 404.3 21.3 404.3 20.8z"/><path fill="#777777" d="M403.1 15.8c0 0.7 0.4 1.1 0.8 1.4v0l-0.7 0v0.7c0.4 0 0.7 0 1.2 0h3.2v-0.8h-2.6c-0.1 0-0.3 0-0.4-0.1 -0.4-0.1-0.8-0.5-0.8-1 0-0.6 0.5-0.9 1.2-0.9h2.6v-0.8h-2.7c-0.1 0-0.3 0-0.4-0.1 -0.4-0.1-0.7-0.5-0.7-0.9 0-0.6 0.5-0.9 1.3-0.9h2.5v-0.8h-2.6c-1.5 0-1.9 0.9-1.9 1.4 0 0.4 0.1 0.7 0.3 1 0.1 0.2 0.3 0.4 0.6 0.5v0C403.5 14.8 403.1 15.2 403.1 15.8z"/><path fill="#777777" d="M403.1 8.3c0 0.7 0.4 1.1 0.8 1.4v0l-0.7 0v0.7c0.4 0 0.7 0 1.2 0h3.2V9.6h-2.6c-0.1 0-0.3 0-0.4-0.1 -0.4-0.1-0.8-0.5-0.8-1 0-0.6 0.5-0.9 1.2-0.9h2.6V6.9h-2.7c-0.1 0-0.3 0-0.4-0.1 -0.4-0.1-0.7-0.5-0.7-0.9 0-0.6 0.5-0.9 1.3-0.9h2.5V4.2h-2.6c-1.5 0-1.9 0.9-1.9 1.4 0 0.4 0.1 0.7 0.3 1 0.1 0.2 0.3 0.4 0.6 0.5v0C403.5 7.3 403.1 7.7 403.1 8.3z"/><path fill="#777777" d="M349.7 128.4c1.9 0 3-0.8 3-1.9v0c0-1.3-1.1-2-3.1-2 -1.9 0-3 0.7-3 1.9C346.6 127.6 347.7 128.4 349.7 128.4zM349.6 125.2c1.5 0 2.4 0.4 2.4 1.2v0c0 0.7-0.9 1.2-2.4 1.2 -1.5 0-2.4-0.5-2.4-1.2C347.3 125.6 348.2 125.2 349.6 125.2z"/><path fill="#777777" d="M352.7 123.1c0-0.3-0.2-0.5-0.6-0.5 -0.3 0-0.6 0.2-0.6 0.5s0.2 0.5 0.6 0.5c0.3 0 0.6-0.2 0.6-0.5V123.1z"/><polygon fill="#777777" points="352.6 120.2 352.6 119.4 346.7 119.4 346.7 120.1 347.4 121.3 348 121.2 347.5 120.2 347.5 120.2 "/><path fill="#777777" d="M348.6 116l-0.1-0.5c-0.4-0.2-1.4-0.6-2.1-0.8l0.1 0.8C347.1 115.6 348 115.9 348.6 116z"/><path fill="#777777" d="M348.6 117.4l-0.1-0.5c-0.4-0.2-1.4-0.6-2.1-0.8l0.1 0.8C347.1 116.9 348 117.2 348.6 117.4z"/><polygon fill="#777777" points="352.9 112.8 346.4 110.3 346.4 110.9 352.9 113.4 "/><path fill="#777777" d="M347.8 107.6c-0.2-0.3-0.5-0.7-0.5-1.2 0-0.9 0.5-1.1 1.1-1.1 0.9 0 1.6 0.7 3.1 2.2l0.6 0.6h0.5v-3.7h-0.7v2.6h0l-0.4-0.5c-1.2-1.2-2.1-2-3.1-2 -0.8 0-1.7 0.5-1.7 1.8 0 0.7 0.3 1.3 0.6 1.7L347.8 107.6z"/><path fill="#777777" d="M351.5 102.8c0 0.3 0.2 0.5 0.6 0.5s0.6-0.2 0.6-0.5v0c0-0.3-0.2-0.5-0.6-0.5C351.8 102.3 351.5 102.5 351.5 102.8z"/><path fill="#777777" d="M349.5 100.4c0-1.2 0.5-1.7 1.3-1.7 0.8 0 1.3 0.6 1.3 1.4 0 0.5-0.2 1-0.3 1.3l0.6 0.2c0.2-0.3 0.4-0.8 0.4-1.5 0-1.3-0.9-2.2-2-2.2 -0.7 0-1.2 0.4-1.5 0.8 -0.2 0.4-0.3 0.8-0.3 1.3 0 0.2 0 0.3 0 0.5l-1.5-0.2v-2.2h-0.7v2.8l2.8 0.4C349.5 101 349.5 100.7 349.5 100.4z"/><path fill="#777777" d="M351 97.2v-2.7h1.6v-0.7h-1.6v-0.8h-0.6v0.8h-3.6v0.9l3.7 2.6L351 97.2 351 97.2zM350.4 96.4h0l-2-1.4c-0.3-0.2-0.5-0.3-0.9-0.5v0c0.3 0 0.6 0 0.9 0h1.9V96.4z"/><path fill="#777777" d="M348.1 90c0 0.7 0.4 1.1 0.8 1.4v0l-0.7 0v0.7c0.4 0 0.7 0 1.2 0h3.2v-0.8h-2.6c-0.1 0-0.3 0-0.4-0.1 -0.4-0.1-0.8-0.5-0.8-1 0-0.6 0.5-0.9 1.2-0.9h2.6v-0.8h-2.7c-0.1 0-0.3 0-0.4-0.1 -0.4-0.1-0.7-0.5-0.7-0.9 0-0.6 0.5-0.9 1.3-0.9h2.5v-0.8h-2.6c-1.5 0-1.9 0.9-1.9 1.4 0 0.4 0.1 0.7 0.3 1 0.1 0.2 0.3 0.4 0.6 0.5v0C348.5 89 348.1 89.4 348.1 90z"/><path fill="#777777" d="M348.1 82.5c0 0.7 0.4 1.1 0.8 1.4v0l-0.7 0v0.7c0.4 0 0.7 0 1.2 0h3.2v-0.8h-2.6c-0.1 0-0.3 0-0.4-0.1 -0.4-0.1-0.8-0.5-0.8-1 0-0.6 0.5-0.9 1.2-0.9h2.6v-0.8h-2.7c-0.1 0-0.3 0-0.4-0.1 -0.4-0.1-0.7-0.5-0.7-0.9 0-0.6 0.5-0.9 1.3-0.9h2.5v-0.8h-2.6c-1.5 0-1.9 0.9-1.9 1.4 0 0.4 0.1 0.7 0.3 1 0.1 0.2 0.3 0.4 0.6 0.5v0C348.5 81.5 348.1 81.9 348.1 82.5z"/><path fill="#777777" d="M37.9 146.9l3.7 2.6h0.5v-2.7h1.6v-0.7h-1.6v-0.8h-0.6v0.8h-3.6V146.9zM38.6 146.7c0.3 0 0.6 0 0.9 0h1.9v1.9h0l-2-1.4c-0.3-0.2-0.5-0.3-0.9-0.5V146.7z"/><path fill="#777777" d="M42.7 142.5l1-0.6v-0.9l-2.2 1.5 -2.1-1.5v0.9l0.9 0.6c0.2 0.2 0.5 0.3 0.7 0.4v0c-0.3 0.1-0.5 0.3-0.7 0.4l-0.9 0.6v0.9l2.1-1.5 2.2 1.5v-0.9l-1-0.6c-0.3-0.2-0.5-0.3-0.8-0.5v0C42.2 142.8 42.5 142.7 42.7 142.5z"/><path fill="#777777" d="M43.8 138c0-0.3-0.2-0.5-0.6-0.5 -0.3 0-0.6 0.2-0.6 0.5s0.2 0.5 0.6 0.5c0.3 0 0.6-0.2 0.6-0.5V138z"/><polygon fill="#777777" points="43.7 135 43.7 134.2 37.9 134.2 37.9 134.9 38.6 136.2 39.2 136 38.6 135 38.6 135 "/><path fill="#777777" d="M41.8 128.5c-0.7 0-1.2 0.4-1.5 0.8 -0.2 0.4-0.3 0.8-0.3 1.3 0 0.2 0 0.3 0 0.5l-1.5-0.2v-2.2h-0.7v2.8l2.8 0.4c0-0.2-0.1-0.5-0.1-0.8 0-1.2 0.5-1.7 1.3-1.7 0.8 0 1.3 0.6 1.3 1.4 0 0.5-0.2 1-0.3 1.3l0.6 0.2c0.2-0.3 0.4-0.8 0.4-1.5C43.8 129.4 43 128.5 41.8 128.5z"/><path fill="#777777" d="M37.6 125.7c0.6 0.1 1.6 0.3 2.1 0.5l-0.1-0.5c-0.4-0.2-1.4-0.6-2.1-0.8L37.6 125.7z"/><path fill="#777777" d="M37.6 127.1c0.6 0.1 1.6 0.3 2.1 0.5l-0.1-0.5c-0.4-0.2-1.4-0.6-2.1-0.8L37.6 127.1z"/><polygon fill="#777777" points="37.6 121.1 44.1 123.6 44.1 123 37.6 120.5 "/><path fill="#777777" d="M38.2 118l0.6-0.2c-0.2-0.3-0.4-0.7-0.4-1.2 0-0.7 0.4-1 0.9-1 0.7 0 1 0.7 1 1.3v0.4h0.6v-0.4c0-0.8 0.4-1.5 1.2-1.5 0.5 0 1.1 0.3 1.1 1.3 0 0.6-0.2 1.1-0.4 1.3l0.6 0.2c0.2-0.3 0.4-0.9 0.4-1.5 0-1.4-0.8-2.1-1.7-2.1 -0.8 0-1.4 0.6-1.5 1.3h0c-0.3-0.7-0.8-1.1-1.4-1.1 -0.7 0-1.4 0.5-1.4 1.7C37.8 117.1 38 117.7 38.2 118z"/><path fill="#777777" d="M42.7 113c0 0.3 0.2 0.5 0.6 0.5 0.3 0 0.6-0.2 0.6-0.5v0c0-0.3-0.2-0.5-0.6-0.5C42.9 112.5 42.7 112.7 42.7 113z"/><path fill="#777777" d="M37.8 109.8c0 1 0.6 1.8 1.6 1.8 0.5 0 1-0.3 1.3-0.9h0c0.3 0.7 0.8 1.1 1.6 1.1 0.9 0 1.6-0.7 1.6-2 0-1.1-0.7-2-1.7-2 -0.7 0-1.2 0.4-1.5 1.2h0c-0.3-0.7-0.9-1-1.4-1 -0.7 0-1.4 0.6-1.4 1.7L37.8 109.8 37.8 109.8zM42.2 108.7c0.6 0 1 0.5 1 1.2v0c0 0.7-0.5 1.2-1.1 1.2 -0.6 0-1-0.4-1.2-1C41.1 109.2 41.5 108.7 42.2 108.7zM38.3 109.8c0-0.7 0.5-1 1-1 0.5 0 0.9 0.4 1.1 0.9 -0.2 0.7-0.5 1.1-1.1 1.1 -0.5 0-0.9-0.4-0.9-1V109.8z"/><polygon fill="#777777" points="37.9 105.3 38.6 106.6 39.2 106.5 38.6 105.5 38.6 105.4 43.7 105.4 43.7 104.7 37.9 104.7 "/><path fill="#777777" d="M39.3 100.2c0 0.7 0.4 1.1 0.8 1.4v0l-0.7 0v0.7c0.4 0 0.7 0 1.2 0h3.2v-0.8h-2.6c-0.1 0-0.3 0-0.4-0.1 -0.4-0.1-0.8-0.5-0.8-1 0-0.6 0.5-0.9 1.2-0.9h2.6v-0.8h-2.7c-0.1 0-0.3 0-0.4-0.1 -0.4-0.1-0.7-0.5-0.7-0.9 0-0.6 0.5-0.9 1.3-0.9h2.5v-0.8h-2.6c-1.5 0-1.9 0.9-1.9 1.4 0 0.4 0.1 0.7 0.3 1 0.1 0.2 0.3 0.4 0.6 0.5v0C39.6 99.2 39.3 99.6 39.3 100.2z"/><path fill="#777777" d="M39.3 92.7c0 0.7 0.4 1.1 0.8 1.4v0l-0.7 0v0.7c0.4 0 0.7 0 1.2 0h3.2v-0.8h-2.6c-0.1 0-0.3 0-0.4-0.1 -0.4-0.1-0.8-0.5-0.8-1 0-0.6 0.5-0.9 1.2-0.9h2.6v-0.8h-2.7c-0.1 0-0.3 0-0.4-0.1 -0.4-0.1-0.7-0.5-0.7-0.9 0-0.6 0.5-0.9 1.3-0.9h2.5v-0.8h-2.6c-1.5 0-1.9 0.9-1.9 1.4 0 0.4 0.1 0.7 0.3 1 0.1 0.2 0.3 0.4 0.6 0.5v0C39.6 91.7 39.3 92.1 39.3 92.7z"/><polygon fill="#777777" points="24 172.7 24 171.9 18.2 171.9 18.2 172.6 18.9 173.8 19.5 173.7 19 172.7 19 172.7 "/><path fill="#777777" d="M24.1 169.2c0-0.3-0.2-0.5-0.6-0.5 -0.3 0-0.6 0.2-0.6 0.5 0 0.3 0.2 0.5 0.6 0.5s0.6-0.2 0.6-0.5V169.2z"/><path fill="#777777" d="M21.8 163.9v0.8h-3.6v0.9l3.7 2.6h0.5v-2.7h1.6v-0.7h-1.6v-0.8L21.8 163.9 21.8 163.9zM21.8 167.4h0l-2-1.4c-0.3-0.2-0.5-0.3-0.9-0.5v0c0.3 0 0.6 0 0.9 0h1.9V167.4z"/><path fill="#777777" d="M17.9 162.9c0.6 0.1 1.6 0.3 2.1 0.5l-0.1-0.5c-0.4-0.2-1.4-0.6-2.1-0.8L17.9 162.9z"/><path fill="#777777" d="M17.9 161.5c0.6 0.1 1.6 0.3 2.1 0.5l-0.1-0.5c-0.4-0.2-1.4-0.6-2.1-0.8L17.9 161.5z"/><polygon fill="#777777" points="17.9 156.9 24.4 159.4 24.4 158.8 17.9 156.3 "/><path fill="#777777" d="M18.6 153.8l0.6-0.2c-0.2-0.3-0.4-0.7-0.4-1.2 0-0.7 0.4-1 0.9-1 0.7 0 1 0.7 1 1.3v0.4h0.6v-0.4c0-0.8 0.4-1.5 1.2-1.5 0.5 0 1.1 0.3 1.1 1.3 0 0.6-0.2 1.1-0.4 1.3l0.6 0.2c0.2-0.3 0.4-0.9 0.4-1.5 0-1.4-0.8-2.1-1.7-2.1 -0.8 0-1.4 0.6-1.5 1.3h0c-0.3-0.7-0.8-1.1-1.4-1.1 -0.7 0-1.4 0.5-1.4 1.7C18.1 152.9 18.3 153.5 18.6 153.8z"/><path fill="#777777" d="M23.8 149.5c0.2-0.3 0.4-0.8 0.4-1.5 0-1.3-0.9-2.2-2-2.2 -0.7 0-1.2 0.4-1.5 0.8 -0.2 0.4-0.3 0.8-0.3 1.3 0 0.2 0 0.3 0 0.5l-1.5-0.2v-2.2h-0.7v2.8l2.8 0.4c0-0.2-0.1-0.5-0.1-0.8 0-1.2 0.5-1.7 1.3-1.7 0.8 0 1.3 0.6 1.3 1.4 0 0.5-0.2 1-0.3 1.3L23.8 149.5z"/><path fill="#777777" d="M24.1 144.2c0-0.3-0.2-0.5-0.6-0.5 -0.3 0-0.6 0.2-0.6 0.5 0 0.3 0.2 0.5 0.6 0.5s0.6-0.2 0.6-0.5V144.2z"/><path fill="#777777" d="M18.8 140.2c0-0.2-0.1-0.4 0-0.6h-0.6c0 0.1 0 0.3 0 0.6 0.1 0.7 0.4 1.4 0.9 1.9 0.6 0.6 1.5 1 2.6 1 1.5 0 2.5-0.8 2.5-2.1 0-1.2-1-1.9-2.1-1.9 -1.1 0-1.9 0.7-1.9 1.8 0 0.6 0.3 1.1 0.7 1.4v0C19.9 142.1 19 141.5 18.8 140.2zM20.8 141.1c0-0.7 0.5-1.2 1.3-1.2s1.4 0.5 1.4 1.1v0c0 0.8-0.7 1.3-1.7 1.3 -0.1 0-0.3 0-0.3-0.1C21.1 142 20.8 141.5 20.8 141.1z"/><path fill="#777777" d="M19.6 136c0 0.7 0.4 1.1 0.8 1.4v0l-0.7 0v0.7c0.4 0 0.7 0 1.2 0h3.2v-0.8h-2.6c-0.1 0-0.3 0-0.4-0.1 -0.4-0.1-0.8-0.5-0.8-1 0-0.6 0.5-0.9 1.2-0.9h2.6v-0.8h-2.7c-0.1 0-0.3 0-0.4-0.1 -0.4-0.1-0.7-0.5-0.7-0.9 0-0.6 0.5-0.9 1.3-0.9h2.5v-0.8H21.5c-1.5 0-1.9 0.9-1.9 1.4 0 0.4 0.1 0.7 0.3 1 0.1 0.2 0.3 0.4 0.6 0.5v0C20 135 19.6 135.4 19.6 136z"/><path fill="#777777" d="M19.6 128.5c0 0.7 0.4 1.1 0.8 1.4v0l-0.7 0v0.7c0.4 0 0.7 0 1.2 0h3.2v-0.8h-2.6c-0.1 0-0.3 0-0.4-0.1 -0.4-0.1-0.8-0.5-0.8-1 0-0.6 0.5-0.9 1.2-0.9h2.6v-0.8h-2.7c-0.1 0-0.3 0-0.4-0.1 -0.4-0.1-0.7-0.5-0.7-0.9 0-0.6 0.5-0.9 1.3-0.9h2.5v-0.8H21.5c-1.5 0-1.9 0.9-1.9 1.4 0 0.4 0.1 0.7 0.3 1 0.1 0.2 0.3 0.4 0.6 0.5v0C20 127.5 19.6 128 19.6 128.5z"/></svg>