<svg xmlns="http://www.w3.org/2000/svg" version="1.1" x="0" y="0" width="450" height="202.5" viewBox="0 0 450 202.5" enable-background="new 0 0 450 202.5" xml:space="preserve"><rect x="369.2" y="23" fill="#262626" width="6.3" height="2"/><rect x="355.2" y="23" fill="#262626" width="6.3" height="2"/><rect x="341.3" y="23" fill="#262626" width="6.3" height="2"/><rect x="327.3" y="23" fill="#262626" width="6.3" height="2"/><rect x="312.3" y="23" fill="#262626" width="7.3" height="2"/><rect x="298.2" y="23" fill="#262626" width="6.5" height="2"/><rect x="283.8" y="23" fill="#262626" width="7.3" height="2"/><rect x="269.8" y="23" fill="#262626" width="7.3" height="2"/><rect x="255.3" y="23" fill="#262626" width="7.3" height="2"/><rect x="241.8" y="23" fill="#262626" width="6.4" height="2"/><rect x="227.9" y="23" fill="#262626" width="6.2" height="2"/><rect x="186.3" y="23" fill="#262626" width="6.3" height="2"/><rect x="171.7" y="23" fill="#262626" width="7.3" height="2"/><rect x="213.7" y="23" fill="#262626" width="7.3" height="2"/><rect x="200.1" y="23" fill="#262626" width="6.9" height="2"/><rect x="157.8" y="23" fill="#262626" width="6.3" height="2"/><rect x="143.4" y="23" fill="#262626" width="6.7" height="2"/><rect x="129.4" y="23" fill="#262626" width="6.3" height="2"/><rect x="115.3" y="23" fill="#262626" width="6.4" height="2"/><rect x="101.4" y="23" fill="#262626" width="6.7" height="2"/><rect x="86.3" y="23" fill="#262626" width="7.3" height="2"/><rect x="72.3" y="23" fill="#262626" width="7.3" height="2"/><rect x="369.2" y="175.9" fill="#262626" width="6.3" height="2"/><rect x="355.2" y="175.9" fill="#262626" width="6.3" height="2"/><rect x="341.3" y="175.9" fill="#262626" width="6.3" height="2"/><rect x="327.3" y="175.9" fill="#262626" width="6.3" height="2"/><rect x="312.3" y="175.9" fill="#262626" width="7.3" height="2"/><rect x="298.2" y="175.9" fill="#262626" width="6.3" height="2"/><rect x="283.8" y="175.9" fill="#262626" width="7.3" height="2"/><rect x="269.8" y="175.9" fill="#262626" width="7.3" height="2"/><rect x="255.3" y="175.9" fill="#262626" width="7.3" height="2"/><rect x="241.6" y="175.9" fill="#262626" width="6.5" height="2"/><rect x="227.7" y="175.9" fill="#262626" width="6.4" height="2"/><rect x="186.3" y="175.9" fill="#262626" width="6" height="2"/><rect x="171.7" y="175.9" fill="#262626" width="6.8" height="2"/><rect x="213.7" y="175.9" fill="#262626" width="7.3" height="2"/><rect x="200.2" y="175.9" fill="#262626" width="6.8" height="2"/><rect x="157.8" y="175.9" fill="#262626" width="5.8" height="2"/><rect x="143.4" y="175.9" fill="#262626" width="6.7" height="2"/><rect x="129.4" y="175.9" fill="#262626" width="6.3" height="2"/><rect x="115.3" y="175.9" fill="#262626" width="6.5" height="2"/><rect x="101.3" y="175.9" fill="#262626" width="6.8" height="2"/><rect x="86.3" y="175.9" fill="#262626" width="7.3" height="2"/><rect x="72.6" y="175.9" fill="#262626" width="7" height="2"/><rect x="355.1" y="86.5" fill="#262626" width="6.3" height="2"/><rect x="341.1" y="86.5" fill="#262626" width="6.3" height="2"/><rect x="327.2" y="86.5" fill="#262626" width="6.3" height="2"/><rect x="312.3" y="86.5" fill="#262626" width="7.2" height="2"/><rect x="298.1" y="86.5" fill="#262626" width="6.3" height="2"/><rect x="284.1" y="86.5" fill="#262626" width="6.5" height="2"/><rect x="270.1" y="86.5" fill="#262626" width="6.9" height="2"/><rect x="255.7" y="86.5" fill="#262626" width="7.3" height="2"/><rect x="241.4" y="86.5" fill="#262626" width="7.1" height="2"/><rect x="228.2" y="86.5" fill="#262626" width="5.8" height="2"/><rect x="214.2" y="86.5" fill="#262626" width="6.3" height="2"/><rect x="171.8" y="86.5" fill="#262626" width="6.9" height="2"/><rect x="157.7" y="86.5" fill="#262626" width="6.3" height="2"/><rect x="200.2" y="86.5" fill="#262626" width="6.7" height="2"/><rect x="186.4" y="86.5" fill="#262626" width="6.5" height="2"/><rect x="143.7" y="86.5" fill="#262626" width="6.3" height="2"/><rect x="129.3" y="86.5" fill="#262626" width="6.3" height="2"/><rect x="115.2" y="86.5" fill="#262626" width="6.5" height="2"/><rect x="101.2" y="86.5" fill="#262626" width="6.6" height="2"/><rect x="86.7" y="86.5" fill="#262626" width="7.3" height="2"/><rect x="72.7" y="86.5" fill="#262626" width="6.8" height="2"/><rect x="59.5" y="86.5" fill="#262626" width="6" height="2"/><rect x="44.6" y="86.5" fill="#262626" width="6.8" height="2"/><rect x="31.1" y="86.5" fill="#262626" width="6.2" height="2"/><polygon fill="#262626" points="398.1 107.5 379.2 107.5 375.5 103.8 375.5 97.4 372.6 94.5 354.6 94.5 352 97.1 351.3 96.4 354.1 93.5 373 93.5 376.5 97 376.5 103.4 379.6 106.5 398.1 106.5 "/><polygon fill="#262626" points="386.6 91.6 385.6 91.6 385.6 75.7 372.3 62.4 369.2 62.4 369.2 61.4 372.7 61.4 386.6 75.3 "/><rect x="355.2" y="61.4" fill="#262626" width="6.3" height="1"/><rect x="355.2" y="74" fill="#262626" width="6.3" height="1"/><polygon fill="#262626" points="382.3 96.7 381.3 96.7 381.3 80.5 375.7 75 369.2 75 369.2 74 376.2 74 382.3 80.1 "/><rect x="383.7" y="163.9" fill="#262626" width="13.2" height="1"/><polygon fill="#262626" points="405.4 154.9 404.7 154.2 417.3 141.5 417.3 97.5 414.6 94.7 400.6 94.7 397.2 98.1 396.5 97.4 400.2 93.7 415 93.7 418.3 97.1 418.3 141.9 "/><polygon fill="#262626" points="390 114.2 378.7 114.2 368 103.4 368.7 102.7 379.1 113.2 390 113.2 "/><polygon fill="#262626" points="400.6 120.4 378.9 120.4 372.3 113.8 369.2 113.8 369.2 112.8 372.7 112.8 379.3 119.4 400.2 119.4 403.9 115.7 404.6 116.4 "/><polygon fill="#262626" points="411.4 133.4 382.6 133.4 375.9 126.6 369.2 126.6 369.2 125.6 376.3 125.6 383.1 132.4 410.9 132.4 413.9 129.4 413.9 107.1 410.2 103.4 410.9 102.6 414.9 106.7 414.9 129.8 "/><polygon fill="#262626" points="400.9 104.5 399.9 104.5 399.9 68.5 396.3 65 397 64.3 400.9 68.1 "/><polygon fill="#262626" points="401 145.7 389.7 145.7 386.4 142.4 375.1 142.4 372.1 139.4 369.2 139.4 369.2 138.4 372.5 138.4 375.6 141.4 386.8 141.4 390.1 144.7 400.6 144.7 404.2 141 404.9 141.8 "/><polygon fill="#262626" points="394.9 58.1 392.9 58.1 393 30.3 387.1 25.1 383 25.1 383 23.1 387.9 23.1 395 29.5 "/><rect x="369.2" y="86.7" fill="#262626" width="20.7" height="2"/><polygon fill="#262626" points="393.6 177.9 383.2 177.9 383.2 175.9 392.8 175.9 395.8 172.8 395.8 161.7 404 153.5 418.2 153.5 424.4 147.3 424.4 69.4 417.9 62.9 411.1 62.9 411.1 60.9 418.7 60.9 426.4 68.6 426.4 148.2 419 155.5 404.9 155.5 397.8 162.6 397.8 173.7 "/><polygon fill="#262626" points="389.7 125.8 386.1 123.5 386.1 95.6 387.1 95.6 387.1 123 390.2 125 "/><polygon fill="#262626" points="389.7 139.1 381.3 132.1 381.3 100.6 382.3 100.6 382.3 131.7 390.4 138.3 "/><polygon fill="#262626" points="393.6 152 383.2 152 383.2 151 393.2 151 396.5 147.7 410.8 147.7 413.9 144.7 413.9 132.7 409.6 128.5 410.3 127.8 414.9 132.3 414.9 145.1 411.2 148.7 396.9 148.7 "/><rect x="369.2" y="151.1" fill="#262626" width="6.2" height="1"/><rect x="355.2" y="163.8" fill="#262626" width="6.3" height="1"/><rect x="369.2" y="163.9" fill="#262626" width="6.2" height="1"/><rect x="355.2" y="138.3" fill="#262626" width="6.3" height="1"/><rect x="350.8" y="117.1" fill="#262626" width="1" height="5"/><rect x="350.8" y="104.4" fill="#262626" width="1" height="5"/><polygon fill="#262626" points="390.1 75.6 382.8 75.6 378.8 71.6 378.8 53.4 379.8 53.4 379.8 71.2 383.2 74.6 390.1 74.6 "/><rect x="378.8" y="40.7" fill="#262626" width="1" height="5"/><path fill="#777777" d="M418.4 191.5H31.6c-10.7 0-19.4-7.9-19.4-17.7V28.7c0-9.8 8.7-17.7 19.4-17.7h386.8c10.7 0 19.4 7.9 19.4 17.7v145.1C437.8 183.6 429.1 191.5 418.4 191.5zM31.6 13c-9.6 0-17.4 7-17.4 15.7v145.1c0 8.7 7.8 15.7 17.4 15.7h386.8c9.6 0 17.4-7 17.4-15.7V28.7c0-8.7-7.8-15.7-17.3-15.7H31.6z"/><path fill="#777777" d="M393.9 66.3c-2.4 0-4.4-2-4.4-4.4 0-2.4 2-4.4 4.4-4.4 2.4 0 4.4 2 4.4 4.4C398.3 64.4 396.3 66.3 393.9 66.3zM393.9 58.6c-1.9 0-3.4 1.5-3.4 3.4s1.5 3.4 3.4 3.4 3.4-1.5 3.4-3.4S395.8 58.6 393.9 58.6z"/><path fill="#777777" d="M407.3 66.3c-2.4 0-4.4-2-4.4-4.4 0-2.4 2-4.4 4.4-4.4 2.4 0 4.4 2 4.4 4.4C411.6 64.4 409.7 66.3 407.3 66.3zM407.3 58.6c-1.9 0-3.4 1.5-3.4 3.4s1.5 3.4 3.4 3.4c1.9 0 3.4-1.5 3.4-3.4S409.1 58.6 407.3 58.6z"/><path fill="#777777" d="M393.9 79.7c-2.4 0-4.4-2-4.4-4.4s2-4.4 4.4-4.4c2.4 0 4.4 2 4.4 4.4S396.3 79.7 393.9 79.7zM393.9 71.9c-1.9 0-3.4 1.5-3.4 3.4 0 1.9 1.5 3.4 3.4 3.4s3.4-1.5 3.4-3.4C397.3 73.4 395.8 71.9 393.9 71.9z"/><path fill="#777777" d="M407.3 79.7c-2.4 0-4.4-2-4.4-4.4s2-4.4 4.4-4.4c2.4 0 4.4 2 4.4 4.4S409.7 79.7 407.3 79.7zM407.3 71.9c-1.9 0-3.4 1.5-3.4 3.4 0 1.9 1.5 3.4 3.4 3.4 1.9 0 3.4-1.5 3.4-3.4C410.6 73.4 409.1 71.9 407.3 71.9z"/><path fill="#777777" d="M393.9 91.3c-2.4 0-4.4-2-4.4-4.4 0-2.4 2-4.4 4.4-4.4 2.4 0 4.4 2 4.4 4.4C398.3 89.4 396.3 91.3 393.9 91.3zM393.9 83.6c-1.9 0-3.4 1.5-3.4 3.4 0 1.9 1.5 3.4 3.4 3.4s3.4-1.5 3.4-3.4C397.3 85.1 395.8 83.6 393.9 83.6z"/><path fill="#777777" d="M407.3 91.3c-2.4 0-4.4-2-4.4-4.4 0-2.4 2-4.4 4.4-4.4 2.4 0 4.4 2 4.4 4.4C411.6 89.4 409.7 91.3 407.3 91.3zM407.3 83.6c-1.9 0-3.4 1.5-3.4 3.4 0 1.9 1.5 3.4 3.4 3.4 1.9 0 3.4-1.5 3.4-3.4C410.6 85.1 409.1 83.6 407.3 83.6z"/><path fill="#777777" d="M393.9 104.7c-2.4 0-4.4-2-4.4-4.4 0-2.4 2-4.4 4.4-4.4 2.4 0 4.4 2 4.4 4.4C398.3 102.7 396.3 104.7 393.9 104.7zM393.9 96.9c-1.9 0-3.4 1.5-3.4 3.4s1.5 3.4 3.4 3.4 3.4-1.5 3.4-3.4C397.3 98.5 395.8 96.9 393.9 96.9z"/><path fill="#777777" d="M407.3 104.7c-2.4 0-4.4-2-4.4-4.4 0-2.4 2-4.4 4.4-4.4 2.4 0 4.4 2 4.4 4.4C411.6 102.7 409.7 104.7 407.3 104.7zM407.3 96.9c-1.9 0-3.4 1.5-3.4 3.4s1.5 3.4 3.4 3.4c1.9 0 3.4-1.5 3.4-3.4C410.6 98.5 409.1 96.9 407.3 96.9z"/><path fill="#777777" d="M393.9 118c-2.4 0-4.4-2-4.4-4.4 0-2.4 2-4.4 4.4-4.4 2.4 0 4.4 2 4.4 4.4C398.3 116.1 396.3 118 393.9 118zM393.9 110.3c-1.9 0-3.4 1.5-3.4 3.4 0 1.9 1.5 3.4 3.4 3.4s3.4-1.5 3.4-3.4C397.3 111.8 395.8 110.3 393.9 110.3z"/><path fill="#777777" d="M407.3 118c-2.4 0-4.4-2-4.4-4.4 0-2.4 2-4.4 4.4-4.4 2.4 0 4.4 2 4.4 4.4C411.6 116.1 409.7 118 407.3 118zM407.3 110.3c-1.9 0-3.4 1.5-3.4 3.4 0 1.9 1.5 3.4 3.4 3.4 1.9 0 3.4-1.5 3.4-3.4C410.6 111.8 409.1 110.3 407.3 110.3z"/><path fill="#777777" d="M393.9 129.7c-2.4 0-4.4-2-4.4-4.4 0-2.4 2-4.4 4.4-4.4 2.4 0 4.4 2 4.4 4.4C398.3 127.7 396.3 129.7 393.9 129.7zM393.9 122c-1.9 0-3.4 1.5-3.4 3.4 0 1.9 1.5 3.4 3.4 3.4s3.4-1.5 3.4-3.4C397.3 123.5 395.8 122 393.9 122z"/><path fill="#777777" d="M407.3 129.7c-2.4 0-4.4-2-4.4-4.4 0-2.4 2-4.4 4.4-4.4 2.4 0 4.4 2 4.4 4.4C411.6 127.7 409.7 129.7 407.3 129.7zM407.3 122c-1.9 0-3.4 1.5-3.4 3.4 0 1.9 1.5 3.4 3.4 3.4 1.9 0 3.4-1.5 3.4-3.4C410.6 123.5 409.1 122 407.3 122z"/><path fill="#777777" d="M393.9 143.1c-2.4 0-4.4-2-4.4-4.4s2-4.4 4.4-4.4 4.4 2 4.4 4.4S396.3 143.1 393.9 143.1zM393.9 135.3c-1.9 0-3.4 1.5-3.4 3.4s1.5 3.4 3.4 3.4c1.9 0 3.4-1.5 3.4-3.4C397.3 136.8 395.8 135.3 393.9 135.3z"/><path fill="#777777" d="M407.3 143.1c-2.4 0-4.4-2-4.4-4.4s2-4.4 4.4-4.4c2.4 0 4.4 2 4.4 4.4S409.7 143.1 407.3 143.1zM407.3 135.3c-1.9 0-3.4 1.5-3.4 3.4s1.5 3.4 3.4 3.4 3.4-1.5 3.4-3.4C410.7 136.8 409.1 135.3 407.3 135.3z"/><path fill="#777777" d="M27.5 66.3c-2.4 0-4.4-2-4.4-4.4 0-2.4 2-4.4 4.4-4.4 2.4 0 4.4 2 4.4 4.4C31.9 64.4 29.9 66.3 27.5 66.3zM27.5 58.6c-1.9 0-3.4 1.5-3.4 3.4s1.5 3.4 3.4 3.4c1.9 0 3.4-1.5 3.4-3.4S29.4 58.6 27.5 58.6z"/><path fill="#777777" d="M40.9 66.3c-2.4 0-4.4-2-4.4-4.4 0-2.4 2-4.4 4.4-4.4 2.4 0 4.4 2 4.4 4.4C45.2 64.4 43.3 66.3 40.9 66.3zM40.9 58.6c-1.9 0-3.4 1.5-3.4 3.4s1.5 3.4 3.4 3.4c1.9 0 3.4-1.5 3.4-3.4S42.7 58.6 40.9 58.6z"/><path fill="#777777" d="M27.5 79.1c-2.4 0-4.4-2-4.4-4.4s2-4.4 4.4-4.4c2.4 0 4.4 2 4.4 4.4S29.9 79.1 27.5 79.1zM27.5 71.4c-1.9 0-3.4 1.5-3.4 3.4s1.5 3.4 3.4 3.4c1.9 0 3.4-1.5 3.4-3.4S29.4 71.4 27.5 71.4z"/><path fill="#777777" d="M40.9 79.1c-2.4 0-4.4-2-4.4-4.4s2-4.4 4.4-4.4c2.4 0 4.4 2 4.4 4.4S43.3 79.1 40.9 79.1zM40.9 71.4c-1.9 0-3.4 1.5-3.4 3.4s1.5 3.4 3.4 3.4c1.9 0 3.4-1.5 3.4-3.4S42.7 71.4 40.9 71.4z"/><path fill="#777777" d="M27.5 91.9c-2.4 0-4.4-2-4.4-4.4 0-2.4 2-4.4 4.4-4.4 2.4 0 4.4 2 4.4 4.4C31.9 89.9 29.9 91.9 27.5 91.9zM27.5 84.1c-1.9 0-3.4 1.5-3.4 3.4 0 1.9 1.5 3.4 3.4 3.4 1.9 0 3.4-1.5 3.4-3.4C30.9 85.7 29.4 84.1 27.5 84.1z"/><path fill="#777777" d="M40.9 91.9c-2.4 0-4.4-2-4.4-4.4 0-2.4 2-4.4 4.4-4.4 2.4 0 4.4 2 4.4 4.4C45.3 89.9 43.3 91.9 40.9 91.9zM40.9 84.1c-1.9 0-3.4 1.5-3.4 3.4 0 1.9 1.5 3.4 3.4 3.4 1.9 0 3.4-1.5 3.4-3.4C44.3 85.7 42.7 84.1 40.9 84.1z"/><path fill="#777777" d="M27.5 104.7c-2.4 0-4.4-2-4.4-4.4 0-2.4 2-4.4 4.4-4.4 2.4 0 4.4 2 4.4 4.4C31.9 102.7 29.9 104.7 27.5 104.7zM27.5 96.9c-1.9 0-3.4 1.5-3.4 3.4s1.5 3.4 3.4 3.4c1.9 0 3.4-1.5 3.4-3.4C30.9 98.5 29.4 96.9 27.5 96.9z"/><path fill="#777777" d="M40.9 104.7c-2.4 0-4.4-2-4.4-4.4 0-2.4 2-4.4 4.4-4.4 2.4 0 4.4 2 4.4 4.4C45.3 102.7 43.3 104.7 40.9 104.7zM40.9 96.9c-1.9 0-3.4 1.5-3.4 3.4s1.5 3.4 3.4 3.4c1.9 0 3.4-1.5 3.4-3.4C44.3 98.5 42.7 96.9 40.9 96.9z"/><path fill="#777777" d="M27.5 117.5c-2.4 0-4.4-2-4.4-4.4 0-2.4 2-4.4 4.4-4.4 2.4 0 4.4 2 4.4 4.4C31.9 115.5 29.9 117.5 27.5 117.5zM27.5 109.7c-1.9 0-3.4 1.5-3.4 3.4 0 1.9 1.5 3.4 3.4 3.4 1.9 0 3.4-1.5 3.4-3.4C30.9 111.2 29.4 109.7 27.5 109.7z"/><path fill="#777777" d="M40.9 117.5c-2.4 0-4.4-2-4.4-4.4 0-2.4 2-4.4 4.4-4.4 2.4 0 4.4 2 4.4 4.4C45.2 115.5 43.3 117.5 40.9 117.5zM40.9 109.7c-1.9 0-3.4 1.5-3.4 3.4 0 1.9 1.5 3.4 3.4 3.4 1.9 0 3.4-1.5 3.4-3.4C44.3 111.2 42.7 109.7 40.9 109.7z"/><path fill="#777777" d="M27.5 130.3c-2.4 0-4.4-2-4.4-4.4 0-2.4 2-4.4 4.4-4.4 2.4 0 4.4 2 4.4 4.4C31.9 128.3 29.9 130.3 27.5 130.3zM27.5 122.5c-1.9 0-3.4 1.5-3.4 3.4s1.5 3.4 3.4 3.4c1.9 0 3.4-1.5 3.4-3.4C30.9 124 29.4 122.5 27.5 122.5z"/><path fill="#777777" d="M40.9 130.3c-2.4 0-4.4-2-4.4-4.4 0-2.4 2-4.4 4.4-4.4 2.4 0 4.4 2 4.4 4.4C45.3 128.3 43.3 130.3 40.9 130.3zM40.9 122.5c-1.9 0-3.4 1.5-3.4 3.4s1.5 3.4 3.4 3.4c1.9 0 3.4-1.5 3.4-3.4C44.3 124 42.7 122.5 40.9 122.5z"/><path fill="#777777" d="M27.5 143.1c-2.4 0-4.4-2-4.4-4.4s2-4.4 4.4-4.4c2.4 0 4.4 2 4.4 4.4S29.9 143.1 27.5 143.1zM27.5 135.3c-1.9 0-3.4 1.5-3.4 3.4s1.5 3.4 3.4 3.4c1.9 0 3.4-1.5 3.4-3.4C30.9 136.8 29.4 135.3 27.5 135.3z"/><path fill="#777777" d="M40.9 143.1c-2.4 0-4.4-2-4.4-4.4s2-4.4 4.4-4.4c2.4 0 4.4 2 4.4 4.4S43.3 143.1 40.9 143.1zM40.9 135.3c-1.9 0-3.4 1.5-3.4 3.4s1.5 3.4 3.4 3.4c1.9 0 3.4-1.5 3.4-3.4C44.3 136.8 42.7 135.3 40.9 135.3z"/><path fill="#777777" d="M55.6 66.3c-2.4 0-4.4-2-4.4-4.4 0-2.4 2-4.4 4.4-4.4 2.4 0 4.4 2 4.4 4.4C60 64.4 58.1 66.3 55.6 66.3zM55.6 58.6c-1.9 0-3.4 1.5-3.4 3.4s1.5 3.4 3.4 3.4c1.9 0 3.4-1.5 3.4-3.4S57.5 58.6 55.6 58.6z"/><path fill="#777777" d="M55.6 79.1c-2.4 0-4.4-2-4.4-4.4s2-4.4 4.4-4.4c2.4 0 4.4 2 4.4 4.4S58.1 79.1 55.6 79.1zM55.6 71.4c-1.9 0-3.4 1.5-3.4 3.4s1.5 3.4 3.4 3.4c1.9 0 3.4-1.5 3.4-3.4S57.5 71.4 55.6 71.4z"/><path fill="#777777" d="M55.6 91.9c-2.4 0-4.4-2-4.4-4.4 0-2.4 2-4.4 4.4-4.4 2.4 0 4.4 2 4.4 4.4C60 89.9 58.1 91.9 55.6 91.9zM55.6 84.1c-1.9 0-3.4 1.5-3.4 3.4 0 1.9 1.5 3.4 3.4 3.4 1.9 0 3.4-1.5 3.4-3.4C59 85.7 57.5 84.1 55.6 84.1z"/><path fill="#777777" d="M55.6 104.7c-2.4 0-4.4-2-4.4-4.4 0-2.4 2-4.4 4.4-4.4 2.4 0 4.4 2 4.4 4.4C60 102.7 58.1 104.7 55.6 104.7zM55.6 96.9c-1.9 0-3.4 1.5-3.4 3.4s1.5 3.4 3.4 3.4c1.9 0 3.4-1.5 3.4-3.4C59 98.5 57.5 96.9 55.6 96.9z"/><path fill="#777777" d="M55.6 117.5c-2.4 0-4.4-2-4.4-4.4 0-2.4 2-4.4 4.4-4.4 2.4 0 4.4 2 4.4 4.4C60 115.5 58.1 117.5 55.6 117.5zM55.6 109.7c-1.9 0-3.4 1.5-3.4 3.4 0 1.9 1.5 3.4 3.4 3.4 1.9 0 3.4-1.5 3.4-3.4C59 111.2 57.5 109.7 55.6 109.7z"/><path fill="#777777" d="M55.6 130.3c-2.4 0-4.4-2-4.4-4.4 0-2.4 2-4.4 4.4-4.4 2.4 0 4.4 2 4.4 4.4C60 128.3 58.1 130.3 55.6 130.3zM55.6 122.5c-1.9 0-3.4 1.5-3.4 3.4s1.5 3.4 3.4 3.4c1.9 0 3.4-1.5 3.4-3.4C59 124 57.5 122.5 55.6 122.5z"/><path fill="#777777" d="M55.6 143.1c-2.4 0-4.4-2-4.4-4.4s2-4.4 4.4-4.4 4.4 2 4.4 4.4S58.1 143.1 55.6 143.1zM55.6 135.3c-1.9 0-3.4 1.5-3.4 3.4s1.5 3.4 3.4 3.4c1.9 0 3.4-1.5 3.4-3.4C59 136.8 57.5 135.3 55.6 135.3z"/><path fill="#777777" d="M69 66.6c-2.4 0-4.4-2-4.4-4.4 0-2.4 2-4.4 4.4-4.4 2.4 0 4.4 2 4.4 4.4C73.4 64.6 71.4 66.6 69 66.6zM69 58.8c-1.9 0-3.4 1.5-3.4 3.4 0 1.9 1.5 3.4 3.4 3.4 1.9 0 3.4-1.5 3.4-3.4C72.4 60.4 70.8 58.8 69 58.8z"/><path fill="#777777" d="M69 79.4c-2.4 0-4.4-2-4.4-4.4 0-2.4 2-4.4 4.4-4.4 2.4 0 4.4 2 4.4 4.4C73.4 77.4 71.4 79.4 69 79.4zM69 71.6c-1.9 0-3.4 1.5-3.4 3.4s1.5 3.4 3.4 3.4c1.9 0 3.4-1.5 3.4-3.4S70.8 71.6 69 71.6z"/><path fill="#777777" d="M69 92.1c-2.4 0-4.4-2-4.4-4.4 0-2.4 2-4.4 4.4-4.4 2.4 0 4.4 2 4.4 4.4C73.4 90.1 71.4 92.1 69 92.1zM69 84.4c-1.9 0-3.4 1.5-3.4 3.4s1.5 3.4 3.4 3.4c1.9 0 3.4-1.5 3.4-3.4S70.8 84.4 69 84.4z"/><path fill="#777777" d="M69 28.3c-2.4 0-4.4-2-4.4-4.4 0-2.4 2-4.4 4.4-4.4 2.4 0 4.4 2 4.4 4.4S71.4 28.3 69 28.3zM69 20.6c-1.9 0-3.4 1.5-3.4 3.4 0 1.9 1.5 3.4 3.4 3.4 1.9 0 3.4-1.5 3.4-3.4C72.4 22.1 70.8 20.6 69 20.6z"/><path fill="#777777" d="M69 41.1c-2.4 0-4.4-2-4.4-4.4 0-2.4 2-4.4 4.4-4.4 2.4 0 4.4 2 4.4 4.4C73.4 39.1 71.4 41.1 69 41.1zM69 33.3c-1.9 0-3.4 1.5-3.4 3.4 0 1.9 1.5 3.4 3.4 3.4 1.9 0 3.4-1.5 3.4-3.4C72.4 34.8 70.8 33.3 69 33.3z"/><path fill="#777777" d="M69 53.8c-2.4 0-4.4-2-4.4-4.4 0-2.4 2-4.4 4.4-4.4 2.4 0 4.4 2 4.4 4.4C73.4 51.9 71.4 53.8 69 53.8zM69 46.1c-1.9 0-3.4 1.5-3.4 3.4s1.5 3.4 3.4 3.4c1.9 0 3.4-1.5 3.4-3.4C72.4 47.6 70.8 46.1 69 46.1z"/><path fill="#777777" d="M69 155.9c-2.4 0-4.4-2-4.4-4.4s2-4.4 4.4-4.4 4.4 2 4.4 4.4C73.4 153.9 71.4 155.9 69 155.9zM69 148.2c-1.9 0-3.4 1.5-3.4 3.4 0 1.9 1.5 3.4 3.4 3.4 1.9 0 3.4-1.5 3.4-3.4C72.4 149.7 70.8 148.2 69 148.2z"/><path fill="#777777" d="M69 168.7c-2.4 0-4.4-2-4.4-4.4s2-4.4 4.4-4.4 4.4 2 4.4 4.4S71.4 168.7 69 168.7zM69 160.9c-1.9 0-3.4 1.5-3.4 3.4s1.5 3.4 3.4 3.4c1.9 0 3.4-1.5 3.4-3.4C72.4 162.4 70.8 160.9 69 160.9z"/><path fill="#777777" d="M69 181.4c-2.4 0-4.4-2-4.4-4.4 0-2.4 2-4.4 4.4-4.4s4.4 2 4.4 4.4C73.4 179.5 71.4 181.4 69 181.4zM69 173.7c-1.9 0-3.4 1.5-3.4 3.4s1.5 3.4 3.4 3.4c1.9 0 3.4-1.5 3.4-3.4S70.8 173.7 69 173.7z"/><path fill="#777777" d="M69 104.9c-2.4 0-4.4-2-4.4-4.4s2-4.4 4.4-4.4 4.4 2 4.4 4.4S71.4 104.9 69 104.9zM69 97.1c-1.9 0-3.4 1.5-3.4 3.4 0 1.9 1.5 3.4 3.4 3.4 1.9 0 3.4-1.5 3.4-3.4C72.4 98.6 70.8 97.1 69 97.1z"/><path fill="#777777" d="M69 117.6c-2.4 0-4.4-2-4.4-4.4 0-2.4 2-4.4 4.4-4.4 2.4 0 4.4 2 4.4 4.4C73.4 115.7 71.4 117.6 69 117.6zM69 109.9c-1.9 0-3.4 1.5-3.4 3.4s1.5 3.4 3.4 3.4c1.9 0 3.4-1.5 3.4-3.4S70.8 109.9 69 109.9z"/><path fill="#777777" d="M69 130.4c-2.4 0-4.4-2-4.4-4.4s2-4.4 4.4-4.4c2.4 0 4.4 2 4.4 4.4S71.4 130.4 69 130.4zM69 122.6c-1.9 0-3.4 1.5-3.4 3.4 0 1.9 1.5 3.4 3.4 3.4 1.9 0 3.4-1.5 3.4-3.4C72.4 124.2 70.8 122.6 69 122.6z"/><path fill="#777777" d="M69 143.1c-2.4 0-4.4-2-4.4-4.4 0-2.4 2-4.4 4.4-4.4s4.4 2 4.4 4.4C73.4 141.2 71.4 143.1 69 143.1zM69 135.4c-1.9 0-3.4 1.5-3.4 3.4 0 1.9 1.5 3.4 3.4 3.4 1.9 0 3.4-1.5 3.4-3.4C72.4 136.9 70.8 135.4 69 135.4z"/><path fill="#777777" d="M83 66.7c-2.4 0-4.4-2-4.4-4.4 0-2.4 2-4.4 4.4-4.4 2.4 0 4.4 2 4.4 4.4C87.4 64.7 85.4 66.7 83 66.7zM83 58.9c-1.9 0-3.4 1.5-3.4 3.4 0 1.9 1.5 3.4 3.4 3.4 1.9 0 3.4-1.5 3.4-3.4C86.4 60.4 84.9 58.9 83 58.9z"/><path fill="#777777" d="M83 79.4c-2.4 0-4.4-2-4.4-4.4s2-4.4 4.4-4.4c2.4 0 4.4 2 4.4 4.4S85.4 79.4 83 79.4zM83 71.7c-1.9 0-3.4 1.5-3.4 3.4s1.5 3.4 3.4 3.4c1.9 0 3.4-1.5 3.4-3.4S84.9 71.7 83 71.7z"/><path fill="#777777" d="M83 92.2c-2.4 0-4.4-2-4.4-4.4 0-2.4 2-4.4 4.4-4.4 2.4 0 4.4 2 4.4 4.4C87.4 90.2 85.4 92.2 83 92.2zM83 84.4c-1.9 0-3.4 1.5-3.4 3.4 0 1.9 1.5 3.4 3.4 3.4 1.9 0 3.4-1.5 3.4-3.4C86.4 86 84.9 84.4 83 84.4z"/><path fill="#777777" d="M83 28.4c-2.4 0-4.4-2-4.4-4.4 0-2.4 2-4.4 4.4-4.4 2.4 0 4.4 2 4.4 4.4C87.4 26.4 85.4 28.4 83 28.4zM83 20.7c-1.9 0-3.4 1.5-3.4 3.4 0 1.9 1.5 3.4 3.4 3.4 1.9 0 3.4-1.5 3.4-3.4S84.9 20.7 83 20.7z"/><path fill="#777777" d="M83 41.2c-2.4 0-4.4-2-4.4-4.4 0-2.4 2-4.4 4.4-4.4 2.4 0 4.4 2 4.4 4.4C87.4 39.2 85.4 41.2 83 41.2zM83 33.4c-1.9 0-3.4 1.5-3.4 3.4 0 1.9 1.5 3.4 3.4 3.4 1.9 0 3.4-1.5 3.4-3.4C86.4 34.9 84.9 33.4 83 33.4z"/><path fill="#777777" d="M83 53.9c-2.4 0-4.4-2-4.4-4.4 0-2.4 2-4.4 4.4-4.4 2.4 0 4.4 2 4.4 4.4C87.4 52 85.4 53.9 83 53.9zM83 46.2c-1.9 0-3.4 1.5-3.4 3.4 0 1.9 1.5 3.4 3.4 3.4 1.9 0 3.4-1.5 3.4-3.4C86.4 47.7 84.9 46.2 83 46.2z"/><path fill="#777777" d="M83 156c-2.4 0-4.4-2-4.4-4.4 0-2.4 2-4.4 4.4-4.4 2.4 0 4.4 2 4.4 4.4C87.4 154 85.4 156 83 156zM83 148.2c-1.9 0-3.4 1.5-3.4 3.4s1.5 3.4 3.4 3.4c1.9 0 3.4-1.5 3.4-3.4S84.9 148.2 83 148.2z"/><path fill="#777777" d="M83 168.8c-2.4 0-4.4-2-4.4-4.4s2-4.4 4.4-4.4c2.4 0 4.4 2 4.4 4.4S85.4 168.8 83 168.8zM83 161c-1.9 0-3.4 1.5-3.4 3.4s1.5 3.4 3.4 3.4c1.9 0 3.4-1.5 3.4-3.4S84.9 161 83 161z"/><path fill="#777777" d="M83 181.5c-2.4 0-4.4-2-4.4-4.4s2-4.4 4.4-4.4c2.4 0 4.4 2 4.4 4.4C87.4 179.5 85.4 181.5 83 181.5zM83 173.8c-1.9 0-3.4 1.5-3.4 3.4 0 1.9 1.5 3.4 3.4 3.4 1.9 0 3.4-1.5 3.4-3.4C86.4 175.3 84.9 173.8 83 173.8z"/><path fill="#777777" d="M83 105c-2.4 0-4.4-2-4.4-4.4s2-4.4 4.4-4.4c2.4 0 4.4 2 4.4 4.4S85.4 105 83 105zM83 97.2c-1.9 0-3.4 1.5-3.4 3.4 0 1.9 1.5 3.4 3.4 3.4 1.9 0 3.4-1.5 3.4-3.4S84.9 97.2 83 97.2z"/><path fill="#777777" d="M83 117.7c-2.4 0-4.4-2-4.4-4.4s2-4.4 4.4-4.4c2.4 0 4.4 2 4.4 4.4S85.4 117.7 83 117.7zM83 110c-1.9 0-3.4 1.5-3.4 3.4 0 1.9 1.5 3.4 3.4 3.4 1.9 0 3.4-1.5 3.4-3.4C86.4 111.5 84.9 110 83 110z"/><path fill="#777777" d="M83 130.5c-2.4 0-4.4-2-4.4-4.4 0-2.4 2-4.4 4.4-4.4 2.4 0 4.4 2 4.4 4.4C87.4 128.5 85.4 130.5 83 130.5zM83 122.7c-1.9 0-3.4 1.5-3.4 3.4 0 1.9 1.5 3.4 3.4 3.4 1.9 0 3.4-1.5 3.4-3.4S84.9 122.7 83 122.7z"/><path fill="#777777" d="M83 143.2c-2.4 0-4.4-2-4.4-4.4s2-4.4 4.4-4.4c2.4 0 4.4 2 4.4 4.4S85.4 143.2 83 143.2zM83 135.5c-1.9 0-3.4 1.5-3.4 3.4s1.5 3.4 3.4 3.4c1.9 0 3.4-1.5 3.4-3.4C86.4 137 84.9 135.5 83 135.5z"/><path fill="#777777" d="M97.6 66.6c-2.4 0-4.4-2-4.4-4.4 0-2.4 2-4.4 4.4-4.4 2.4 0 4.4 2 4.4 4.4C101.9 64.6 100 66.6 97.6 66.6zM97.6 58.8c-1.9 0-3.4 1.5-3.4 3.4 0 1.9 1.5 3.4 3.4 3.4 1.9 0 3.4-1.5 3.4-3.4C100.9 60.4 99.4 58.8 97.6 58.8z"/><path fill="#777777" d="M97.6 79.4c-2.4 0-4.4-2-4.4-4.4 0-2.4 2-4.4 4.4-4.4 2.4 0 4.4 2 4.4 4.4C101.9 77.4 100 79.4 97.6 79.4zM97.6 71.6c-1.9 0-3.4 1.5-3.4 3.4s1.5 3.4 3.4 3.4c1.9 0 3.4-1.5 3.4-3.4S99.4 71.6 97.6 71.6z"/><path fill="#777777" d="M97.6 92.1c-2.4 0-4.4-2-4.4-4.4 0-2.4 2-4.4 4.4-4.4 2.4 0 4.4 2 4.4 4.4C101.9 90.1 100 92.1 97.6 92.1zM97.6 84.4c-1.9 0-3.4 1.5-3.4 3.4s1.5 3.4 3.4 3.4c1.9 0 3.4-1.5 3.4-3.4S99.4 84.4 97.6 84.4z"/><path fill="#777777" d="M97.6 28.3c-2.4 0-4.4-2-4.4-4.4 0-2.4 2-4.4 4.4-4.4 2.4 0 4.4 2 4.4 4.4S100 28.3 97.6 28.3zM97.6 20.6c-1.9 0-3.4 1.5-3.4 3.4 0 1.9 1.5 3.4 3.4 3.4 1.9 0 3.4-1.5 3.4-3.4C100.9 22.1 99.4 20.6 97.6 20.6z"/><path fill="#777777" d="M97.6 41.1c-2.4 0-4.4-2-4.4-4.4 0-2.4 2-4.4 4.4-4.4 2.4 0 4.4 2 4.4 4.4C101.9 39.1 100 41.1 97.6 41.1zM97.6 33.3c-1.9 0-3.4 1.5-3.4 3.4 0 1.9 1.5 3.4 3.4 3.4 1.9 0 3.4-1.5 3.4-3.4C100.9 34.8 99.4 33.3 97.6 33.3z"/><path fill="#777777" d="M97.6 53.8c-2.4 0-4.4-2-4.4-4.4 0-2.4 2-4.4 4.4-4.4 2.4 0 4.4 2 4.4 4.4C101.9 51.9 100 53.8 97.6 53.8zM97.6 46.1c-1.9 0-3.4 1.5-3.4 3.4s1.5 3.4 3.4 3.4c1.9 0 3.4-1.5 3.4-3.4C100.9 47.6 99.4 46.1 97.6 46.1z"/><path fill="#777777" d="M97.6 155.9c-2.4 0-4.4-2-4.4-4.4s2-4.4 4.4-4.4c2.4 0 4.4 2 4.4 4.4S100 155.9 97.6 155.9zM97.6 148.2c-1.9 0-3.4 1.5-3.4 3.4 0 1.9 1.5 3.4 3.4 3.4 1.9 0 3.4-1.5 3.4-3.4C100.9 149.7 99.4 148.2 97.6 148.2z"/><path fill="#777777" d="M97.6 168.7c-2.4 0-4.4-2-4.4-4.4s2-4.4 4.4-4.4c2.4 0 4.4 2 4.4 4.4S100 168.7 97.6 168.7zM97.6 160.9c-1.9 0-3.4 1.5-3.4 3.4s1.5 3.4 3.4 3.4c1.9 0 3.4-1.5 3.4-3.4S99.4 160.9 97.6 160.9z"/><path fill="#777777" d="M97.6 181.4c-2.4 0-4.4-2-4.4-4.4 0-2.4 2-4.4 4.4-4.4 2.4 0 4.4 2 4.4 4.4C101.9 179.5 100 181.4 97.6 181.4zM97.6 173.7c-1.9 0-3.4 1.5-3.4 3.4s1.5 3.4 3.4 3.4c1.9 0 3.4-1.5 3.4-3.4S99.4 173.7 97.6 173.7z"/><path fill="#777777" d="M97.6 104.9c-2.4 0-4.4-2-4.4-4.4s2-4.4 4.4-4.4c2.4 0 4.4 2 4.4 4.4S100 104.9 97.6 104.9zM97.6 97.1c-1.9 0-3.4 1.5-3.4 3.4 0 1.9 1.5 3.4 3.4 3.4 1.9 0 3.4-1.5 3.4-3.4C100.9 98.6 99.4 97.1 97.6 97.1z"/><path fill="#777777" d="M97.6 117.6c-2.4 0-4.4-2-4.4-4.4 0-2.4 2-4.4 4.4-4.4 2.4 0 4.4 2 4.4 4.4C101.9 115.7 100 117.6 97.6 117.6zM97.6 109.9c-1.9 0-3.4 1.5-3.4 3.4s1.5 3.4 3.4 3.4c1.9 0 3.4-1.5 3.4-3.4S99.4 109.9 97.6 109.9z"/><path fill="#777777" d="M97.6 130.4c-2.4 0-4.4-2-4.4-4.4s2-4.4 4.4-4.4c2.4 0 4.4 2 4.4 4.4S100 130.4 97.6 130.4zM97.6 122.6c-1.9 0-3.4 1.5-3.4 3.4 0 1.9 1.5 3.4 3.4 3.4 1.9 0 3.4-1.5 3.4-3.4C100.9 124.2 99.4 122.6 97.6 122.6z"/><path fill="#777777" d="M97.6 143.1c-2.4 0-4.4-2-4.4-4.4 0-2.4 2-4.4 4.4-4.4 2.4 0 4.4 2 4.4 4.4C101.9 141.2 100 143.1 97.6 143.1zM97.6 135.4c-1.9 0-3.4 1.5-3.4 3.4 0 1.9 1.5 3.4 3.4 3.4 1.9 0 3.4-1.5 3.4-3.4C100.9 136.9 99.4 135.4 97.6 135.4z"/><path fill="#777777" d="M111.6 66.7c-2.4 0-4.4-2-4.4-4.4 0-2.4 2-4.4 4.4-4.4s4.4 2 4.4 4.4C116 64.7 114 66.7 111.6 66.7zM111.6 58.9c-1.9 0-3.4 1.5-3.4 3.4 0 1.9 1.5 3.4 3.4 3.4 1.9 0 3.4-1.5 3.4-3.4C115 60.4 113.5 58.9 111.6 58.9z"/><path fill="#777777" d="M111.6 79.4c-2.4 0-4.4-2-4.4-4.4s2-4.4 4.4-4.4 4.4 2 4.4 4.4S114 79.4 111.6 79.4zM111.6 71.7c-1.9 0-3.4 1.5-3.4 3.4s1.5 3.4 3.4 3.4c1.9 0 3.4-1.5 3.4-3.4S113.5 71.7 111.6 71.7z"/><path fill="#777777" d="M111.6 92.2c-2.4 0-4.4-2-4.4-4.4 0-2.4 2-4.4 4.4-4.4s4.4 2 4.4 4.4C116 90.2 114 92.2 111.6 92.2zM111.6 84.4c-1.9 0-3.4 1.5-3.4 3.4 0 1.9 1.5 3.4 3.4 3.4 1.9 0 3.4-1.5 3.4-3.4C115 86 113.5 84.4 111.6 84.4z"/><path fill="#777777" d="M111.6 28.4c-2.4 0-4.4-2-4.4-4.4 0-2.4 2-4.4 4.4-4.4s4.4 2 4.4 4.4C116 26.4 114 28.4 111.6 28.4zM111.6 20.7c-1.9 0-3.4 1.5-3.4 3.4 0 1.9 1.5 3.4 3.4 3.4 1.9 0 3.4-1.5 3.4-3.4S113.5 20.7 111.6 20.7z"/><path fill="#777777" d="M111.6 41.2c-2.4 0-4.4-2-4.4-4.4 0-2.4 2-4.4 4.4-4.4s4.4 2 4.4 4.4C116 39.2 114 41.2 111.6 41.2zM111.6 33.4c-1.9 0-3.4 1.5-3.4 3.4 0 1.9 1.5 3.4 3.4 3.4 1.9 0 3.4-1.5 3.4-3.4C115 34.9 113.5 33.4 111.6 33.4z"/><path fill="#777777" d="M111.6 53.9c-2.4 0-4.4-2-4.4-4.4 0-2.4 2-4.4 4.4-4.4s4.4 2 4.4 4.4C116 52 114 53.9 111.6 53.9zM111.6 46.2c-1.9 0-3.4 1.5-3.4 3.4 0 1.9 1.5 3.4 3.4 3.4 1.9 0 3.4-1.5 3.4-3.4C115 47.7 113.5 46.2 111.6 46.2z"/><path fill="#777777" d="M111.6 156c-2.4 0-4.4-2-4.4-4.4 0-2.4 2-4.4 4.4-4.4s4.4 2 4.4 4.4C116 154 114 156 111.6 156zM111.6 148.2c-1.9 0-3.4 1.5-3.4 3.4s1.5 3.4 3.4 3.4c1.9 0 3.4-1.5 3.4-3.4S113.5 148.2 111.6 148.2z"/><path fill="#777777" d="M111.6 168.8c-2.4 0-4.4-2-4.4-4.4s2-4.4 4.4-4.4 4.4 2 4.4 4.4S114 168.8 111.6 168.8zM111.6 161c-1.9 0-3.4 1.5-3.4 3.4s1.5 3.4 3.4 3.4c1.9 0 3.4-1.5 3.4-3.4S113.5 161 111.6 161z"/><path fill="#777777" d="M111.6 181.5c-2.4 0-4.4-2-4.4-4.4s2-4.4 4.4-4.4 4.4 2 4.4 4.4C116 179.5 114 181.5 111.6 181.5zM111.6 173.8c-1.9 0-3.4 1.5-3.4 3.4 0 1.9 1.5 3.4 3.4 3.4 1.9 0 3.4-1.5 3.4-3.4C115 175.3 113.5 173.8 111.6 173.8z"/><path fill="#777777" d="M111.6 105c-2.4 0-4.4-2-4.4-4.4s2-4.4 4.4-4.4 4.4 2 4.4 4.4S114 105 111.6 105zM111.6 97.2c-1.9 0-3.4 1.5-3.4 3.4 0 1.9 1.5 3.4 3.4 3.4 1.9 0 3.4-1.5 3.4-3.4S113.5 97.2 111.6 97.2z"/><path fill="#777777" d="M111.6 117.7c-2.4 0-4.4-2-4.4-4.4s2-4.4 4.4-4.4 4.4 2 4.4 4.4S114 117.7 111.6 117.7zM111.6 110c-1.9 0-3.4 1.5-3.4 3.4 0 1.9 1.5 3.4 3.4 3.4 1.9 0 3.4-1.5 3.4-3.4C115 111.5 113.5 110 111.6 110z"/><path fill="#777777" d="M111.6 130.5c-2.4 0-4.4-2-4.4-4.4 0-2.4 2-4.4 4.4-4.4s4.4 2 4.4 4.4C116 128.5 114 130.5 111.6 130.5zM111.6 122.7c-1.9 0-3.4 1.5-3.4 3.4 0 1.9 1.5 3.4 3.4 3.4 1.9 0 3.4-1.5 3.4-3.4S113.5 122.7 111.6 122.7z"/><path fill="#777777" d="M111.6 143.2c-2.4 0-4.4-2-4.4-4.4s2-4.4 4.4-4.4 4.4 2 4.4 4.4S114 143.2 111.6 143.2zM111.6 135.5c-1.9 0-3.4 1.5-3.4 3.4s1.5 3.4 3.4 3.4c1.9 0 3.4-1.5 3.4-3.4C115 137 113.5 135.5 111.6 135.5z"/><path fill="#777777" d="M125.5 66.6c-2.4 0-4.4-2-4.4-4.4 0-2.4 2-4.4 4.4-4.4s4.4 2 4.4 4.4C129.9 64.6 127.9 66.6 125.5 66.6zM125.5 58.8c-1.9 0-3.4 1.5-3.4 3.4 0 1.9 1.5 3.4 3.4 3.4s3.4-1.5 3.4-3.4C128.9 60.4 127.3 58.8 125.5 58.8z"/><path fill="#777777" d="M125.5 79.4c-2.4 0-4.4-2-4.4-4.4 0-2.4 2-4.4 4.4-4.4s4.4 2 4.4 4.4C129.9 77.4 127.9 79.4 125.5 79.4zM125.5 71.6c-1.9 0-3.4 1.5-3.4 3.4s1.5 3.4 3.4 3.4 3.4-1.5 3.4-3.4S127.3 71.6 125.5 71.6z"/><path fill="#777777" d="M125.5 92.1c-2.4 0-4.4-2-4.4-4.4 0-2.4 2-4.4 4.4-4.4s4.4 2 4.4 4.4C129.9 90.1 127.9 92.1 125.5 92.1zM125.5 84.4c-1.9 0-3.4 1.5-3.4 3.4s1.5 3.4 3.4 3.4 3.4-1.5 3.4-3.4S127.3 84.4 125.5 84.4z"/><path fill="#777777" d="M125.5 28.3c-2.4 0-4.4-2-4.4-4.4 0-2.4 2-4.4 4.4-4.4s4.4 2 4.4 4.4C129.9 26.4 127.9 28.3 125.5 28.3zM125.5 20.6c-1.9 0-3.4 1.5-3.4 3.4 0 1.9 1.5 3.4 3.4 3.4s3.4-1.5 3.4-3.4C128.9 22.1 127.3 20.6 125.5 20.6z"/><path fill="#777777" d="M125.5 41.1c-2.4 0-4.4-2-4.4-4.4 0-2.4 2-4.4 4.4-4.4s4.4 2 4.4 4.4C129.9 39.1 127.9 41.1 125.5 41.1zM125.5 33.3c-1.9 0-3.4 1.5-3.4 3.4 0 1.9 1.5 3.4 3.4 3.4s3.4-1.5 3.4-3.4C128.9 34.8 127.3 33.3 125.5 33.3z"/><path fill="#777777" d="M125.5 53.8c-2.4 0-4.4-2-4.4-4.4 0-2.4 2-4.4 4.4-4.4s4.4 2 4.4 4.4C129.9 51.9 127.9 53.8 125.5 53.8zM125.5 46.1c-1.9 0-3.4 1.5-3.4 3.4s1.5 3.4 3.4 3.4 3.4-1.5 3.4-3.4C128.9 47.6 127.3 46.1 125.5 46.1z"/><path fill="#777777" d="M125.5 155.9c-2.4 0-4.4-2-4.4-4.4s2-4.4 4.4-4.4 4.4 2 4.4 4.4S127.9 155.9 125.5 155.9zM125.5 148.2c-1.9 0-3.4 1.5-3.4 3.4 0 1.9 1.5 3.4 3.4 3.4s3.4-1.5 3.4-3.4C128.9 149.7 127.3 148.2 125.5 148.2z"/><path fill="#777777" d="M125.5 168.7c-2.4 0-4.4-2-4.4-4.4s2-4.4 4.4-4.4 4.4 2 4.4 4.4S127.9 168.7 125.5 168.7zM125.5 160.9c-1.9 0-3.4 1.5-3.4 3.4s1.5 3.4 3.4 3.4 3.4-1.5 3.4-3.4S127.3 160.9 125.5 160.9z"/><path fill="#777777" d="M125.5 181.4c-2.4 0-4.4-2-4.4-4.4 0-2.4 2-4.4 4.4-4.4s4.4 2 4.4 4.4C129.9 179.5 127.9 181.4 125.5 181.4zM125.5 173.7c-1.9 0-3.4 1.5-3.4 3.4s1.5 3.4 3.4 3.4 3.4-1.5 3.4-3.4S127.3 173.7 125.5 173.7z"/><path fill="#777777" d="M125.5 104.9c-2.4 0-4.4-2-4.4-4.4s2-4.4 4.4-4.4 4.4 2 4.4 4.4S127.9 104.9 125.5 104.9zM125.5 97.1c-1.9 0-3.4 1.5-3.4 3.4 0 1.9 1.5 3.4 3.4 3.4s3.4-1.5 3.4-3.4C128.9 98.6 127.3 97.1 125.5 97.1z"/><path fill="#777777" d="M125.5 117.6c-2.4 0-4.4-2-4.4-4.4 0-2.4 2-4.4 4.4-4.4s4.4 2 4.4 4.4C129.9 115.7 127.9 117.6 125.5 117.6zM125.5 109.9c-1.9 0-3.4 1.5-3.4 3.4s1.5 3.4 3.4 3.4 3.4-1.5 3.4-3.4C128.9 111.4 127.3 109.9 125.5 109.9z"/><path fill="#777777" d="M125.5 130.4c-2.4 0-4.4-2-4.4-4.4s2-4.4 4.4-4.4 4.4 2 4.4 4.4S127.9 130.4 125.5 130.4zM125.5 122.6c-1.9 0-3.4 1.5-3.4 3.4 0 1.9 1.5 3.4 3.4 3.4s3.4-1.5 3.4-3.4C128.9 124.2 127.3 122.6 125.5 122.6z"/><path fill="#777777" d="M125.5 143.1c-2.4 0-4.4-2-4.4-4.4 0-2.4 2-4.4 4.4-4.4s4.4 2 4.4 4.4C129.9 141.2 127.9 143.1 125.5 143.1zM125.5 135.4c-1.9 0-3.4 1.5-3.4 3.4 0 1.9 1.5 3.4 3.4 3.4s3.4-1.5 3.4-3.4C128.9 136.9 127.3 135.4 125.5 135.4z"/><path fill="#777777" d="M139.5 66.7c-2.4 0-4.4-2-4.4-4.4 0-2.4 2-4.4 4.4-4.4 2.4 0 4.4 2 4.4 4.4C143.9 64.7 141.9 66.7 139.5 66.7zM139.5 58.9c-1.9 0-3.4 1.5-3.4 3.4 0 1.9 1.5 3.4 3.4 3.4s3.4-1.5 3.4-3.4C142.9 60.4 141.4 58.9 139.5 58.9z"/><path fill="#777777" d="M139.5 79.4c-2.4 0-4.4-2-4.4-4.4s2-4.4 4.4-4.4c2.4 0 4.4 2 4.4 4.4S141.9 79.4 139.5 79.4zM139.5 71.7c-1.9 0-3.4 1.5-3.4 3.4s1.5 3.4 3.4 3.4 3.4-1.5 3.4-3.4S141.4 71.7 139.5 71.7z"/><path fill="#777777" d="M139.5 92.2c-2.4 0-4.4-2-4.4-4.4 0-2.4 2-4.4 4.4-4.4 2.4 0 4.4 2 4.4 4.4C143.9 90.2 141.9 92.2 139.5 92.2zM139.5 84.4c-1.9 0-3.4 1.5-3.4 3.4 0 1.9 1.5 3.4 3.4 3.4s3.4-1.5 3.4-3.4C142.9 86 141.4 84.4 139.5 84.4z"/><path fill="#777777" d="M139.5 28.4c-2.4 0-4.4-2-4.4-4.4 0-2.4 2-4.4 4.4-4.4 2.4 0 4.4 2 4.4 4.4C143.9 26.4 141.9 28.4 139.5 28.4zM139.5 20.7c-1.9 0-3.4 1.5-3.4 3.4 0 1.9 1.5 3.4 3.4 3.4s3.4-1.5 3.4-3.4S141.4 20.7 139.5 20.7z"/><path fill="#777777" d="M139.5 41.2c-2.4 0-4.4-2-4.4-4.4 0-2.4 2-4.4 4.4-4.4 2.4 0 4.4 2 4.4 4.4C143.9 39.2 141.9 41.2 139.5 41.2zM139.5 33.4c-1.9 0-3.4 1.5-3.4 3.4 0 1.9 1.5 3.4 3.4 3.4s3.4-1.5 3.4-3.4C142.9 34.9 141.4 33.4 139.5 33.4z"/><path fill="#777777" d="M139.5 53.9c-2.4 0-4.4-2-4.4-4.4 0-2.4 2-4.4 4.4-4.4 2.4 0 4.4 2 4.4 4.4C143.9 52 141.9 53.9 139.5 53.9zM139.5 46.2c-1.9 0-3.4 1.5-3.4 3.4 0 1.9 1.5 3.4 3.4 3.4s3.4-1.5 3.4-3.4C142.9 47.7 141.4 46.2 139.5 46.2z"/><path fill="#777777" d="M139.5 156c-2.4 0-4.4-2-4.4-4.4 0-2.4 2-4.4 4.4-4.4s4.4 2 4.4 4.4C143.9 154 141.9 156 139.5 156zM139.5 148.2c-1.9 0-3.4 1.5-3.4 3.4s1.5 3.4 3.4 3.4c1.9 0 3.4-1.5 3.4-3.4S141.4 148.2 139.5 148.2z"/><path fill="#777777" d="M139.5 168.8c-2.4 0-4.4-2-4.4-4.4s2-4.4 4.4-4.4 4.4 2 4.4 4.4S141.9 168.8 139.5 168.8zM139.5 161c-1.9 0-3.4 1.5-3.4 3.4s1.5 3.4 3.4 3.4c1.9 0 3.4-1.5 3.4-3.4S141.4 161 139.5 161z"/><path fill="#777777" d="M139.5 181.5c-2.4 0-4.4-2-4.4-4.4s2-4.4 4.4-4.4 4.4 2 4.4 4.4C143.9 179.5 141.9 181.5 139.5 181.5zM139.5 173.8c-1.9 0-3.4 1.5-3.4 3.4 0 1.9 1.5 3.4 3.4 3.4 1.9 0 3.4-1.5 3.4-3.4C142.9 175.3 141.4 173.8 139.5 173.8z"/><path fill="#777777" d="M139.5 105c-2.4 0-4.4-2-4.4-4.4s2-4.4 4.4-4.4 4.4 2 4.4 4.4S141.9 105 139.5 105zM139.5 97.2c-1.9 0-3.4 1.5-3.4 3.4 0 1.9 1.5 3.4 3.4 3.4 1.9 0 3.4-1.5 3.4-3.4S141.4 97.2 139.5 97.2z"/><path fill="#777777" d="M139.5 117.7c-2.4 0-4.4-2-4.4-4.4s2-4.4 4.4-4.4 4.4 2 4.4 4.4S141.9 117.7 139.5 117.7zM139.5 110c-1.9 0-3.4 1.5-3.4 3.4 0 1.9 1.5 3.4 3.4 3.4 1.9 0 3.4-1.5 3.4-3.4C142.9 111.5 141.4 110 139.5 110z"/><path fill="#777777" d="M139.5 130.5c-2.4 0-4.4-2-4.4-4.4 0-2.4 2-4.4 4.4-4.4 2.4 0 4.4 2 4.4 4.4C143.9 128.5 141.9 130.5 139.5 130.5zM139.5 122.7c-1.9 0-3.4 1.5-3.4 3.4 0 1.9 1.5 3.4 3.4 3.4s3.4-1.5 3.4-3.4S141.4 122.7 139.5 122.7z"/><path fill="#777777" d="M139.5 143.2c-2.4 0-4.4-2-4.4-4.4s2-4.4 4.4-4.4 4.4 2 4.4 4.4S141.9 143.2 139.5 143.2zM139.5 135.5c-1.9 0-3.4 1.5-3.4 3.4s1.5 3.4 3.4 3.4c1.9 0 3.4-1.5 3.4-3.4S141.4 135.5 139.5 135.5z"/><path fill="#777777" d="M153.8 66.6c-2.4 0-4.4-2-4.4-4.4 0-2.4 2-4.4 4.4-4.4 2.4 0 4.4 2 4.4 4.4C158.2 64.6 156.3 66.6 153.8 66.6zM153.8 58.8c-1.9 0-3.4 1.5-3.4 3.4 0 1.9 1.5 3.4 3.4 3.4 1.9 0 3.4-1.5 3.4-3.4C157.2 60.4 155.7 58.8 153.8 58.8z"/><path fill="#777777" d="M153.8 79.4c-2.4 0-4.4-2-4.4-4.4 0-2.4 2-4.4 4.4-4.4 2.4 0 4.4 2 4.4 4.4C158.2 77.4 156.3 79.4 153.8 79.4zM153.8 71.6c-1.9 0-3.4 1.5-3.4 3.4s1.5 3.4 3.4 3.4c1.9 0 3.4-1.5 3.4-3.4S155.7 71.6 153.8 71.6z"/><path fill="#777777" d="M153.8 92.1c-2.4 0-4.4-2-4.4-4.4 0-2.4 2-4.4 4.4-4.4 2.4 0 4.4 2 4.4 4.4C158.2 90.1 156.3 92.1 153.8 92.1zM153.8 84.4c-1.9 0-3.4 1.5-3.4 3.4s1.5 3.4 3.4 3.4c1.9 0 3.4-1.5 3.4-3.4S155.7 84.4 153.8 84.4z"/><path fill="#777777" d="M153.8 28.3c-2.4 0-4.4-2-4.4-4.4 0-2.4 2-4.4 4.4-4.4 2.4 0 4.4 2 4.4 4.4C158.2 26.4 156.3 28.3 153.8 28.3zM153.8 20.6c-1.9 0-3.4 1.5-3.4 3.4 0 1.9 1.5 3.4 3.4 3.4 1.9 0 3.4-1.5 3.4-3.4C157.2 22.1 155.7 20.6 153.8 20.6z"/><path fill="#777777" d="M153.8 41.1c-2.4 0-4.4-2-4.4-4.4 0-2.4 2-4.4 4.4-4.4 2.4 0 4.4 2 4.4 4.4C158.2 39.1 156.3 41.1 153.8 41.1zM153.8 33.3c-1.9 0-3.4 1.5-3.4 3.4 0 1.9 1.5 3.4 3.4 3.4 1.9 0 3.4-1.5 3.4-3.4C157.2 34.8 155.7 33.3 153.8 33.3z"/><path fill="#777777" d="M153.8 53.8c-2.4 0-4.4-2-4.4-4.4 0-2.4 2-4.4 4.4-4.4 2.4 0 4.4 2 4.4 4.4C158.2 51.9 156.3 53.8 153.8 53.8zM153.8 46.1c-1.9 0-3.4 1.5-3.4 3.4s1.5 3.4 3.4 3.4c1.9 0 3.4-1.5 3.4-3.4C157.2 47.6 155.7 46.1 153.8 46.1z"/><path fill="#777777" d="M153.8 155.9c-2.4 0-4.4-2-4.4-4.4s2-4.4 4.4-4.4c2.4 0 4.4 2 4.4 4.4S156.3 155.9 153.8 155.9zM153.8 148.2c-1.9 0-3.4 1.5-3.4 3.4 0 1.9 1.5 3.4 3.4 3.4 1.9 0 3.4-1.5 3.4-3.4C157.2 149.7 155.7 148.2 153.8 148.2z"/><path fill="#777777" d="M153.8 168.7c-2.4 0-4.4-2-4.4-4.4s2-4.4 4.4-4.4c2.4 0 4.4 2 4.4 4.4S156.3 168.7 153.8 168.7zM153.8 160.9c-1.9 0-3.4 1.5-3.4 3.4s1.5 3.4 3.4 3.4c1.9 0 3.4-1.5 3.4-3.4S155.7 160.9 153.8 160.9z"/><path fill="#777777" d="M153.8 181.4c-2.4 0-4.4-2-4.4-4.4 0-2.4 2-4.4 4.4-4.4 2.4 0 4.4 2 4.4 4.4C158.2 179.5 156.3 181.4 153.8 181.4zM153.8 173.7c-1.9 0-3.4 1.5-3.4 3.4s1.5 3.4 3.4 3.4c1.9 0 3.4-1.5 3.4-3.4S155.7 173.7 153.8 173.7z"/><path fill="#777777" d="M153.8 104.9c-2.4 0-4.4-2-4.4-4.4s2-4.4 4.4-4.4c2.4 0 4.4 2 4.4 4.4S156.3 104.9 153.8 104.9zM153.8 97.1c-1.9 0-3.4 1.5-3.4 3.4 0 1.9 1.5 3.4 3.4 3.4 1.9 0 3.4-1.5 3.4-3.4C157.2 98.6 155.7 97.1 153.8 97.1z"/><path fill="#777777" d="M153.8 117.6c-2.4 0-4.4-2-4.4-4.4 0-2.4 2-4.4 4.4-4.4 2.4 0 4.4 2 4.4 4.4C158.2 115.7 156.3 117.6 153.8 117.6zM153.8 109.9c-1.9 0-3.4 1.5-3.4 3.4s1.5 3.4 3.4 3.4c1.9 0 3.4-1.5 3.4-3.4C157.2 111.4 155.7 109.9 153.8 109.9z"/><path fill="#777777" d="M153.8 130.4c-2.4 0-4.4-2-4.4-4.4s2-4.4 4.4-4.4c2.4 0 4.4 2 4.4 4.4S156.3 130.4 153.8 130.4zM153.8 122.6c-1.9 0-3.4 1.5-3.4 3.4 0 1.9 1.5 3.4 3.4 3.4 1.9 0 3.4-1.5 3.4-3.4C157.2 124.2 155.7 122.6 153.8 122.6z"/><path fill="#777777" d="M153.8 143.1c-2.4 0-4.4-2-4.4-4.4 0-2.4 2-4.4 4.4-4.4 2.4 0 4.4 2 4.4 4.4C158.2 141.2 156.3 143.1 153.8 143.1zM153.8 135.4c-1.9 0-3.4 1.5-3.4 3.4 0 1.9 1.5 3.4 3.4 3.4 1.9 0 3.4-1.5 3.4-3.4C157.2 136.9 155.7 135.4 153.8 135.4z"/><path fill="#777777" d="M167.9 66.7c-2.4 0-4.4-2-4.4-4.4 0-2.4 2-4.4 4.4-4.4 2.4 0 4.4 2 4.4 4.4C172.2 64.7 170.3 66.7 167.9 66.7zM167.9 58.9c-1.9 0-3.4 1.5-3.4 3.4 0 1.9 1.5 3.4 3.4 3.4s3.4-1.5 3.4-3.4C171.2 60.4 169.7 58.9 167.9 58.9z"/><path fill="#777777" d="M167.9 79.4c-2.4 0-4.4-2-4.4-4.4s2-4.4 4.4-4.4c2.4 0 4.4 2 4.4 4.4S170.3 79.4 167.9 79.4zM167.9 71.7c-1.9 0-3.4 1.5-3.4 3.4s1.5 3.4 3.4 3.4 3.4-1.5 3.4-3.4S169.7 71.7 167.9 71.7z"/><path fill="#777777" d="M167.9 92.2c-2.4 0-4.4-2-4.4-4.4 0-2.4 2-4.4 4.4-4.4 2.4 0 4.4 2 4.4 4.4C172.2 90.2 170.3 92.2 167.9 92.2zM167.9 84.4c-1.9 0-3.4 1.5-3.4 3.4 0 1.9 1.5 3.4 3.4 3.4s3.4-1.5 3.4-3.4C171.2 86 169.7 84.4 167.9 84.4z"/><path fill="#777777" d="M167.9 28.4c-2.4 0-4.4-2-4.4-4.4 0-2.4 2-4.4 4.4-4.4 2.4 0 4.4 2 4.4 4.4C172.2 26.4 170.3 28.4 167.9 28.4zM167.9 20.7c-1.9 0-3.4 1.5-3.4 3.4 0 1.9 1.5 3.4 3.4 3.4s3.4-1.5 3.4-3.4S169.7 20.7 167.9 20.7z"/><path fill="#777777" d="M167.9 41.2c-2.4 0-4.4-2-4.4-4.4 0-2.4 2-4.4 4.4-4.4 2.4 0 4.4 2 4.4 4.4C172.2 39.2 170.3 41.2 167.9 41.2zM167.9 33.4c-1.9 0-3.4 1.5-3.4 3.4 0 1.9 1.5 3.4 3.4 3.4s3.4-1.5 3.4-3.4C171.2 34.9 169.7 33.4 167.9 33.4z"/><path fill="#777777" d="M167.9 53.9c-2.4 0-4.4-2-4.4-4.4 0-2.4 2-4.4 4.4-4.4 2.4 0 4.4 2 4.4 4.4C172.2 52 170.3 53.9 167.9 53.9zM167.9 46.2c-1.9 0-3.4 1.5-3.4 3.4 0 1.9 1.5 3.4 3.4 3.4s3.4-1.5 3.4-3.4C171.2 47.7 169.7 46.2 167.9 46.2z"/><path fill="#777777" d="M167.9 156c-2.4 0-4.4-2-4.4-4.4 0-2.4 2-4.4 4.4-4.4 2.4 0 4.4 2 4.4 4.4C172.2 154 170.3 156 167.9 156zM167.9 148.2c-1.9 0-3.4 1.5-3.4 3.4s1.5 3.4 3.4 3.4c1.9 0 3.4-1.5 3.4-3.4S169.7 148.2 167.9 148.2z"/><path fill="#777777" d="M167.9 168.8c-2.4 0-4.4-2-4.4-4.4s2-4.4 4.4-4.4c2.4 0 4.4 2 4.4 4.4S170.3 168.8 167.9 168.8zM167.9 161c-1.9 0-3.4 1.5-3.4 3.4s1.5 3.4 3.4 3.4c1.9 0 3.4-1.5 3.4-3.4S169.7 161 167.9 161z"/><path fill="#777777" d="M167.9 181.5c-2.4 0-4.4-2-4.4-4.4s2-4.4 4.4-4.4c2.4 0 4.4 2 4.4 4.4C172.2 179.5 170.3 181.5 167.9 181.5zM167.9 173.8c-1.9 0-3.4 1.5-3.4 3.4 0 1.9 1.5 3.4 3.4 3.4 1.9 0 3.4-1.5 3.4-3.4C171.2 175.3 169.7 173.8 167.9 173.8z"/><path fill="#777777" d="M167.9 105c-2.4 0-4.4-2-4.4-4.4s2-4.4 4.4-4.4c2.4 0 4.4 2 4.4 4.4S170.3 105 167.9 105zM167.9 97.2c-1.9 0-3.4 1.5-3.4 3.4 0 1.9 1.5 3.4 3.4 3.4 1.9 0 3.4-1.5 3.4-3.4S169.7 97.2 167.9 97.2z"/><path fill="#777777" d="M167.9 117.7c-2.4 0-4.4-2-4.4-4.4s2-4.4 4.4-4.4c2.4 0 4.4 2 4.4 4.4S170.3 117.7 167.9 117.7zM167.9 110c-1.9 0-3.4 1.5-3.4 3.4 0 1.9 1.5 3.4 3.4 3.4 1.9 0 3.4-1.5 3.4-3.4C171.2 111.5 169.7 110 167.9 110z"/><path fill="#777777" d="M167.9 130.5c-2.4 0-4.4-2-4.4-4.4 0-2.4 2-4.4 4.4-4.4 2.4 0 4.4 2 4.4 4.4C172.2 128.5 170.3 130.5 167.9 130.5zM167.9 122.7c-1.9 0-3.4 1.5-3.4 3.4 0 1.9 1.5 3.4 3.4 3.4s3.4-1.5 3.4-3.4S169.7 122.7 167.9 122.7z"/><path fill="#777777" d="M167.9 143.2c-2.4 0-4.4-2-4.4-4.4s2-4.4 4.4-4.4c2.4 0 4.4 2 4.4 4.4S170.3 143.2 167.9 143.2zM167.9 135.5c-1.9 0-3.4 1.5-3.4 3.4s1.5 3.4 3.4 3.4c1.9 0 3.4-1.5 3.4-3.4C171.2 137 169.7 135.5 167.9 135.5z"/><path fill="#777777" d="M182.4 66.6c-2.4 0-4.4-2-4.4-4.4 0-2.4 2-4.4 4.4-4.4 2.4 0 4.4 2 4.4 4.4C186.8 64.6 184.8 66.6 182.4 66.6zM182.4 58.8c-1.9 0-3.4 1.5-3.4 3.4 0 1.9 1.5 3.4 3.4 3.4 1.9 0 3.4-1.5 3.4-3.4C185.8 60.4 184.3 58.8 182.4 58.8z"/><path fill="#777777" d="M182.4 79.4c-2.4 0-4.4-2-4.4-4.4 0-2.4 2-4.4 4.4-4.4 2.4 0 4.4 2 4.4 4.4C186.8 77.4 184.8 79.4 182.4 79.4zM182.4 71.6c-1.9 0-3.4 1.5-3.4 3.4s1.5 3.4 3.4 3.4c1.9 0 3.4-1.5 3.4-3.4S184.3 71.6 182.4 71.6z"/><path fill="#777777" d="M182.4 92.1c-2.4 0-4.4-2-4.4-4.4 0-2.4 2-4.4 4.4-4.4 2.4 0 4.4 2 4.4 4.4C186.8 90.1 184.8 92.1 182.4 92.1zM182.4 84.4c-1.9 0-3.4 1.5-3.4 3.4s1.5 3.4 3.4 3.4c1.9 0 3.4-1.5 3.4-3.4S184.3 84.4 182.4 84.4z"/><path fill="#777777" d="M182.4 28.3c-2.4 0-4.4-2-4.4-4.4 0-2.4 2-4.4 4.4-4.4 2.4 0 4.4 2 4.4 4.4S184.8 28.3 182.4 28.3zM182.4 20.6c-1.9 0-3.4 1.5-3.4 3.4 0 1.9 1.5 3.4 3.4 3.4 1.9 0 3.4-1.5 3.4-3.4C185.8 22.1 184.3 20.6 182.4 20.6z"/><path fill="#777777" d="M182.4 41.1c-2.4 0-4.4-2-4.4-4.4 0-2.4 2-4.4 4.4-4.4 2.4 0 4.4 2 4.4 4.4C186.8 39.1 184.8 41.1 182.4 41.1zM182.4 33.3c-1.9 0-3.4 1.5-3.4 3.4 0 1.9 1.5 3.4 3.4 3.4 1.9 0 3.4-1.5 3.4-3.4C185.8 34.8 184.3 33.3 182.4 33.3z"/><path fill="#777777" d="M182.4 53.8c-2.4 0-4.4-2-4.4-4.4 0-2.4 2-4.4 4.4-4.4 2.4 0 4.4 2 4.4 4.4C186.8 51.9 184.8 53.8 182.4 53.8zM182.4 46.1c-1.9 0-3.4 1.5-3.4 3.4s1.5 3.4 3.4 3.4c1.9 0 3.4-1.5 3.4-3.4C185.8 47.6 184.3 46.1 182.4 46.1z"/><path fill="#777777" d="M182.4 155.9c-2.4 0-4.4-2-4.4-4.4s2-4.4 4.4-4.4c2.4 0 4.4 2 4.4 4.4C186.8 153.9 184.8 155.9 182.4 155.9zM182.4 148.2c-1.9 0-3.4 1.5-3.4 3.4 0 1.9 1.5 3.4 3.4 3.4 1.9 0 3.4-1.5 3.4-3.4C185.8 149.7 184.3 148.2 182.4 148.2z"/><path fill="#777777" d="M182.4 168.7c-2.4 0-4.4-2-4.4-4.4s2-4.4 4.4-4.4c2.4 0 4.4 2 4.4 4.4S184.8 168.7 182.4 168.7zM182.4 160.9c-1.9 0-3.4 1.5-3.4 3.4s1.5 3.4 3.4 3.4c1.9 0 3.4-1.5 3.4-3.4C185.8 162.4 184.3 160.9 182.4 160.9z"/><path fill="#777777" d="M182.4 181.4c-2.4 0-4.4-2-4.4-4.4 0-2.4 2-4.4 4.4-4.4 2.4 0 4.4 2 4.4 4.4C186.8 179.5 184.8 181.4 182.4 181.4zM182.4 173.7c-1.9 0-3.4 1.5-3.4 3.4s1.5 3.4 3.4 3.4c1.9 0 3.4-1.5 3.4-3.4S184.3 173.7 182.4 173.7z"/><path fill="#777777" d="M182.4 104.9c-2.4 0-4.4-2-4.4-4.4s2-4.4 4.4-4.4c2.4 0 4.4 2 4.4 4.4S184.8 104.9 182.4 104.9zM182.4 97.1c-1.9 0-3.4 1.5-3.4 3.4 0 1.9 1.5 3.4 3.4 3.4 1.9 0 3.4-1.5 3.4-3.4C185.8 98.6 184.3 97.1 182.4 97.1z"/><path fill="#777777" d="M182.4 117.6c-2.4 0-4.4-2-4.4-4.4 0-2.4 2-4.4 4.4-4.4 2.4 0 4.4 2 4.4 4.4C186.8 115.7 184.8 117.6 182.4 117.6zM182.4 109.9c-1.9 0-3.4 1.5-3.4 3.4s1.5 3.4 3.4 3.4c1.9 0 3.4-1.5 3.4-3.4S184.3 109.9 182.4 109.9z"/><path fill="#777777" d="M182.4 130.4c-2.4 0-4.4-2-4.4-4.4s2-4.4 4.4-4.4c2.4 0 4.4 2 4.4 4.4S184.8 130.4 182.4 130.4zM182.4 122.6c-1.9 0-3.4 1.5-3.4 3.4 0 1.9 1.5 3.4 3.4 3.4 1.9 0 3.4-1.5 3.4-3.4C185.8 124.2 184.3 122.6 182.4 122.6z"/><path fill="#777777" d="M182.4 143.1c-2.4 0-4.4-2-4.4-4.4 0-2.4 2-4.4 4.4-4.4 2.4 0 4.4 2 4.4 4.4C186.8 141.2 184.8 143.1 182.4 143.1zM182.4 135.4c-1.9 0-3.4 1.5-3.4 3.4 0 1.9 1.5 3.4 3.4 3.4 1.9 0 3.4-1.5 3.4-3.4C185.8 136.9 184.3 135.4 182.4 135.4z"/><path fill="#777777" d="M196.5 66.7c-2.4 0-4.4-2-4.4-4.4 0-2.4 2-4.4 4.4-4.4 2.4 0 4.4 2 4.4 4.4C200.8 64.7 198.9 66.7 196.5 66.7zM196.5 58.9c-1.9 0-3.4 1.5-3.4 3.4 0 1.9 1.5 3.4 3.4 3.4 1.9 0 3.4-1.5 3.4-3.4C199.8 60.4 198.3 58.9 196.5 58.9z"/><path fill="#777777" d="M196.5 79.4c-2.4 0-4.4-2-4.4-4.4s2-4.4 4.4-4.4c2.4 0 4.4 2 4.4 4.4S198.9 79.4 196.5 79.4zM196.5 71.7c-1.9 0-3.4 1.5-3.4 3.4s1.5 3.4 3.4 3.4c1.9 0 3.4-1.5 3.4-3.4S198.3 71.7 196.5 71.7z"/><path fill="#777777" d="M196.5 92.2c-2.4 0-4.4-2-4.4-4.4 0-2.4 2-4.4 4.4-4.4 2.4 0 4.4 2 4.4 4.4C200.8 90.2 198.9 92.2 196.5 92.2zM196.5 84.4c-1.9 0-3.4 1.5-3.4 3.4 0 1.9 1.5 3.4 3.4 3.4 1.9 0 3.4-1.5 3.4-3.4C199.8 86 198.3 84.4 196.5 84.4z"/><path fill="#777777" d="M196.5 28.4c-2.4 0-4.4-2-4.4-4.4 0-2.4 2-4.4 4.4-4.4 2.4 0 4.4 2 4.4 4.4C200.8 26.4 198.9 28.4 196.5 28.4zM196.5 20.7c-1.9 0-3.4 1.5-3.4 3.4 0 1.9 1.5 3.4 3.4 3.4 1.9 0 3.4-1.5 3.4-3.4C199.8 22.2 198.3 20.7 196.5 20.7z"/><path fill="#777777" d="M196.5 41.2c-2.4 0-4.4-2-4.4-4.4 0-2.4 2-4.4 4.4-4.4 2.4 0 4.4 2 4.4 4.4C200.8 39.2 198.9 41.2 196.5 41.2zM196.5 33.4c-1.9 0-3.4 1.5-3.4 3.4 0 1.9 1.5 3.4 3.4 3.4 1.9 0 3.4-1.5 3.4-3.4C199.8 34.9 198.3 33.4 196.5 33.4z"/><path fill="#777777" d="M196.5 53.9c-2.4 0-4.4-2-4.4-4.4 0-2.4 2-4.4 4.4-4.4 2.4 0 4.4 2 4.4 4.4C200.8 52 198.9 53.9 196.5 53.9zM196.5 46.2c-1.9 0-3.4 1.5-3.4 3.4 0 1.9 1.5 3.4 3.4 3.4 1.9 0 3.4-1.5 3.4-3.4C199.8 47.7 198.3 46.2 196.5 46.2z"/><path fill="#777777" d="M196.5 156c-2.4 0-4.4-2-4.4-4.4 0-2.4 2-4.4 4.4-4.4 2.4 0 4.4 2 4.4 4.4C200.8 154 198.9 156 196.5 156zM196.5 148.2c-1.9 0-3.4 1.5-3.4 3.4s1.5 3.4 3.4 3.4 3.4-1.5 3.4-3.4S198.3 148.2 196.5 148.2z"/><path fill="#777777" d="M196.5 168.8c-2.4 0-4.4-2-4.4-4.4s2-4.4 4.4-4.4c2.4 0 4.4 2 4.4 4.4S198.9 168.8 196.5 168.8zM196.5 161c-1.9 0-3.4 1.5-3.4 3.4s1.5 3.4 3.4 3.4 3.4-1.5 3.4-3.4S198.3 161 196.5 161z"/><path fill="#777777" d="M196.5 181.5c-2.4 0-4.4-2-4.4-4.4s2-4.4 4.4-4.4c2.4 0 4.4 2 4.4 4.4C200.8 179.5 198.9 181.5 196.5 181.5zM196.5 173.8c-1.9 0-3.4 1.5-3.4 3.4 0 1.9 1.5 3.4 3.4 3.4s3.4-1.5 3.4-3.4C199.8 175.3 198.3 173.8 196.5 173.8z"/><path fill="#777777" d="M196.5 105c-2.4 0-4.4-2-4.4-4.4s2-4.4 4.4-4.4c2.4 0 4.4 2 4.4 4.4S198.9 105 196.5 105zM196.5 97.2c-1.9 0-3.4 1.5-3.4 3.4 0 1.9 1.5 3.4 3.4 3.4s3.4-1.5 3.4-3.4S198.3 97.2 196.5 97.2z"/><path fill="#777777" d="M196.5 117.7c-2.4 0-4.4-2-4.4-4.4s2-4.4 4.4-4.4c2.4 0 4.4 2 4.4 4.4S198.9 117.7 196.5 117.7zM196.5 110c-1.9 0-3.4 1.5-3.4 3.4 0 1.9 1.5 3.4 3.4 3.4s3.4-1.5 3.4-3.4C199.8 111.5 198.3 110 196.5 110z"/><path fill="#777777" d="M196.5 130.5c-2.4 0-4.4-2-4.4-4.4 0-2.4 2-4.4 4.4-4.4 2.4 0 4.4 2 4.4 4.4C200.8 128.5 198.9 130.5 196.5 130.5zM196.5 122.7c-1.9 0-3.4 1.5-3.4 3.4 0 1.9 1.5 3.4 3.4 3.4 1.9 0 3.4-1.5 3.4-3.4C199.8 124.2 198.3 122.7 196.5 122.7z"/><path fill="#777777" d="M196.5 143.2c-2.4 0-4.4-2-4.4-4.4s2-4.4 4.4-4.4c2.4 0 4.4 2 4.4 4.4S198.9 143.2 196.5 143.2zM196.5 135.5c-1.9 0-3.4 1.5-3.4 3.4s1.5 3.4 3.4 3.4 3.4-1.5 3.4-3.4S198.3 135.5 196.5 135.5z"/><path fill="#777777" d="M210.3 66.6c-2.4 0-4.4-2-4.4-4.4 0-2.4 2-4.4 4.4-4.4 2.4 0 4.4 2 4.4 4.4C214.7 64.6 212.7 66.6 210.3 66.6zM210.3 58.8c-1.9 0-3.4 1.5-3.4 3.4 0 1.9 1.5 3.4 3.4 3.4 1.9 0 3.4-1.5 3.4-3.4C213.7 60.4 212.2 58.8 210.3 58.8z"/><path fill="#777777" d="M210.3 79.4c-2.4 0-4.4-2-4.4-4.4 0-2.4 2-4.4 4.4-4.4 2.4 0 4.4 2 4.4 4.4C214.7 77.4 212.7 79.4 210.3 79.4zM210.3 71.6c-1.9 0-3.4 1.5-3.4 3.4s1.5 3.4 3.4 3.4c1.9 0 3.4-1.5 3.4-3.4S212.2 71.6 210.3 71.6z"/><path fill="#777777" d="M210.3 92.1c-2.4 0-4.4-2-4.4-4.4 0-2.4 2-4.4 4.4-4.4 2.4 0 4.4 2 4.4 4.4C214.7 90.1 212.7 92.1 210.3 92.1zM210.3 84.4c-1.9 0-3.4 1.5-3.4 3.4s1.5 3.4 3.4 3.4c1.9 0 3.4-1.5 3.4-3.4S212.2 84.4 210.3 84.4z"/><path fill="#777777" d="M210.3 28.3c-2.4 0-4.4-2-4.4-4.4 0-2.4 2-4.4 4.4-4.4 2.4 0 4.4 2 4.4 4.4S212.7 28.3 210.3 28.3zM210.3 20.6c-1.9 0-3.4 1.5-3.4 3.4 0 1.9 1.5 3.4 3.4 3.4 1.9 0 3.4-1.5 3.4-3.4C213.7 22.1 212.2 20.6 210.3 20.6z"/><path fill="#777777" d="M210.3 41.1c-2.4 0-4.4-2-4.4-4.4 0-2.4 2-4.4 4.4-4.4 2.4 0 4.4 2 4.4 4.4C214.7 39.1 212.7 41.1 210.3 41.1zM210.3 33.3c-1.9 0-3.4 1.5-3.4 3.4 0 1.9 1.5 3.4 3.4 3.4 1.9 0 3.4-1.5 3.4-3.4C213.7 34.8 212.2 33.3 210.3 33.3z"/><path fill="#777777" d="M210.3 53.8c-2.4 0-4.4-2-4.4-4.4 0-2.4 2-4.4 4.4-4.4 2.4 0 4.4 2 4.4 4.4C214.7 51.9 212.7 53.8 210.3 53.8zM210.3 46.1c-1.9 0-3.4 1.5-3.4 3.4s1.5 3.4 3.4 3.4c1.9 0 3.4-1.5 3.4-3.4C213.7 47.6 212.2 46.1 210.3 46.1z"/><path fill="#777777" d="M210.3 155.9c-2.4 0-4.4-2-4.4-4.4s2-4.4 4.4-4.4 4.4 2 4.4 4.4S212.7 155.9 210.3 155.9zM210.3 148.2c-1.9 0-3.4 1.5-3.4 3.4 0 1.9 1.5 3.4 3.4 3.4s3.4-1.5 3.4-3.4C213.7 149.7 212.2 148.2 210.3 148.2z"/><path fill="#777777" d="M210.3 168.7c-2.4 0-4.4-2-4.4-4.4s2-4.4 4.4-4.4 4.4 2 4.4 4.4S212.7 168.7 210.3 168.7zM210.3 160.9c-1.9 0-3.4 1.5-3.4 3.4s1.5 3.4 3.4 3.4 3.4-1.5 3.4-3.4S212.2 160.9 210.3 160.9z"/><path fill="#777777" d="M210.3 181.4c-2.4 0-4.4-2-4.4-4.4 0-2.4 2-4.4 4.4-4.4s4.4 2 4.4 4.4C214.7 179.5 212.7 181.4 210.3 181.4zM210.3 173.7c-1.9 0-3.4 1.5-3.4 3.4s1.5 3.4 3.4 3.4 3.4-1.5 3.4-3.4S212.2 173.7 210.3 173.7z"/><path fill="#777777" d="M210.3 104.9c-2.4 0-4.4-2-4.4-4.4s2-4.4 4.4-4.4 4.4 2 4.4 4.4S212.7 104.9 210.3 104.9zM210.3 97.1c-1.9 0-3.4 1.5-3.4 3.4 0 1.9 1.5 3.4 3.4 3.4s3.4-1.5 3.4-3.4C213.7 98.6 212.2 97.1 210.3 97.1z"/><path fill="#777777" d="M210.3 117.6c-2.4 0-4.4-2-4.4-4.4 0-2.4 2-4.4 4.4-4.4 2.4 0 4.4 2 4.4 4.4C214.7 115.7 212.7 117.6 210.3 117.6zM210.3 109.9c-1.9 0-3.4 1.5-3.4 3.4s1.5 3.4 3.4 3.4c1.9 0 3.4-1.5 3.4-3.4S212.2 109.9 210.3 109.9z"/><path fill="#777777" d="M210.3 130.4c-2.4 0-4.4-2-4.4-4.4s2-4.4 4.4-4.4c2.4 0 4.4 2 4.4 4.4S212.7 130.4 210.3 130.4zM210.3 122.6c-1.9 0-3.4 1.5-3.4 3.4 0 1.9 1.5 3.4 3.4 3.4 1.9 0 3.4-1.5 3.4-3.4C213.7 124.2 212.2 122.6 210.3 122.6z"/><path fill="#777777" d="M210.3 143.1c-2.4 0-4.4-2-4.4-4.4 0-2.4 2-4.4 4.4-4.4s4.4 2 4.4 4.4C214.7 141.2 212.7 143.1 210.3 143.1zM210.3 135.4c-1.9 0-3.4 1.5-3.4 3.4 0 1.9 1.5 3.4 3.4 3.4s3.4-1.5 3.4-3.4C213.7 136.9 212.2 135.4 210.3 135.4z"/><path fill="#777777" d="M224.4 66.7c-2.4 0-4.4-2-4.4-4.4 0-2.4 2-4.4 4.4-4.4 2.4 0 4.4 2 4.4 4.4C228.7 64.7 226.8 66.7 224.4 66.7zM224.4 58.9c-1.9 0-3.4 1.5-3.4 3.4 0 1.9 1.5 3.4 3.4 3.4 1.9 0 3.4-1.5 3.4-3.4C227.7 60.4 226.2 58.9 224.4 58.9z"/><path fill="#777777" d="M224.4 79.4c-2.4 0-4.4-2-4.4-4.4s2-4.4 4.4-4.4c2.4 0 4.4 2 4.4 4.4S226.8 79.4 224.4 79.4zM224.4 71.7c-1.9 0-3.4 1.5-3.4 3.4s1.5 3.4 3.4 3.4c1.9 0 3.4-1.5 3.4-3.4S226.2 71.7 224.4 71.7z"/><path fill="#777777" d="M224.4 92.2c-2.4 0-4.4-2-4.4-4.4 0-2.4 2-4.4 4.4-4.4 2.4 0 4.4 2 4.4 4.4C228.7 90.2 226.8 92.2 224.4 92.2zM224.4 84.4c-1.9 0-3.4 1.5-3.4 3.4 0 1.9 1.5 3.4 3.4 3.4 1.9 0 3.4-1.5 3.4-3.4C227.7 86 226.2 84.4 224.4 84.4z"/><path fill="#777777" d="M224.4 28.4c-2.4 0-4.4-2-4.4-4.4 0-2.4 2-4.4 4.4-4.4 2.4 0 4.4 2 4.4 4.4C228.7 26.4 226.8 28.4 224.4 28.4zM224.4 20.7c-1.9 0-3.4 1.5-3.4 3.4 0 1.9 1.5 3.4 3.4 3.4 1.9 0 3.4-1.5 3.4-3.4C227.7 22.2 226.2 20.7 224.4 20.7z"/><path fill="#777777" d="M224.4 41.2c-2.4 0-4.4-2-4.4-4.4 0-2.4 2-4.4 4.4-4.4 2.4 0 4.4 2 4.4 4.4C228.7 39.2 226.8 41.2 224.4 41.2zM224.4 33.4c-1.9 0-3.4 1.5-3.4 3.4 0 1.9 1.5 3.4 3.4 3.4 1.9 0 3.4-1.5 3.4-3.4C227.7 34.9 226.2 33.4 224.4 33.4z"/><path fill="#777777" d="M224.4 53.9c-2.4 0-4.4-2-4.4-4.4 0-2.4 2-4.4 4.4-4.4 2.4 0 4.4 2 4.4 4.4C228.7 52 226.8 53.9 224.4 53.9zM224.4 46.2c-1.9 0-3.4 1.5-3.4 3.4 0 1.9 1.5 3.4 3.4 3.4 1.9 0 3.4-1.5 3.4-3.4C227.7 47.7 226.2 46.2 224.4 46.2z"/><path fill="#777777" d="M224.4 156c-2.4 0-4.4-2-4.4-4.4 0-2.4 2-4.4 4.4-4.4 2.4 0 4.4 2 4.4 4.4C228.7 154 226.8 156 224.4 156zM224.4 148.2c-1.9 0-3.4 1.5-3.4 3.4s1.5 3.4 3.4 3.4 3.4-1.5 3.4-3.4S226.2 148.2 224.4 148.2z"/><path fill="#777777" d="M224.4 168.8c-2.4 0-4.4-2-4.4-4.4s2-4.4 4.4-4.4c2.4 0 4.4 2 4.4 4.4S226.8 168.8 224.4 168.8zM224.4 161c-1.9 0-3.4 1.5-3.4 3.4s1.5 3.4 3.4 3.4 3.4-1.5 3.4-3.4S226.2 161 224.4 161z"/><path fill="#777777" d="M224.4 181.5c-2.4 0-4.4-2-4.4-4.4s2-4.4 4.4-4.4c2.4 0 4.4 2 4.4 4.4C228.7 179.5 226.8 181.5 224.4 181.5zM224.4 173.8c-1.9 0-3.4 1.5-3.4 3.4 0 1.9 1.5 3.4 3.4 3.4s3.4-1.5 3.4-3.4C227.7 175.3 226.2 173.8 224.4 173.8z"/><path fill="#777777" d="M224.4 105c-2.4 0-4.4-2-4.4-4.4s2-4.4 4.4-4.4c2.4 0 4.4 2 4.4 4.4S226.8 105 224.4 105zM224.4 97.2c-1.9 0-3.4 1.5-3.4 3.4 0 1.9 1.5 3.4 3.4 3.4s3.4-1.5 3.4-3.4S226.2 97.2 224.4 97.2z"/><path fill="#777777" d="M224.4 117.7c-2.4 0-4.4-2-4.4-4.4s2-4.4 4.4-4.4c2.4 0 4.4 2 4.4 4.4S226.8 117.7 224.4 117.7zM224.4 110c-1.9 0-3.4 1.5-3.4 3.4 0 1.9 1.5 3.4 3.4 3.4s3.4-1.5 3.4-3.4C227.7 111.5 226.2 110 224.4 110z"/><path fill="#777777" d="M224.4 130.5c-2.4 0-4.4-2-4.4-4.4 0-2.4 2-4.4 4.4-4.4 2.4 0 4.4 2 4.4 4.4C228.7 128.5 226.8 130.5 224.4 130.5zM224.4 122.7c-1.9 0-3.4 1.5-3.4 3.4 0 1.9 1.5 3.4 3.4 3.4 1.9 0 3.4-1.5 3.4-3.4C227.7 124.2 226.2 122.7 224.4 122.7z"/><path fill="#777777" d="M224.4 143.2c-2.4 0-4.4-2-4.4-4.4s2-4.4 4.4-4.4c2.4 0 4.4 2 4.4 4.4S226.8 143.2 224.4 143.2zM224.4 135.5c-1.9 0-3.4 1.5-3.4 3.4s1.5 3.4 3.4 3.4 3.4-1.5 3.4-3.4S226.2 135.5 224.4 135.5z"/><path fill="#777777" d="M237.9 66.6c-2.4 0-4.4-2-4.4-4.4 0-2.4 2-4.4 4.4-4.4 2.4 0 4.4 2 4.4 4.4C242.2 64.6 240.3 66.6 237.9 66.6zM237.9 58.8c-1.9 0-3.4 1.5-3.4 3.4 0 1.9 1.5 3.4 3.4 3.4 1.9 0 3.4-1.5 3.4-3.4C241.2 60.4 239.7 58.8 237.9 58.8z"/><path fill="#777777" d="M237.9 79.4c-2.4 0-4.4-2-4.4-4.4 0-2.4 2-4.4 4.4-4.4 2.4 0 4.4 2 4.4 4.4C242.2 77.4 240.3 79.4 237.9 79.4zM237.9 71.6c-1.9 0-3.4 1.5-3.4 3.4s1.5 3.4 3.4 3.4c1.9 0 3.4-1.5 3.4-3.4S239.7 71.6 237.9 71.6z"/><path fill="#777777" d="M237.9 92.1c-2.4 0-4.4-2-4.4-4.4 0-2.4 2-4.4 4.4-4.4 2.4 0 4.4 2 4.4 4.4C242.2 90.1 240.3 92.1 237.9 92.1zM237.9 84.4c-1.9 0-3.4 1.5-3.4 3.4s1.5 3.4 3.4 3.4c1.9 0 3.4-1.5 3.4-3.4S239.7 84.4 237.9 84.4z"/><path fill="#777777" d="M237.9 28.3c-2.4 0-4.4-2-4.4-4.4 0-2.4 2-4.4 4.4-4.4 2.4 0 4.4 2 4.4 4.4S240.3 28.3 237.9 28.3zM237.9 20.6c-1.9 0-3.4 1.5-3.4 3.4 0 1.9 1.5 3.4 3.4 3.4 1.9 0 3.4-1.5 3.4-3.4C241.2 22.1 239.7 20.6 237.9 20.6z"/><path fill="#777777" d="M237.9 41.1c-2.4 0-4.4-2-4.4-4.4 0-2.4 2-4.4 4.4-4.4 2.4 0 4.4 2 4.4 4.4C242.2 39.1 240.3 41.1 237.9 41.1zM237.9 33.3c-1.9 0-3.4 1.5-3.4 3.4 0 1.9 1.5 3.4 3.4 3.4 1.9 0 3.4-1.5 3.4-3.4C241.2 34.8 239.7 33.3 237.9 33.3z"/><path fill="#777777" d="M237.9 53.8c-2.4 0-4.4-2-4.4-4.4 0-2.4 2-4.4 4.4-4.4 2.4 0 4.4 2 4.4 4.4C242.2 51.9 240.3 53.8 237.9 53.8zM237.9 46.1c-1.9 0-3.4 1.5-3.4 3.4s1.5 3.4 3.4 3.4c1.9 0 3.4-1.5 3.4-3.4C241.2 47.6 239.7 46.1 237.9 46.1z"/><path fill="#777777" d="M237.9 155.9c-2.4 0-4.4-2-4.4-4.4s2-4.4 4.4-4.4c2.4 0 4.4 2 4.4 4.4S240.3 155.9 237.9 155.9zM237.9 148.2c-1.9 0-3.4 1.5-3.4 3.4 0 1.9 1.5 3.4 3.4 3.4 1.9 0 3.4-1.5 3.4-3.4C241.2 149.7 239.7 148.2 237.9 148.2z"/><path fill="#777777" d="M237.9 168.7c-2.4 0-4.4-2-4.4-4.4s2-4.4 4.4-4.4c2.4 0 4.4 2 4.4 4.4S240.3 168.7 237.9 168.7zM237.9 160.9c-1.9 0-3.4 1.5-3.4 3.4s1.5 3.4 3.4 3.4c1.9 0 3.4-1.5 3.4-3.4S239.7 160.9 237.9 160.9z"/><path fill="#777777" d="M237.9 181.4c-2.4 0-4.4-2-4.4-4.4 0-2.4 2-4.4 4.4-4.4 2.4 0 4.4 2 4.4 4.4C242.2 179.5 240.3 181.4 237.9 181.4zM237.9 173.7c-1.9 0-3.4 1.5-3.4 3.4s1.5 3.4 3.4 3.4c1.9 0 3.4-1.5 3.4-3.4S239.7 173.7 237.9 173.7z"/><path fill="#777777" d="M237.9 104.9c-2.4 0-4.4-2-4.4-4.4s2-4.4 4.4-4.4c2.4 0 4.4 2 4.4 4.4S240.3 104.9 237.9 104.9zM237.9 97.1c-1.9 0-3.4 1.5-3.4 3.4 0 1.9 1.5 3.4 3.4 3.4 1.9 0 3.4-1.5 3.4-3.4C241.2 98.6 239.7 97.1 237.9 97.1z"/><path fill="#777777" d="M237.9 117.6c-2.4 0-4.4-2-4.4-4.4 0-2.4 2-4.4 4.4-4.4 2.4 0 4.4 2 4.4 4.4C242.2 115.7 240.3 117.6 237.9 117.6zM237.9 109.9c-1.9 0-3.4 1.5-3.4 3.4s1.5 3.4 3.4 3.4c1.9 0 3.4-1.5 3.4-3.4S239.7 109.9 237.9 109.9z"/><path fill="#777777" d="M237.9 130.4c-2.4 0-4.4-2-4.4-4.4s2-4.4 4.4-4.4c2.4 0 4.4 2 4.4 4.4S240.3 130.4 237.9 130.4zM237.9 122.6c-1.9 0-3.4 1.5-3.4 3.4 0 1.9 1.5 3.4 3.4 3.4 1.9 0 3.4-1.5 3.4-3.4C241.2 124.2 239.7 122.6 237.9 122.6z"/><path fill="#777777" d="M237.9 143.1c-2.4 0-4.4-2-4.4-4.4 0-2.4 2-4.4 4.4-4.4 2.4 0 4.4 2 4.4 4.4C242.2 141.2 240.3 143.1 237.9 143.1zM237.9 135.4c-1.9 0-3.4 1.5-3.4 3.4 0 1.9 1.5 3.4 3.4 3.4 1.9 0 3.4-1.5 3.4-3.4C241.2 136.9 239.7 135.4 237.9 135.4z"/><path fill="#777777" d="M251.9 66.7c-2.4 0-4.4-2-4.4-4.4 0-2.4 2-4.4 4.4-4.4 2.4 0 4.4 2 4.4 4.4C256.3 64.7 254.3 66.7 251.9 66.7zM251.9 58.9c-1.9 0-3.4 1.5-3.4 3.4 0 1.9 1.5 3.4 3.4 3.4 1.9 0 3.4-1.5 3.4-3.4C255.3 60.4 253.7 58.9 251.9 58.9z"/><path fill="#777777" d="M251.9 79.4c-2.4 0-4.4-2-4.4-4.4s2-4.4 4.4-4.4c2.4 0 4.4 2 4.4 4.4S254.3 79.4 251.9 79.4zM251.9 71.7c-1.9 0-3.4 1.5-3.4 3.4s1.5 3.4 3.4 3.4c1.9 0 3.4-1.5 3.4-3.4S253.7 71.7 251.9 71.7z"/><path fill="#777777" d="M251.9 92.2c-2.4 0-4.4-2-4.4-4.4 0-2.4 2-4.4 4.4-4.4 2.4 0 4.4 2 4.4 4.4C256.3 90.2 254.3 92.2 251.9 92.2zM251.9 84.4c-1.9 0-3.4 1.5-3.4 3.4 0 1.9 1.5 3.4 3.4 3.4 1.9 0 3.4-1.5 3.4-3.4C255.3 86 253.7 84.4 251.9 84.4z"/><path fill="#777777" d="M251.9 28.4c-2.4 0-4.4-2-4.4-4.4 0-2.4 2-4.4 4.4-4.4 2.4 0 4.4 2 4.4 4.4C256.3 26.4 254.3 28.4 251.9 28.4zM251.9 20.7c-1.9 0-3.4 1.5-3.4 3.4 0 1.9 1.5 3.4 3.4 3.4 1.9 0 3.4-1.5 3.4-3.4S253.7 20.7 251.9 20.7z"/><path fill="#777777" d="M251.9 41.2c-2.4 0-4.4-2-4.4-4.4 0-2.4 2-4.4 4.4-4.4 2.4 0 4.4 2 4.4 4.4C256.3 39.2 254.3 41.2 251.9 41.2zM251.9 33.4c-1.9 0-3.4 1.5-3.4 3.4 0 1.9 1.5 3.4 3.4 3.4 1.9 0 3.4-1.5 3.4-3.4C255.3 34.9 253.7 33.4 251.9 33.4z"/><path fill="#777777" d="M251.9 53.9c-2.4 0-4.4-2-4.4-4.4 0-2.4 2-4.4 4.4-4.4 2.4 0 4.4 2 4.4 4.4C256.3 52 254.3 53.9 251.9 53.9zM251.9 46.2c-1.9 0-3.4 1.5-3.4 3.4 0 1.9 1.5 3.4 3.4 3.4 1.9 0 3.4-1.5 3.4-3.4C255.3 47.7 253.7 46.2 251.9 46.2z"/><path fill="#777777" d="M251.9 156c-2.4 0-4.4-2-4.4-4.4 0-2.4 2-4.4 4.4-4.4 2.4 0 4.4 2 4.4 4.4C256.3 154 254.3 156 251.9 156zM251.9 148.2c-1.9 0-3.4 1.5-3.4 3.4s1.5 3.4 3.4 3.4c1.9 0 3.4-1.5 3.4-3.4S253.7 148.2 251.9 148.2z"/><path fill="#777777" d="M251.9 168.8c-2.4 0-4.4-2-4.4-4.4s2-4.4 4.4-4.4c2.4 0 4.4 2 4.4 4.4S254.3 168.8 251.9 168.8zM251.9 161c-1.9 0-3.4 1.5-3.4 3.4s1.5 3.4 3.4 3.4c1.9 0 3.4-1.5 3.4-3.4S253.7 161 251.9 161z"/><path fill="#777777" d="M251.9 181.5c-2.4 0-4.4-2-4.4-4.4s2-4.4 4.4-4.4c2.4 0 4.4 2 4.4 4.4C256.3 179.5 254.3 181.5 251.9 181.5zM251.9 173.8c-1.9 0-3.4 1.5-3.4 3.4 0 1.9 1.5 3.4 3.4 3.4 1.9 0 3.4-1.5 3.4-3.4C255.3 175.3 253.7 173.8 251.9 173.8z"/><path fill="#777777" d="M251.9 105c-2.4 0-4.4-2-4.4-4.4s2-4.4 4.4-4.4c2.4 0 4.4 2 4.4 4.4S254.3 105 251.9 105zM251.9 97.2c-1.9 0-3.4 1.5-3.4 3.4 0 1.9 1.5 3.4 3.4 3.4 1.9 0 3.4-1.5 3.4-3.4S253.7 97.2 251.9 97.2z"/><path fill="#777777" d="M251.9 117.7c-2.4 0-4.4-2-4.4-4.4s2-4.4 4.4-4.4c2.4 0 4.4 2 4.4 4.4S254.3 117.7 251.9 117.7zM251.9 110c-1.9 0-3.4 1.5-3.4 3.4 0 1.9 1.5 3.4 3.4 3.4 1.9 0 3.4-1.5 3.4-3.4C255.3 111.5 253.7 110 251.9 110z"/><path fill="#777777" d="M251.9 130.5c-2.4 0-4.4-2-4.4-4.4 0-2.4 2-4.4 4.4-4.4 2.4 0 4.4 2 4.4 4.4C256.3 128.5 254.3 130.5 251.9 130.5zM251.9 122.7c-1.9 0-3.4 1.5-3.4 3.4 0 1.9 1.5 3.4 3.4 3.4 1.9 0 3.4-1.5 3.4-3.4S253.7 122.7 251.9 122.7z"/><path fill="#777777" d="M251.9 143.2c-2.4 0-4.4-2-4.4-4.4s2-4.4 4.4-4.4c2.4 0 4.4 2 4.4 4.4S254.3 143.2 251.9 143.2zM251.9 135.5c-1.9 0-3.4 1.5-3.4 3.4s1.5 3.4 3.4 3.4c1.9 0 3.4-1.5 3.4-3.4S253.7 135.5 251.9 135.5z"/><path fill="#777777" d="M266.4 66.6c-2.4 0-4.4-2-4.4-4.4 0-2.4 2-4.4 4.4-4.4 2.4 0 4.4 2 4.4 4.4C270.8 64.6 268.9 66.6 266.4 66.6zM266.4 58.8c-1.9 0-3.4 1.5-3.4 3.4 0 1.9 1.5 3.4 3.4 3.4 1.9 0 3.4-1.5 3.4-3.4C269.8 60.4 268.3 58.8 266.4 58.8z"/><path fill="#777777" d="M266.4 79.4c-2.4 0-4.4-2-4.4-4.4 0-2.4 2-4.4 4.4-4.4 2.4 0 4.4 2 4.4 4.4C270.8 77.4 268.9 79.4 266.4 79.4zM266.4 71.6c-1.9 0-3.4 1.5-3.4 3.4s1.5 3.4 3.4 3.4c1.9 0 3.4-1.5 3.4-3.4S268.3 71.6 266.4 71.6z"/><path fill="#777777" d="M266.4 92.1c-2.4 0-4.4-2-4.4-4.4 0-2.4 2-4.4 4.4-4.4 2.4 0 4.4 2 4.4 4.4C270.8 90.1 268.9 92.1 266.4 92.1zM266.4 84.4c-1.9 0-3.4 1.5-3.4 3.4s1.5 3.4 3.4 3.4c1.9 0 3.4-1.5 3.4-3.4S268.3 84.4 266.4 84.4z"/><path fill="#777777" d="M266.4 28.3c-2.4 0-4.4-2-4.4-4.4 0-2.4 2-4.4 4.4-4.4 2.4 0 4.4 2 4.4 4.4S268.9 28.3 266.4 28.3zM266.4 20.6c-1.9 0-3.4 1.5-3.4 3.4 0 1.9 1.5 3.4 3.4 3.4 1.9 0 3.4-1.5 3.4-3.4C269.8 22.1 268.3 20.6 266.4 20.6z"/><path fill="#777777" d="M266.4 41.1c-2.4 0-4.4-2-4.4-4.4 0-2.4 2-4.4 4.4-4.4 2.4 0 4.4 2 4.4 4.4C270.8 39.1 268.9 41.1 266.4 41.1zM266.4 33.3c-1.9 0-3.4 1.5-3.4 3.4 0 1.9 1.5 3.4 3.4 3.4 1.9 0 3.4-1.5 3.4-3.4C269.8 34.8 268.3 33.3 266.4 33.3z"/><path fill="#777777" d="M266.4 53.8c-2.4 0-4.4-2-4.4-4.4 0-2.4 2-4.4 4.4-4.4 2.4 0 4.4 2 4.4 4.4C270.8 51.9 268.9 53.8 266.4 53.8zM266.4 46.1c-1.9 0-3.4 1.5-3.4 3.4s1.5 3.4 3.4 3.4c1.9 0 3.4-1.5 3.4-3.4C269.8 47.6 268.3 46.1 266.4 46.1z"/><path fill="#777777" d="M266.4 155.9c-2.4 0-4.4-2-4.4-4.4s2-4.4 4.4-4.4c2.4 0 4.4 2 4.4 4.4S268.9 155.9 266.4 155.9zM266.4 148.2c-1.9 0-3.4 1.5-3.4 3.4 0 1.9 1.5 3.4 3.4 3.4 1.9 0 3.4-1.5 3.4-3.4C269.8 149.7 268.3 148.2 266.4 148.2z"/><path fill="#777777" d="M266.4 168.7c-2.4 0-4.4-2-4.4-4.4s2-4.4 4.4-4.4c2.4 0 4.4 2 4.4 4.4S268.9 168.7 266.4 168.7zM266.4 160.9c-1.9 0-3.4 1.5-3.4 3.4s1.5 3.4 3.4 3.4c1.9 0 3.4-1.5 3.4-3.4S268.3 160.9 266.4 160.9z"/><path fill="#777777" d="M266.4 181.4c-2.4 0-4.4-2-4.4-4.4 0-2.4 2-4.4 4.4-4.4 2.4 0 4.4 2 4.4 4.4C270.8 179.5 268.9 181.4 266.4 181.4zM266.4 173.7c-1.9 0-3.4 1.5-3.4 3.4s1.5 3.4 3.4 3.4c1.9 0 3.4-1.5 3.4-3.4S268.3 173.7 266.4 173.7z"/><path fill="#777777" d="M266.4 104.9c-2.4 0-4.4-2-4.4-4.4s2-4.4 4.4-4.4c2.4 0 4.4 2 4.4 4.4S268.9 104.9 266.4 104.9zM266.4 97.1c-1.9 0-3.4 1.5-3.4 3.4 0 1.9 1.5 3.4 3.4 3.4 1.9 0 3.4-1.5 3.4-3.4C269.8 98.6 268.3 97.1 266.4 97.1z"/><path fill="#777777" d="M266.4 117.6c-2.4 0-4.4-2-4.4-4.4 0-2.4 2-4.4 4.4-4.4 2.4 0 4.4 2 4.4 4.4C270.8 115.7 268.9 117.6 266.4 117.6zM266.4 109.9c-1.9 0-3.4 1.5-3.4 3.4s1.5 3.4 3.4 3.4c1.9 0 3.4-1.5 3.4-3.4S268.3 109.9 266.4 109.9z"/><path fill="#777777" d="M266.4 130.4c-2.4 0-4.4-2-4.4-4.4s2-4.4 4.4-4.4c2.4 0 4.4 2 4.4 4.4S268.9 130.4 266.4 130.4zM266.4 122.6c-1.9 0-3.4 1.5-3.4 3.4 0 1.9 1.5 3.4 3.4 3.4 1.9 0 3.4-1.5 3.4-3.4C269.8 124.2 268.3 122.6 266.4 122.6z"/><path fill="#777777" d="M266.4 143.1c-2.4 0-4.4-2-4.4-4.4 0-2.4 2-4.4 4.4-4.4 2.4 0 4.4 2 4.4 4.4C270.8 141.2 268.9 143.1 266.4 143.1zM266.4 135.4c-1.9 0-3.4 1.5-3.4 3.4 0 1.9 1.5 3.4 3.4 3.4 1.9 0 3.4-1.5 3.4-3.4C269.8 136.9 268.3 135.4 266.4 135.4z"/><path fill="#777777" d="M280.5 66.7c-2.4 0-4.4-2-4.4-4.4 0-2.4 2-4.4 4.4-4.4 2.4 0 4.4 2 4.4 4.4C284.8 64.7 282.9 66.7 280.5 66.7zM280.5 58.9c-1.9 0-3.4 1.5-3.4 3.4 0 1.9 1.5 3.4 3.4 3.4 1.9 0 3.4-1.5 3.4-3.4C283.8 60.4 282.3 58.9 280.5 58.9z"/><path fill="#777777" d="M280.5 79.4c-2.4 0-4.4-2-4.4-4.4s2-4.4 4.4-4.4c2.4 0 4.4 2 4.4 4.4S282.9 79.4 280.5 79.4zM280.5 71.7c-1.9 0-3.4 1.5-3.4 3.4s1.5 3.4 3.4 3.4c1.9 0 3.4-1.5 3.4-3.4S282.3 71.7 280.5 71.7z"/><path fill="#777777" d="M280.5 92.2c-2.4 0-4.4-2-4.4-4.4 0-2.4 2-4.4 4.4-4.4 2.4 0 4.4 2 4.4 4.4C284.8 90.2 282.9 92.2 280.5 92.2zM280.5 84.4c-1.9 0-3.4 1.5-3.4 3.4 0 1.9 1.5 3.4 3.4 3.4 1.9 0 3.4-1.5 3.4-3.4C283.8 86 282.3 84.4 280.5 84.4z"/><path fill="#777777" d="M280.5 28.4c-2.4 0-4.4-2-4.4-4.4 0-2.4 2-4.4 4.4-4.4 2.4 0 4.4 2 4.4 4.4C284.8 26.4 282.9 28.4 280.5 28.4zM280.5 20.7c-1.9 0-3.4 1.5-3.4 3.4 0 1.9 1.5 3.4 3.4 3.4 1.9 0 3.4-1.5 3.4-3.4S282.3 20.7 280.5 20.7z"/><path fill="#777777" d="M280.5 41.2c-2.4 0-4.4-2-4.4-4.4 0-2.4 2-4.4 4.4-4.4 2.4 0 4.4 2 4.4 4.4C284.8 39.2 282.9 41.2 280.5 41.2zM280.5 33.4c-1.9 0-3.4 1.5-3.4 3.4 0 1.9 1.5 3.4 3.4 3.4 1.9 0 3.4-1.5 3.4-3.4C283.8 34.9 282.3 33.4 280.5 33.4z"/><path fill="#777777" d="M280.5 53.9c-2.4 0-4.4-2-4.4-4.4 0-2.4 2-4.4 4.4-4.4 2.4 0 4.4 2 4.4 4.4C284.8 52 282.9 53.9 280.5 53.9zM280.5 46.2c-1.9 0-3.4 1.5-3.4 3.4 0 1.9 1.5 3.4 3.4 3.4 1.9 0 3.4-1.5 3.4-3.4C283.8 47.7 282.3 46.2 280.5 46.2z"/><path fill="#777777" d="M280.5 156c-2.4 0-4.4-2-4.4-4.4 0-2.4 2-4.4 4.4-4.4s4.4 2 4.4 4.4C284.8 154 282.9 156 280.5 156zM280.5 148.2c-1.9 0-3.4 1.5-3.4 3.4s1.5 3.4 3.4 3.4c1.9 0 3.4-1.5 3.4-3.4S282.3 148.2 280.5 148.2z"/><path fill="#777777" d="M280.5 168.8c-2.4 0-4.4-2-4.4-4.4s2-4.4 4.4-4.4 4.4 2 4.4 4.4S282.9 168.8 280.5 168.8zM280.5 161c-1.9 0-3.4 1.5-3.4 3.4s1.5 3.4 3.4 3.4c1.9 0 3.4-1.5 3.4-3.4S282.3 161 280.5 161z"/><path fill="#777777" d="M280.5 181.5c-2.4 0-4.4-2-4.4-4.4s2-4.4 4.4-4.4 4.4 2 4.4 4.4C284.8 179.5 282.9 181.5 280.5 181.5zM280.5 173.8c-1.9 0-3.4 1.5-3.4 3.4 0 1.9 1.5 3.4 3.4 3.4 1.9 0 3.4-1.5 3.4-3.4C283.8 175.3 282.3 173.8 280.5 173.8z"/><path fill="#777777" d="M280.5 105c-2.4 0-4.4-2-4.4-4.4s2-4.4 4.4-4.4 4.4 2 4.4 4.4S282.9 105 280.5 105zM280.5 97.2c-1.9 0-3.4 1.5-3.4 3.4 0 1.9 1.5 3.4 3.4 3.4 1.9 0 3.4-1.5 3.4-3.4S282.3 97.2 280.5 97.2z"/><path fill="#777777" d="M280.5 117.7c-2.4 0-4.4-2-4.4-4.4s2-4.4 4.4-4.4 4.4 2 4.4 4.4S282.9 117.7 280.5 117.7zM280.5 110c-1.9 0-3.4 1.5-3.4 3.4 0 1.9 1.5 3.4 3.4 3.4 1.9 0 3.4-1.5 3.4-3.4C283.8 111.5 282.3 110 280.5 110z"/><path fill="#777777" d="M280.5 130.5c-2.4 0-4.4-2-4.4-4.4 0-2.4 2-4.4 4.4-4.4 2.4 0 4.4 2 4.4 4.4C284.8 128.5 282.9 130.5 280.5 130.5zM280.5 122.7c-1.9 0-3.4 1.5-3.4 3.4 0 1.9 1.5 3.4 3.4 3.4 1.9 0 3.4-1.5 3.4-3.4S282.3 122.7 280.5 122.7z"/><path fill="#777777" d="M280.5 143.2c-2.4 0-4.4-2-4.4-4.4s2-4.4 4.4-4.4 4.4 2 4.4 4.4S282.9 143.2 280.5 143.2zM280.5 135.5c-1.9 0-3.4 1.5-3.4 3.4s1.5 3.4 3.4 3.4c1.9 0 3.4-1.5 3.4-3.4S282.3 135.5 280.5 135.5z"/><path fill="#777777" d="M294.4 66.6c-2.4 0-4.4-2-4.4-4.4 0-2.4 2-4.4 4.4-4.4 2.4 0 4.4 2 4.4 4.4C298.7 64.6 296.8 66.6 294.4 66.6zM294.4 58.8c-1.9 0-3.4 1.5-3.4 3.4 0 1.9 1.5 3.4 3.4 3.4 1.9 0 3.4-1.5 3.4-3.4C297.7 60.4 296.2 58.8 294.4 58.8z"/><path fill="#777777" d="M294.4 79.4c-2.4 0-4.4-2-4.4-4.4 0-2.4 2-4.4 4.4-4.4 2.4 0 4.4 2 4.4 4.4C298.7 77.4 296.8 79.4 294.4 79.4zM294.4 71.6c-1.9 0-3.4 1.5-3.4 3.4s1.5 3.4 3.4 3.4c1.9 0 3.4-1.5 3.4-3.4S296.2 71.6 294.4 71.6z"/><path fill="#777777" d="M294.4 92.1c-2.4 0-4.4-2-4.4-4.4 0-2.4 2-4.4 4.4-4.4 2.4 0 4.4 2 4.4 4.4C298.7 90.1 296.8 92.1 294.4 92.1zM294.4 84.4c-1.9 0-3.4 1.5-3.4 3.4s1.5 3.4 3.4 3.4c1.9 0 3.4-1.5 3.4-3.4S296.2 84.4 294.4 84.4z"/><path fill="#777777" d="M294.4 28.3c-2.4 0-4.4-2-4.4-4.4 0-2.4 2-4.4 4.4-4.4 2.4 0 4.4 2 4.4 4.4S296.8 28.3 294.4 28.3zM294.4 20.6c-1.9 0-3.4 1.5-3.4 3.4 0 1.9 1.5 3.4 3.4 3.4 1.9 0 3.4-1.5 3.4-3.4C297.7 22.1 296.2 20.6 294.4 20.6z"/><path fill="#777777" d="M294.4 41.1c-2.4 0-4.4-2-4.4-4.4 0-2.4 2-4.4 4.4-4.4 2.4 0 4.4 2 4.4 4.4C298.7 39.1 296.8 41.1 294.4 41.1zM294.4 33.3c-1.9 0-3.4 1.5-3.4 3.4 0 1.9 1.5 3.4 3.4 3.4 1.9 0 3.4-1.5 3.4-3.4C297.7 34.8 296.2 33.3 294.4 33.3z"/><path fill="#777777" d="M294.4 53.8c-2.4 0-4.4-2-4.4-4.4 0-2.4 2-4.4 4.4-4.4 2.4 0 4.4 2 4.4 4.4C298.7 51.9 296.8 53.8 294.4 53.8zM294.4 46.1c-1.9 0-3.4 1.5-3.4 3.4s1.5 3.4 3.4 3.4c1.9 0 3.4-1.5 3.4-3.4C297.7 47.6 296.2 46.1 294.4 46.1z"/><path fill="#777777" d="M294.4 155.9c-2.4 0-4.4-2-4.4-4.4s2-4.4 4.4-4.4c2.4 0 4.4 2 4.4 4.4S296.8 155.9 294.4 155.9zM294.4 148.2c-1.9 0-3.4 1.5-3.4 3.4 0 1.9 1.5 3.4 3.4 3.4 1.9 0 3.4-1.5 3.4-3.4C297.7 149.7 296.2 148.2 294.4 148.2z"/><path fill="#777777" d="M294.4 168.7c-2.4 0-4.4-2-4.4-4.4s2-4.4 4.4-4.4c2.4 0 4.4 2 4.4 4.4S296.8 168.7 294.4 168.7zM294.4 160.9c-1.9 0-3.4 1.5-3.4 3.4s1.5 3.4 3.4 3.4c1.9 0 3.4-1.5 3.4-3.4S296.2 160.9 294.4 160.9z"/><path fill="#777777" d="M294.4 181.4c-2.4 0-4.4-2-4.4-4.4 0-2.4 2-4.4 4.4-4.4 2.4 0 4.4 2 4.4 4.4C298.7 179.5 296.8 181.4 294.4 181.4zM294.4 173.7c-1.9 0-3.4 1.5-3.4 3.4s1.5 3.4 3.4 3.4c1.9 0 3.4-1.5 3.4-3.4S296.2 173.7 294.4 173.7z"/><path fill="#777777" d="M294.4 104.9c-2.4 0-4.4-2-4.4-4.4s2-4.4 4.4-4.4c2.4 0 4.4 2 4.4 4.4S296.8 104.9 294.4 104.9zM294.4 97.1c-1.9 0-3.4 1.5-3.4 3.4 0 1.9 1.5 3.4 3.4 3.4 1.9 0 3.4-1.5 3.4-3.4C297.7 98.6 296.2 97.1 294.4 97.1z"/><path fill="#777777" d="M294.4 117.6c-2.4 0-4.4-2-4.4-4.4 0-2.4 2-4.4 4.4-4.4 2.4 0 4.4 2 4.4 4.4C298.7 115.7 296.8 117.6 294.4 117.6zM294.4 109.9c-1.9 0-3.4 1.5-3.4 3.4s1.5 3.4 3.4 3.4c1.9 0 3.4-1.5 3.4-3.4S296.2 109.9 294.4 109.9z"/><path fill="#777777" d="M294.4 130.4c-2.4 0-4.4-2-4.4-4.4s2-4.4 4.4-4.4c2.4 0 4.4 2 4.4 4.4S296.8 130.4 294.4 130.4zM294.4 122.6c-1.9 0-3.4 1.5-3.4 3.4 0 1.9 1.5 3.4 3.4 3.4 1.9 0 3.4-1.5 3.4-3.4C297.7 124.2 296.2 122.6 294.4 122.6z"/><path fill="#777777" d="M294.4 143.1c-2.4 0-4.4-2-4.4-4.4 0-2.4 2-4.4 4.4-4.4 2.4 0 4.4 2 4.4 4.4C298.7 141.2 296.8 143.1 294.4 143.1zM294.4 135.4c-1.9 0-3.4 1.5-3.4 3.4 0 1.9 1.5 3.4 3.4 3.4 1.9 0 3.4-1.5 3.4-3.4C297.7 136.9 296.2 135.4 294.4 135.4z"/><path fill="#777777" d="M308.4 66.7c-2.4 0-4.4-2-4.4-4.4 0-2.4 2-4.4 4.4-4.4 2.4 0 4.4 2 4.4 4.4C312.8 64.7 310.8 66.7 308.4 66.7zM308.4 58.9c-1.9 0-3.4 1.5-3.4 3.4 0 1.9 1.5 3.4 3.4 3.4s3.4-1.5 3.4-3.4C311.8 60.4 310.2 58.9 308.4 58.9z"/><path fill="#777777" d="M308.4 79.4c-2.4 0-4.4-2-4.4-4.4s2-4.4 4.4-4.4c2.4 0 4.4 2 4.4 4.4S310.8 79.4 308.4 79.4zM308.4 71.7c-1.9 0-3.4 1.5-3.4 3.4s1.5 3.4 3.4 3.4 3.4-1.5 3.4-3.4S310.2 71.7 308.4 71.7z"/><path fill="#777777" d="M308.4 92.2c-2.4 0-4.4-2-4.4-4.4 0-2.4 2-4.4 4.4-4.4 2.4 0 4.4 2 4.4 4.4C312.8 90.2 310.8 92.2 308.4 92.2zM308.4 84.4c-1.9 0-3.4 1.5-3.4 3.4 0 1.9 1.5 3.4 3.4 3.4s3.4-1.5 3.4-3.4C311.8 86 310.2 84.4 308.4 84.4z"/><path fill="#777777" d="M308.4 28.4c-2.4 0-4.4-2-4.4-4.4 0-2.4 2-4.4 4.4-4.4 2.4 0 4.4 2 4.4 4.4C312.8 26.4 310.8 28.4 308.4 28.4zM308.4 20.7c-1.9 0-3.4 1.5-3.4 3.4 0 1.9 1.5 3.4 3.4 3.4s3.4-1.5 3.4-3.4S310.2 20.7 308.4 20.7z"/><path fill="#777777" d="M308.4 41.2c-2.4 0-4.4-2-4.4-4.4 0-2.4 2-4.4 4.4-4.4 2.4 0 4.4 2 4.4 4.4C312.8 39.2 310.8 41.2 308.4 41.2zM308.4 33.4c-1.9 0-3.4 1.5-3.4 3.4 0 1.9 1.5 3.4 3.4 3.4s3.4-1.5 3.4-3.4C311.8 34.9 310.2 33.4 308.4 33.4z"/><path fill="#777777" d="M308.4 53.9c-2.4 0-4.4-2-4.4-4.4 0-2.4 2-4.4 4.4-4.4 2.4 0 4.4 2 4.4 4.4C312.8 52 310.8 53.9 308.4 53.9zM308.4 46.2c-1.9 0-3.4 1.5-3.4 3.4 0 1.9 1.5 3.4 3.4 3.4s3.4-1.5 3.4-3.4C311.8 47.7 310.2 46.2 308.4 46.2z"/><path fill="#777777" d="M308.4 156c-2.4 0-4.4-2-4.4-4.4 0-2.4 2-4.4 4.4-4.4s4.4 2 4.4 4.4C312.8 154 310.8 156 308.4 156zM308.4 148.2c-1.9 0-3.4 1.5-3.4 3.4s1.5 3.4 3.4 3.4c1.9 0 3.4-1.5 3.4-3.4S310.2 148.2 308.4 148.2z"/><path fill="#777777" d="M308.4 168.8c-2.4 0-4.4-2-4.4-4.4s2-4.4 4.4-4.4 4.4 2 4.4 4.4S310.8 168.8 308.4 168.8zM308.4 161c-1.9 0-3.4 1.5-3.4 3.4s1.5 3.4 3.4 3.4c1.9 0 3.4-1.5 3.4-3.4S310.2 161 308.4 161z"/><path fill="#777777" d="M308.4 181.5c-2.4 0-4.4-2-4.4-4.4s2-4.4 4.4-4.4 4.4 2 4.4 4.4C312.8 179.5 310.8 181.5 308.4 181.5zM308.4 173.8c-1.9 0-3.4 1.5-3.4 3.4 0 1.9 1.5 3.4 3.4 3.4 1.9 0 3.4-1.5 3.4-3.4C311.8 175.3 310.2 173.8 308.4 173.8z"/><path fill="#777777" d="M308.4 105c-2.4 0-4.4-2-4.4-4.4s2-4.4 4.4-4.4 4.4 2 4.4 4.4S310.8 105 308.4 105zM308.4 97.2c-1.9 0-3.4 1.5-3.4 3.4 0 1.9 1.5 3.4 3.4 3.4 1.9 0 3.4-1.5 3.4-3.4S310.2 97.2 308.4 97.2z"/><path fill="#777777" d="M308.4 117.7c-2.4 0-4.4-2-4.4-4.4s2-4.4 4.4-4.4 4.4 2 4.4 4.4S310.8 117.7 308.4 117.7zM308.4 110c-1.9 0-3.4 1.5-3.4 3.4 0 1.9 1.5 3.4 3.4 3.4 1.9 0 3.4-1.5 3.4-3.4C311.8 111.5 310.2 110 308.4 110z"/><path fill="#777777" d="M308.4 130.5c-2.4 0-4.4-2-4.4-4.4 0-2.4 2-4.4 4.4-4.4 2.4 0 4.4 2 4.4 4.4C312.8 128.5 310.8 130.5 308.4 130.5zM308.4 122.7c-1.9 0-3.4 1.5-3.4 3.4 0 1.9 1.5 3.4 3.4 3.4s3.4-1.5 3.4-3.4S310.2 122.7 308.4 122.7z"/><path fill="#777777" d="M308.4 143.2c-2.4 0-4.4-2-4.4-4.4s2-4.4 4.4-4.4 4.4 2 4.4 4.4S310.8 143.2 308.4 143.2zM308.4 135.5c-1.9 0-3.4 1.5-3.4 3.4s1.5 3.4 3.4 3.4c1.9 0 3.4-1.5 3.4-3.4S310.2 135.5 308.4 135.5z"/><path fill="#777777" d="M323.4 66.6c-2.4 0-4.4-2-4.4-4.4 0-2.4 2-4.4 4.4-4.4 2.4 0 4.4 2 4.4 4.4C327.8 64.6 325.8 66.6 323.4 66.6zM323.4 58.8c-1.9 0-3.4 1.5-3.4 3.4 0 1.9 1.5 3.4 3.4 3.4 1.9 0 3.4-1.5 3.4-3.4C326.8 60.4 325.3 58.8 323.4 58.8z"/><path fill="#777777" d="M323.4 79.4c-2.4 0-4.4-2-4.4-4.4 0-2.4 2-4.4 4.4-4.4 2.4 0 4.4 2 4.4 4.4C327.8 77.4 325.8 79.4 323.4 79.4zM323.4 71.6c-1.9 0-3.4 1.5-3.4 3.4s1.5 3.4 3.4 3.4c1.9 0 3.4-1.5 3.4-3.4S325.3 71.6 323.4 71.6z"/><path fill="#777777" d="M323.4 92.1c-2.4 0-4.4-2-4.4-4.4 0-2.4 2-4.4 4.4-4.4 2.4 0 4.4 2 4.4 4.4C327.8 90.1 325.8 92.1 323.4 92.1zM323.4 84.4c-1.9 0-3.4 1.5-3.4 3.4s1.5 3.4 3.4 3.4c1.9 0 3.4-1.5 3.4-3.4S325.3 84.4 323.4 84.4z"/><path fill="#777777" d="M323.4 28.3c-2.4 0-4.4-2-4.4-4.4 0-2.4 2-4.4 4.4-4.4 2.4 0 4.4 2 4.4 4.4S325.8 28.3 323.4 28.3zM323.4 20.6c-1.9 0-3.4 1.5-3.4 3.4 0 1.9 1.5 3.4 3.4 3.4 1.9 0 3.4-1.5 3.4-3.4C326.8 22.1 325.3 20.6 323.4 20.6z"/><path fill="#777777" d="M323.4 41.1c-2.4 0-4.4-2-4.4-4.4 0-2.4 2-4.4 4.4-4.4 2.4 0 4.4 2 4.4 4.4C327.8 39.1 325.8 41.1 323.4 41.1zM323.4 33.3c-1.9 0-3.4 1.5-3.4 3.4 0 1.9 1.5 3.4 3.4 3.4 1.9 0 3.4-1.5 3.4-3.4C326.8 34.8 325.3 33.3 323.4 33.3z"/><path fill="#777777" d="M323.4 53.8c-2.4 0-4.4-2-4.4-4.4 0-2.4 2-4.4 4.4-4.4 2.4 0 4.4 2 4.4 4.4C327.8 51.9 325.8 53.8 323.4 53.8zM323.4 46.1c-1.9 0-3.4 1.5-3.4 3.4s1.5 3.4 3.4 3.4c1.9 0 3.4-1.5 3.4-3.4C326.8 47.6 325.3 46.1 323.4 46.1z"/><path fill="#777777" d="M323.4 155.9c-2.4 0-4.4-2-4.4-4.4s2-4.4 4.4-4.4c2.4 0 4.4 2 4.4 4.4S325.8 155.9 323.4 155.9zM323.4 148.2c-1.9 0-3.4 1.5-3.4 3.4 0 1.9 1.5 3.4 3.4 3.4 1.9 0 3.4-1.5 3.4-3.4C326.8 149.7 325.3 148.2 323.4 148.2z"/><path fill="#777777" d="M323.4 168.7c-2.4 0-4.4-2-4.4-4.4s2-4.4 4.4-4.4c2.4 0 4.4 2 4.4 4.4S325.8 168.7 323.4 168.7zM323.4 160.9c-1.9 0-3.4 1.5-3.4 3.4s1.5 3.4 3.4 3.4c1.9 0 3.4-1.5 3.4-3.4S325.3 160.9 323.4 160.9z"/><path fill="#777777" d="M323.4 181.4c-2.4 0-4.4-2-4.4-4.4 0-2.4 2-4.4 4.4-4.4 2.4 0 4.4 2 4.4 4.4C327.8 179.5 325.8 181.4 323.4 181.4zM323.4 173.7c-1.9 0-3.4 1.5-3.4 3.4s1.5 3.4 3.4 3.4c1.9 0 3.4-1.5 3.4-3.4S325.3 173.7 323.4 173.7z"/><path fill="#777777" d="M323.4 104.9c-2.4 0-4.4-2-4.4-4.4s2-4.4 4.4-4.4c2.4 0 4.4 2 4.4 4.4S325.8 104.9 323.4 104.9zM323.4 97.1c-1.9 0-3.4 1.5-3.4 3.4 0 1.9 1.5 3.4 3.4 3.4 1.9 0 3.4-1.5 3.4-3.4C326.8 98.6 325.3 97.1 323.4 97.1z"/><path fill="#777777" d="M323.4 117.6c-2.4 0-4.4-2-4.4-4.4 0-2.4 2-4.4 4.4-4.4 2.4 0 4.4 2 4.4 4.4C327.8 115.7 325.8 117.6 323.4 117.6zM323.4 109.9c-1.9 0-3.4 1.5-3.4 3.4s1.5 3.4 3.4 3.4c1.9 0 3.4-1.5 3.4-3.4S325.3 109.9 323.4 109.9z"/><path fill="#777777" d="M323.4 130.4c-2.4 0-4.4-2-4.4-4.4s2-4.4 4.4-4.4c2.4 0 4.4 2 4.4 4.4S325.8 130.4 323.4 130.4zM323.4 122.6c-1.9 0-3.4 1.5-3.4 3.4 0 1.9 1.5 3.4 3.4 3.4 1.9 0 3.4-1.5 3.4-3.4C326.8 124.2 325.3 122.6 323.4 122.6z"/><path fill="#777777" d="M323.4 143.1c-2.4 0-4.4-2-4.4-4.4 0-2.4 2-4.4 4.4-4.4 2.4 0 4.4 2 4.4 4.4C327.8 141.2 325.8 143.1 323.4 143.1zM323.4 135.4c-1.9 0-3.4 1.5-3.4 3.4 0 1.9 1.5 3.4 3.4 3.4 1.9 0 3.4-1.5 3.4-3.4C326.8 136.9 325.3 135.4 323.4 135.4z"/><path fill="#777777" d="M337.5 66.7c-2.4 0-4.4-2-4.4-4.4 0-2.4 2-4.4 4.4-4.4s4.4 2 4.4 4.4C341.8 64.7 339.9 66.7 337.5 66.7zM337.5 58.9c-1.9 0-3.4 1.5-3.4 3.4 0 1.9 1.5 3.4 3.4 3.4s3.4-1.5 3.4-3.4C340.8 60.4 339.3 58.9 337.5 58.9z"/><path fill="#777777" d="M337.5 79.4c-2.4 0-4.4-2-4.4-4.4s2-4.4 4.4-4.4 4.4 2 4.4 4.4S339.9 79.4 337.5 79.4zM337.5 71.7c-1.9 0-3.4 1.5-3.4 3.4s1.5 3.4 3.4 3.4 3.4-1.5 3.4-3.4S339.3 71.7 337.5 71.7z"/><path fill="#777777" d="M337.5 92.2c-2.4 0-4.4-2-4.4-4.4 0-2.4 2-4.4 4.4-4.4s4.4 2 4.4 4.4C341.8 90.2 339.9 92.2 337.5 92.2zM337.5 84.4c-1.9 0-3.4 1.5-3.4 3.4 0 1.9 1.5 3.4 3.4 3.4s3.4-1.5 3.4-3.4C340.8 86 339.3 84.4 337.5 84.4z"/><path fill="#777777" d="M337.5 28.4c-2.4 0-4.4-2-4.4-4.4 0-2.4 2-4.4 4.4-4.4s4.4 2 4.4 4.4C341.8 26.4 339.9 28.4 337.5 28.4zM337.5 20.7c-1.9 0-3.4 1.5-3.4 3.4 0 1.9 1.5 3.4 3.4 3.4s3.4-1.5 3.4-3.4S339.3 20.7 337.5 20.7z"/><path fill="#777777" d="M337.5 41.2c-2.4 0-4.4-2-4.4-4.4 0-2.4 2-4.4 4.4-4.4s4.4 2 4.4 4.4C341.8 39.2 339.9 41.2 337.5 41.2zM337.5 33.4c-1.9 0-3.4 1.5-3.4 3.4 0 1.9 1.5 3.4 3.4 3.4s3.4-1.5 3.4-3.4C340.8 34.9 339.3 33.4 337.5 33.4z"/><path fill="#777777" d="M337.5 53.9c-2.4 0-4.4-2-4.4-4.4 0-2.4 2-4.4 4.4-4.4s4.4 2 4.4 4.4C341.8 52 339.9 53.9 337.5 53.9zM337.5 46.2c-1.9 0-3.4 1.5-3.4 3.4 0 1.9 1.5 3.4 3.4 3.4s3.4-1.5 3.4-3.4C340.8 47.7 339.3 46.2 337.5 46.2z"/><path fill="#777777" d="M337.5 156c-2.4 0-4.4-2-4.4-4.4 0-2.4 2-4.4 4.4-4.4s4.4 2 4.4 4.4C341.8 154 339.9 156 337.5 156zM337.5 148.2c-1.9 0-3.4 1.5-3.4 3.4s1.5 3.4 3.4 3.4 3.4-1.5 3.4-3.4S339.3 148.2 337.5 148.2z"/><path fill="#777777" d="M337.5 168.8c-2.4 0-4.4-2-4.4-4.4s2-4.4 4.4-4.4 4.4 2 4.4 4.4S339.9 168.8 337.5 168.8zM337.5 161c-1.9 0-3.4 1.5-3.4 3.4s1.5 3.4 3.4 3.4 3.4-1.5 3.4-3.4S339.3 161 337.5 161z"/><path fill="#777777" d="M337.5 181.5c-2.4 0-4.4-2-4.4-4.4s2-4.4 4.4-4.4 4.4 2 4.4 4.4C341.8 179.5 339.9 181.5 337.5 181.5zM337.5 173.8c-1.9 0-3.4 1.5-3.4 3.4 0 1.9 1.5 3.4 3.4 3.4s3.4-1.5 3.4-3.4C340.8 175.3 339.3 173.8 337.5 173.8z"/><path fill="#777777" d="M337.5 105c-2.4 0-4.4-2-4.4-4.4s2-4.4 4.4-4.4 4.4 2 4.4 4.4S339.9 105 337.5 105zM337.5 97.2c-1.9 0-3.4 1.5-3.4 3.4 0 1.9 1.5 3.4 3.4 3.4s3.4-1.5 3.4-3.4S339.3 97.2 337.5 97.2z"/><path fill="#777777" d="M337.5 117.7c-2.4 0-4.4-2-4.4-4.4s2-4.4 4.4-4.4 4.4 2 4.4 4.4S339.9 117.7 337.5 117.7zM337.5 110c-1.9 0-3.4 1.5-3.4 3.4 0 1.9 1.5 3.4 3.4 3.4s3.4-1.5 3.4-3.4C340.8 111.5 339.3 110 337.5 110z"/><path fill="#777777" d="M337.5 130.5c-2.4 0-4.4-2-4.4-4.4 0-2.4 2-4.4 4.4-4.4s4.4 2 4.4 4.4C341.8 128.5 339.9 130.5 337.5 130.5zM337.5 122.7c-1.9 0-3.4 1.5-3.4 3.4 0 1.9 1.5 3.4 3.4 3.4s3.4-1.5 3.4-3.4S339.3 122.7 337.5 122.7z"/><path fill="#777777" d="M337.5 143.2c-2.4 0-4.4-2-4.4-4.4s2-4.4 4.4-4.4 4.4 2 4.4 4.4S339.9 143.2 337.5 143.2zM337.5 135.5c-1.9 0-3.4 1.5-3.4 3.4s1.5 3.4 3.4 3.4 3.4-1.5 3.4-3.4S339.3 135.5 337.5 135.5z"/><path fill="#777777" d="M351.3 66.6c-2.4 0-4.4-2-4.4-4.4 0-2.4 2-4.4 4.4-4.4 2.4 0 4.4 2 4.4 4.4C355.7 64.6 353.7 66.6 351.3 66.6zM351.3 58.8c-1.9 0-3.4 1.5-3.4 3.4 0 1.9 1.5 3.4 3.4 3.4s3.4-1.5 3.4-3.4C354.7 60.4 353.2 58.8 351.3 58.8z"/><path fill="#777777" d="M351.3 79.4c-2.4 0-4.4-2-4.4-4.4 0-2.4 2-4.4 4.4-4.4 2.4 0 4.4 2 4.4 4.4C355.7 77.4 353.7 79.4 351.3 79.4zM351.3 71.6c-1.9 0-3.4 1.5-3.4 3.4s1.5 3.4 3.4 3.4 3.4-1.5 3.4-3.4S353.2 71.6 351.3 71.6z"/><path fill="#777777" d="M351.3 92.1c-2.4 0-4.4-2-4.4-4.4 0-2.4 2-4.4 4.4-4.4 2.4 0 4.4 2 4.4 4.4C355.7 90.1 353.7 92.1 351.3 92.1zM351.3 84.4c-1.9 0-3.4 1.5-3.4 3.4s1.5 3.4 3.4 3.4 3.4-1.5 3.4-3.4S353.2 84.4 351.3 84.4z"/><path fill="#777777" d="M351.3 28.3c-2.4 0-4.4-2-4.4-4.4 0-2.4 2-4.4 4.4-4.4 2.4 0 4.4 2 4.4 4.4S353.7 28.3 351.3 28.3zM351.3 20.6c-1.9 0-3.4 1.5-3.4 3.4 0 1.9 1.5 3.4 3.4 3.4s3.4-1.5 3.4-3.4C354.7 22.1 353.2 20.6 351.3 20.6z"/><path fill="#777777" d="M351.3 41.1c-2.4 0-4.4-2-4.4-4.4 0-2.4 2-4.4 4.4-4.4 2.4 0 4.4 2 4.4 4.4C355.7 39.1 353.7 41.1 351.3 41.1zM351.3 33.3c-1.9 0-3.4 1.5-3.4 3.4 0 1.9 1.5 3.4 3.4 3.4s3.4-1.5 3.4-3.4C354.7 34.8 353.2 33.3 351.3 33.3z"/><path fill="#777777" d="M351.3 53.8c-2.4 0-4.4-2-4.4-4.4 0-2.4 2-4.4 4.4-4.4 2.4 0 4.4 2 4.4 4.4C355.7 51.9 353.7 53.8 351.3 53.8zM351.3 46.1c-1.9 0-3.4 1.5-3.4 3.4s1.5 3.4 3.4 3.4 3.4-1.5 3.4-3.4C354.7 47.6 353.2 46.1 351.3 46.1z"/><path fill="#777777" d="M351.3 155.9c-2.4 0-4.4-2-4.4-4.4s2-4.4 4.4-4.4c2.4 0 4.4 2 4.4 4.4S353.7 155.9 351.3 155.9zM351.3 148.2c-1.9 0-3.4 1.5-3.4 3.4 0 1.9 1.5 3.4 3.4 3.4s3.4-1.5 3.4-3.4C354.7 149.7 353.2 148.2 351.3 148.2z"/><path fill="#777777" d="M351.3 168.7c-2.4 0-4.4-2-4.4-4.4s2-4.4 4.4-4.4c2.4 0 4.4 2 4.4 4.4S353.7 168.7 351.3 168.7zM351.3 160.9c-1.9 0-3.4 1.5-3.4 3.4s1.5 3.4 3.4 3.4 3.4-1.5 3.4-3.4S353.2 160.9 351.3 160.9z"/><path fill="#777777" d="M351.3 181.4c-2.4 0-4.4-2-4.4-4.4 0-2.4 2-4.4 4.4-4.4 2.4 0 4.4 2 4.4 4.4C355.7 179.5 353.7 181.4 351.3 181.4zM351.3 173.7c-1.9 0-3.4 1.5-3.4 3.4s1.5 3.4 3.4 3.4 3.4-1.5 3.4-3.4S353.2 173.7 351.3 173.7z"/><path fill="#777777" d="M351.3 104.9c-2.4 0-4.4-2-4.4-4.4s2-4.4 4.4-4.4c2.4 0 4.4 2 4.4 4.4S353.7 104.9 351.3 104.9zM351.3 97.1c-1.9 0-3.4 1.5-3.4 3.4 0 1.9 1.5 3.4 3.4 3.4s3.4-1.5 3.4-3.4C354.7 98.6 353.2 97.1 351.3 97.1z"/><path fill="#777777" d="M351.3 117.6c-2.4 0-4.4-2-4.4-4.4 0-2.4 2-4.4 4.4-4.4 2.4 0 4.4 2 4.4 4.4C355.7 115.7 353.7 117.6 351.3 117.6zM351.3 109.9c-1.9 0-3.4 1.5-3.4 3.4s1.5 3.4 3.4 3.4 3.4-1.5 3.4-3.4S353.2 109.9 351.3 109.9z"/><path fill="#777777" d="M351.3 130.4c-2.4 0-4.4-2-4.4-4.4s2-4.4 4.4-4.4c2.4 0 4.4 2 4.4 4.4S353.7 130.4 351.3 130.4zM351.3 122.6c-1.9 0-3.4 1.5-3.4 3.4 0 1.9 1.5 3.4 3.4 3.4s3.4-1.5 3.4-3.4C354.7 124.2 353.2 122.6 351.3 122.6z"/><path fill="#777777" d="M351.3 143.1c-2.4 0-4.4-2-4.4-4.4 0-2.4 2-4.4 4.4-4.4 2.4 0 4.4 2 4.4 4.4C355.7 141.2 353.7 143.1 351.3 143.1zM351.3 135.4c-1.9 0-3.4 1.5-3.4 3.4 0 1.9 1.5 3.4 3.4 3.4s3.4-1.5 3.4-3.4C354.7 136.9 353.2 135.4 351.3 135.4z"/><path fill="#777777" d="M365.4 66.7c-2.4 0-4.4-2-4.4-4.4 0-2.4 2-4.4 4.4-4.4 2.4 0 4.4 2 4.4 4.4C369.7 64.7 367.8 66.7 365.4 66.7zM365.4 58.9c-1.9 0-3.4 1.5-3.4 3.4 0 1.9 1.5 3.4 3.4 3.4s3.4-1.5 3.4-3.4C368.7 60.4 367.2 58.9 365.4 58.9z"/><path fill="#777777" d="M365.4 79.4c-2.4 0-4.4-2-4.4-4.4s2-4.4 4.4-4.4c2.4 0 4.4 2 4.4 4.4S367.8 79.4 365.4 79.4zM365.4 71.7c-1.9 0-3.4 1.5-3.4 3.4s1.5 3.4 3.4 3.4 3.4-1.5 3.4-3.4S367.2 71.7 365.4 71.7z"/><path fill="#777777" d="M365.4 92.2c-2.4 0-4.4-2-4.4-4.4 0-2.4 2-4.4 4.4-4.4 2.4 0 4.4 2 4.4 4.4C369.7 90.2 367.8 92.2 365.4 92.2zM365.4 84.4c-1.9 0-3.4 1.5-3.4 3.4 0 1.9 1.5 3.4 3.4 3.4s3.4-1.5 3.4-3.4C368.7 86 367.2 84.4 365.4 84.4z"/><path fill="#777777" d="M365.4 28.4c-2.4 0-4.4-2-4.4-4.4 0-2.4 2-4.4 4.4-4.4 2.4 0 4.4 2 4.4 4.4C369.7 26.4 367.8 28.4 365.4 28.4zM365.4 20.7c-1.9 0-3.4 1.5-3.4 3.4 0 1.9 1.5 3.4 3.4 3.4s3.4-1.5 3.4-3.4S367.2 20.7 365.4 20.7z"/><path fill="#777777" d="M365.4 41.2c-2.4 0-4.4-2-4.4-4.4 0-2.4 2-4.4 4.4-4.4 2.4 0 4.4 2 4.4 4.4C369.7 39.2 367.8 41.2 365.4 41.2zM365.4 33.4c-1.9 0-3.4 1.5-3.4 3.4 0 1.9 1.5 3.4 3.4 3.4s3.4-1.5 3.4-3.4C368.7 34.9 367.2 33.4 365.4 33.4z"/><path fill="#777777" d="M365.4 53.9c-2.4 0-4.4-2-4.4-4.4 0-2.4 2-4.4 4.4-4.4 2.4 0 4.4 2 4.4 4.4C369.7 52 367.8 53.9 365.4 53.9zM365.4 46.2c-1.9 0-3.4 1.5-3.4 3.4 0 1.9 1.5 3.4 3.4 3.4s3.4-1.5 3.4-3.4C368.7 47.7 367.2 46.2 365.4 46.2z"/><path fill="#777777" d="M379.3 28.4c-2.4 0-4.4-2-4.4-4.4 0-2.4 2-4.4 4.4-4.4s4.4 2 4.4 4.4C383.7 26.4 381.7 28.4 379.3 28.4zM379.3 20.7c-1.9 0-3.4 1.5-3.4 3.4 0 1.9 1.5 3.4 3.4 3.4 1.9 0 3.4-1.5 3.4-3.4S381.2 20.7 379.3 20.7z"/><path fill="#777777" d="M379.3 41.2c-2.4 0-4.4-2-4.4-4.4 0-2.4 2-4.4 4.4-4.4s4.4 2 4.4 4.4C383.7 39.2 381.7 41.2 379.3 41.2zM379.3 33.4c-1.9 0-3.4 1.5-3.4 3.4 0 1.9 1.5 3.4 3.4 3.4 1.9 0 3.4-1.5 3.4-3.4C382.7 34.9 381.2 33.4 379.3 33.4z"/><path fill="#777777" d="M379.3 53.9c-2.4 0-4.4-2-4.4-4.4 0-2.4 2-4.4 4.4-4.4s4.4 2 4.4 4.4C383.7 52 381.7 53.9 379.3 53.9zM379.3 46.2c-1.9 0-3.4 1.5-3.4 3.4 0 1.9 1.5 3.4 3.4 3.4 1.9 0 3.4-1.5 3.4-3.4C382.7 47.7 381.2 46.2 379.3 46.2z"/><path fill="#777777" d="M365.4 156c-2.4 0-4.4-2-4.4-4.4 0-2.4 2-4.4 4.4-4.4s4.4 2 4.4 4.4C369.7 154 367.8 156 365.4 156zM365.4 148.2c-1.9 0-3.4 1.5-3.4 3.4s1.5 3.4 3.4 3.4 3.4-1.5 3.4-3.4S367.2 148.2 365.4 148.2z"/><path fill="#777777" d="M365.4 168.8c-2.4 0-4.4-2-4.4-4.4s2-4.4 4.4-4.4 4.4 2 4.4 4.4S367.8 168.8 365.4 168.8zM365.4 161c-1.9 0-3.4 1.5-3.4 3.4s1.5 3.4 3.4 3.4 3.4-1.5 3.4-3.4S367.2 161 365.4 161z"/><path fill="#777777" d="M365.4 181.5c-2.4 0-4.4-2-4.4-4.4s2-4.4 4.4-4.4 4.4 2 4.4 4.4C369.7 179.5 367.8 181.5 365.4 181.5zM365.4 173.8c-1.9 0-3.4 1.5-3.4 3.4 0 1.9 1.5 3.4 3.4 3.4s3.4-1.5 3.4-3.4C368.7 175.3 367.2 173.8 365.4 173.8z"/><path fill="#777777" d="M379.3 156c-2.4 0-4.4-2-4.4-4.4 0-2.4 2-4.4 4.4-4.4s4.4 2 4.4 4.4C383.7 154 381.7 156 379.3 156zM379.3 148.2c-1.9 0-3.4 1.5-3.4 3.4s1.5 3.4 3.4 3.4c1.9 0 3.4-1.5 3.4-3.4S381.2 148.2 379.3 148.2z"/><path fill="#777777" d="M379.3 168.8c-2.4 0-4.4-2-4.4-4.4s2-4.4 4.4-4.4 4.4 2 4.4 4.4S381.7 168.8 379.3 168.8zM379.3 161c-1.9 0-3.4 1.5-3.4 3.4s1.5 3.4 3.4 3.4c1.9 0 3.4-1.5 3.4-3.4S381.2 161 379.3 161z"/><path fill="#777777" d="M379.3 181.5c-2.4 0-4.4-2-4.4-4.4s2-4.4 4.4-4.4 4.4 2 4.4 4.4C383.7 179.5 381.7 181.5 379.3 181.5zM379.3 173.8c-1.9 0-3.4 1.5-3.4 3.4 0 1.9 1.5 3.4 3.4 3.4 1.9 0 3.4-1.5 3.4-3.4C382.7 175.3 381.2 173.8 379.3 173.8z"/><path fill="#777777" d="M365.4 105c-2.4 0-4.4-2-4.4-4.4s2-4.4 4.4-4.4 4.4 2 4.4 4.4S367.8 105 365.4 105zM365.4 97.2c-1.9 0-3.4 1.5-3.4 3.4 0 1.9 1.5 3.4 3.4 3.4s3.4-1.5 3.4-3.4S367.2 97.2 365.4 97.2z"/><path fill="#777777" d="M365.4 117.7c-2.4 0-4.4-2-4.4-4.4s2-4.4 4.4-4.4 4.4 2 4.4 4.4S367.8 117.7 365.4 117.7zM365.4 110c-1.9 0-3.4 1.5-3.4 3.4 0 1.9 1.5 3.4 3.4 3.4s3.4-1.5 3.4-3.4C368.7 111.5 367.2 110 365.4 110z"/><path fill="#777777" d="M365.4 130.5c-2.4 0-4.4-2-4.4-4.4 0-2.4 2-4.4 4.4-4.4 2.4 0 4.4 2 4.4 4.4C369.7 128.5 367.8 130.5 365.4 130.5zM365.4 122.7c-1.9 0-3.4 1.5-3.4 3.4 0 1.9 1.5 3.4 3.4 3.4s3.4-1.5 3.4-3.4S367.2 122.7 365.4 122.7z"/><path fill="#777777" d="M365.4 143.2c-2.4 0-4.4-2-4.4-4.4s2-4.4 4.4-4.4 4.4 2 4.4 4.4S367.8 143.2 365.4 143.2zM365.4 135.5c-1.9 0-3.4 1.5-3.4 3.4s1.5 3.4 3.4 3.4 3.4-1.5 3.4-3.4S367.2 135.5 365.4 135.5z"/><path fill="#777777" d="M34.2 181.9c-5.9 0-10.6-4.8-10.6-10.6 0-5.9 4.8-10.6 10.6-10.6 5.9 0 10.6 4.8 10.6 10.6C44.8 177.1 40.1 181.9 34.2 181.9zM34.2 162.6c-4.8 0-8.6 3.9-8.6 8.6s3.9 8.6 8.6 8.6 8.6-3.9 8.6-8.6S39 162.6 34.2 162.6z"/><rect x="33.7" y="158.9" fill="#777777" width="1" height="25"/><rect x="21.7" y="170.3" fill="#777777" width="25" height="1"/><path fill="#777777" d="M34.2 40.4c-5.9 0-10.6-4.8-10.6-10.6s4.8-10.6 10.6-10.6c5.9 0 10.6 4.8 10.6 10.6S40.1 40.4 34.2 40.4zM34.2 21.1c-4.8 0-8.6 3.9-8.6 8.6s3.9 8.6 8.6 8.6 8.6-3.9 8.6-8.6S39 21.1 34.2 21.1z"/><rect x="33.7" y="17.3" fill="#777777" width="1" height="25"/><rect x="21.7" y="28.7" fill="#777777" width="25" height="1"/><path fill="#777777" d="M414.7 181.9c-5.9 0-10.6-4.8-10.6-10.6 0-5.9 4.8-10.6 10.6-10.6s10.6 4.8 10.6 10.6C425.3 177.1 420.5 181.9 414.7 181.9zM414.7 162.6c-4.8 0-8.6 3.9-8.6 8.6s3.9 8.6 8.6 8.6 8.6-3.9 8.6-8.6S419.4 162.6 414.7 162.6z"/><rect x="414.2" y="158.9" fill="#777777" width="1" height="25"/><rect x="402.2" y="170.3" fill="#777777" width="25" height="1"/><path fill="#777777" d="M414.7 40.4c-5.9 0-10.6-4.8-10.6-10.6s4.8-10.6 10.6-10.6 10.6 4.8 10.6 10.6S420.5 40.4 414.7 40.4zM414.7 21.1c-4.8 0-8.6 3.9-8.6 8.6s3.9 8.6 8.6 8.6 8.6-3.9 8.6-8.6S419.4 21.1 414.7 21.1z"/><rect x="414.2" y="17.3" fill="#777777" width="1" height="25"/><rect x="402.2" y="28.7" fill="#777777" width="25" height="1"/><path fill="#777777" d="M386.4 96.7c-1.5 0-2.8-1.3-2.8-2.8s1.3-2.8 2.8-2.8 2.8 1.3 2.8 2.8S387.9 96.7 386.4 96.7zM386.4 92.1c-1 0-1.8 0.8-1.8 1.8 0 1 0.8 1.8 1.8 1.8 1 0 1.8-0.8 1.8-1.8C388.2 92.9 387.4 92.1 386.4 92.1z"/><path fill="#777777" d="M400.4 109.5c-1.5 0-2.8-1.3-2.8-2.8s1.3-2.8 2.8-2.8 2.8 1.3 2.8 2.8S401.9 109.5 400.4 109.5zM400.4 104.9c-1 0-1.8 0.8-1.8 1.8 0 1 0.8 1.8 1.8 1.8 1 0 1.8-0.8 1.8-1.8C402.2 105.7 401.4 104.9 400.4 104.9z"/><path fill="#777777" d="M381.8 101.8c-1.5 0-2.8-1.3-2.8-2.8s1.3-2.8 2.8-2.8c1.5 0 2.8 1.3 2.8 2.8S383.4 101.8 381.8 101.8zM381.8 97.2c-1 0-1.8 0.8-1.8 1.8s0.8 1.8 1.8 1.8c1 0 1.8-0.8 1.8-1.8S382.8 97.2 381.8 97.2z"/><path fill="#777777" d="M372.8 68.6h-28.9V55.4h28.9V68.6zM344.4 68.1h27.9V55.9h-27.9V68.1z"/><path fill="#777777" d="M372.8 81.2h-28.9V68.1h28.9V81.2zM344.4 80.7h27.9V68.6h-27.9V80.7z"/><path fill="#777777" d="M372.8 106.9h-28.9V93.8h28.9V106.9zM344.4 106.4h27.9V94.3h-27.9V106.4z"/><path fill="#777777" d="M372.8 119.6h-28.9v-13.1h28.9V119.6zM344.4 119.1h27.9v-12.1h-27.9V119.1z"/><path fill="#777777" d="M372.8 132.2h-28.9v-13.2h28.9V132.2zM344.4 131.7h27.9v-12.2h-27.9V131.7z"/><path fill="#777777" d="M372.8 145.2h-28.9v-13.5h28.9V145.2zM344.4 144.7h27.9v-12.5h-27.9V144.7z"/><path fill="#777777" d="M386.4 158.5h-28.9v-13.7h28.9V158.5zM358 158h27.9v-12.7h-27.9V158z"/><path fill="#777777" d="M386.4 171h-42.5v-13h42.5V171zM344.4 170.5h41.5v-12h-41.5V170.5z"/><path fill="#777777" d="M394.2 55.9h-21.9V29h21.9V55.9zM372.8 55.4h20.9V29.5h-20.9V55.4z"/><path fill="#777777" d="M48.7 184v0.6h-2.5v-0.6H48.7z"/><path fill="#777777" d="M51.4 181.4h0l-1.1 0.6 -0.2-0.7 1.4-0.8h0.8v6.5h-0.9v-5.7L51.4 181.4 51.4 181.4z"/><path fill="#777777" d="M54.6 187.1v-0.5l0.7-0.7c1.7-1.6 2.4-2.4 2.4-3.4 0-0.7-0.3-1.3-1.3-1.3 -0.6 0-1.1 0.3-1.4 0.5l-0.3-0.6c0.4-0.4 1.1-0.7 1.8-0.7 1.4 0 2 1 2 1.9 0 1.2-0.9 2.2-2.2 3.5l-0.5 0.5v0h2.9v0.7H54.6L54.6 187.1z"/><path fill="#777777" d="M60.4 182.2l1 2.7c0.2 0.5 0.3 0.9 0.4 1.3h0c0.1-0.4 0.3-0.8 0.4-1.3l0.9-2.7h0.9l-1.9 4.8h-0.8l-1.8-4.8H60.4z"/><path fill="#777777" d="M47.8 15.3v2.4h2.3v0.6h-2.3v2.4h-0.6v-2.4h-2.3v-0.6h2.3v-2.4H47.8z"/><path fill="#777777" d="M52.8 15h0l-1.1 0.6 -0.2-0.7 1.4-0.8h0.8v6.5h-0.9L52.8 15 52.8 15z"/><path fill="#777777" d="M56.1 20.7v-0.5l0.7-0.7c1.7-1.6 2.4-2.4 2.4-3.4 0-0.7-0.3-1.3-1.3-1.3 -0.6 0-1.1 0.3-1.4 0.6l-0.3-0.6c0.4-0.4 1.1-0.7 1.8-0.7 1.4 0 2 1 2 1.9 0 1.2-0.9 2.2-2.2 3.5l-0.5 0.5v0h2.9v0.7h-4.2L56.1 20.7 56.1 20.7z"/><path fill="#777777" d="M61.8 15.8l1 2.7c0.2 0.5 0.3 0.9 0.4 1.3h0c0.1-0.4 0.3-0.8 0.4-1.2l0.9-2.7h0.9l-1.9 4.8h-0.8l-1.8-4.8H61.8z"/><path fill="#777777" d="M386.8 16.4v2.4h2.3v0.6h-2.3v2.4h-0.6v-2.4h-2.3v-0.6h2.3v-2.4H386.8z"/><path fill="#777777" d="M391.8 16.1h0l-1.1 0.6 -0.2-0.7 1.4-0.8h0.8v6.5h-0.8V16.1L391.8 16.1z"/><path fill="#777777" d="M395 21.7v-0.5l0.7-0.7c1.7-1.6 2.4-2.4 2.4-3.4 0-0.7-0.3-1.3-1.3-1.3 -0.6 0-1.1 0.3-1.4 0.6l-0.3-0.6c0.4-0.4 1.1-0.7 1.8-0.7 1.4 0 2 1 2 1.9 0 1.2-0.9 2.2-2.2 3.5l-0.5 0.5v0h2.9v0.7H395z"/><path fill="#777777" d="M400.8 16.9l0.9 2.7c0.2 0.5 0.3 0.9 0.4 1.3h0c0.1-0.4 0.3-0.8 0.4-1.3l0.9-2.7h0.9l-1.9 4.8h-0.8l-1.8-4.8H400.8z"/><path fill="#777777" d="M386.6 33.5c-0.2 0.3-0.3 0.6-0.3 1 0 0.6 0.3 0.9 0.8 0.9 0.4 0 0.7-0.2 0.9-0.8 0.3-0.7 0.6-1.2 1.3-1.2 0.7 0 1.2 0.6 1.2 1.5 0 0.5-0.1 0.8-0.2 1l-0.5-0.2c0.1-0.1 0.2-0.4 0.2-0.8 0-0.6-0.4-0.8-0.7-0.8 -0.4 0-0.6 0.3-0.9 0.9 -0.3 0.8-0.7 1.1-1.3 1.1 -0.7 0-1.3-0.5-1.3-1.6 0-0.4 0.1-0.9 0.3-1.1L386.6 33.5z"/><path fill="#777777" d="M390.4 37.5h-4.5v-0.6h4.5V37.5z"/><path fill="#777777" d="M386.1 41.9c-0.1-0.3-0.2-0.8-0.2-1.4 0-0.7 0.2-1.2 0.6-1.7 0.4-0.4 1-0.6 1.7-0.6 1.3 0 2.3 0.9 2.3 2.4 0 0.5-0.1 0.9-0.2 1.1l-0.5-0.1c0.1-0.2 0.2-0.5 0.2-1 0-1.1-0.7-1.8-1.8-1.8 -1.1 0-1.8 0.7-1.8 1.7 0 0.4 0.1 0.6 0.1 0.8h1.3v-0.9h0.5v1.5L386.1 41.9 386.1 41.9 386.1 41.9z"/><path fill="#777777" d="M385.4 45.6h-0.3V42.3h0.3V45.6z"/><path fill="#777777" d="M390.4 46.7h-4.5v-0.6h4.5V46.7z"/><path fill="#777777" d="M385.9 47.7h4.5v0.6l-2.3 1.4c-0.5 0.3-1 0.6-1.5 0.8l0 0c0.6-0.1 1.1-0.1 1.8-0.1h1.9v0.5h-4.5v-0.6l2.3-1.4c0.5-0.3 1-0.6 1.5-0.8l0 0c-0.6 0-1.1 0-1.9 0h-1.9V47.7L385.9 47.7z"/><path fill="#777777" d="M27.1 46.3h-2v-0.7h5v0.7h-2.1v6h-0.9L27.1 46.3 27.1 46.3z"/><path fill="#777777" d="M33.1 52.5c-1.8 0-3-1.4-3-3.4 0-2.1 1.3-3.5 3.1-3.5 1.9 0 3 1.4 3 3.4 0 2.3-1.4 3.6-3.1 3.6H33.1zM33.2 51.7c1.4 0 2.2-1.3 2.2-2.8 0-1.3-0.7-2.7-2.2-2.7 -1.5 0-2.2 1.4-2.2 2.8 0 1.4 0.8 2.7 2.2 2.7H33.2z"/><path fill="#777777" d="M37.4 45.7c0.4-0.1 1-0.1 1.7-0.1 0.9 0 1.5 0.2 1.9 0.6 0.4 0.3 0.6 0.8 0.6 1.4 0 0.6-0.2 1.1-0.5 1.4 -0.5 0.5-1.2 0.7-2.1 0.7 -0.3 0-0.5 0-0.7-0.1v2.7h-0.9L37.4 45.7 37.4 45.7zM38.3 48.9c0.2 0.1 0.4 0.1 0.7 0.1 1.1 0 1.7-0.5 1.7-1.4 0-0.9-0.6-1.3-1.6-1.3 -0.4 0-0.7 0-0.8 0.1V48.9z"/><path fill="#777777" d="M388.7 184v0.6h-2.5v-0.6H388.7z"/><path fill="#777777" d="M391.4 181.4h0l-1.1 0.6 -0.2-0.7 1.4-0.8h0.8v6.5h-0.8V181.4L391.4 181.4z"/><path fill="#777777" d="M394.6 187.1v-0.5l0.7-0.7c1.7-1.6 2.4-2.4 2.4-3.4 0-0.7-0.3-1.3-1.3-1.3 -0.6 0-1.1 0.3-1.4 0.5l-0.3-0.6c0.4-0.4 1.1-0.7 1.8-0.7 1.4 0 2 1 2 1.9 0 1.2-0.9 2.2-2.2 3.5l-0.5 0.5v0h2.9v0.7H394.6L394.6 187.1z"/><path fill="#777777" d="M400.4 182.2l0.9 2.7c0.2 0.5 0.3 0.9 0.4 1.3h0c0.1-0.4 0.3-0.8 0.4-1.3l0.9-2.7h0.9l-1.9 4.8h-0.8l-1.8-4.8H400.4z"/><path fill="#777777" d="M378 63.8c-0.2 0.1-0.6 0.2-1.2 0.2 -1.3 0-2.2-0.8-2.2-2.3 0-1.4 1-2.4 2.4-2.4 0.6 0 0.9 0.1 1.1 0.2l-0.1 0.5c-0.2-0.1-0.5-0.2-0.9-0.2 -1.1 0-1.8 0.7-1.8 1.8 0 1.1 0.6 1.8 1.7 1.8 0.4 0 0.7-0.1 1-0.2L378 63.8z"/><path fill="#777777" d="M380 61.9v0.4h-1.6v-0.4H380z"/><path fill="#777777" d="M381.4 62.5l-0.5 1.4h-0.6l1.5-4.5h0.7l1.5 4.5h-0.6l-0.5-1.4H381.4zM382.9 62.1l-0.4-1.3c-0.1-0.3-0.2-0.6-0.2-0.8h0c-0.1 0.3-0.1 0.5-0.2 0.8l-0.4 1.3H382.9L382.9 62.1z"/><path fill="#777777" d="M378.2 77c-0.2 0.1-0.6 0.2-1.2 0.2 -1.3 0-2.2-0.8-2.2-2.3 0-1.4 1-2.4 2.3-2.4 0.6 0 0.9 0.1 1.1 0.2l-0.1 0.5c-0.2-0.1-0.5-0.2-0.9-0.2 -1.1 0-1.8 0.7-1.8 1.8 0 1.1 0.6 1.8 1.7 1.8 0.4 0 0.7-0.1 1-0.2L378.2 77z"/><path fill="#777777" d="M380.3 75.1v0.4h-1.6v-0.4H380.3z"/><path fill="#777777" d="M381 72.7c0.3-0.1 0.7-0.1 1.1-0.1 0.6 0 1 0.1 1.2 0.3 0.2 0.2 0.4 0.4 0.4 0.8 0 0.4-0.3 0.8-0.8 1v0c0.4 0.1 0.9 0.5 0.9 1.1 0 0.4-0.2 0.7-0.4 0.9 -0.3 0.3-0.8 0.4-1.5 0.4 -0.4 0-0.7 0-0.9-0.1V72.7zM381.5 74.5h0.5c0.6 0 1-0.3 1-0.8 0-0.5-0.4-0.7-1-0.7 -0.3 0-0.4 0-0.5 0V74.5L381.5 74.5zM381.5 76.7c0.1 0 0.3 0 0.5 0 0.6 0 1.2-0.2 1.2-0.9 0-0.6-0.5-0.9-1.2-0.9h-0.5V76.7z"/><path fill="#777777" d="M375.6 89.4c-0.3 0.1-0.8 0.2-1.4 0.2 -0.7 0-1.2-0.2-1.7-0.6 -0.4-0.4-0.6-1-0.6-1.7 0-1.3 0.9-2.3 2.4-2.3 0.5 0 0.9 0.1 1.1 0.2l-0.1 0.5c-0.2-0.1-0.5-0.2-1-0.2 -1.1 0-1.8 0.7-1.8 1.8 0 1.1 0.7 1.8 1.7 1.8 0.4 0 0.6-0.1 0.8-0.1v-1.3h-0.9v-0.5h1.5v2.2H375.6z"/><path fill="#777777" d="M376.5 89.6v-4.5h0.6l1.4 2.3c0.3 0.5 0.6 1 0.8 1.5l0 0c-0.1-0.6-0.1-1.1-0.1-1.8v-1.9h0.5v4.5h-0.6l-1.4-2.3c-0.3-0.5-0.6-1-0.8-1.5l0 0c0 0.6 0 1.1 0 1.9v1.9h-0.5v0H376.5z"/><path fill="#777777" d="M380.8 85.1c0.4-0.1 0.8-0.1 1.2-0.1 0.8 0 1.4 0.2 1.8 0.6 0.4 0.4 0.6 0.9 0.6 1.6 0 0.7-0.2 1.3-0.6 1.7 -0.4 0.4-1.1 0.6-2 0.6 -0.4 0-0.8 0-1.1-0.1V85.1L380.8 85.1zM381.4 89.1c0.1 0 0.4 0 0.6 0 1.2 0 1.9-0.7 1.9-1.9 0-1.1-0.6-1.7-1.8-1.7 -0.3 0-0.5 0-0.7 0.1V89.1L381.4 89.1z"/><path fill="#777777" d="M374.1 98.4c0.3-0.1 0.7-0.1 1.1-0.1 0.6 0 1 0.1 1.3 0.4 0.2 0.2 0.4 0.5 0.4 0.9 0 0.6-0.4 1-0.8 1.1v0c0.3 0.1 0.5 0.4 0.7 0.9 0.1 0.6 0.3 1.1 0.3 1.2h-0.6c-0.1-0.1-0.2-0.5-0.3-1.1 -0.1-0.6-0.4-0.9-0.9-0.9h-0.5v1.9h-0.6v-4.4L374.1 98.4 374.1 98.4zM374.7 100.4h0.6c0.6 0 1-0.3 1-0.9 0-0.6-0.4-0.8-1-0.8 -0.3 0-0.5 0-0.6 0.1v1.6H374.7z"/><path fill="#777777" d="M377.2 114.9c-0.3 0.1-0.8 0.2-1.4 0.2 -0.7 0-1.2-0.2-1.7-0.6 -0.4-0.4-0.6-1-0.6-1.7 0-1.3 0.9-2.3 2.4-2.3 0.5 0 0.9 0.1 1.1 0.2l-0.1 0.5c-0.2-0.1-0.5-0.2-1-0.2 -1.1 0-1.8 0.7-1.8 1.8 0 1.1 0.7 1.8 1.7 1.8 0.4 0 0.6-0.1 0.8-0.1v-1.3h-0.9v-0.5h1.5V114.9L377.2 114.9z"/><path fill="#777777" d="M374.1 124.8c0.3-0.1 0.7-0.1 1.1-0.1 0.6 0 1 0.1 1.2 0.3 0.2 0.2 0.4 0.4 0.4 0.8 0 0.4-0.3 0.8-0.8 1v0c0.4 0.1 0.9 0.5 0.9 1.1 0 0.4-0.2 0.7-0.4 0.9 -0.3 0.3-0.8 0.4-1.5 0.4 -0.4 0-0.7 0-0.9-0.1v-4.4H374.1zM374.7 126.6h0.5c0.6 0 1-0.3 1-0.8 0-0.5-0.4-0.7-1-0.7 -0.3 0-0.4 0-0.5 0V126.6zM374.7 128.8c0.1 0 0.3 0 0.5 0 0.6 0 1.2-0.2 1.2-0.9 0-0.6-0.5-0.9-1.2-0.9h-0.5v1.7H374.7z"/><path fill="#777777" d="M378 140.8c-0.2 0.1-0.6 0.2-1.2 0.2 -1.3 0-2.2-0.8-2.2-2.3 0-1.4 1-2.4 2.3-2.4 0.6 0 0.9 0.1 1.1 0.2l-0.1 0.5c-0.2-0.1-0.5-0.2-0.9-0.2 -1.1 0-1.8 0.7-1.8 1.8 0 1.1 0.6 1.8 1.7 1.8 0.4 0 0.7-0.1 1-0.2L378 140.8z"/><path fill="#777777" d="M380.1 138.9v0.4h-1.6v-0.4H380.1z"/><path fill="#777777" d="M384 140.8c-0.2 0.1-0.6 0.2-1.2 0.2 -1.3 0-2.2-0.8-2.2-2.3 0-1.4 1-2.4 2.3-2.4 0.6 0 0.9 0.1 1.1 0.2l-0.1 0.5c-0.2-0.1-0.5-0.2-0.9-0.2 -1.1 0-1.8 0.7-1.8 1.8 0 1.1 0.6 1.8 1.7 1.8 0.4 0 0.7-0.1 1-0.2L384 140.8z"/><path fill="#777777" d="M392.4 153.5c-0.2 0.1-0.6 0.2-1.2 0.2 -1.3 0-2.2-0.8-2.2-2.3 0-1.4 1-2.4 2.4-2.4 0.6 0 0.9 0.1 1.1 0.2l-0.1 0.5c-0.2-0.1-0.5-0.2-0.9-0.2 -1.1 0-1.8 0.7-1.8 1.8 0 1.1 0.6 1.8 1.7 1.8 0.4 0 0.7-0.1 1-0.2L392.4 153.5z"/><path fill="#777777" d="M394.5 151.6v0.4h-1.6v-0.4H394.5z"/><path fill="#777777" d="M395.2 149.2c0.4-0.1 0.8-0.1 1.2-0.1 0.8 0 1.4 0.2 1.8 0.6 0.4 0.4 0.6 0.9 0.6 1.6 0 0.7-0.2 1.3-0.6 1.7 -0.4 0.4-1.1 0.6-2 0.6 -0.4 0-0.8 0-1.1-0.1V149.2L395.2 149.2zM395.8 153.2c0.1 0 0.4 0 0.6 0 1.2 0 1.9-0.7 1.9-1.9 0-1.1-0.6-1.7-1.8-1.7 -0.3 0-0.5 0-0.7 0.1V153.2L395.8 153.2z"/><path fill="#777777" d="M388.1 162.2c0.3 0.2 0.6 0.3 1 0.3 0.6 0 0.9-0.3 0.9-0.8 0-0.4-0.2-0.7-0.8-0.9 -0.7-0.3-1.2-0.6-1.2-1.3 0-0.7 0.6-1.2 1.5-1.2 0.5 0 0.8 0.1 1 0.2l-0.2 0.5c-0.1-0.1-0.4-0.2-0.8-0.2 -0.6 0-0.8 0.4-0.8 0.7 0 0.4 0.3 0.6 0.9 0.9 0.8 0.3 1.1 0.7 1.1 1.3 0 0.7-0.5 1.3-1.6 1.3 -0.4 0-0.9-0.1-1.1-0.3L388.1 162.2z"/><path fill="#777777" d="M392 158.4v4.5h-0.6v-4.5H392z"/><path fill="#777777" d="M396.5 162.7c-0.3 0.1-0.8 0.2-1.4 0.2 -0.7 0-1.2-0.2-1.7-0.6 -0.4-0.4-0.6-1-0.6-1.7 0-1.3 0.9-2.3 2.4-2.3 0.5 0 0.9 0.1 1.1 0.2l-0.1 0.5c-0.2-0.1-0.5-0.2-1-0.2 -1.1 0-1.8 0.7-1.8 1.8 0 1.1 0.7 1.8 1.7 1.8 0.4 0 0.6-0.1 0.8-0.1v-1.3h-0.9v-0.5h1.5v2.2H396.5z"/><path fill="#777777" d="M388.4 171c-1.2 0-2-0.9-2-2.3 0-1.4 0.9-2.4 2.1-2.4 1.2 0 2 0.9 2 2.3 0 1.5-0.9 2.4-2.1 2.4H388.4zM388.4 170.5c0.9 0 1.4-0.8 1.4-1.9 0-0.9-0.5-1.8-1.4-1.8s-1.4 0.9-1.4 1.9c0 0.9 0.5 1.8 1.4 1.8H388.4z"/><path fill="#777777" d="M391.8 166.4v2.7c0 1 0.4 1.4 1 1.4 0.7 0 1.1-0.4 1.1-1.4v-2.7h0.6v2.6c0 1.4-0.7 1.9-1.7 1.9 -0.9 0-1.6-0.5-1.6-1.9v-2.6L391.8 166.4 391.8 166.4z"/><path fill="#777777" d="M396.4 166.9h-1.4v-0.5h3.3v0.5h-1.4v4h-0.6v-4H396.4z"/></svg>