<?xml version="1.0" encoding="utf-8"?>
<!-- Generator: Adobe Illustrator 16.0.4, SVG Export Plug-In . SVG Version: 6.00 Build 0)  -->
<!DOCTYPE svg PUBLIC "-//W3C//DTD SVG 1.1//EN" "http://www.w3.org/Graphics/SVG/1.1/DTD/svg11.dtd">
<svg version="1.1" id="pinout" xmlns="http://www.w3.org/2000/svg" xmlns:xlink="http://www.w3.org/1999/xlink" x="0px" y="0px"
	 width="450px" height="198px" viewBox="0 0 450 198" enable-background="new 0 0 450 198" xml:space="preserve">
<path fill="#74787B" d="M24.808,160.208c-6.707,0-12.164,5.456-12.164,12.163c0,6.608,5.298,11.989,11.867,12.149h0.593
	c6.57-0.16,11.867-5.541,11.867-12.149C36.971,165.664,31.514,160.208,24.808,160.208z M25.104,182.146h-0.593
	c-5.26-0.158-9.494-4.477-9.494-9.775c0-5.397,4.392-9.79,9.791-9.79c5.398,0,9.79,4.393,9.79,9.79
	C34.598,177.67,30.364,181.988,25.104,182.146z"/>
<path fill="#74787B" d="M377.176,57.957c-0.158-2.457-2.186-4.416-4.682-4.416c-2.597,0-4.71,2.114-4.71,4.712
	c0,2.599,2.113,4.712,4.71,4.712c2.496,0,4.523-1.957,4.682-4.416V57.957z M375.989,58.55c-0.153,1.803-1.653,3.229-3.495,3.229
	c-1.942,0-3.523-1.581-3.523-3.525c0-1.943,1.581-3.525,3.523-3.525c1.842,0,3.342,1.425,3.495,3.229V58.55z"/>
<path fill="#74787B" d="M377.176,71.406c-0.158-2.457-2.186-4.416-4.682-4.416c-2.597,0-4.71,2.114-4.71,4.712
	s2.113,4.712,4.71,4.712c2.496,0,4.523-1.956,4.682-4.416V71.406z M375.989,71.999c-0.153,1.803-1.653,3.229-3.495,3.229
	c-1.942,0-3.523-1.581-3.523-3.525c0-1.943,1.581-3.525,3.523-3.525c1.842,0,3.342,1.425,3.495,3.229V71.999z"/>
<path fill="#74787B" d="M377.176,84.856c-0.158-2.457-2.186-4.416-4.682-4.416c-2.597,0-4.71,2.114-4.71,4.712
	c0,2.599,2.113,4.712,4.71,4.712c2.496,0,4.523-1.957,4.682-4.416V84.856z M375.989,85.449c-0.153,1.803-1.653,3.229-3.495,3.229
	c-1.942,0-3.523-1.581-3.523-3.525c0-1.943,1.581-3.525,3.523-3.525c1.842,0,3.342,1.425,3.495,3.229V85.449z"/>
<path fill="#74787B" d="M377.176,98.305c-0.158-2.457-2.186-4.416-4.682-4.416c-2.597,0-4.71,2.114-4.71,4.712
	s2.113,4.712,4.71,4.712c2.496,0,4.523-1.956,4.682-4.416V98.305z M375.989,98.898c-0.153,1.803-1.653,3.229-3.495,3.229
	c-1.942,0-3.523-1.581-3.523-3.525c0-1.943,1.581-3.525,3.523-3.525c1.842,0,3.342,1.425,3.495,3.229V98.898z"/>
<path fill="#74787B" d="M377.176,111.753c-0.158-2.457-2.186-4.415-4.682-4.415c-2.597,0-4.71,2.114-4.71,4.712
	s2.113,4.712,4.71,4.712c2.496,0,4.523-1.956,4.682-4.415V111.753z M375.989,112.347c-0.153,1.803-1.653,3.229-3.495,3.229
	c-1.942,0-3.523-1.581-3.523-3.525c0-1.943,1.581-3.525,3.523-3.525c1.842,0,3.342,1.425,3.495,3.229V112.347z"/>
<path fill="#74787B" d="M377.176,125.204c-0.158-2.457-2.186-4.416-4.682-4.416c-2.597,0-4.71,2.114-4.71,4.712
	s2.113,4.712,4.71,4.712c2.496,0,4.523-1.956,4.682-4.416V125.204z M375.989,125.797c-0.153,1.803-1.653,3.229-3.495,3.229
	c-1.942,0-3.523-1.581-3.523-3.525c0-1.944,1.581-3.525,3.523-3.525c1.842,0,3.342,1.425,3.495,3.229V125.797z"/>
<path fill="#74787B" d="M377.176,138.652c-0.158-2.457-2.186-4.415-4.682-4.415c-2.597,0-4.71,2.113-4.71,4.712
	s2.113,4.712,4.71,4.712c2.496,0,4.523-1.956,4.682-4.415V138.652z M375.989,139.246c-0.153,1.803-1.653,3.229-3.495,3.229
	c-1.942,0-3.523-1.581-3.523-3.525c0-1.943,1.581-3.525,3.523-3.525c1.842,0,3.342,1.426,3.495,3.229V139.246z"/>
<path fill="#74787B" d="M391.416,57.957c-0.157-2.457-2.186-4.416-4.682-4.416c-2.596,0-4.71,2.114-4.71,4.712
	c0,2.599,2.114,4.712,4.71,4.712c2.496,0,4.524-1.957,4.682-4.416V57.957z M390.229,58.55c-0.153,1.803-1.652,3.229-3.495,3.229
	c-1.942,0-3.523-1.581-3.523-3.525c0-1.943,1.581-3.525,3.523-3.525c1.843,0,3.342,1.425,3.495,3.229V58.55z"/>
<path fill="#74787B" d="M391.416,71.406c-0.157-2.457-2.186-4.416-4.682-4.416c-2.596,0-4.71,2.114-4.71,4.712
	s2.114,4.712,4.71,4.712c2.496,0,4.524-1.956,4.682-4.416V71.406z M390.229,71.999c-0.153,1.803-1.652,3.229-3.495,3.229
	c-1.942,0-3.523-1.581-3.523-3.525c0-1.943,1.581-3.525,3.523-3.525c1.843,0,3.342,1.425,3.495,3.229V71.999z"/>
<path fill="#74787B" d="M391.416,84.856c-0.157-2.457-2.186-4.416-4.682-4.416c-2.596,0-4.71,2.114-4.71,4.712
	c0,2.599,2.114,4.712,4.71,4.712c2.496,0,4.524-1.957,4.682-4.416V84.856z M390.229,85.449c-0.153,1.803-1.652,3.229-3.495,3.229
	c-1.942,0-3.523-1.581-3.523-3.525c0-1.943,1.581-3.525,3.523-3.525c1.843,0,3.342,1.425,3.495,3.229V85.449z"/>
<path fill="#74787B" d="M391.416,98.305c-0.157-2.457-2.186-4.416-4.682-4.416c-2.596,0-4.71,2.114-4.71,4.712
	s2.114,4.712,4.71,4.712c2.496,0,4.524-1.956,4.682-4.416V98.305z M390.229,98.898c-0.153,1.803-1.652,3.229-3.495,3.229
	c-1.942,0-3.523-1.581-3.523-3.525c0-1.943,1.581-3.525,3.523-3.525c1.843,0,3.342,1.425,3.495,3.229V98.898z"/>
<path fill="#74787B" d="M391.416,111.753c-0.157-2.457-2.186-4.415-4.682-4.415c-2.596,0-4.71,2.114-4.71,4.712
	s2.114,4.712,4.71,4.712c2.496,0,4.524-1.956,4.682-4.415V111.753z M390.229,112.347c-0.153,1.803-1.652,3.229-3.495,3.229
	c-1.942,0-3.523-1.581-3.523-3.525c0-1.943,1.581-3.525,3.523-3.525c1.843,0,3.342,1.425,3.495,3.229V112.347z"/>
<path fill="#74787B" d="M391.416,125.204c-0.157-2.457-2.186-4.416-4.682-4.416c-2.596,0-4.71,2.114-4.71,4.712
	s2.114,4.712,4.71,4.712c2.496,0,4.524-1.956,4.682-4.416V125.204z M390.229,125.797c-0.153,1.803-1.652,3.229-3.495,3.229
	c-1.942,0-3.523-1.581-3.523-3.525c0-1.944,1.581-3.525,3.523-3.525c1.843,0,3.342,1.425,3.495,3.229V125.797z"/>
<path fill="#74787B" d="M391.416,138.652c-0.157-2.457-2.186-4.415-4.682-4.415c-2.596,0-4.71,2.113-4.71,4.712
	s2.114,4.712,4.71,4.712c2.496,0,4.524-1.956,4.682-4.415V138.652z M390.229,139.246c-0.153,1.803-1.652,3.229-3.495,3.229
	c-1.942,0-3.523-1.581-3.523-3.525c0-1.943,1.581-3.525,3.523-3.525c1.843,0,3.342,1.426,3.495,3.229V139.246z"/>
<path fill="#74787B" d="M24.808,11.201c-6.644,0-12.053,5.356-12.155,11.976l0.012,0.594c0.217,6.518,5.573,11.758,12.143,11.758
	c6.707,0,12.164-5.457,12.164-12.164C36.971,16.657,31.514,11.201,24.808,11.201z M24.808,33.154c-5.261,0-9.555-4.175-9.77-9.384
	l-0.012-0.594c0.102-5.311,4.446-9.603,9.781-9.603c5.398,0,9.79,4.393,9.79,9.791S30.206,33.154,24.808,33.154z"/>
<path fill="#74787B" d="M392.684,160.208c-6.705,0-12.163,5.456-12.163,12.163c0,6.608,5.298,11.989,11.866,12.149h0.594
	c6.571-0.16,11.867-5.541,11.867-12.149C404.848,165.664,399.392,160.208,392.684,160.208z M392.98,182.146h-0.594
	c-5.259-0.158-9.493-4.477-9.493-9.775c0-5.397,4.393-9.79,9.79-9.79c5.398,0,9.79,4.393,9.79,9.79
	C402.474,177.67,398.242,181.988,392.98,182.146z"/>
<path fill="#74787B" d="M392.684,11.201c-6.643,0-12.052,5.356-12.154,11.976l0.012,0.594c0.218,6.518,5.574,11.758,12.143,11.758
	c6.708,0,12.164-5.457,12.164-12.164C404.848,16.657,399.392,11.201,392.684,11.201z M392.684,33.154
	c-5.259,0-9.554-4.175-9.77-9.384l-0.012-0.594c0.103-5.311,4.448-9.603,9.781-9.603c5.398,0,9.79,4.393,9.79,9.791
	S398.082,33.154,392.684,33.154z"/>
<g>
	<path fill="#74787B" d="M393.488,147.198h-28.185V50.037h28.185V147.198z M365.897,146.604h26.997V50.63h-26.997V146.604z"/>
</g>
<path fill="#74787B" d="M411.773,174.243c0,9.134-7.432,16.566-16.568,16.566H20.939c-9.135,0-16.566-7.433-16.566-16.566V19.939
	c0-9.135,7.431-16.566,16.566-16.566h374.266c9.137,0,16.568,7.431,16.568,16.566v30.265h2.373V19.939
	c0-1.997-0.315-3.918-0.891-5.726l-0.593-1.619c-1.919-4.546-5.565-8.191-10.112-10.111l-1.618-0.593
	C399.125,1.315,397.201,1,395.205,1H20.939c-2.223,0-4.347,0.406-6.33,1.111l-1.478,0.593c-4.31,1.961-7.768,5.476-9.626,9.84
	l-0.593,1.609C2.324,15.98,2,17.922,2,19.939v154.304c0,2.018,0.324,3.96,0.912,5.785l0.593,1.609
	c1.925,4.522,5.56,8.148,10.09,10.062l1.618,0.594c1.809,0.574,3.731,0.89,5.727,0.89h374.266c10.444,0,18.941-8.496,18.941-18.939
	v-27.8l-2.376-0.024L411.773,174.243z"/>
<g>
	<path fill="#74787B" d="M72.497,15.597c0.498-0.095,1.15-0.166,1.981-0.166c1.02,0,1.767,0.237,2.241,0.664
		c0.439,0.379,0.712,0.96,0.712,1.661c0,0.723-0.214,1.292-0.628,1.708c-0.546,0.581-1.436,0.877-2.444,0.877
		c-0.308,0-0.593-0.012-0.83-0.072v3.215h-1.032V15.597z M73.528,19.429c0.225,0.059,0.51,0.082,0.854,0.082
		c1.245,0,2.004-0.604,2.004-1.695c0-1.056-0.747-1.565-1.886-1.565c-0.451,0-0.795,0.036-0.973,0.083V19.429z"/>
	<path fill="#74787B" d="M79.083,16.771c-0.379,0-0.628-0.297-0.628-0.64c0-0.368,0.261-0.652,0.652-0.652
		c0.379,0,0.64,0.284,0.64,0.652c0,0.343-0.249,0.64-0.652,0.64H79.083z M78.584,23.485v-5.74h1.043v5.74H78.584z"/>
	<path fill="#74787B" d="M81.361,19.298c0-0.605-0.012-1.079-0.048-1.553h0.925l0.059,0.937h0.024
		c0.285-0.533,0.949-1.067,1.898-1.067c0.795,0,2.028,0.474,2.028,2.443v3.428h-1.043v-3.309c0-0.926-0.344-1.708-1.328-1.708
		c-0.676,0-1.21,0.486-1.4,1.067c-0.048,0.131-0.071,0.32-0.071,0.487v3.463h-1.043V19.298z"/>
	<path fill="#74787B" d="M87.805,22.417c0.32,0.19,0.866,0.403,1.387,0.403c0.748,0,1.103-0.368,1.103-0.854
		c0-0.499-0.296-0.759-1.056-1.044c-1.043-0.379-1.53-0.948-1.53-1.625c0-0.925,0.759-1.684,1.98-1.684
		c0.582,0,1.091,0.154,1.399,0.356l-0.249,0.748c-0.225-0.131-0.641-0.333-1.174-0.333c-0.617,0-0.949,0.356-0.949,0.784
		c0,0.474,0.332,0.687,1.079,0.984c0.984,0.367,1.506,0.866,1.506,1.72c0,1.02-0.795,1.731-2.135,1.731
		c-0.628,0-1.209-0.166-1.612-0.403L87.805,22.417z"/>
	<path fill="#74787B" d="M97.096,16.748h-0.023l-1.34,0.723l-0.202-0.795l1.684-0.9h0.89v7.709h-1.008V16.748z"/>
	<path fill="#74787B" d="M103.67,19.903v0.759h-2.93v-0.759H103.67z"/>
	<path fill="#74787B" d="M107.146,15.645c1.494,0,2.253,0.925,2.253,1.898c0,0.651-0.332,1.364-1.281,1.802v0.036
		c0.961,0.379,1.554,1.067,1.554,1.992c0,1.353-1.15,2.243-2.621,2.243c-1.613,0-2.586-0.949-2.586-2.076
		c0-0.974,0.581-1.672,1.518-2.076v-0.036c-0.866-0.403-1.233-1.067-1.233-1.731c0-1.223,1.031-2.052,2.384-2.052H107.146z
		 M107.075,22.856c0.937,0,1.542-0.582,1.542-1.376c0-0.925-0.652-1.387-1.696-1.684c-0.901,0.261-1.387,0.866-1.387,1.602
		c-0.036,0.771,0.558,1.459,1.53,1.459H107.075z M107.087,16.392c-0.866,0-1.34,0.569-1.34,1.233
		c-0.012,0.771,0.581,1.187,1.471,1.423c0.664-0.225,1.174-0.699,1.174-1.398c0-0.618-0.368-1.258-1.293-1.258H107.087z"/>
	<path fill="#74787B" d="M117.541,22.109c0,0.499,0.023,0.984,0.083,1.376h-0.937l-0.095-0.723h-0.036
		c-0.309,0.451-0.937,0.854-1.755,0.854c-1.162,0-1.756-0.819-1.756-1.649c0-1.387,1.234-2.146,3.452-2.135v-0.12
		c0-0.474-0.131-1.339-1.305-1.328c-0.545,0-1.103,0.154-1.506,0.428l-0.238-0.7c0.475-0.297,1.175-0.499,1.898-0.499
		c1.767,0,2.194,1.198,2.194,2.348V22.109z M116.521,20.555c-1.139-0.023-2.431,0.178-2.431,1.293c0,0.688,0.45,0.996,0.972,0.996
		c0.759,0,1.245-0.474,1.412-0.96c0.035-0.107,0.047-0.225,0.047-0.332V20.555z"/>
	<path fill="#74787B" d="M119.216,19.535c0-0.676-0.012-1.257-0.048-1.791h0.914l0.047,1.126h0.036
		c0.261-0.771,0.901-1.257,1.601-1.257c0.107,0,0.189,0.012,0.285,0.023v0.985c-0.106-0.012-0.213-0.024-0.356-0.024
		c-0.735,0-1.257,0.558-1.399,1.329c-0.024,0.154-0.036,0.32-0.036,0.486v3.072h-1.043V19.535z"/>
	<path fill="#74787B" d="M123.571,20.804c0.024,1.4,0.913,1.98,1.957,1.98c0.748,0,1.21-0.13,1.59-0.296l0.189,0.747
		c-0.368,0.166-1.008,0.368-1.922,0.368c-1.755,0-2.822-1.174-2.822-2.894c0-1.731,1.032-3.095,2.704-3.095
		c1.874,0,2.36,1.649,2.36,2.704c0,0.214-0.012,0.369-0.036,0.487H123.571z M126.619,20.057c0.012-0.664-0.273-1.695-1.436-1.695
		c-1.067,0-1.518,0.972-1.601,1.695H126.619z"/>
	<path fill="#74787B" d="M133.776,23.616c-1.542,0-2.752-1.139-2.752-2.954c0-1.921,1.269-3.048,2.846-3.048
		c1.648,0,2.764,1.198,2.764,2.941c0,2.135-1.483,3.061-2.847,3.061H133.776z M133.823,22.832c0.997,0,1.744-0.936,1.744-2.241
		c0-0.972-0.486-2.195-1.72-2.195c-1.222,0-1.755,1.139-1.755,2.231c0,1.256,0.711,2.205,1.72,2.205H133.823z"/>
	<path fill="#74787B" d="M137.954,19.535c0-0.676-0.012-1.257-0.047-1.791h0.913l0.047,1.126h0.036
		c0.261-0.771,0.901-1.257,1.601-1.257c0.106,0,0.19,0.012,0.284,0.023v0.985c-0.106-0.012-0.213-0.024-0.355-0.024
		c-0.735,0-1.257,0.558-1.399,1.329c-0.024,0.154-0.036,0.32-0.036,0.486v3.072h-1.043V19.535z"/>
	<path fill="#74787B" d="M142.38,16.771c-0.379,0-0.628-0.297-0.628-0.64c0-0.368,0.261-0.652,0.652-0.652
		c0.379,0,0.64,0.284,0.64,0.652c0,0.343-0.249,0.64-0.652,0.64H142.38z M141.882,23.485v-5.74h1.043v5.74H141.882z"/>
	<path fill="#74787B" d="M149.568,22.642c0,1.33-0.272,2.123-0.818,2.633c-0.57,0.51-1.375,0.688-2.1,0.688
		c-0.688,0-1.447-0.166-1.909-0.474l0.261-0.807c0.379,0.249,0.972,0.462,1.684,0.462c1.068,0,1.851-0.558,1.851-2.017v-0.628
		h-0.024c-0.309,0.533-0.937,0.96-1.827,0.96c-1.423,0-2.443-1.21-2.443-2.812c0-1.944,1.269-3.036,2.597-3.036
		c0.997,0,1.53,0.51,1.792,0.997h0.023l0.036-0.866h0.925c-0.036,0.403-0.048,0.877-0.048,1.566V22.642z M148.525,19.998
		c0-0.166-0.012-0.32-0.059-0.462c-0.19-0.616-0.688-1.115-1.459-1.115c-0.996,0-1.708,0.842-1.708,2.182
		c0,1.115,0.581,2.064,1.696,2.064c0.652,0,1.233-0.403,1.447-1.08c0.059-0.166,0.083-0.367,0.083-0.558V19.998z"/>
	<path fill="#74787B" d="M151.719,16.771c-0.379,0-0.628-0.297-0.628-0.64c0-0.368,0.261-0.652,0.652-0.652
		c0.379,0,0.64,0.284,0.64,0.652c0,0.343-0.249,0.64-0.652,0.64H151.719z M151.221,23.485v-5.74h1.043v5.74H151.221z"/>
	<path fill="#74787B" d="M153.998,19.298c0-0.605-0.012-1.079-0.048-1.553h0.925l0.059,0.937h0.024
		c0.285-0.533,0.949-1.067,1.898-1.067c0.795,0,2.028,0.474,2.028,2.443v3.428h-1.043v-3.309c0-0.926-0.344-1.708-1.328-1.708
		c-0.676,0-1.21,0.486-1.4,1.067c-0.048,0.131-0.071,0.32-0.071,0.487v3.463h-1.043V19.298z"/>
	<path fill="#74787B" d="M164.628,22.109c0,0.499,0.023,0.984,0.083,1.376h-0.937l-0.095-0.723h-0.036
		c-0.308,0.451-0.937,0.854-1.755,0.854c-1.163,0-1.756-0.819-1.756-1.649c0-1.387,1.234-2.146,3.452-2.135v-0.12
		c0-0.474-0.13-1.339-1.305-1.328c-0.545,0-1.103,0.154-1.506,0.428l-0.238-0.7c0.475-0.297,1.175-0.499,1.898-0.499
		c1.767,0,2.194,1.198,2.194,2.348V22.109z M163.608,20.555c-1.139-0.023-2.431,0.178-2.431,1.293c0,0.688,0.45,0.996,0.972,0.996
		c0.759,0,1.245-0.474,1.412-0.96c0.035-0.107,0.047-0.225,0.047-0.332V20.555z"/>
	<path fill="#74787B" d="M166.303,15.064h1.044v8.42h-1.044V15.064z"/>
	<path fill="#74787B" d="M177.23,23.224c-0.368,0.19-1.139,0.379-2.111,0.379c-2.253,0-3.938-1.423-3.938-4.044
		c0-2.502,1.696-4.186,4.175-4.186c0.984,0,1.625,0.213,1.897,0.343l-0.26,0.854c-0.38-0.189-0.937-0.332-1.602-0.332
		c-1.874,0-3.119,1.197-3.119,3.285c0,1.957,1.127,3.202,3.06,3.202c0.64,0,1.281-0.131,1.696-0.333L177.23,23.224z"/>
	<path fill="#74787B" d="M180.708,23.616c-1.542,0-2.751-1.139-2.751-2.954c0-1.921,1.269-3.048,2.846-3.048
		c1.649,0,2.764,1.198,2.764,2.941c0,2.135-1.483,3.061-2.846,3.061H180.708z M180.755,22.832c0.997,0,1.744-0.936,1.744-2.241
		c0-0.972-0.487-2.195-1.72-2.195c-1.222,0-1.756,1.139-1.756,2.231c0,1.256,0.711,2.205,1.72,2.205H180.755z"/>
	<path fill="#74787B" d="M184.887,15.064h1.044v8.42h-1.044V15.064z"/>
	<path fill="#74787B" d="M190.024,23.616c-1.541,0-2.751-1.139-2.751-2.954c0-1.921,1.269-3.048,2.846-3.048
		c1.649,0,2.764,1.198,2.764,2.941c0,2.135-1.483,3.061-2.846,3.061H190.024z M190.072,22.832c0.997,0,1.744-0.936,1.744-2.241
		c0-0.972-0.487-2.195-1.72-2.195c-1.222,0-1.756,1.139-1.756,2.231c0,1.256,0.711,2.205,1.72,2.205H190.072z"/>
	<path fill="#74787B" d="M199.005,21.907c0,0.605,0.012,1.126,0.048,1.578h-0.925l-0.059-0.938h-0.024
		c-0.261,0.463-0.877,1.068-1.897,1.068c-0.901,0-1.981-0.511-1.981-2.515v-3.356h1.044v3.166c0,1.092,0.344,1.838,1.281,1.838
		c0.7,0,1.187-0.486,1.377-0.961c0.059-0.142,0.094-0.332,0.094-0.533v-3.51h1.044V21.907z"/>
	<path fill="#74787B" d="M200.742,19.535c0-0.676-0.012-1.257-0.048-1.791h0.914l0.047,1.126h0.036
		c0.261-0.771,0.902-1.257,1.601-1.257c0.108,0,0.19,0.012,0.285,0.023v0.985c-0.106-0.012-0.213-0.024-0.356-0.024
		c-0.734,0-1.257,0.558-1.4,1.329c-0.023,0.154-0.035,0.32-0.035,0.486v3.072h-1.044V19.535z"/>
	<path fill="#74787B" d="M207.173,15.597c0.499-0.095,1.151-0.166,1.98-0.166c1.02,0,1.768,0.237,2.241,0.664
		c0.439,0.379,0.711,0.96,0.711,1.661c0,0.723-0.213,1.292-0.628,1.708c-0.546,0.581-1.435,0.877-2.443,0.877
		c-0.308,0-0.593-0.012-0.831-0.072v3.215h-1.031V15.597z M208.205,19.429c0.226,0.059,0.51,0.082,0.854,0.082
		c1.246,0,2.005-0.604,2.005-1.695c0-1.056-0.747-1.565-1.886-1.565c-0.45,0-0.794,0.036-0.973,0.083V19.429z"/>
	<path fill="#74787B" d="M213.759,16.771c-0.38,0-0.628-0.297-0.628-0.64c0-0.368,0.261-0.652,0.651-0.652
		c0.38,0,0.641,0.284,0.641,0.652c0,0.343-0.249,0.64-0.652,0.64H213.759z M213.261,23.485v-5.74h1.044v5.74H213.261z"/>
	<path fill="#74787B" d="M216.038,19.298c0-0.605-0.012-1.079-0.047-1.553h0.925l0.06,0.937h0.023
		c0.285-0.533,0.949-1.067,1.898-1.067c0.794,0,2.028,0.474,2.028,2.443v3.428h-1.044v-3.309c0-0.926-0.344-1.708-1.328-1.708
		c-0.677,0-1.209,0.486-1.4,1.067c-0.047,0.131-0.07,0.32-0.07,0.487v3.463h-1.044V19.298z"/>
	<path fill="#74787B" d="M224.96,23.616c-1.542,0-2.751-1.139-2.751-2.954c0-1.921,1.269-3.048,2.846-3.048
		c1.649,0,2.764,1.198,2.764,2.941c0,2.135-1.482,3.061-2.846,3.061H224.96z M225.007,22.832c0.997,0,1.745-0.936,1.745-2.241
		c0-0.972-0.487-2.195-1.72-2.195c-1.222,0-1.756,1.139-1.756,2.231c0,1.256,0.712,2.205,1.72,2.205H225.007z"/>
	<path fill="#74787B" d="M233.942,21.907c0,0.605,0.012,1.126,0.048,1.578h-0.925l-0.06-0.938h-0.024
		c-0.261,0.463-0.877,1.068-1.896,1.068c-0.902,0-1.982-0.511-1.982-2.515v-3.356h1.045v3.166c0,1.092,0.344,1.838,1.28,1.838
		c0.7,0,1.187-0.486,1.377-0.961c0.059-0.142,0.094-0.332,0.094-0.533v-3.51h1.044V21.907z"/>
	<path fill="#74787B" d="M236.935,16.368v1.376h1.494v0.794h-1.494v3.084c0,0.711,0.202,1.115,0.782,1.115
		c0.285,0,0.451-0.023,0.605-0.071l0.047,0.795c-0.201,0.071-0.521,0.142-0.925,0.142c-0.486,0-0.877-0.166-1.126-0.438
		c-0.285-0.321-0.403-0.831-0.403-1.507v-3.12h-0.891v-0.794h0.891v-1.056L236.935,16.368z"/>
	<path fill="#74787B" d="M72.497,29.838c0.498-0.095,1.15-0.166,1.981-0.166c1.02,0,1.767,0.238,2.241,0.664
		c0.439,0.379,0.712,0.961,0.712,1.661c0,0.723-0.214,1.292-0.628,1.708c-0.546,0.581-1.436,0.877-2.444,0.877
		c-0.308,0-0.593-0.011-0.83-0.072v3.215h-1.032V29.838z M73.528,33.669c0.225,0.059,0.51,0.083,0.854,0.083
		c1.245,0,2.004-0.604,2.004-1.696c0-1.056-0.747-1.565-1.886-1.565c-0.451,0-0.795,0.036-0.973,0.083V33.669z"/>
	<path fill="#74787B" d="M79.083,31.012c-0.379,0-0.628-0.297-0.628-0.64c0-0.369,0.261-0.652,0.652-0.652
		c0.379,0,0.64,0.284,0.64,0.652c0,0.343-0.249,0.64-0.652,0.64H79.083z M78.584,37.725v-5.74h1.043v5.74H78.584z"/>
	<path fill="#74787B" d="M81.361,33.538c0-0.605-0.012-1.079-0.048-1.553h0.925l0.059,0.936h0.024
		c0.285-0.533,0.949-1.067,1.898-1.067c0.795,0,2.028,0.474,2.028,2.443v3.428h-1.043v-3.309c0-0.926-0.344-1.708-1.328-1.708
		c-0.676,0-1.21,0.485-1.4,1.067c-0.048,0.131-0.071,0.32-0.071,0.487v3.463h-1.043V33.538z"/>
	<path fill="#74787B" d="M87.805,36.658c0.32,0.19,0.866,0.403,1.387,0.403c0.748,0,1.103-0.367,1.103-0.854
		c0-0.499-0.296-0.759-1.056-1.044c-1.043-0.379-1.53-0.948-1.53-1.625c0-0.925,0.759-1.684,1.98-1.684
		c0.582,0,1.091,0.154,1.399,0.356l-0.249,0.748c-0.225-0.131-0.641-0.333-1.174-0.333c-0.617,0-0.949,0.355-0.949,0.783
		c0,0.474,0.332,0.688,1.079,0.984c0.984,0.368,1.506,0.866,1.506,1.72c0,1.02-0.795,1.731-2.135,1.731
		c-0.628,0-1.209-0.166-1.612-0.403L87.805,36.658z"/>
	<path fill="#74787B" d="M95.435,36.989c0.226,0.013,0.486,0,0.842-0.046c0.605-0.072,1.174-0.321,1.613-0.736
		c0.51-0.474,0.878-1.138,1.02-2.052h-0.035c-0.427,0.522-1.044,0.831-1.827,0.831c-1.388,0-2.277-1.044-2.277-2.372
		c0-1.447,1.067-2.728,2.645-2.728c1.578,0,2.55,1.269,2.55,3.25c0,1.697-0.569,2.882-1.328,3.618
		c-0.593,0.569-1.412,0.936-2.242,1.031c-0.379,0.047-0.724,0.072-0.961,0.059V36.989z M97.321,30.68
		c-0.878,0-1.506,0.782-1.506,1.874c0,0.96,0.581,1.636,1.482,1.636c0.7,0,1.246-0.344,1.53-0.807
		c0.048-0.095,0.083-0.213,0.083-0.379c0.012-1.329-0.486-2.325-1.577-2.325H97.321z"/>
	<path fill="#74787B" d="M103.67,34.143v0.759h-2.93v-0.759H103.67z"/>
	<path fill="#74787B" d="M106.827,30.988h-0.024l-1.34,0.723l-0.202-0.795l1.684-0.9h0.889v7.709h-1.007V30.988z"/>
	<path fill="#74787B" d="M110.648,37.725v-0.641l0.818-0.794c1.969-1.874,2.871-2.871,2.871-4.033c0-0.783-0.368-1.506-1.518-1.506
		c-0.7,0-1.281,0.356-1.637,0.652l-0.332-0.735c0.522-0.439,1.293-0.783,2.182-0.783c1.648,0,2.349,1.139,2.349,2.241
		c0,1.424-1.032,2.574-2.657,4.14l-0.605,0.569v0.024h3.452v0.866H110.648z"/>
	<path fill="#74787B" d="M123.628,36.35c0,0.498,0.024,0.984,0.083,1.375h-0.937l-0.094-0.723h-0.036
		c-0.308,0.451-0.937,0.854-1.755,0.854c-1.163,0-1.756-0.819-1.756-1.649c0-1.387,1.233-2.146,3.452-2.135v-0.119
		c0-0.474-0.13-1.34-1.305-1.328c-0.545,0-1.103,0.154-1.506,0.427l-0.237-0.7c0.475-0.297,1.174-0.499,1.897-0.499
		c1.768,0,2.194,1.198,2.194,2.348V36.35z M122.608,34.795c-1.139-0.023-2.432,0.179-2.432,1.293c0,0.687,0.45,0.996,0.973,0.996
		c0.759,0,1.245-0.474,1.411-0.961c0.036-0.106,0.048-0.225,0.048-0.332V34.795z"/>
	<path fill="#74787B" d="M130.262,29.305v6.938c0,0.51,0.012,1.091,0.047,1.482h-0.937l-0.047-0.997h-0.024
		c-0.32,0.641-1.008,1.127-1.945,1.127c-1.388,0-2.467-1.175-2.467-2.918c-0.012-1.921,1.187-3.084,2.574-3.084
		c0.889,0,1.482,0.415,1.731,0.866h0.023v-3.415H130.262z M129.218,34.321c0-0.143-0.012-0.308-0.047-0.451
		c-0.154-0.652-0.724-1.198-1.506-1.198c-1.08,0-1.72,0.949-1.72,2.207c0,1.174,0.581,2.135,1.696,2.135
		c0.699,0,1.34-0.474,1.53-1.257c0.035-0.13,0.047-0.272,0.047-0.439V34.321z"/>
	<path fill="#74787B" d="M136.954,29.305v6.938c0,0.51,0.012,1.091,0.047,1.482h-0.937l-0.047-0.997h-0.024
		c-0.32,0.641-1.008,1.127-1.945,1.127c-1.388,0-2.467-1.175-2.467-2.918c-0.012-1.921,1.186-3.084,2.574-3.084
		c0.89,0,1.482,0.415,1.731,0.866h0.024v-3.415H136.954z M135.911,34.321c0-0.143-0.012-0.308-0.048-0.451
		c-0.154-0.652-0.724-1.198-1.506-1.198c-1.08,0-1.72,0.949-1.72,2.207c0,1.174,0.581,2.135,1.696,2.135
		c0.7,0,1.34-0.474,1.53-1.257c0.036-0.13,0.048-0.272,0.048-0.439V34.321z"/>
	<path fill="#74787B" d="M146.815,37.464c-0.368,0.19-1.139,0.379-2.111,0.379c-2.253,0-3.938-1.423-3.938-4.044
		c0-2.502,1.696-4.186,4.175-4.186c0.985,0,1.625,0.213,1.898,0.343l-0.261,0.854c-0.379-0.189-0.937-0.332-1.602-0.332
		c-1.874,0-3.119,1.197-3.119,3.286c0,1.956,1.127,3.202,3.06,3.202c0.64,0,1.281-0.131,1.696-0.333L146.815,37.464z"/>
	<path fill="#74787B" d="M150.021,37.725l-2.621-7.994h1.127l1.245,3.938c0.332,1.079,0.628,2.064,0.854,2.989h0.024
		c0.225-0.925,0.545-1.933,0.913-2.977l1.352-3.95h1.103l-2.858,7.994H150.021z"/>
	<path fill="#74787B" d="M157.463,37.725v-4.946h-0.794v-0.793h0.794v-0.274c0-0.806,0.189-1.541,0.676-2.003
		c0.391-0.38,0.913-0.534,1.388-0.534c0.379,0,0.688,0.083,0.89,0.166l-0.13,0.807c-0.167-0.071-0.368-0.13-0.676-0.13
		c-0.878,0-1.115,0.782-1.115,1.66v0.31h1.388v0.793h-1.376v4.946H157.463z"/>
	<path fill="#74787B" d="M163.016,37.856c-1.542,0-2.752-1.139-2.752-2.954c0-1.921,1.269-3.048,2.847-3.048
		c1.648,0,2.764,1.198,2.764,2.941c0,2.135-1.483,3.061-2.847,3.061H163.016z M163.062,37.073c0.997,0,1.744-0.937,1.744-2.241
		c0-0.973-0.486-2.195-1.72-2.195c-1.222,0-1.755,1.139-1.755,2.231c0,1.256,0.712,2.206,1.72,2.206H163.062z"/>
	<path fill="#74787B" d="M167.193,33.775c0-0.675-0.012-1.257-0.047-1.79h0.913l0.047,1.126h0.036
		c0.261-0.771,0.901-1.258,1.601-1.258c0.106,0,0.19,0.012,0.285,0.023v0.985c-0.107-0.011-0.213-0.024-0.356-0.024
		c-0.735,0-1.257,0.558-1.399,1.33c-0.024,0.154-0.036,0.32-0.036,0.485v3.072h-1.043V33.775z"/>
	<path fill="#74787B" d="M179.2,37.464c-0.368,0.19-1.139,0.379-2.111,0.379c-2.254,0-3.938-1.423-3.938-4.044
		c0-2.502,1.696-4.186,4.175-4.186c0.984,0,1.625,0.213,1.897,0.343l-0.261,0.854c-0.379-0.189-0.936-0.332-1.6-0.332
		c-1.875,0-3.12,1.197-3.12,3.286c0,1.956,1.127,3.202,3.06,3.202c0.641,0,1.282-0.131,1.697-0.333L179.2,37.464z"/>
	<path fill="#74787B" d="M182.359,30.608h-2.432v-0.877h5.918v0.877h-2.444v7.117h-1.043V30.608z"/>
	<path fill="#74787B" d="M186.739,29.849c0.521-0.106,1.28-0.177,1.98-0.177c1.103,0,1.826,0.213,2.325,0.664
		c0.392,0.344,0.628,0.89,0.628,1.518c0,1.044-0.675,1.743-1.505,2.028v0.036c0.604,0.213,0.973,0.782,1.174,1.613
		c0.261,1.115,0.451,1.886,0.604,2.194h-1.067c-0.131-0.238-0.309-0.913-0.523-1.91c-0.236-1.104-0.676-1.518-1.613-1.553h-0.972
		v3.463h-1.031V29.849z M187.77,33.479h1.056c1.104,0,1.803-0.605,1.803-1.518c0-1.032-0.748-1.482-1.839-1.482
		c-0.497,0-0.841,0.047-1.02,0.095V33.479z"/>
	<path fill="#74787B" d="M193.111,29.731h1.043v7.128h3.417v0.866h-4.459V29.731z"/>
	<path fill="#74787B" d="M202.532,35.21l-0.83,2.515h-1.067l2.716-7.994h1.245l2.729,7.994h-1.104l-0.854-2.515H202.532z
		 M205.153,34.404l-0.795-2.3c-0.166-0.521-0.284-0.997-0.403-1.459h-0.035c-0.107,0.462-0.238,0.96-0.392,1.447l-0.782,2.312
		H205.153z"/>
	<path fill="#74787B" d="M210.886,34.143v0.759h-2.93v-0.759H210.886z"/>
	<path fill="#74787B" d="M212.133,29.838c0.64-0.095,1.387-0.166,2.206-0.166c1.482,0,2.538,0.344,3.238,0.997
		c0.723,0.651,1.139,1.578,1.139,2.87c0,1.305-0.416,2.372-1.151,3.108c-0.759,0.747-1.992,1.15-3.546,1.15
		c-0.748,0-1.353-0.023-1.886-0.094V29.838z M213.176,36.918c0.261,0.047,0.641,0.047,1.044,0.047
		c2.205,0.012,3.403-1.233,3.403-3.392c0.012-1.886-1.056-3.084-3.238-3.084c-0.533,0-0.937,0.047-1.21,0.106V36.918z"/>
	<path fill="#74787B" d="M72.497,44.078c0.498-0.095,1.15-0.166,1.981-0.166c1.02,0,1.767,0.237,2.241,0.664
		c0.439,0.379,0.712,0.96,0.712,1.661c0,0.723-0.214,1.292-0.628,1.708c-0.546,0.581-1.436,0.877-2.444,0.877
		c-0.308,0-0.593-0.012-0.83-0.072v3.214h-1.032V44.078z M73.528,47.909c0.225,0.06,0.51,0.083,0.854,0.083
		c1.245,0,2.004-0.604,2.004-1.695c0-1.056-0.747-1.566-1.886-1.566c-0.451,0-0.795,0.036-0.973,0.083V47.909z"/>
	<path fill="#74787B" d="M79.083,45.252c-0.379,0-0.628-0.296-0.628-0.64c0-0.369,0.261-0.652,0.652-0.652
		c0.379,0,0.64,0.284,0.64,0.652c0,0.343-0.249,0.64-0.652,0.64H79.083z M78.584,51.965v-5.74h1.043v5.74H78.584z"/>
	<path fill="#74787B" d="M81.361,47.778c0-0.605-0.012-1.079-0.048-1.553h0.925l0.059,0.937h0.024
		c0.285-0.533,0.949-1.067,1.898-1.067c0.795,0,2.028,0.474,2.028,2.443v3.428h-1.043v-3.309c0-0.926-0.344-1.708-1.328-1.708
		c-0.676,0-1.21,0.485-1.4,1.067c-0.048,0.131-0.071,0.32-0.071,0.487v3.462h-1.043V47.778z"/>
	<path fill="#74787B" d="M87.805,50.898c0.32,0.19,0.866,0.403,1.387,0.403c0.748,0,1.103-0.367,1.103-0.854
		c0-0.498-0.296-0.759-1.056-1.044c-1.043-0.379-1.53-0.948-1.53-1.625c0-0.925,0.759-1.684,1.98-1.684
		c0.582,0,1.091,0.154,1.399,0.355l-0.249,0.748c-0.225-0.131-0.641-0.333-1.174-0.333c-0.617,0-0.949,0.356-0.949,0.783
		c0,0.474,0.332,0.688,1.079,0.984c0.984,0.368,1.506,0.866,1.506,1.72c0,1.02-0.795,1.731-2.135,1.731
		c-0.628,0-1.209-0.166-1.612-0.403L87.805,50.898z"/>
	<path fill="#74787B" d="M97.096,45.229h-0.023l-1.34,0.723l-0.202-0.795l1.684-0.9h0.89v7.708h-1.008V45.229z"/>
	<path fill="#74787B" d="M101.167,50.78c0.297,0.178,0.972,0.474,1.708,0.474c1.329,0,1.756-0.842,1.744-1.495
		c-0.012-1.079-0.984-1.541-1.992-1.541h-0.581v-0.784h0.581c0.759,0,1.72-0.39,1.72-1.304c0-0.618-0.392-1.162-1.352-1.162
		c-0.617,0-1.21,0.272-1.542,0.51l-0.285-0.759c0.415-0.296,1.198-0.593,2.028-0.593c1.518,0,2.206,0.902,2.206,1.838
		c0,0.806-0.486,1.483-1.423,1.827v0.023c0.949,0.177,1.72,0.89,1.72,1.969c0,1.233-0.972,2.313-2.811,2.313
		c-0.866,0-1.625-0.274-2.004-0.523L101.167,50.78z"/>
	<path fill="#74787B" d="M109.757,48.383v0.759h-2.93v-0.759H109.757z"/>
	<path fill="#74787B" d="M112.914,45.229h-0.024l-1.34,0.723l-0.202-0.795l1.684-0.9h0.89v7.708h-1.008V45.229z"/>
	<path fill="#74787B" d="M119.962,51.965v-2.111h-3.582v-0.676l3.439-4.921h1.126v4.791h1.08v0.807h-1.08v2.111H119.962z
		 M119.962,49.047v-2.574c0-0.402,0.012-0.806,0.036-1.209h-0.036c-0.237,0.45-0.427,0.782-0.641,1.138l-1.886,2.622v0.023H119.962z
		"/>
	<path fill="#74787B" d="M129.716,50.59c0,0.499,0.023,0.984,0.083,1.375h-0.937l-0.094-0.723h-0.036
		c-0.308,0.451-0.937,0.854-1.755,0.854c-1.163,0-1.756-0.819-1.756-1.649c0-1.387,1.234-2.146,3.452-2.135v-0.119
		c0-0.474-0.13-1.34-1.305-1.328c-0.545,0-1.103,0.154-1.506,0.428l-0.238-0.7c0.475-0.296,1.175-0.498,1.898-0.498
		c1.767,0,2.194,1.198,2.194,2.348V50.59z M128.696,49.036c-1.139-0.023-2.431,0.179-2.431,1.293c0,0.688,0.45,0.996,0.972,0.996
		c0.759,0,1.245-0.474,1.412-0.961c0.035-0.106,0.047-0.225,0.047-0.331V49.036z"/>
	<path fill="#74787B" d="M136.349,43.545v6.938c0,0.51,0.012,1.09,0.047,1.482h-0.937l-0.047-0.997h-0.024
		c-0.32,0.641-1.008,1.128-1.945,1.128c-1.388,0-2.467-1.175-2.467-2.918c-0.012-1.921,1.186-3.083,2.574-3.083
		c0.89,0,1.482,0.415,1.731,0.866h0.024v-3.416H136.349z M135.306,48.562c0-0.143-0.012-0.309-0.048-0.451
		c-0.154-0.652-0.724-1.198-1.506-1.198c-1.08,0-1.72,0.949-1.72,2.207c0,1.174,0.581,2.135,1.696,2.135
		c0.699,0,1.34-0.474,1.529-1.257c0.036-0.13,0.048-0.272,0.048-0.439V48.562z"/>
	<path fill="#74787B" d="M143.042,43.545v6.938c0,0.51,0.012,1.09,0.048,1.482h-0.937l-0.048-0.997h-0.023
		c-0.32,0.641-1.008,1.128-1.945,1.128c-1.388,0-2.467-1.175-2.467-2.918c-0.012-1.921,1.187-3.083,2.574-3.083
		c0.889,0,1.482,0.415,1.731,0.866h0.023v-3.416H143.042z M141.998,48.562c0-0.143-0.012-0.309-0.047-0.451
		c-0.154-0.652-0.724-1.198-1.506-1.198c-1.08,0-1.72,0.949-1.72,2.207c0,1.174,0.581,2.135,1.696,2.135
		c0.699,0,1.34-0.474,1.53-1.257c0.035-0.13,0.047-0.272,0.047-0.439V48.562z"/>
	<path fill="#74787B" d="M150.341,45.655v2.787h2.681v0.712h-2.681v2.811h-0.759v-2.811h-2.681v-0.712h2.681v-2.787H150.341z"/>
	<path fill="#74787B" d="M153.488,52.439l3.297-8.599h0.818l-3.321,8.599H153.488z"/>
	<path fill="#74787B" d="M160.855,48.383v0.759h-2.93v-0.759H160.855z"/>
	<path fill="#74787B" d="M166.528,45.229h-0.024l-1.34,0.723l-0.202-0.795l1.684-0.9h0.889v7.708h-1.007V45.229z"/>
	<path fill="#74787B" d="M170.35,51.965v-0.641l0.818-0.794c1.969-1.874,2.871-2.871,2.871-4.033c0-0.784-0.368-1.507-1.518-1.507
		c-0.7,0-1.281,0.356-1.637,0.652l-0.332-0.734c0.522-0.439,1.293-0.784,2.182-0.784c1.648,0,2.349,1.139,2.349,2.241
		c0,1.424-1.032,2.574-2.657,4.14l-0.605,0.569V51.1h3.452v0.866H170.35z"/>
	<path fill="#74787B" d="M179.688,46.226l1.126,3.213c0.19,0.534,0.344,1.008,0.462,1.482h0.036
		c0.131-0.474,0.296-0.948,0.486-1.482l1.115-3.213h1.09l-2.253,5.74h-0.997l-2.182-5.74H179.688z"/>
	<path fill="#74787B" d="M187.21,52.097c-1.542,0-2.751-1.139-2.751-2.954c0-1.921,1.269-3.048,2.846-3.048
		c1.649,0,2.764,1.198,2.764,2.941c0,2.135-1.483,3.061-2.846,3.061H187.21z M187.258,51.313c0.997,0,1.744-0.937,1.744-2.241
		c0-0.972-0.487-2.195-1.72-2.195c-1.222,0-1.756,1.139-1.756,2.231c0,1.256,0.712,2.205,1.72,2.205H187.258z"/>
	<path fill="#74787B" d="M191.389,43.545h1.044v8.42h-1.044V43.545z"/>
	<path fill="#74787B" d="M195.448,44.849v1.377h1.494v0.794h-1.494v3.083c0,0.712,0.202,1.115,0.782,1.115
		c0.285,0,0.451-0.023,0.605-0.071l0.047,0.795c-0.202,0.071-0.521,0.141-0.925,0.141c-0.487,0-0.877-0.166-1.126-0.438
		c-0.285-0.321-0.403-0.831-0.403-1.506v-3.12h-0.89v-0.794h0.89V45.17L195.448,44.849z"/>
	<path fill="#74787B" d="M200.634,48.016c0-0.676-0.012-1.257-0.047-1.791h0.913l0.047,1.126h0.036
		c0.261-0.771,0.901-1.257,1.602-1.257c0.106,0,0.189,0.011,0.284,0.023v0.985c-0.106-0.012-0.213-0.024-0.355-0.024
		c-0.735,0-1.258,0.557-1.4,1.329c-0.023,0.154-0.035,0.32-0.035,0.485v3.072h-1.044V48.016z"/>
	<path fill="#74787B" d="M208.499,50.59c0,0.499,0.023,0.984,0.083,1.375h-0.938l-0.095-0.723h-0.035
		c-0.31,0.451-0.938,0.854-1.756,0.854c-1.162,0-1.755-0.819-1.755-1.649c0-1.387,1.234-2.146,3.451-2.135v-0.119
		c0-0.474-0.13-1.34-1.304-1.328c-0.546,0-1.104,0.154-1.507,0.428l-0.237-0.7c0.475-0.296,1.174-0.498,1.898-0.498
		c1.768,0,2.194,1.198,2.194,2.348V50.59z M207.479,49.036c-1.14-0.023-2.432,0.179-2.432,1.293c0,0.688,0.451,0.996,0.972,0.996
		c0.759,0,1.246-0.474,1.412-0.961c0.036-0.106,0.048-0.225,0.048-0.331V49.036z"/>
	<path fill="#74787B" d="M210.673,45.252c-0.38,0-0.628-0.296-0.628-0.64c0-0.369,0.261-0.652,0.651-0.652
		c0.38,0,0.641,0.284,0.641,0.652c0,0.343-0.25,0.64-0.653,0.64H210.673z M210.175,51.965v-5.74h1.044v5.74H210.175z"/>
	<path fill="#74787B" d="M212.952,43.545h1.044v8.42h-1.044V43.545z"/>
	<path fill="#74787B" d="M215.609,50.898c0.321,0.19,0.866,0.403,1.388,0.403c0.747,0,1.104-0.367,1.104-0.854
		c0-0.498-0.297-0.759-1.056-1.044c-1.044-0.379-1.531-0.948-1.531-1.625c0-0.925,0.759-1.684,1.982-1.684
		c0.581,0,1.09,0.154,1.399,0.355l-0.25,0.748c-0.225-0.131-0.64-0.333-1.174-0.333c-0.617,0-0.949,0.356-0.949,0.783
		c0,0.474,0.333,0.688,1.08,0.984c0.984,0.368,1.505,0.866,1.505,1.72c0,1.02-0.794,1.731-2.135,1.731
		c-0.628,0-1.209-0.166-1.613-0.403L215.609,50.898z"/>
</g>
<g>
	<path fill="#74787B" d="M324.187,56.922v2.51h2.415v0.641h-2.415v2.532h-0.684v-2.532h-2.415v-0.641h2.415v-2.51H324.187z"/>
	<path fill="#74787B" d="M329.548,56.537h-0.021l-1.207,0.651l-0.181-0.716l1.516-0.812h0.802v6.944h-0.908V56.537z"/>
	<path fill="#74787B" d="M332.987,62.605v-0.577l0.737-0.715c1.772-1.688,2.584-2.585,2.584-3.633c0-0.705-0.331-1.357-1.367-1.357
		c-0.631,0-1.154,0.321-1.475,0.588l-0.299-0.662c0.471-0.395,1.164-0.706,1.966-0.706c1.485,0,2.116,1.025,2.116,2.02
		c0,1.282-0.93,2.318-2.395,3.728l-0.545,0.514v0.021h3.108v0.78H332.987z"/>
	<path fill="#74787B" d="M340.376,62.605l-2.359-7.2h1.016l1.122,3.546c0.299,0.973,0.565,1.859,0.767,2.692h0.023
		c0.201-0.833,0.491-1.741,0.822-2.682l1.217-3.557h0.995l-2.575,7.2H340.376z"/>
	<path fill="#74787B" d="M321.603,69.052v7.2h-0.941v-7.2H321.603z"/>
	<path fill="#74787B" d="M323.299,72.481c0-0.545-0.009-0.973-0.042-1.4h0.832l0.054,0.843h0.021c0.258-0.479,0.855-0.96,1.711-0.96
		c0.716,0,1.826,0.426,1.826,2.201v3.087h-0.938v-2.981c0-0.833-0.311-1.539-1.198-1.539c-0.607,0-1.09,0.438-1.261,0.962
		c-0.042,0.118-0.062,0.289-0.062,0.438v3.12h-0.941V72.481z"/>
	<path fill="#74787B" d="M329.228,72.77c0-0.663-0.012-1.197-0.044-1.688h0.844l0.054,0.886h0.022
		c0.374-0.641,0.992-1.003,1.827-1.003c1.261,0,2.199,1.057,2.199,2.628c0,1.859-1.143,2.776-2.351,2.776
		c-0.692,0-1.281-0.299-1.592-0.811h-0.021v2.809h-0.938V72.77z M330.166,74.148c0,0.128,0.012,0.266,0.045,0.385
		c0.159,0.651,0.736,1.1,1.399,1.1c0.992,0,1.569-0.811,1.569-1.998c0-1.036-0.533-1.922-1.527-1.922
		c-0.643,0-1.249,0.448-1.433,1.165c-0.021,0.117-0.054,0.256-0.054,0.375V74.148z"/>
	<path fill="#74787B" d="M339.63,74.832c0,0.544,0.012,1.015,0.044,1.421h-0.834l-0.054-0.844h-0.021
		c-0.234,0.416-0.791,0.96-1.708,0.96c-0.813,0-1.785-0.458-1.785-2.264v-3.023h0.938v2.853c0,0.983,0.311,1.655,1.154,1.655
		c0.631,0,1.068-0.438,1.24-0.864c0.054-0.129,0.086-0.299,0.086-0.481v-3.163h0.938V74.832z"/>
	<path fill="#74787B" d="M342.321,69.842v1.239h1.347v0.716h-1.347v2.778c0,0.641,0.183,1.004,0.704,1.004
		c0.258,0,0.408-0.021,0.547-0.064l0.042,0.716c-0.181,0.064-0.471,0.127-0.834,0.127c-0.438,0-0.791-0.149-1.014-0.395
		c-0.257-0.289-0.363-0.748-0.363-1.357v-2.809h-0.802v-0.716h0.802v-0.951L342.321,69.842z"/>
	<path fill="#74787B" d="M316.262,89.578c-0.417,0.161-1.249,0.396-2.223,0.396c-1.089,0-1.986-0.278-2.69-0.951
		c-0.619-0.598-1.004-1.56-1.004-2.682c0-2.147,1.483-3.718,3.898-3.718c0.835,0,1.495,0.182,1.806,0.331l-0.234,0.758
		c-0.385-0.181-0.866-0.31-1.592-0.31c-1.752,0-2.895,1.089-2.895,2.895c0,1.828,1.089,2.906,2.776,2.906
		c0.609,0,1.026-0.085,1.24-0.192v-2.147h-1.454v-0.748h2.371V89.578z"/>
	<path fill="#74787B" d="M317.639,86.342c0-0.609-0.012-1.132-0.044-1.613h0.823l0.044,1.015h0.032
		c0.234-0.694,0.812-1.132,1.441-1.132c0.096,0,0.172,0.01,0.258,0.021v0.886c-0.098-0.01-0.192-0.021-0.322-0.021
		c-0.663,0-1.131,0.501-1.261,1.196c-0.021,0.139-0.032,0.289-0.032,0.438v2.768h-0.939V86.342z"/>
	<path fill="#74787B" d="M323.13,90.017c-1.391,0-2.48-1.026-2.48-2.66c0-1.731,1.143-2.746,2.566-2.746
		c1.483,0,2.489,1.079,2.489,2.649c0,1.922-1.338,2.756-2.566,2.756H323.13z M323.172,89.312c0.896,0,1.571-0.844,1.571-2.019
		c0-0.876-0.438-1.977-1.551-1.977c-1.099,0-1.581,1.026-1.581,2.008c0,1.132,0.643,1.988,1.549,1.988H323.172z"/>
	<path fill="#74787B" d="M331.214,88.479c0,0.545,0.012,1.015,0.044,1.421h-0.834l-0.054-0.844h-0.021
		c-0.236,0.416-0.79,0.961-1.711,0.961c-0.811,0-1.782-0.459-1.782-2.265v-3.023h0.939v2.853c0,0.983,0.311,1.655,1.153,1.655
		c0.631,0,1.069-0.438,1.24-0.864c0.054-0.129,0.086-0.299,0.086-0.481v-3.163h0.938V88.479z"/>
	<path fill="#74787B" d="M332.771,86.128c0-0.545-0.009-0.972-0.041-1.4h0.832l0.055,0.844h0.021
		c0.255-0.48,0.853-0.961,1.708-0.961c0.716,0,1.826,0.426,1.826,2.201v3.087h-0.938v-2.981c0-0.833-0.311-1.539-1.196-1.539
		c-0.609,0-1.091,0.438-1.261,0.962c-0.044,0.118-0.064,0.288-0.064,0.438v3.12h-0.941V86.128z"/>
	<path fill="#74787B" d="M343.167,82.314v6.25c0,0.459,0.009,0.982,0.042,1.335h-0.844l-0.044-0.897H342.3
		c-0.287,0.576-0.908,1.014-1.752,1.014c-1.249,0-2.221-1.057-2.221-2.627c-0.012-1.731,1.066-2.778,2.318-2.778
		c0.799,0,1.335,0.373,1.56,0.78h0.021v-3.077H343.167z M342.226,86.833c0-0.127-0.012-0.277-0.041-0.406
		c-0.14-0.587-0.654-1.079-1.358-1.079c-0.972,0-1.549,0.854-1.549,1.987c0,1.057,0.524,1.922,1.527,1.922
		c0.631,0,1.208-0.427,1.38-1.132c0.029-0.119,0.041-0.246,0.041-0.396V86.833z"/>
	<path fill="#74787B" d="M315.289,103.664c-1.912,0-3.236-1.474-3.236-3.653c0-2.287,1.409-3.783,3.333-3.783
		c1.978,0,3.247,1.506,3.247,3.644c0,2.467-1.506,3.792-3.332,3.792H315.289z M315.345,102.906c1.474,0,2.306-1.357,2.306-2.991
		c0-1.433-0.748-2.927-2.297-2.927c-1.548,0-2.317,1.441-2.317,3.001c0,1.517,0.832,2.917,2.297,2.917H315.345z"/>
	<path fill="#74787B" d="M324.134,102.125c0,0.545,0.011,1.015,0.044,1.421h-0.835l-0.053-0.844h-0.021
		c-0.236,0.416-0.79,0.961-1.71,0.961c-0.812,0-1.782-0.459-1.782-2.265v-3.023h0.938v2.853c0,0.983,0.311,1.655,1.154,1.655
		c0.63,0,1.068-0.438,1.24-0.864c0.053-0.129,0.085-0.299,0.085-0.481v-3.163h0.939V102.125z"/>
	<path fill="#74787B" d="M326.824,97.137v1.239h1.345v0.716h-1.345v2.778c0,0.641,0.181,1.003,0.705,1.003
		c0.257,0,0.405-0.021,0.544-0.063l0.042,0.716c-0.181,0.064-0.468,0.127-0.832,0.127c-0.438,0-0.79-0.149-1.016-0.395
		c-0.257-0.289-0.363-0.748-0.363-1.357v-2.809h-0.8v-0.716h0.8v-0.95L326.824,97.137z"/>
	<path fill="#74787B" d="M329.226,100.064c0-0.663-0.01-1.197-0.042-1.688h0.844l0.054,0.887h0.021
		c0.376-0.641,0.994-1.004,1.829-1.004c1.258,0,2.199,1.057,2.199,2.628c0,1.859-1.143,2.777-2.351,2.777
		c-0.695,0-1.281-0.299-1.592-0.812h-0.021v2.809h-0.94V100.064z M330.166,101.442c0,0.128,0.012,0.267,0.042,0.385
		c0.162,0.651,0.737,1.1,1.4,1.1c0.994,0,1.571-0.811,1.571-1.998c0-1.036-0.535-1.923-1.527-1.923
		c-0.643,0-1.252,0.449-1.433,1.165c-0.021,0.117-0.054,0.256-0.054,0.375V101.442z"/>
	<path fill="#74787B" d="M339.63,102.125c0,0.545,0.012,1.015,0.044,1.421h-0.834l-0.054-0.844h-0.021
		c-0.236,0.416-0.791,0.961-1.711,0.961c-0.811,0-1.782-0.459-1.782-2.265v-3.023h0.938v2.853c0,0.983,0.311,1.655,1.154,1.655
		c0.631,0,1.068-0.438,1.24-0.864c0.054-0.129,0.086-0.299,0.086-0.481v-3.163h0.938V102.125z"/>
	<path fill="#74787B" d="M342.321,97.137v1.239h1.347v0.716h-1.347v2.778c0,0.641,0.181,1.003,0.704,1.003
		c0.258,0,0.405-0.021,0.545-0.063l0.044,0.716c-0.184,0.064-0.471,0.127-0.834,0.127c-0.438,0-0.791-0.149-1.016-0.395
		c-0.255-0.289-0.361-0.748-0.361-1.357v-2.809h-0.802v-0.716h0.802v-0.95L342.321,97.137z"/>
	<path fill="#74787B" d="M327.592,110.1c0.47-0.096,1.154-0.161,1.784-0.161c0.994,0,1.646,0.192,2.096,0.599
		c0.353,0.309,0.565,0.801,0.565,1.367c0,0.94-0.609,1.57-1.356,1.827v0.032c0.545,0.192,0.877,0.705,1.058,1.454
		c0.233,1.003,0.405,1.698,0.544,1.976h-0.962c-0.118-0.213-0.277-0.823-0.47-1.72c-0.214-0.994-0.607-1.368-1.453-1.4h-0.877v3.12
		h-0.929V110.1z M328.521,113.369h0.953c0.992,0,1.622-0.545,1.622-1.368c0-0.929-0.672-1.336-1.654-1.336
		c-0.45,0-0.758,0.043-0.921,0.085V113.369z"/>
	<path fill="#74787B" d="M333.884,114.779c0.021,1.26,0.823,1.784,1.762,1.784c0.675,0,1.09-0.117,1.433-0.267l0.172,0.672
		c-0.332,0.149-0.909,0.332-1.731,0.332c-1.581,0-2.543-1.057-2.543-2.606c0-1.56,0.93-2.789,2.437-2.789
		c1.687,0,2.125,1.485,2.125,2.436c0,0.192-0.012,0.331-0.032,0.438H333.884z M336.629,114.106c0.011-0.598-0.246-1.527-1.294-1.527
		c-0.959,0-1.367,0.875-1.441,1.527H336.629z"/>
	<path fill="#74787B" d="M343.165,109.608v6.25c0,0.459,0.011,0.983,0.044,1.335h-0.844l-0.044-0.897H342.3
		c-0.287,0.576-0.908,1.014-1.752,1.014c-1.249,0-2.223-1.057-2.223-2.627c-0.01-1.731,1.068-2.778,2.32-2.778
		c0.799,0,1.335,0.374,1.558,0.78h0.022v-3.077H343.165z M342.226,114.127c0-0.127-0.012-0.277-0.044-0.406
		c-0.139-0.587-0.651-1.079-1.355-1.079c-0.974,0-1.549,0.854-1.549,1.987c0,1.057,0.521,1.923,1.527,1.923
		c0.631,0,1.208-0.428,1.377-1.132c0.032-0.118,0.044-0.246,0.044-0.395V114.127z"/>
	<path fill="#74787B" d="M318.388,130.605c-0.331,0.171-1.024,0.342-1.9,0.342c-2.03,0-3.549-1.282-3.549-3.643
		c0-2.255,1.527-3.772,3.762-3.772c0.886,0,1.463,0.192,1.708,0.311l-0.233,0.768c-0.344-0.17-0.844-0.299-1.442-0.299
		c-1.689,0-2.812,1.079-2.812,2.96c0,1.763,1.016,2.884,2.759,2.884c0.577,0,1.151-0.117,1.527-0.299L318.388,130.605z"/>
	<path fill="#74787B" d="M321.227,124.431h-2.19v-0.791h5.331v0.791h-2.199v6.41h-0.941V124.431z"/>
	<path fill="#74787B" d="M325.167,123.747c0.471-0.096,1.154-0.161,1.785-0.161c0.994,0,1.646,0.192,2.095,0.599
		c0.353,0.31,0.565,0.801,0.565,1.367c0,0.94-0.609,1.57-1.355,1.827v0.032c0.545,0.192,0.876,0.705,1.057,1.454
		c0.234,1.003,0.405,1.698,0.545,1.976h-0.962c-0.118-0.213-0.278-0.823-0.471-1.72c-0.213-0.994-0.607-1.367-1.453-1.4h-0.876v3.12
		h-0.93V123.747z M326.097,127.016h0.952c0.992,0,1.623-0.544,1.623-1.368c0-0.929-0.673-1.336-1.655-1.336
		c-0.449,0-0.758,0.043-0.92,0.086V127.016z"/>
	<path fill="#74787B" d="M330.903,123.64h0.938v6.42h3.078v0.78h-4.017V123.64z"/>
	<path fill="#74787B" d="M339.385,128.576l-0.749,2.264h-0.962l2.447-7.2h1.122l2.457,7.2h-0.994l-0.77-2.264H339.385z
		 M341.744,127.85l-0.717-2.073c-0.148-0.47-0.255-0.897-0.361-1.314h-0.032c-0.098,0.417-0.214,0.866-0.353,1.304l-0.704,2.084
		H341.744z"/>
	<path fill="#74787B" d="M319.137,144.252c-0.332,0.172-1.027,0.342-1.903,0.342c-2.028,0-3.546-1.281-3.546-3.642
		c0-2.256,1.527-3.772,3.762-3.772c0.885,0,1.462,0.192,1.708,0.311l-0.234,0.769c-0.343-0.171-0.844-0.299-1.443-0.299
		c-1.688,0-2.81,1.078-2.81,2.959c0,1.763,1.016,2.885,2.756,2.885c0.577,0,1.154-0.117,1.527-0.299L319.137,144.252z"/>
	<path fill="#74787B" d="M321.976,138.078h-2.19v-0.791h5.331v0.791h-2.199v6.409h-0.941V138.078z"/>
	<path fill="#74787B" d="M325.916,137.394c0.471-0.096,1.154-0.161,1.784-0.161c0.994,0,1.646,0.192,2.093,0.6
		c0.355,0.31,0.568,0.801,0.568,1.367c0,0.94-0.609,1.57-1.358,1.827v0.032c0.545,0.192,0.876,0.704,1.06,1.453
		c0.233,1.004,0.405,1.697,0.544,1.976h-0.962c-0.118-0.213-0.277-0.822-0.47-1.72c-0.214-0.994-0.61-1.367-1.453-1.399h-0.877
		v3.119h-0.929V137.394z M326.845,140.663h0.951c0.994,0,1.624-0.545,1.624-1.367c0-0.93-0.672-1.336-1.654-1.336
		c-0.45,0-0.761,0.042-0.921,0.085V140.663z"/>
	<path fill="#74787B" d="M331.652,137.287h0.938v6.421h3.078v0.779h-4.017V137.287z"/>
	<path fill="#74787B" d="M338.967,137.394c0.406-0.096,1.058-0.161,1.699-0.161c0.93,0,1.527,0.161,1.966,0.524
		c0.373,0.278,0.609,0.706,0.609,1.271c0,0.705-0.471,1.313-1.22,1.582v0.031c0.685,0.161,1.486,0.727,1.486,1.795
		c0,0.62-0.246,1.089-0.619,1.442c-0.491,0.459-1.305,0.672-2.479,0.672c-0.64,0-1.132-0.042-1.442-0.084V137.394z M339.896,140.342
		h0.844c0.974,0,1.548-0.523,1.548-1.218c0-0.833-0.628-1.175-1.568-1.175c-0.427,0-0.675,0.032-0.823,0.063V140.342z
		 M339.896,143.783c0.192,0.031,0.449,0.041,0.779,0.041c0.961,0,1.849-0.352,1.849-1.398c0-0.973-0.843-1.39-1.858-1.39h-0.77
		V143.783z"/>
</g>
<g>
	<path fill="#74787B" d="M352.714,56.537h-0.021l-1.208,0.651l-0.181-0.716l1.516-0.812h0.802v6.944h-0.908V56.537z"/>
	<path fill="#74787B" d="M356.376,61.537c0.269,0.16,0.876,0.428,1.539,0.428c1.196,0,1.581-0.759,1.571-1.347
		c-0.012-0.972-0.888-1.388-1.796-1.388h-0.524v-0.706h0.524c0.684,0,1.55-0.352,1.55-1.175c0-0.555-0.352-1.046-1.219-1.046
		c-0.554,0-1.089,0.246-1.389,0.458l-0.257-0.684c0.375-0.267,1.08-0.534,1.829-0.534c1.367,0,1.986,0.812,1.986,1.656
		c0,0.727-0.438,1.336-1.282,1.646v0.021c0.855,0.161,1.548,0.802,1.548,1.774c0,1.11-0.876,2.083-2.53,2.083
		c-0.781,0-1.465-0.246-1.806-0.469L356.376,61.537z"/>
	<path fill="#74787B" d="M358.193,70.185h-0.021l-1.207,0.651l-0.181-0.716l1.516-0.812h0.802v6.944h-0.908V70.185z"/>
	<path fill="#74787B" d="M356.153,89.899v-0.577l0.737-0.715c1.772-1.689,2.584-2.586,2.584-3.633c0-0.705-0.331-1.357-1.367-1.357
		c-0.631,0-1.152,0.321-1.475,0.587l-0.299-0.662c0.471-0.396,1.166-0.706,1.966-0.706c1.485,0,2.116,1.026,2.116,2.02
		c0,1.282-0.93,2.318-2.395,3.728l-0.545,0.514v0.021h3.11v0.78H356.153z"/>
	<path fill="#74787B" d="M356.378,102.478c0.267,0.16,0.876,0.428,1.537,0.428c1.198,0,1.583-0.759,1.571-1.347
		c-0.012-0.973-0.888-1.389-1.794-1.389h-0.523v-0.706h0.523c0.684,0,1.548-0.353,1.548-1.175c0-0.555-0.352-1.046-1.219-1.046
		c-0.554,0-1.089,0.246-1.389,0.459l-0.255-0.684c0.373-0.267,1.078-0.534,1.827-0.534c1.367,0,1.986,0.812,1.986,1.656
		c0,0.727-0.438,1.336-1.282,1.646v0.021c0.855,0.161,1.548,0.802,1.548,1.774c0,1.11-0.876,2.083-2.53,2.083
		c-0.781,0-1.465-0.246-1.806-0.47L356.378,102.478z"/>
	<path fill="#74787B" d="M359.06,117.193v-1.902h-3.226v-0.608l3.096-4.434h1.016v4.315h0.974v0.727h-0.974v1.902H359.06z
		 M359.06,114.565v-2.318c0-0.364,0.01-0.727,0.03-1.09h-0.03c-0.215,0.407-0.385,0.706-0.577,1.026l-1.698,2.362v0.021H359.06z"/>
	<path fill="#74787B" d="M356.698,130.178c0.201,0.011,0.438,0,0.758-0.042c0.545-0.065,1.057-0.289,1.453-0.663
		c0.459-0.428,0.79-1.026,0.918-1.849h-0.03c-0.385,0.471-0.941,0.748-1.646,0.748c-1.252,0-2.052-0.94-2.052-2.136
		c0-1.304,0.962-2.458,2.383-2.458s2.297,1.144,2.297,2.927c0,1.529-0.515,2.596-1.198,3.259c-0.533,0.513-1.27,0.844-2.019,0.929
		c-0.341,0.043-0.651,0.064-0.864,0.054V130.178z M358.397,124.495c-0.791,0-1.358,0.705-1.358,1.688
		c0,0.864,0.523,1.474,1.337,1.474c0.631,0,1.122-0.311,1.377-0.727c0.044-0.085,0.074-0.192,0.074-0.342
		c0.012-1.197-0.438-2.094-1.421-2.094H358.397z"/>
	<path fill="#74787B" d="M352.714,138.42h-0.021l-1.208,0.651l-0.181-0.717l1.516-0.811h0.802v6.943h-0.908V138.42z"/>
	<path fill="#74787B" d="M358.364,144.604c-1.358,0-2.287-1.271-2.309-3.568c0-2.34,1.016-3.611,2.425-3.611
		c1.453,0,2.297,1.305,2.297,3.516c0,2.361-0.886,3.664-2.403,3.664H358.364z M358.418,143.879c0.95,0,1.409-1.122,1.409-2.896
		c0-1.71-0.427-2.831-1.409-2.831c-0.855,0-1.412,1.09-1.412,2.831c-0.021,1.806,0.536,2.896,1.4,2.896H358.418z"/>
</g>
<g>
	<path fill="#74787B" d="M401.535,56.537h-0.021l-1.208,0.651l-0.181-0.716l1.519-0.812h0.8v6.944h-0.909V56.537z"/>
	<path fill="#74787B" d="M407.882,62.605v-1.902h-3.227v-0.608l3.097-4.434h1.015v4.316h0.974v0.727h-0.974v1.902H407.882z
		 M407.882,59.977v-2.318c0-0.364,0.009-0.727,0.029-1.091h-0.029c-0.216,0.407-0.385,0.706-0.577,1.026l-1.699,2.362v0.021H407.882
		z"/>
	<path fill="#74787B" d="M401.943,69.19c1.345,0,2.028,0.833,2.028,1.709c0,0.587-0.3,1.229-1.152,1.625v0.032
		c0.864,0.342,1.397,0.961,1.397,1.795c0,1.218-1.036,2.019-2.359,2.019c-1.453,0-2.329-0.854-2.329-1.869
		c0-0.876,0.523-1.506,1.367-1.869v-0.033c-0.781-0.363-1.11-0.96-1.11-1.56c0-1.1,0.93-1.849,2.146-1.849H401.943z M401.879,75.686
		c0.843,0,1.388-0.522,1.388-1.239c0-0.833-0.586-1.25-1.527-1.517c-0.812,0.235-1.249,0.78-1.249,1.443
		c-0.032,0.694,0.5,1.313,1.377,1.313H401.879z M401.89,69.863c-0.78,0-1.207,0.514-1.207,1.111
		c-0.012,0.694,0.523,1.069,1.323,1.282c0.598-0.203,1.06-0.63,1.06-1.261c0-0.555-0.332-1.132-1.166-1.132H401.89z"/>
	<path fill="#74787B" d="M404.122,82.955v0.619l-3.024,6.325h-0.96l3.002-6.144v-0.021h-3.398v-0.78H404.122z"/>
	<path fill="#74787B" d="M403.577,97.264c-0.192-0.011-0.438,0.012-0.704,0.053c-1.486,0.235-2.256,1.304-2.415,2.458h0.021
		c0.331-0.449,0.92-0.812,1.688-0.812c1.23,0,2.095,0.898,2.095,2.244c0,1.282-0.864,2.457-2.317,2.457
		c-1.475,0-2.447-1.153-2.447-2.959c0-1.367,0.481-2.446,1.175-3.13c0.577-0.567,1.347-0.919,2.223-1.026
		c0.278-0.042,0.513-0.053,0.684-0.053V97.264z M401.964,102.938c0.802,0,1.347-0.673,1.347-1.667c0-0.993-0.567-1.591-1.432-1.591
		c-0.566,0-1.102,0.342-1.356,0.854c-0.054,0.107-0.098,0.235-0.098,0.407c0.012,1.143,0.545,1.998,1.527,1.998H401.964z"/>
	<path fill="#74787B" d="M403.758,111.04h-2.648l-0.267,1.785c0.159-0.022,0.311-0.042,0.565-0.042c0.544,0,1.068,0.117,1.495,0.373
		c0.547,0.299,0.994,0.909,0.994,1.785c0,1.357-1.078,2.371-2.585,2.371c-0.76,0-1.391-0.213-1.731-0.427l0.234-0.716
		c0.29,0.17,0.855,0.385,1.497,0.385c0.877,0,1.646-0.577,1.635-1.517c0-0.887-0.61-1.527-1.986-1.527
		c-0.408,0-0.717,0.031-0.974,0.074l0.449-3.333h3.321V111.04z"/>
	<path fill="#74787B" d="M401.653,124.772h-0.021l-1.208,0.651l-0.181-0.716l1.516-0.811h0.803v6.944h-0.909V124.772z"/>
	<path fill="#74787B" d="M405.093,130.84v-0.577l0.737-0.715c1.773-1.688,2.584-2.585,2.584-3.633c0-0.705-0.331-1.357-1.367-1.357
		c-0.63,0-1.154,0.321-1.474,0.587l-0.299-0.662c0.47-0.395,1.163-0.706,1.965-0.706c1.486,0,2.116,1.025,2.116,2.02
		c0,1.282-0.93,2.317-2.395,3.728l-0.544,0.513v0.021h3.107v0.78H405.093z"/>
	<path fill="#74787B" d="M401.653,138.42h-0.021l-1.208,0.651l-0.181-0.717l1.516-0.811h0.803v6.943h-0.909V138.42z"/>
	<path fill="#74787B" d="M407.133,138.42h-0.021l-1.208,0.651l-0.183-0.717l1.518-0.811h0.802v6.943h-0.908V138.42z"/>
</g>
<g>
	<path fill="#74787B" d="M418.312,59.379v0.684h-2.64v-0.684H418.312z"/>
	<path fill="#74787B" d="M421.15,56.537h-0.021l-1.208,0.651l-0.181-0.716l1.517-0.812h0.802v6.944h-0.909V56.537z"/>
	<path fill="#74787B" d="M424.59,62.605v-0.577l0.737-0.715c1.773-1.688,2.585-2.585,2.585-3.633c0-0.705-0.332-1.357-1.368-1.357
		c-0.63,0-1.154,0.321-1.474,0.588l-0.299-0.662c0.47-0.395,1.165-0.706,1.965-0.706c1.486,0,2.116,1.025,2.116,2.02
		c0,1.282-0.93,2.318-2.395,3.728l-0.544,0.514v0.021h3.11v0.78H424.59z"/>
	<path fill="#74787B" d="M431.981,62.605l-2.361-7.2h1.015l1.122,3.546c0.299,0.973,0.565,1.859,0.77,2.692h0.021
		c0.202-0.833,0.491-1.741,0.823-2.682l1.217-3.557h0.994l-2.575,7.2H431.981z"/>
	<path fill="#74787B" d="M417.743,76.252l-2.359-7.2h1.016l1.122,3.546c0.299,0.973,0.565,1.859,0.767,2.692h0.023
		c0.201-0.833,0.491-1.741,0.822-2.682l1.218-3.557h0.994l-2.575,7.2H417.743z"/>
	<path fill="#74787B" d="M424.12,73.026v0.684h-2.638v-0.684H424.12z"/>
	<path fill="#74787B" d="M417.743,89.899l-2.359-7.2h1.016l1.122,3.546c0.299,0.972,0.565,1.858,0.767,2.692h0.023
		c0.201-0.833,0.491-1.741,0.822-2.682l1.218-3.557h0.994l-2.575,7.2H417.743z"/>
	<path fill="#74787B" d="M424.836,84.216v2.51h2.415v0.641h-2.415v2.532h-0.684v-2.532h-2.415v-0.641h2.415v-2.51H424.836z"/>
	<path fill="#74787B" d="M416.163,96.453c0.405-0.096,1.059-0.161,1.698-0.161c0.93,0,1.528,0.161,1.966,0.523
		c0.376,0.278,0.609,0.706,0.609,1.271c0,0.706-0.47,1.314-1.219,1.582V99.7c0.684,0.161,1.485,0.727,1.485,1.795
		c0,0.62-0.245,1.089-0.618,1.443c-0.492,0.459-1.306,0.672-2.48,0.672c-0.64,0-1.131-0.043-1.441-0.085V96.453z M417.092,99.401
		h0.844c0.974,0,1.551-0.523,1.551-1.218c0-0.833-0.63-1.175-1.571-1.175c-0.427,0-0.672,0.033-0.823,0.064V99.401z
		 M417.092,102.842c0.192,0.031,0.45,0.042,0.781,0.042c0.962,0,1.848-0.352,1.848-1.398c0-0.973-0.844-1.39-1.859-1.39h-0.77
		V102.842z"/>
	<path fill="#74787B" d="M421.92,95.961h0.939v7.585h-0.939V95.961z"/>
	<path fill="#74787B" d="M428.767,102.125c0,0.545,0.012,1.015,0.044,1.421h-0.834l-0.054-0.844h-0.021
		c-0.236,0.416-0.79,0.961-1.711,0.961c-0.811,0-1.782-0.459-1.782-2.265v-3.023h0.939v2.853c0,0.983,0.311,1.655,1.153,1.655
		c0.631,0,1.069-0.438,1.24-0.864c0.054-0.129,0.086-0.299,0.086-0.481v-3.163h0.938V102.125z"/>
	<path fill="#74787B" d="M430.859,101.132c0.021,1.26,0.823,1.784,1.762,1.784c0.675,0,1.092-0.117,1.433-0.267l0.172,0.672
		c-0.332,0.149-0.909,0.331-1.731,0.331c-1.581,0-2.543-1.057-2.543-2.606c0-1.56,0.93-2.789,2.437-2.789
		c1.687,0,2.125,1.485,2.125,2.436c0,0.192-0.01,0.33-0.032,0.438H430.859z M433.604,100.459c0.011-0.598-0.246-1.527-1.291-1.527
		c-0.962,0-1.368,0.875-1.444,1.527H433.604z"/>
	<path fill="#74787B" d="M421.653,116.873c-0.415,0.161-1.249,0.396-2.22,0.396c-1.092,0-1.989-0.278-2.693-0.951
		c-0.619-0.598-1.004-1.56-1.004-2.682c0-2.147,1.485-3.718,3.898-3.718c0.835,0,1.497,0.182,1.806,0.332l-0.234,0.758
		c-0.385-0.181-0.866-0.31-1.592-0.31c-1.753,0-2.896,1.089-2.896,2.895c0,1.828,1.09,2.906,2.777,2.906
		c0.609,0,1.026-0.085,1.239-0.192v-2.147h-1.453v-0.748h2.371V116.873z"/>
	<path fill="#74787B" d="M423.03,113.636c0-0.608-0.012-1.132-0.042-1.613h0.823l0.042,1.015h0.032
		c0.234-0.694,0.812-1.132,1.441-1.132c0.098,0,0.172,0.011,0.258,0.021v0.887c-0.098-0.011-0.192-0.021-0.322-0.021
		c-0.661,0-1.132,0.502-1.259,1.196c-0.023,0.139-0.032,0.289-0.032,0.438v2.768h-0.941V113.636z"/>
	<path fill="#74787B" d="M426.95,114.779c0.022,1.26,0.822,1.784,1.764,1.784c0.672,0,1.089-0.117,1.432-0.267l0.17,0.672
		c-0.332,0.149-0.909,0.332-1.729,0.332c-1.583,0-2.542-1.057-2.542-2.606c0-1.56,0.929-2.789,2.434-2.789
		c1.689,0,2.127,1.485,2.127,2.436c0,0.192-0.011,0.331-0.032,0.438H426.95z M429.696,114.106c0.012-0.598-0.246-1.527-1.293-1.527
		c-0.962,0-1.368,0.875-1.442,1.527H429.696z"/>
	<path fill="#74787B" d="M432.302,114.779c0.021,1.26,0.822,1.784,1.762,1.784c0.674,0,1.091-0.117,1.432-0.267l0.172,0.672
		c-0.331,0.149-0.908,0.332-1.731,0.332c-1.581,0-2.543-1.057-2.543-2.606c0-1.56,0.93-2.789,2.437-2.789
		c1.688,0,2.125,1.485,2.125,2.436c0,0.192-0.009,0.331-0.032,0.438H432.302z M435.046,114.106c0.012-0.598-0.246-1.527-1.291-1.527
		c-0.962,0-1.367,0.875-1.444,1.527H435.046z"/>
	<path fill="#74787B" d="M437.118,113.422c0-0.544-0.012-0.972-0.042-1.4h0.832l0.054,0.844h0.021
		c0.257-0.48,0.855-0.961,1.711-0.961c0.716,0,1.826,0.427,1.826,2.201v3.087h-0.938v-2.98c0-0.833-0.312-1.539-1.199-1.539
		c-0.606,0-1.089,0.438-1.261,0.962c-0.041,0.118-0.062,0.289-0.062,0.438v3.12h-0.94V113.422z"/>
	<path fill="#74787B" d="M421.186,130.605c-0.331,0.171-1.027,0.342-1.903,0.342c-2.03,0-3.546-1.282-3.546-3.643
		c0-2.255,1.527-3.772,3.76-3.772c0.888,0,1.465,0.192,1.71,0.311l-0.236,0.768c-0.341-0.17-0.844-0.299-1.441-0.299
		c-1.688,0-2.81,1.079-2.81,2.96c0,1.763,1.016,2.884,2.756,2.884c0.577,0,1.154-0.117,1.527-0.299L421.186,130.605z"/>
	<path fill="#74787B" d="M424.024,124.431h-2.19v-0.791h5.331v0.791h-2.201v6.41h-0.939V124.431z"/>
	<path fill="#74787B" d="M427.965,123.747c0.471-0.096,1.154-0.161,1.785-0.161c0.991,0,1.646,0.192,2.093,0.599
		c0.353,0.31,0.565,0.801,0.565,1.367c0,0.94-0.607,1.57-1.356,1.827v0.032c0.545,0.192,0.877,0.705,1.058,1.454
		c0.236,1.003,0.407,1.698,0.545,1.976h-0.96c-0.118-0.213-0.278-0.823-0.471-1.72c-0.213-0.994-0.609-1.367-1.453-1.4h-0.876v3.12
		h-0.93V123.747z M428.895,127.016h0.95c0.994,0,1.625-0.544,1.625-1.368c0-0.929-0.675-1.336-1.657-1.336
		c-0.447,0-0.758,0.043-0.918,0.086V127.016z"/>
	<path fill="#74787B" d="M433.699,123.64h0.941v6.42h3.075v0.78h-4.017V123.64z"/>
	<path fill="#74787B" d="M441.005,123.736c0.577-0.085,1.249-0.15,1.986-0.15c1.337,0,2.287,0.311,2.918,0.898
		c0.651,0.587,1.024,1.421,1.024,2.585c0,1.175-0.373,2.137-1.036,2.799c-0.684,0.673-1.794,1.036-3.193,1.036
		c-0.673,0-1.22-0.021-1.699-0.084V123.736z M441.945,130.114c0.234,0.043,0.577,0.043,0.939,0.043
		c1.988,0.01,3.066-1.111,3.066-3.056c0.012-1.698-0.95-2.776-2.916-2.776c-0.482,0-0.844,0.042-1.09,0.096V130.114z"/>
	<path fill="#74787B" d="M421.186,144.252c-0.331,0.172-1.027,0.342-1.903,0.342c-2.03,0-3.546-1.281-3.546-3.642
		c0-2.256,1.527-3.772,3.76-3.772c0.888,0,1.465,0.192,1.71,0.311l-0.236,0.769c-0.341-0.171-0.844-0.299-1.441-0.299
		c-1.688,0-2.81,1.078-2.81,2.959c0,1.763,1.016,2.885,2.756,2.885c0.577,0,1.154-0.117,1.527-0.299L421.186,144.252z"/>
	<path fill="#74787B" d="M424.024,138.078h-2.19v-0.791h5.331v0.791h-2.201v6.409h-0.939V138.078z"/>
	<path fill="#74787B" d="M427.965,137.394c0.471-0.096,1.154-0.161,1.785-0.161c0.991,0,1.646,0.192,2.093,0.6
		c0.353,0.31,0.565,0.801,0.565,1.367c0,0.94-0.607,1.57-1.356,1.827v0.032c0.545,0.192,0.877,0.704,1.058,1.453
		c0.236,1.004,0.407,1.697,0.545,1.976h-0.96c-0.118-0.213-0.278-0.822-0.471-1.72c-0.213-0.994-0.609-1.367-1.453-1.399h-0.876
		v3.119h-0.93V137.394z M428.895,140.663h0.95c0.994,0,1.625-0.545,1.625-1.367c0-0.93-0.675-1.336-1.657-1.336
		c-0.447,0-0.758,0.042-0.918,0.085V140.663z"/>
	<path fill="#74787B" d="M433.699,137.287h0.941v6.421h3.075v0.779h-4.017V137.287z"/>
	<path fill="#74787B" d="M446.037,144.252c-0.332,0.172-1.025,0.342-1.901,0.342c-2.03,0-3.548-1.281-3.548-3.642
		c0-2.256,1.527-3.772,3.762-3.772c0.885,0,1.462,0.192,1.708,0.311l-0.234,0.769c-0.343-0.171-0.844-0.299-1.441-0.299
		c-1.689,0-2.812,1.078-2.812,2.959c0,1.763,1.016,2.885,2.758,2.885c0.575,0,1.152-0.117,1.527-0.299L446.037,144.252z"/>
</g>
</svg>
