<svg xmlns="http://www.w3.org/2000/svg" version="1.1" x="0" y="0" width="450" height="198" viewBox="0 0 450 198" enable-background="new 0 0 450 198" xml:space="preserve"><path fill="#74787B" d="M24.8 160.2c-6.7 0-12.2 5.5-12.2 12.2 0 6.6 5.3 12 11.9 12.1h0.6c6.6-0.2 11.9-5.5 11.9-12.1C37 165.7 31.5 160.2 24.8 160.2zM25.1 182.1h-0.6c-5.3-0.2-9.5-4.5-9.5-9.8 0-5.4 4.4-9.8 9.8-9.8 5.4 0 9.8 4.4 9.8 9.8C34.6 177.7 30.4 182 25.1 182.1zM377.2 58c-0.2-2.5-2.2-4.4-4.7-4.4 -2.6 0-4.7 2.1-4.7 4.7 0 2.6 2.1 4.7 4.7 4.7 2.5 0 4.5-2 4.7-4.4V58zM376 58.6c-0.2 1.8-1.7 3.2-3.5 3.2 -1.9 0-3.5-1.6-3.5-3.5 0-1.9 1.6-3.5 3.5-3.5 1.8 0 3.3 1.4 3.5 3.2V58.6zM377.2 71.4c-0.2-2.5-2.2-4.4-4.7-4.4 -2.6 0-4.7 2.1-4.7 4.7s2.1 4.7 4.7 4.7c2.5 0 4.5-2 4.7-4.4V71.4zM376 72c-0.2 1.8-1.7 3.2-3.5 3.2 -1.9 0-3.5-1.6-3.5-3.5 0-1.9 1.6-3.5 3.5-3.5 1.8 0 3.3 1.4 3.5 3.2V72zM377.2 84.9c-0.2-2.5-2.2-4.4-4.7-4.4 -2.6 0-4.7 2.1-4.7 4.7 0 2.6 2.1 4.7 4.7 4.7 2.5 0 4.5-2 4.7-4.4V84.9zM376 85.4c-0.2 1.8-1.7 3.2-3.5 3.2 -1.9 0-3.5-1.6-3.5-3.5 0-1.9 1.6-3.5 3.5-3.5 1.8 0 3.3 1.4 3.5 3.2V85.4zM377.2 98.3c-0.2-2.5-2.2-4.4-4.7-4.4 -2.6 0-4.7 2.1-4.7 4.7s2.1 4.7 4.7 4.7c2.5 0 4.5-2 4.7-4.4V98.3zM376 98.9c-0.2 1.8-1.7 3.2-3.5 3.2 -1.9 0-3.5-1.6-3.5-3.5 0-1.9 1.6-3.5 3.5-3.5 1.8 0 3.3 1.4 3.5 3.2V98.9zM377.2 111.8c-0.2-2.5-2.2-4.4-4.7-4.4 -2.6 0-4.7 2.1-4.7 4.7s2.1 4.7 4.7 4.7c2.5 0 4.5-2 4.7-4.4V111.8zM376 112.3c-0.2 1.8-1.7 3.2-3.5 3.2 -1.9 0-3.5-1.6-3.5-3.5 0-1.9 1.6-3.5 3.5-3.5 1.8 0 3.3 1.4 3.5 3.2V112.3zM377.2 125.2c-0.2-2.5-2.2-4.4-4.7-4.4 -2.6 0-4.7 2.1-4.7 4.7s2.1 4.7 4.7 4.7c2.5 0 4.5-2 4.7-4.4V125.2zM376 125.8c-0.2 1.8-1.7 3.2-3.5 3.2 -1.9 0-3.5-1.6-3.5-3.5 0-1.9 1.6-3.5 3.5-3.5 1.8 0 3.3 1.4 3.5 3.2V125.8zM377.2 138.7c-0.2-2.5-2.2-4.4-4.7-4.4 -2.6 0-4.7 2.1-4.7 4.7s2.1 4.7 4.7 4.7c2.5 0 4.5-2 4.7-4.4V138.7zM376 139.2c-0.2 1.8-1.7 3.2-3.5 3.2 -1.9 0-3.5-1.6-3.5-3.5 0-1.9 1.6-3.5 3.5-3.5 1.8 0 3.3 1.4 3.5 3.2V139.2zM391.4 58c-0.2-2.5-2.2-4.4-4.7-4.4 -2.6 0-4.7 2.1-4.7 4.7 0 2.6 2.1 4.7 4.7 4.7 2.5 0 4.5-2 4.7-4.4V58zM390.2 58.6c-0.2 1.8-1.7 3.2-3.5 3.2 -1.9 0-3.5-1.6-3.5-3.5 0-1.9 1.6-3.5 3.5-3.5 1.8 0 3.3 1.4 3.5 3.2V58.6zM391.4 71.4c-0.2-2.5-2.2-4.4-4.7-4.4 -2.6 0-4.7 2.1-4.7 4.7s2.1 4.7 4.7 4.7c2.5 0 4.5-2 4.7-4.4V71.4zM390.2 72c-0.2 1.8-1.7 3.2-3.5 3.2 -1.9 0-3.5-1.6-3.5-3.5 0-1.9 1.6-3.5 3.5-3.5 1.8 0 3.3 1.4 3.5 3.2V72zM391.4 84.9c-0.2-2.5-2.2-4.4-4.7-4.4 -2.6 0-4.7 2.1-4.7 4.7 0 2.6 2.1 4.7 4.7 4.7 2.5 0 4.5-2 4.7-4.4V84.9zM390.2 85.4c-0.2 1.8-1.7 3.2-3.5 3.2 -1.9 0-3.5-1.6-3.5-3.5 0-1.9 1.6-3.5 3.5-3.5 1.8 0 3.3 1.4 3.5 3.2V85.4zM391.4 98.3c-0.2-2.5-2.2-4.4-4.7-4.4 -2.6 0-4.7 2.1-4.7 4.7s2.1 4.7 4.7 4.7c2.5 0 4.5-2 4.7-4.4V98.3zM390.2 98.9c-0.2 1.8-1.7 3.2-3.5 3.2 -1.9 0-3.5-1.6-3.5-3.5 0-1.9 1.6-3.5 3.5-3.5 1.8 0 3.3 1.4 3.5 3.2V98.9zM391.4 111.8c-0.2-2.5-2.2-4.4-4.7-4.4 -2.6 0-4.7 2.1-4.7 4.7s2.1 4.7 4.7 4.7c2.5 0 4.5-2 4.7-4.4V111.8zM390.2 112.3c-0.2 1.8-1.7 3.2-3.5 3.2 -1.9 0-3.5-1.6-3.5-3.5 0-1.9 1.6-3.5 3.5-3.5 1.8 0 3.3 1.4 3.5 3.2V112.3zM391.4 125.2c-0.2-2.5-2.2-4.4-4.7-4.4 -2.6 0-4.7 2.1-4.7 4.7s2.1 4.7 4.7 4.7c2.5 0 4.5-2 4.7-4.4V125.2zM390.2 125.8c-0.2 1.8-1.7 3.2-3.5 3.2 -1.9 0-3.5-1.6-3.5-3.5 0-1.9 1.6-3.5 3.5-3.5 1.8 0 3.3 1.4 3.5 3.2V125.8zM391.4 138.7c-0.2-2.5-2.2-4.4-4.7-4.4 -2.6 0-4.7 2.1-4.7 4.7s2.1 4.7 4.7 4.7c2.5 0 4.5-2 4.7-4.4V138.7zM390.2 139.2c-0.2 1.8-1.7 3.2-3.5 3.2 -1.9 0-3.5-1.6-3.5-3.5 0-1.9 1.6-3.5 3.5-3.5 1.8 0 3.3 1.4 3.5 3.2V139.2zM24.8 11.2c-6.6 0-12.1 5.4-12.2 12l0 0.6c0.2 6.5 5.6 11.8 12.1 11.8 6.7 0 12.2-5.5 12.2-12.2C37 16.7 31.5 11.2 24.8 11.2zM24.8 33.2c-5.3 0-9.6-4.2-9.8-9.4l0-0.6c0.1-5.3 4.4-9.6 9.8-9.6 5.4 0 9.8 4.4 9.8 9.8S30.2 33.2 24.8 33.2zM392.7 160.2c-6.7 0-12.2 5.5-12.2 12.2 0 6.6 5.3 12 11.9 12.1h0.6c6.6-0.2 11.9-5.5 11.9-12.1C404.8 165.7 399.4 160.2 392.7 160.2zM393 182.1h-0.6c-5.3-0.2-9.5-4.5-9.5-9.8 0-5.4 4.4-9.8 9.8-9.8 5.4 0 9.8 4.4 9.8 9.8C402.5 177.7 398.2 182 393 182.1zM392.7 11.2c-6.6 0-12.1 5.4-12.2 12l0 0.6c0.2 6.5 5.6 11.8 12.1 11.8 6.7 0 12.2-5.5 12.2-12.2C404.8 16.7 399.4 11.2 392.7 11.2zM392.7 33.2c-5.3 0-9.6-4.2-9.8-9.4l0-0.6c0.1-5.3 4.4-9.6 9.8-9.6 5.4 0 9.8 4.4 9.8 9.8S398.1 33.2 392.7 33.2z"/><path fill="#74787B" d="M393.5 147.2h-28.2V50h28.2V147.2zM365.9 146.6h27V50.6h-27V146.6z"/><path fill="#74787B" d="M411.8 174.2c0 9.1-7.4 16.6-16.6 16.6H20.9c-9.1 0-16.6-7.4-16.6-16.6V19.9c0-9.1 7.4-16.6 16.6-16.6h374.3c9.1 0 16.6 7.4 16.6 16.6v30.3h2.4V19.9c0-2-0.3-3.9-0.9-5.7l-0.6-1.6c-1.9-4.5-5.6-8.2-10.1-10.1l-1.6-0.6C399.1 1.3 397.2 1 395.2 1H20.9c-2.2 0-4.3 0.4-6.3 1.1l-1.5 0.6c-4.3 2-7.8 5.5-9.6 9.8l-0.6 1.6C2.3 16 2 17.9 2 19.9v154.3c0 2 0.3 4 0.9 5.8l0.6 1.6c1.9 4.5 5.6 8.1 10.1 10.1l1.6 0.6c1.8 0.6 3.7 0.9 5.7 0.9h374.3c10.4 0 18.9-8.5 18.9-18.9v-27.8l-2.4 0L411.8 174.2z"/><path fill="#74787B" d="M72.5 15.6c0.5-0.1 1.2-0.2 2-0.2 1 0 1.8 0.2 2.2 0.7 0.4 0.4 0.7 1 0.7 1.7 0 0.7-0.2 1.3-0.6 1.7 -0.5 0.6-1.4 0.9-2.4 0.9 -0.3 0-0.6 0-0.8-0.1v3.2h-1V15.6zM73.5 19.4c0.2 0.1 0.5 0.1 0.9 0.1 1.2 0 2-0.6 2-1.7 0-1.1-0.7-1.6-1.9-1.6 -0.5 0-0.8 0-1 0.1V19.4zM79.1 16.8c-0.4 0-0.6-0.3-0.6-0.6 0-0.4 0.3-0.7 0.7-0.7 0.4 0 0.6 0.3 0.6 0.7 0 0.3-0.2 0.6-0.7 0.6H79.1zM78.6 23.5v-5.7h1v5.7H78.6zM81.4 19.3c0-0.6 0-1.1 0-1.6h0.9l0.1 0.9h0c0.3-0.5 0.9-1.1 1.9-1.1 0.8 0 2 0.5 2 2.4v3.4h-1v-3.3c0-0.9-0.3-1.7-1.3-1.7 -0.7 0-1.2 0.5-1.4 1.1 0 0.1-0.1 0.3-0.1 0.5v3.5h-1V19.3zM87.8 22.4c0.3 0.2 0.9 0.4 1.4 0.4 0.7 0 1.1-0.4 1.1-0.9 0-0.5-0.3-0.8-1.1-1 -1-0.4-1.5-0.9-1.5-1.6 0-0.9 0.8-1.7 2-1.7 0.6 0 1.1 0.2 1.4 0.4l-0.2 0.7c-0.2-0.1-0.6-0.3-1.2-0.3 -0.6 0-0.9 0.4-0.9 0.8 0 0.5 0.3 0.7 1.1 1 1 0.4 1.5 0.9 1.5 1.7 0 1-0.8 1.7-2.1 1.7 -0.6 0-1.2-0.2-1.6-0.4L87.8 22.4zM97.1 16.7h0l-1.3 0.7 -0.2-0.8 1.7-0.9h0.9v7.7h-1V16.7zM103.7 19.9v0.8h-2.9v-0.8H103.7zM107.1 15.6c1.5 0 2.3 0.9 2.3 1.9 0 0.7-0.3 1.4-1.3 1.8v0c1 0.4 1.6 1.1 1.6 2 0 1.4-1.1 2.2-2.6 2.2 -1.6 0-2.6-0.9-2.6-2.1 0-1 0.6-1.7 1.5-2.1v0c-0.9-0.4-1.2-1.1-1.2-1.7 0-1.2 1-2.1 2.4-2.1H107.1zM107.1 22.9c0.9 0 1.5-0.6 1.5-1.4 0-0.9-0.7-1.4-1.7-1.7 -0.9 0.3-1.4 0.9-1.4 1.6 0 0.8 0.6 1.5 1.5 1.5H107.1zM107.1 16.4c-0.9 0-1.3 0.6-1.3 1.2 0 0.8 0.6 1.2 1.5 1.4 0.7-0.2 1.2-0.7 1.2-1.4 0-0.6-0.4-1.3-1.3-1.3H107.1zM117.5 22.1c0 0.5 0 1 0.1 1.4h-0.9l-0.1-0.7h0c-0.3 0.5-0.9 0.9-1.8 0.9 -1.2 0-1.8-0.8-1.8-1.6 0-1.4 1.2-2.1 3.5-2.1v-0.1c0-0.5-0.1-1.3-1.3-1.3 -0.5 0-1.1 0.2-1.5 0.4l-0.2-0.7c0.5-0.3 1.2-0.5 1.9-0.5 1.8 0 2.2 1.2 2.2 2.3V22.1zM116.5 20.6c-1.1 0-2.4 0.2-2.4 1.3 0 0.7 0.5 1 1 1 0.8 0 1.2-0.5 1.4-1 0-0.1 0-0.2 0-0.3V20.6zM119.2 19.5c0-0.7 0-1.3 0-1.8h0.9l0 1.1h0c0.3-0.8 0.9-1.3 1.6-1.3 0.1 0 0.2 0 0.3 0v1c-0.1 0-0.2 0-0.4 0 -0.7 0-1.3 0.6-1.4 1.3 0 0.2 0 0.3 0 0.5v3.1h-1V19.5zM123.6 20.8c0 1.4 0.9 2 2 2 0.7 0 1.2-0.1 1.6-0.3l0.2 0.7c-0.4 0.2-1 0.4-1.9 0.4 -1.8 0-2.8-1.2-2.8-2.9 0-1.7 1-3.1 2.7-3.1 1.9 0 2.4 1.6 2.4 2.7 0 0.2 0 0.4 0 0.5H123.6zM126.6 20.1c0-0.7-0.3-1.7-1.4-1.7 -1.1 0-1.5 1-1.6 1.7H126.6zM133.8 23.6c-1.5 0-2.8-1.1-2.8-3 0-1.9 1.3-3 2.8-3 1.6 0 2.8 1.2 2.8 2.9 0 2.1-1.5 3.1-2.8 3.1H133.8zM133.8 22.8c1 0 1.7-0.9 1.7-2.2 0-1-0.5-2.2-1.7-2.2 -1.2 0-1.8 1.1-1.8 2.2 0 1.3 0.7 2.2 1.7 2.2H133.8zM138 19.5c0-0.7 0-1.3 0-1.8h0.9l0 1.1h0c0.3-0.8 0.9-1.3 1.6-1.3 0.1 0 0.2 0 0.3 0v1c-0.1 0-0.2 0-0.4 0 -0.7 0-1.3 0.6-1.4 1.3 0 0.2 0 0.3 0 0.5v3.1h-1V19.5zM142.4 16.8c-0.4 0-0.6-0.3-0.6-0.6 0-0.4 0.3-0.7 0.7-0.7 0.4 0 0.6 0.3 0.6 0.7 0 0.3-0.2 0.6-0.7 0.6H142.4zM141.9 23.5v-5.7h1v5.7H141.9zM149.6 22.6c0 1.3-0.3 2.1-0.8 2.6 -0.6 0.5-1.4 0.7-2.1 0.7 -0.7 0-1.4-0.2-1.9-0.5l0.3-0.8c0.4 0.2 1 0.5 1.7 0.5 1.1 0 1.9-0.6 1.9-2v-0.6h0c-0.3 0.5-0.9 1-1.8 1 -1.4 0-2.4-1.2-2.4-2.8 0-1.9 1.3-3 2.6-3 1 0 1.5 0.5 1.8 1h0l0-0.9h0.9c0 0.4 0 0.9 0 1.6V22.6zM148.5 20c0-0.2 0-0.3-0.1-0.5 -0.2-0.6-0.7-1.1-1.5-1.1 -1 0-1.7 0.8-1.7 2.2 0 1.1 0.6 2.1 1.7 2.1 0.7 0 1.2-0.4 1.4-1.1 0.1-0.2 0.1-0.4 0.1-0.6V20zM151.7 16.8c-0.4 0-0.6-0.3-0.6-0.6 0-0.4 0.3-0.7 0.7-0.7 0.4 0 0.6 0.3 0.6 0.7 0 0.3-0.2 0.6-0.7 0.6H151.7zM151.2 23.5v-5.7h1v5.7H151.2zM154 19.3c0-0.6 0-1.1 0-1.6h0.9l0.1 0.9h0c0.3-0.5 0.9-1.1 1.9-1.1 0.8 0 2 0.5 2 2.4v3.4h-1v-3.3c0-0.9-0.3-1.7-1.3-1.7 -0.7 0-1.2 0.5-1.4 1.1 0 0.1-0.1 0.3-0.1 0.5v3.5h-1V19.3zM164.6 22.1c0 0.5 0 1 0.1 1.4h-0.9l-0.1-0.7h0c-0.3 0.5-0.9 0.9-1.8 0.9 -1.2 0-1.8-0.8-1.8-1.6 0-1.4 1.2-2.1 3.5-2.1v-0.1c0-0.5-0.1-1.3-1.3-1.3 -0.5 0-1.1 0.2-1.5 0.4l-0.2-0.7c0.5-0.3 1.2-0.5 1.9-0.5 1.8 0 2.2 1.2 2.2 2.3V22.1zM163.6 20.6c-1.1 0-2.4 0.2-2.4 1.3 0 0.7 0.5 1 1 1 0.8 0 1.2-0.5 1.4-1 0-0.1 0-0.2 0-0.3V20.6zM166.3 15.1h1v8.4h-1V15.1zM177.2 23.2c-0.4 0.2-1.1 0.4-2.1 0.4 -2.3 0-3.9-1.4-3.9-4 0-2.5 1.7-4.2 4.2-4.2 1 0 1.6 0.2 1.9 0.3l-0.3 0.9c-0.4-0.2-0.9-0.3-1.6-0.3 -1.9 0-3.1 1.2-3.1 3.3 0 2 1.1 3.2 3.1 3.2 0.6 0 1.3-0.1 1.7-0.3L177.2 23.2zM180.7 23.6c-1.5 0-2.8-1.1-2.8-3 0-1.9 1.3-3 2.8-3 1.6 0 2.8 1.2 2.8 2.9 0 2.1-1.5 3.1-2.8 3.1H180.7zM180.8 22.8c1 0 1.7-0.9 1.7-2.2 0-1-0.5-2.2-1.7-2.2 -1.2 0-1.8 1.1-1.8 2.2 0 1.3 0.7 2.2 1.7 2.2H180.8zM184.9 15.1h1v8.4h-1V15.1zM190 23.6c-1.5 0-2.8-1.1-2.8-3 0-1.9 1.3-3 2.8-3 1.6 0 2.8 1.2 2.8 2.9 0 2.1-1.5 3.1-2.8 3.1H190zM190.1 22.8c1 0 1.7-0.9 1.7-2.2 0-1-0.5-2.2-1.7-2.2 -1.2 0-1.8 1.1-1.8 2.2 0 1.3 0.7 2.2 1.7 2.2H190.1zM199 21.9c0 0.6 0 1.1 0 1.6h-0.9l-0.1-0.9h0c-0.3 0.5-0.9 1.1-1.9 1.1 -0.9 0-2-0.5-2-2.5v-3.4h1v3.2c0 1.1 0.3 1.8 1.3 1.8 0.7 0 1.2-0.5 1.4-1 0.1-0.1 0.1-0.3 0.1-0.5v-3.5h1V21.9zM200.7 19.5c0-0.7 0-1.3 0-1.8h0.9l0 1.1h0c0.3-0.8 0.9-1.3 1.6-1.3 0.1 0 0.2 0 0.3 0v1c-0.1 0-0.2 0-0.4 0 -0.7 0-1.3 0.6-1.4 1.3 0 0.2 0 0.3 0 0.5v3.1h-1V19.5zM207.2 15.6c0.5-0.1 1.2-0.2 2-0.2 1 0 1.8 0.2 2.2 0.7 0.4 0.4 0.7 1 0.7 1.7 0 0.7-0.2 1.3-0.6 1.7 -0.5 0.6-1.4 0.9-2.4 0.9 -0.3 0-0.6 0-0.8-0.1v3.2h-1V15.6zM208.2 19.4c0.2 0.1 0.5 0.1 0.9 0.1 1.2 0 2-0.6 2-1.7 0-1.1-0.7-1.6-1.9-1.6 -0.4 0-0.8 0-1 0.1V19.4zM213.8 16.8c-0.4 0-0.6-0.3-0.6-0.6 0-0.4 0.3-0.7 0.7-0.7 0.4 0 0.6 0.3 0.6 0.7 0 0.3-0.2 0.6-0.7 0.6H213.8zM213.3 23.5v-5.7h1v5.7H213.3zM216 19.3c0-0.6 0-1.1 0-1.6h0.9l0.1 0.9h0c0.3-0.5 0.9-1.1 1.9-1.1 0.8 0 2 0.5 2 2.4v3.4h-1v-3.3c0-0.9-0.3-1.7-1.3-1.7 -0.7 0-1.2 0.5-1.4 1.1 0 0.1-0.1 0.3-0.1 0.5v3.5h-1V19.3zM225 23.6c-1.5 0-2.8-1.1-2.8-3 0-1.9 1.3-3 2.8-3 1.6 0 2.8 1.2 2.8 2.9 0 2.1-1.5 3.1-2.8 3.1H225zM225 22.8c1 0 1.7-0.9 1.7-2.2 0-1-0.5-2.2-1.7-2.2 -1.2 0-1.8 1.1-1.8 2.2 0 1.3 0.7 2.2 1.7 2.2H225zM233.9 21.9c0 0.6 0 1.1 0 1.6h-0.9l-0.1-0.9h0c-0.3 0.5-0.9 1.1-1.9 1.1 -0.9 0-2-0.5-2-2.5v-3.4h1v3.2c0 1.1 0.3 1.8 1.3 1.8 0.7 0 1.2-0.5 1.4-1 0.1-0.1 0.1-0.3 0.1-0.5v-3.5h1V21.9zM236.9 16.4v1.4h1.5v0.8h-1.5v3.1c0 0.7 0.2 1.1 0.8 1.1 0.3 0 0.5 0 0.6-0.1l0 0.8c-0.2 0.1-0.5 0.1-0.9 0.1 -0.5 0-0.9-0.2-1.1-0.4 -0.3-0.3-0.4-0.8-0.4-1.5v-3.1h-0.9v-0.8h0.9v-1.1L236.9 16.4zM72.5 29.8c0.5-0.1 1.2-0.2 2-0.2 1 0 1.8 0.2 2.2 0.7 0.4 0.4 0.7 1 0.7 1.7 0 0.7-0.2 1.3-0.6 1.7 -0.5 0.6-1.4 0.9-2.4 0.9 -0.3 0-0.6 0-0.8-0.1v3.2h-1V29.8zM73.5 33.7c0.2 0.1 0.5 0.1 0.9 0.1 1.2 0 2-0.6 2-1.7 0-1.1-0.7-1.6-1.9-1.6 -0.5 0-0.8 0-1 0.1V33.7zM79.1 31c-0.4 0-0.6-0.3-0.6-0.6 0-0.4 0.3-0.7 0.7-0.7 0.4 0 0.6 0.3 0.6 0.7 0 0.3-0.2 0.6-0.7 0.6H79.1zM78.6 37.7v-5.7h1v5.7H78.6zM81.4 33.5c0-0.6 0-1.1 0-1.6h0.9l0.1 0.9h0c0.3-0.5 0.9-1.1 1.9-1.1 0.8 0 2 0.5 2 2.4v3.4h-1v-3.3c0-0.9-0.3-1.7-1.3-1.7 -0.7 0-1.2 0.5-1.4 1.1 0 0.1-0.1 0.3-0.1 0.5v3.5h-1V33.5zM87.8 36.7c0.3 0.2 0.9 0.4 1.4 0.4 0.7 0 1.1-0.4 1.1-0.9 0-0.5-0.3-0.8-1.1-1 -1-0.4-1.5-0.9-1.5-1.6 0-0.9 0.8-1.7 2-1.7 0.6 0 1.1 0.2 1.4 0.4l-0.2 0.7c-0.2-0.1-0.6-0.3-1.2-0.3 -0.6 0-0.9 0.4-0.9 0.8 0 0.5 0.3 0.7 1.1 1 1 0.4 1.5 0.9 1.5 1.7 0 1-0.8 1.7-2.1 1.7 -0.6 0-1.2-0.2-1.6-0.4L87.8 36.7zM95.4 37c0.2 0 0.5 0 0.8 0 0.6-0.1 1.2-0.3 1.6-0.7 0.5-0.5 0.9-1.1 1-2.1h0c-0.4 0.5-1 0.8-1.8 0.8 -1.4 0-2.3-1-2.3-2.4 0-1.4 1.1-2.7 2.6-2.7 1.6 0 2.6 1.3 2.6 3.3 0 1.7-0.6 2.9-1.3 3.6 -0.6 0.6-1.4 0.9-2.2 1 -0.4 0-0.7 0.1-1 0.1V37zM97.3 30.7c-0.9 0-1.5 0.8-1.5 1.9 0 1 0.6 1.6 1.5 1.6 0.7 0 1.2-0.3 1.5-0.8 0-0.1 0.1-0.2 0.1-0.4 0-1.3-0.5-2.3-1.6-2.3H97.3zM103.7 34.1v0.8h-2.9v-0.8H103.7zM106.8 31h0l-1.3 0.7 -0.2-0.8 1.7-0.9h0.9v7.7h-1V31zM110.6 37.7v-0.6l0.8-0.8c2-1.9 2.9-2.9 2.9-4 0-0.8-0.4-1.5-1.5-1.5 -0.7 0-1.3 0.4-1.6 0.7l-0.3-0.7c0.5-0.4 1.3-0.8 2.2-0.8 1.6 0 2.3 1.1 2.3 2.2 0 1.4-1 2.6-2.7 4.1l-0.6 0.6v0h3.5v0.9H110.6zM123.6 36.4c0 0.5 0 1 0.1 1.4h-0.9l-0.1-0.7h0c-0.3 0.5-0.9 0.9-1.8 0.9 -1.2 0-1.8-0.8-1.8-1.6 0-1.4 1.2-2.1 3.5-2.1v-0.1c0-0.5-0.1-1.3-1.3-1.3 -0.5 0-1.1 0.2-1.5 0.4l-0.2-0.7c0.5-0.3 1.2-0.5 1.9-0.5 1.8 0 2.2 1.2 2.2 2.3V36.4zM122.6 34.8c-1.1 0-2.4 0.2-2.4 1.3 0 0.7 0.5 1 1 1 0.8 0 1.2-0.5 1.4-1 0-0.1 0-0.2 0-0.3V34.8zM130.3 29.3v6.9c0 0.5 0 1.1 0 1.5h-0.9l0-1h0c-0.3 0.6-1 1.1-1.9 1.1 -1.4 0-2.5-1.2-2.5-2.9 0-1.9 1.2-3.1 2.6-3.1 0.9 0 1.5 0.4 1.7 0.9h0v-3.4H130.3zM129.2 34.3c0-0.1 0-0.3 0-0.5 -0.2-0.7-0.7-1.2-1.5-1.2 -1.1 0-1.7 0.9-1.7 2.2 0 1.2 0.6 2.1 1.7 2.1 0.7 0 1.3-0.5 1.5-1.3 0-0.1 0-0.3 0-0.4V34.3zM137 29.3v6.9c0 0.5 0 1.1 0 1.5h-0.9l0-1h0c-0.3 0.6-1 1.1-1.9 1.1 -1.4 0-2.5-1.2-2.5-2.9 0-1.9 1.2-3.1 2.6-3.1 0.9 0 1.5 0.4 1.7 0.9h0v-3.4H137zM135.9 34.3c0-0.1 0-0.3 0-0.5 -0.2-0.7-0.7-1.2-1.5-1.2 -1.1 0-1.7 0.9-1.7 2.2 0 1.2 0.6 2.1 1.7 2.1 0.7 0 1.3-0.5 1.5-1.3 0-0.1 0-0.3 0-0.4V34.3zM146.8 37.5c-0.4 0.2-1.1 0.4-2.1 0.4 -2.3 0-3.9-1.4-3.9-4 0-2.5 1.7-4.2 4.2-4.2 1 0 1.6 0.2 1.9 0.3l-0.3 0.9c-0.4-0.2-0.9-0.3-1.6-0.3 -1.9 0-3.1 1.2-3.1 3.3 0 2 1.1 3.2 3.1 3.2 0.6 0 1.3-0.1 1.7-0.3L146.8 37.5zM150 37.7l-2.6-8h1.1l1.2 3.9c0.3 1.1 0.6 2.1 0.9 3h0c0.2-0.9 0.5-1.9 0.9-3l1.4-3.9h1.1l-2.9 8H150zM157.5 37.7v-4.9h-0.8v-0.8h0.8v-0.3c0-0.8 0.2-1.5 0.7-2 0.4-0.4 0.9-0.5 1.4-0.5 0.4 0 0.7 0.1 0.9 0.2l-0.1 0.8c-0.2-0.1-0.4-0.1-0.7-0.1 -0.9 0-1.1 0.8-1.1 1.7v0.3h1.4v0.8h-1.4v4.9H157.5zM163 37.9c-1.5 0-2.8-1.1-2.8-3 0-1.9 1.3-3 2.8-3 1.6 0 2.8 1.2 2.8 2.9 0 2.1-1.5 3.1-2.8 3.1H163zM163.1 37.1c1 0 1.7-0.9 1.7-2.2 0-1-0.5-2.2-1.7-2.2 -1.2 0-1.8 1.1-1.8 2.2 0 1.3 0.7 2.2 1.7 2.2H163.1zM167.2 33.8c0-0.7 0-1.3 0-1.8h0.9l0 1.1h0c0.3-0.8 0.9-1.3 1.6-1.3 0.1 0 0.2 0 0.3 0v1c-0.1 0-0.2 0-0.4 0 -0.7 0-1.3 0.6-1.4 1.3 0 0.2 0 0.3 0 0.5v3.1h-1V33.8zM179.2 37.5c-0.4 0.2-1.1 0.4-2.1 0.4 -2.3 0-3.9-1.4-3.9-4 0-2.5 1.7-4.2 4.2-4.2 1 0 1.6 0.2 1.9 0.3l-0.3 0.9c-0.4-0.2-0.9-0.3-1.6-0.3 -1.9 0-3.1 1.2-3.1 3.3 0 2 1.1 3.2 3.1 3.2 0.6 0 1.3-0.1 1.7-0.3L179.2 37.5zM182.4 30.6h-2.4v-0.9h5.9v0.9h-2.4v7.1h-1V30.6zM186.7 29.8c0.5-0.1 1.3-0.2 2-0.2 1.1 0 1.8 0.2 2.3 0.7 0.4 0.3 0.6 0.9 0.6 1.5 0 1-0.7 1.7-1.5 2v0c0.6 0.2 1 0.8 1.2 1.6 0.3 1.1 0.5 1.9 0.6 2.2h-1.1c-0.1-0.2-0.3-0.9-0.5-1.9 -0.2-1.1-0.7-1.5-1.6-1.6h-1v3.5h-1V29.8zM187.8 33.5h1.1c1.1 0 1.8-0.6 1.8-1.5 0-1-0.7-1.5-1.8-1.5 -0.5 0-0.8 0-1 0.1V33.5zM193.1 29.7h1v7.1h3.4v0.9h-4.5V29.7zM202.5 35.2l-0.8 2.5h-1.1l2.7-8h1.2l2.7 8h-1.1l-0.9-2.5H202.5zM205.2 34.4l-0.8-2.3c-0.2-0.5-0.3-1-0.4-1.5h0c-0.1 0.5-0.2 1-0.4 1.4l-0.8 2.3H205.2zM210.9 34.1v0.8h-2.9v-0.8H210.9zM212.1 29.8c0.6-0.1 1.4-0.2 2.2-0.2 1.5 0 2.5 0.3 3.2 1 0.7 0.7 1.1 1.6 1.1 2.9 0 1.3-0.4 2.4-1.2 3.1 -0.8 0.7-2 1.2-3.5 1.2 -0.7 0-1.4 0-1.9-0.1V29.8zM213.2 36.9c0.3 0 0.6 0 1 0 2.2 0 3.4-1.2 3.4-3.4 0-1.9-1.1-3.1-3.2-3.1 -0.5 0-0.9 0-1.2 0.1V36.9zM72.5 44.1c0.5-0.1 1.2-0.2 2-0.2 1 0 1.8 0.2 2.2 0.7 0.4 0.4 0.7 1 0.7 1.7 0 0.7-0.2 1.3-0.6 1.7 -0.5 0.6-1.4 0.9-2.4 0.9 -0.3 0-0.6 0-0.8-0.1v3.2h-1V44.1zM73.5 47.9c0.2 0.1 0.5 0.1 0.9 0.1 1.2 0 2-0.6 2-1.7 0-1.1-0.7-1.6-1.9-1.6 -0.5 0-0.8 0-1 0.1V47.9zM79.1 45.3c-0.4 0-0.6-0.3-0.6-0.6 0-0.4 0.3-0.7 0.7-0.7 0.4 0 0.6 0.3 0.6 0.7 0 0.3-0.2 0.6-0.7 0.6H79.1zM78.6 52v-5.7h1v5.7H78.6zM81.4 47.8c0-0.6 0-1.1 0-1.6h0.9l0.1 0.9h0c0.3-0.5 0.9-1.1 1.9-1.1 0.8 0 2 0.5 2 2.4v3.4h-1v-3.3c0-0.9-0.3-1.7-1.3-1.7 -0.7 0-1.2 0.5-1.4 1.1 0 0.1-0.1 0.3-0.1 0.5v3.5h-1V47.8zM87.8 50.9c0.3 0.2 0.9 0.4 1.4 0.4 0.7 0 1.1-0.4 1.1-0.9 0-0.5-0.3-0.8-1.1-1 -1-0.4-1.5-0.9-1.5-1.6 0-0.9 0.8-1.7 2-1.7 0.6 0 1.1 0.2 1.4 0.4l-0.2 0.7c-0.2-0.1-0.6-0.3-1.2-0.3 -0.6 0-0.9 0.4-0.9 0.8 0 0.5 0.3 0.7 1.1 1 1 0.4 1.5 0.9 1.5 1.7 0 1-0.8 1.7-2.1 1.7 -0.6 0-1.2-0.2-1.6-0.4L87.8 50.9zM97.1 45.2h0l-1.3 0.7 -0.2-0.8 1.7-0.9h0.9v7.7h-1V45.2zM101.2 50.8c0.3 0.2 1 0.5 1.7 0.5 1.3 0 1.8-0.8 1.7-1.5 0-1.1-1-1.5-2-1.5h-0.6v-0.8h0.6c0.8 0 1.7-0.4 1.7-1.3 0-0.6-0.4-1.2-1.4-1.2 -0.6 0-1.2 0.3-1.5 0.5l-0.3-0.8c0.4-0.3 1.2-0.6 2-0.6 1.5 0 2.2 0.9 2.2 1.8 0 0.8-0.5 1.5-1.4 1.8v0c0.9 0.2 1.7 0.9 1.7 2 0 1.2-1 2.3-2.8 2.3 -0.9 0-1.6-0.3-2-0.5L101.2 50.8zM109.8 48.4v0.8h-2.9v-0.8H109.8zM112.9 45.2h0l-1.3 0.7 -0.2-0.8 1.7-0.9h0.9v7.7h-1V45.2zM120 52v-2.1h-3.6v-0.7l3.4-4.9h1.1v4.8h1.1v0.8h-1.1v2.1H120zM120 49v-2.6c0-0.4 0-0.8 0-1.2h0c-0.2 0.5-0.4 0.8-0.6 1.1l-1.9 2.6v0H120zM129.7 50.6c0 0.5 0 1 0.1 1.4h-0.9l-0.1-0.7h0c-0.3 0.5-0.9 0.9-1.8 0.9 -1.2 0-1.8-0.8-1.8-1.6 0-1.4 1.2-2.1 3.5-2.1v-0.1c0-0.5-0.1-1.3-1.3-1.3 -0.5 0-1.1 0.2-1.5 0.4l-0.2-0.7c0.5-0.3 1.2-0.5 1.9-0.5 1.8 0 2.2 1.2 2.2 2.3V50.6zM128.7 49c-1.1 0-2.4 0.2-2.4 1.3 0 0.7 0.5 1 1 1 0.8 0 1.2-0.5 1.4-1 0-0.1 0-0.2 0-0.3V49zM136.3 43.5v6.9c0 0.5 0 1.1 0 1.5h-0.9l0-1h0c-0.3 0.6-1 1.1-1.9 1.1 -1.4 0-2.5-1.2-2.5-2.9 0-1.9 1.2-3.1 2.6-3.1 0.9 0 1.5 0.4 1.7 0.9h0v-3.4H136.3zM135.3 48.6c0-0.1 0-0.3 0-0.5 -0.2-0.7-0.7-1.2-1.5-1.2 -1.1 0-1.7 0.9-1.7 2.2 0 1.2 0.6 2.1 1.7 2.1 0.7 0 1.3-0.5 1.5-1.3 0-0.1 0-0.3 0-0.4V48.6zM143 43.5v6.9c0 0.5 0 1.1 0 1.5h-0.9l0-1h0c-0.3 0.6-1 1.1-1.9 1.1 -1.4 0-2.5-1.2-2.5-2.9 0-1.9 1.2-3.1 2.6-3.1 0.9 0 1.5 0.4 1.7 0.9h0v-3.4H143zM142 48.6c0-0.1 0-0.3 0-0.5 -0.2-0.7-0.7-1.2-1.5-1.2 -1.1 0-1.7 0.9-1.7 2.2 0 1.2 0.6 2.1 1.7 2.1 0.7 0 1.3-0.5 1.5-1.3 0-0.1 0-0.3 0-0.4V48.6zM150.3 45.7v2.8h2.7v0.7h-2.7v2.8h-0.8v-2.8h-2.7v-0.7h2.7v-2.8H150.3zM153.5 52.4l3.3-8.6h0.8l-3.3 8.6H153.5zM160.9 48.4v0.8h-2.9v-0.8H160.9zM166.5 45.2h0l-1.3 0.7 -0.2-0.8 1.7-0.9h0.9v7.7h-1V45.2zM170.4 52v-0.6l0.8-0.8c2-1.9 2.9-2.9 2.9-4 0-0.8-0.4-1.5-1.5-1.5 -0.7 0-1.3 0.4-1.6 0.7l-0.3-0.7c0.5-0.4 1.3-0.8 2.2-0.8 1.6 0 2.3 1.1 2.3 2.2 0 1.4-1 2.6-2.7 4.1l-0.6 0.6V51.1h3.5v0.9H170.4zM179.7 46.2l1.1 3.2c0.2 0.5 0.3 1 0.5 1.5h0c0.1-0.5 0.3-0.9 0.5-1.5l1.1-3.2h1.1l-2.3 5.7h-1l-2.2-5.7H179.7zM187.2 52.1c-1.5 0-2.8-1.1-2.8-3 0-1.9 1.3-3 2.8-3 1.6 0 2.8 1.2 2.8 2.9 0 2.1-1.5 3.1-2.8 3.1H187.2zM187.3 51.3c1 0 1.7-0.9 1.7-2.2 0-1-0.5-2.2-1.7-2.2 -1.2 0-1.8 1.1-1.8 2.2 0 1.3 0.7 2.2 1.7 2.2H187.3zM191.4 43.5h1v8.4h-1V43.5zM195.4 44.8v1.4h1.5v0.8h-1.5v3.1c0 0.7 0.2 1.1 0.8 1.1 0.3 0 0.5 0 0.6-0.1l0 0.8c-0.2 0.1-0.5 0.1-0.9 0.1 -0.5 0-0.9-0.2-1.1-0.4 -0.3-0.3-0.4-0.8-0.4-1.5v-3.1h-0.9v-0.8h0.9V45.2L195.4 44.8zM200.6 48c0-0.7 0-1.3 0-1.8h0.9l0 1.1h0c0.3-0.8 0.9-1.3 1.6-1.3 0.1 0 0.2 0 0.3 0v1c-0.1 0-0.2 0-0.4 0 -0.7 0-1.3 0.6-1.4 1.3 0 0.2 0 0.3 0 0.5v3.1h-1V48zM208.5 50.6c0 0.5 0 1 0.1 1.4h-0.9l-0.1-0.7h0c-0.3 0.5-0.9 0.9-1.8 0.9 -1.2 0-1.8-0.8-1.8-1.6 0-1.4 1.2-2.1 3.5-2.1v-0.1c0-0.5-0.1-1.3-1.3-1.3 -0.5 0-1.1 0.2-1.5 0.4l-0.2-0.7c0.5-0.3 1.2-0.5 1.9-0.5 1.8 0 2.2 1.2 2.2 2.3V50.6zM207.5 49c-1.1 0-2.4 0.2-2.4 1.3 0 0.7 0.5 1 1 1 0.8 0 1.2-0.5 1.4-1 0-0.1 0-0.2 0-0.3V49zM210.7 45.3c-0.4 0-0.6-0.3-0.6-0.6 0-0.4 0.3-0.7 0.7-0.7 0.4 0 0.6 0.3 0.6 0.7 0 0.3-0.2 0.6-0.7 0.6H210.7zM210.2 52v-5.7h1v5.7H210.2zM213 43.5h1v8.4h-1V43.5zM215.6 50.9c0.3 0.2 0.9 0.4 1.4 0.4 0.7 0 1.1-0.4 1.1-0.9 0-0.5-0.3-0.8-1.1-1 -1-0.4-1.5-0.9-1.5-1.6 0-0.9 0.8-1.7 2-1.7 0.6 0 1.1 0.2 1.4 0.4l-0.2 0.7c-0.2-0.1-0.6-0.3-1.2-0.3 -0.6 0-0.9 0.4-0.9 0.8 0 0.5 0.3 0.7 1.1 1 1 0.4 1.5 0.9 1.5 1.7 0 1-0.8 1.7-2.1 1.7 -0.6 0-1.2-0.2-1.6-0.4L215.6 50.9z"/><path fill="#74787B" d="M324.2 56.9v2.5h2.4v0.6h-2.4v2.5h-0.7v-2.5h-2.4v-0.6h2.4v-2.5H324.2zM329.5 56.5h0l-1.2 0.7 -0.2-0.7 1.5-0.8h0.8v6.9h-0.9V56.5zM333 62.6v-0.6l0.7-0.7c1.8-1.7 2.6-2.6 2.6-3.6 0-0.7-0.3-1.4-1.4-1.4 -0.6 0-1.2 0.3-1.5 0.6l-0.3-0.7c0.5-0.4 1.2-0.7 2-0.7 1.5 0 2.1 1 2.1 2 0 1.3-0.9 2.3-2.4 3.7l-0.5 0.5v0h3.1v0.8H333zM340.4 62.6l-2.4-7.2h1l1.1 3.5c0.3 1 0.6 1.9 0.8 2.7h0c0.2-0.8 0.5-1.7 0.8-2.7l1.2-3.6h1l-2.6 7.2H340.4zM321.6 69.1v7.2h-0.9v-7.2H321.6zM323.3 72.5c0-0.5 0-1 0-1.4h0.8l0.1 0.8h0c0.3-0.5 0.9-1 1.7-1 0.7 0 1.8 0.4 1.8 2.2v3.1h-0.9v-3c0-0.8-0.3-1.5-1.2-1.5 -0.6 0-1.1 0.4-1.3 1 0 0.1-0.1 0.3-0.1 0.4v3.1h-0.9V72.5zM329.2 72.8c0-0.7 0-1.2 0-1.7h0.8l0.1 0.9h0c0.4-0.6 1-1 1.8-1 1.3 0 2.2 1.1 2.2 2.6 0 1.9-1.1 2.8-2.4 2.8 -0.7 0-1.3-0.3-1.6-0.8h0v2.8h-0.9V72.8zM330.2 74.1c0 0.1 0 0.3 0 0.4 0.2 0.7 0.7 1.1 1.4 1.1 1 0 1.6-0.8 1.6-2 0-1-0.5-1.9-1.5-1.9 -0.6 0-1.2 0.4-1.4 1.2 0 0.1-0.1 0.3-0.1 0.4V74.1zM339.6 74.8c0 0.5 0 1 0 1.4h-0.8l-0.1-0.8h0c-0.2 0.4-0.8 1-1.7 1 -0.8 0-1.8-0.5-1.8-2.3v-3h0.9v2.9c0 1 0.3 1.7 1.2 1.7 0.6 0 1.1-0.4 1.2-0.9 0.1-0.1 0.1-0.3 0.1-0.5v-3.2h0.9V74.8zM342.3 69.8v1.2h1.3v0.7h-1.3v2.8c0 0.6 0.2 1 0.7 1 0.3 0 0.4 0 0.5-0.1l0 0.7c-0.2 0.1-0.5 0.1-0.8 0.1 -0.4 0-0.8-0.1-1-0.4 -0.3-0.3-0.4-0.7-0.4-1.4v-2.8h-0.8v-0.7h0.8v-1L342.3 69.8zM316.3 89.6c-0.4 0.2-1.2 0.4-2.2 0.4 -1.1 0-2-0.3-2.7-1 -0.6-0.6-1-1.6-1-2.7 0-2.1 1.5-3.7 3.9-3.7 0.8 0 1.5 0.2 1.8 0.3l-0.2 0.8c-0.4-0.2-0.9-0.3-1.6-0.3 -1.8 0-2.9 1.1-2.9 2.9 0 1.8 1.1 2.9 2.8 2.9 0.6 0 1-0.1 1.2-0.2v-2.1h-1.5v-0.7h2.4V89.6zM317.6 86.3c0-0.6 0-1.1 0-1.6h0.8l0 1h0c0.2-0.7 0.8-1.1 1.4-1.1 0.1 0 0.2 0 0.3 0v0.9c-0.1 0-0.2 0-0.3 0 -0.7 0-1.1 0.5-1.3 1.2 0 0.1 0 0.3 0 0.4v2.8h-0.9V86.3zM323.1 90c-1.4 0-2.5-1-2.5-2.7 0-1.7 1.1-2.7 2.6-2.7 1.5 0 2.5 1.1 2.5 2.6 0 1.9-1.3 2.8-2.6 2.8H323.1zM323.2 89.3c0.9 0 1.6-0.8 1.6-2 0-0.9-0.4-2-1.6-2 -1.1 0-1.6 1-1.6 2 0 1.1 0.6 2 1.5 2H323.2zM331.2 88.5c0 0.5 0 1 0 1.4h-0.8l-0.1-0.8h0c-0.2 0.4-0.8 1-1.7 1 -0.8 0-1.8-0.5-1.8-2.3v-3h0.9v2.9c0 1 0.3 1.7 1.2 1.7 0.6 0 1.1-0.4 1.2-0.9 0.1-0.1 0.1-0.3 0.1-0.5v-3.2h0.9V88.5zM332.8 86.1c0-0.5 0-1 0-1.4h0.8l0.1 0.8h0c0.3-0.5 0.9-1 1.7-1 0.7 0 1.8 0.4 1.8 2.2v3.1h-0.9v-3c0-0.8-0.3-1.5-1.2-1.5 -0.6 0-1.1 0.4-1.3 1 0 0.1-0.1 0.3-0.1 0.4v3.1h-0.9V86.1zM343.2 82.3v6.3c0 0.5 0 1 0 1.3h-0.8l0-0.9H342.3c-0.3 0.6-0.9 1-1.8 1 -1.2 0-2.2-1.1-2.2-2.6 0-1.7 1.1-2.8 2.3-2.8 0.8 0 1.3 0.4 1.6 0.8h0v-3.1H343.2zM342.2 86.8c0-0.1 0-0.3 0-0.4 -0.1-0.6-0.7-1.1-1.4-1.1 -1 0-1.5 0.9-1.5 2 0 1.1 0.5 1.9 1.5 1.9 0.6 0 1.2-0.4 1.4-1.1 0-0.1 0-0.2 0-0.4V86.8zM315.3 103.7c-1.9 0-3.2-1.5-3.2-3.7 0-2.3 1.4-3.8 3.3-3.8 2 0 3.2 1.5 3.2 3.6 0 2.5-1.5 3.8-3.3 3.8H315.3zM315.3 102.9c1.5 0 2.3-1.4 2.3-3 0-1.4-0.7-2.9-2.3-2.9 -1.5 0-2.3 1.4-2.3 3 0 1.5 0.8 2.9 2.3 2.9H315.3zM324.1 102.1c0 0.5 0 1 0 1.4h-0.8l-0.1-0.8h0c-0.2 0.4-0.8 1-1.7 1 -0.8 0-1.8-0.5-1.8-2.3v-3h0.9v2.9c0 1 0.3 1.7 1.2 1.7 0.6 0 1.1-0.4 1.2-0.9 0.1-0.1 0.1-0.3 0.1-0.5v-3.2h0.9V102.1zM326.8 97.1v1.2h1.3v0.7h-1.3v2.8c0 0.6 0.2 1 0.7 1 0.3 0 0.4 0 0.5-0.1l0 0.7c-0.2 0.1-0.5 0.1-0.8 0.1 -0.4 0-0.8-0.1-1-0.4 -0.3-0.3-0.4-0.7-0.4-1.4v-2.8h-0.8v-0.7h0.8v-0.9L326.8 97.1zM329.2 100.1c0-0.7 0-1.2 0-1.7h0.8l0.1 0.9h0c0.4-0.6 1-1 1.8-1 1.3 0 2.2 1.1 2.2 2.6 0 1.9-1.1 2.8-2.4 2.8 -0.7 0-1.3-0.3-1.6-0.8h0v2.8h-0.9V100.1zM330.2 101.4c0 0.1 0 0.3 0 0.4 0.2 0.7 0.7 1.1 1.4 1.1 1 0 1.6-0.8 1.6-2 0-1-0.5-1.9-1.5-1.9 -0.6 0-1.3 0.4-1.4 1.2 0 0.1-0.1 0.3-0.1 0.4V101.4zM339.6 102.1c0 0.5 0 1 0 1.4h-0.8l-0.1-0.8h0c-0.2 0.4-0.8 1-1.7 1 -0.8 0-1.8-0.5-1.8-2.3v-3h0.9v2.9c0 1 0.3 1.7 1.2 1.7 0.6 0 1.1-0.4 1.2-0.9 0.1-0.1 0.1-0.3 0.1-0.5v-3.2h0.9V102.1zM342.3 97.1v1.2h1.3v0.7h-1.3v2.8c0 0.6 0.2 1 0.7 1 0.3 0 0.4 0 0.5-0.1l0 0.7c-0.2 0.1-0.5 0.1-0.8 0.1 -0.4 0-0.8-0.1-1-0.4 -0.3-0.3-0.4-0.7-0.4-1.4v-2.8h-0.8v-0.7h0.8v-0.9L342.3 97.1zM327.6 110.1c0.5-0.1 1.2-0.2 1.8-0.2 1 0 1.6 0.2 2.1 0.6 0.4 0.3 0.6 0.8 0.6 1.4 0 0.9-0.6 1.6-1.4 1.8v0c0.5 0.2 0.9 0.7 1.1 1.5 0.2 1 0.4 1.7 0.5 2h-1c-0.1-0.2-0.3-0.8-0.5-1.7 -0.2-1-0.6-1.4-1.5-1.4h-0.9v3.1h-0.9V110.1zM328.5 113.4h1c1 0 1.6-0.5 1.6-1.4 0-0.9-0.7-1.3-1.7-1.3 -0.4 0-0.8 0-0.9 0.1V113.4zM333.9 114.8c0 1.3 0.8 1.8 1.8 1.8 0.7 0 1.1-0.1 1.4-0.3l0.2 0.7c-0.3 0.1-0.9 0.3-1.7 0.3 -1.6 0-2.5-1.1-2.5-2.6 0-1.6 0.9-2.8 2.4-2.8 1.7 0 2.1 1.5 2.1 2.4 0 0.2 0 0.3 0 0.4H333.9zM336.6 114.1c0-0.6-0.2-1.5-1.3-1.5 -1 0-1.4 0.9-1.4 1.5H336.6zM343.2 109.6v6.3c0 0.5 0 1 0 1.3h-0.8l0-0.9H342.3c-0.3 0.6-0.9 1-1.8 1 -1.2 0-2.2-1.1-2.2-2.6 0-1.7 1.1-2.8 2.3-2.8 0.8 0 1.3 0.4 1.6 0.8h0v-3.1H343.2zM342.2 114.1c0-0.1 0-0.3 0-0.4 -0.1-0.6-0.7-1.1-1.4-1.1 -1 0-1.5 0.9-1.5 2 0 1.1 0.5 1.9 1.5 1.9 0.6 0 1.2-0.4 1.4-1.1 0-0.1 0-0.2 0-0.4V114.1zM318.4 130.6c-0.3 0.2-1 0.3-1.9 0.3 -2 0-3.5-1.3-3.5-3.6 0-2.3 1.5-3.8 3.8-3.8 0.9 0 1.5 0.2 1.7 0.3l-0.2 0.8c-0.3-0.2-0.8-0.3-1.4-0.3 -1.7 0-2.8 1.1-2.8 3 0 1.8 1 2.9 2.8 2.9 0.6 0 1.2-0.1 1.5-0.3L318.4 130.6zM321.2 124.4h-2.2v-0.8h5.3v0.8h-2.2v6.4h-0.9V124.4zM325.2 123.7c0.5-0.1 1.2-0.2 1.8-0.2 1 0 1.6 0.2 2.1 0.6 0.4 0.3 0.6 0.8 0.6 1.4 0 0.9-0.6 1.6-1.4 1.8v0c0.5 0.2 0.9 0.7 1.1 1.5 0.2 1 0.4 1.7 0.5 2h-1c-0.1-0.2-0.3-0.8-0.5-1.7 -0.2-1-0.6-1.4-1.5-1.4h-0.9v3.1h-0.9V123.7zM326.1 127h1c1 0 1.6-0.5 1.6-1.4 0-0.9-0.7-1.3-1.7-1.3 -0.4 0-0.8 0-0.9 0.1V127zM330.9 123.6h0.9v6.4h3.1v0.8h-4V123.6zM339.4 128.6l-0.7 2.3h-1l2.4-7.2h1.1l2.5 7.2h-1l-0.8-2.3H339.4zM341.7 127.9l-0.7-2.1c-0.1-0.5-0.3-0.9-0.4-1.3h0c-0.1 0.4-0.2 0.9-0.4 1.3l-0.7 2.1H341.7zM319.1 144.3c-0.3 0.2-1 0.3-1.9 0.3 -2 0-3.5-1.3-3.5-3.6 0-2.3 1.5-3.8 3.8-3.8 0.9 0 1.5 0.2 1.7 0.3l-0.2 0.8c-0.3-0.2-0.8-0.3-1.4-0.3 -1.7 0-2.8 1.1-2.8 3 0 1.8 1 2.9 2.8 2.9 0.6 0 1.2-0.1 1.5-0.3L319.1 144.3zM322 138.1h-2.2v-0.8h5.3v0.8h-2.2v6.4h-0.9V138.1zM325.9 137.4c0.5-0.1 1.2-0.2 1.8-0.2 1 0 1.6 0.2 2.1 0.6 0.4 0.3 0.6 0.8 0.6 1.4 0 0.9-0.6 1.6-1.4 1.8v0c0.5 0.2 0.9 0.7 1.1 1.5 0.2 1 0.4 1.7 0.5 2h-1c-0.1-0.2-0.3-0.8-0.5-1.7 -0.2-1-0.6-1.4-1.5-1.4h-0.9v3.1h-0.9V137.4zM326.8 140.7h1c1 0 1.6-0.5 1.6-1.4 0-0.9-0.7-1.3-1.7-1.3 -0.4 0-0.8 0-0.9 0.1V140.7zM331.7 137.3h0.9v6.4h3.1v0.8h-4V137.3zM339 137.4c0.4-0.1 1.1-0.2 1.7-0.2 0.9 0 1.5 0.2 2 0.5 0.4 0.3 0.6 0.7 0.6 1.3 0 0.7-0.5 1.3-1.2 1.6v0c0.7 0.2 1.5 0.7 1.5 1.8 0 0.6-0.2 1.1-0.6 1.4 -0.5 0.5-1.3 0.7-2.5 0.7 -0.6 0-1.1 0-1.4-0.1V137.4zM339.9 140.3h0.8c1 0 1.5-0.5 1.5-1.2 0-0.8-0.6-1.2-1.6-1.2 -0.4 0-0.7 0-0.8 0.1V140.3zM339.9 143.8c0.2 0 0.4 0 0.8 0 1 0 1.8-0.4 1.8-1.4 0-1-0.8-1.4-1.9-1.4h-0.8V143.8z"/><path fill="#74787B" d="M352.7 56.5h0l-1.2 0.7 -0.2-0.7 1.5-0.8h0.8v6.9h-0.9V56.5zM356.4 61.5c0.3 0.2 0.9 0.4 1.5 0.4 1.2 0 1.6-0.8 1.6-1.3 0-1-0.9-1.4-1.8-1.4h-0.5v-0.7h0.5c0.7 0 1.6-0.4 1.6-1.2 0-0.6-0.4-1-1.2-1 -0.6 0-1.1 0.2-1.4 0.5l-0.3-0.7c0.4-0.3 1.1-0.5 1.8-0.5 1.4 0 2 0.8 2 1.7 0 0.7-0.4 1.3-1.3 1.6v0c0.9 0.2 1.5 0.8 1.5 1.8 0 1.1-0.9 2.1-2.5 2.1 -0.8 0-1.5-0.2-1.8-0.5L356.4 61.5zM358.2 70.2h0l-1.2 0.7 -0.2-0.7 1.5-0.8h0.8v6.9h-0.9V70.2zM356.2 89.9v-0.6l0.7-0.7c1.8-1.7 2.6-2.6 2.6-3.6 0-0.7-0.3-1.4-1.4-1.4 -0.6 0-1.2 0.3-1.5 0.6l-0.3-0.7c0.5-0.4 1.2-0.7 2-0.7 1.5 0 2.1 1 2.1 2 0 1.3-0.9 2.3-2.4 3.7l-0.5 0.5v0h3.1v0.8H356.2zM356.4 102.5c0.3 0.2 0.9 0.4 1.5 0.4 1.2 0 1.6-0.8 1.6-1.3 0-1-0.9-1.4-1.8-1.4h-0.5v-0.7h0.5c0.7 0 1.5-0.4 1.5-1.2 0-0.6-0.4-1-1.2-1 -0.6 0-1.1 0.2-1.4 0.5l-0.3-0.7c0.4-0.3 1.1-0.5 1.8-0.5 1.4 0 2 0.8 2 1.7 0 0.7-0.4 1.3-1.3 1.6v0c0.9 0.2 1.5 0.8 1.5 1.8 0 1.1-0.9 2.1-2.5 2.1 -0.8 0-1.5-0.2-1.8-0.5L356.4 102.5zM359.1 117.2v-1.9h-3.2v-0.6l3.1-4.4h1v4.3h1v0.7h-1v1.9H359.1zM359.1 114.6v-2.3c0-0.4 0-0.7 0-1.1h0c-0.2 0.4-0.4 0.7-0.6 1l-1.7 2.4v0H359.1zM356.7 130.2c0.2 0 0.4 0 0.8 0 0.5-0.1 1.1-0.3 1.5-0.7 0.5-0.4 0.8-1 0.9-1.8h0c-0.4 0.5-0.9 0.7-1.6 0.7 -1.3 0-2.1-0.9-2.1-2.1 0-1.3 1-2.5 2.4-2.5s2.3 1.1 2.3 2.9c0 1.5-0.5 2.6-1.2 3.3 -0.5 0.5-1.3 0.8-2 0.9 -0.3 0-0.7 0.1-0.9 0.1V130.2zM358.4 124.5c-0.8 0-1.4 0.7-1.4 1.7 0 0.9 0.5 1.5 1.3 1.5 0.6 0 1.1-0.3 1.4-0.7 0-0.1 0.1-0.2 0.1-0.3 0-1.2-0.4-2.1-1.4-2.1H358.4zM352.7 138.4h0l-1.2 0.7 -0.2-0.7 1.5-0.8h0.8v6.9h-0.9V138.4zM358.4 144.6c-1.4 0-2.3-1.3-2.3-3.6 0-2.3 1-3.6 2.4-3.6 1.5 0 2.3 1.3 2.3 3.5 0 2.4-0.9 3.7-2.4 3.7H358.4zM358.4 143.9c1 0 1.4-1.1 1.4-2.9 0-1.7-0.4-2.8-1.4-2.8 -0.9 0-1.4 1.1-1.4 2.8 0 1.8 0.5 2.9 1.4 2.9H358.4z"/><path fill="#74787B" d="M401.5 56.5h0l-1.2 0.7 -0.2-0.7 1.5-0.8h0.8v6.9h-0.9V56.5zM407.9 62.6v-1.9h-3.2v-0.6l3.1-4.4h1v4.3h1v0.7h-1v1.9H407.9zM407.9 60v-2.3c0-0.4 0-0.7 0-1.1h0c-0.2 0.4-0.4 0.7-0.6 1l-1.7 2.4v0H407.9zM401.9 69.2c1.3 0 2 0.8 2 1.7 0 0.6-0.3 1.2-1.2 1.6v0c0.9 0.3 1.4 1 1.4 1.8 0 1.2-1 2-2.4 2 -1.5 0-2.3-0.9-2.3-1.9 0-0.9 0.5-1.5 1.4-1.9v0c-0.8-0.4-1.1-1-1.1-1.6 0-1.1 0.9-1.8 2.1-1.8H401.9zM401.9 75.7c0.8 0 1.4-0.5 1.4-1.2 0-0.8-0.6-1.2-1.5-1.5 -0.8 0.2-1.2 0.8-1.2 1.4 0 0.7 0.5 1.3 1.4 1.3H401.9zM401.9 69.9c-0.8 0-1.2 0.5-1.2 1.1 0 0.7 0.5 1.1 1.3 1.3 0.6-0.2 1.1-0.6 1.1-1.3 0-0.6-0.3-1.1-1.2-1.1H401.9zM404.1 83v0.6l-3 6.3h-1l3-6.1v0h-3.4v-0.8H404.1zM403.6 97.3c-0.2 0-0.4 0-0.7 0.1 -1.5 0.2-2.3 1.3-2.4 2.5h0c0.3-0.4 0.9-0.8 1.7-0.8 1.2 0 2.1 0.9 2.1 2.2 0 1.3-0.9 2.5-2.3 2.5 -1.5 0-2.4-1.2-2.4-3 0-1.4 0.5-2.4 1.2-3.1 0.6-0.6 1.3-0.9 2.2-1 0.3 0 0.5-0.1 0.7-0.1V97.3zM402 102.9c0.8 0 1.3-0.7 1.3-1.7 0-1-0.6-1.6-1.4-1.6 -0.6 0-1.1 0.3-1.4 0.9 -0.1 0.1-0.1 0.2-0.1 0.4 0 1.1 0.5 2 1.5 2H402zM403.8 111h-2.6l-0.3 1.8c0.2 0 0.3 0 0.6 0 0.5 0 1.1 0.1 1.5 0.4 0.5 0.3 1 0.9 1 1.8 0 1.4-1.1 2.4-2.6 2.4 -0.8 0-1.4-0.2-1.7-0.4l0.2-0.7c0.3 0.2 0.9 0.4 1.5 0.4 0.9 0 1.6-0.6 1.6-1.5 0-0.9-0.6-1.5-2-1.5 -0.4 0-0.7 0-1 0.1l0.4-3.3h3.3V111zM401.7 124.8h0l-1.2 0.7 -0.2-0.7 1.5-0.8h0.8v6.9h-0.9V124.8zM405.1 130.8v-0.6l0.7-0.7c1.8-1.7 2.6-2.6 2.6-3.6 0-0.7-0.3-1.4-1.4-1.4 -0.6 0-1.2 0.3-1.5 0.6l-0.3-0.7c0.5-0.4 1.2-0.7 2-0.7 1.5 0 2.1 1 2.1 2 0 1.3-0.9 2.3-2.4 3.7l-0.5 0.5v0h3.1v0.8H405.1zM401.7 138.4h0l-1.2 0.7 -0.2-0.7 1.5-0.8h0.8v6.9h-0.9V138.4zM407.1 138.4h0l-1.2 0.7 -0.2-0.7 1.5-0.8h0.8v6.9h-0.9V138.4z"/><path fill="#74787B" d="M418.3 59.4v0.7h-2.6v-0.7H418.3zM421.2 56.5h0l-1.2 0.7 -0.2-0.7 1.5-0.8h0.8v6.9h-0.9V56.5zM424.6 62.6v-0.6l0.7-0.7c1.8-1.7 2.6-2.6 2.6-3.6 0-0.7-0.3-1.4-1.4-1.4 -0.6 0-1.2 0.3-1.5 0.6l-0.3-0.7c0.5-0.4 1.2-0.7 2-0.7 1.5 0 2.1 1 2.1 2 0 1.3-0.9 2.3-2.4 3.7l-0.5 0.5v0h3.1v0.8H424.6zM432 62.6l-2.4-7.2h1l1.1 3.5c0.3 1 0.6 1.9 0.8 2.7h0c0.2-0.8 0.5-1.7 0.8-2.7l1.2-3.6h1l-2.6 7.2H432zM417.7 76.3l-2.4-7.2h1l1.1 3.5c0.3 1 0.6 1.9 0.8 2.7h0c0.2-0.8 0.5-1.7 0.8-2.7l1.2-3.6h1l-2.6 7.2H417.7zM424.1 73v0.7h-2.6v-0.7H424.1zM417.7 89.9l-2.4-7.2h1l1.1 3.5c0.3 1 0.6 1.9 0.8 2.7h0c0.2-0.8 0.5-1.7 0.8-2.7l1.2-3.6h1l-2.6 7.2H417.7zM424.8 84.2v2.5h2.4v0.6h-2.4v2.5h-0.7v-2.5h-2.4v-0.6h2.4v-2.5H424.8zM416.2 96.5c0.4-0.1 1.1-0.2 1.7-0.2 0.9 0 1.5 0.2 2 0.5 0.4 0.3 0.6 0.7 0.6 1.3 0 0.7-0.5 1.3-1.2 1.6V99.7c0.7 0.2 1.5 0.7 1.5 1.8 0 0.6-0.2 1.1-0.6 1.4 -0.5 0.5-1.3 0.7-2.5 0.7 -0.6 0-1.1 0-1.4-0.1V96.5zM417.1 99.4h0.8c1 0 1.6-0.5 1.6-1.2 0-0.8-0.6-1.2-1.6-1.2 -0.4 0-0.7 0-0.8 0.1V99.4zM417.1 102.8c0.2 0 0.5 0 0.8 0 1 0 1.8-0.4 1.8-1.4 0-1-0.8-1.4-1.9-1.4h-0.8V102.8zM421.9 96h0.9v7.6h-0.9V96zM428.8 102.1c0 0.5 0 1 0 1.4h-0.8l-0.1-0.8h0c-0.2 0.4-0.8 1-1.7 1 -0.8 0-1.8-0.5-1.8-2.3v-3h0.9v2.9c0 1 0.3 1.7 1.2 1.7 0.6 0 1.1-0.4 1.2-0.9 0.1-0.1 0.1-0.3 0.1-0.5v-3.2h0.9V102.1zM430.9 101.1c0 1.3 0.8 1.8 1.8 1.8 0.7 0 1.1-0.1 1.4-0.3l0.2 0.7c-0.3 0.1-0.9 0.3-1.7 0.3 -1.6 0-2.5-1.1-2.5-2.6 0-1.6 0.9-2.8 2.4-2.8 1.7 0 2.1 1.5 2.1 2.4 0 0.2 0 0.3 0 0.4H430.9zM433.6 100.5c0-0.6-0.2-1.5-1.3-1.5 -1 0-1.4 0.9-1.4 1.5H433.6zM421.7 116.9c-0.4 0.2-1.2 0.4-2.2 0.4 -1.1 0-2-0.3-2.7-1 -0.6-0.6-1-1.6-1-2.7 0-2.1 1.5-3.7 3.9-3.7 0.8 0 1.5 0.2 1.8 0.3l-0.2 0.8c-0.4-0.2-0.9-0.3-1.6-0.3 -1.8 0-2.9 1.1-2.9 2.9 0 1.8 1.1 2.9 2.8 2.9 0.6 0 1-0.1 1.2-0.2v-2.1h-1.5v-0.7h2.4V116.9zM423 113.6c0-0.6 0-1.1 0-1.6h0.8l0 1h0c0.2-0.7 0.8-1.1 1.4-1.1 0.1 0 0.2 0 0.3 0v0.9c-0.1 0-0.2 0-0.3 0 -0.7 0-1.1 0.5-1.3 1.2 0 0.1 0 0.3 0 0.4v2.8h-0.9V113.6zM427 114.8c0 1.3 0.8 1.8 1.8 1.8 0.7 0 1.1-0.1 1.4-0.3l0.2 0.7c-0.3 0.1-0.9 0.3-1.7 0.3 -1.6 0-2.5-1.1-2.5-2.6 0-1.6 0.9-2.8 2.4-2.8 1.7 0 2.1 1.5 2.1 2.4 0 0.2 0 0.3 0 0.4H427zM429.7 114.1c0-0.6-0.2-1.5-1.3-1.5 -1 0-1.4 0.9-1.4 1.5H429.7zM432.3 114.8c0 1.3 0.8 1.8 1.8 1.8 0.7 0 1.1-0.1 1.4-0.3l0.2 0.7c-0.3 0.1-0.9 0.3-1.7 0.3 -1.6 0-2.5-1.1-2.5-2.6 0-1.6 0.9-2.8 2.4-2.8 1.7 0 2.1 1.5 2.1 2.4 0 0.2 0 0.3 0 0.4H432.3zM435 114.1c0-0.6-0.2-1.5-1.3-1.5 -1 0-1.4 0.9-1.4 1.5H435zM437.1 113.4c0-0.5 0-1 0-1.4h0.8l0.1 0.8h0c0.3-0.5 0.9-1 1.7-1 0.7 0 1.8 0.4 1.8 2.2v3.1h-0.9v-3c0-0.8-0.3-1.5-1.2-1.5 -0.6 0-1.1 0.4-1.3 1 0 0.1-0.1 0.3-0.1 0.4v3.1h-0.9V113.4zM421.2 130.6c-0.3 0.2-1 0.3-1.9 0.3 -2 0-3.5-1.3-3.5-3.6 0-2.3 1.5-3.8 3.8-3.8 0.9 0 1.5 0.2 1.7 0.3l-0.2 0.8c-0.3-0.2-0.8-0.3-1.4-0.3 -1.7 0-2.8 1.1-2.8 3 0 1.8 1 2.9 2.8 2.9 0.6 0 1.2-0.1 1.5-0.3L421.2 130.6zM424 124.4h-2.2v-0.8h5.3v0.8h-2.2v6.4h-0.9V124.4zM428 123.7c0.5-0.1 1.2-0.2 1.8-0.2 1 0 1.6 0.2 2.1 0.6 0.4 0.3 0.6 0.8 0.6 1.4 0 0.9-0.6 1.6-1.4 1.8v0c0.5 0.2 0.9 0.7 1.1 1.5 0.2 1 0.4 1.7 0.5 2h-1c-0.1-0.2-0.3-0.8-0.5-1.7 -0.2-1-0.6-1.4-1.5-1.4h-0.9v3.1h-0.9V123.7zM428.9 127h1c1 0 1.6-0.5 1.6-1.4 0-0.9-0.7-1.3-1.7-1.3 -0.4 0-0.8 0-0.9 0.1V127zM433.7 123.6h0.9v6.4h3.1v0.8h-4V123.6zM441 123.7c0.6-0.1 1.2-0.1 2-0.1 1.3 0 2.3 0.3 2.9 0.9 0.7 0.6 1 1.4 1 2.6 0 1.2-0.4 2.1-1 2.8 -0.7 0.7-1.8 1-3.2 1 -0.7 0-1.2 0-1.7-0.1V123.7zM441.9 130.1c0.2 0 0.6 0 0.9 0 2 0 3.1-1.1 3.1-3.1 0-1.7-0.9-2.8-2.9-2.8 -0.5 0-0.8 0-1.1 0.1V130.1zM421.2 144.3c-0.3 0.2-1 0.3-1.9 0.3 -2 0-3.5-1.3-3.5-3.6 0-2.3 1.5-3.8 3.8-3.8 0.9 0 1.5 0.2 1.7 0.3l-0.2 0.8c-0.3-0.2-0.8-0.3-1.4-0.3 -1.7 0-2.8 1.1-2.8 3 0 1.8 1 2.9 2.8 2.9 0.6 0 1.2-0.1 1.5-0.3L421.2 144.3zM424 138.1h-2.2v-0.8h5.3v0.8h-2.2v6.4h-0.9V138.1zM428 137.4c0.5-0.1 1.2-0.2 1.8-0.2 1 0 1.6 0.2 2.1 0.6 0.4 0.3 0.6 0.8 0.6 1.4 0 0.9-0.6 1.6-1.4 1.8v0c0.5 0.2 0.9 0.7 1.1 1.5 0.2 1 0.4 1.7 0.5 2h-1c-0.1-0.2-0.3-0.8-0.5-1.7 -0.2-1-0.6-1.4-1.5-1.4h-0.9v3.1h-0.9V137.4zM428.9 140.7h1c1 0 1.6-0.5 1.6-1.4 0-0.9-0.7-1.3-1.7-1.3 -0.4 0-0.8 0-0.9 0.1V140.7zM433.7 137.3h0.9v6.4h3.1v0.8h-4V137.3zM446 144.3c-0.3 0.2-1 0.3-1.9 0.3 -2 0-3.5-1.3-3.5-3.6 0-2.3 1.5-3.8 3.8-3.8 0.9 0 1.5 0.2 1.7 0.3l-0.2 0.8c-0.3-0.2-0.8-0.3-1.4-0.3 -1.7 0-2.8 1.1-2.8 3 0 1.8 1 2.9 2.8 2.9 0.6 0 1.2-0.1 1.5-0.3L446 144.3z"/></svg>