<?xml version="1.0" encoding="utf-8"?>
<!-- Generator: Adobe Illustrator 16.0.4, SVG Export Plug-In . SVG Version: 6.00 Build 0)  -->
<!DOCTYPE svg PUBLIC "-//W3C//DTD SVG 1.1//EN" "http://www.w3.org/Graphics/SVG/1.1/DTD/svg11.dtd">
<svg version="1.1" id="Layer_1" xmlns="http://www.w3.org/2000/svg" xmlns:xlink="http://www.w3.org/1999/xlink" x="0px" y="0px"
	 width="449.994px" height="260px" viewBox="0 0 449.994 260" enable-background="new 0 0 449.994 260" xml:space="preserve">
<g id="Layer_1_1_" display="none">
</g>
<g>
	<path fill="#777777" d="M378.436,89.581c5.652,0,10.251-4.598,10.251-10.25c0-5.652-4.599-10.25-10.251-10.25
		s-10.25,4.598-10.25,10.25C368.186,84.982,372.783,89.581,378.436,89.581z M378.436,71.081c4.55,0,8.251,3.701,8.251,8.25
		c0,4.549-3.701,8.25-8.251,8.25c-4.549,0-8.25-3.701-8.25-8.25C370.186,74.781,373.888,71.081,378.436,71.081z"/>
	<path fill="#777777" d="M360.498,123.661c2.188,0,3.971-1.781,3.971-3.97s-1.781-3.971-3.971-3.971c-2.188,0-3.97,1.781-3.97,3.971
		C356.528,121.879,358.311,123.661,360.498,123.661z M360.498,116.72c1.639,0,2.971,1.333,2.971,2.971s-1.332,2.97-2.971,2.97
		c-1.638,0-2.97-1.333-2.97-2.97C357.528,118.052,358.86,116.72,360.498,116.72z"/>
	<path fill="#777777" d="M372.457,123.661c2.188,0,3.971-1.781,3.971-3.97s-1.781-3.971-3.971-3.971
		c-2.188,0-3.971,1.781-3.971,3.971C368.486,121.879,370.269,123.661,372.457,123.661z M372.457,116.72
		c1.638,0,2.971,1.333,2.971,2.971s-1.333,2.97-2.971,2.97c-1.639,0-2.971-1.333-2.971-2.97
		C369.486,118.052,370.818,116.72,372.457,116.72z"/>
	<path fill="#777777" d="M360.498,134.125c2.188,0,3.971-1.781,3.971-3.971c0-2.189-1.781-3.97-3.971-3.97
		c-2.103,0-3.812,1.649-3.943,3.72h-14.083v0.5h14.083C356.686,132.476,358.396,134.125,360.498,134.125z M360.498,127.185
		c1.639,0,2.971,1.332,2.971,2.97c0,1.639-1.332,2.971-2.971,2.971c-1.552,0-2.814-1.201-2.943-2.721h2.947v-0.5h-2.947
		C357.684,128.384,358.946,127.185,360.498,127.185z"/>
	<path fill="#777777" d="M372.457,134.125c2.188,0,3.971-1.781,3.971-3.971c0-2.189-1.781-3.97-3.971-3.97
		c-2.188,0-3.971,1.781-3.971,3.97C368.486,132.344,370.269,134.125,372.457,134.125z M372.457,127.185
		c1.638,0,2.971,1.332,2.971,2.97c0,1.639-1.333,2.971-2.971,2.971c-1.639,0-2.971-1.332-2.971-2.971
		C369.486,128.517,370.818,127.185,372.457,127.185z"/>
	<path fill="#777777" d="M360.498,146.084c2.188,0,3.971-1.781,3.971-3.972c0-2.188-1.781-3.97-3.971-3.97
		c-2.103,0-3.812,1.648-3.943,3.72h-14.083v0.5h14.083C356.686,144.435,358.396,146.084,360.498,146.084z M360.498,139.143
		c1.639,0,2.971,1.332,2.971,2.97c0,1.64-1.332,2.972-2.971,2.972c-1.552,0-2.814-1.201-2.943-2.722h2.947v-0.5h-2.947
		C357.684,140.342,358.946,139.143,360.498,139.143z"/>
	<path fill="#777777" d="M372.457,146.084c2.188,0,3.971-1.781,3.971-3.972c0-2.188-1.781-3.97-3.971-3.97
		c-2.188,0-3.971,1.781-3.971,3.97C368.486,144.303,370.269,146.084,372.457,146.084z M372.457,139.143
		c1.638,0,2.971,1.332,2.971,2.97c0,1.64-1.333,2.972-2.971,2.972c-1.639,0-2.971-1.332-2.971-2.972
		C369.486,140.475,370.818,139.143,372.457,139.143z"/>
	<path fill="#777777" d="M360.498,150.102c-2.188,0-3.97,1.781-3.97,3.97s1.781,3.972,3.97,3.972c2.189,0,3.971-1.781,3.971-3.972
		C364.469,151.883,362.687,150.102,360.498,150.102z M360.498,157.043c-1.638,0-2.97-1.334-2.97-2.972s1.332-2.97,2.97-2.97
		c1.639,0,2.971,1.332,2.971,2.97S362.137,157.043,360.498,157.043z"/>
	<path fill="#777777" d="M372.457,158.043c2.188,0,3.971-1.781,3.971-3.972c0-2.188-1.781-3.97-3.971-3.97
		c-2.188,0-3.971,1.781-3.971,3.97S370.269,158.043,372.457,158.043z M372.457,151.102c1.638,0,2.971,1.332,2.971,2.97
		s-1.333,2.972-2.971,2.972c-1.639,0-2.971-1.334-2.971-2.972S370.818,151.102,372.457,151.102z"/>
	<path fill="#777777" d="M360.498,160.564c-2.188,0-3.97,1.781-3.97,3.971c0,2.19,1.781,3.971,3.97,3.971
		c2.189,0,3.971-1.78,3.971-3.971C364.469,162.346,362.687,160.564,360.498,160.564z M360.498,167.506
		c-1.638,0-2.97-1.334-2.97-2.972s1.332-2.971,2.97-2.971c1.639,0,2.971,1.333,2.971,2.971S362.137,167.506,360.498,167.506z"/>
	<path fill="#777777" d="M372.457,168.506c2.188,0,3.971-1.781,3.971-3.972s-1.781-3.971-3.971-3.971
		c-2.188,0-3.971,1.78-3.971,3.971S370.269,168.506,372.457,168.506z M372.457,161.564c1.638,0,2.971,1.333,2.971,2.971
		c0,1.639-1.333,2.971-2.971,2.971c-1.639,0-2.971-1.332-2.971-2.971C369.486,162.897,370.818,161.564,372.457,161.564z"/>
	<path fill="#777777" d="M364.469,176.493c0-2.188-1.781-3.97-3.971-3.97c-2.188,0-3.97,1.781-3.97,3.97
		c0,2.105,1.651,3.816,3.724,3.946v15.979h0.5v-15.979C362.819,180.306,364.469,178.597,364.469,176.493z M357.528,176.493
		c0-1.638,1.332-2.97,2.97-2.97c1.639,0,2.971,1.332,2.971,2.97c0,1.553-1.199,2.815-2.717,2.946v-2.946h-0.5v2.946
		C358.73,179.312,357.528,178.046,357.528,176.493z"/>
	<path fill="#777777" d="M378.436,194.646c-2.119,0-4.091,0.646-5.727,1.753v-15.959c2.068-0.134,3.718-1.843,3.718-3.946
		c0-2.188-1.781-3.97-3.972-3.97c-2.188,0-3.97,1.781-3.97,3.97c0,2.105,1.651,3.816,3.724,3.946v15.979h0.471
		c-2.71,1.848-4.494,4.957-4.494,8.477c0,5.652,4.598,10.25,10.25,10.25s10.251-4.598,10.251-10.25S384.088,194.646,378.436,194.646
		z M369.486,176.493c0-1.638,1.332-2.97,2.971-2.97c1.638,0,2.971,1.332,2.971,2.97c0,1.553-1.2,2.815-2.719,2.946v-2.946h-0.5
		v2.946C370.688,179.312,369.486,178.046,369.486,176.493z M378.436,213.146c-4.549,0-8.25-3.701-8.25-8.25s3.701-8.25,8.25-8.25
		c4.55,0,8.251,3.701,8.251,8.25S382.985,213.146,378.436,213.146z"/>
	<path fill="#777777" d="M414.906,107.982v-0.5h-19.309V76.445c0-1.682-0.266-3.302-0.75-4.826v-9.884h16.572v-0.5h-16.572V28.661
		h-0.5v11.122l-4.157-2.397v2.173H53.514v-2.173l-3.952,2.279V28.661h-0.5v32.76H2.374v0.5h46.688v9.648
		c-0.495,1.538-0.768,3.174-0.768,4.875v2.728H29.281v0.5h19.013v126.799c0,1.701,0.273,3.338,0.768,4.875v9.836H1.439v0.5h47.622
		v34.131h0.5v-34.131h9.866c1.524,0.484,3.144,0.75,4.826,0.75h3.009v33.381h0.5v-33.381h311.875
		c8.801,0,15.961-7.159,15.961-15.961v-98.489H414.906z M394.349,70.255c-1.618-3.831-4.69-6.902-8.521-8.521h8.521V70.255z
		 M49.561,39.955l3.952,2.279v-2.173H390.19v2.173l4.157-2.397v21.399h-9.885c-1.523-0.484-3.146-0.75-4.826-0.75H64.252
		c-1.873,0-3.664,0.341-5.334,0.937h-9.357L49.561,39.955L49.561,39.955z M49.561,61.921h8.112
		c-3.632,1.652-6.546,4.614-8.112,8.292V61.921z M49.561,221.183v-8.479c1.623,3.812,4.686,6.866,8.502,8.479H49.561z
		 M393.599,206.472c0,7.697-6.263,13.961-13.961,13.961H67.763v-5.301c5.536-0.135,10-4.668,10-10.236
		c0-5.652-4.598-10.25-10.25-10.25c-5.652,0-10.25,4.598-10.25,10.25c0,5.568,4.464,10.104,10,10.236v5.301h-3.01
		c-7.698,0-13.96-6.264-13.96-13.961V79.672h6.987c0.183,5.493,4.696,9.908,10.232,9.908c5.652,0,10.25-4.598,10.25-10.25
		c0-5.652-4.598-10.25-10.25-10.25c-5.599,0-10.156,4.514-10.242,10.092h-6.977v-2.728c0-7.698,6.262-13.96,13.96-13.96h315.384
		c7.697,0,13.961,6.262,13.961,13.96v31.037h-17.196c-0.132-2.071-1.842-3.721-3.944-3.721c-2.104,0-3.812,1.649-3.944,3.721h-4.069
		c-0.132-2.071-1.842-3.721-3.943-3.721c-2.188,0-3.971,1.781-3.971,3.971s1.781,3.971,3.971,3.971c2.103,0,3.812-1.649,3.943-3.721
		h4.069c0.132,2.071,1.842,3.721,3.944,3.721c2.104,0,3.812-1.649,3.944-3.721h17.196L393.599,206.472L393.599,206.472z
		 M67.263,213.132c-4.433-0.133-8-3.771-8-8.236c0-4.549,3.701-8.25,8.25-8.25c4.549,0,8.25,3.701,8.25,8.25
		c0,4.465-3.567,8.104-8,8.236v-6.647h-0.5V213.132z M59.27,79.172c0.085-4.476,3.747-8.092,8.242-8.092
		c4.549,0,8.25,3.701,8.25,8.25c0,4.549-3.701,8.25-8.25,8.25c-4.433,0-8.051-3.518-8.232-7.908h9.259v-0.5H59.27z M369.513,107.482
		c0.129-1.52,1.394-2.721,2.944-2.721s2.815,1.201,2.944,2.721H369.513z M375.401,107.982c-0.129,1.52-1.394,2.721-2.944,2.721
		s-2.815-1.201-2.944-2.721H375.401z M363.442,107.982c-0.129,1.52-1.394,2.721-2.944,2.721c-1.638,0-2.97-1.333-2.97-2.971
		c0-1.638,1.332-2.971,2.97-2.971c1.553,0,2.815,1.201,2.944,2.721h-2.944v0.5H363.442z"/>
	<polygon fill="#777777" points="348.955,153.821 344.136,153.821 344.136,154.321 348.955,154.321 348.955,156.494 353.15,154.071 
		348.955,151.647 	"/>
	<polygon fill="#777777" points="84.879,202.472 80.684,204.896 84.879,207.319 84.879,205.146 107.965,205.146 107.965,204.646 
		84.879,204.646 	"/>
	<polygon fill="#777777" points="371.713,184.186 367.519,181.763 367.519,183.936 365.478,183.936 365.478,181.763 
		361.283,184.186 365.478,186.608 365.478,184.436 367.519,184.436 367.519,186.608 	"/>
	<polygon fill="#777777" points="373.186,184.186 377.379,186.608 377.379,184.436 388.914,184.436 388.914,186.608 
		393.108,184.186 388.914,181.763 388.914,183.936 377.379,183.936 377.379,181.763 	"/>
	<polygon fill="#777777" points="376.457,225.997 372.129,229.03 356.99,229.03 356.99,229.53 372.287,229.53 376.744,226.406 
		377.992,228.186 380.037,223.794 375.211,224.218 	"/>
	<polygon fill="#777777" points="352.365,134.995 349.945,130.442 347.521,134.995 349.695,134.995 349.695,137.31 347.521,137.31 
		349.945,141.859 352.365,137.31 350.195,137.31 350.195,134.995 	"/>
	<polygon fill="#777777" points="407.365,66.179 404.941,61.983 402.521,66.179 404.691,66.179 404.691,102.929 402.521,102.929 
		404.941,107.125 407.365,102.929 405.191,102.929 405.191,66.179 	"/>
	<polygon fill="#777777" points="62.827,244.072 54.004,244.072 54.004,241.898 49.603,244.322 54.004,246.745 54.004,244.572 
		62.827,244.572 62.827,246.745 67.228,244.322 62.827,241.898 	"/>
	<polygon fill="#777777" points="10.995,216.802 13.417,220.994 15.838,216.802 13.667,216.802 13.667,66.289 15.838,66.289 
		13.417,62.092 10.995,66.289 13.167,66.289 13.167,216.802 	"/>
	<polygon fill="#777777" points="37.9,74.81 40.325,79.129 42.748,74.81 40.575,74.81 40.575,66.263 42.748,66.263 40.325,61.942 
		37.9,66.263 40.075,66.263 40.075,74.81 	"/>
	<polygon fill="#777777" points="268.847,151.555 268.999,152.156 270.014,151.608 270.03,151.608 270.03,156.705 270.794,156.705 
		270.794,150.873 270.12,150.873 	"/>
	<path fill="#777777" d="M276.103,150.873h-0.854l-2.602,3.725v0.512h2.709v1.598h0.745v-1.598h0.815V154.5h-0.814V150.873z
		 M275.357,152.551v1.947h-1.909v-0.02l1.426-1.982c0.162-0.27,0.306-0.521,0.483-0.861h0.027
		C275.368,151.94,275.357,152.246,275.357,152.551z"/>
	<path fill="#777777" d="M281.126,152.362h-0.86l-0.603,0.925c-0.151,0.232-0.295,0.457-0.438,0.719h-0.026
		c-0.145-0.252-0.277-0.467-0.439-0.709l-0.619-0.935h-0.879l1.472,2.127l-1.543,2.216h0.87l0.628-0.978
		c0.161-0.261,0.313-0.494,0.457-0.754h0.019c0.152,0.26,0.297,0.502,0.467,0.754l0.638,0.978h0.897l-1.518-2.242L281.126,152.362z"
		/>
	<path fill="#777777" d="M286.895,150.631l-0.476-0.323l-0.529,0.727c-0.432-0.313-0.951-0.475-1.508-0.475
		c-1.588,0-2.79,1.247-2.79,3.157c0,0.906,0.296,1.695,0.798,2.242l-0.557,0.781l0.439,0.35l0.564-0.771
		c0.432,0.313,0.961,0.483,1.525,0.483c1.453,0,2.754-1.066,2.754-3.176c0-0.889-0.277-1.678-0.779-2.226L286.895,150.631z
		 M282.829,155.297c-0.27-0.459-0.439-0.951-0.439-1.615c0-1.274,0.664-2.494,1.975-2.494c0.457,0,0.834,0.161,1.139,0.421
		l-2.654,3.679L282.829,155.297z M284.354,156.176c-0.493,0-0.834-0.152-1.13-0.432l2.646-3.66h0.026
		c0.313,0.512,0.422,1.06,0.422,1.569C286.319,155.019,285.61,156.176,284.354,156.176z"/>
	<path fill="#777777" d="M289.808,150.774c-1.184,0-2.036,1.067-2.036,3.032c0.019,1.93,0.798,2.996,1.938,2.996h0.009
		c1.274,0,2.021-1.094,2.021-3.076C291.736,151.869,291.027,150.774,289.808,150.774z M289.753,156.193h-0.008
		c-0.728,0-1.193-0.915-1.177-2.432c0-1.463,0.468-2.377,1.185-2.377c0.826,0,1.186,0.941,1.186,2.377
		C290.938,155.252,290.553,156.193,289.753,156.193z"/>
	<path fill="#777777" d="M293.054,155.672c-0.314,0-0.538,0.242-0.538,0.565s0.215,0.565,0.521,0.565h0.01
		c0.322,0,0.537-0.242,0.537-0.565C293.583,155.906,293.368,155.672,293.054,155.672z"/>
	<path fill="#777777" d="M296.265,150.774c-1.184,0-2.036,1.067-2.036,3.032c0.019,1.93,0.798,2.996,1.938,2.996h0.009
		c1.273,0,2.02-1.094,2.02-3.076C298.193,151.869,297.484,150.774,296.265,150.774z M296.21,156.193h-0.008
		c-0.728,0-1.193-0.915-1.177-2.432c0-1.463,0.468-2.377,1.185-2.377c0.826,0,1.186,0.941,1.186,2.377
		C297.395,155.252,297.01,156.193,296.21,156.193z"/>
	<path fill="#777777" d="M302.525,155.053c0-0.815-0.583-1.354-1.301-1.488v-0.018c0.709-0.261,1.076-0.771,1.076-1.383
		c0-0.709-0.521-1.391-1.67-1.391c-0.627,0-1.219,0.225-1.533,0.447l0.216,0.574c0.251-0.179,0.7-0.386,1.166-0.386
		c0.728,0,1.022,0.413,1.022,0.88c0,0.69-0.728,0.986-1.301,0.986h-0.439v0.593h0.439c0.762,0,1.498,0.351,1.508,1.166
		c0.009,0.493-0.314,1.132-1.319,1.132c-0.556,0-1.067-0.226-1.292-0.359l-0.215,0.602c0.287,0.188,0.861,0.395,1.517,0.395
		C301.791,156.803,302.525,155.987,302.525,155.053z"/>
	<path fill="#777777" d="M305.467,150.774c-1.193,0-2.002,0.969-2.002,2.063c0,1.004,0.675,1.795,1.724,1.795
		c0.593,0,1.06-0.233,1.382-0.629h0.027c-0.107,0.69-0.387,1.193-0.771,1.553c-0.332,0.314-0.763,0.503-1.221,0.557
		c-0.27,0.035-0.466,0.045-0.637,0.035v0.646c0.18,0.008,0.439-0.01,0.727-0.045c0.629-0.072,1.247-0.351,1.696-0.781
		c0.573-0.557,1.005-1.453,1.005-2.736C307.396,151.734,306.66,150.774,305.467,150.774z M306.535,153.422
		c-0.217,0.351-0.629,0.609-1.158,0.609c-0.683,0-1.121-0.512-1.121-1.238c0-0.824,0.476-1.416,1.14-1.416h0.009
		c0.825,0,1.202,0.752,1.193,1.758C306.598,153.26,306.569,153.35,306.535,153.422z"/>
	<path fill="#777777" d="M309.34,152.686l0.504-0.055c0.242-0.412,0.628-1.381,0.834-2.136l-0.809,0.091
		C309.771,151.232,309.528,152.156,309.34,152.686z"/>
	<path fill="#777777" d="M308.541,150.586c-0.099,0.646-0.332,1.57-0.528,2.101l0.503-0.054c0.242-0.414,0.628-1.383,0.834-2.137
		L308.541,150.586z"/>
	<polygon fill="#777777" points="315.117,150.56 314.498,150.56 312.004,157.063 312.604,157.063 	"/>
	<polygon fill="#777777" points="317.924,151.555 318.076,152.156 319.09,151.608 319.107,151.608 319.107,156.705 319.871,156.705 
		319.871,150.873 319.197,150.873 	"/>
	<path fill="#777777" d="M328.455,156.705v-2.557c0-1.508-0.853-1.885-1.437-1.885c-0.412,0-0.69,0.107-0.95,0.306
		c-0.18,0.134-0.359,0.313-0.494,0.563h-0.018c-0.188-0.51-0.637-0.869-1.221-0.869c-0.728,0-1.131,0.386-1.373,0.799h-0.026
		l-0.036-0.7h-0.689c0.018,0.358,0.035,0.718,0.035,1.177v3.166h0.771v-2.619c0-0.136,0.018-0.27,0.062-0.387
		c0.125-0.395,0.492-0.789,0.979-0.789c0.602,0,0.906,0.493,0.906,1.184v2.611h0.771v-2.691c0-0.135,0.026-0.277,0.062-0.396
		c0.145-0.376,0.484-0.708,0.943-0.708c0.627,0,0.94,0.493,0.94,1.338v2.457H328.455z"/>
	<path fill="#777777" d="M333.217,156.705v-2.691c0-0.135,0.025-0.277,0.062-0.396c0.144-0.376,0.484-0.708,0.942-0.708
		c0.628,0,0.941,0.493,0.941,1.338v2.457h0.771v-2.557c0-1.508-0.853-1.885-1.437-1.885c-0.412,0-0.689,0.106-0.949,0.306
		c-0.18,0.134-0.359,0.313-0.494,0.563h-0.018c-0.188-0.51-0.638-0.869-1.222-0.869c-0.728,0-1.13,0.386-1.372,0.799h-0.027
		l-0.035-0.7h-0.69c0.019,0.358,0.036,0.718,0.036,1.177v3.166h0.771v-2.619c0-0.136,0.018-0.27,0.062-0.387
		c0.126-0.395,0.493-0.789,0.979-0.789c0.601,0,0.904,0.493,0.904,1.184v2.611H333.217z"/>
	<path fill="#777777" d="M114.918,202.163h-0.853l-2.602,3.725v0.513h2.709v1.597h0.745V206.4h0.816v-0.61h-0.816L114.918,202.163
		L114.918,202.163z M114.174,203.841v1.947h-1.911v-0.019l1.427-1.981c0.161-0.271,0.305-0.521,0.484-0.861h0.027
		C114.184,203.231,114.174,203.536,114.174,203.841z"/>
	<path fill="#777777" d="M119.941,203.653h-0.861l-0.602,0.924c-0.152,0.232-0.296,0.457-0.439,0.719h-0.027
		c-0.144-0.252-0.278-0.467-0.439-0.709l-0.619-0.934h-0.879l1.472,2.127l-1.543,2.215h0.87l0.628-0.977
		c0.161-0.262,0.314-0.494,0.458-0.754h0.018c0.152,0.26,0.296,0.502,0.466,0.754l0.637,0.977h0.897l-1.516-2.242L119.941,203.653z"
		/>
	<path fill="#777777" d="M125.708,201.921l-0.476-0.321l-0.529,0.727c-0.431-0.313-0.951-0.475-1.507-0.475
		c-1.588,0-2.79,1.245-2.79,3.157c0,0.904,0.296,1.695,0.798,2.242l-0.556,0.781l0.439,0.35l0.565-0.771
		c0.431,0.312,0.96,0.483,1.525,0.483c1.454,0,2.754-1.067,2.754-3.176c0-0.889-0.278-1.678-0.78-2.227L125.708,201.921z
		 M121.645,206.587c-0.269-0.457-0.439-0.951-0.439-1.615c0-1.272,0.664-2.493,1.974-2.493c0.458,0,0.834,0.162,1.14,0.422
		l-2.656,3.678L121.645,206.587z M123.169,207.466c-0.494,0-0.834-0.152-1.13-0.431l2.646-3.661h0.027
		c0.314,0.512,0.421,1.061,0.421,1.569C125.135,206.31,124.427,207.466,123.169,207.466z"/>
	<path fill="#777777" d="M128.624,202.065c-1.185,0-2.037,1.066-2.037,3.031c0.018,1.93,0.798,2.998,1.938,2.998h0.009
		c1.274,0,2.019-1.096,2.019-3.078C130.552,203.159,129.844,202.065,128.624,202.065z M128.568,207.483h-0.009
		c-0.727,0-1.193-0.914-1.175-2.432c0-1.461,0.466-2.377,1.184-2.377c0.826,0,1.185,0.94,1.185,2.377
		C129.753,206.542,129.368,207.483,128.568,207.483z"/>
	<path fill="#777777" d="M131.87,206.964c-0.314,0-0.539,0.242-0.539,0.563c0,0.324,0.216,0.565,0.521,0.565h0.009
		c0.323,0,0.538-0.241,0.538-0.565C132.398,207.196,132.184,206.964,131.87,206.964z"/>
	<polygon fill="#777777" points="133.653,202.845 133.807,203.446 134.82,202.899 134.838,202.899 134.838,207.995 135.601,207.995 
		135.601,202.163 134.928,202.163 	"/>
	<path fill="#777777" d="M138.837,207.323l0.458-0.432c1.229-1.184,2.01-2.055,2.01-3.131c0-0.834-0.53-1.695-1.777-1.695
		c-0.673,0-1.256,0.26-1.651,0.592l0.251,0.557c0.269-0.225,0.708-0.494,1.238-0.494c0.871,0,1.148,0.548,1.148,1.142
		c0,0.879-0.682,1.633-2.171,3.049l-0.619,0.603v0.484h3.724v-0.654h-2.611V207.323z"/>
	<path fill="#777777" d="M145.089,204.604c-0.359-0.215-0.798-0.314-1.256-0.314c-0.215,0-0.341,0.019-0.476,0.035l0.224-1.498
		h2.225v-0.664h-2.79l-0.377,2.801c0.215-0.037,0.476-0.063,0.816-0.063c1.157,0,1.669,0.539,1.669,1.283
		c0.009,0.791-0.637,1.274-1.373,1.274c-0.538,0-1.014-0.18-1.256-0.324l-0.197,0.603c0.287,0.181,0.816,0.358,1.453,0.358
		c1.265,0,2.171-0.854,2.171-1.991C145.923,205.366,145.547,204.854,145.089,204.604z"/>
	<path fill="#777777" d="M147.357,201.876c-0.099,0.646-0.332,1.57-0.529,2.101l0.502-0.054c0.242-0.414,0.628-1.383,0.834-2.137
		L147.357,201.876z"/>
	<path fill="#777777" d="M148.157,203.976l0.502-0.053c0.242-0.414,0.628-1.383,0.834-2.138l-0.808,0.091
		C148.586,202.522,148.345,203.446,148.157,203.976z"/>
	<polygon fill="#777777" points="150.819,208.354 151.42,208.354 153.933,201.851 153.313,201.851 	"/>
	<path fill="#777777" d="M158.524,204.854v-0.018c0.708-0.261,1.077-0.771,1.077-1.381c0-0.709-0.521-1.392-1.669-1.392
		c-0.628,0-1.22,0.226-1.534,0.446l0.215,0.574c0.251-0.178,0.7-0.385,1.167-0.385c0.727,0,1.022,0.412,1.022,0.879
		c0,0.691-0.727,0.986-1.301,0.986h-0.439v0.594h0.439c0.763,0,1.498,0.35,1.507,1.166c0.009,0.492-0.314,1.131-1.319,1.131
		c-0.557,0-1.068-0.225-1.292-0.359l-0.215,0.603c0.287,0.188,0.861,0.396,1.516,0.396c1.391,0,2.126-0.816,2.126-1.75
		C159.826,205.528,159.243,204.989,158.524,204.854z"/>
	<path fill="#777777" d="M161.412,206.964c-0.314,0-0.538,0.242-0.538,0.563c0,0.324,0.215,0.565,0.52,0.565h0.009
		c0.323,0,0.538-0.241,0.538-0.565C161.94,207.196,161.726,206.964,161.412,206.964z"/>
	<path fill="#777777" d="M163.779,207.323l0.458-0.432c1.229-1.184,2.01-2.055,2.01-3.131c0-0.834-0.529-1.695-1.776-1.695
		c-0.673,0-1.256,0.26-1.651,0.592l0.251,0.557c0.269-0.225,0.708-0.494,1.238-0.494c0.87,0,1.148,0.548,1.148,1.142
		c0,0.879-0.682,1.633-2.171,3.049l-0.619,0.603v0.484h3.723v-0.654h-2.611V207.323z"/>
	<path fill="#777777" d="M172.292,203.554c-0.413,0-0.691,0.106-0.951,0.307c-0.179,0.133-0.359,0.312-0.493,0.564h-0.018
		c-0.188-0.512-0.637-0.871-1.22-0.871c-0.727,0-1.131,0.387-1.373,0.799h-0.027l-0.036-0.699h-0.691
		c0.018,0.359,0.036,0.717,0.036,1.176v3.166h0.772v-2.619c0-0.135,0.018-0.27,0.062-0.387c0.125-0.395,0.494-0.789,0.978-0.789
		c0.601,0,0.906,0.494,0.906,1.184v2.611h0.771v-2.691c0-0.135,0.027-0.276,0.063-0.395c0.144-0.377,0.484-0.709,0.942-0.709
		c0.628,0,0.942,0.494,0.942,1.338v2.457h0.771v-2.557C173.728,203.931,172.875,203.554,172.292,203.554z"/>
	<path fill="#777777" d="M179.772,203.554c-0.413,0-0.691,0.106-0.951,0.307c-0.179,0.133-0.359,0.312-0.494,0.564h-0.018
		c-0.188-0.512-0.637-0.871-1.22-0.871c-0.727,0-1.13,0.387-1.373,0.799h-0.027l-0.036-0.699h-0.691
		c0.018,0.359,0.036,0.717,0.036,1.176v3.166h0.772v-2.619c0-0.135,0.018-0.27,0.062-0.387c0.126-0.395,0.494-0.789,0.978-0.789
		c0.601,0,0.906,0.494,0.906,1.184v2.611h0.771v-2.691c0-0.135,0.027-0.276,0.063-0.395c0.144-0.377,0.484-0.709,0.942-0.709
		c0.628,0,0.942,0.494,0.942,1.338v2.457h0.771v-2.557C181.208,203.931,180.355,203.554,179.772,203.554z"/>
	<path fill="#777777" d="M75.119,241.122h-0.852l-2.602,3.725v0.512h2.71v1.598h0.744v-1.598h0.816v-0.609h-0.816V241.122z
		 M74.375,242.8v1.947h-1.911v-0.019l1.427-1.983c0.161-0.27,0.305-0.521,0.484-0.861H74.4
		C74.383,242.189,74.375,242.495,74.375,242.8z"/>
	<path fill="#777777" d="M80.143,242.611h-0.862l-0.602,0.925c-0.152,0.232-0.296,0.457-0.439,0.719h-0.027
		c-0.144-0.252-0.278-0.467-0.439-0.709l-0.619-0.935h-0.88l1.471,2.127l-1.543,2.216h0.87l0.629-0.978
		c0.161-0.261,0.313-0.494,0.457-0.755h0.018c0.153,0.261,0.297,0.503,0.467,0.755l0.638,0.978h0.896l-1.516-2.242L80.143,242.611z"
		/>
	<path fill="#777777" d="M83.189,245.921c-0.314,0-0.539,0.244-0.539,0.565c0,0.323,0.216,0.565,0.521,0.565h0.01
		c0.322,0,0.538-0.242,0.538-0.565C83.72,246.155,83.503,245.921,83.189,245.921z"/>
	<polygon fill="#777777" points="84.975,241.804 85.126,242.405 86.142,241.858 86.159,241.858 86.159,246.954 86.921,246.954 
		86.921,241.122 86.249,241.122 	"/>
	<path fill="#777777" d="M91.81,243.562c-0.358-0.216-0.798-0.313-1.256-0.313c-0.215,0-0.341,0.019-0.476,0.035l0.225-1.498h2.225
		v-0.664h-2.79l-0.377,2.801c0.216-0.037,0.476-0.063,0.816-0.063c1.157,0,1.669,0.539,1.669,1.283
		c0.009,0.79-0.637,1.274-1.373,1.274c-0.538,0-1.014-0.181-1.256-0.324l-0.197,0.603c0.287,0.179,0.816,0.358,1.453,0.358
		c1.266,0,2.172-0.854,2.172-1.992C92.645,244.325,92.268,243.813,91.81,243.562z"/>
	<path fill="#777777" d="M94.078,240.835c-0.099,0.646-0.332,1.57-0.529,2.101l0.503-0.054c0.242-0.414,0.628-1.383,0.834-2.137
		L94.078,240.835z"/>
	<path fill="#777777" d="M94.876,242.935l0.502-0.055c0.242-0.412,0.628-1.381,0.835-2.136l-0.808,0.091
		C95.308,241.481,95.064,242.405,94.876,242.935z"/>
	<polygon fill="#777777" points="97.54,247.313 98.141,247.313 100.652,240.809 100.034,240.809 	"/>
	<path fill="#777777" d="M105.245,243.813v-0.018c0.708-0.261,1.076-0.771,1.076-1.383c0-0.709-0.521-1.391-1.669-1.391
		c-0.628,0-1.22,0.225-1.534,0.447l0.216,0.574c0.251-0.179,0.699-0.386,1.166-0.386c0.727,0,1.022,0.413,1.022,0.88
		c0,0.69-0.727,0.986-1.301,0.986h-0.439v0.593h0.439c0.763,0,1.498,0.351,1.508,1.166c0.009,0.493-0.314,1.132-1.319,1.132
		c-0.557,0-1.067-0.226-1.292-0.359l-0.215,0.602c0.287,0.188,0.861,0.395,1.516,0.395c1.391,0,2.127-0.815,2.127-1.748
		C106.545,244.486,105.962,243.948,105.245,243.813z"/>
	<path fill="#777777" d="M108.131,245.921c-0.313,0-0.538,0.244-0.538,0.565c0,0.323,0.215,0.565,0.521,0.565h0.009
		c0.323,0,0.538-0.242,0.538-0.565C108.661,246.155,108.445,245.921,108.131,245.921z"/>
	<path fill="#777777" d="M112.079,243.85v-0.026c0.718-0.332,0.969-0.871,0.969-1.363c0-0.735-0.574-1.437-1.704-1.437h-0.01
		c-1.022,0-1.803,0.628-1.803,1.552c0,0.503,0.277,1.006,0.933,1.311v0.027c-0.709,0.305-1.148,0.834-1.148,1.569
		c0,0.853,0.736,1.569,1.956,1.569c1.112,0,1.982-0.672,1.982-1.694C113.253,244.657,112.806,244.136,112.079,243.85z
		 M110.284,242.521c0-0.502,0.359-0.933,1.015-0.933h0.009c0.699,0,0.978,0.483,0.978,0.951c0,0.528-0.386,0.887-0.888,1.059
		C110.725,243.419,110.274,243.105,110.284,242.521z M111.289,246.479h-0.009c-0.735,0-1.185-0.521-1.157-1.104
		c0-0.557,0.368-1.014,1.05-1.211c0.789,0.225,1.283,0.574,1.283,1.273C112.456,246.04,111.998,246.479,111.289,246.479z"/>
	<polygon fill="#777777" points="114.518,241.804 114.669,242.405 115.684,241.858 115.701,241.858 115.701,246.954 
		116.463,246.954 116.463,241.122 115.791,241.122 	"/>
	<path fill="#777777" d="M123.612,242.513c-0.412,0-0.69,0.106-0.951,0.306c-0.179,0.134-0.358,0.313-0.493,0.563h-0.018
		c-0.188-0.51-0.638-0.869-1.221-0.869c-0.727,0-1.131,0.386-1.373,0.799h-0.026l-0.036-0.7h-0.69
		c0.018,0.358,0.035,0.718,0.035,1.177v3.166h0.772v-2.619c0-0.136,0.018-0.27,0.062-0.387c0.125-0.395,0.493-0.789,0.978-0.789
		c0.602,0,0.906,0.493,0.906,1.184v2.611h0.771v-2.69c0-0.136,0.027-0.278,0.063-0.396c0.144-0.377,0.484-0.709,0.941-0.709
		c0.628,0,0.942,0.493,0.942,1.338v2.457h0.771v-2.557C125.048,242.89,124.195,242.513,123.612,242.513z"/>
	<path fill="#777777" d="M131.094,242.513c-0.413,0-0.691,0.106-0.951,0.306c-0.18,0.134-0.359,0.313-0.494,0.563h-0.018
		c-0.188-0.51-0.637-0.869-1.22-0.869c-0.728,0-1.131,0.386-1.373,0.799h-0.027l-0.035-0.7h-0.691
		c0.019,0.358,0.036,0.718,0.036,1.177v3.166h0.771v-2.619c0-0.136,0.018-0.27,0.062-0.387c0.126-0.395,0.494-0.789,0.979-0.789
		c0.601,0,0.906,0.493,0.906,1.184v2.611h0.771v-2.69c0-0.136,0.026-0.278,0.062-0.396c0.144-0.377,0.484-0.709,0.942-0.709
		c0.628,0,0.942,0.493,0.942,1.338v2.457h0.771v-2.557C132.528,242.89,131.677,242.513,131.094,242.513z"/>
	<path fill="#777777" d="M303.531,180.89c-1.184,0-2.035,1.066-2.035,3.031c0.018,1.931,0.797,2.998,1.938,2.998h0.009
		c1.274,0,2.021-1.096,2.021-3.078C305.461,181.984,304.752,180.89,303.531,180.89z M303.478,186.309h-0.009
		c-0.727,0-1.193-0.915-1.176-2.431c0-1.463,0.467-2.379,1.185-2.379c0.825,0,1.185,0.942,1.185,2.379
		C304.662,185.367,304.276,186.309,303.478,186.309z"/>
	<path fill="#777777" d="M306.777,185.788c-0.314,0-0.537,0.242-0.537,0.565s0.215,0.565,0.521,0.565h0.009
		c0.323,0,0.538-0.242,0.538-0.565C307.308,186.021,307.093,185.788,306.777,185.788z"/>
	<polygon fill="#777777" points="308.562,181.671 308.715,182.271 309.729,181.724 309.746,181.724 309.746,186.82 310.51,186.82 
		310.51,180.988 309.836,180.988 	"/>
	<path fill="#777777" d="M313.064,180.701c-0.1,0.646-0.332,1.57-0.529,2.101l0.504-0.055c0.242-0.412,0.627-1.382,0.834-2.136
		L313.064,180.701z"/>
	<path fill="#777777" d="M313.863,182.8l0.504-0.053c0.241-0.414,0.627-1.383,0.834-2.137l-0.809,0.09
		C314.295,181.347,314.053,182.271,313.863,182.8z"/>
	<polygon fill="#777777" points="316.526,187.179 317.127,187.179 319.641,180.675 319.021,180.675 	"/>
	<path fill="#777777" d="M323.029,186.147l0.457-0.432c1.229-1.185,2.01-2.055,2.01-3.131c0-0.834-0.528-1.695-1.775-1.695
		c-0.674,0-1.256,0.26-1.65,0.592l0.252,0.557c0.27-0.225,0.709-0.492,1.237-0.492c0.87,0,1.147,0.547,1.147,1.14
		c0,0.879-0.682,1.633-2.172,3.05l-0.619,0.602v0.484h3.725v-0.654h-2.609v-0.02H323.029z"/>
	<path fill="#777777" d="M327.119,185.788c-0.314,0-0.539,0.242-0.539,0.565s0.215,0.565,0.521,0.565h0.009
		c0.323,0,0.538-0.242,0.538-0.565C327.647,186.021,327.434,185.788,327.119,185.788z"/>
	<path fill="#777777" d="M331.138,183.429c-0.358-0.215-0.8-0.313-1.257-0.313c-0.215,0-0.34,0.019-0.476,0.035l0.226-1.498h2.225
		v-0.664h-2.79l-0.377,2.8c0.215-0.035,0.476-0.062,0.815-0.062c1.158,0,1.67,0.539,1.67,1.283c0.009,0.789-0.637,1.273-1.373,1.273
		c-0.538,0-1.014-0.18-1.256-0.322l-0.197,0.602c0.287,0.179,0.816,0.357,1.453,0.357c1.266,0,2.172-0.853,2.172-1.992
		C331.973,184.191,331.596,183.679,331.138,183.429z"/>
	<path fill="#777777" d="M336.16,180.988h-0.853l-2.603,3.724v0.513h2.709v1.597h0.746v-1.597h0.815v-0.61h-0.815V180.988
		L336.16,180.988z M335.416,182.667v1.946h-1.912v-0.019l1.428-1.982c0.162-0.27,0.306-0.521,0.484-0.861h0.026
		C335.426,182.056,335.416,182.361,335.416,182.667z"/>
	<path fill="#777777" d="M342.601,182.38c-0.412,0-0.69,0.106-0.95,0.306c-0.18,0.134-0.359,0.313-0.494,0.563h-0.018
		c-0.188-0.511-0.637-0.869-1.221-0.869c-0.728,0-1.131,0.386-1.373,0.799h-0.026l-0.036-0.7h-0.689
		c0.018,0.358,0.035,0.718,0.035,1.176v3.167h0.771v-2.62c0-0.135,0.018-0.269,0.062-0.386c0.125-0.395,0.492-0.789,0.979-0.789
		c0.602,0,0.904,0.493,0.904,1.184v2.611h0.772v-2.691c0-0.135,0.026-0.277,0.062-0.396c0.145-0.376,0.484-0.708,0.942-0.708
		c0.628,0,0.941,0.493,0.941,1.337v2.458h0.771v-2.557C344.035,182.755,343.185,182.38,342.601,182.38z"/>
	<path fill="#777777" d="M350.08,182.38c-0.412,0-0.689,0.106-0.949,0.306c-0.18,0.134-0.359,0.313-0.494,0.563h-0.018
		c-0.188-0.511-0.638-0.869-1.222-0.869c-0.728,0-1.13,0.386-1.372,0.799h-0.027l-0.035-0.7h-0.69
		c0.019,0.358,0.036,0.718,0.036,1.176v3.167h0.771v-2.62c0-0.135,0.018-0.269,0.062-0.386c0.126-0.395,0.493-0.789,0.979-0.789
		c0.601,0,0.904,0.493,0.904,1.184v2.611h0.771v-2.691c0-0.135,0.027-0.277,0.062-0.396c0.145-0.376,0.484-0.708,0.942-0.708
		c0.628,0,0.94,0.493,0.94,1.337v2.458h0.771v-2.557C351.517,182.755,350.664,182.38,350.08,182.38z"/>
	<path fill="#777777" d="M281.841,225.718h-0.852l-2.603,3.725v0.512h2.709v1.598h0.745v-1.598h0.816v-0.609h-0.816V225.718
		L281.841,225.718z M281.097,227.396v1.946h-1.91v-0.019l1.426-1.981c0.162-0.271,0.307-0.521,0.484-0.861h0.027
		C281.105,226.786,281.097,227.091,281.097,227.396z"/>
	<path fill="#777777" d="M286.864,227.208h-0.861l-0.603,0.926c-0.151,0.231-0.296,0.457-0.438,0.718h-0.027
		c-0.143-0.252-0.277-0.468-0.439-0.709l-0.619-0.935h-0.879l1.473,2.127l-1.544,2.217h0.87l0.629-0.979
		c0.16-0.261,0.312-0.494,0.457-0.754h0.019c0.152,0.26,0.296,0.502,0.468,0.754l0.637,0.979h0.896l-1.517-2.243L286.864,227.208z"
		/>
	<path fill="#777777" d="M292.183,228.671v-0.026c0.629-0.216,1.141-0.744,1.141-1.534c0-0.477-0.18-0.888-0.477-1.148
		c-0.377-0.34-0.924-0.502-1.758-0.502c-0.529,0-1.104,0.055-1.5,0.135v5.957h0.781v-2.619h0.735
		c0.709,0.027,1.041,0.341,1.22,1.176c0.162,0.754,0.297,1.266,0.396,1.443h0.809c-0.117-0.232-0.262-0.815-0.459-1.659
		C292.919,229.263,292.641,228.833,292.183,228.671z M291.169,228.339h-0.799v-2.198c0.135-0.036,0.396-0.072,0.771-0.072
		c0.824,0,1.391,0.342,1.391,1.122C292.532,227.88,292.003,228.339,291.169,228.339z"/>
	<path fill="#777777" d="M296.093,225.62c-1.184,0-2.036,1.067-2.036,3.032c0.019,1.931,0.798,2.997,1.938,2.997h0.008
		c1.274,0,2.021-1.096,2.021-3.077C298.021,226.714,297.312,225.62,296.093,225.62z M296.038,231.04h-0.009
		c-0.727,0-1.192-0.916-1.176-2.432c0-1.463,0.467-2.378,1.185-2.378c0.826,0,1.186,0.942,1.186,2.378
		C297.224,230.097,296.837,231.04,296.038,231.04z"/>
	<path fill="#777777" d="M299.338,230.519c-0.313,0-0.537,0.242-0.537,0.564c0,0.323,0.215,0.565,0.521,0.565h0.009
		c0.323,0,0.539-0.242,0.539-0.565C299.867,230.753,299.652,230.519,299.338,230.519z"/>
	<polygon fill="#777777" points="301.123,226.4 301.275,227.003 302.289,226.454 302.308,226.454 302.308,231.55 303.069,231.55 
		303.069,225.718 302.396,225.718 	"/>
	<path fill="#777777" d="M306.308,230.878l0.457-0.431c1.229-1.185,2.01-2.055,2.01-3.132c0-0.834-0.528-1.695-1.776-1.695
		c-0.672,0-1.256,0.26-1.649,0.592l0.251,0.558c0.27-0.226,0.709-0.493,1.238-0.493c0.869,0,1.147,0.547,1.147,1.141
		c0,0.879-0.682,1.633-2.172,3.049l-0.619,0.603v0.483h3.724v-0.654h-2.609L306.308,230.878L306.308,230.878z"/>
	<path fill="#777777" d="M312.56,228.159c-0.358-0.215-0.799-0.312-1.256-0.312c-0.216,0-0.341,0.018-0.476,0.035l0.225-1.498h2.225
		v-0.664h-2.789l-0.378,2.8c0.216-0.036,0.476-0.063,0.816-0.063c1.157,0,1.669,0.539,1.669,1.283
		c0.009,0.79-0.637,1.273-1.373,1.273c-0.538,0-1.014-0.18-1.256-0.322l-0.197,0.602c0.287,0.18,0.816,0.358,1.453,0.358
		c1.266,0,2.172-0.853,2.172-1.992C313.395,228.921,313.018,228.41,312.56,228.159z"/>
	<path fill="#777777" d="M314.826,225.432c-0.099,0.646-0.332,1.569-0.529,2.1l0.504-0.054c0.242-0.413,0.628-1.383,0.834-2.137
		L314.826,225.432z"/>
	<path fill="#777777" d="M315.625,227.531l0.504-0.054c0.242-0.413,0.627-1.383,0.834-2.137l-0.809,0.091
		C316.057,226.078,315.813,227.003,315.625,227.531z"/>
	<polygon fill="#777777" points="318.289,231.909 318.89,231.909 321.401,225.405 320.783,225.405 	"/>
	<path fill="#777777" d="M325.994,228.41v-0.018c0.709-0.261,1.075-0.771,1.075-1.382c0-0.709-0.521-1.392-1.669-1.392
		c-0.628,0-1.22,0.226-1.533,0.448l0.215,0.574c0.252-0.18,0.699-0.387,1.166-0.387c0.728,0,1.023,0.414,1.023,0.881
		c0,0.689-0.729,0.986-1.302,0.986h-0.438v0.592h0.438c0.763,0,1.499,0.351,1.508,1.166c0.009,0.494-0.313,1.131-1.319,1.131
		c-0.556,0-1.066-0.225-1.291-0.358l-0.216,0.603c0.287,0.188,0.861,0.395,1.517,0.395c1.392,0,2.127-0.816,2.127-1.75
		C327.295,229.083,326.711,228.546,325.994,228.41z"/>
	<path fill="#777777" d="M328.881,230.519c-0.313,0-0.537,0.242-0.537,0.564c0,0.323,0.215,0.565,0.521,0.565h0.008
		c0.323,0,0.539-0.242,0.539-0.565C329.41,230.753,329.195,230.519,328.881,230.519z"/>
	<path fill="#777777" d="M331.25,230.878l0.457-0.431c1.229-1.185,2.01-2.055,2.01-3.132c0-0.834-0.529-1.695-1.776-1.695
		c-0.673,0-1.256,0.26-1.649,0.592l0.25,0.558c0.27-0.226,0.709-0.493,1.238-0.493c0.87,0,1.148,0.547,1.148,1.141
		c0,0.879-0.684,1.633-2.172,3.049l-0.619,0.603v0.483h3.724v-0.654h-2.61V230.878L331.25,230.878z"/>
	<path fill="#777777" d="M339.762,227.109c-0.412,0-0.69,0.106-0.95,0.306c-0.181,0.135-0.358,0.313-0.494,0.564h-0.019
		c-0.188-0.512-0.637-0.87-1.221-0.87c-0.727,0-1.129,0.386-1.371,0.799h-0.027l-0.036-0.7h-0.69
		c0.019,0.359,0.036,0.719,0.036,1.176v3.168h0.771v-2.62c0-0.136,0.018-0.269,0.062-0.386c0.127-0.396,0.493-0.789,0.979-0.789
		c0.601,0,0.905,0.492,0.905,1.184v2.611h0.771v-2.691c0-0.135,0.025-0.277,0.062-0.396c0.144-0.375,0.483-0.707,0.941-0.707
		c0.628,0,0.941,0.492,0.941,1.336v2.459h0.771v-2.558C341.196,227.486,340.346,227.109,339.762,227.109z"/>
	<path fill="#777777" d="M347.242,227.109c-0.412,0-0.69,0.106-0.951,0.306c-0.18,0.135-0.358,0.313-0.494,0.564h-0.018
		c-0.188-0.512-0.637-0.87-1.221-0.87c-0.727,0-1.13,0.386-1.372,0.799h-0.026l-0.037-0.7h-0.689
		c0.018,0.359,0.036,0.719,0.036,1.176v3.168h0.771v-2.62c0-0.136,0.018-0.269,0.062-0.386c0.126-0.396,0.492-0.789,0.979-0.789
		c0.602,0,0.906,0.492,0.906,1.184v2.611h0.771v-2.691c0-0.135,0.025-0.277,0.062-0.396c0.144-0.375,0.483-0.707,0.942-0.707
		c0.627,0,0.94,0.492,0.94,1.336v2.459h0.771v-2.558C348.678,227.486,347.826,227.109,347.242,227.109z"/>
	<path fill="#777777" d="M199.065,47.644c0-0.816-0.583-1.355-1.301-1.489v-0.018c0.708-0.26,1.077-0.771,1.077-1.382
		c0-0.708-0.521-1.391-1.669-1.391c-0.628,0-1.22,0.224-1.534,0.449l0.215,0.574c0.251-0.18,0.7-0.386,1.166-0.386
		c0.727,0,1.023,0.413,1.023,0.879c0,0.691-0.727,0.987-1.301,0.987h-0.44v0.592h0.44c0.763,0,1.499,0.35,1.507,1.167
		c0.009,0.494-0.314,1.13-1.319,1.13c-0.556,0-1.068-0.224-1.292-0.358l-0.215,0.601c0.287,0.188,0.861,0.395,1.516,0.395
		C198.331,49.394,199.065,48.576,199.065,47.644z"/>
	<path fill="#777777" d="M200.635,49.394h0.009c0.323,0,0.538-0.242,0.538-0.565c0-0.332-0.215-0.565-0.529-0.565
		s-0.539,0.242-0.539,0.565C200.114,49.15,200.33,49.394,200.635,49.394z"/>
	<path fill="#777777" d="M203.766,49.394h0.009c1.274,0,2.019-1.095,2.019-3.078c0-1.857-0.708-2.952-1.929-2.952
		c-1.185,0-2.037,1.068-2.037,3.033C201.845,48.325,202.625,49.394,203.766,49.394z M203.81,43.975c0.826,0,1.185,0.942,1.185,2.377
		c0,1.489-0.386,2.432-1.185,2.432h-0.009c-0.727,0-1.193-0.916-1.175-2.432C202.625,44.89,203.091,43.975,203.81,43.975z"/>
	<path fill="#777777" d="M208.24,45.221c0.242-0.413,0.628-1.382,0.834-2.135l-0.808,0.089c-0.099,0.646-0.341,1.57-0.529,2.1
		L208.24,45.221z"/>
	<path fill="#777777" d="M207.747,43.086l-0.808,0.089c-0.099,0.646-0.332,1.57-0.529,2.1l0.502-0.054
		C207.154,44.809,207.541,43.839,207.747,43.086z"/>
	<polygon fill="#777777" points="213.515,43.148 212.895,43.148 210.4,49.653 211.001,49.653 	"/>
	<polygon fill="#777777" points="218.751,44.135 216.23,49.294 217.039,49.294 219.578,43.983 219.578,43.462 215.898,43.462 
		215.898,44.117 218.751,44.117 	"/>
	<path fill="#777777" d="M222.349,49.394c1.22,0,1.947-0.987,1.947-2.063c0-1.13-0.727-1.884-1.758-1.884
		c-0.646,0-1.14,0.305-1.418,0.682h-0.018c0.134-0.969,0.78-1.866,2.027-2.064c0.225-0.036,0.431-0.054,0.592-0.045v-0.646
		c-0.144,0-0.341,0.009-0.574,0.044c-0.736,0.09-1.382,0.386-1.866,0.861c-0.583,0.574-0.987,1.48-0.987,2.629
		C220.293,48.424,221.109,49.394,222.349,49.394z M221.154,46.765c0.215-0.431,0.664-0.718,1.139-0.718
		c0.727,0,1.203,0.502,1.203,1.337s-0.458,1.4-1.131,1.4h-0.009c-0.825,0-1.274-0.718-1.283-1.678
		C221.074,46.962,221.109,46.854,221.154,46.765z"/>
	<path fill="#777777" d="M225.575,49.394h0.01c0.322,0,0.539-0.242,0.539-0.565c0-0.332-0.217-0.565-0.53-0.565
		c-0.314,0-0.539,0.242-0.539,0.565C225.056,49.15,225.271,49.394,225.575,49.394z"/>
	<path fill="#777777" d="M230.573,48.64h-2.611v-0.018l0.457-0.431c1.229-1.185,2.011-2.055,2.011-3.131
		c0-0.834-0.529-1.696-1.776-1.696c-0.673,0-1.257,0.26-1.65,0.592l0.25,0.556c0.271-0.224,0.709-0.494,1.238-0.494
		c0.87,0,1.148,0.547,1.148,1.14c0,0.879-0.682,1.633-2.171,3.051l-0.619,0.601v0.484h3.724V48.64L230.573,48.64z"/>
	<path fill="#777777" d="M231.702,49.294h0.771v-2.62c0-0.135,0.019-0.27,0.062-0.386c0.127-0.395,0.493-0.79,0.979-0.79
		c0.601,0,0.905,0.494,0.905,1.185v2.611h0.771v-2.692c0-0.134,0.025-0.278,0.062-0.395c0.144-0.377,0.483-0.709,0.941-0.709
		c0.629,0,0.941,0.494,0.941,1.337v2.458h0.771v-2.556c0-1.507-0.853-1.884-1.437-1.884c-0.412,0-0.69,0.108-0.95,0.305
		c-0.18,0.135-0.359,0.314-0.494,0.565h-0.018c-0.188-0.512-0.637-0.871-1.221-0.871c-0.728,0-1.131,0.386-1.373,0.799h-0.026
		l-0.036-0.7h-0.689c0.018,0.358,0.035,0.718,0.035,1.175v3.168H231.702z"/>
	<path fill="#777777" d="M239.183,49.294h0.771v-2.62c0-0.135,0.018-0.27,0.062-0.386c0.126-0.395,0.493-0.79,0.979-0.79
		c0.601,0,0.905,0.494,0.905,1.185v2.611h0.771v-2.692c0-0.134,0.027-0.278,0.062-0.395c0.145-0.377,0.484-0.709,0.942-0.709
		c0.628,0,0.94,0.494,0.94,1.337v2.458h0.771v-2.556c0-1.507-0.852-1.884-1.436-1.884c-0.412,0-0.69,0.108-0.951,0.305
		c-0.18,0.135-0.358,0.314-0.494,0.565h-0.018c-0.188-0.512-0.637-0.871-1.221-0.871c-0.727,0-1.13,0.386-1.372,0.799h-0.026
		l-0.037-0.7h-0.689c0.018,0.358,0.036,0.718,0.036,1.175v3.168H239.183z"/>
	<path fill="#777777" d="M400.572,180.89c-1.184,0-2.035,1.066-2.035,3.031c0.018,1.931,0.797,2.998,1.938,2.998h0.009
		c1.274,0,2.021-1.096,2.021-3.078C402.502,181.984,401.793,180.89,400.572,180.89z M400.52,186.309h-0.009
		c-0.728,0-1.193-0.915-1.177-2.431c0-1.463,0.468-2.379,1.186-2.379c0.825,0,1.186,0.942,1.186,2.379
		C401.703,185.367,401.317,186.309,400.52,186.309z"/>
	<path fill="#777777" d="M403.818,185.788c-0.314,0-0.537,0.242-0.537,0.565s0.215,0.565,0.521,0.565h0.009
		c0.323,0,0.538-0.242,0.538-0.565C404.349,186.021,404.134,185.788,403.818,185.788z"/>
	<path fill="#777777" d="M406.187,186.147l0.457-0.432c1.229-1.185,2.01-2.055,2.01-3.131c0-0.834-0.528-1.695-1.776-1.695
		c-0.672,0-1.256,0.26-1.649,0.592l0.251,0.557c0.27-0.225,0.709-0.492,1.238-0.492c0.869,0,1.148,0.547,1.148,1.14
		c0,0.879-0.684,1.633-2.173,3.05l-0.618,0.602v0.484h3.724v-0.654h-2.61L406.187,186.147L406.187,186.147z"/>
	<path fill="#777777" d="M410.904,182.8l0.504-0.053c0.241-0.414,0.627-1.383,0.834-2.137l-0.809,0.09
		C411.336,181.347,411.094,182.271,410.904,182.8z"/>
	<path fill="#777777" d="M410.105,180.701c-0.1,0.646-0.332,1.57-0.529,2.101l0.504-0.055c0.241-0.412,0.627-1.382,0.834-2.136
		L410.105,180.701z"/>
	<polygon fill="#777777" points="413.567,187.179 414.168,187.179 416.682,180.675 416.062,180.675 	"/>
	<path fill="#777777" d="M421.722,183.429c-0.358-0.215-0.8-0.313-1.257-0.313c-0.215,0-0.34,0.019-0.476,0.035l0.226-1.498h2.225
		v-0.664h-2.79l-0.377,2.8c0.215-0.035,0.476-0.062,0.815-0.062c1.158,0,1.67,0.539,1.67,1.283c0.009,0.789-0.637,1.273-1.373,1.273
		c-0.538,0-1.014-0.18-1.256-0.322l-0.197,0.602c0.287,0.179,0.816,0.357,1.453,0.357c1.266,0,2.172-0.853,2.172-1.992
		C422.557,184.191,422.18,183.679,421.722,183.429z"/>
	<path fill="#777777" d="M424.16,185.788c-0.314,0-0.539,0.242-0.539,0.565s0.215,0.565,0.521,0.565h0.009
		c0.323,0,0.538-0.242,0.538-0.565C424.688,186.021,424.475,185.788,424.16,185.788z"/>
	<path fill="#777777" d="M427.371,180.89c-1.185,0-2.037,1.066-2.037,3.031c0.019,1.931,0.799,2.998,1.938,2.998h0.009
		c1.274,0,2.021-1.096,2.021-3.078C429.301,181.984,428.592,180.89,427.371,180.89z M427.316,186.309h-0.009
		c-0.728,0-1.192-0.915-1.177-2.431c0-1.463,0.468-2.379,1.186-2.379c0.825,0,1.186,0.942,1.186,2.379
		C428.502,185.367,428.115,186.309,427.316,186.309z"/>
	<path fill="#777777" d="M432.709,183.716v-0.026c0.718-0.332,0.969-0.871,0.969-1.364c0-0.734-0.574-1.436-1.705-1.436h-0.01
		c-1.021,0-1.803,0.628-1.803,1.553c0,0.502,0.277,1.004,0.934,1.311v0.025c-0.709,0.307-1.148,0.835-1.148,1.57
		c0,0.853,0.735,1.57,1.956,1.57c1.112,0,1.981-0.674,1.981-1.695C433.884,184.523,433.436,184.003,432.709,183.716z
		 M430.914,182.388c0-0.502,0.358-0.934,1.014-0.934h0.01c0.699,0,0.979,0.484,0.979,0.951c0,0.529-0.387,0.889-0.89,1.059
		C431.353,183.285,430.904,182.972,430.914,182.388z M431.918,186.345h-0.008c-0.735,0-1.186-0.521-1.158-1.104
		c0-0.557,0.367-1.014,1.051-1.211c0.789,0.224,1.283,0.574,1.283,1.272C433.086,185.905,432.627,186.345,431.918,186.345z"/>
	<path fill="#777777" d="M439.642,182.38c-0.412,0-0.69,0.106-0.95,0.306c-0.18,0.134-0.359,0.313-0.494,0.563h-0.018
		c-0.188-0.511-0.637-0.869-1.221-0.869c-0.728,0-1.131,0.386-1.373,0.799h-0.026l-0.036-0.7h-0.689
		c0.018,0.358,0.035,0.718,0.035,1.176v3.167h0.771v-2.62c0-0.135,0.018-0.269,0.062-0.386c0.125-0.395,0.492-0.789,0.979-0.789
		c0.602,0,0.904,0.493,0.904,1.184v2.611h0.772v-2.691c0-0.135,0.026-0.277,0.062-0.396c0.145-0.376,0.484-0.708,0.942-0.708
		c0.628,0,0.941,0.493,0.941,1.337v2.458h0.771v-2.557C441.076,182.755,440.226,182.38,439.642,182.38z"/>
	<path fill="#777777" d="M447.121,182.38c-0.412,0-0.689,0.106-0.949,0.306c-0.18,0.134-0.359,0.313-0.494,0.563h-0.018
		c-0.188-0.511-0.638-0.869-1.222-0.869c-0.728,0-1.13,0.386-1.372,0.799h-0.027l-0.035-0.7h-0.69
		c0.019,0.358,0.036,0.718,0.036,1.176v3.167h0.771v-2.62c0-0.135,0.018-0.269,0.062-0.386c0.126-0.395,0.493-0.789,0.979-0.789
		c0.601,0,0.904,0.493,0.904,1.184v2.611h0.771v-2.691c0-0.135,0.027-0.277,0.062-0.396c0.145-0.376,0.484-0.708,0.942-0.708
		c0.628,0,0.94,0.493,0.94,1.337v2.458h0.771v-2.557C448.558,182.755,447.705,182.38,447.121,182.38z"/>
	<path fill="#777777" d="M404.67,58.807c1.931-0.018,2.998-0.798,2.998-1.938v-0.009c0-1.274-1.096-2.019-3.078-2.019
		c-1.856,0-2.951,0.708-2.951,1.929C401.639,57.955,402.705,58.807,404.67,58.807z M404.625,55.64c1.49,0,2.433,0.386,2.433,1.185
		v0.009c0,0.727-0.915,1.193-2.433,1.175c-1.461,0-2.377-0.466-2.377-1.184C402.248,55.999,403.189,55.64,404.625,55.64z"/>
	<path fill="#777777" d="M407.668,53.532c0-0.323-0.242-0.538-0.565-0.538c-0.332,0-0.565,0.215-0.565,0.529
		s0.244,0.539,0.565,0.539c0.323,0,0.565-0.216,0.565-0.521V53.532z"/>
	<path fill="#777777" d="M405.361,48.267v0.816h-3.625v0.853l3.725,2.602h0.512v-2.71h1.597v-0.744h-1.597v-0.817H405.361z
		 M405.361,51.738h-0.018l-1.983-1.427c-0.271-0.161-0.521-0.305-0.86-0.484V49.8c0.305,0.018,0.609,0.027,0.914,0.027h1.947V51.738
		z"/>
	<path fill="#777777" d="M403.549,46.438l-0.053-0.502c-0.414-0.242-1.383-0.628-2.137-0.834l0.09,0.808
		C402.097,46.007,403.02,46.25,403.549,46.438z"/>
	<path fill="#777777" d="M403.549,47.767l-0.053-0.502c-0.414-0.242-1.383-0.628-2.137-0.834l0.09,0.808
		C402.097,47.335,403.02,47.568,403.549,47.767z"/>
	<polygon fill="#777777" points="407.929,43.173 401.424,40.661 401.424,41.28 407.929,43.775 	"/>
	<polygon fill="#777777" points="407.568,36.671 407.568,35.908 401.736,35.908 401.736,36.582 402.418,37.855 403.02,37.703 
		402.474,36.689 402.474,36.671 	"/>
	<path fill="#777777" d="M404.67,33.864c1.931-0.018,2.998-0.799,2.998-1.938v-0.009c0-1.274-1.096-2.019-3.078-2.019
		c-1.856,0-2.951,0.708-2.951,1.929C401.639,33.012,402.705,33.864,404.67,33.864z M404.625,30.697c1.49,0,2.433,0.386,2.433,1.185
		v0.009c0,0.727-0.915,1.193-2.433,1.175c-1.461,0-2.377-0.466-2.377-1.184C402.248,31.057,403.189,30.697,404.625,30.697z"/>
	<path fill="#777777" d="M407.103,29.12c0.323,0,0.565-0.216,0.565-0.521V28.59c0-0.323-0.242-0.538-0.565-0.538
		c-0.332,0-0.565,0.215-0.565,0.529S406.779,29.12,407.103,29.12z"/>
	<polygon fill="#777777" points="407.568,25.612 407.568,24.851 401.736,24.851 401.736,25.523 402.418,26.797 403.02,26.646 
		402.474,25.63 402.474,25.612 	"/>
	<path fill="#777777" d="M402.554,21.837c0.573,0.583,1.479,0.987,2.629,0.987c1.517,0,2.485-0.816,2.485-2.055
		c0-1.22-0.987-1.947-2.063-1.947c-1.131,0-1.884,0.727-1.884,1.759c0,0.646,0.305,1.139,0.682,1.417v0.018
		c-0.969-0.135-1.865-0.781-2.062-2.028c-0.036-0.225-0.055-0.431-0.045-0.592h-0.646c0,0.144,0.01,0.341,0.045,0.574
		C401.781,20.708,402.078,21.354,402.554,21.837z M404.32,20.823c0-0.727,0.504-1.203,1.338-1.203s1.398,0.458,1.398,1.131v0.009
		c0,0.826-0.719,1.274-1.678,1.283c-0.145,0-0.252-0.036-0.342-0.081C404.607,21.748,404.32,21.299,404.32,20.823z"/>
	<path fill="#777777" d="M403.127,15.782c0,0.727,0.387,1.131,0.8,1.373v0.027l-0.7,0.036v0.691
		c0.359-0.018,0.718-0.036,1.176-0.036h3.167v-0.772h-2.62c-0.135,0-0.269-0.018-0.386-0.062c-0.396-0.125-0.789-0.494-0.789-0.978
		c0-0.601,0.493-0.906,1.185-0.906h2.61v-0.771h-2.69c-0.135,0-0.278-0.027-0.396-0.063c-0.377-0.144-0.709-0.484-0.709-0.942
		c0-0.628,0.493-0.942,1.337-0.942h2.458v-0.771h-2.557c-1.509,0-1.886,0.853-1.886,1.436c0,0.413,0.107,0.691,0.307,0.951
		c0.134,0.179,0.312,0.359,0.564,0.493v0.018C403.486,14.751,403.127,15.199,403.127,15.782z"/>
	<path fill="#777777" d="M403.127,8.302c0,0.727,0.387,1.13,0.8,1.373v0.027l-0.7,0.036v0.691c0.359-0.018,0.718-0.036,1.176-0.036
		h3.167V9.622h-2.62c-0.135,0-0.269-0.018-0.386-0.062c-0.396-0.126-0.789-0.494-0.789-0.978c0-0.601,0.493-0.906,1.185-0.906h2.61
		V6.904h-2.69c-0.135,0-0.278-0.027-0.396-0.063c-0.377-0.144-0.709-0.484-0.709-0.942c0-0.628,0.493-0.942,1.337-0.942h2.458V4.187
		h-2.557c-1.509,0-1.886,0.853-1.886,1.436c0,0.413,0.107,0.691,0.307,0.951c0.134,0.179,0.312,0.359,0.564,0.494v0.018
		C403.486,7.271,403.127,7.719,403.127,8.302z"/>
	<path fill="#777777" d="M349.678,128.416c1.93-0.018,2.997-0.798,2.997-1.938v-0.009c0-1.274-1.095-2.019-3.077-2.019
		c-1.857,0-2.952,0.708-2.952,1.929C346.645,127.563,347.713,128.416,349.678,128.416z M349.634,125.249
		c1.489,0,2.431,0.386,2.431,1.185v0.009c0,0.727-0.915,1.193-2.431,1.175c-1.464,0-2.378-0.466-2.378-1.184
		C347.256,125.607,348.197,125.249,349.634,125.249z"/>
	<path fill="#777777" d="M352.674,123.142c0-0.323-0.241-0.538-0.564-0.538c-0.332,0-0.564,0.215-0.564,0.529
		s0.242,0.539,0.564,0.539c0.323,0,0.564-0.216,0.564-0.521V123.142z"/>
	<polygon fill="#777777" points="352.576,120.164 352.576,119.401 346.744,119.401 346.744,120.074 347.426,121.349 
		348.026,121.195 347.479,120.182 347.479,120.164 	"/>
	<path fill="#777777" d="M348.557,116.047l-0.055-0.502c-0.412-0.242-1.381-0.628-2.135-0.834l0.09,0.808
		C347.103,115.617,348.026,115.859,348.557,116.047z"/>
	<path fill="#777777" d="M348.557,117.375l-0.055-0.502c-0.412-0.242-1.381-0.628-2.135-0.834l0.09,0.808
		C347.103,116.944,348.026,117.178,348.557,117.375z"/>
	<polygon fill="#777777" points="352.935,112.783 346.431,110.271 346.431,110.891 352.935,113.384 	"/>
	<path fill="#777777" d="M347.793,107.59c-0.225-0.269-0.492-0.708-0.492-1.238c0-0.87,0.547-1.148,1.14-1.148
		c0.879,0,1.634,0.682,3.05,2.171l0.603,0.619h0.483v-3.723h-0.654v2.611h-0.02l-0.431-0.458c-1.185-1.229-2.056-2.01-3.132-2.01
		c-0.834,0-1.695,0.529-1.695,1.776c0,0.673,0.26,1.256,0.592,1.651L347.793,107.59z"/>
	<path fill="#777777" d="M351.543,102.792c0,0.314,0.242,0.539,0.565,0.539s0.565-0.216,0.565-0.521v-0.009
		c0-0.323-0.242-0.538-0.565-0.538C351.776,102.262,351.543,102.479,351.543,102.792z"/>
	<path fill="#777777" d="M349.479,100.406c0-1.158,0.539-1.669,1.283-1.669c0.79-0.009,1.274,0.637,1.274,1.373
		c0,0.539-0.181,1.014-0.324,1.256l0.603,0.197c0.179-0.287,0.358-0.816,0.358-1.454c0-1.265-0.854-2.171-1.992-2.171
		c-0.735,0-1.247,0.377-1.498,0.834c-0.215,0.359-0.312,0.798-0.312,1.256c0,0.215,0.018,0.341,0.035,0.476l-1.498-0.224v-2.225
		h-0.664v2.79l2.799,0.377C349.508,101.007,349.479,100.748,349.479,100.406z"/>
	<path fill="#777777" d="M350.979,97.206v-2.709h1.598v-0.745h-1.598v-0.816h-0.609v0.816h-3.625v0.853l3.724,2.602L350.979,97.206
		L350.979,97.206z M350.369,96.406h-0.02l-1.982-1.427c-0.27-0.161-0.521-0.305-0.861-0.484v-0.027
		c0.306,0.018,0.611,0.027,0.916,0.027h1.947V96.406z"/>
	<path fill="#777777" d="M348.135,89.993c0,0.727,0.386,1.13,0.799,1.373v0.027l-0.7,0.036v0.691
		c0.359-0.018,0.718-0.036,1.177-0.036h3.166v-0.772h-2.619c-0.136,0-0.27-0.018-0.387-0.062c-0.395-0.126-0.789-0.494-0.789-0.978
		c0-0.601,0.493-0.906,1.184-0.906h2.611v-0.771h-2.69c-0.136,0-0.278-0.027-0.396-0.063c-0.377-0.144-0.709-0.484-0.709-0.942
		c0-0.628,0.493-0.942,1.338-0.942h2.457v-0.771h-2.557c-1.508,0-1.885,0.853-1.885,1.436c0,0.413,0.107,0.691,0.306,0.951
		c0.134,0.179,0.313,0.359,0.563,0.494v0.018C348.494,88.961,348.135,89.41,348.135,89.993z"/>
	<path fill="#777777" d="M348.135,82.513c0,0.727,0.386,1.131,0.799,1.373v0.027l-0.7,0.036v0.691
		c0.359-0.018,0.718-0.036,1.177-0.036h3.166v-0.772h-2.619c-0.136,0-0.27-0.018-0.387-0.062c-0.395-0.125-0.789-0.494-0.789-0.978
		c0-0.601,0.493-0.906,1.184-0.906h2.611v-0.771h-2.69c-0.136,0-0.278-0.027-0.396-0.063c-0.377-0.144-0.709-0.484-0.709-0.942
		c0-0.628,0.493-0.942,1.338-0.942h2.457v-0.771h-2.557c-1.508,0-1.885,0.853-1.885,1.436c0,0.413,0.107,0.691,0.306,0.951
		c0.134,0.179,0.313,0.359,0.563,0.493v0.018C348.494,81.481,348.135,81.93,348.135,82.513z"/>
	<path fill="#777777" d="M37.872,146.871l3.724,2.602h0.511v-2.709h1.597v-0.745h-1.597v-0.816h-0.61v0.816h-3.625V146.871z
		 M38.633,146.735c0.305,0.019,0.61,0.026,0.915,0.026h1.947v1.91h-0.018l-1.983-1.426c-0.269-0.162-0.521-0.306-0.861-0.484
		V146.735z"/>
	<path fill="#777777" d="M42.726,142.493l0.978-0.637v-0.897l-2.243,1.518l-2.1-1.48v0.861l0.924,0.602
		c0.233,0.152,0.458,0.297,0.718,0.439v0.027c-0.251,0.143-0.466,0.276-0.708,0.438l-0.934,0.619v0.879l2.126-1.472l2.216,1.544
		v-0.871l-0.978-0.628c-0.26-0.161-0.494-0.312-0.753-0.457v-0.02C42.231,142.808,42.475,142.664,42.726,142.493z"/>
	<path fill="#777777" d="M43.802,137.955c0-0.322-0.242-0.537-0.565-0.537c-0.332,0-0.565,0.215-0.565,0.528
		s0.242,0.538,0.565,0.538c0.323,0,0.565-0.215,0.565-0.521V137.955z"/>
	<polygon fill="#777777" points="43.704,134.978 43.704,134.215 37.872,134.215 37.872,134.887 38.554,136.161 39.154,136.008 
		38.606,134.995 38.606,134.978 	"/>
	<path fill="#777777" d="M41.811,128.492c-0.736,0-1.247,0.376-1.499,0.834c-0.215,0.359-0.314,0.798-0.314,1.256
		c0,0.215,0.018,0.342,0.036,0.477l-1.499-0.225v-2.225h-0.664v2.79l2.799,0.377c-0.036-0.215-0.062-0.476-0.062-0.815
		c0-1.158,0.538-1.669,1.283-1.669c0.79-0.009,1.274,0.637,1.274,1.373c0,0.538-0.18,1.014-0.323,1.256l0.601,0.197
		c0.18-0.287,0.359-0.816,0.359-1.453C43.802,129.398,42.95,128.492,41.811,128.492z"/>
	<path fill="#777777" d="M37.583,125.73c0.646,0.099,1.57,0.341,2.1,0.529l-0.054-0.502c-0.413-0.242-1.382-0.628-2.136-0.834
		L37.583,125.73z"/>
	<path fill="#777777" d="M37.583,127.059c0.646,0.099,1.57,0.332,2.1,0.529l-0.054-0.502c-0.413-0.242-1.382-0.628-2.136-0.834
		L37.583,127.059z"/>
	<polygon fill="#777777" points="37.558,121.103 44.062,123.596 44.062,122.995 37.558,120.483 	"/>
	<path fill="#777777" d="M38.222,118.019l0.574-0.215c-0.18-0.251-0.386-0.7-0.386-1.167c0-0.727,0.413-1.022,0.879-1.022
		c0.69,0,0.987,0.727,0.987,1.301v0.439h0.592v-0.439c0-0.763,0.35-1.498,1.166-1.507c0.494-0.009,1.131,0.314,1.131,1.319
		c0,0.557-0.225,1.068-0.359,1.292l0.602,0.215c0.188-0.287,0.395-0.861,0.395-1.516c0-1.391-0.816-2.126-1.75-2.126
		c-0.816,0-1.355,0.583-1.489,1.301h-0.018c-0.26-0.708-0.771-1.077-1.382-1.077c-0.708,0-1.391,0.521-1.391,1.669
		C37.772,117.111,37.998,117.705,38.222,118.019z"/>
	<path fill="#777777" d="M42.671,113.004c0,0.314,0.242,0.538,0.565,0.538c0.323,0,0.565-0.215,0.565-0.52v-0.009
		c0-0.323-0.242-0.538-0.565-0.538C42.904,112.476,42.671,112.69,42.671,113.004z"/>
	<path fill="#777777" d="M37.772,109.802c0,1.022,0.628,1.803,1.552,1.803c0.502,0,1.005-0.278,1.31-0.933h0.027
		c0.305,0.709,0.834,1.148,1.57,1.148c0.853,0,1.57-0.736,1.57-1.956c0-1.112-0.673-1.982-1.696-1.982
		c-0.7,0-1.22,0.448-1.507,1.175h-0.027c-0.332-0.718-0.87-0.969-1.364-0.969c-0.736,0-1.436,0.574-1.436,1.705L37.772,109.802
		L37.772,109.802z M42.187,108.68c0.601,0,1.041,0.458,1.041,1.167v0.009c0,0.736-0.521,1.185-1.104,1.157
		c-0.556,0-1.014-0.368-1.211-1.05C41.138,109.174,41.486,108.68,42.187,108.68z M38.337,109.83c0-0.7,0.484-0.978,0.951-0.978
		c0.529,0,0.888,0.386,1.059,0.888c-0.18,0.673-0.494,1.122-1.077,1.113c-0.502,0-0.933-0.359-0.933-1.014V109.83z"/>
	<polygon fill="#777777" points="37.872,105.345 38.554,106.619 39.154,106.466 38.606,105.452 38.606,105.436 43.704,105.436 
		43.704,104.672 37.872,104.672 	"/>
	<path fill="#777777" d="M39.262,100.206c0,0.727,0.386,1.131,0.799,1.373v0.027l-0.7,0.036v0.691
		c0.359-0.018,0.718-0.036,1.176-0.036h3.167v-0.772h-2.62c-0.134,0-0.269-0.018-0.386-0.062c-0.395-0.125-0.79-0.494-0.79-0.978
		c0-0.601,0.494-0.906,1.185-0.906h2.611v-0.771h-2.691c-0.135,0-0.278-0.027-0.395-0.063c-0.377-0.144-0.709-0.484-0.709-0.942
		c0-0.628,0.494-0.942,1.337-0.942h2.458v-0.773h-2.557c-1.507,0-1.884,0.853-1.884,1.436c0,0.413,0.108,0.691,0.305,0.951
		c0.135,0.179,0.314,0.359,0.565,0.493v0.018C39.621,99.173,39.262,99.623,39.262,100.206z"/>
	<path fill="#777777" d="M39.262,92.726c0,0.727,0.386,1.13,0.799,1.373v0.027l-0.7,0.036v0.691
		c0.359-0.018,0.718-0.036,1.176-0.036h3.167v-0.772h-2.62c-0.134,0-0.269-0.018-0.386-0.062c-0.395-0.126-0.79-0.494-0.79-0.978
		c0-0.601,0.494-0.906,1.185-0.906h2.611v-0.771h-2.691c-0.135,0-0.278-0.027-0.395-0.062c-0.377-0.145-0.709-0.484-0.709-0.942
		c0-0.628,0.494-0.942,1.337-0.942h2.458v-0.773h-2.557c-1.507,0-1.884,0.853-1.884,1.436c0,0.413,0.108,0.691,0.305,0.951
		c0.135,0.179,0.314,0.359,0.565,0.494v0.018C39.621,91.693,39.262,92.143,39.262,92.726z"/>
	<polygon fill="#777777" points="24.048,172.653 24.048,171.891 18.216,171.891 18.216,172.563 18.898,173.838 19.5,173.685 
		18.953,172.672 18.953,172.653 	"/>
	<path fill="#777777" d="M24.146,169.174c0-0.323-0.242-0.539-0.565-0.539c-0.332,0-0.565,0.216-0.565,0.529
		c0,0.314,0.242,0.538,0.565,0.538s0.565-0.215,0.565-0.521V169.174z"/>
	<path fill="#777777" d="M21.841,163.908v0.816h-3.625v0.853l3.724,2.603h0.511v-2.709h1.597v-0.745h-1.597v-0.816L21.841,163.908
		L21.841,163.908z M21.841,167.379h-0.018l-1.983-1.426c-0.269-0.162-0.521-0.306-0.861-0.484v-0.026
		c0.305,0.019,0.61,0.026,0.915,0.026h1.947V167.379z"/>
	<path fill="#777777" d="M17.93,162.879c0.646,0.099,1.57,0.332,2.1,0.528l-0.054-0.503c-0.413-0.242-1.382-0.628-2.135-0.834
		L17.93,162.879z"/>
	<path fill="#777777" d="M17.93,161.549c0.646,0.1,1.57,0.342,2.1,0.529l-0.054-0.503c-0.413-0.241-1.382-0.628-2.135-0.834
		L17.93,161.549z"/>
	<polygon fill="#777777" points="17.902,156.922 24.408,159.416 24.408,158.815 17.902,156.303 	"/>
	<path fill="#777777" d="M18.566,153.838l0.574-0.215c-0.18-0.252-0.386-0.699-0.386-1.166c0-0.728,0.413-1.023,0.879-1.023
		c0.691,0,0.987,0.728,0.987,1.302v0.438h0.592v-0.438c0-0.763,0.35-1.499,1.167-1.508c0.494-0.009,1.13,0.313,1.13,1.319
		c0,0.556-0.224,1.066-0.358,1.291l0.601,0.215c0.188-0.286,0.395-0.86,0.395-1.517c0-1.391-0.816-2.126-1.75-2.126
		c-0.816,0-1.355,0.583-1.489,1.301h-0.018c-0.26-0.709-0.771-1.076-1.382-1.076c-0.708,0-1.391,0.521-1.391,1.67
		C18.118,152.932,18.341,153.523,18.566,153.838z"/>
	<path fill="#777777" d="M23.789,149.452c0.18-0.286,0.359-0.815,0.359-1.452c0-1.267-0.852-2.173-1.992-2.173
		c-0.736,0-1.247,0.378-1.499,0.835c-0.215,0.358-0.314,0.799-0.314,1.256c0,0.217,0.018,0.342,0.036,0.477l-1.499-0.225v-2.226
		h-0.664v2.79l2.799,0.377c-0.036-0.216-0.062-0.477-0.062-0.816c0-1.156,0.538-1.668,1.283-1.668
		c0.79-0.01,1.274,0.637,1.274,1.373c0,0.537-0.179,1.014-0.323,1.256L23.789,149.452z"/>
	<path fill="#777777" d="M24.146,144.231c0-0.323-0.242-0.538-0.565-0.538c-0.332,0-0.565,0.215-0.565,0.529
		c0,0.313,0.242,0.537,0.565,0.537s0.565-0.215,0.565-0.521V144.231z"/>
	<path fill="#777777" d="M18.817,140.23c-0.036-0.225-0.054-0.432-0.045-0.592h-0.646c0,0.144,0.009,0.341,0.044,0.574
		c0.09,0.734,0.386,1.381,0.861,1.865c0.574,0.583,1.48,0.987,2.629,0.987c1.517,0,2.485-0.815,2.485-2.056
		c0-1.221-0.987-1.946-2.063-1.946c-1.13,0-1.884,0.728-1.884,1.759c0,0.646,0.305,1.141,0.682,1.417v0.019
		C19.913,142.125,19.016,141.478,18.817,140.23z M20.801,141.065c0-0.728,0.502-1.202,1.337-1.202s1.4,0.457,1.4,1.13v0.011
		c0,0.824-0.718,1.272-1.678,1.281c-0.144,0-0.251-0.035-0.341-0.08C21.087,141.989,20.801,141.541,20.801,141.065z"/>
	<path fill="#777777" d="M19.606,136.025c0,0.727,0.386,1.13,0.799,1.372v0.026l-0.7,0.037v0.689
		c0.358-0.018,0.718-0.036,1.175-0.036h3.167v-0.771h-2.62c-0.135,0-0.27-0.019-0.386-0.062c-0.395-0.126-0.79-0.492-0.79-0.979
		c0-0.602,0.494-0.905,1.185-0.905h2.611v-0.772h-2.692c-0.134,0-0.278-0.025-0.395-0.062c-0.377-0.144-0.709-0.483-0.709-0.942
		c0-0.628,0.494-0.941,1.337-0.941h2.458v-0.771H21.49c-1.507,0-1.884,0.854-1.884,1.436c0,0.414,0.108,0.69,0.305,0.951
		c0.135,0.181,0.314,0.359,0.565,0.494v0.019C19.965,134.993,19.606,135.441,19.606,136.025z"/>
	<path fill="#777777" d="M19.606,128.544c0,0.727,0.386,1.131,0.799,1.373v0.027l-0.7,0.036v0.691
		c0.358-0.019,0.718-0.037,1.175-0.037h3.167v-0.771h-2.62c-0.135,0-0.27-0.018-0.386-0.062c-0.395-0.125-0.79-0.494-0.79-0.978
		c0-0.601,0.494-0.906,1.185-0.906h2.611v-0.771h-2.692c-0.134,0-0.278-0.027-0.395-0.063c-0.377-0.144-0.709-0.484-0.709-0.942
		c0-0.628,0.494-0.942,1.337-0.942h2.458v-0.771H21.49c-1.507,0-1.884,0.853-1.884,1.436c0,0.413,0.108,0.691,0.305,0.951
		c0.135,0.179,0.314,0.359,0.565,0.493v0.018C19.965,127.512,19.606,127.961,19.606,128.544z"/>
</g>
</svg>
