<?xml version="1.0" encoding="utf-8"?>
<!-- Generator: Adobe Illustrator 16.0.4, SVG Export Plug-In . SVG Version: 6.00 Build 0)  -->
<!DOCTYPE svg PUBLIC "-//W3C//DTD SVG 1.1//EN" "http://www.w3.org/Graphics/SVG/1.1/DTD/svg11.dtd">
<svg version="1.1" id="Layer_1" xmlns="http://www.w3.org/2000/svg" xmlns:xlink="http://www.w3.org/1999/xlink" x="0px" y="0px"
	 width="1280px" height="720px" viewBox="0 0 1280 720" enable-background="new 0 0 1280 720" xml:space="preserve">
<g>
	<defs>
		<rect id="SVGID_1_" width="1280" height="720"/>
	</defs>
	<clipPath id="SVGID_2_">
		<use xlink:href="#SVGID_1_"  overflow="visible"/>
	</clipPath>
	<g opacity="0.2" clip-path="url(#SVGID_2_)">
		<path fill-rule="evenodd" clip-rule="evenodd" fill="#333333" d="M1182.203,554.758c-0.97-15.876-1.1-31.806-1.598-47.715
			c-1.474-7.674-2.947-15.348-4.424-23.022c-0.009-0.765-0.015-1.529-0.021-2.294c-5.765-36.841-17.415-71.807-35.802-104.157
			c-8.366-14.721-18.676-28.572-29.654-41.501c-10.194-11.993-23.945-21.276-24.761-39.066c-6.688-2.613-13.375-5.23-20.063-7.848
			c-7.709,4.987-14.369,3.413-21.639-1.873c-9.153-6.654-19.21-12.066-28.876-18.014c-1.106-1.02-2.672-1.83-3.244-3.088
			c-9.192-20.23-11.538-21.403-34.735-18.531c-2.743,0.339-5.971-0.816-8.565-2.105c-19.604-9.738-39.104-19.682-58.635-29.561
			c-14.57-4.676-29.898-7.694-37.658-23.689c-1.473-3.03-6.85-3.781-10.423-6.07h-2.308c-13.107,6.867-22.834,3.938-31.131-8.614
			c-4.426-6.692-11.753-11.454-17.212-17.56c-2.311-2.584-3.185-6.476-6.411-13.42c9.109,2.396,14.822,3.888,20.536,5.394
			c0.025-0.771,0.051-1.547,0.078-2.319c-0.921-2.462-1.245-6.51-2.864-7.126c-8.309-3.144-12.462-9.798-15.863-17.12
			c-2.226-4.791-5.653-10.205-4.946-14.785c0.532-3.466,6.863-8.546,10.406-8.386c4.107,0.188,8.154,5.134,11.885,8.401
			c1.547,1.353,2.212,3.707,4.613,7.98c5.261-9.665,2.938-23.39,17.859-23.334c-3.938-10.982-0.469-17.248,9.888-18.915
			c8.867-1.429,13.051,3.367,15.202,19.539c3.791-3.466,6.306-5.766,8.817-8.062c3.739-0.665,7.478-1.33,11.215-1.995
			c16.309-1.23,28.996,8.992,43.419,13.728l4.764,0.087c7.818-6.85,3.723-11.413-2.691-16.163
			c-25.983-19.244-54.351-32.772-86.7-37.06c-13.745,0.723-27.491,1.443-41.239,2.166c-44.4,10.324-80.071,31.727-97.173,76.646
			c-1.333,3.502-2.438,7.09-3.649,10.638c-0.046,9.175-0.093,18.349-0.139,27.523c6.284,38.605,31.396,61.832,64.188,78.923
			c6.73,3.511,13.312,7.438,19.51,11.812c38.145,26.914,79.239,50.141,110.521,85.773c26.801,30.528,54.02,60.805,78.976,92.808
			c16.82,21.57,23.258,48.533,26.796,75.502c2.254,17.173-7.979,28.277-27.281,35.146h-34.348c-14.886-2.29-29.854-5.65-44.64-9.045
			c-40.364-9.27-80.659-18.905-120.958-28.463c-3.652-0.868-7.139-2.486-10.698-3.74c-0.769-0.035-1.538-0.084-2.307-0.118
			c-22.148-5.005-44.305-9.984-66.444-15.024c-55.076-12.547-110.148-25.12-165.206-37.723c-2.209-0.506-4.32-1.437-6.478-2.17
			c-19.702-3.676-39.376-7.524-59.125-10.934c-7.102-1.227-14.374-1.651-21.587-1.986c-8.171-0.381-16.362-0.251-24.544-0.342
			c-27.476-0.209-54.949-0.415-82.424-0.623c-3.09,0.03-6.183,0.059-9.273,0.088c-9.826,1.938-19.654,3.869-29.479,5.805
			c-1.617,0.329-3.232,0.655-4.848,0.982c-8.399,0.914-16.796,1.831-25.197,2.748c-1.522,0.607-3.047,1.221-4.572,1.829
			c-9.159,0.913-18.321,1.825-27.484,2.734c-9.832,1.773-19.669,3.544-29.503,5.315c-15.141,5.232-30.28,10.463-45.421,15.693
			c-3.222,1.45-6.444,2.893-9.666,4.343c-19.812,13.009-39.819,25.74-59.354,39.159c-8.933,6.136-16.934,13.627-25.358,20.505
			c-1.516,1.508-3.028,3.02-4.542,4.526C19.425,596.824-17.737,662.534-37.96,737.178c-0.886,3.266-1.28,6.668-1.901,10.006
			c-4.076,23.555-8.788,47.02-12.108,70.681c-8.753,62.308-10.973,124.77-2.368,187.338c0.565,4.121,0.514,8.33,0.749,12.501
			c1.098,5.287,2.197,10.576,3.293,15.864c2.803-1.909,5.634-3.774,8.494-5.595c-1.428-6.86-2.883-13.721-4.3-20.586
			c-2.815-13.648-2.279-27.99-3.289-42.013l-0.041-83.613c0.436-47.3,7.782-93.569,20.792-138.991
			c3.688-24.477,6.637-30.948,16.091-34.74c-4.584,16.352-9.112,32.512-13.641,48.672l0.067-0.232
			c-3.842,26.027-7.684,52.053-11.527,78.077l0.084-0.224c-0.791,34.812-1.699,69.623-2.185,104.442
			c-0.044,3.131,2.627,6.302,4.039,9.454c0.747-16.27,1.033-32.577,2.339-48.804c2.399-29.787,5.264-59.538,8.211-89.279
			c1.261-12.727,3.22-25.382,4.863-38.073c0.776-11.12,4.748-20.467,14.564-26.854c0.44,1.018,1.136,1.867,0.935,2.278
			c-4.966,10.156-7.209,19.817-6.729,32.111c0.767,19.699-4.904,39.647-7.851,59.488l0.072-0.173
			c-0.818,22.447-1.794,44.892-2.335,67.346c-0.114,4.746,1.357,9.529,2.098,14.297c2.223-12.497,5.201-24.915,6.48-37.505
			c1.639-16.159,1.914-32.456,2.777-48.695c0.034-16.331-0.8-33.068,18.229-40.581c1.174,0.601,2.348,1.201,3.52,1.801
			c-5.843,11.262-11.688,22.524-17.771,34.246c2.534-0.701,5.177-1.436,8.692-2.41c-1.422,16.803-2.965,32.918-4.083,49.065
			c-0.569,8.27-0.052,16.616-0.678,24.88c-0.271,3.564-2.189,7.007-3.357,10.505l-2.16,20.427c1.727,0.387,3.455,0.773,5.184,1.161
			c1.935-6.613,4.884-13.113,5.615-19.855c2.198-20.275,3.531-40.645,5.202-60.975c-0.383-6.614-0.19-12.882,9.716-14.896
			c-0.953,18.053-2.102,35.256-2.554,52.479c-0.085,3.287,2.592,6.646,3.994,9.973c1.567-15.299,2.965-30.619,4.754-45.893
			c1.353-11.561,0.573-24.286,15.405-31.855c-0.569,7.278-1.014,12.968-1.457,18.654c-0.898,18.828-1.958,37.648-2.558,56.486
			c-0.125,3.859,1.48,7.771,2.286,11.66c1.484-6.951,3.403-13.843,4.374-20.863c3.166-22.874,5.733-45.835,9.15-68.668
			c0.677-4.529,4.248-8.584,6.191-12.987c1.094-2.477,2.413-5.276,2.218-7.824c-1.21-15.966,5.843-25.378,20.993-29.192
			c3.817-0.962,6.971-5.011,10.162-7.932c3.817-3.495,7.346-7.303,11-10.975c0.034-0.998,0.067-1.993,0.098-2.99
			c-5.559,0.456-11.243,0.36-16.641,1.559c-3.739,0.832-7.084,3.446-11.038,5.487c-1.948-15.015,2.772-19.237,16.248-19.192
			c3.837,0.013,8.421-5.08,11.359-8.846c3.415-4.375,4.939-8.605,12.35-5.264c7.565,3.412,11.751-2.414,14.237-19.006
			c-14.521,4.963-28.608,9.775-44.371,15.162c0.919-10.625,7.276-14.565,15.065-17.659c11.84-4.705,23.743-9.327,35.214-14.831
			c3.759-1.803,6.257-6.229,9.33-9.458c-0.89-1.183-1.782-2.366-2.674-3.548c-4.025,1.39-8.05,2.778-12.078,4.169
			c-11.514,4.082-23.025,8.162-34.738,12.312c0.886-12.653,5.062-15.375,25.846-17.389c7.788-3.541,15.601-7.031,23.358-10.645
			c4.41-2.055,8.726-4.312,12.775-7.957c-18.168-8.117-33.725,6.652-51.487,5.475c16.084-14.216,37.893-16.02,56.387-25.486
			c-15.385-3.485-29.824-2.393-43.621,5.804c-0.637-1.254-1.274-2.511-1.914-3.766c2.014-2.233,3.669-5.859,6.1-6.485
			c20.454-5.271,40.588-12.877,62.542-8.146c3.057,0.659,7.236-3.889,10.895-6.026c-0.378-1.102-0.756-2.203-1.136-3.303
			c-13.609-1.064-27.221-2.127-40.832-3.189c-0.049-1.346-0.096-2.691-0.143-4.038c10.311-1.603,20.624-3.206,32.075-4.986
			c-1.612-3.734-2.697-6.247-3.994-9.253c6.387-2.379,12.634-4.707,18.882-7.034c5.497-7.771,10.971-14.798,21.319-5.774
			c1.952,1.701,5.814,1.21,8.797,1.729c3.84-0.943,7.677-1.888,11.514-2.83c0.485-1.74,1.541-4.942,1.375-5.01
			c-5.762-2.241-11.639-4.188-19.374-6.811c2.493-2.534,4.486-4.558,6.476-6.581c2.223-2.25,4.445-4.5,6.666-6.749
			c9.982-5.371,19.967-10.742,29.949-16.113c1.946-0.974,3.886-1.949,8.265-4.14c-8.862-1.653-15.371-2.867-21.878-4.082
			c0.116-1.173,0.232-2.345,0.351-3.519c4.342,0.477,8.714,0.793,13.025,1.469c7.611,1.188,15.192,2.595,22.786,3.906
			c-5.872-3.114-11.742-6.23-17.611-9.349c0.462-1.087,0.925-2.174,1.39-3.261c15.143,6.203,30.291,12.406,45.436,18.609
			c0.271-0.523,0.539-1.046,0.81-1.57c-6.69-4.512-13.383-9.026-20.074-13.542c0.452-0.923,0.901-1.847,1.353-2.772
			c10.499,4.438,20.999,8.875,31.5,13.313c0.357-0.618,0.72-1.238,1.082-1.858c-10.747-6.674-21.494-13.346-32.236-20.02
			c0.559-1.176,1.12-2.35,1.679-3.523c17.195,8.068,34.392,16.133,51.585,24.199c0.457-0.838,0.917-1.676,1.373-2.518
			c-5.044-3.262-10.094-6.517-15.141-9.776c-7.393-4.695-14.787-9.392-22.183-14.091l2.153-4.018
			c8.163,4.595,16.319,9.19,24.481,13.783l23.647,13.216c0.572-0.637,1.145-1.274,1.717-1.909
			c-8.784-7.593-17.569-15.184-26.353-22.773c1.103-1.274,2.205-2.55,3.305-3.824c7.464,5.456,14.926,10.915,22.391,16.373
			c1.035-1.086,2.073-2.173,3.11-3.258c-6.266-3.634-12.529-7.268-18.792-10.901l4.729-5.943
			c10.064,5.201,20.127,10.402,30.192,15.604c0.727-0.977,1.451-1.945,2.176-2.921c-3.343-3.522-6.687-7.044-10.029-10.567
			c0.521-1.051,1.04-2.107,1.561-3.161c3.756,2.092,7.538,4.135,11.261,6.282c4.403,2.538,8.759,5.165,13.137,7.754
			c0.586-0.745,1.174-1.493,1.762-2.24c-3.413-3.131-6.828-6.261-10.24-9.392c0.631-0.984,1.259-1.963,1.89-2.946
			c8.493,5.02,16.48,11.552,25.626,14.637c9.177,3.094,19.509,2.752,29.332,3.913c-0.042,1.265-0.087,2.527-0.132,3.79
			c-2.905,0.559-5.808,1.119-9.132,1.761c0.508,1.118,0.723,2.642,1.373,2.856c6.402,2.131,12.752,4.84,19.354,5.864
			c16.849,2.618,33.817,4.458,53.634,6.981c-4.893-3.632-7.726-5.733-10.562-7.836c-15.081-2.062-30.655-2.166-44.689-8.353
			c0.336-1.504,0.671-3.011,1.011-4.518c17.603,3.556,35.215,7.11,52.817,10.668c54.736,10.096,109.472,20.189,165.321,30.492
			c-4.047-3.849-7.638-7.262-11.227-10.674l1.603-3.381c3.989,1.892,9.097,2.806,11.763,5.854
			c8.273,9.463,16.518,18.479,29.647,20.848c-2.622-5.848-5.245-11.693-8.33-18.576c11.179,0.975,13.709,9.274,17.366,16.385
			c3.853,2.239,7.708,4.483,11.56,6.723c0.532-0.517,1.062-1.036,1.595-1.556c-6.991-10.089-13.982-20.179-20.972-30.269
			c1.239-1.09,2.481-2.182,3.722-3.271l37.46,41.236c0.879-0.794,1.757-1.584,2.634-2.376l-19.863-28.82
			c0.99-0.824,1.982-1.651,2.977-2.479c7.7,8.618,15.402,17.238,23.106,25.857c0.513-0.266,1.028-0.53,1.54-0.799
			c-2.281-5.92-4.561-11.838-6.841-17.76c0.736-0.546,1.473-1.096,2.207-1.641c1.745,1.767,3.717,3.363,5.171,5.346
			c1.738,2.377,2.434,6.004,4.651,7.442c3.716,2.413,8.282,3.521,12.486,5.181c-1.909-3.43-3.849-6.847-5.717-10.301
			c-0.515-0.96-0.817-2.033-1.911-4.832c15.874,2.334,16.693,26.785,37.115,21.747c-6.219-5.472-11.318-9.957-16.417-14.442
			c1.155-1.312,2.313-2.623,3.471-3.934c9.099,8.77,18.199,17.54,27.297,26.311c0.243-0.865,0.485-1.733,0.723-2.599
			c4.666,0.691,9.346,1.265,13.977,2.111c3.317,0.607,6.575,1.585,9.856,2.399c1.747-2.364,3.035-5.675,5.376-6.809
			c2.129-1.034,5.407,0.299,8.18,0.59c-0.577,1.903-1.152,3.804-1.726,5.706c5.755,5.296,11.197,11.005,17.383,15.742
			c4.321,3.311,9.407,6.635,14.595,7.623c18.257,3.481,36.705,5.958,55.079,8.813c5.343-3.614,3.855-5.86-1.535-6.993
			c-5.545-1.167-11.203-1.825-16.703-3.159c-3.631-0.885-7.064-2.572-10.586-3.896c0.346-1.305,0.691-2.607,1.035-3.91
			c10.803,2.155,21.604,4.313,32.404,6.473c19.66-2.579,39.32-5.155,58.981-7.732c0.071-1.713,0.146-3.424,0.218-5.135
			c-4.316-0.523-8.77-1.978-12.928-1.377c-9.375,1.353-18.561,3.988-27.922,5.521c-2.988,0.489-6.271-0.84-10.268-1.473
			c20.397-6.301,39.079-12.067,57.756-17.834c-0.386-1.386-0.773-2.771-1.164-4.156c-10.814,3.17-21.631,6.342-32.447,9.515
			c-0.45-1.234-0.898-2.466-1.351-3.698c19.164-8.223,40.521-13.711,49.458-38.625c-13.29,9.899-24.715,18.408-36.14,26.918
			c-0.845-0.832-1.69-1.663-2.53-2.492c21.75-14.323,36.02-31.979,27.554-59.735c-3.063,11.333-4.546,23.438-9.625,33.78
			c-5.165,10.522-14.065,18.98-26.656,19.557c-0.681-1.027-1.36-2.058-2.042-3.085c1.833-1.405,3.528-3.068,5.527-4.174
			c17.912-9.893,24.787-23.199,22.008-43.541c-3.717-27.219-11.979-53.171-27.801-75.562
			c-15.138-21.419-31.527-42.223-49.453-61.342c-27.562-29.401-53.434-60.84-88.257-82.641c-3.052-1.911-4.683-6.1-5.169-10.796
			c2.13,1.868,4.265,3.736,6.396,5.604l5.313-5.273l-11.82-18.248c0.726-0.58,1.45-1.159,2.174-1.738
			c7.036,4.371,14.07,8.743,21.109,13.115c1.607-0.796,3.216-1.592,4.825-2.391c-6.516-7.914-13.028-15.828-19.541-23.739
			c1.12-1.145,2.244-2.285,3.368-3.426c8.027,5.862,16.053,11.729,24.079,17.594c0.773-0.935,1.551-1.871,2.324-2.806
			c-5.948-5.91-11.482-12.328-17.923-17.643c-24.206-19.981-49.579-38.139-79.487-48.983c-3.661-1.331-6.664-4.477-9.971-6.782
			c0.682-1.12,1.366-2.239,2.048-3.356c4.648,1.744,9.3,3.493,14.852,5.578c-8.971-14.339-17.262-27.601-26.071-41.683
			c-1.315,5.998-2.573,11.726-3.832,17.453c-0.963-0.114-1.926-0.23-2.886-0.346c0-10.398-0.048-20.797,0.018-31.197
			c0.035-6.106,0.023-12.229,0.518-18.307c0.166-2.064,1.938-3.962,2.775-6.018c1.562-3.832,2.38-8.125,4.629-11.468
			c2.172-3.226,5.342-6.762,8.796-8.455c12.963-6.356,26.22-10.857,42.69-20.017h-27.258c18.435-9.16,49.209-7.514,70.277,3.832
			c-5.645,1.096-9.38,2.039-13.12,2.753c-22.017,4.192-43.03,10.874-59.562,27.013c-15.226,14.863-16.924,35.181-5.823,53.199
			c18.08,29.347,44.763,46.864,76.451,58.578c85.055,31.443,163.289,75.43,235.29,130.447c7.476,5.715,14.454,12.768,19.798,20.486
			c34.556,49.916,47.597,107.639,35.414,164.689c-19.162,89.734-54.493,114.173-129.517,129.645
			c-40.747,8.4-81.148,2.714-121.699-2.68c-66.484-8.842-130.696-25.628-193.688-48.758
			c-54.733-20.102-110.741-36.725-166.093-55.164c-49.034-16.332-99.064-14.604-149.472-9.589
			c-42.804,4.259-83.56,16.681-124.255,29.564c-8.471,6.397-16.943,12.795-25.414,19.195c-13.506,16.621-28.33,32.353-40.205,50.06
			c-17.487,26.08-35.468,52.285-42.744,83.694c-2.476,10.687-4.303,21.523-6.424,32.292c-3.811,22.23-7.619,44.463-11.427,66.695
			l0.141-0.197c-0.901,40.953-2.08,81.902-2.547,122.859c-0.152,13.233,1.561,26.487,2.419,39.731
			c-0.019,0.443-0.039,0.89-0.058,1.331c6.634,0.315,13.256,0.823,19.856,1.546c-0.644-11.479-1.307-22.957-1.898-34.438
			c-0.056-1.053,0.922-2.137,0.944-3.217c0.124-6.059,1.237-12.388-0.101-18.131c-3.191-13.7-0.702-19.68,10.537-21.228
			c3.887-5.255,7.773-10.509,11.664-15.766c-9.929,0.084-15.968,13.937-25.577,4.979c-3.669-3.422-2.989-11.508-4.293-17.467
			c0.273-18.408-0.109-36.854,1.073-55.202c0.644-10.035,3.932-19.897,6.029-29.838c0.988,0.124,1.972,0.246,2.958,0.37
			c-1.102,11.888-2.207,23.775-3.307,35.662c0.979,0.907,1.959,1.812,2.938,2.715c2.853-9.366,5.709-18.736,8.564-28.105
			c1.051,0.251,2.104,0.501,3.153,0.752c-0.876,10.565-1.753,21.133-2.627,31.698c0.512-0.042,1.023-0.058,1.536-0.048
			c6.146-15.237,12.294-30.475,18.444-45.711c-6.539-1.642-13.668-2.196-19.395-5.32c-3.549-1.937-7.433-8.082-6.966-11.809
			c4.817-38.29,12.433-75.645,34.752-108.625c9.747-14.403,15.467-31.548,25.306-45.877c14.343-20.89,33.274-36.319,60.277-37.998
			c9.49-2.366,18.692-6.279,28.202,1.096c13.922,10.799,14.247,24.722,0.071,34.859c-16.981,12.146-35.733,8.168-43.926-10.211
			c-16.773,10.881-28.327,25.546-36.248,43.271c0.716,0.673,1.436,1.35,2.151,2.021c2.268-2.816,4.584-5.597,6.793-8.459
			c6.033-7.812,11.843-15.808,18.182-23.363c1.198-1.43,4.409-1.172,6.69-1.692c-0.275,2.334,0.204,5.183-0.973,6.909
			c-3.191,4.698-7.017,8.98-10.715,13.326c-8.511,9.994-13.847,20.278-13.804,34.641c0.072,23.724-16.657,36.409-35.842,30.105
			c-1.771,1.722-3.541,3.443-5.313,5.166c-2.397,8.727-4.799,17.455-7.198,26.182l2.878,0.993
			c3.466-7.408,6.933-14.819,10.398-22.229l4.883,1.663c-3.744,16.405-13.453,32.335-6.212,49.607
			c6.131-14.617,11.221-29.79,18.649-43.713c10.644-19.945,20.389-40.845,38.703-55.505c5.282-4.229,11.12-7.762,18.466-9.83
			c-25.324,22.322-42.466,49.72-55.42,80.008c4.134,1.305,4.192,1.369,11.972-5.975c3.737-3.525,7.136-6.872,9.083,1.281
			c2.99,1.589,5.98,3.173,8.97,4.759c0.805-0.003,1.609-0.005,2.413-0.009c4.022-2.585,8.043-5.17,14.515-9.327
			c-5.118-0.391-7.516-0.25-9.734-0.809c-5.157-1.303-12.044-1.51-14.727-4.92c-2.006-2.547,0.085-10.438,2.835-14.065
			c3.242-4.275,9.164-6.519,13.921-9.64c2.295-0.055,4.589-0.108,6.881-0.159c4.426-2.675,8.974-5.163,13.247-8.062
			c8.153-5.527,16.018-8.547,23.365,1.125c3.084,0.053,6.17,0.104,9.253,0.154c3.032-3.187,6.06-6.372,9.092-9.557
			c-5.349-0.022-10.695-0.043-16.042-0.065c-9.202-3.897-12.361-11.297-8.376-19.61c8.504-17.726,33.403-22.547,48.157-9.816
			c2.04,1.757,6.836,1.218,10.083,0.505c9.966-2.19,19.249-6.018,27.636,5.077c2.656,3.517,11.42,2.413,17.388,3.424
			c0.246-1.088,0.492-2.18,0.738-3.271c-2.073-1.2-4.374-2.135-6.169-3.662c-3.222-2.739-8.967-6.283-8.584-8.686
			c0.727-4.553,4.289-11.158,8.007-12.214c7.88-2.237,18.992-4.956,24.522-1.205c12.654,8.583,26.717,7.299,39.988,10.782
			c2.223,1.508,4.446,3.012,6.67,4.518c4.64,4.619,9.278,9.239,13.916,13.859c3.049-0.104,6.098-0.21,9.146-0.314
			c-0.903-2.06-1.449-4.395-2.782-6.121c-2.907-3.765-6.214-7.223-9.355-10.805c5.232-4.271,10.335-8.873,15.798-12.826
			c1.176-0.85,3.639,0.035,5.51,0.035h2.392c13.771,0,23.243,6.99,30.351,18.059c0.586,0.014,1.138,0.239,1.657,0.516
			c12.583,2.252,25.166,4.539,38.122,6.855c-0.87,11.526,4.475,17.911,14.45,20.782c4.014-2.105,12.646,3.245,11.541-7.133
			c-7.814-0.304-16.119-3.023-15.055-11.222c0.423-3.223,11.96-5.642,18.722-7.063c2.601-0.548,7.133,1.894,8.853,4.335
			c11.174,15.869,29.114,16.353,45.334,19.984c12.245,2.74,24.292,3.815,31.397,16.598c1.994,3.588,7.955,4.972,12.095,7.365
			c0.674-0.979,1.348-1.96,2.021-2.942c-4.972-5.468-9.942-10.935-15.385-16.921c15.604-6.375,28.455-2.858,36.741,7.84
			c2.002,2.586,5.923,4.326,9.28,5.113c19.828,4.652,39.783,8.769,59.625,13.372c6.439,1.495,12.753,2.7,13.436,12.229
			c0.284,3.93,6.74,7.416,10.387,11.104c2.315-0.117,4.629-0.23,6.944-0.345c3.317-0.311,6.633-0.622,9.953-0.932
			c0.25-0.748,0.498-1.496,0.746-2.244c-3.396-1.45-7.16-2.384-10.114-4.465c-5.258-3.703-14.695-5.044-10.198-15.349
			c-3.957-2.004-7.706-4.951-11.898-5.858c-32.165-6.957-62.58-18.584-93.287-30.394c-40.071-15.412-81.597-27.512-124.825-32.23
			c-15.067-1.646-29.942-5.568-44.732-9.167c-32.39-7.889-64.919-13.507-98.477-10.163c-8.705,0.865-17.569,0.075-26.294,0.812
			c-20.058,1.696-40.074,3.857-60.107,5.839c-3.29,0.325-6.577,0.681-9.866,1.024c-0.291-1.348-0.581-2.693-0.872-4.041
			c17.86-3.99,35.553-10.172,53.611-11.561c54.593-4.199,108.748,1.037,162.314,12.184c22.384,4.657,45.179,8.084,66.937,14.82
			c38.863,12.031,76.869,26.822,115.646,39.152c25.735,8.185,52.208,14.052,78.318,21.071c4.003,1.075,7.84,2.761,11.756,4.163
			c16.021,4.441,32.175,8.464,48.023,13.455c12.607,3.97,24.511,10.667,37.314,13.433c29.063,6.277,58.302,12.975,87.813,15.617
			c34.909,3.124,66.34-9.887,94.643-30.027c5.924-4.215,10.726-6.021,18.604-3.255c4.925,1.73,13.874-1.281,17.957-5.287
			c8.112-7.951,13.763-17.954,12.212-30.682c-0.555-4.537,1.307-9.635,2.996-14.128c4.008-10.644,10.456-20.741,12.424-31.688
			c2.356-13.121,15.695-15.812,20.306-26.035C1184.938,585.418,1183.139,570.113,1182.203,554.758z M83.846,625.577
			c1.239,1.433,2.484,2.868,3.728,4.302c-5.539,4.698-11.081,9.396-16.622,14.094c-1.208-1.389-2.413-2.777-3.623-4.166
			C72.835,635.064,78.34,630.32,83.846,625.577z M26.14,710.535c1.084,0.956,2.171,1.911,3.256,2.865
			c-6.498,7.611-12.997,15.226-19.495,22.837c-0.953-0.719-1.905-1.439-2.854-2.159C10.382,724.007,18.202,717.227,26.14,710.535z
			 M17.739,699.584c6.862-7.496,13.723-14.992,20.588-22.484l4.005,3.749c-6.984,7.355-13.965,14.71-20.946,22.063
			C20.169,701.802,18.953,700.693,17.739,699.584z M17.122,740.749c1.331,0.93,2.664,1.86,3.996,2.793
			c-7.001,9.657-14.003,19.315-22.596,31.169C-2.869,756.439,7.348,748.734,17.122,740.749z M36.272,774.673
			c-5.208,9.023-10.422,18.046-15.632,27.066c-0.989-0.57-1.977-1.143-2.963-1.716C16.185,785.314,18.848,780.764,36.272,774.673z
			 M25.384,765.749c-1.375-0.997-2.752-1.995-4.13-2.989c6.362-7.338,12.721-14.677,19.085-22.014
			C43.421,755.313,32.093,758.779,25.384,765.749z M32.025,736.697c-1.317-1.178-2.634-2.353-3.951-3.531
			c7.31-8.077,14.618-16.154,21.928-24.23c0.955,0.843,1.912,1.684,2.869,2.525C52.03,724.948,39.751,728.931,32.025,736.697z
			 M43.309,704.27c-1.185-1.152-2.373-2.309-3.558-3.463c6.646-6.945,13.292-13.889,19.938-20.834
			c1.5,1.477,3.005,2.951,4.508,4.427C57.233,691.023,50.272,697.646,43.309,704.27z M58.052,671.455
			c-1.12-1.187-2.243-2.375-3.36-3.562c5.561-5.149,11.122-10.301,16.683-15.451c1.161,1.237,2.321,2.471,3.482,3.705
			L58.052,671.455z M54.029,645.288c1.218,1.176,2.437,2.353,3.658,3.528c-7.859,7.471-15.72,14.941-23.577,22.415
			c-0.935-0.894-1.867-1.79-2.8-2.683C35.386,657.562,46.426,653.016,54.029,645.288z M19.57,680.9
			c-5.429,6.627-10.858,13.253-16.286,19.881c-1.333-1.045-2.666-2.09-3.999-3.135c5.465-6.524,10.933-13.047,16.4-19.572
			C16.981,679.018,18.275,679.96,19.57,680.9z M-14.059,701.199c-1.147-0.713-2.292-1.426-3.437-2.139
			c4.736-7.793,9.472-15.584,14.212-23.376c1.499,0.919,3.001,1.838,4.502,2.757C-3.873,686.028-8.967,693.615-14.059,701.199z
			 M-9.312,738.527c-1.579-1.093-3.157-2.186-4.734-3.28c6.154-9.687,12.306-19.374,18.461-29.062
			c1.829,1.178,3.656,2.354,5.485,3.53L-9.312,738.527z M-2.847,794.141c-3.417-13.303,6.5-16.727,12.583-22.951l3.864,3.261
			C8.117,781.013,2.634,787.577-2.847,794.141z M14.785,833.199c-2.208-1.186-4.416-2.367-6.623-3.553
			c4.218-7.258,8.437-14.516,12.657-21.771c1.789,0.977,3.582,1.957,5.374,2.936C22.388,818.272,18.586,825.735,14.785,833.199z
			 M32.601,815.77c-0.421-14.281,6.771-22.421,19.899-28.077C51.017,801.549,46.453,811.538,32.601,815.77z M43.54,780.053
			c-1.146-14.953,3.231-21.534,19.372-28.934C63.611,765.827,54.928,773.676,43.54,780.053z M54.548,742.379
			c-1.237-1.049-2.478-2.1-3.712-3.149c6.275-7.144,12.549-14.29,18.824-21.438c1.096,0.917,2.187,1.831,3.278,2.747
			C72.676,732.426,61.567,735.795,54.548,742.379z M65.858,710.963c-1.478-12.938,3.131-18.48,16.257-22.689
			c0.814,0.742,1.628,1.486,2.442,2.229C78.734,696.875,72.909,703.248,65.858,710.963z M76.596,681.287
			c-0.903-0.867-1.809-1.734-2.714-2.601c0.394-11.117,9.362-14.692,17.428-19.063c1.192,1.164,2.386,2.324,3.578,3.486
			C88.792,669.167,82.694,675.228,76.596,681.287z M87.714,653.401c-1.14-1.378-2.286-2.759-3.431-4.135
			c5.407-4.544,10.812-9.087,16.216-13.628c1.352,1.565,2.704,3.131,4.057,4.696C98.944,644.691,93.327,649.045,87.714,653.401z
			 M100.724,628.33l-3.113-4.188l13.665-10.498c1.183,1.642,2.363,3.283,3.546,4.924C110.12,621.822,105.424,625.076,100.724,628.33
			z M188.899,475.166c-0.327-1.324-0.653-2.648-0.978-3.975c7.187-1.88,14.376-3.763,21.563-5.644
			c0.297,1.584,0.595,3.167,0.895,4.749C203.219,471.92,196.059,473.544,188.899,475.166z M282.477,474.284
			c-5.839-0.742-11.679-1.487-17.518-2.231c0.159-1.555,0.317-3.108,0.476-4.66c5.868,0.566,11.733,1.131,17.601,1.699
			C282.848,470.823,282.665,472.554,282.477,474.284z M408.8,442.75c13.35-2.242,26.624-3.961,37.732,6.264
			C433.955,446.927,421.376,444.84,408.8,442.75z M618.607,528.797c-22.545,1.023-47.708-5-53.774-14.472
			c19.315,3.608,37.098,6.927,54.879,10.25C619.346,525.981,618.977,527.387,618.607,528.797z M914.269,599.326
			c-9.369-1.752-18.738-3.509-28.108-5.261c0.381-1.997,0.763-3.997,1.143-5.993c9.403,1.824,18.811,3.652,28.214,5.476
			C915.101,595.474,914.686,597.401,914.269,599.326z M851.921,242.604c-0.979,0.711-1.958,1.422-2.939,2.136
			c-4.227-5.58-8.456-11.16-13.465-17.771C848.303,226.062,852.519,230.797,851.921,242.604z M793.517,198.198
			c7.317,3.603,14.735,7.026,21.865,10.968c1.286,0.712,2.039,3.635,1.806,5.369c-0.132,0.976-3.477,2.694-4.192,2.237
			c-7.43-4.768-14.614-9.906-21.865-14.942C791.927,200.617,792.722,199.41,793.517,198.198z M794.313,233.863
			c2.29,1.309,2.554,6.176,3.746,9.413c-0.848,0.633-1.693,1.265-2.541,1.895c-9.214-6.144-21.918-7.673-26.701-22.91
			C778.415,226.487,786.731,229.533,794.313,233.863z M722.521,125.835c-1.145-0.928-2.29-1.854-3.434-2.784
			c8.774-9.167,17.55-18.341,26.327-27.514c0.79,0.669,1.579,1.338,2.366,2.004C739.358,106.974,730.939,116.402,722.521,125.835z
			 M753.651,84.649c-0.415-0.887-0.833-1.778-1.249-2.667c11.196-5.229,22.394-10.457,33.593-15.685
			c0.563,1.2,1.132,2.401,1.697,3.604C776.347,74.816,764.998,79.732,753.651,84.649z M250.954,660.582
			c1.174-19.294,19.435-37.286,26.662-33.408C269.302,637.592,260.809,648.232,250.954,660.582z M326.746,571.775
			c18.473-3.363,36.945-6.722,56.27-10.238C378.619,573.174,345.245,579.747,326.746,571.775z M346.897,600.586
			c15.016-10.665,31.518-12.569,42.297-4.672C373.773,597.615,360.334,599.101,346.897,600.586z M540.998,604.716
			c9.535-10.392,49.286-1.529,59.56,13.35C579.734,613.398,560.768,609.147,540.998,604.716z M547.893,590.496
			c6.316-9.688,41.694-2.886,51.644,11.342C580.79,597.721,564.476,594.137,547.893,590.496z M702.494,644.908
			c-14.994-5.218-29.851-10.828-47.493-17.353c4.378-2.61,6.215-4.591,7.354-4.249c14.191,4.269,28.32,8.752,42.328,13.574
			c1.464,0.505,2.066,3.521,3.068,5.37C705.979,643.199,703.781,645.357,702.494,644.908z M805.255,677.352
			c-17.055-2.923-34.027-6.293-51.023-9.537c-0.065-1.661-0.123-3.32-0.186-4.982c2.897-0.755,5.979-2.558,8.667-2.093
			c14.563,2.527,29.063,5.473,43.492,8.677c1.973,0.438,3.444,3.136,5.146,4.787C809.31,675.317,807.055,677.66,805.255,677.352z
			 M765.15,646.873c16.637,3.909,33.277,7.818,49.918,11.729C806.147,666.207,771.501,658.137,765.15,646.873z M1026.486,730.681
			c-28.062,0.984-56.149,3.029-83.66-6.762c-21.85-7.774-44.56-13.106-66.854-19.642c-3.813-1.118-7.447-2.845-10.844-6.587
			c2.32-0.36,4.837-1.493,6.934-0.963c18.075,4.564,37.646,6.492,53.647,15.048c15.249,8.154,30.412,8.417,45.988,9.917
			c21.2,2.046,42.468,4.038,63.528-2.372c4.273-1.303,9.51,0.561,14.303,0.967c0.189,1.279,0.379,2.559,0.57,3.84
			C1042.23,726.414,1034.425,730.404,1026.486,730.681z M1075.839,712.938c5.337-17.816,19.391-18.604,28.891-25.604
			c0.838,1.147,1.672,2.292,2.509,3.439C1097.596,697.577,1087.953,704.386,1075.839,712.938z M1176.594,591.97
			c-3.189,14.551-14.995,0.494-22.313,5.27c9.121,12.657-1.027,23.59-3.896,35.159c-2.91,11.716-7.179,23.295-25.982,23.623
			c11.285,7.115,21.502,11.927,15.726,23.591c-3.176,6.409-9.061,15.71-14.013,15.894c-5.714,0.213-11.751-8.182-20.253-14.896
			c-10.382,7.941-23.239,17.456-35.721,27.436c-7.165,5.725-20.345,5.676-31.131-1.156c-9.652-6.116-9.255-14.79-5.26-25.407
			c-18.577,3.022-36.397,5.919-54.22,8.817c0.118,1.392,0.238,2.783,0.355,4.178c14.44,2.745,28.532-5.592,43.626-4.573
			c-2.302,12.379-12.379,8.699-19.149,10.255c-7.619,1.755-15.586,1.992-23.317,5.633c7.782,0,15.614-0.548,23.328,0.163
			c6.898,0.636,15.23-6.353,23.328,5.429c-11.298,1.11-20.146,2.576-29.014,2.711c-12.572,0.192-25.15-0.763-37.73-0.934
			c-22.998-0.307-26.831-4.116-25.534-25.006c-18.819-2.646-37.54-5.461-56.322-7.776c-4.096-0.506-8.412,0.765-12.626,1.219
			c0.034,1.469,0.069,2.938,0.104,4.407c19.699,2.318,39.395,4.639,59.091,6.954c0.477,1.116,0.95,2.232,1.423,3.345
			c-3.167,1.432-6.515,4.383-9.478,4.037c-15.844-1.856-31.652-4.199-47.356-7.036c-12.236-2.209-24.692-4.28-36.345-8.411
			c-13.951-4.949-16.241-13.777-8.138-28.41c-23.59-7.664-46.861-15.225-71.838-23.334c4.987,10.335,5.254,18.574-4.829,24.286
			c-10.783,6.102-19.969,1.988-28.542-4.394c-2.449-1.823-5.239-5.764-4.884-8.318c1.479-10.64-5.447-12.83-13.119-15.194
			c-10.938-3.368-21.845-6.881-32.565-10.873c-3.31-1.233-5.961-4.235-8.913-6.429c0.429-0.865,0.858-1.733,1.29-2.6l7.373,0.355
			c0.711-0.729,1.424-1.458,2.138-2.19c-1.472-0.817-2.94-1.639-4.412-2.458c-6.886-1.515-13.768-3.031-20.65-4.545
			c6.867,7.322,5.604,16.299-2.959,21.028c-14.139,7.809-34.952-0.378-38.939-15.909c-0.856-3.339,1.684-7.549,2.659-11.358
			c-22-7.874-44.001-15.752-67.125-24.026c-0.411,4.93-0.617,8.185-0.966,11.419c-1.652,15.322-7.634,19.017-22.576,17.434
			c-22.619-2.399-45.39-3.358-68.097-4.907c-4.259-0.291-8.526-0.466-12.793-0.694c-0.137-1.136-0.273-2.27-0.411-3.405
			c4.007-1.104,8.021-2.207,12.03-3.312c-4.423-0.685-8.846-1.37-13.269-2.056c-11.181,10.74-24.683,12.607-40.702,4.499
			c-6.966-3.526-12.84-5.887-21.132-3.169c-6.943,2.274-15.044,1.112-22.638,1.273c-3.345,0.072-6.7-0.348-10.05-0.545
			c-0.214-1.034-0.429-2.072-0.642-3.107c9.851-1.887,19.649-4.133,29.568-5.536c7.268-1.032,12.777-2.749,18.126-9.19
			c12.504-15.063,40.096-10.859,49.501,6.374c1.49,1.555,2.981,3.108,4.47,4.663c4.253-2.039,8.396-5.476,12.786-5.826
			c9.056-0.726,18.242,0.285,27.382,0.393c3.745,0.045,7.497-0.4,11.353-2.434c-17.066-8-37.856,4.021-55.615-11.063
			c24.072-6.812,47.409,4.355,72.263-4.707c-21.196-9.927-40.255-10.181-59.718-7.628c-44.153,5.796-88.314,11.504-132.48,17.199
			c-1.049,0.138-2.173-0.286-4.273-3.076c5.512-1.999,10.952-4.244,16.554-5.959c37.169-11.375,75.896-11.705,114.029-16.465
			c23.448-2.925,45.349,0.502,67.471,7.295c17.095,5.25,34.684,8.863,51.916,13.707c5.404,1.521,10.354,4.669,15.51,7.07
			c1.627,2.191,3.253,4.384,4.882,6.572c7.372,3.115,14.727,6.271,22.129,9.318c2.435,1.004,5.286,2.922,7.448,2.393
			c23.104-5.674,41.851,8.132,62.445,13.537c25.492,7.847,51.244,14.947,76.413,23.714c37.524,13.071,75.148,24.515,115.102,28.28
			c35.189,3.316,70.019,12.787,105.153,13.663c32.781,0.819,66.122-4.506,95.848-21.549c2.31-1.324,4.712-2.617,7.229-3.436
			c38.924-12.627,60.193-42.386,75.414-77.872c5.365-12.51,10.033-25.319,17.342-37.668c-1.275,11.406-2.55,22.812-3.989,35.708
			c1.999,0.999,9.539,2.343,10.756,5.87C1176.876,574.964,1178.303,584.184,1176.594,591.97z"/>
	</g>
</g>
</svg>
