<svg xmlns="http://www.w3.org/2000/svg" version="1.1" x="0" y="0" width="1280" height="720" viewBox="0 0 1280 720" enable-background="new 0 0 1280 720" xml:space="preserve"><defs><rect width="1280" height="720"/></defs><clipPath><use overflow="visible"/></clipPath><g opacity="0.2" clip-path="url(#SVGID_2_)"><path fill-rule="evenodd" clip-rule="evenodd" fill="#333333" d="M1182.2 554.8c-1-15.9-1.1-31.8-1.6-47.7 -1.5-7.7-2.9-15.3-4.4-23 0-0.8 0-1.5 0-2.3 -5.8-36.8-17.4-71.8-35.8-104.2 -8.4-14.7-18.7-28.6-29.7-41.5 -10.2-12-23.9-21.3-24.8-39.1 -6.7-2.6-13.4-5.2-20.1-7.8 -7.7 5-14.4 3.4-21.6-1.9 -9.2-6.7-19.2-12.1-28.9-18 -1.1-1-2.7-1.8-3.2-3.1 -9.2-20.2-11.5-21.4-34.7-18.5 -2.7 0.3-6-0.8-8.6-2.1 -19.6-9.7-39.1-19.7-58.6-29.6 -14.6-4.7-29.9-7.7-37.7-23.7 -1.5-3-6.8-3.8-10.4-6.1h-2.3c-13.1 6.9-22.8 3.9-31.1-8.6 -4.4-6.7-11.8-11.5-17.2-17.6 -2.3-2.6-3.2-6.5-6.4-13.4 9.1 2.4 14.8 3.9 20.5 5.4 0-0.8 0.1-1.5 0.1-2.3 -0.9-2.5-1.2-6.5-2.9-7.1 -8.3-3.1-12.5-9.8-15.9-17.1 -2.2-4.8-5.7-10.2-4.9-14.8 0.5-3.5 6.9-8.5 10.4-8.4 4.1 0.2 8.2 5.1 11.9 8.4 1.5 1.4 2.2 3.7 4.6 8 5.3-9.7 2.9-23.4 17.9-23.3 -3.9-11-0.5-17.2 9.9-18.9 8.9-1.4 13.1 3.4 15.2 19.5 3.8-3.5 6.3-5.8 8.8-8.1 3.7-0.7 7.5-1.3 11.2-2 16.3-1.2 29 9 43.4 13.7l4.8 0.1c7.8-6.8 3.7-11.4-2.7-16.2 -26-19.2-54.4-32.8-86.7-37.1 -13.7 0.7-27.5 1.4-41.2 2.2 -44.4 10.3-80.1 31.7-97.2 76.6 -1.3 3.5-2.4 7.1-3.6 10.6 0 9.2-0.1 18.3-0.1 27.5 6.3 38.6 31.4 61.8 64.2 78.9 6.7 3.5 13.3 7.4 19.5 11.8 38.1 26.9 79.2 50.1 110.5 85.8 26.8 30.5 54 60.8 79 92.8 16.8 21.6 23.3 48.5 26.8 75.5 2.3 17.2-8 28.3-27.3 35.1h-34.3c-14.9-2.3-29.9-5.6-44.6-9 -40.4-9.3-80.7-18.9-121-28.5 -3.7-0.9-7.1-2.5-10.7-3.7 -0.8 0-1.5-0.1-2.3-0.1 -22.1-5-44.3-10-66.4-15 -55.1-12.5-110.1-25.1-165.2-37.7 -2.2-0.5-4.3-1.4-6.5-2.2 -19.7-3.7-39.4-7.5-59.1-10.9 -7.1-1.2-14.4-1.7-21.6-2 -8.2-0.4-16.4-0.3-24.5-0.3 -27.5-0.2-54.9-0.4-82.4-0.6 -3.1 0-6.2 0.1-9.3 0.1 -9.8 1.9-19.7 3.9-29.5 5.8 -1.6 0.3-3.2 0.7-4.8 1 -8.4 0.9-16.8 1.8-25.2 2.7 -1.5 0.6-3 1.2-4.6 1.8 -9.2 0.9-18.3 1.8-27.5 2.7 -9.8 1.8-19.7 3.5-29.5 5.3 -15.1 5.2-30.3 10.5-45.4 15.7 -3.2 1.5-6.4 2.9-9.7 4.3 -19.8 13-39.8 25.7-59.4 39.2 -8.9 6.1-16.9 13.6-25.4 20.5 -1.5 1.5-3 3-4.5 4.5C19.4 596.8-17.7 662.5-38 737.2c-0.9 3.3-1.3 6.7-1.9 10 -4.1 23.6-8.8 47-12.1 70.7 -8.8 62.3-11 124.8-2.4 187.3 0.6 4.1 0.5 8.3 0.7 12.5 1.1 5.3 2.2 10.6 3.3 15.9 2.8-1.9 5.6-3.8 8.5-5.6 -1.4-6.9-2.9-13.7-4.3-20.6 -2.8-13.6-2.3-28-3.3-42l0-83.6c0.4-47.3 7.8-93.6 20.8-139 3.7-24.5 6.6-30.9 16.1-34.7 -4.6 16.4-9.1 32.5-13.6 48.7l0.1-0.2c-3.8 26-7.7 52.1-11.5 78.1l0.1-0.2c-0.8 34.8-1.7 69.6-2.2 104.4 0 3.1 2.6 6.3 4 9.5 0.7-16.3 1-32.6 2.3-48.8 2.4-29.8 5.3-59.5 8.2-89.3 1.3-12.7 3.2-25.4 4.9-38.1 0.8-11.1 4.7-20.5 14.6-26.9 0.4 1 1.1 1.9 0.9 2.3 -5 10.2-7.2 19.8-6.7 32.1 0.8 19.7-4.9 39.6-7.9 59.5l0.1-0.2c-0.8 22.4-1.8 44.9-2.3 67.3 -0.1 4.7 1.4 9.5 2.1 14.3 2.2-12.5 5.2-24.9 6.5-37.5 1.6-16.2 1.9-32.5 2.8-48.7 0-16.3-0.8-33.1 18.2-40.6 1.2 0.6 2.3 1.2 3.5 1.8 -5.8 11.3-11.7 22.5-17.8 34.2 2.5-0.7 5.2-1.4 8.7-2.4 -1.4 16.8-3 32.9-4.1 49.1 -0.6 8.3-0.1 16.6-0.7 24.9 -0.3 3.6-2.2 7-3.4 10.5l-2.2 20.4c1.7 0.4 3.5 0.8 5.2 1.2 1.9-6.6 4.9-13.1 5.6-19.9 2.2-20.3 3.5-40.6 5.2-61 -0.4-6.6-0.2-12.9 9.7-14.9 -1 18.1-2.1 35.3-2.6 52.5 -0.1 3.3 2.6 6.6 4 10 1.6-15.3 3-30.6 4.8-45.9 1.4-11.6 0.6-24.3 15.4-31.9 -0.6 7.3-1 13-1.5 18.7 -0.9 18.8-2 37.6-2.6 56.5 -0.1 3.9 1.5 7.8 2.3 11.7 1.5-7 3.4-13.8 4.4-20.9 3.2-22.9 5.7-45.8 9.2-68.7 0.7-4.5 4.2-8.6 6.2-13 1.1-2.5 2.4-5.3 2.2-7.8 -1.2-16 5.8-25.4 21-29.2 3.8-1 7-5 10.2-7.9 3.8-3.5 7.3-7.3 11-11 0-1 0.1-2 0.1-3 -5.6 0.5-11.2 0.4-16.6 1.6 -3.7 0.8-7.1 3.4-11 5.5 -1.9-15 2.8-19.2 16.2-19.2 3.8 0 8.4-5.1 11.4-8.8 3.4-4.4 4.9-8.6 12.4-5.3 7.6 3.4 11.8-2.4 14.2-19 -14.5 5-28.6 9.8-44.4 15.2 0.9-10.6 7.3-14.6 15.1-17.7 11.8-4.7 23.7-9.3 35.2-14.8 3.8-1.8 6.3-6.2 9.3-9.5 -0.9-1.2-1.8-2.4-2.7-3.5 -4 1.4-8 2.8-12.1 4.2 -11.5 4.1-23 8.2-34.7 12.3 0.9-12.7 5.1-15.4 25.8-17.4 7.8-3.5 15.6-7 23.4-10.6 4.4-2.1 8.7-4.3 12.8-8 -18.2-8.1-33.7 6.7-51.5 5.5 16.1-14.2 37.9-16 56.4-25.5 -15.4-3.5-29.8-2.4-43.6 5.8 -0.6-1.3-1.3-2.5-1.9-3.8 2-2.2 3.7-5.9 6.1-6.5 20.5-5.3 40.6-12.9 62.5-8.1 3.1 0.7 7.2-3.9 10.9-6 -0.4-1.1-0.8-2.2-1.1-3.3 -13.6-1.1-27.2-2.1-40.8-3.2 0-1.3-0.1-2.7-0.1-4 10.3-1.6 20.6-3.2 32.1-5 -1.6-3.7-2.7-6.2-4-9.3 6.4-2.4 12.6-4.7 18.9-7 5.5-7.8 11-14.8 21.3-5.8 2 1.7 5.8 1.2 8.8 1.7 3.8-0.9 7.7-1.9 11.5-2.8 0.5-1.7 1.5-4.9 1.4-5 -5.8-2.2-11.6-4.2-19.4-6.8 2.5-2.5 4.5-4.6 6.5-6.6 2.2-2.2 4.4-4.5 6.7-6.7 10-5.4 20-10.7 29.9-16.1 1.9-1 3.9-1.9 8.3-4.1 -8.9-1.7-15.4-2.9-21.9-4.1 0.1-1.2 0.2-2.3 0.4-3.5 4.3 0.5 8.7 0.8 13 1.5 7.6 1.2 15.2 2.6 22.8 3.9 -5.9-3.1-11.7-6.2-17.6-9.3 0.5-1.1 0.9-2.2 1.4-3.3 15.1 6.2 30.3 12.4 45.4 18.6 0.3-0.5 0.5-1 0.8-1.6 -6.7-4.5-13.4-9-20.1-13.5 0.5-0.9 0.9-1.8 1.4-2.8 10.5 4.4 21 8.9 31.5 13.3 0.4-0.6 0.7-1.2 1.1-1.9 -10.7-6.7-21.5-13.3-32.2-20 0.6-1.2 1.1-2.3 1.7-3.5 17.2 8.1 34.4 16.1 51.6 24.2 0.5-0.8 0.9-1.7 1.4-2.5 -5-3.3-10.1-6.5-15.1-9.8 -7.4-4.7-14.8-9.4-22.2-14.1l2.2-4c8.2 4.6 16.3 9.2 24.5 13.8l23.6 13.2c0.6-0.6 1.1-1.3 1.7-1.9 -8.8-7.6-17.6-15.2-26.4-22.8 1.1-1.3 2.2-2.5 3.3-3.8 7.5 5.5 14.9 10.9 22.4 16.4 1-1.1 2.1-2.2 3.1-3.3 -6.3-3.6-12.5-7.3-18.8-10.9l4.7-5.9c10.1 5.2 20.1 10.4 30.2 15.6 0.7-1 1.5-1.9 2.2-2.9 -3.3-3.5-6.7-7-10-10.6 0.5-1.1 1-2.1 1.6-3.2 3.8 2.1 7.5 4.1 11.3 6.3 4.4 2.5 8.8 5.2 13.1 7.8 0.6-0.7 1.2-1.5 1.8-2.2 -3.4-3.1-6.8-6.3-10.2-9.4 0.6-1 1.3-2 1.9-2.9 8.5 5 16.5 11.6 25.6 14.6 9.2 3.1 19.5 2.8 29.3 3.9 0 1.3-0.1 2.5-0.1 3.8 -2.9 0.6-5.8 1.1-9.1 1.8 0.5 1.1 0.7 2.6 1.4 2.9 6.4 2.1 12.8 4.8 19.4 5.9 16.8 2.6 33.8 4.5 53.6 7 -4.9-3.6-7.7-5.7-10.6-7.8 -15.1-2.1-30.7-2.2-44.7-8.4 0.3-1.5 0.7-3 1-4.5 17.6 3.6 35.2 7.1 52.8 10.7 54.7 10.1 109.5 20.2 165.3 30.5 -4-3.8-7.6-7.3-11.2-10.7l1.6-3.4c4 1.9 9.1 2.8 11.8 5.9 8.3 9.5 16.5 18.5 29.6 20.8 -2.6-5.8-5.2-11.7-8.3-18.6 11.2 1 13.7 9.3 17.4 16.4 3.9 2.2 7.7 4.5 11.6 6.7 0.5-0.5 1.1-1 1.6-1.6 -7-10.1-14-20.2-21-30.3 1.2-1.1 2.5-2.2 3.7-3.3l37.5 41.2c0.9-0.8 1.8-1.6 2.6-2.4l-19.9-28.8c1-0.8 2-1.7 3-2.5 7.7 8.6 15.4 17.2 23.1 25.9 0.5-0.3 1-0.5 1.5-0.8 -2.3-5.9-4.6-11.8-6.8-17.8 0.7-0.5 1.5-1.1 2.2-1.6 1.7 1.8 3.7 3.4 5.2 5.3 1.7 2.4 2.4 6 4.7 7.4 3.7 2.4 8.3 3.5 12.5 5.2 -1.9-3.4-3.8-6.8-5.7-10.3 -0.5-1-0.8-2-1.9-4.8 15.9 2.3 16.7 26.8 37.1 21.7 -6.2-5.5-11.3-10-16.4-14.4 1.2-1.3 2.3-2.6 3.5-3.9 9.1 8.8 18.2 17.5 27.3 26.3 0.2-0.9 0.5-1.7 0.7-2.6 4.7 0.7 9.3 1.3 14 2.1 3.3 0.6 6.6 1.6 9.9 2.4 1.7-2.4 3-5.7 5.4-6.8 2.1-1 5.4 0.3 8.2 0.6 -0.6 1.9-1.2 3.8-1.7 5.7 5.8 5.3 11.2 11 17.4 15.7 4.3 3.3 9.4 6.6 14.6 7.6 18.3 3.5 36.7 6 55.1 8.8 5.3-3.6 3.9-5.9-1.5-7 -5.5-1.2-11.2-1.8-16.7-3.2 -3.6-0.9-7.1-2.6-10.6-3.9 0.3-1.3 0.7-2.6 1-3.9 10.8 2.2 21.6 4.3 32.4 6.5 19.7-2.6 39.3-5.2 59-7.7 0.1-1.7 0.1-3.4 0.2-5.1 -4.3-0.5-8.8-2-12.9-1.4 -9.4 1.4-18.6 4-27.9 5.5 -3 0.5-6.3-0.8-10.3-1.5 20.4-6.3 39.1-12.1 57.8-17.8 -0.4-1.4-0.8-2.8-1.2-4.2 -10.8 3.2-21.6 6.3-32.4 9.5 -0.4-1.2-0.9-2.5-1.4-3.7 19.2-8.2 40.5-13.7 49.5-38.6 -13.3 9.9-24.7 18.4-36.1 26.9 -0.8-0.8-1.7-1.7-2.5-2.5 21.8-14.3 36-32 27.6-59.7 -3.1 11.3-4.5 23.4-9.6 33.8 -5.2 10.5-14.1 19-26.7 19.6 -0.7-1-1.4-2.1-2-3.1 1.8-1.4 3.5-3.1 5.5-4.2 17.9-9.9 24.8-23.2 22-43.5 -3.7-27.2-12-53.2-27.8-75.6 -15.1-21.4-31.5-42.2-49.5-61.3 -27.6-29.4-53.4-60.8-88.3-82.6 -3.1-1.9-4.7-6.1-5.2-10.8 2.1 1.9 4.3 3.7 6.4 5.6l5.3-5.3 -11.8-18.2c0.7-0.6 1.5-1.2 2.2-1.7 7 4.4 14.1 8.7 21.1 13.1 1.6-0.8 3.2-1.6 4.8-2.4 -6.5-7.9-13-15.8-19.5-23.7 1.1-1.1 2.2-2.3 3.4-3.4 8 5.9 16.1 11.7 24.1 17.6 0.8-0.9 1.6-1.9 2.3-2.8 -5.9-5.9-11.5-12.3-17.9-17.6 -24.2-20-49.6-38.1-79.5-49 -3.7-1.3-6.7-4.5-10-6.8 0.7-1.1 1.4-2.2 2-3.4 4.6 1.7 9.3 3.5 14.9 5.6 -9-14.3-17.3-27.6-26.1-41.7 -1.3 6-2.6 11.7-3.8 17.5 -1-0.1-1.9-0.2-2.9-0.3 0-10.4 0-20.8 0-31.2 0-6.1 0-12.2 0.5-18.3 0.2-2.1 1.9-4 2.8-6 1.6-3.8 2.4-8.1 4.6-11.5 2.2-3.2 5.3-6.8 8.8-8.5 13-6.4 26.2-10.9 42.7-20h-27.3c18.4-9.2 49.2-7.5 70.3 3.8 -5.6 1.1-9.4 2-13.1 2.8 -22 4.2-43 10.9-59.6 27 -15.2 14.9-16.9 35.2-5.8 53.2 18.1 29.3 44.8 46.9 76.5 58.6 85.1 31.4 163.3 75.4 235.3 130.4 7.5 5.7 14.5 12.8 19.8 20.5 34.6 49.9 47.6 107.6 35.4 164.7 -19.2 89.7-54.5 114.2-129.5 129.6 -40.7 8.4-81.1 2.7-121.7-2.7 -66.5-8.8-130.7-25.6-193.7-48.8 -54.7-20.1-110.7-36.7-166.1-55.2 -49-16.3-99.1-14.6-149.5-9.6 -42.8 4.3-83.6 16.7-124.3 29.6 -8.5 6.4-16.9 12.8-25.4 19.2 -13.5 16.6-28.3 32.4-40.2 50.1 -17.5 26.1-35.5 52.3-42.7 83.7 -2.5 10.7-4.3 21.5-6.4 32.3 -3.8 22.2-7.6 44.5-11.4 66.7l0.1-0.2c-0.9 41-2.1 81.9-2.5 122.9 -0.2 13.2 1.6 26.5 2.4 39.7 0 0.4 0 0.9-0.1 1.3 6.6 0.3 13.3 0.8 19.9 1.5 -0.6-11.5-1.3-23-1.9-34.4 -0.1-1.1 0.9-2.1 0.9-3.2 0.1-6.1 1.2-12.4-0.1-18.1 -3.2-13.7-0.7-19.7 10.5-21.2 3.9-5.3 7.8-10.5 11.7-15.8 -9.9 0.1-16 13.9-25.6 5 -3.7-3.4-3-11.5-4.3-17.5 0.3-18.4-0.1-36.9 1.1-55.2 0.6-10 3.9-19.9 6-29.8 1 0.1 2 0.2 3 0.4 -1.1 11.9-2.2 23.8-3.3 35.7 1 0.9 2 1.8 2.9 2.7 2.9-9.4 5.7-18.7 8.6-28.1 1.1 0.3 2.1 0.5 3.2 0.8 -0.9 10.6-1.8 21.1-2.6 31.7 0.5 0 1-0.1 1.5 0 6.1-15.2 12.3-30.5 18.4-45.7 -6.5-1.6-13.7-2.2-19.4-5.3 -3.5-1.9-7.4-8.1-7-11.8 4.8-38.3 12.4-75.6 34.8-108.6 9.7-14.4 15.5-31.5 25.3-45.9 14.3-20.9 33.3-36.3 60.3-38 9.5-2.4 18.7-6.3 28.2 1.1 13.9 10.8 14.2 24.7 0.1 34.9 -17 12.1-35.7 8.2-43.9-10.2 -16.8 10.9-28.3 25.5-36.2 43.3 0.7 0.7 1.4 1.4 2.2 2 2.3-2.8 4.6-5.6 6.8-8.5 6-7.8 11.8-15.8 18.2-23.4 1.2-1.4 4.4-1.2 6.7-1.7 -0.3 2.3 0.2 5.2-1 6.9 -3.2 4.7-7 9-10.7 13.3 -8.5 10-13.8 20.3-13.8 34.6 0.1 23.7-16.7 36.4-35.8 30.1 -1.8 1.7-3.5 3.4-5.3 5.2 -2.4 8.7-4.8 17.5-7.2 26.2l2.9 1c3.5-7.4 6.9-14.8 10.4-22.2l4.9 1.7c-3.7 16.4-13.5 32.3-6.2 49.6 6.1-14.6 11.2-29.8 18.6-43.7 10.6-19.9 20.4-40.8 38.7-55.5 5.3-4.2 11.1-7.8 18.5-9.8 -25.3 22.3-42.5 49.7-55.4 80 4.1 1.3 4.2 1.4 12-6 3.7-3.5 7.1-6.9 9.1 1.3 3 1.6 6 3.2 9 4.8 0.8 0 1.6 0 2.4 0 4-2.6 8-5.2 14.5-9.3 -5.1-0.4-7.5-0.2-9.7-0.8 -5.2-1.3-12-1.5-14.7-4.9 -2-2.5 0.1-10.4 2.8-14.1 3.2-4.3 9.2-6.5 13.9-9.6 2.3-0.1 4.6-0.1 6.9-0.2 4.4-2.7 9-5.2 13.2-8.1 8.2-5.5 16-8.5 23.4 1.1 3.1 0.1 6.2 0.1 9.3 0.2 3-3.2 6.1-6.4 9.1-9.6 -5.3 0-10.7 0-16-0.1 -9.2-3.9-12.4-11.3-8.4-19.6 8.5-17.7 33.4-22.5 48.2-9.8 2 1.8 6.8 1.2 10.1 0.5 10-2.2 19.2-6 27.6 5.1 2.7 3.5 11.4 2.4 17.4 3.4 0.2-1.1 0.5-2.2 0.7-3.3 -2.1-1.2-4.4-2.1-6.2-3.7 -3.2-2.7-9-6.3-8.6-8.7 0.7-4.6 4.3-11.2 8-12.2 7.9-2.2 19-5 24.5-1.2 12.7 8.6 26.7 7.3 40 10.8 2.2 1.5 4.4 3 6.7 4.5 4.6 4.6 9.3 9.2 13.9 13.9 3-0.1 6.1-0.2 9.1-0.3 -0.9-2.1-1.4-4.4-2.8-6.1 -2.9-3.8-6.2-7.2-9.4-10.8 5.2-4.3 10.3-8.9 15.8-12.8 1.2-0.8 3.6 0 5.5 0h2.4c13.8 0 23.2 7 30.4 18.1 0.6 0 1.1 0.2 1.7 0.5 12.6 2.3 25.2 4.5 38.1 6.9 -0.9 11.5 4.5 17.9 14.5 20.8 4-2.1 12.6 3.2 11.5-7.1 -7.8-0.3-16.1-3-15.1-11.2 0.4-3.2 12-5.6 18.7-7.1 2.6-0.5 7.1 1.9 8.9 4.3 11.2 15.9 29.1 16.4 45.3 20 12.2 2.7 24.3 3.8 31.4 16.6 2 3.6 8 5 12.1 7.4 0.7-1 1.3-2 2-2.9 -5-5.5-9.9-10.9-15.4-16.9 15.6-6.4 28.5-2.9 36.7 7.8 2 2.6 5.9 4.3 9.3 5.1 19.8 4.7 39.8 8.8 59.6 13.4 6.4 1.5 12.8 2.7 13.4 12.2 0.3 3.9 6.7 7.4 10.4 11.1 2.3-0.1 4.6-0.2 6.9-0.3 3.3-0.3 6.6-0.6 10-0.9 0.3-0.7 0.5-1.5 0.7-2.2 -3.4-1.4-7.2-2.4-10.1-4.5 -5.3-3.7-14.7-5-10.2-15.3 -4-2-7.7-5-11.9-5.9 -32.2-7-62.6-18.6-93.3-30.4 -40.1-15.4-81.6-27.5-124.8-32.2 -15.1-1.6-29.9-5.6-44.7-9.2 -32.4-7.9-64.9-13.5-98.5-10.2 -8.7 0.9-17.6 0.1-26.3 0.8 -20.1 1.7-40.1 3.9-60.1 5.8 -3.3 0.3-6.6 0.7-9.9 1 -0.3-1.3-0.6-2.7-0.9-4 17.9-4 35.6-10.2 53.6-11.6 54.6-4.2 108.7 1 162.3 12.2 22.4 4.7 45.2 8.1 66.9 14.8 38.9 12 76.9 26.8 115.6 39.2 25.7 8.2 52.2 14.1 78.3 21.1 4 1.1 7.8 2.8 11.8 4.2 16 4.4 32.2 8.5 48 13.5 12.6 4 24.5 10.7 37.3 13.4 29.1 6.3 58.3 13 87.8 15.6 34.9 3.1 66.3-9.9 94.6-30 5.9-4.2 10.7-6 18.6-3.3 4.9 1.7 13.9-1.3 18-5.3 8.1-8 13.8-18 12.2-30.7 -0.6-4.5 1.3-9.6 3-14.1 4-10.6 10.5-20.7 12.4-31.7 2.4-13.1 15.7-15.8 20.3-26C1184.9 585.4 1183.1 570.1 1182.2 554.8zM83.8 625.6c1.2 1.4 2.5 2.9 3.7 4.3 -5.5 4.7-11.1 9.4-16.6 14.1 -1.2-1.4-2.4-2.8-3.6-4.2C72.8 635.1 78.3 630.3 83.8 625.6zM26.1 710.5c1.1 1 2.2 1.9 3.3 2.9 -6.5 7.6-13 15.2-19.5 22.8 -1-0.7-1.9-1.4-2.9-2.2C10.4 724 18.2 717.2 26.1 710.5zM17.7 699.6c6.9-7.5 13.7-15 20.6-22.5l4 3.7c-7 7.4-14 14.7-20.9 22.1C20.2 701.8 19 700.7 17.7 699.6zM17.1 740.7c1.3 0.9 2.7 1.9 4 2.8 -7 9.7-14 19.3-22.6 31.2C-2.9 756.4 7.3 748.7 17.1 740.7zM36.3 774.7c-5.2 9-10.4 18-15.6 27.1 -1-0.6-2-1.1-3-1.7C16.2 785.3 18.8 780.8 36.3 774.7zM25.4 765.7c-1.4-1-2.8-2-4.1-3 6.4-7.3 12.7-14.7 19.1-22C43.4 755.3 32.1 758.8 25.4 765.7zM32 736.7c-1.3-1.2-2.6-2.4-4-3.5 7.3-8.1 14.6-16.2 21.9-24.2 1 0.8 1.9 1.7 2.9 2.5C52 724.9 39.8 728.9 32 736.7zM43.3 704.3c-1.2-1.2-2.4-2.3-3.6-3.5 6.6-6.9 13.3-13.9 19.9-20.8 1.5 1.5 3 3 4.5 4.4C57.2 691 50.3 697.6 43.3 704.3zM58.1 671.5c-1.1-1.2-2.2-2.4-3.4-3.6 5.6-5.1 11.1-10.3 16.7-15.5 1.2 1.2 2.3 2.5 3.5 3.7L58.1 671.5zM54 645.3c1.2 1.2 2.4 2.4 3.7 3.5 -7.9 7.5-15.7 14.9-23.6 22.4 -0.9-0.9-1.9-1.8-2.8-2.7C35.4 657.6 46.4 653 54 645.3zM19.6 680.9c-5.4 6.6-10.9 13.3-16.3 19.9 -1.3-1-2.7-2.1-4-3.1 5.5-6.5 10.9-13 16.4-19.6C17 679 18.3 680 19.6 680.9zM-14.1 701.2c-1.1-0.7-2.3-1.4-3.4-2.1 4.7-7.8 9.5-15.6 14.2-23.4 1.5 0.9 3 1.8 4.5 2.8C-3.9 686-9 693.6-14.1 701.2zM-9.3 738.5c-1.6-1.1-3.2-2.2-4.7-3.3 6.2-9.7 12.3-19.4 18.5-29.1 1.8 1.2 3.7 2.4 5.5 3.5L-9.3 738.5zM-2.8 794.1c-3.4-13.3 6.5-16.7 12.6-23l3.9 3.3C8.1 781 2.6 787.6-2.8 794.1zM14.8 833.2c-2.2-1.2-4.4-2.4-6.6-3.6 4.2-7.3 8.4-14.5 12.7-21.8 1.8 1 3.6 2 5.4 2.9C22.4 818.3 18.6 825.7 14.8 833.2zM32.6 815.8c-0.4-14.3 6.8-22.4 19.9-28.1C51 801.5 46.5 811.5 32.6 815.8zM43.5 780.1c-1.1-15 3.2-21.5 19.4-28.9C63.6 765.8 54.9 773.7 43.5 780.1zM54.5 742.4c-1.2-1-2.5-2.1-3.7-3.1 6.3-7.1 12.5-14.3 18.8-21.4 1.1 0.9 2.2 1.8 3.3 2.7C72.7 732.4 61.6 735.8 54.5 742.4zM65.9 711c-1.5-12.9 3.1-18.5 16.3-22.7 0.8 0.7 1.6 1.5 2.4 2.2C78.7 696.9 72.9 703.2 65.9 711zM76.6 681.3c-0.9-0.9-1.8-1.7-2.7-2.6 0.4-11.1 9.4-14.7 17.4-19.1 1.2 1.2 2.4 2.3 3.6 3.5C88.8 669.2 82.7 675.2 76.6 681.3zM87.7 653.4c-1.1-1.4-2.3-2.8-3.4-4.1 5.4-4.5 10.8-9.1 16.2-13.6 1.4 1.6 2.7 3.1 4.1 4.7C98.9 644.7 93.3 649 87.7 653.4zM100.7 628.3l-3.1-4.2 13.7-10.5c1.2 1.6 2.4 3.3 3.5 4.9C110.1 621.8 105.4 625.1 100.7 628.3zM188.9 475.2c-0.3-1.3-0.7-2.6-1-4 7.2-1.9 14.4-3.8 21.6-5.6 0.3 1.6 0.6 3.2 0.9 4.7C203.2 471.9 196.1 473.5 188.9 475.2zM282.5 474.3c-5.8-0.7-11.7-1.5-17.5-2.2 0.2-1.6 0.3-3.1 0.5-4.7 5.9 0.6 11.7 1.1 17.6 1.7C282.8 470.8 282.7 472.6 282.5 474.3zM408.8 442.8c13.4-2.2 26.6-4 37.7 6.3C434 446.9 421.4 444.8 408.8 442.8zM618.6 528.8c-22.5 1-47.7-5-53.8-14.5 19.3 3.6 37.1 6.9 54.9 10.3C619.3 526 619 527.4 618.6 528.8zM914.3 599.3c-9.4-1.8-18.7-3.5-28.1-5.3 0.4-2 0.8-4 1.1-6 9.4 1.8 18.8 3.7 28.2 5.5C915.1 595.5 914.7 597.4 914.3 599.3zM851.9 242.6c-1 0.7-2 1.4-2.9 2.1 -4.2-5.6-8.5-11.2-13.5-17.8C848.3 226.1 852.5 230.8 851.9 242.6zM793.5 198.2c7.3 3.6 14.7 7 21.9 11 1.3 0.7 2 3.6 1.8 5.4 -0.1 1-3.5 2.7-4.2 2.2 -7.4-4.8-14.6-9.9-21.9-14.9C791.9 200.6 792.7 199.4 793.5 198.2zM794.3 233.9c2.3 1.3 2.6 6.2 3.7 9.4 -0.8 0.6-1.7 1.3-2.5 1.9 -9.2-6.1-21.9-7.7-26.7-22.9C778.4 226.5 786.7 229.5 794.3 233.9zM722.5 125.8c-1.1-0.9-2.3-1.9-3.4-2.8 8.8-9.2 17.6-18.3 26.3-27.5 0.8 0.7 1.6 1.3 2.4 2C739.4 107 730.9 116.4 722.5 125.8zM753.7 84.6c-0.4-0.9-0.8-1.8-1.2-2.7 11.2-5.2 22.4-10.5 33.6-15.7 0.6 1.2 1.1 2.4 1.7 3.6C776.3 74.8 765 79.7 753.7 84.6zM251 660.6c1.2-19.3 19.4-37.3 26.7-33.4C269.3 637.6 260.8 648.2 251 660.6zM326.7 571.8c18.5-3.4 36.9-6.7 56.3-10.2C378.6 573.2 345.2 579.7 326.7 571.8zM346.9 600.6c15-10.7 31.5-12.6 42.3-4.7C373.8 597.6 360.3 599.1 346.9 600.6zM541 604.7c9.5-10.4 49.3-1.5 59.6 13.4C579.7 613.4 560.8 609.1 541 604.7zM547.9 590.5c6.3-9.7 41.7-2.9 51.6 11.3C580.8 597.7 564.5 594.1 547.9 590.5zM702.5 644.9c-15-5.2-29.9-10.8-47.5-17.4 4.4-2.6 6.2-4.6 7.4-4.2 14.2 4.3 28.3 8.8 42.3 13.6 1.5 0.5 2.1 3.5 3.1 5.4C706 643.2 703.8 645.4 702.5 644.9zM805.3 677.4c-17.1-2.9-34-6.3-51-9.5 -0.1-1.7-0.1-3.3-0.2-5 2.9-0.8 6-2.6 8.7-2.1 14.6 2.5 29.1 5.5 43.5 8.7 2 0.4 3.4 3.1 5.1 4.8C809.3 675.3 807.1 677.7 805.3 677.4zM765.2 646.9c16.6 3.9 33.3 7.8 49.9 11.7C806.1 666.2 771.5 658.1 765.2 646.9zM1026.5 730.7c-28.1 1-56.1 3-83.7-6.8 -21.8-7.8-44.6-13.1-66.9-19.6 -3.8-1.1-7.4-2.8-10.8-6.6 2.3-0.4 4.8-1.5 6.9-1 18.1 4.6 37.6 6.5 53.6 15 15.2 8.2 30.4 8.4 46 9.9 21.2 2 42.5 4 63.5-2.4 4.3-1.3 9.5 0.6 14.3 1 0.2 1.3 0.4 2.6 0.6 3.8C1042.2 726.4 1034.4 730.4 1026.5 730.7zM1075.8 712.9c5.3-17.8 19.4-18.6 28.9-25.6 0.8 1.1 1.7 2.3 2.5 3.4C1097.6 697.6 1088 704.4 1075.8 712.9zM1176.6 592c-3.2 14.6-15 0.5-22.3 5.3 9.1 12.7-1 23.6-3.9 35.2 -2.9 11.7-7.2 23.3-26 23.6 11.3 7.1 21.5 11.9 15.7 23.6 -3.2 6.4-9.1 15.7-14 15.9 -5.7 0.2-11.8-8.2-20.3-14.9 -10.4 7.9-23.2 17.5-35.7 27.4 -7.2 5.7-20.3 5.7-31.1-1.2 -9.7-6.1-9.3-14.8-5.3-25.4 -18.6 3-36.4 5.9-54.2 8.8 0.1 1.4 0.2 2.8 0.4 4.2 14.4 2.7 28.5-5.6 43.6-4.6 -2.3 12.4-12.4 8.7-19.1 10.3 -7.6 1.8-15.6 2-23.3 5.6 7.8 0 15.6-0.5 23.3 0.2 6.9 0.6 15.2-6.4 23.3 5.4 -11.3 1.1-20.1 2.6-29 2.7 -12.6 0.2-25.1-0.8-37.7-0.9 -23-0.3-26.8-4.1-25.5-25 -18.8-2.6-37.5-5.5-56.3-7.8 -4.1-0.5-8.4 0.8-12.6 1.2 0 1.5 0.1 2.9 0.1 4.4 19.7 2.3 39.4 4.6 59.1 7 0.5 1.1 1 2.2 1.4 3.3 -3.2 1.4-6.5 4.4-9.5 4 -15.8-1.9-31.7-4.2-47.4-7 -12.2-2.2-24.7-4.3-36.3-8.4 -14-4.9-16.2-13.8-8.1-28.4 -23.6-7.7-46.9-15.2-71.8-23.3 5 10.3 5.3 18.6-4.8 24.3 -10.8 6.1-20 2-28.5-4.4 -2.4-1.8-5.2-5.8-4.9-8.3 1.5-10.6-5.4-12.8-13.1-15.2 -10.9-3.4-21.8-6.9-32.6-10.9 -3.3-1.2-6-4.2-8.9-6.4 0.4-0.9 0.9-1.7 1.3-2.6l7.4 0.4c0.7-0.7 1.4-1.5 2.1-2.2 -1.5-0.8-2.9-1.6-4.4-2.5 -6.9-1.5-13.8-3-20.6-4.5 6.9 7.3 5.6 16.3-3 21 -14.1 7.8-35-0.4-38.9-15.9 -0.9-3.3 1.7-7.5 2.7-11.4 -22-7.9-44-15.8-67.1-24 -0.4 4.9-0.6 8.2-1 11.4 -1.7 15.3-7.6 19-22.6 17.4 -22.6-2.4-45.4-3.4-68.1-4.9 -4.3-0.3-8.5-0.5-12.8-0.7 -0.1-1.1-0.3-2.3-0.4-3.4 4-1.1 8-2.2 12-3.3 -4.4-0.7-8.8-1.4-13.3-2.1 -11.2 10.7-24.7 12.6-40.7 4.5 -7-3.5-12.8-5.9-21.1-3.2 -6.9 2.3-15 1.1-22.6 1.3 -3.3 0.1-6.7-0.3-10-0.5 -0.2-1-0.4-2.1-0.6-3.1 9.9-1.9 19.6-4.1 29.6-5.5 7.3-1 12.8-2.7 18.1-9.2 12.5-15.1 40.1-10.9 49.5 6.4 1.5 1.6 3 3.1 4.5 4.7 4.3-2 8.4-5.5 12.8-5.8 9.1-0.7 18.2 0.3 27.4 0.4 3.7 0 7.5-0.4 11.4-2.4 -17.1-8-37.9 4-55.6-11.1 24.1-6.8 47.4 4.4 72.3-4.7 -21.2-9.9-40.3-10.2-59.7-7.6 -44.2 5.8-88.3 11.5-132.5 17.2 -1 0.1-2.2-0.3-4.3-3.1 5.5-2 11-4.2 16.6-6 37.2-11.4 75.9-11.7 114-16.5 23.4-2.9 45.3 0.5 67.5 7.3 17.1 5.3 34.7 8.9 51.9 13.7 5.4 1.5 10.4 4.7 15.5 7.1 1.6 2.2 3.3 4.4 4.9 6.6 7.4 3.1 14.7 6.3 22.1 9.3 2.4 1 5.3 2.9 7.4 2.4 23.1-5.7 41.9 8.1 62.4 13.5 25.5 7.8 51.2 14.9 76.4 23.7 37.5 13.1 75.1 24.5 115.1 28.3 35.2 3.3 70 12.8 105.2 13.7 32.8 0.8 66.1-4.5 95.8-21.5 2.3-1.3 4.7-2.6 7.2-3.4 38.9-12.6 60.2-42.4 75.4-77.9 5.4-12.5 10-25.3 17.3-37.7 -1.3 11.4-2.5 22.8-4 35.7 2 1 9.5 2.3 10.8 5.9C1176.9 575 1178.3 584.2 1176.6 592z"/></g></svg>