<svg xmlns="http://www.w3.org/2000/svg" version="1.1" x="0" y="0" width="1280" height="720" viewBox="0 0 1280 720" enable-background="new 0 0 1280 720" xml:space="preserve"><g opacity="0.2"><defs><rect x="0.5" y="-0.5" opacity="0.2" width="1279" height="721"/></defs><clipPath><use overflow="visible"/></clipPath><g clip-path="url(#SVGID_2_)"><path fill-rule="evenodd" clip-rule="evenodd" fill="#333333" d="M1800.4 182.9c5 1.9 10.9 1.2 16.4 1.7 -3.8-40 26.6-8.9 38-18.5 -11.3-10.8-23.2-18.9-39.8-12.6 -1.5 1.3-2.9 2.7-4.4 4 -6 0-12.6 1.7-17.8-0.2 -13.9-5.2-27.2-12-40-17.8 -4.5 7.5-7.3 12.4-10.7 18.1 10.8 4.3 21.7 8.6 32.6 13C1783.3 174.8 1791.6 179.6 1800.4 182.9z"/><path fill-rule="evenodd" clip-rule="evenodd" fill="#333333" d="M1563.9 322.1c7.8 6 14.7 11.3 21.5 16.6 3.1-2.1 6.3-4.3 9.4-6.4C1582.2 325.5 1571.1 321.5 1563.9 322.1z"/><path fill-rule="evenodd" clip-rule="evenodd" fill="#333333" d="M75.5 668.6c18 18.5 35.3 37.7 52.8 56.7 0.3 1 0.6 2 0.9 3 17.1 15.5 34.2 30.9 51.3 46.4 39.1 24.2 77.5 49.7 117.6 72.4 66.1 37.4 138.3 56.3 213.1 67.3 44.6 6.6 88.5 8.9 132.1-4.3l0 0c15-4.6 29.9-9.3 44.9-13.9 2.3-1.5 4.5-3.1 6.8-4.4 21.6-11.6 44-22 64.7-35.1 13.5-8.5 24.2-21.2 36.8-31.1 14.3-11.3 29.2-21.9 44.3-32.1 5.6-3.8 12.3-5.8 18.6-8.6 1.9-4.6 2.5-10.5 5.8-13.5 27.4-25.6 55.3-50.8 83.4-75.6 3.4-3 9.2-3.1 14-4.5 7.8-10 15.4-20.2 23.6-29.8 12.8-15 26-29.7 39-44.5 9.7-10.2 18.8-20.9 29.1-30.4 28.2-26.2 56.7-52.1 85.6-77.6 5.2-4.6 12.9-6.4 19.5-9.5 24.7-17.7 49.4-35.4 74.1-53 40.5-21.3 80.4-44.1 121.8-63.5 52.1-24.5 107.9-33.9 165.1-28.4 11.6 1.1 23 3 34.3 5.6 8-5.7 16-11.3 24.1-16.8 -58.4-28.7-98-40.5-119-35.1 19 6.4 37.8 12.6 56.5 18.8 -0.3 1-0.5 1.9-0.8 2.8 -37.9-3.1-75.7-6.1-113.6-9.2 -0.2 1.9-0.3 3.8-0.5 5.6 22.7 3.3 45.5 6.5 68.2 9.8 -0.2 1.2-0.4 2.4-0.5 3.6 -33 1-65.9 2-98.9 3.1 -0.1 2.3-0.2 4.7-0.3 7 6.6 0.7 13.2 1.4 19.7 2.1 -34 9.9-69.2 11.7-101 27.4 14-2 28-3.9 42.1-5.9 0.3 1.3 0.6 2.6 0.9 3.9 -36.7 7.6-72.2 17.8-101.7 42.5 13.9-5.7 27.8-11.3 42.6-17.3 -0.5 2.3-0.4 3.1-0.7 3.3 -2.7 1.8-5.4 3.6-8.1 5.3 -81.9 49.3-158.7 105.1-224.6 175.1 -37.3 39.6-74 80.2-114.4 116.4 -57.7 51.8-118 100.9-178.5 149.5 -31.1 24.9-67.5 40.9-106.7 49.5 -32.4 1.8-65.2 7.3-97.3 4.8 -109.7-8.6-210.9-44.6-302.2-105.4 -41.5-27.7-79.1-61.2-118.5-92 -20.8-24.7-41.7-49.5-62.5-74.2 -5.4-7.3-10.9-14.6-16.3-21.9 0 0 0 0 0 0 -11-22-22.1-44-33.1-66l5.1-2.5c7.2 14.7 14 29.7 21.9 44 6.5 11.8 14.4 22.8 21.9 34.1 0.2 0.3 2.8-1 4.3-1.6 -6.1-11.9-12.1-23.7-18.2-35.6 -12.9-27.4-24.8-55.1-24.8-86.5 10.6 29.7 21.8 58.9 31.6 89.2l30.1 33.2c0 0 1.6-1.4 2.4-2.1 -4.9-7-9.8-14.1-14.7-21.2 -16.3-21.2-23.4-45.8-23.9-72.8 3.8 11.2 7.5 22.4 11.3 33.5 5.5 15.6 12.6 30 28.6 37.7 -22.8-42-31.4-73.3-25.5-95.8 1.3 5.2 2.2 8.7 3.1 12.2 1.1 3.8 2.3 7.6 3.4 11.4 1.4 0.2 2.8 0.4 4.1 0.6 -6.4-64.2 7.3-120.3 65.3-158.6 -1.4-0.7-2.7-1.4-4.1-2.1 -4.8 1.6-9.6 3.2-14.9 5 1.3-23.3 2.6-24 23.2-18.7 4 1 8.6-0.2 12.9-1 30.4-5.3 60.8-10.8 91.2-16.2 0.8-1.8 1.5-3.7 2.3-5.5 -33.4 3.9-66.7 7.8-101.7 11.9 4.9-3.5 9.6-9.5 15.3-10.5 23.9-4.3 48-7.1 72-10.8 5-0.8 9.7-3 14.6-4.5 -5.3-0.4-11.1 0.5-15.7-1.5 -5.1-2.2-14.9 7.5-15.4-5.8 -1.5-1.6-3-3.3-4.5-4.9 -6.7 4.4-13.5 8.8-20.2 13.1 -1-1.4-2-2.7-2.9-4.1 1.8-3.2 3.9-6.2 5.1-9.6 1.3-3.7 1.7-7.8 2.4-11.7 -6.5 7-12.5 14.5-19.6 20.9 -5 4.6-11.3 7.7-17 11.5 -0.9-1.1-1.8-2.1-2.7-3.2 4.4-7.9 8.7-15.8 13.1-23.7 3.5-2.4 6.6-6.1 10.4-7.1 79.3-21.3 150.3-6 210.1 51.1 42.6 40.7 56.9 95.5 69.9 150.5 1 4-0.3 8.6-0.6 12.9 -12.1-17-20.5-34.5-30.7-50.9 -35.6-57.6-86.2-92.6-154.7-99.1 -9.8-0.9-19.6-1.6-29.3-1.9 -61.2-1.7-111.4 20.1-143.3 73.5 -30.3 50.6-25 104.9-6.5 157.8 15.7 44.6 41.1 83.7 74.3 117.9 45.7 47.2 98.5 84.2 158.9 109.3 53.9 22.4 110.3 36.2 168.7 43.2 73.2 8.7 140.9-4.4 202.9-44.1 23.8-15.2 47.6-30.7 69.5-48.4 35.6-28.6 71.2-57.6 104.2-89.2 59.7-57.2 116.2-117.8 176.3-174.5 66.9-63.1 137.3-122.2 211.3-177.3 107.5-80.1 225.5-129.8 359.1-143.2 55.1-5.5 108 0.3 158.1 22.8 14.6 6.6 28.9 13.7 42.9 21.3 5.6-1.8 11.3-3.5 17-5.1 -8.6-4.9-17.2-9.9-25.8-14.8 -15.9-7.6-31.8-15.2-47.6-22.9 -32.4-6.4-64.9-12.9-101.6-20.2 11.1-2.3 18.5-3.9 25.9-5.5 0.2-1.1 0.4-2.3 0.6-3.5 -10.4-2.4-20.7-4.9-31-7.3 10.5-6.2 20.1-12.5 30.2-17.7 10.2-5.2 21.1-9.3 32.2-14.1 -12-7.9-30.2-7.2-38 3.4 -7.4 9.9-15 10.6-25.3 7.6 -6.2-1.8-12.8-2.5-19.3-3.2 -11.9-1.3-22-1.4-18.8 16.4 2.1 11.7-13.9 24.6-31.3 27.8 -27.4 5-53.8-17.4-45.9-40.2 2.4-6.8 11.6-14.1 19-15.7 18.4-4 37.5-4.8 56.3-6.9 4-0.4 7.9-0.9 12.5-4.6 -3.5-1.9-6.8-4.3-10.4-5.6 -13.8-4.8-27.9-8.9-41.7-13.9 -17-6.1-31.9-8.9-48.1 5.4 -7.1 6.3-22.6 6.6-33.4 4.5 -13.1-2.6-18.7-13.5-14.8-27.8 0.8-2.9-1.3-6.5-2-9.8 -1.6 1.4-3.3 2.9-4.9 4.3 -4.5 19.9-20.8 20.3-36.2 21.7 -15.6 1.5-28.6 3.2-30.6 24.6 -1.5 15.8-28.9 24.8-46.2 18.3 -23.3-8.8-26.6-16.4-18-42.6l-16 10.5c1.7 18.4-8.4 26.9-24.6 32.4 -11.5 3.9-25.1 8-17.7 27.2 1.8 4.8-6.4 15.2-12.2 20.9 -23.6 23.2-51.6 20.2-62.1-16.2 -12.1 6-0.8 28.6-20.1 28.4 -4.8 4.4-9.7 8.8-14.5 13.2 -10.2 3.2-20.3 6.3-31 9.6 7.9 5.7 16.1 10.7 23.1 17 4.1 3.7 8.7 9.3 8.9 14.2 0.6 19.6-38.3 41.4-55.8 32 -4.8-6.1-9.6-12.2-14.4-18.3 -0.9-4-1.9-8.1-2.9-12.1 -10 32-31.6 48.2-64.2 50.6 -1.3 1.4-2.7 2.9-4 4.3 9.9 6.2 19.9 12.3 29.7 18.6 2.2 1.4 5.5 3.2 5.8 5.2 3.5 18.8-10.2 28.2-21.8 38.6 -8.8 7.9-18.9 10.1-27.4 1.2 -8.2-8.5-14.3-19-23.2-31.2 -0.6 6.2-0.5 12.6-2 18.6 -1.7 7.1-4.9 13.8-7.5 20.6 -1.6 1.5-3.2 3-4.8 4.5 -5.9 8.9-10.6 19.9-25 11.1 -2.5-1.5-8.1 2-14 3.7 34.6 25.7 37 33.5 19.5 56.2 -4.9 4.4-9.7 8.8-14.6 13.2 -1.2 1-2.4 2.3-3.8 3.1 -25.6 14.4-35.1 10.8-43.3-25.7 -3.6 7-5.7 11.1-7.7 15.2 6.7 9.4 5.8 16.3-4.1 24.1 -13 10.2-24 22.8-35.9 34.4 0.5 6.9 1 13.8 1.6 20.7 0.5 5.2 3.5 11.9 1.3 15.3 -9.9 15.1-19.9 30.8-32.9 43.2 -5.2 4.9-19.3 4.8-26.8 1.4 -5.6-2.5-7.6-13.9-10.2-21.7 -1.4-4.2-0.5-9.1-0.7-13.7 -1.8-0.3-3.7-0.6-5.5-0.9 -1.5 7.6-3.4 15.1-4.5 22.7 -0.8 5.6-0.6 11.3-0.8 17 -14 11.9-28.1 23.7-42.1 35.6 20.2 5.2 25.8 16.3 14.7 32.7 -7.2 10.6-16.2 20.5-26 28.7 -9 7.5-20.2 10.2-31.6 2.5 -10.8-7.4-15.1-17.7-11.2-29.7 5.4-16.1 12.6-31.7 19.4-48.2 -2.9 1.3-6.3 3-9.8 4.6 -3.2 2.9-6.5 5.9-9.7 8.8 -4.8 11.8-8.7 24-14.6 35.2 -2.9 5.6-8.4 11.6-14.1 13.8 -17.5 6.6-35.7 11.5-54.8 17.4 2.3 3 4 5.6 6 8 16.1 19.4 11.7 35.5-12.7 43.1 -16.3 5.1-30.8 0.3-43.4-11.1 -9.4-8.5-12-19.4-5.3-29.2 6.1-8.8 15.6-15.6 24.4-22.2 4.4-3.3 10.5-4.1 18.4-7 -16.1-10.5-26.9-0.7-38.4 3.1 -3.2 3-6.3 6-9.5 9 -4 12.4-13.2 14.2-24.4 11.7 -15.7-3.6-31.4-7-46.9-11.2 -7.9-2.2-11.3-0.4-10.7 7.9 4.9 3.4 9.6 7.2 14.9 10 4.8 2.5 10.3 3.9 15.5 5.7 -0.4 1.5-0.8 3.1-1.2 4.6 -11.2-2.3-22.4-4.6-33.6-6.9l0.2-0.3c-6.3 5.6-4.5 8.9 2.9 10.7 6.3 1.6 12.6 3.1 18.8 4.9 6.2 1.8 12.2 4 18.3 6l-0.9 4.9c-19.8-4.2-39.6-8.4-59.4-12.6 -21.8 1.7-40.7-3.3-52.1-24.1 -9.1-16.6-4.5-29.2 13.4-35.9 6.5-2.4 13.6-3.5 20.4-4.9 6.6-1.4 13.2-2.5 19.7-6.2 -14.3-7.4-28.7-8.1-43.5-2.1 -5.3-0.7-10.9-0.7-16-2.4 -13-4.2-25.8-9.2-38.6-13.9 -11.3 22.2-18.9 22.6-43.9 4.7l-6.6-7.3c-8.4-14.2-6-22.3 8.1-28.2 7.7-3.2 16.2-4.7 24.3-6.9 0.2-1.8 0.4-3.6 0.5-5.4 -7.9-1-18-5.6-23.4-2.4 -17.5 10.5-28.2 1.7-39.3-9.5 -5.3-4.1-10.6-8.1-15.8-12.2 -2 1.9-4.1 3.7-6.1 5.6 7.8 10.4 15.6 20.8 23.4 31.3 -1 1-1.9 2.1-2.9 3.1 -5.5-3.7-10.9-7.4-16.4-11 -4.2-3.5-8.3-7.1-12.5-10.6 7.8 11.1 15.6 22.2 23.4 33.2 -21.7-9.7-39-24.4-51.6-44.6 -18.7-21.5-12.7-34.9 18.8-42.1 0.2-1.4 0.5-2.8 0.7-4.2l-23.6-2.4c-4.3-2.1-10.2-3.1-12.6-6.6 -11.6-16.9-10.5-21.3 6.7-38.1 -3.5-0.8-6.9-1.6-10.4-2.5 -1.6 1.5-3.3 2.9-4.9 4.3l-6.1 6.7c3.8 15.8 7.6 31.5 12.3 50.9 -8.1-7.7-13.7-13.1-19.3-18.4 -3.2 0.1-8.4 1.6-9.4 0.1 -11.2-15.6-3.5-65.1 13.2-73.5 10.3-5.2 21.9-7 28.5-17.9 2.3-3.9 4.5-7.7 6.8-11.6 -4.6-1.2-11.6-4.9-13.6-3.2 -15.4 14.2-29.9 29.4-44.6 44.4 -1.8 15-3.4 30.1-5.7 45.1 -0.6 3.9-3.2 7.6-5.5 10.9 -13.2 19.7-13.8 39.3-0.5 59.2 2 2.9 3.2 6.3 5.5 10.8 -12.5-5.3-12.5-5.3-29.8-48.1 0.4 12.8 0.7 25.6 1.1 37.6 -20.2-24.7-19.2-109.6 4.4-128.2 -1.8 11-3.3 20.1-4.8 29.2 1 0.4 2 0.9 3 1.3 3.3-6.2 6.5-12.4 11.5-21.9 1.4 12.1 2.3 20.8 3.3 29.6 1.1-0.1 2.3-0.1 3.4-0.2 1.8-9.4 3.6-18.7 5.3-28.1 0.1-10.8 0.3-21.5 0.1-32.3 -0.2-12.4 17.3-24.6 30.8-21.3 12.7 3.1 41.4-10.1 51.4-18.7 6.7-5.8 20.8-11 27.2-7.8 20.1 10 39.9 2.8 59.6 4.1 8.3 0.6 16.4 4.7 24.6 7.2 1.5 1.6 3.1 3.1 4.6 4.7 12.2 11.8 23.2 25.2 43.2 24.1 4.4-0.2 10.9 5.5 13.5 10.1 6.9 12.5 12.3 26 18.2 39 1.5 1.6 2.9 3.3 4.4 4.9 16.2 0.9 20.4 9.5 22 25.5 2.6 25.6 9.4 50.7 15.3 75.9 2.1 8.9 9.2 11.6 18 8.1 0.9-0.8 1.7-1.6 2.6-2.4 13.4-65.7-5.6-125.8-31.9-184.6 -2.2-4.9-4.8-9.7-7.2-14.5 -14.6-16.2-29.2-32.3-43.8-48.5 -33.1-24.1-69.4-41-110-47.6 -5.8-0.9-11.4-2.7-17.1-4.1 -1.5-0.1-3-0.2-4.5-0.2 -57.9 2.8-111.8 18.4-160.9 49.7 -5 3.2-10.6 5.4-15.9 8.1 -9.7 8.8-19.3 17.6-29 26.4C-12.2 418.1-22.2 527.3 23.3 596c2.8 4.3 7 7.7 10.5 11.5 0.4 4 0.9 8 1.3 12 7.1 13.6 23.6 21.5 23.5 39.3C64.3 662 71.2 664.1 75.5 668.6zM1530.6 102.2c1.5 1.6 3 3.1 4.5 4.7 -3.5 4.9-6 12.4-10.8 14.3 -22.8 9.1-41.5 7.8-53.8-4.6C1491.9 111.4 1511.2 106.8 1530.6 102.2zM1474.3 136.5c6.3 4.6 15.4 6 23.5 7 9.2 1.1 18.7 0.2 28.1 0.2 0.2 1.6 0.4 3.3 0.6 4.9 -7 1.8-14.1 3.3-21 5.5 -6 1.9-11.8 4.6-17.7 6.9 0.7 1.8 1.4 3.5 2.1 5.3 8.9-1.3 17.9-2.9 26.8-3.7 8.8-0.8 18-1.2 26.9-1.6 -0.1 1.4 0 2.6-0.1 4 -41.7 12.8-82.9 25.1-124.4 37.8l-1.4-1.6c5.5-3.7 11.4-7.6 17.3-11.7 -0.4-1.5-1.1-2.7-1.5-4.2 -12.8 2-25.7 4.2-38.4 6.2 -0.4-0.9-1-1.8-1.4-2.8 7.6-4.8 15.2-9.5 22.8-14.2 -0.2-1.3-0.5-2.5-0.7-3.7 -10.1-0.1-20.3-0.2-30.4-0.3 -0.3-1-0.6-2-0.8-3 5.6-2.8 11.5-5 16.7-8.4 7-4.7 14.6-9.3 19.7-15.7C1436 124.3 1454.5 122.2 1474.3 136.5zM1292.2 198.1c3.8-5.3 7.6-11.4 12.9-14.6 33.8-20.6 67.7-41.1 106.6-50.7 1.3 2.3 2.6 4.6 3.8 6.9 -25.9 11.2-51.8 22.4-78.1 33.8 1.8 3.2 2.2 4.5 2.9 4.8 13.3 5.1 25 11.7 26.2 27.9 1.3 18.5-13.6 24.7-25.9 32.2 -13.3 8.1-27.7 10.9-41.8 2.2C1286.1 232.7 1283 210.8 1292.2 198.1zM1215.7 234.2c12.3-14.5 26.5-26.2 45.6-30.5 1.3 1.8 2.5 3.6 3.8 5.5 -15.2 10.1-30.4 20.3-45.6 30.4C1218.2 237.8 1217 236 1215.7 234.2zM1186.6 272.6c12.1-13 23.3-25.8 45.5-22.7 10.4 1.5 22.4-8.9 35.7-11.2 -8.1 6.5-16.2 13-24.2 19.5 0.7 1.1 1.4 2.2 2.1 3.3 13.1-4.9 26.2-9.9 39.3-14.8 0.8 1.3 1.5 2.6 2.3 4 -13.7 9.6-27.4 19.2-41.1 28.9 1 1.6 2 3.3 3 4.9 17-6.3 33.9-12.7 50.9-19 0.7 1.5 1.3 3 2 4.5 -32.7 20.7-65.4 41.4-97.5 61.7 -3.2-3.1-6.6-7.6-11-10.5C1175 309 1171.6 288.8 1186.6 272.6zM1152.3 291.9c1 1.3 2 2.6 3.1 4 -10.8 9.8-21.6 19.6-32.4 29.4 -9.2 8.4-10 16.8 1.5 23.4 13.6 7.8 13.4 18.2 7.5 30.5 -7.6 15.8-17.9 29.8-35.6 33.1 -9.5 1.8-22-0.2-29.8-5.5 -8.3-5.6-13-8.8-22-2.2 -5.7 4.2-13.7 5.3-19.3 7.3C1052 355.4 1101.9 323.4 1152.3 291.9zM964.3 452.8c21.7-19 40.9-22.4 53.2-9.3 17.1 18.3 14 42.2-8.2 62.2 -18.9 17-36 18.9-48.6 5.2C942.7 491.5 944 470.6 964.3 452.8zM916.2 514.8c-8.1 23.4-33.6 48.5-50.7 48.1C881.5 544.9 892.1 523.8 916.2 514.8zM840.1 610c7.3-25.4 35.1-42.4 61.2-37.3 11.7 2.3 19 12.6 14.2 24.4 -4.6 11.1-12.8 20.8-19.4 31.2 -21.3 17.1-31 19.4-45.8 9.8C839.6 631.2 836.7 621.8 840.1 610zM293.2 755.6c-16.7-8-33.4-15.9-50.1-23.9 -0.5 0.9-1 1.7-1.5 2.6 10.2 7.4 20.3 14.7 30.5 22.1 -0.9 1.1-1.8 2.2-2.6 3.2 -34-12.9-58.1-38.4-80.6-64.4 4.6-4.8 9.2-7.9 11.4-12.2 8.6-17.2 26.3-23.4 42.2-11.4 20.5 15.4 39.2 33 58.1 52.1 -10.3-4.4-20.6-8.7-30.9-13.1 -0.7 1.2-1.4 2.4-2.1 3.6 14.4 7.9 28.9 15.8 43.3 23.7l-2.4 5.6c-15.6-6.1-31.1-12.2-46.7-18.3 -0.5 0.9-1.1 1.9-1.6 2.8l35.1 23.3C294.6 752.8 293.9 754.2 293.2 755.6zM405.3 800.8c-16.5 14.4-39.2 11.6-56.4-6.8 -13.5-14.5-15.3-33.6-4-43.6 14.1-12.5 44.5-7.6 60.1 9.6C419 775.5 419.1 788.8 405.3 800.8zM718.3 714c9.2-19.7 20.7-34.5 45.3-36.7 10.8-1 20.8-10.5 32.6-17 -6.1 6.7-11.9 13-17.5 19.1 16.5 21.9 16.6 25.2-0.8 45.6 -6.7 7.8-14 15.4-22.3 21.4 -10.1 7.3-21.8 7.9-31.5-1.2C714.9 736.5 712.7 726.1 718.3 714zM677.4 714.1c-11.3 14.5-25.7 17.9-42.5 9.7C650.1 720.3 662.6 717.5 677.4 714.1zM570 757.3c37-4.7 73.9-9.3 111.5-14.1 -35.6 15.4-70.6 32.4-110.7 18.7C570.5 760.3 570.3 758.8 570 757.3zM568.3 774.3c9.1 0 18.6 0.3 27.3 2.9 6.9 2.1 16.3 6.8 18 12.3 2.1 6.9 0 19.3-5 23.1 -10.2 7.8-23.1 14-35.7 16.2 -13.6 2.3-29.8-2.7-33.2-17 -2.4-9.7 5.5-22 8.8-32.9C557.2 776.8 562.8 774.3 568.3 774.3zM542.9 773.3c-7.8 2.7-14.2 7.3-19.1 6.1 -36.9-9-73.5-18.8-110-29.2 -6.7-1.9-12.4-7.7-18.5-11.7 0.5-1.1 1.1-2.2 1.6-3.3C444 747.5 491.1 759.8 542.9 773.3zM485.4 737.8c-0.5 1.3-1 2.6-1.4 3.9 -44.1-0.4-84.3-13.8-121.2-38.1C403.7 715 444.5 726.4 485.4 737.8zM327.9 673.4c10.6 3.9 21.2 7.9 31.8 11.8 -1.1 2.4-2.2 4.8-3.3 7.2 -10.3-4.2-20.7-8.5-31-12.7C326.3 677.7 327.1 675.5 327.9 673.4zM372.9 725.3c-0.7 2.3-1.5 4.6-2.2 6.9 -11.7-5-23.5-10-35.2-15.1 1-2.5 2-5 3.1-7.5C350 714.9 361.4 720.1 372.9 725.3zM303.6 661c-0.9 1.2-1.9 2.4-2.8 3.6 -16.8-10.1-33.5-20.1-54-32.5C262.9 629.8 287.8 644.2 303.6 661zM183.9 565.3c15.8 15.6 31.5 31.2 48.4 48C214.4 614 189.2 590.2 183.9 565.3zM144 576.9c-6.8-11.2-15.8-25.9-24.9-40.9 8.8-1.8 14.2-2.8 16.8-3.3 18.8 23.1 36.5 47.1 56.7 68.8 20.2 21.7 42.8 41.2 64.4 61.6 -0.9 1.2-1.8 2.4-2.8 3.6 -26-19.6-52-39.3-79.9-60.3 0.7 21.9 23 28.8 28.8 45.3 -1.1 1.1-2.2 2.3-3.3 3.4 -9.1-7.6-18-15.3-27.1-23 -1.1 1.1-3.2 3.1-3.1 3.2l22.5 24.8c-2.3 2.3-2.8 2.9-4.2 4.2 -9.3-7.4-18.8-14.8-28.1-22.2 -0.6 0.4-1.1 0.7-1.7 1.1 4.8 7.3 9.6 14.6 15.1 22.9 -20.4-7.3-47.5-45.3-44.4-64.1C130.2 593.8 137.9 586.7 144 576.9zM119 312.3c-5.8 17.2-11.2 32.9-17.3 50.9C93.7 345.8 102.5 321.5 119 312.3zM58 443.9c3.1 0.1 6.1 0.2 9.2 0.3 -2.5 10.8-5 21.5-7.5 32.3 -0.7 0-1.4 0.1-2 0.1C57.8 465.7 57.9 454.8 58 443.9z"/></g><use overflow="visible" fill-rule="evenodd" clip-rule="evenodd" fill="none" stroke="#808080" stroke-miterlimit="10"/></g></svg>