<?xml version="1.0" encoding="utf-8"?>
<!-- Generator: Adobe Illustrator 16.0.4, SVG Export Plug-In . SVG Version: 6.00 Build 0)  -->
<!DOCTYPE svg PUBLIC "-//W3C//DTD SVG 1.1//EN" "http://www.w3.org/Graphics/SVG/1.1/DTD/svg11.dtd">
<svg version="1.1" id="Layer_1" xmlns="http://www.w3.org/2000/svg" xmlns:xlink="http://www.w3.org/1999/xlink" x="0px" y="0px"
	 width="1280px" height="720px" viewBox="0 0 1280 720" enable-background="new 0 0 1280 720" xml:space="preserve">
<g opacity="0.2">
	<defs>
		<rect id="SVGID_1_" x="0.5" y="-0.5" opacity="0.2" width="1279" height="721"/>
	</defs>
	<clipPath id="SVGID_2_">
		<use xlink:href="#SVGID_1_"  overflow="visible"/>
	</clipPath>
	<g clip-path="url(#SVGID_2_)">
		<path fill-rule="evenodd" clip-rule="evenodd" fill="#333333" d="M1800.436,182.929c4.989,1.858,10.905,1.218,16.408,1.7
			c-3.757-39.973,26.564-8.89,38.018-18.477c-11.29-10.808-23.208-18.852-39.84-12.611c-1.461,1.328-2.915,2.658-4.379,3.986
			c-5.979,0.036-12.583,1.746-17.811-0.214c-13.888-5.193-27.187-11.974-39.968-17.785c-4.472,7.539-7.339,12.372-10.735,18.101
			c10.787,4.286,21.713,8.626,32.637,12.966C1783.29,174.787,1791.582,179.615,1800.436,182.929z"/>
		<path fill-rule="evenodd" clip-rule="evenodd" fill="#333333" d="M1563.883,322.094c7.808,6.001,14.719,11.316,21.543,16.572
			c3.139-2.133,6.271-4.267,9.419-6.37C1582.158,325.465,1571.08,321.504,1563.883,322.094z"/>
		<path fill-rule="evenodd" clip-rule="evenodd" fill="#333333" d="M75.521,668.56c18.007,18.483,35.266,37.699,52.808,56.65
			c0.258,1.024,0.571,2.038,0.927,3.036c17.1,15.469,34.202,30.945,51.302,46.417c39.131,24.216,77.546,49.702,117.56,72.362
			c66.093,37.427,138.305,56.25,213.11,67.267c44.589,6.566,88.471,8.931,132.143-4.315l0,0c14.955-4.641,29.906-9.285,44.855-13.92
			c2.279-1.459,4.464-3.08,6.84-4.354c21.635-11.602,43.989-22.044,64.715-35.087c13.467-8.471,24.202-21.179,36.849-31.118
			c14.338-11.264,29.246-21.857,44.33-32.113c5.561-3.781,12.344-5.764,18.563-8.564c1.853-4.58,2.476-10.477,5.75-13.523
			c27.447-25.568,55.25-50.771,83.359-75.604c3.354-2.967,9.245-3.053,13.963-4.475c7.841-9.972,15.389-20.188,23.595-29.849
			c12.779-15.039,25.999-29.704,39.031-44.519c9.67-10.183,18.831-20.907,29.099-30.433c28.233-26.201,56.727-52.136,85.637-77.579
			c5.221-4.605,12.911-6.398,19.469-9.498c24.717-17.673,49.429-35.351,74.148-53.022c40.526-21.289,80.362-44.053,121.756-63.494
			c52.067-24.451,107.889-33.88,165.086-28.398c11.59,1.11,23.012,3.048,34.291,5.589c7.982-5.675,16.005-11.29,24.071-16.831
			c-58.367-28.726-97.959-40.475-118.985-35.084c19.04,6.354,37.754,12.603,56.459,18.849c-0.275,0.951-0.55,1.9-0.826,2.849
			c-37.854-3.07-75.707-6.15-113.564-9.227c-0.166,1.877-0.338,3.752-0.511,5.632c22.744,3.267,45.48,6.53,68.222,9.794
			c-0.176,1.188-0.353,2.369-0.529,3.559c-32.975,1.02-65.945,2.039-98.919,3.058c-0.09,2.347-0.182,4.694-0.268,7.045
			c6.575,0.686,13.159,1.368,19.738,2.055c-34.03,9.853-69.185,11.728-100.991,27.354c14.012-1.965,28.031-3.936,42.052-5.899
			c0.283,1.286,0.575,2.576,0.855,3.866c-36.67,7.603-72.25,17.785-101.708,42.531c13.874-5.654,27.754-11.31,42.558-17.347
			c-0.503,2.343-0.434,3.129-0.746,3.345c-2.674,1.829-5.372,3.628-8.144,5.302c-81.921,49.304-158.682,105.111-224.578,175.131
			c-37.29,39.616-73.956,80.155-114.368,116.411c-57.743,51.814-117.961,100.943-178.489,149.516
			c-31.057,24.918-67.479,40.898-106.72,49.477c-32.447,1.826-65.179,7.319-97.293,4.811
			c-109.659-8.556-210.891-44.577-302.235-105.449c-41.493-27.656-79.091-61.174-118.46-92.028
			c-20.835-24.75-41.67-49.5-62.502-74.247c-5.437-7.283-10.879-14.571-16.317-21.854c0,0,0,0-0.003-0.002
			c-11.027-21.991-22.051-43.983-33.083-65.98l5.131-2.524c7.235,14.688,13.956,29.66,21.865,43.974
			c6.525,11.795,14.431,22.822,21.932,34.05c0.19,0.285,2.799-1.046,4.278-1.628c-6.063-11.867-12.127-23.735-18.19-35.606
			c-12.944-27.376-24.807-55.075-24.804-86.468c10.551,29.731,21.779,58.867,31.646,89.22l30.13,33.233
			c0.014,0.016,1.578-1.376,2.358-2.052c-4.912-7.05-9.821-14.111-14.738-21.158c-16.338-21.238-23.411-45.819-23.876-72.838
			c3.776,11.18,7.459,22.385,11.343,33.526c5.452,15.639,12.585,30.049,28.57,37.728c-22.752-42.035-31.396-73.258-25.51-95.817
			c1.325,5.191,2.157,8.724,3.13,12.219c1.069,3.821,2.264,7.608,3.407,11.407c1.374,0.186,2.752,0.368,4.123,0.55
			c-6.401-64.196,7.322-120.302,65.252-158.616c-1.369-0.708-2.738-1.415-4.106-2.131c-4.81,1.62-9.619,3.249-14.906,5.026
			c1.301-23.275,2.567-24.03,23.238-18.742c3.956,1.014,8.627-0.217,12.871-0.955c30.417-5.335,60.804-10.801,91.203-16.227
			c0.759-1.832,1.512-3.655,2.265-5.482c-33.367,3.899-66.733,7.799-101.73,11.88c4.898-3.516,9.627-9.49,15.26-10.514
			c23.87-4.348,48.026-7.087,72.027-10.751c4.975-0.758,9.731-2.953,14.58-4.482c-5.282-0.383-11.119,0.5-15.681-1.507
			c-5.062-2.229-14.862,7.532-15.385-5.81c-1.5-1.627-3-3.251-4.497-4.877c-6.728,4.385-13.458,8.771-20.189,13.149
			c-0.983-1.352-1.962-2.707-2.939-4.062c1.75-3.2,3.937-6.238,5.121-9.642c1.295-3.724,1.664-7.772,2.436-11.681
			c-6.476,7.028-12.54,14.505-19.563,20.927c-4.995,4.573-11.28,7.738-16.99,11.534c-0.897-1.059-1.799-2.117-2.694-3.172
			c4.37-7.9,8.739-15.804,13.105-23.707c3.458-2.438,6.582-6.112,10.415-7.143c79.29-21.289,150.264-6.048,210.09,51.127
			c42.588,40.689,56.865,95.546,69.936,150.458c0.955,4.015-0.327,8.571-0.565,12.874c-12.131-16.961-20.491-34.505-30.651-50.939
			c-35.646-57.641-86.214-92.559-154.688-99.128c-9.752-0.937-19.557-1.602-29.35-1.869c-61.181-1.7-111.369,20.148-143.348,73.531
			c-30.309,50.591-25.041,104.893-6.454,157.838c15.658,44.585,41.117,83.703,74.256,117.918
			c45.712,47.188,98.519,84.197,158.87,109.295c53.918,22.428,110.336,36.241,168.701,43.153
			c73.176,8.672,140.85-4.432,202.931-44.136c23.771-15.204,47.556-30.728,69.511-48.372
			c35.618-28.625,71.207-57.578,104.161-89.158c59.701-57.22,116.206-117.791,176.347-174.525
			c66.902-63.123,137.268-122.18,211.266-177.298c107.5-80.077,225.502-129.786,359.148-143.195
			c55.061-5.524,108.009,0.305,158.115,22.767c14.64,6.564,28.931,13.68,42.854,21.334c5.644-1.776,11.312-3.483,17.02-5.111
			c-8.587-4.938-17.174-9.878-25.764-14.821c-15.88-7.616-31.757-15.237-47.639-22.853c-32.448-6.45-64.896-12.905-101.58-20.205
			c11.094-2.344,18.521-3.917,25.944-5.493c0.194-1.15,0.384-2.306,0.575-3.464c-10.354-2.446-20.711-4.893-31.047-7.331
			c10.519-6.232,20.055-12.538,30.186-17.698c10.233-5.214,21.05-9.285,32.188-14.107c-12.049-7.9-30.17-7.162-38.013,3.417
			c-7.363,9.934-14.981,10.575-25.305,7.603c-6.215-1.801-12.789-2.547-19.257-3.229c-11.909-1.252-21.989-1.381-18.843,16.438
			c2.061,11.699-13.86,24.587-31.26,27.786c-27.401,5.037-53.809-17.371-45.903-40.242c2.352-6.81,11.647-14.141,18.956-15.729
			c18.42-3.99,37.517-4.842,56.34-6.948c3.974-0.446,7.945-0.898,12.526-4.555c-3.471-1.888-6.766-4.289-10.45-5.561
			c-13.841-4.795-27.935-8.89-41.709-13.858c-17.011-6.131-31.945-8.924-48.077,5.443c-7.1,6.317-22.646,6.596-33.356,4.504
			c-13.083-2.558-18.745-13.505-14.765-27.825c0.795-2.865-1.263-6.52-2.001-9.811c-1.643,1.447-3.285,2.901-4.922,4.345
			c-4.511,19.857-20.793,20.262-36.224,21.723c-15.649,1.497-28.595,3.246-30.607,24.592c-1.483,15.753-28.859,24.832-46.201,18.312
			c-23.35-8.788-26.564-16.422-17.979-42.648l-16.009,10.54c1.685,18.377-8.367,26.858-24.646,32.394
			c-11.528,3.923-25.13,8-17.683,27.237c1.847,4.764-6.417,15.2-12.165,20.851c-23.634,23.221-51.637,20.229-62.053-16.229
			c-12.136,5.952-0.812,28.585-20.087,28.394c-4.847,4.409-9.694,8.818-14.538,13.229c-10.166,3.167-20.342,6.327-30.991,9.642
			c7.934,5.708,16.1,10.691,23.094,16.969c4.075,3.668,8.744,9.346,8.882,14.238c0.565,19.578-38.309,41.409-55.781,32.046
			c-4.793-6.091-9.586-12.188-14.379-18.282c-0.95-4.032-1.907-8.07-2.856-12.107c-9.951,31.957-31.564,48.223-64.197,50.58
			c-1.345,1.428-2.683,2.859-4.022,4.29c9.923,6.194,19.891,12.329,29.743,18.639c2.218,1.422,5.451,3.188,5.833,5.247
			c3.501,18.771-10.219,28.159-21.779,38.616c-8.773,7.936-18.87,10.112-27.408,1.227c-8.196-8.527-14.328-19.048-23.229-31.243
			c-0.59,6.227-0.461,12.612-1.952,18.607c-1.749,7.05-4.908,13.755-7.453,20.611c-1.604,1.479-3.212,2.97-4.816,4.452
			c-5.945,8.884-10.551,19.878-24.953,11.068c-2.512-1.536-8.106,1.977-14.041,3.666c34.584,25.677,37.021,33.458,19.494,56.21
			c-4.858,4.383-9.708,8.77-14.56,13.152c-1.248,1.039-2.364,2.298-3.754,3.08c-25.598,14.439-35.138,10.8-43.297-25.691
			c-3.574,7.022-5.661,11.119-7.746,15.21c6.657,9.433,5.759,16.308-4.125,24.111c-12.956,10.227-24.021,22.847-35.894,34.435
			c0.521,6.911,0.968,13.822,1.587,20.725c0.467,5.191,3.531,11.927,1.331,15.283c-9.923,15.144-19.926,30.789-32.86,43.153
			c-5.161,4.93-19.32,4.841-26.839,1.428c-5.589-2.531-7.617-13.938-10.173-21.744c-1.375-4.203-0.541-9.136-0.706-13.739
			c-1.831-0.316-3.671-0.631-5.496-0.945c-1.543,7.551-3.415,15.059-4.507,22.671c-0.804,5.592-0.589,11.337-0.823,17.008
			c-14.038,11.868-28.077,23.728-42.12,35.59c20.219,5.15,25.849,16.307,14.748,32.731c-7.183,10.629-16.155,20.525-26.009,28.733
			c-8.985,7.481-20.232,10.179-31.561,2.486c-10.84-7.361-15.142-17.713-11.158-29.652c5.387-16.145,12.639-31.675,19.396-48.212
			c-2.868,1.334-6.347,2.953-9.828,4.57c-3.235,2.926-6.465,5.854-9.693,8.78c-4.759,11.781-8.749,23.96-14.583,35.179
			c-2.933,5.638-8.416,11.648-14.132,13.818c-17.533,6.641-35.729,11.496-54.793,17.398c2.252,3.039,3.985,5.613,5.958,7.988
			c16.134,19.396,11.692,35.487-12.747,43.115c-16.317,5.091-30.807,0.299-43.416-11.118c-9.416-8.532-12.023-19.435-5.332-29.202
			c6.072-8.847,15.595-15.594,24.396-22.19c4.362-3.266,10.54-4.106,18.434-6.954c-16.093-10.466-26.912-0.734-38.377,3.08
			c-3.169,3.002-6.341,6.001-9.513,9.001c-4.049,12.416-13.25,14.247-24.392,11.7c-15.675-3.589-31.411-6.953-46.905-11.199
			c-7.9-2.163-11.257-0.417-10.668,7.857c4.932,3.375,9.615,7.232,14.869,9.98c4.83,2.523,10.281,3.859,15.452,5.723
			c-0.414,1.531-0.825,3.069-1.244,4.607c-11.208-2.285-22.42-4.572-33.625-6.86l0.191-0.281c-6.285,5.559-4.537,8.878,2.914,10.741
			c6.289,1.566,12.595,3.088,18.805,4.922c6.16,1.815,12.212,3.986,18.311,6.004l-0.944,4.918
			c-19.807-4.198-39.613-8.385-59.418-12.575c-21.829,1.657-40.66-3.306-52.056-24.09c-9.071-16.558-4.492-29.206,13.369-35.886
			c6.51-2.434,13.551-3.479,20.399-4.946c6.554-1.403,13.172-2.527,19.651-6.167c-14.29-7.375-28.701-8.104-43.511-2.063
			c-5.347-0.745-10.937-0.729-15.985-2.382c-12.975-4.241-25.764-9.17-38.59-13.856c-11.313,22.177-18.852,22.595-43.915,4.686
			l-6.592-7.267c-8.444-14.184-6.023-22.283,8.132-28.224c7.707-3.241,16.199-4.698,24.322-6.944c0.17-1.794,0.356-3.605,0.52-5.404
			c-7.943-1.003-18.022-5.592-23.434-2.354c-17.475,10.461-28.21,1.739-39.281-9.526c-5.282-4.052-10.56-8.106-15.844-12.158
			c-2.032,1.865-4.06,3.729-6.092,5.592c7.806,10.416,15.614,20.836,23.424,31.253c-0.954,1.047-1.915,2.088-2.871,3.131
			c-5.458-3.677-10.912-7.353-16.37-11.031c-4.154-3.549-8.312-7.101-12.469-10.649c7.793,11.079,15.591,22.156,23.387,33.231
			c-21.656-9.699-38.971-24.42-51.562-44.605c-18.73-21.5-12.725-34.934,18.801-42.07c0.234-1.395,0.464-2.785,0.697-4.185
			l-23.593-2.378c-4.296-2.137-10.235-3.145-12.605-6.604c-11.61-16.931-10.514-21.323,6.703-38.137
			c-3.473-0.815-6.942-1.631-10.416-2.453c-1.634,1.45-3.271,2.895-4.905,4.34l-6.065,6.725
			c3.798,15.773,7.604,31.546,12.278,50.929c-8.061-7.698-13.685-13.062-19.306-18.424c-3.246,0.108-8.383,1.581-9.443,0.114
			c-11.241-15.606-3.505-65.069,13.162-73.454c10.26-5.165,21.906-7.026,28.451-17.857c2.265-3.854,4.53-7.708,6.796-11.559
			c-4.649-1.183-11.649-4.922-13.577-3.152c-15.407,14.202-29.851,29.44-44.587,44.364c-1.846,15.047-3.41,30.142-5.737,45.112
			c-0.596,3.852-3.242,7.56-5.512,10.949c-13.189,19.68-13.766,39.311-0.485,59.199c1.954,2.927,3.226,6.314,5.466,10.773
			c-12.51-5.277-12.51-5.277-29.847-48.141c0.37,12.799,0.741,25.6,1.087,37.553c-20.249-24.707-19.192-109.608,4.38-128.245
			c-1.809,10.998-3.299,20.081-4.792,29.162c0.995,0.425,1.982,0.852,2.975,1.271c3.26-6.178,6.516-12.363,11.541-21.898
			c1.357,12.086,2.343,20.83,3.326,29.577c1.146-0.06,2.291-0.116,3.435-0.177c1.777-9.369,3.561-18.741,5.344-28.106
			c0.062-10.755,0.311-21.509,0.146-32.267c-0.189-12.369,17.286-24.586,30.807-21.326c12.659,3.063,41.409-10.109,51.354-18.722
			c6.713-5.813,20.77-10.989,27.231-7.769c20.109,10.009,39.861,2.807,59.619,4.128c8.339,0.563,16.439,4.705,24.642,7.215
			c1.535,1.556,3.067,3.121,4.597,4.681c12.241,11.817,23.223,25.182,43.223,24.142c4.409-0.233,10.901,5.478,13.451,10.104
			c6.935,12.543,12.263,25.972,18.23,39.049c1.457,1.646,2.913,3.285,4.371,4.928c16.176,0.918,20.433,9.496,22.035,25.452
			c2.583,25.552,9.406,50.731,15.314,75.864c2.093,8.875,9.196,11.581,17.987,8.051c0.851-0.808,1.705-1.612,2.562-2.413
			c13.373-65.7-5.58-125.814-31.9-184.634c-2.202-4.923-4.798-9.672-7.209-14.498c-14.613-16.174-29.228-32.345-43.844-48.522
			c-33.125-24.083-69.353-40.952-110.031-47.605c-5.784-0.944-11.434-2.724-17.144-4.109c-1.517-0.082-3.024-0.157-4.536-0.235
			c-57.894,2.771-111.799,18.409-160.913,49.709c-4.996,3.18-10.587,5.415-15.896,8.094c-9.677,8.807-19.347,17.616-29.019,26.43
			C-12.21,418.123-22.177,527.314,23.289,596.03c2.837,4.29,6.984,7.714,10.528,11.536c0.447,3.983,0.892,7.973,1.343,11.955
			c7.088,13.561,23.647,21.459,23.486,39.342C64.338,662.029,71.163,664.092,75.521,668.56z M1530.553,102.172
			c1.513,1.572,3.027,3.138,4.541,4.709c-3.538,4.913-6.047,12.421-10.791,14.307c-22.842,9.094-41.514,7.823-53.82-4.626
			C1491.886,111.437,1511.217,106.805,1530.553,102.172z M1474.255,136.546c6.275,4.56,15.445,5.979,23.517,6.981
			c9.23,1.135,18.714,0.205,28.091,0.174c0.183,1.64,0.371,3.281,0.554,4.923c-7.007,1.79-14.096,3.289-20.979,5.453
			c-6.027,1.902-11.82,4.555-17.719,6.876c0.709,1.761,1.417,3.529,2.127,5.291c8.947-1.268,17.85-2.867,26.833-3.707
			c8.829-0.827,18.025-1.156,26.89-1.558c-0.146,1.433,0.005,2.592-0.137,4.019c-41.666,12.771-82.886,25.141-124.391,37.767
			l-1.417-1.559c5.506-3.662,11.355-7.642,17.323-11.724c-0.383-1.489-1.064-2.706-1.454-4.193
			c-12.764,2.029-25.671,4.193-38.44,6.227c-0.447-0.946-0.97-1.816-1.422-2.76c7.624-4.76,15.213-9.482,22.833-14.244
			c-0.226-1.252-0.463-2.488-0.689-3.736c-10.131-0.097-20.265-0.192-30.397-0.286c-0.278-1.012-0.564-2.024-0.846-3.043
			c5.586-2.758,11.538-4.978,16.664-8.418c6.977-4.686,14.58-9.299,19.695-15.712
			C1435.996,124.337,1454.475,122.184,1474.255,136.546z M1292.233,198.096c3.824-5.271,7.592-11.397,12.914-14.634
			c33.793-20.564,67.716-41.069,106.56-50.711c1.279,2.29,2.556,4.585,3.834,6.88c-25.913,11.201-51.824,22.4-78.079,33.752
			c1.847,3.155,2.157,4.536,2.884,4.816c13.289,5.056,25.031,11.747,26.168,27.9c1.309,18.488-13.621,24.687-25.94,32.204
			c-13.264,8.094-27.722,10.857-41.757,2.221C1286.062,232.674,1282.993,210.819,1292.233,198.096z M1215.743,234.204
			c12.306-14.475,26.476-26.175,45.589-30.528c1.265,1.828,2.53,3.649,3.796,5.475c-15.213,10.148-30.431,20.291-45.645,30.441
			C1218.24,237.794,1216.992,236.002,1215.743,234.204z M1186.582,272.604c12.076-12.997,23.294-25.8,45.51-22.658
			c10.389,1.473,22.445-8.9,35.717-11.188c-8.081,6.481-16.163,12.97-24.247,19.452c0.689,1.11,1.373,2.216,2.061,3.324
			c13.089-4.947,26.179-9.891,39.271-14.83c0.76,1.317,1.522,2.636,2.276,3.957c-13.684,9.616-27.371,19.236-41.057,28.855
			c0.996,1.625,1.985,3.251,2.976,4.874c16.96-6.345,33.924-12.684,50.879-19.026c0.674,1.511,1.346,3.019,2.019,4.53
			c-32.68,20.678-65.355,41.351-97.483,61.674c-3.171-3.073-6.585-7.585-11.046-10.502
			C1174.993,308.999,1171.572,288.757,1186.582,272.604z M1152.308,291.936c1.016,1.319,2.034,2.641,3.058,3.96
			c-10.798,9.8-21.611,19.575-32.379,29.402c-9.223,8.427-10.033,16.795,1.528,23.444c13.577,7.805,13.35,18.212,7.453,30.521
			c-7.573,15.806-17.932,29.812-35.642,33.104c-9.486,1.767-21.998-0.22-29.812-5.474c-8.335-5.604-12.997-8.811-22.031-2.197
			c-5.724,4.189-13.686,5.309-19.324,7.332C1051.962,355.396,1101.912,323.418,1152.308,291.936z M964.269,452.773
			c21.673-19.024,40.91-22.382,53.152-9.26c17.132,18.346,13.987,42.196-8.212,62.248c-18.858,17.043-36.019,18.891-48.567,5.236
			C942.681,491.458,943.983,470.579,964.269,452.773z M916.179,514.761c-8.077,23.403-33.644,48.5-50.681,48.126
			C881.519,544.899,892.062,523.819,916.179,514.761z M840.127,609.989c7.319-25.444,35.108-42.358,61.165-37.264
			c11.747,2.295,19.024,12.646,14.188,24.389c-4.596,11.148-12.765,20.829-19.356,31.153c-21.271,17.125-30.983,19.409-45.812,9.823
			C839.609,631.176,836.738,621.793,840.127,609.989z M293.174,755.63c-16.696-7.974-33.383-15.944-50.078-23.925
			c-0.508,0.876-1.02,1.746-1.529,2.619c10.161,7.353,20.323,14.71,30.487,22.066c-0.872,1.081-1.754,2.159-2.632,3.243
			c-34.031-12.858-58.057-38.435-80.567-64.447c4.64-4.845,9.22-7.899,11.367-12.173c8.623-17.168,26.326-23.357,42.231-11.423
			c20.456,15.358,39.181,33.028,58.113,52.115c-10.284-4.353-20.571-8.704-30.854-13.059c-0.702,1.214-1.4,2.424-2.105,3.641
			c14.424,7.882,28.851,15.769,43.28,23.65l-2.377,5.609c-15.571-6.087-31.146-12.17-46.719-18.259
			c-0.544,0.948-1.092,1.896-1.635,2.843l35.125,23.254C294.579,752.802,293.873,754.217,293.174,755.63z M405.277,800.795
			c-16.494,14.391-39.185,11.645-56.414-6.82c-13.523-14.496-15.281-33.599-4.009-43.597c14.102-12.512,44.458-7.64,60.09,9.647
			C418.954,775.525,419.066,788.768,405.277,800.795z M718.3,713.965c9.191-19.716,20.677-34.488,45.284-36.681
			c10.776-0.962,20.786-10.548,32.551-16.981c-6.126,6.714-11.892,13.027-17.467,19.125c16.489,21.864,16.62,25.174-0.806,45.576
			c-6.668,7.807-14.003,15.422-22.291,21.378c-10.134,7.278-21.764,7.898-31.496-1.226
			C714.862,736.523,712.666,726.079,718.3,713.965z M677.447,714.103c-11.35,14.491-25.729,17.858-42.497,9.666
			C650.136,720.309,662.569,717.485,677.447,714.103z M570.028,757.276c36.963-4.667,73.918-9.337,111.509-14.084
			c-35.647,15.381-70.581,32.352-110.736,18.679C570.543,760.339,570.287,758.811,570.028,757.276z M568.31,774.335
			c9.125,0.017,18.648,0.312,27.256,2.942c6.872,2.1,16.299,6.754,17.959,12.27c2.062,6.881-0.024,19.28-5.042,23.132
			c-10.177,7.808-23.099,13.987-35.69,16.155c-13.558,2.332-29.758-2.711-33.239-17.038c-2.376-9.749,5.526-21.999,8.752-32.869
			C557.235,776.766,562.774,774.338,568.31,774.335z M542.86,773.291c-7.827,2.67-14.203,7.338-19.147,6.136
			c-36.864-8.978-73.543-18.786-110.033-29.183c-6.734-1.919-12.369-7.676-18.506-11.662c0.534-1.111,1.075-2.227,1.615-3.342
			C443.965,747.529,491.147,759.821,542.86,773.291z M485.418,737.812c-0.477,1.31-0.96,2.616-1.438,3.925
			c-44.112-0.433-84.311-13.828-121.188-38.115C403.667,715.016,444.536,726.417,485.418,737.812z M327.935,673.424
			c10.607,3.946,21.22,7.895,31.824,11.846c-1.11,2.4-2.221,4.805-3.331,7.202c-10.332-4.229-20.657-8.46-30.986-12.69
			C326.269,677.661,327.104,675.542,327.935,673.424z M372.894,725.27c-0.741,2.298-1.481,4.601-2.225,6.896
			c-11.746-5.021-23.493-10.036-35.244-15.057c1.022-2.485,2.044-4.972,3.063-7.461C349.958,714.857,361.428,720.062,372.894,725.27
			z M303.568,661.015c-0.947,1.204-1.895,2.407-2.84,3.619c-16.757-10.071-33.511-20.132-54.015-32.456
			C262.923,629.77,287.808,644.184,303.568,661.015z M183.916,565.308c15.767,15.611,31.541,31.22,48.442,47.956
			C214.36,613.959,189.159,590.15,183.916,565.308z M143.989,576.92c-6.799-11.169-15.774-25.912-24.877-40.874
			c8.846-1.757,14.155-2.811,16.814-3.337c18.848,23.081,36.545,47.064,56.699,68.766c20.183,21.732,42.82,41.186,64.38,61.635
			c-0.919,1.215-1.846,2.431-2.767,3.648c-26.001-19.637-52.003-39.276-79.859-60.319c0.721,21.925,23.013,28.791,28.756,45.302
			c-1.117,1.146-2.231,2.289-3.342,3.44c-9.075-7.618-18.029-15.343-27.104-22.955c-1.085,1.088-3.179,3.093-3.126,3.153
			l22.478,24.793c-2.347,2.277-2.807,2.852-4.152,4.222c-9.346-7.423-18.759-14.777-28.11-22.202
			c-0.554,0.35-1.146,0.728-1.703,1.074c4.809,7.282,9.599,14.577,15.127,22.934c-20.444-7.299-47.489-45.328-44.385-64.12
			C130.181,593.844,137.87,586.657,143.989,576.92z M119.035,312.291c-5.838,17.191-11.157,32.873-17.27,50.869
			C93.724,345.792,102.5,321.52,119.035,312.291z M58.032,443.929c3.066,0.089,6.125,0.176,9.19,0.264
			c-2.491,10.759-4.976,21.517-7.468,32.276c-0.677,0.032-1.354,0.065-2.036,0.105C57.823,465.689,57.925,454.811,58.032,443.929z"
			/>
	</g>
	
		<use xlink:href="#SVGID_1_"  overflow="visible" fill-rule="evenodd" clip-rule="evenodd" fill="none" stroke="#808080" stroke-miterlimit="10"/>
</g>
</svg>
