<?xml version="1.0" encoding="utf-8"?>
<!-- Generator: Adobe Illustrator 16.0.4, SVG Export Plug-In . SVG Version: 6.00 Build 0)  -->
<!DOCTYPE svg PUBLIC "-//W3C//DTD SVG 1.1//EN" "http://www.w3.org/Graphics/SVG/1.1/DTD/svg11.dtd">
<svg version="1.1" id="Layer_1" xmlns="http://www.w3.org/2000/svg" xmlns:xlink="http://www.w3.org/1999/xlink" x="0px" y="0px"
	 width="516px" height="406px" viewBox="0 0 516 406" enable-background="new 0 0 516 406" xml:space="preserve">
<g>
	<path fill="#666666" d="M141.696,273.535c0-2.807-0.003-5.613,0.001-8.419c0.006-4.208-0.036-4.292,4.012-6.46
		c2.459-1.315,4.816-2.871,7.252-4.106c5.837-2.96,11.271-6.595,17.093-9.534c1.042-0.525,1.315-0.906,0.948-1.795
		c-1.681-4.07-3.258-8.17-4.078-12.518c-1.705-1.076-0.329-3.182-1.208-4.194c-1.13-1.301-0.66-2.589-0.878-3.891
		c-0.301-1.792-0.792-3.558-1.01-5.358c-0.201-1.654-0.58-3.279-0.866-4.861c-0.385-2.135-1.021-4.641,0.7-6.983
		c0.973-1.325-0.716-3.791,1.188-5.26c-0.131-3.965,2.836-6.054,5.314-8.276c1.131-1.015,2.753-1.572,4.532-1.731
		c7.836-0.7,14.595,2.525,21.389,5.603c0.935,0.423,1.011,0.975,1.454-0.428c1.286-4.075,1.834-8.32,2.897-12.444
		c1.152-4.47,2.669-8.726,4.458-12.917c0.53-1.242,1.831-2.232,0.001-3.378c-0.56-4.464-2.396-8.706-2.18-13.315
		c0.139-2.976,0.084-5.964,0.015-8.944c-0.198-8.505,2.324-16.215,5.917-23.87c3.436-7.321,8.008-13.573,13.907-18.951
		c1.635-1.491,2.473-3.046,2.352-5.382c-0.218-4.198-0.111-8.417-0.039-12.625c0.032-1.874-0.332-3-2.377-3.885
		c-5.135-2.22-9.646-5.475-13.312-9.786c-4.223-4.968-7.025-10.549-8.687-16.945c-1.166-4.486-1.285-8.956-0.738-13.261
		c0.781-6.158,2.879-12.029,6.91-17.111c2.43-3.063,4.945-5.807,8.128-8.152c4.205-3.097,8.775-4.874,13.724-6.349
		c4.817-1.437,9.567-0.637,14.337-0.879c2.257-0.114,10.045,3.433,12.36,4.409c3.767,1.587,6.318,4.479,9.147,7.147
		c4.475,4.224,7.139,9.432,8.982,15.236c0.631,1.984,0.948,3.876,0.993,5.905c0.024,1.144-0.501,2.438,0.771,3.382
		c0.285,0.212,0.354,0.998,0.229,1.436c-1.308,4.595-1.026,9.521-3.103,13.972c-2.254,4.833-4.83,9.439-8.565,13.28
		c-3.282,3.376-7.402,5.605-11.523,7.743c-1.103,0.571-1.083,0.993-0.758,1.885c0.525,1.438,1,2.896,1.497,4.345
		c1.187-1.586,2.892-0.699,4.362-0.891c3.006-0.393,6.071-1.241,9.024-0.965c8.545,0.797,17.024,1.853,24.98,5.683
		c9.211,4.435,17.588,10.133,23.361,17.214c2.194,2.692,4.272,5.548,5.945,8.583c2.346,4.256,4.456,8.67,6.279,13.174
		c0.854,2.107,0.548,4.655,1.195,6.878c1.887,6.468,0.658,13.053,0.97,19.575c0.062,1.292,0.263,2.573-0.656,3.961
		c-0.458,0.693,0.434,3.008,1.376,3.77c3.296,2.662,4.825,6.457,6.497,10.001c1.573,3.335,2.662,6.957,3.463,10.684
		c1.553,7.23,0.601,14.467,0.921,21.688c0.088,1.926-0.026,3.859,0.027,5.789c0.043,1.539,0.808,1.688,1.983,0.898
		c0.399-0.27,0.945-0.706,1.296-0.607c4.41,1.252,9.171,1.064,13.323,3.396c5.979,3.357,10.359,8.066,12.861,14.499
		c1.688,4.333,3.258,8.677,3.155,13.43c-0.042,1.929-0.08,3.861,0.006,5.786c0.371,8.335-2.161,16.092-4.709,23.84
		c-2.479,7.543-6.438,14.195-12.274,19.641c-4.314,4.026-9.229,6.92-15.188,7.802c-1.282,0.188-2.503,0.877-3.781,0.983
		c-2.252,0.192-4.525,0.115-6.793,0.151c-0.14,2.571-0.343,5.146-0.402,7.719c-0.07,2.98,0.024,5.964-0.028,8.944
		c-0.047,2.542-0.111,2.34-3.039,2.225c-5.231-0.21-10.312-1.507-15.4-2.377c-4.649-0.794-9.521-1.076-13.988-2.936
		c-3.146,0.785-5.983-0.928-9.026-1.165c-2.744-0.216-5.567-0.65-8.224-1.668c-2.346-0.899-5.137,0.457-7.322-1.378
		c-5.299,0.404-10.143-2.508-15.44-2.104c-2.768-1.893-6.134-1.078-9.185-1.88c-2.813-0.737-5.831-2.075-8.977-1.276
		c-2.497-2.215-5.799-0.524-8.69-1.918c-2.581-1.244-6.159-0.315-8.883-1.394c-3.037-1.2-6.195-0.946-9.243-1.731
		c-2.822-0.727-5.94-1.177-8.948-1.533c-2.803-0.334-5.779-1.076-8.647-1.775c-2.758-0.671-5.707-0.544-8.481-1.167
		c-6.18-1.39-12.405-2.381-18.669-3.306c-2.826-0.415-5.777-1.147-8.645-1.842c-2.759-0.67-5.731-0.486-8.47-1.209
		c-2.318-0.611-4.578-0.922-6.951-1.024c-1.58-0.069-2.194-1.317-2.171-2.927C141.734,281.253,141.696,277.395,141.696,273.535z
		 M210.107,254.416c-0.07-0.95,0.443-2.157-1.359-2.132c-2.871,0.041-5.697,0.182-8.552-0.911c-1.774-0.68-4.009,0.225-5.887-1.09
		c-0.41-0.288-1.559,0.287-2.272,0.652c-5.818,2.976-11.682,5.869-17.063,9.631c-1.116,0.781-2.44,1.263-3.667,1.884
		c1.3,0.248,2.785,0.177,3.864,0.805c2.779,1.619,6.194-0.542,8.791,1.675c0.102,0.088,0.342,0.023,0.517,0.01
		c0.336-0.028,0.833,0.058,0.98-0.129c1.524-1.926,3.922-2.441,5.837-3.72c1.531-1.021,2.868-2.345,4.44-3.282
		c1.09-0.65,2.911-1.601,3.585-1.16c2.715,1.774,5.113,0.44,7.628-0.127c0.156,0.748-0.51,1.883,0.832,2.082
		c0.856,0.125,1.753-0.049,2.618,0.047c0.601,0.065,1.176,0.359,1.763,0.553c-0.495,0.495-0.91,1.135-1.499,1.461
		c-3.103,1.715-5.945,3.762-8.39,6.336c-0.189,0.2-0.284,0.488-0.422,0.736c0.3,0.121,0.592,0.318,0.901,0.351
		c3.702,0.37,7.408,0.704,11.109,1.077c0.477,0.048,1.078,0.128,1.376,0.434c1.014,1.034,1.729,0.625,2.573-0.232
		c3.189-3.242,6.423-6.443,9.639-9.66c1.235-1.236,2.47-2.477,3.705-3.712c-1.677-0.175-3.355-0.351-5.033-0.522
		c-0.67-0.07-1.366-0.05-2.009-0.223C218.297,253.682,214.098,253.417,210.107,254.416z M223.79,190.214
		c-3.813-0.438-7.273,0.444-9.403,3.754c-1.74,2.701-3.187,5.69-4.195,8.738c-1.077,3.26-1.702,6.713-2.144,10.13
		c-0.884,6.829,1.18,13.35,3.286,19.625c1.425,4.249,4.121,8.173,9.101,9.739c3.444,1.083,6.74,1.164,9.554-0.938
		c4.256-3.179,6.801-7.673,8.571-12.68c1.776-5.021,2.123-10.143,2.162-15.414c0.03-3.941-1.186-7.145-3.529-10.137
		c-0.469-0.599-0.525-1.521-0.772-2.293c0.352,0,0.833-0.151,1.034,0.023c2.284,1.968,5.132,2.835,7.792,4.066
		c5.656,2.618,18.192,4.532,22.921,4.289c1.797-0.093,3.568-0.955,5.352-0.943c2.916,0.017,5.545-1.022,8.238-1.774
		c4.251-1.185,8.289-2.908,11.922-5.506c0.697-0.498,2.211-1.067,2.426-0.815c0.957,1.12-0.295,1.777-0.975,2.451
		c-2.797,2.777-5.492,5.628-8.807,7.884c-2.467,1.679-4.891,3.453-7.295,5.222c-2.416,1.776-4.967,3.368-7.32,5.187
		c-5.061,3.908-10.982,6.723-15.12,11.822c-1.417,1.746-1.927,3.808-2.237,5.904c-0.291,1.973,1.01,3.422,2.126,4.885
		c3.67,4.805,9.158,5.743,14.558,6.743c4.817,0.894,9.472-1.329,14.282-1.022c5.093-2.892,11.572-2.791,15.882-7.366
		c4.647-1.535,7.754-5.359,11.157-8.4c4.046-3.616,7.422-8.302,10.068-13.086c3.82-6.903,6.861-14.293,6.571-22.484
		c-0.069-1.968-0.719-3.91-0.998-5.878c-0.55-3.872-1.869-7.225-4.668-10.204c-3.44-3.661-10.372-3.71-13.819,0.002
		c-3.623,3.902-7.291,7.789-11.746,10.881c-9.358,6.497-19.697,9.841-31.013,10.185c-3.194,0.097-6.351,0.067-9.607-0.812
		c-2.653-0.716-5.552-1.006-8.172-1.933c-5.715-2.021-11.077-4.6-16.034-8.362c-6.618-5.022-11.898-10.953-15.806-18.169
		c-2.5-4.619-4.342-9.502-4.945-14.784c-0.041-0.355-0.426-0.669-0.653-1.001c-0.125,0.298-0.317,0.587-0.366,0.897
		c-0.358,2.317,1.057,8.695,2.566,12.604c2.445,6.333,5.082,12.529,10.019,17.432C224.019,188.931,223.79,189.688,223.79,190.214z
		 M275.615,160.543c1.107-0.371,3.257,0.762,5.529-0.607c1.855-1.118,4.481-0.518,6.844-1.125
		c9.229-2.371,15.841-5.826,20.897-10.771c2.136-2.088,1.683-4.661,3.127-6.705c0.647-0.915,0.346-2.256-0.765-3.229
		c-0.354-0.31-0.146-1.333-0.094-2.022c0.312-4.14-1.414-7.745-2.926-11.417c-2.949-7.17-7.662-12.771-14.021-17.297
		c-7.196-5.124-14.772-8.691-23.76-8.748c-1.308-0.008-2.794,0.602-3.892-0.81c-0.179-0.229-1.177-0.223-1.338,0.002
		c-0.922,1.287-2.238,0.89-3.365,0.801c-5.873-0.465-11.084,1.682-16.237,4.011c-7.484,3.382-13.892,8.197-18.278,15.214
		c-1.961,3.137-4.381,6.127-4.966,10.043c-0.208,1.388-1.413,2.616-1.671,4.009c-0.312,1.691,0.457,3.751-0.23,5.173
		c-1.921,3.974-0.171,6.846,1.734,10.137c2.057,3.553,5.382,5.45,8.617,7.112c8.009,4.113,16.74,5.897,25.727,6.456
		c2.326,0.144,4.676-0.598,7.01,0.904c1.115,0.718,3.447,0.71,4.573-0.002C270.302,160.3,272.473,161.039,275.615,160.543z
		 M238.108,11.337c-6.213-0.412-11.594,1.13-16.998,3.923c-3.5,1.809-5.944,4.42-8.698,6.884
		c-6.804,6.085-8.425,14.401-9.587,22.827c-0.234,1.702,0.842,3.545,0.922,5.34c0.176,3.89,1.568,7.574,3.359,10.697
		c3.916,6.831,9.805,11.913,17.005,15.315c0.846,0.399,1.759,0.5,1.771-0.841c0.036-4.031,0.067-8.065-0.037-12.094
		c-0.02-0.732-0.506-1.801-1.096-2.113c-5.179-2.744-5.88-8.334-8.327-12.808c-0.473-6.992,0.948-13.197,6.009-18.583
		c6.75-7.182,22.336-8.791,28.84-0.128c1.517,2.022,3.767,3.469,4.798,5.915c2.071,4.915,1.325,10.072,1.324,15.165
		c-1.569,1.182-1.233,3.275-2.437,4.835c-1.458,1.889-3.048,3.623-4.621,5.394c-0.403,0.454-1.138,1.224-1.011,1.445
		c1.684,2.955,0.221,6.159,0.87,9.133c0.19,0.87,1.121,1.6,0.987,2.743c-0.091,0.779,0.039,1.116,1.072,0.604
		c4.084-2.033,8.31-4.116,10.838-7.922c3.041-4.577,6.343-8.943,7.203-14.926c1.172-8.156,0.935-13.898-2.228-21.455
		c-2.736-6.543-7.33-11.455-13.146-14.859C249.844,12.855,244.184,10.469,238.108,11.337z M277.079,269.15
		c0.876,0,1.228,0.017,1.577-0.004c2.22-0.117,3.021-0.959,3.021-3.16c-0.002-2.201-0.77-3.032-3.032-3.146
		c-6.067-0.301-11.935-2.303-18.061-2.13c-0.291,0.01-0.579-0.285-0.887-0.378c-4.042-1.208-5.488-1.336-7.633,3.051
		c-0.606,1.24-1.191,1.431,0.621,1.622c1.586,0.168,3.688,0.444,4.529,1.498c1.277,1.602-1.703,2.092-1.917,3.694
		c-0.142,1.067-0.935,2.047-1.42,3.073c-0.752,1.59-0.097,3.071,1.543,3.218c1.562,0.14,3.605-0.558,4.607,0.204
		c1.527,1.164,2.966,0.603,4.418,0.885c1.615,0.312,3.207,0.753,4.828,1.023c1.121,0.187,1.597-0.104,2.002-1.526
		c0.752-2.64,0.727-5.583,2.502-7.88c0.414-0.537,0.885-1.637,1.891-0.362C275.98,269.229,276.93,269.123,277.079,269.15z
		 M309.041,282.908c0-0.525,0.167-1.124-0.028-1.562c-0.909-2.056-0.621-4.351-1.183-6.357c-0.658-2.344-0.852-4.603-0.935-6.955
		c-0.012-0.34-0.621-0.98-0.848-0.936c-1.797,0.352-3.192-0.91-4.825-1.088c-3.699-0.402-7.41-0.689-11.109-1.092
		c-0.793-0.086-1.536-0.561-2.329-0.686c-1.16-0.182-2.446-0.508-3.472-0.162c-0.442,0.149-0.33,1.838-0.549,2.807
		c-0.104,0.463-0.351,0.914-0.617,1.312c-0.758,1.139-0.729,1.905,0.857,2.008c0.523,0.035,1.053-0.029,1.574,0.011
		c3.973,0.308,4.531,0.905,4.518,4.802c-0.002,0.7-0.012,1.401,0.002,2.102c0.029,1.494-1.986,2.74-0.889,4.199
		c1.041,1.387,3.494-0.475,4.609,1.504c0.086,0.149,0.668-0.01,1.016,0.022c3.529,0.345,7.062,0.688,10.588,1.062
		c0.477,0.051,0.938,0.262,1.403,0.404C309.019,284.979,309.019,284.98,309.041,282.908z M234.844,256.411
		c-1.551-0.207-2.573,0.474-3.621,1.567c-3.375,3.522-6.879,6.924-10.322,10.383c-1.35,1.354-1.346,1.393,0.633,2.199
		c0.746,0.305,1.535,0.575,2.329,0.672c1.639,0.199,3.185,0.257,4.864,0.881c1.891,0.703,4.525,0.382,6.489-0.385
		c1.636-0.639,3.43-2.334,3.996-3.965c1.438-4.146,4.602-4.363,7.795-3.729c1.72,0.341,2.472,0.562,3.145-1.204
		c0.341-0.895,1.224-1.573,1.805-2.391c0.594-0.834,0.209-1.775-0.752-1.799c-1.916-0.049-4.254,0.672-5.649-0.184
		c-1.891-1.158-3.638-0.578-5.417-0.898C238.362,257.238,236.608,256.798,234.844,256.411z M244.145,44.617
		c0.144-1.975-1.065-2.993-2.168-4.107c-1.432-1.446-2.977-2.886-5.071-2.836c-1.837,0.044-3.271,1.321-4.706,2.493
		c-1.354,1.108-1.115,2.456-1.01,3.774c0.129,1.624-0.703,3.405,1.044,4.809c1.443,1.161,2.897,2.64,4.7,2.422
		c1.848-0.223,3.883-1.008,5.277-2.201C243.3,48.039,243.532,46.105,244.145,44.617z"/>
	<path fill="#666666" d="M47.654,355.455c2.688,0.102,5.333-0.194,7.995,0.988c5.646,2.51,12.591,8.049,12.356,16.623
		c-0.069,2.557,0.062,5.215-0.595,7.637c-1.842,6.779-6.359,11.191-13.11,13.15c-1.596,0.463-3.353,0.354-5.032,0.547
		c-7.1,0.819-12.893-0.479-18.167-5.959c-3.715-3.859-5.35-8.672-5.208-14.112c0.137-5.252,1.995-9.755,5.666-13.399
		c3.533-3.508,7.898-5.38,12.943-5.472C45.553,355.438,46.604,355.455,47.654,355.455z M47.133,362.721
		c-1.711,0.11-3.934-0.408-5.023,0.473c-2.111,1.705-5.259,2.428-6.006,5.714c-0.623,2.739-3.2,5.256-0.709,8.252
		c-0.436,4.11,1.906,6.937,5.019,8.7c2.837,1.608,6.089,2.192,9.647,1.273c4.663-1.203,9.136-5.537,9.541-10.251
		c0.278-3.241,0.01-6.513-1.992-9.101C55.045,364.467,51.881,361.818,47.133,362.721z"/>
	<path fill="#666666" d="M105.911,374.619c0-4.546-0.003-9.092,0.001-13.639c0.004-4.463,0.007-4.467,4.227-4.474
		c3.497-0.005,6.996-0.062,10.491,0.013c7.173,0.154,12.176,3.506,15.934,9.711c2.469,4.078,1.742,8.166,1.959,12.322
		c0.14,2.668-1.83,4.488-2.92,6.65c-2.058,4.08-6.076,5.74-9.815,7.717c-0.423,0.223-0.922,0.371-1.398,0.41
		c-4.921,0.411-9.777,1.533-14.779,1.102c-3.006-0.262-3.662-0.656-3.687-3.552C105.878,385.461,105.911,380.04,105.911,374.619z
		 M114.331,374.382c0,3.675-0.032,7.347,0.035,11.019c0.01,0.549,0.529,1.574,0.737,1.556c2.835-0.261,5.784,0.869,8.513-0.944
		c2.722-1.809,4.778-3.757,5.868-7.143c2.497-7.754-2.331-16.114-11.188-16.057c-3.946,0.026-3.951-0.021-3.962,3.699
		C114.325,369.135,114.331,371.759,114.331,374.382z"/>
	<path fill="#666666" d="M165.903,375.188c0-5.601,0.072-11.201-0.042-16.801c-0.036-1.762,0.693-1.938,2.147-1.908
		c4.373,0.08,8.753-0.069,13.125,0.057c4.346,0.124,7.644,2.049,9.408,6.193c1.271,2.985,1.182,6.351,0.27,9.066
		c-0.721,2.146-2.347,4.871-5.266,5.566c-1.715,0.408-2.309,0.683-1.095,2.633c0.915,1.469,2.021,2.66,3.081,3.954
		c1.054,1.286,1.969,2.688,2.994,4c0.428,0.548,1.096,0.928,1.45,1.509c0.847,1.386,1.572,2.845,2.346,4.273
		c-1.474,1.385-3.267,0.422-4.897,0.645c-0.859,0.117-1.769-0.104-2.618,0.048c-1.492,0.265-2.423-0.651-2.965-1.646
		c-2.29-4.213-5.775-7.627-7.868-11.961c-0.215-0.447-0.722-0.754-1.093-1.125c-0.185,0.429-0.527,0.854-0.531,1.285
		c-0.042,3.85-0.045,7.701-0.012,11.551c0.01,1.152,0.006,2.056-1.605,1.895c-2.214-0.223-4.446-0.271-6.67-0.396
		c-0.052-2.077-0.138-4.155-0.149-6.234C165.887,383.59,165.903,379.391,165.903,375.188z M174.323,367.473
		c0,1.578-0.048,3.159,0.034,4.732c0.021,0.393,0.41,1.037,0.721,1.098c2.245,0.436,4.346-0.156,6.297-1.238
		c1.955-1.082,1.294-3.01,1.363-4.684c0.029-0.699,0.203-1.482-0.041-2.085c-0.362-0.892-1.064-2.369-1.576-2.351
		c-2.234,0.082-4.375-2.368-6.234-0.91c-0.912,0.714-0.422,3.218-0.562,4.91C174.311,367.121,174.323,367.297,174.323,367.473z"/>
	<path fill="#666666" d="M71.179,370.262c0-4.031,0.068-8.063-0.036-12.094c-0.038-1.491,0.582-1.744,1.839-1.678
		c2.079,0.111,4.164,0.121,6.245,0.172c0.124,2.052,0.338,4.104,0.354,6.156c0.048,5.959,0.007,11.918,0.025,17.877
		c0.003,1.341,0.112,2.496,0.943,3.834c2.259,3.639,2.801,4.146,8.016,3.531c2.716-0.32,3.985-2.084,4.806-4.666
		c0.682-2.146,0.992-4.22,0.977-6.43c-0.043-6.309,0.005-12.619-0.035-18.93c-0.007-1.076,0.256-1.605,1.428-1.541
		c2.242,0.124,4.488,0.177,6.732,0.259c0.093,2.063,0.25,4.13,0.267,6.194c0.04,4.908,0.133,9.82-0.034,14.722
		c-0.097,2.843-0.338,5.759-1.097,8.479c-0.726,2.604-2.543,4.812-5.004,6.094c-2.161,1.127-4.542,1.734-6.925,2.391
		c-3.299,0.906-6.144-1.015-9.184-0.236c-3.453-1.838-6.81-3.769-8.271-7.744c-0.699-1.9-1.159-3.801-1.083-5.877
		C71.273,377.275,71.179,373.768,71.179,370.262z"/>
	<path fill="#666666" d="M396.643,356.507c7.005,0,14.01,0.06,21.013-0.041c1.733-0.024,1.96,0.656,1.942,2.13
		c-0.015,1.418-0.114,2.252-1.908,2.166c-2.417-0.115-4.85,0.084-7.273,0.146c-0.111,2.58-0.304,5.16-0.319,7.74
		c-0.044,7.354,0.005,14.707-0.023,22.062c-0.015,3.04-1.311,4.166-4.062,3.688c-1.341-0.233-2.154-0.979-2.232-2.358
		c-0.062-1.048-0.013-2.101-0.013-3.151c0-8.58,0.011-17.158-0.008-25.738c-0.004-2.397-0.042-2.422-2.595-2.428
		c-6.479-0.017-12.961,0.111-19.436-0.074c-2.107-0.061-2.3,0.724-2.197,2.412c0.157,2.599,0.133,5.207,0.186,7.812
		c2.575,0.123,5.15,0.276,7.728,0.358c1.75,0.056,3.512,0.121,5.25-0.022c1.602-0.132,1.688,0.731,1.604,1.896
		c-0.081,1.116,0.48,2.475-1.643,2.39c-3.671-0.148-7.354,0.022-11.028-0.072c-1.499-0.039-2.152,0.246-2.107,1.952
		c0.12,4.549,0.078,9.104,0.026,13.654c-0.03,2.621-0.911,3.443-3.321,3.369c-2.09-0.064-2.948-0.91-2.965-3.198
		c-0.042-5.953-0.061-11.907-0.001-17.859c0.057-5.555,0.225-11.106,0.343-16.662c5.404-0.057,10.811-0.12,16.215-0.167
		C392.091,356.49,394.366,356.507,396.643,356.507z"/>
	<path fill="#666666" d="M140.644,375.521c0-5.609,0.125-11.225-0.065-16.828c-0.071-2.077,0.682-2.25,2.397-2.223
		c5.959,0.096,11.921,0.104,17.88-0.006c1.753-0.033,2.097,0.682,1.897,2.145c-0.047,0.344-0.007,0.699-0.007,1.051
		c0,3.125,0,3.141-2.93,3.158c-2.98,0.019-5.961,0.047-8.94-0.017c-1.245-0.026-1.985,0.164-1.833,1.675
		c0.222,2.213,0.301,4.439,0.442,6.66c2.089,0.035,4.178,0.077,6.267,0.104c1.227,0.015,2.455-0.006,3.682,0.005
		c3.826,0.03,3.281-0.547,3.306,3.306c0.02,2.977-0.004,2.987-3.08,3.004c-2.98,0.016-5.963,0.088-8.939-0.031
		c-1.5-0.061-1.731,0.592-1.675,1.844c0.11,2.43,0.123,4.863,0.175,7.296c2.403,0.122,4.807,0.261,7.211,0.36
		c1.05,0.043,2.104,0.002,3.155,0.008c3.122,0.021,3.122,0.023,3.158,2.408c0.067,4.408-0.211,4.908-3.33,4.94
		c-5.785,0.062-11.57-0.004-17.354,0.036c-1.162,0.009-1.445-0.456-1.437-1.54C140.666,387.091,140.644,381.307,140.644,375.521z"/>
	<path fill="#666666" d="M459.67,375.576c0.519,8.232-4.138,12.904-10.679,16.816c-4.716,2.82-9.609,2.055-14.434,1.873
		c-3.803-0.144-7.07-2.582-9.975-4.941c-3.934-3.195-5.618-7.776-6.011-12.695c-0.197-2.469,0.188-4.95,0.741-7.497
		c0.744-3.429,3.284-5.362,4.847-7.997c1.135-1.915,3.82-3.117,6.048-4.117c2.232-1.002,4.614-1.812,7.241-1.606
		c3.03,0.237,6.036-0.077,9.048,1.034c6.352,2.349,10.639,6.615,12.699,12.967C459.814,371.316,459.537,373.514,459.67,375.576z
		 M454.285,375.454c0.011-4.161-0.193-4.067-2.027-8.071c-1.074-2.345-2.824-4.166-4.711-5.26c-2.449-1.418-5.645-2.527-8.368-2.256
		c-3.778,0.375-7.92,1.225-10.742,4.185c-2.755,2.888-4.79,6.339-4.673,10.607c0.272,9.825,6.954,15.071,15.394,15.325
		C447.398,390.234,454.71,383.336,454.285,375.454z"/>
	<path fill="#666666" d="M298.518,373.865c0-5.785-0.006-11.569,0.016-17.354c0.001-0.301,0.23-0.6,0.354-0.899
		c0.248,0.144,0.523,0.255,0.739,0.435c2.217,1.851,4.521,3.61,6.617,5.591c7.954,7.516,15.832,15.113,23.778,22.639
		c0.397,0.377,1.169,0.442,1.771,0.461c0.122,0.004,0.386-0.871,0.387-1.342c0.023-8.237-0.002-16.478,0.052-24.717
		c0.005-0.726,0.332-1.941,0.765-2.068c0.93-0.274,2.041-0.065,3.042,0.131c0.204,0.039,0.354,0.891,0.354,1.365
		c0.021,11.57,0.021,23.141,0,34.709c-0.001,0.477-0.216,1.351-0.354,1.355c-0.593,0.021-1.217-0.16-1.784-0.382
		c-0.299-0.118-0.501-0.478-0.754-0.722c-8.035-7.686-16.049-15.394-24.126-23.034c-1.585-1.501-3.409-2.747-5.123-4.109
		c-0.37-0.294-0.743-0.584-1.115-0.876c-0.136,0.471-0.388,0.939-0.389,1.41c-0.022,8.238,0.002,16.479-0.052,24.717
		c-0.004,0.727-0.332,1.941-0.764,2.068c-0.931,0.273-2.07,0.133-3.029-0.154c-0.289-0.087-0.364-1.216-0.367-1.867
		C298.505,385.436,298.518,379.65,298.518,373.865z"/>
	<path fill="#666666" d="M254.312,374.773c0,5.437-0.092,10.873,0.05,16.305c0.049,1.874-0.391,2.424-2.304,2.318
		c-2.969-0.162-2.993-0.016-3.004-3.135c-0.015-4.209-0.154-8.424,0.06-12.621c0.106-2.076-0.673-2.256-2.394-2.228
		c-5.959,0.099-11.923,0.104-17.882-0.004c-1.753-0.033-1.943,0.678-1.92,2.144c0.078,4.907,0.037,9.816,0.026,14.727
		c-0.003,1.59-0.011,1.238-1.962,1.166c-1.89-0.072-2.31-0.51-2.293-2.37c0.1-10.868,0.084-21.74,0.012-32.609
		c-0.01-1.647,0.52-2.073,2.071-1.999c1.328,0.062,2.3-0.033,2.221,1.854c-0.152,3.677-0.025,7.363-0.056,11.045
		c-0.01,1.144-0.021,1.941,1.598,1.918c6.31-0.098,12.623-0.1,18.934,0c1.625,0.025,1.603-0.784,1.593-1.924
		c-0.03-3.682,0.027-7.362-0.032-11.045c-0.021-1.25,0.181-2.029,1.679-1.823c0.689,0.096,1.405,0.067,2.101,0.006
		c1.101-0.101,1.529,0.301,1.521,1.448C254.29,363.555,254.312,369.165,254.312,374.773z"/>
	<path fill="#666666" d="M8.03,375.387c0-5.591,0.042-11.183-0.028-16.771c-0.018-1.44,0.125-2.303,1.901-2.137
		c2.058,0.19,4.138,0.154,6.208,0.217c0.113,2.052,0.312,4.101,0.323,6.15c0.04,7.338,0.12,14.68-0.051,22.012
		c-0.048,2.088,0.7,2.31,2.399,2.203c2.088-0.129,4.193-0.088,6.287-0.015c2.132,0.074,2.883,0.942,2.955,3.192
		c0.017,0.524,0.021,1.051-0.001,1.572c-0.067,1.614-0.989,2.543-2.529,2.562c-5.416,0.063-10.832,0.008-16.248,0.036
		c-1.33,0.007-1.221-0.846-1.22-1.725C8.034,386.918,8.03,381.152,8.03,375.387z"/>
	<path fill="#666666" d="M292.631,393.344c-1.963,0.797-2.615-1.084-3.312-2.416c-2.631-5.035-5.217-10.103-7.601-15.259
		c-1.427-3.089-2.208-6.472-4.247-9.285c-0.341-0.47-0.64-0.971-0.957-1.457c-0.384,0.421-0.894,0.779-1.132,1.271
		c-2.837,5.836-5.612,11.702-8.448,17.538c-1.279,2.631-2.918,5.117-3.904,7.849c-0.764,2.116-1.312,2.659-3.688,1.908
		c-1.955-0.619-2.372-0.283-1.445-2.13c2.625-5.229,5.363-10.401,7.982-15.633c3.2-6.385,6.321-12.811,9.493-19.209
		c0.194-0.395,0.541-0.713,0.815-1.065c0.426,0.377,1.018,0.673,1.254,1.146c3.277,6.528,6.562,13.057,9.731,19.639
		c2.46,5.111,4.755,10.303,7.142,15.449c0.311,0.672,2.168,1.576-0.332,1.653C293.633,393.354,293.282,393.344,292.631,393.344z"/>
	<path fill="#666666" d="M486.912,374.925c0-5.612,0.021-11.226-0.02-16.838c-0.007-1.037,0.16-1.604,1.378-1.599
		c6.141,0.039,12.277,0.033,18.417,0.01c1.803-0.008,1.206,1.295,1.258,2.202c0.056,1.003,0.313,2.089-1.433,2.049
		c-4.207-0.099-8.42,0.022-12.627-0.062c-1.407-0.03-1.805,0.445-1.737,1.785c0.098,1.924-0.028,3.859,0.039,5.785
		c0.078,2.156,0.909,2.941,3.189,2.971c3.683,0.051,7.367-0.021,11.049,0.054c0.519,0.01,1.414,0.495,1.461,0.85
		c0.131,0.99-0.019,2.043-0.239,3.03c-0.043,0.191-0.911,0.275-1.399,0.277c-4.21,0.021-8.42,0.041-12.629-0.006
		c-1.142-0.014-1.475,0.408-1.464,1.514c0.044,5.086-0.112,10.178,0.083,15.257c0.08,2.063-0.661,2.455-2.393,2.205
		c-0.517-0.074-1.055-0.05-1.577-0.004c-1.221,0.106-1.387-0.556-1.376-1.591c0.043-4.56,0.02-9.119,0.02-13.681
		C486.912,377.73,486.912,376.328,486.912,374.925z"/>
	<path fill="#666666" d="M473.007,356.507c3.157,0,6.314,0.025,9.471-0.009c1.804-0.02,1.212,1.291,1.262,2.199
		c0.053,1.001,0.317,2.092-1.43,2.051c-4.208-0.098-8.42,0.023-12.628-0.062c-1.401-0.028-1.802,0.439-1.739,1.783
		c0.097,2.102-0.086,4.217,0.062,6.311c0.106,1.476,0.944,2.479,2.638,2.47c3.858-0.022,7.721,0.076,11.574-0.046
		c1.684-0.053,1.57,0.89,1.538,1.968c-0.035,1.163,0.372,2.413-1.713,2.33c-4.204-0.166-8.418-0.021-12.627-0.067
		c-1.14-0.014-1.478,0.403-1.468,1.51c0.045,5.088-0.11,10.179,0.084,15.258c0.078,2.058-0.651,2.449-2.391,2.212
		c-0.688-0.095-1.429,0.099-2.091-0.062c-0.344-0.084-0.646-0.621-0.819-1.018c-0.131-0.294-0.025-0.689-0.025-1.041
		c0-11.227,0.021-22.451-0.028-33.678c-0.007-1.452,0.143-2.242,1.913-2.147C467.389,356.617,470.2,356.507,473.007,356.507z"/>
	<path fill="#666666" d="M342.721,374.889c0-5.246-0.011-10.49,0.006-15.736c0.009-2.674,0.029-2.674,2.903-2.646
		c0.175,0.002,0.353,0.017,0.524-0.002c1.205-0.123,2.02,0.088,1.854,1.632c-0.128,1.211-0.024,2.444-0.024,3.67
		c0,8.043-0.008,16.084,0.003,24.129c0.006,3.172,0.021,3.181,3.399,3.195c2.622,0.014,5.246-0.039,7.867,0.023
		c1.049,0.025,2.546-0.643,2.45,1.551c-0.106,2.443-0.659,3.482-2.516,3.684c-0.52,0.057-1.049,0.008-1.572,0.008
		c-4.196,0-8.396-0.086-12.588,0.041c-1.761,0.055-2.432-0.221-2.369-2.24C342.835,386.432,342.721,380.658,342.721,374.889z"/>
	<path fill="#666666" d="M362.719,375.357c0-5.596,0.046-11.191-0.031-16.787c-0.021-1.494,0.25-2.11,1.948-2.111
		c4.389-0.002,4.396-0.098,4.396,4.352c0.004,9.793,0.015,19.586-0.005,29.379c-0.01,3.855-0.582,4.287-4.58,4.244
		c-1.358-0.017-1.774-0.396-1.758-1.764C362.759,386.898,362.719,381.129,362.719,375.357z"/>
	<path fill="#666666" d="M204.845,375.979c0-2.457,0.047-4.912-0.012-7.367c-0.072-2.932-0.235-5.86-0.359-8.791
		c-2.785-0.051-5.57-0.098-8.354-0.159c-0.815-0.019-1.838,0.26-1.802-1.136c0.025-1.008-0.297-2.168,1.451-2.041
		c1.57,0.113,3.155,0.022,4.734,0.022c5.788,0,11.576,0.044,17.364-0.03c1.403-0.019,1.792,0.444,1.749,1.785
		c-0.039,1.166-0.495,1.461-1.572,1.424c-1.926-0.069-3.858-0.06-5.787-0.011c-2.281,0.058-3.105,0.817-3.189,2.976
		c-0.068,1.75-0.013,3.507-0.013,5.262c0,8.419,0.008,16.837-0.007,25.256c-0.003,1.512-0.492,1.102-1.398,0.452
		c-0.604-0.435-2.05-0.033-2.336-0.493c-0.483-0.777-0.444-1.939-0.452-2.941C204.825,385.448,204.845,380.713,204.845,375.979z"/>
	<path fill="#666666" d="M235.95,200.739c-0.162-0.208-0.324-0.415-0.485-0.624c0.221-0.065,0.587-0.24,0.637-0.174
		c0.167,0.22,0.22,0.525,0.318,0.797C236.264,200.739,236.107,200.739,235.95,200.739z"/>
	<path fill="#666666" d="M224.756,190.827c-0.122,0.121-0.294,0.345-0.333,0.324c-0.229-0.124-0.426-0.305-0.633-0.467
		c0.156-0.157,0.312-0.313,0.47-0.47C224.425,190.418,224.592,190.623,224.756,190.827z"/>
	<path fill="#666666" d="M309.041,139.713c-0.288,1.492-0.229,3.068-0.779,4.762c-0.752,2.318-2.781,2.216-3.912,3.516
		c-0.172,0.198-1.058,0.081-1.35-0.183c-1.999-1.802-3.964-3.652-4.484-6.49c-0.582-3.172,0.963-5.851,2.274-8.458
		c0.444-0.881,2.224-1.367,3.442-1.483c0.799-0.075,1.839,0.688,2.512,1.342C308.581,134.502,309.037,136.109,309.041,139.713z"/>
	<path fill="#666666" d="M206.95,256.521c0.412-1.662,1.524-2.274,3.157-2.104C209.695,256.078,208.583,256.689,206.95,256.521z"/>
</g>
</svg>
