<?xml version="1.0" encoding="utf-8"?>
<!-- Generator: Adobe Illustrator 16.0.4, SVG Export Plug-In . SVG Version: 6.00 Build 0)  -->
<!DOCTYPE svg PUBLIC "-//W3C//DTD SVG 1.1//EN" "http://www.w3.org/Graphics/SVG/1.1/DTD/svg11.dtd">
<svg version="1.1" id="Layer_1" xmlns="http://www.w3.org/2000/svg" xmlns:xlink="http://www.w3.org/1999/xlink" x="0px" y="0px"
	 width="527px" height="215px" viewBox="0 0 527 215" enable-background="new 0 0 527 215" xml:space="preserve">
<path fill="none" d="M-5.133,103.754"/>
<g>
	<path fill="#666666" d="M13.5,28.26l4.683,40.271l5.619,53.383v35.588c0,0,29.033,40.271,44.018,29.033
		c14.984-11.239,10.302-28.098,11.239-33.717c0.936-5.618,22.477-51.509,22.477-51.509l29.033,87.205c0,0,11.238,10.407,18.73,0
		c7.492-10.408,36.525-87.205,41.208-122.793c4.683-35.588,11.239,118.94,11.239,118.94l21.54,8.479l17.794-14.098l-10.302-103.02
		l57.129,89.909l59.938-73.051v95.527l23.413,11.238l14.984-8.429V23.266h-32.15l-56.196,89.908L241.08,13.275h-59.938
		l-36.526,113.323l-10.301-4.683l-29.033-54.32H88.423l-16.858,38.867H61.263c0,0-9.365-99.742-47.763-82.884V28.26z"/>
	<path fill="#666666" d="M457.735,13.275H395.3v179.817c0,0,43.703,13.737,69.926,6.555c26.225-7.181,38.715-22.787,47.45-100.208
		C521.412,22.015,457.735,13.275,457.735,13.275z M440.256,164.373V44.496c12.488,1.251,33.715,2.495,33.715,61.965
		C473.971,165.932,440.256,164.373,440.256,164.373z"/>
</g>
</svg>
