<svg xmlns="http://www.w3.org/2000/svg" xmlns:xlink="http://www.w3.org/1999/xlink" version="1.1" id="Layer_1" x="0" y="0" width="101.44" height="720" viewBox="0 0 101.44 720" enable-background="new 0 0 101.437 720" xml:space="preserve"><defs><rect id="SVGID_1_" x="-25.56" y="5.5" width="127" height="709"/></defs><clipPath id="SVGID_2_"><use xlink:href="#SVGID_1_" overflow="visible"/></clipPath><linearGradient id="SVGID_3_" gradientUnits="userSpaceOnUse" x1="101.41" y1="692.7" x2="101.41" y2="16.67"><stop offset="0" stop-color="#323232"/><stop offset="0.15" stop-color="#2D2D2D"/><stop offset="0.33" stop-color="#1E1E1D"/><stop offset="0.5" stop-color="#090908"/><stop offset="0.66" stop-color="#1E1E1E"/><stop offset="0.77" stop-color="#282828"/><stop offset="0.79" style="stop-color:#2A2A2A;stop-opacity:0.95"/><stop offset="0.92" style="stop-color:#303030;stop-opacity:0.7"/><stop offset="1" style="stop-color:#323232;stop-opacity:0.1"/></linearGradient><path clip-path="url(#SVGID_2_)" fill="url(#SVGID_3_)" d="M92.95 646.93c0 10.68-8.65 19.33-19.33 19.33 -10.68 0-19.33-8.65-19.33-19.33 0-9.76 7.24-17.8 16.64-19.12v15.1c0 1.39 1.13 2.51 2.51 2.51 1.39 0 2.51-1.12 2.51-2.51v-15.15C85.52 628.91 92.95 637.05 92.95 646.93zM118.56 676.56l-24.75-9.42 17.36 12.08 -11.44 4.11 -11.88-6.49 6.27 8.5 -9.33 3.35 -5.16-6.36 1.41 7.7 -7.42 2.66 -6.72-2.42 1.46-7.95 -5.34 6.56 -9.91-3.56 6.27-8.5 -11.87 6.49 -11.44-4.11 17.36-12.08 -24.75 9.42 -13.28-4.77 30.52-12.58 -28.89 6.13 56.59-76.78 56.59 76.78 -28.88-6.12 30.52 12.58L118.56 676.56zM98.17 655.66l2.7-2.37 -1.4-3.31 2.1-2.92 -2.1-2.91 1.4-3.3 -2.69-2.37 0.63-3.54 -3.16-1.71 -0.17-3.58 -3.46-0.96 -0.97-3.46 -3.59-0.18 -1.71-3.15 -3.53 0.62 -2.37-2.69 -3.31 1.39 -2.92-2.09 -2.91 2.09 -3.3-1.39 -2.38 2.69 -3.53-0.62 -1.71 3.15 -3.58 0.18 -0.97 3.46 -3.46 0.97 -0.18 3.58 -3.15 1.71 0.63 3.54 -2.69 2.37 1.4 3.3 -2.09 2.91 2.09 2.92 -1.4 3.31 2.69 2.37 -0.62 3.54 3.15 1.71 0.18 3.59 3.46 0.97 0.97 3.45 3.58 0.17 1.72 3.16 3.53-0.62 2.38 2.69 3.31-1.4 2.91 2.1 2.92-2.1 3.31 1.4 2.37-2.69 3.53 0.62 1.71-3.15 3.59-0.18 0.97-3.45 3.45-0.97 0.18-3.58 3.15-1.71L98.17 655.66zM135.8 629.25v-15.15c0-1.39 1.12-2.51 2.51-2.51 1.39 0 2.51 1.12 2.51 2.51v15.1c9.4-1.32 16.64-9.36 16.64-19.12 0-10.68-8.65-19.33-19.33-19.33 -10.68 0-19.33 8.65-19.33 19.33C118.8 619.96 126.23 628.1 135.8 629.25zM93.19 580.45l24.75 9.43 -17.36-12.08 11.44-4.11 11.88 6.49 -6.27-8.5 9.33-3.35 5.16 6.36 -1.41-7.7 7.42-2.66 6.72 2.42 -1.46 7.95 5.34-6.56 9.91 3.56 -6.27 8.5 11.87-6.49 11.44 4.11 -17.36 12.08 24.75-9.43 13.29 4.77 -30.52 12.58 28.89-6.13 -56.59 76.78L81.54 591.67l28.88 6.13 -30.52-12.58L93.19 580.45zM113.58 601.34l-2.69 2.37 1.4 3.31 -2.1 2.92 2.1 2.91 -1.4 3.3 2.69 2.37 -0.63 3.54 3.16 1.71 0.18 3.58 3.46 0.97 0.97 3.46 3.59 0.18 1.71 3.15 3.53-0.62 2.37 2.69 3.31-1.39 2.92 2.09 2.91-2.09 3.3 1.4 2.38-2.69 3.53 0.62 1.71-3.15 3.58-0.18 0.97-3.46 3.46-0.97 0.18-3.58 3.15-1.71 -0.62-3.54 2.7-2.37 -1.4-3.3 2.09-2.91 -2.09-2.92 1.4-3.3 -2.69-2.37 0.62-3.54 -3.15-1.71 -0.18-3.59 -3.46-0.97 -0.97-3.45 -3.58-0.18 -1.72-3.16 -3.53 0.62 -2.38-2.69 -3.31 1.4 -2.91-2.1 -2.92 2.1 -3.31-1.4 -2.37 2.69 -3.53-0.62 -1.71 3.15 -3.59 0.18 -0.97 3.45 -3.45 0.97 -0.18 3.58 -3.15 1.71L113.58 601.34zM75.95 518.29v15.15c0 1.39-1.12 2.51-2.51 2.51 -1.39 0-2.51-1.12-2.51-2.51v-15.1c-9.4 1.32-16.64 9.36-16.64 19.12 0 10.68 8.65 19.33 19.33 19.33 10.68 0 19.33-8.65 19.33-19.33C92.95 527.58 85.52 519.45 75.95 518.29zM118.56 567.09l-24.75-9.42 17.36 12.08 -11.44 4.11 -11.88-6.49 6.27 8.5 -9.33 3.35 -5.16-6.36 1.41 7.7 -7.42 2.66 -6.72-2.42 1.46-7.95 -5.34 6.56 -9.91-3.56 6.27-8.5 -11.87 6.49 -11.44-4.11 17.36-12.08 -24.75 9.42 -13.28-4.77 30.52-12.58 -28.89 6.13 56.59-76.78 56.59 76.78 -28.88-6.12 30.52 12.58L118.56 567.09zM98.17 546.2l2.7-2.37 -1.4-3.31 2.1-2.92 -2.1-2.91 1.4-3.3 -2.69-2.37 0.63-3.54 -3.16-1.71 -0.17-3.58 -3.46-0.96 -0.97-3.46 -3.59-0.18 -1.71-3.15 -3.53 0.62 -2.37-2.69 -3.31 1.39 -2.92-2.09 -2.91 2.09 -3.3-1.39 -2.38 2.69 -3.53-0.62 -1.71 3.15 -3.58 0.18 -0.97 3.46 -3.46 0.97 -0.18 3.58 -3.15 1.71 0.63 3.54 -2.69 2.37 1.4 3.3 -2.09 2.91 2.09 2.92 -1.4 3.31 2.69 2.37 -0.62 3.54 3.15 1.71 0.18 3.59 3.46 0.97 0.97 3.45 3.58 0.17 1.72 3.16 3.53-0.62 2.38 2.69 3.31-1.4 2.91 2.1 2.92-2.1 3.31 1.4 2.37-2.69 3.53 0.62 1.71-3.15 3.59-0.18 0.97-3.45 3.45-0.97 0.18-3.58 3.15-1.71L98.17 546.2zM135.8 519.59v-15.15c0-1.39 1.12-2.51 2.51-2.51 1.39 0 2.51 1.13 2.51 2.51v15.1c9.4-1.31 16.64-9.36 16.64-19.12 0-10.68-8.65-19.33-19.33-19.33 -10.68 0-19.33 8.65-19.33 19.33C118.8 510.3 126.23 518.44 135.8 519.59zM93.19 470.79l24.75 9.42 -17.36-12.08 11.44-4.11 11.88 6.49 -6.27-8.5 9.33-3.35 5.16 6.36 -1.41-7.7 7.42-2.66 6.72 2.42 -1.46 7.95 5.34-6.56 9.91 3.56 -6.27 8.5 11.87-6.49 11.44 4.11 -17.36 12.08 24.75-9.42 13.29 4.77 -30.52 12.58 28.89-6.13 -56.59 76.78L81.54 482.01l28.88 6.13 -30.52-12.58L93.19 470.79zM113.58 491.68l-2.69 2.37 1.4 3.31 -2.1 2.92 2.1 2.91 -1.4 3.3 2.69 2.37 -0.63 3.54 3.16 1.71 0.18 3.58 3.46 0.97 0.97 3.46 3.59 0.18 1.71 3.15 3.53-0.62 2.37 2.69 3.31-1.39 2.92 2.09 2.91-2.09 3.3 1.4 2.38-2.69 3.53 0.62 1.71-3.15 3.58-0.18 0.97-3.46 3.46-0.97 0.18-3.58 3.15-1.71 -0.62-3.54 2.7-2.37 -1.4-3.3 2.09-2.91 -2.09-2.92 1.4-3.3 -2.69-2.37 0.62-3.54 -3.15-1.71 -0.18-3.59 -3.46-0.97 -0.97-3.45 -3.58-0.17 -1.72-3.16 -3.53 0.62 -2.38-2.69 -3.31 1.4 -2.91-2.1 -2.92 2.1 -3.31-1.4 -2.37 2.69 -3.53-0.62 -1.71 3.15 -3.59 0.18 -0.97 3.45 -3.45 0.97 -0.18 3.58 -3.15 1.71L113.58 491.68zM75.02 408.78v15.15c0 1.39-1.12 2.51-2.51 2.51 -1.39 0-2.51-1.12-2.51-2.51v-15.1c-9.4 1.31-16.64 9.36-16.64 19.12 0 10.68 8.65 19.33 19.33 19.33 10.68 0 19.33-8.65 19.33-19.33C92.02 418.07 84.6 409.93 75.02 408.78zM117.63 457.58l-24.75-9.42 17.36 12.08 -11.44 4.11 -11.88-6.49 6.27 8.5 -9.33 3.35 -5.16-6.36 1.41 7.7 -7.42 2.66 -6.72-2.42 1.46-7.95 -5.34 6.56 -9.91-3.56 6.27-8.5 -11.87 6.49 -11.44-4.11 17.36-12.08 -24.75 9.42 -13.28-4.77 30.52-12.58 -28.89 6.13L72.69 369.58l56.59 76.78 -28.88-6.13 30.52 12.58L117.63 457.58zM97.24 436.69l2.7-2.37 -1.4-3.31 2.1-2.92 -2.1-2.91 1.4-3.3 -2.69-2.37 0.63-3.54 -3.16-1.71 -0.17-3.58 -3.46-0.96 -0.97-3.46 -3.59-0.18 -1.71-3.15 -3.53 0.62 -2.37-2.69 -3.31 1.39 -2.92-2.09 -2.91 2.09 -3.3-1.4 -2.38 2.69 -3.53-0.62 -1.71 3.15 -3.58 0.18 -0.97 3.46 -3.46 0.97 -0.18 3.58 -3.15 1.71 0.63 3.54 -2.69 2.37 1.4 3.3 -2.09 2.91 2.09 2.92 -1.4 3.3 2.69 2.37 -0.62 3.54 3.15 1.71 0.18 3.59 3.46 0.97 0.97 3.45 3.58 0.17 1.72 3.16 3.53-0.62 2.38 2.69 3.31-1.4 2.91 2.1 2.92-2.1 3.31 1.4 2.37-2.69 3.53 0.62 1.71-3.15 3.59-0.18 0.97-3.45 3.45-0.97 0.18-3.58 3.15-1.71L97.24 436.69zM134.87 410.27v-15.15c0-1.39 1.12-2.51 2.51-2.51 1.39 0 2.51 1.13 2.51 2.51v15.1c9.4-1.31 16.64-9.36 16.64-19.12 0-10.68-8.65-19.33-19.33-19.33 -10.68 0-19.33 8.65-19.33 19.33C117.88 400.98 125.3 409.12 134.87 410.27zM92.26 361.48l24.75 9.42 -17.36-12.08 11.44-4.11 11.88 6.49 -6.27-8.5 9.33-3.35 5.16 6.36 -1.41-7.7 7.42-2.66 6.72 2.42 -1.46 7.95 5.34-6.56 9.91 3.56 -6.27 8.5 11.87-6.49 11.44 4.11 -17.36 12.08 24.75-9.42 13.29 4.77 -30.52 12.58 28.89-6.13 -56.59 76.78 -56.59-76.78 28.88 6.13 -30.52-12.58L92.26 361.48zM112.65 382.37l-2.69 2.37 1.4 3.31 -2.1 2.92 2.1 2.91 -1.4 3.3 2.69 2.37 -0.63 3.54 3.16 1.71 0.18 3.58 3.46 0.97 0.97 3.46 3.59 0.18 1.71 3.15 3.53-0.62 2.37 2.69 3.31-1.39 2.92 2.09 2.91-2.09 3.3 1.4 2.38-2.69 3.53 0.62 1.71-3.15 3.58-0.18 0.97-3.46 3.46-0.97 0.18-3.58 3.15-1.71 -0.62-3.54 2.7-2.37 -1.4-3.3 2.09-2.91 -2.09-2.92 1.4-3.3 -2.69-2.37 0.62-3.54 -3.15-1.71 -0.18-3.59 -3.46-0.97 -0.97-3.45 -3.58-0.17 -1.72-3.16 -3.53 0.62 -2.38-2.69 -3.31 1.4 -2.91-2.1 -2.92 2.1 -3.31-1.4 -2.37 2.69 -3.53-0.62 -1.71 3.15 -3.59 0.18 -0.97 3.45 -3.45 0.97 -0.18 3.58 -3.15 1.71L112.65 382.37zM75.02 299.31v15.15c0 1.39-1.12 2.51-2.51 2.51 -1.39 0-2.51-1.12-2.51-2.51v-15.1c-9.4 1.31-16.64 9.36-16.64 19.12 0 10.68 8.65 19.33 19.33 19.33 10.68 0 19.33-8.65 19.33-19.33C92.02 308.6 84.6 300.47 75.02 299.31zM117.63 348.11l-24.75-9.42 17.36 12.08 -11.44 4.11 -11.88-6.49 6.27 8.5 -9.33 3.35 -5.16-6.36 1.41 7.7 -7.42 2.66 -6.72-2.42 1.46-7.95 -5.34 6.56 -9.91-3.56 6.27-8.5 -11.87 6.49 -11.44-4.11 17.36-12.08 -24.75 9.42 -13.28-4.77 30.52-12.58 -28.89 6.13 56.59-76.78 56.59 76.78 -28.88-6.13 30.52 12.58L117.63 348.11zM97.24 327.22l2.7-2.37 -1.4-3.31 2.1-2.92 -2.1-2.91 1.4-3.3 -2.69-2.37 0.63-3.54 -3.16-1.71 -0.17-3.58 -3.46-0.96 -0.97-3.46 -3.59-0.18 -1.71-3.15 -3.53 0.62 -2.37-2.69 -3.31 1.39 -2.92-2.09 -2.91 2.09 -3.3-1.4L64.1 294.07l-3.53-0.62 -1.71 3.15 -3.58 0.18 -0.97 3.46 -3.46 0.97 -0.18 3.58 -3.15 1.71 0.63 3.54 -2.69 2.37 1.4 3.3 -2.09 2.91 2.09 2.92 -1.4 3.3 2.69 2.37 -0.62 3.54 3.15 1.71 0.18 3.59 3.46 0.97 0.97 3.45 3.58 0.17 1.72 3.16 3.53-0.62 2.38 2.69 3.31-1.4 2.91 2.1 2.92-2.1 3.31 1.4 2.37-2.69 3.53 0.62 1.71-3.15 3.59-0.18 0.97-3.45 3.45-0.97 0.18-3.58 3.15-1.71L97.24 327.22zM134.87 300.61v-15.15c0-1.39 1.12-2.51 2.51-2.51 1.39 0 2.51 1.13 2.51 2.51v15.1c9.4-1.32 16.64-9.36 16.64-19.12 0-10.68-8.65-19.33-19.33-19.33 -10.68 0-19.33 8.65-19.33 19.33C117.88 291.32 125.3 299.46 134.87 300.61zM92.26 251.81l24.75 9.42 -17.36-12.08 11.44-4.11 11.88 6.49 -6.27-8.5 9.33-3.35 5.16 6.36 -1.41-7.7 7.42-2.66 6.72 2.42 -1.46 7.95 5.34-6.56 9.91 3.56 -6.27 8.5 11.87-6.49 11.44 4.11 -17.36 12.08 24.75-9.42 13.29 4.77 -30.52 12.58 28.89-6.12 -56.59 76.78 -56.59-76.78 28.88 6.13 -30.52-12.58L92.26 251.81zM112.65 272.71l-2.69 2.37 1.4 3.31 -2.1 2.92 2.1 2.91 -1.4 3.3 2.69 2.37 -0.63 3.54 3.16 1.71 0.18 3.58 3.46 0.97 0.97 3.46 3.59 0.18 1.71 3.15 3.53-0.62 2.37 2.69 3.31-1.39 2.92 2.09 2.91-2.09 3.3 1.4 2.38-2.69 3.53 0.62 1.71-3.15 3.58-0.18 0.97-3.46 3.46-0.97 0.18-3.58 3.15-1.71 -0.62-3.54 2.7-2.37 -1.4-3.3 2.09-2.91 -2.09-2.92 1.4-3.3 -2.69-2.37 0.62-3.54 -3.15-1.71 -0.18-3.59 -3.46-0.97 -0.97-3.45 -3.58-0.17 -1.72-3.16 -3.53 0.62 -2.38-2.69 -3.31 1.4 -2.91-2.1 -2.92 2.1 -3.31-1.4 -2.37 2.69 -3.53-0.62 -1.71 3.15 -3.59 0.18 -0.97 3.45 -3.45 0.97 -0.18 3.58 -3.15 1.71L112.65 272.71zM67.02 189.78v15.15c0 1.39-1.12 2.51-2.51 2.51 -1.39 0-2.51-1.12-2.51-2.51v-15.1c-9.4 1.31-16.64 9.36-16.64 19.12 0 10.68 8.65 19.33 19.33 19.33 10.68 0 19.33-8.65 19.33-19.33C84.02 199.07 76.6 190.93 67.02 189.78zM109.63 238.58l-24.75-9.42 17.36 12.08 -11.44 4.11 -11.88-6.49 6.27 8.5 -9.33 3.35 -5.16-6.36 1.41 7.7 -7.42 2.66 -6.72-2.42 1.46-7.95 -5.34 6.56 -9.91-3.56 6.27-8.5 -11.87 6.49 -11.44-4.11 17.36-12.08 -24.75 9.42 -13.28-4.77 30.52-12.58 -28.89 6.13L64.69 150.58l56.59 76.78 -28.88-6.13 30.52 12.58L109.63 238.58zM89.24 217.69l2.7-2.37 -1.4-3.31 2.1-2.92 -2.1-2.91 1.4-3.3 -2.69-2.37 0.63-3.54 -3.16-1.71 -0.17-3.58 -3.46-0.96 -0.97-3.46 -3.59-0.18 -1.71-3.15 -3.53 0.62 -2.37-2.69 -3.31 1.39 -2.92-2.09 -2.91 2.09 -3.3-1.4 -2.38 2.69 -3.53-0.62 -1.71 3.15 -3.58 0.18 -0.97 3.46 -3.46 0.97 -0.18 3.58 -3.15 1.71 0.63 3.54 -2.69 2.37 1.4 3.3 -2.09 2.91 2.09 2.92 -1.4 3.3 2.69 2.37 -0.62 3.54 3.15 1.71 0.18 3.59 3.46 0.97 0.97 3.45 3.58 0.17 1.72 3.16 3.53-0.62 2.38 2.69 3.31-1.4 2.91 2.1 2.92-2.1 3.31 1.4 2.37-2.69 3.53 0.62 1.71-3.15 3.59-0.18 0.97-3.45 3.45-0.97 0.18-3.58 3.15-1.71L89.24 217.69zM126.87 191.27v-15.15c0-1.39 1.12-2.51 2.51-2.51 1.39 0 2.51 1.13 2.51 2.51v15.1c9.4-1.31 16.64-9.36 16.64-19.12 0-10.68-8.65-19.33-19.33-19.33 -10.68 0-19.33 8.65-19.33 19.33C109.88 181.98 117.3 190.12 126.87 191.27zM84.26 142.48l24.75 9.42 -17.36-12.08 11.44-4.11 11.88 6.49 -6.27-8.5 9.33-3.35 5.16 6.36 -1.41-7.7 7.42-2.66 6.72 2.42 -1.46 7.95 5.34-6.56 9.91 3.56 -6.27 8.5 11.87-6.49 11.44 4.11 -17.36 12.08 24.75-9.42 13.29 4.77 -30.52 12.58 28.89-6.13 -56.59 76.78 -56.59-76.78 28.88 6.13 -30.52-12.58L84.26 142.48zM104.65 163.37l-2.69 2.37 1.4 3.31 -2.1 2.92 2.1 2.91 -1.4 3.3 2.69 2.37 -0.63 3.54 3.16 1.71 0.18 3.58 3.46 0.97 0.97 3.46 3.59 0.18 1.71 3.15 3.53-0.62 2.37 2.69 3.31-1.39 2.92 2.09 2.91-2.09 3.3 1.4 2.38-2.69 3.53 0.62 1.71-3.15 3.58-0.18 0.97-3.46 3.46-0.97 0.18-3.58 3.15-1.71 -0.62-3.54 2.7-2.37 -1.4-3.3 2.09-2.91 -2.09-2.92 1.4-3.3 -2.69-2.37 0.62-3.54 -3.15-1.71 -0.18-3.59 -3.46-0.97 -0.97-3.45 -3.58-0.17 -1.72-3.16 -3.53 0.62 -2.38-2.69 -3.31 1.4 -2.91-2.1 -2.92 2.1 -3.31-1.4 -2.37 2.69 -3.53-0.62 -1.71 3.15 -3.59 0.18 -0.97 3.45 -3.45 0.97 -0.18 3.58 -3.15 1.71L104.65 163.37zM67.02 80.31v15.15c0 1.39-1.12 2.51-2.51 2.51 -1.39 0-2.51-1.12-2.51-2.51V80.36C52.6 81.68 45.36 89.73 45.36 99.48c0 10.68 8.65 19.33 19.33 19.33 10.68 0 19.33-8.65 19.33-19.33C84.02 89.6 76.6 81.47 67.02 80.31zM109.63 129.11l-24.75-9.42 17.36 12.08 -11.44 4.11 -11.88-6.49 6.27 8.5 -9.33 3.35 -5.16-6.36 1.41 7.7 -7.42 2.66 -6.72-2.42 1.46-7.95 -5.34 6.56 -9.91-3.56 6.27-8.5 -11.87 6.49 -11.44-4.11 17.36-12.08 -24.75 9.42 -13.28-4.77 30.52-12.58 -28.89 6.13 56.59-76.78 56.59 76.78 -28.88-6.13 30.52 12.58L109.63 129.11zM89.24 108.22l2.7-2.37 -1.4-3.31 2.1-2.92 -2.1-2.91 1.4-3.3 -2.69-2.37 0.63-3.54 -3.16-1.71 -0.17-3.58 -3.46-0.96 -0.97-3.46 -3.59-0.18 -1.71-3.15 -3.53 0.62 -2.37-2.69 -3.31 1.39 -2.92-2.09 -2.91 2.09 -3.3-1.4L56.1 75.07l-3.53-0.62 -1.71 3.15 -3.58 0.18 -0.97 3.46 -3.46 0.97 -0.18 3.58 -3.15 1.71 0.63 3.54 -2.69 2.37 1.4 3.3 -2.09 2.91 2.09 2.92 -1.4 3.3 2.69 2.37 -0.62 3.54 3.15 1.71 0.18 3.59 3.46 0.97 0.97 3.45 3.58 0.17 1.72 3.16 3.53-0.62 2.38 2.69 3.31-1.4 2.91 2.1 2.92-2.1 3.31 1.4 2.37-2.69 3.53 0.62 1.71-3.15 3.59-0.18 0.97-3.45 3.45-0.97 0.18-3.58 3.15-1.71L89.24 108.22zM126.87 81.61V66.46c0-1.39 1.12-2.51 2.51-2.51 1.39 0 2.51 1.13 2.51 2.51v15.1c9.4-1.32 16.64-9.36 16.64-19.12 0-10.68-8.65-19.33-19.33-19.33 -10.68 0-19.33 8.65-19.33 19.33C109.88 72.32 117.3 80.46 126.87 81.61zM84.26 32.81l24.75 9.42 -17.36-12.08 11.44-4.11 11.88 6.49 -6.27-8.5 9.33-3.35 5.16 6.36 -1.41-7.7 7.42-2.66 6.72 2.42 -1.46 7.95 5.34-6.56 9.91 3.56 -6.27 8.5 11.87-6.49 11.44 4.11 -17.36 12.08 24.75-9.42 13.29 4.77 -30.52 12.58 28.89-6.12 -56.59 76.78L72.61 44.03l28.88 6.13 -30.52-12.58L84.26 32.81zM104.65 53.71l-2.69 2.37 1.4 3.31 -2.1 2.92 2.1 2.91 -1.4 3.3 2.69 2.37 -0.63 3.54 3.16 1.71 0.18 3.58 3.46 0.97 0.97 3.46 3.59 0.18 1.71 3.15 3.53-0.62 2.37 2.69 3.31-1.39 2.92 2.09 2.91-2.09 3.3 1.4 2.38-2.69 3.53 0.62 1.71-3.15 3.58-0.18 0.97-3.46 3.46-0.97 0.18-3.58 3.15-1.71 -0.62-3.54 2.7-2.37 -1.4-3.3 2.09-2.91 -2.09-2.92 1.4-3.3 -2.69-2.37 0.62-3.54 -3.15-1.71 -0.18-3.59 -3.46-0.97 -0.97-3.45 -3.58-0.17 -1.72-3.16 -3.53 0.62 -2.38-2.69 -3.31 1.4 -2.91-2.1 -2.92 2.1 -3.31-1.4 -2.37 2.69 -3.53-0.62 -1.71 3.15 -3.59 0.18 -0.97 3.45 -3.45 0.97 -0.18 3.58 -3.15 1.71L104.65 53.71z"/></svg>