<?xml version="1.0" encoding="utf-8"?>
<!-- Generator: Adobe Illustrator 16.0.4, SVG Export Plug-In . SVG Version: 6.00 Build 0)  -->
<!DOCTYPE svg PUBLIC "-//W3C//DTD SVG 1.1//EN" "http://www.w3.org/Graphics/SVG/1.1/DTD/svg11.dtd">
<svg version="1.1" id="Layer_1" xmlns="http://www.w3.org/2000/svg" xmlns:xlink="http://www.w3.org/1999/xlink" x="0px" y="0px"
	 width="101.437px" height="720px" viewBox="0 0 101.437 720" enable-background="new 0 0 101.437 720" xml:space="preserve">
<g>
	<defs>
		<rect id="SVGID_1_" x="-25.563" y="5.5" width="127" height="709"/>
	</defs>
	<clipPath id="SVGID_2_">
		<use xlink:href="#SVGID_1_"  overflow="visible"/>
	</clipPath>
	<linearGradient id="SVGID_3_" gradientUnits="userSpaceOnUse" x1="101.4111" y1="692.6973" x2="101.4111" y2="16.6724">
		<stop  offset="0" style="stop-color:#323232"/>
		<stop  offset="0.1458" style="stop-color:#2D2D2D"/>
		<stop  offset="0.3276" style="stop-color:#1E1E1D"/>
		<stop  offset="0.5" style="stop-color:#090908"/>
		<stop  offset="0.6574" style="stop-color:#1E1E1E"/>
		<stop  offset="0.7664" style="stop-color:#282828"/>
		<stop  offset="0.7943" style="stop-color:#2A2A2A;stop-opacity:0.9469"/>
		<stop  offset="0.9243" style="stop-color:#303030;stop-opacity:0.7"/>
		<stop  offset="1" style="stop-color:#323232;stop-opacity:0.1"/>
	</linearGradient>
	<path clip-path="url(#SVGID_2_)" fill="url(#SVGID_3_)" d="M92.947,646.93c0,10.676-8.652,19.326-19.329,19.326
		c-10.676,0-19.329-8.65-19.329-19.326c0-9.76,7.24-17.805,16.639-19.121v15.104c0,1.387,1.125,2.512,2.513,2.512
		c1.392,0,2.51-1.125,2.51-2.512v-15.154C85.524,628.912,92.947,637.047,92.947,646.93z M118.561,676.557l-24.754-9.424
		l17.363,12.08l-11.437,4.111l-11.876-6.492l6.269,8.502l-9.334,3.354l-5.163-6.357l1.412,7.703l-7.423,2.664l-6.722-2.418
		l1.461-7.949l-5.338,6.562l-9.909-3.559l6.271-8.502l-11.873,6.492l-11.438-4.111l17.363-12.08l-24.752,9.424l-13.285-4.766
		l30.516-12.58l-28.886,6.125l56.592-76.777l56.592,76.777l-28.88-6.125l30.516,12.58L118.561,676.557z M98.17,655.664l2.695-2.369
		l-1.4-3.309l2.095-2.92l-2.095-2.912l1.4-3.303l-2.691-2.369l0.627-3.539l-3.158-1.711l-0.175-3.584l-3.457-0.965l-0.966-3.463
		l-3.588-0.178l-1.712-3.148l-3.533,0.621l-2.369-2.688l-3.308,1.391l-2.917-2.092l-2.912,2.092l-3.302-1.395l-2.376,2.691
		l-3.532-0.621l-1.712,3.148l-3.583,0.178l-0.971,3.457l-3.457,0.971l-0.179,3.584l-3.153,1.711l0.625,3.539l-2.695,2.369l1.4,3.303
		l-2.094,2.912l2.094,2.92l-1.4,3.305l2.691,2.365l-0.621,3.537l3.153,1.711l0.179,3.588l3.457,0.971l0.966,3.453l3.579,0.174
		l1.717,3.158l3.532-0.621l2.376,2.689l3.306-1.404l2.912,2.1l2.917-2.1l3.308,1.404l2.369-2.689l3.533,0.621l1.706-3.148
		l3.59-0.184l0.97-3.453l3.453-0.971l0.179-3.584l3.154-1.711L98.17,655.664z M135.8,629.25v-15.154c0-1.387,1.118-2.51,2.51-2.51
		c1.388,0,2.513,1.123,2.513,2.51v15.104c9.398-1.316,16.639-9.361,16.639-19.119c0-10.678-8.653-19.326-19.329-19.326
		c-10.677,0-19.329,8.648-19.329,19.326C118.803,619.963,126.226,628.098,135.8,629.25z M93.189,580.451l24.754,9.426l-17.363-12.08
		l11.437-4.113l11.876,6.492l-6.269-8.502l9.334-3.352l5.163,6.357l-1.412-7.703l7.423-2.664l6.722,2.416l-1.461,7.951l5.338-6.562
		l9.909,3.557l-6.271,8.502l11.873-6.492l11.438,4.113l-17.363,12.08l24.752-9.426l13.285,4.768l-30.516,12.58l28.886-6.127
		l-56.592,76.777L81.54,591.672l28.88,6.127l-30.516-12.58L93.189,580.451z M113.58,601.344l-2.695,2.371l1.4,3.307l-2.095,2.922
		l2.095,2.912l-1.4,3.303l2.691,2.369l-0.627,3.539l3.158,1.709l0.175,3.584l3.457,0.967l0.966,3.461l3.588,0.18l1.712,3.148
		l3.533-0.621l2.369,2.688l3.308-1.393l2.917,2.094l2.912-2.094l3.302,1.396l2.376-2.691l3.532,0.621l1.712-3.148l3.583-0.18
		l0.971-3.457l3.457-0.971l0.179-3.584l3.153-1.709l-0.625-3.539l2.695-2.369l-1.4-3.303l2.094-2.912l-2.094-2.922l1.4-3.303
		l-2.691-2.365l0.621-3.539l-3.153-1.711l-0.179-3.586l-3.457-0.973l-0.966-3.451l-3.579-0.176l-1.717-3.158l-3.532,0.623
		l-2.376-2.691l-3.306,1.404l-2.912-2.098l-2.917,2.098l-3.308-1.404l-2.369,2.691l-3.533-0.623l-1.706,3.15l-3.59,0.184
		l-0.97,3.451l-3.453,0.973l-0.179,3.582l-3.154,1.711L113.58,601.344z M75.949,518.291v15.154c0,1.387-1.118,2.512-2.51,2.512
		c-1.388,0-2.513-1.125-2.513-2.512v-15.104c-9.398,1.316-16.639,9.361-16.639,19.121c0,10.676,8.653,19.326,19.329,19.326
		c10.677,0,19.329-8.65,19.329-19.326C92.946,527.58,85.523,519.445,75.949,518.291z M118.56,567.09l-24.754-9.424l17.363,12.08
		l-11.437,4.111l-11.876-6.492l6.269,8.502l-9.334,3.354l-5.163-6.357l1.412,7.703l-7.423,2.664l-6.722-2.418l1.461-7.949
		l-5.338,6.562l-9.909-3.559l6.271-8.502l-11.873,6.492l-11.438-4.111l17.363-12.08l-24.752,9.424l-13.285-4.766l30.516-12.58
		l-28.886,6.125l56.592-76.777l56.592,76.777l-28.88-6.125l30.516,12.58L118.56,567.09z M98.169,546.197l2.695-2.369l-1.4-3.309
		l2.095-2.92l-2.095-2.912l1.4-3.303l-2.691-2.369l0.627-3.539l-3.158-1.711l-0.175-3.584l-3.457-0.965l-0.966-3.463l-3.588-0.178
		l-1.712-3.148l-3.533,0.621l-2.369-2.688l-3.308,1.391l-2.917-2.092l-2.912,2.092l-3.302-1.395l-2.376,2.691l-3.532-0.621
		l-1.712,3.148l-3.583,0.178l-0.971,3.457l-3.457,0.971l-0.179,3.584l-3.153,1.711l0.625,3.539l-2.695,2.369l1.4,3.303l-2.094,2.912
		l2.094,2.92l-1.4,3.305l2.691,2.365l-0.621,3.537l3.153,1.711l0.179,3.588l3.457,0.971l0.966,3.453l3.579,0.174l1.717,3.158
		l3.532-0.621l2.376,2.689l3.306-1.404l2.912,2.1l2.917-2.1l3.308,1.404l2.369-2.689l3.533,0.621l1.706-3.148l3.59-0.184l0.97-3.453
		l3.453-0.971l0.179-3.584l3.154-1.711L98.169,546.197z M135.8,519.588v-15.152c0-1.387,1.118-2.512,2.51-2.512
		c1.388,0,2.513,1.125,2.513,2.512v15.102c9.398-1.314,16.639-9.359,16.639-19.119c0-10.676-8.653-19.326-19.329-19.326
		c-10.677,0-19.329,8.65-19.329,19.326C118.803,510.301,126.226,518.436,135.8,519.588z M93.189,470.791l24.754,9.424l-17.363-12.08
		l11.437-4.113l11.876,6.492l-6.269-8.5l9.334-3.354l5.163,6.357l-1.412-7.703l7.423-2.664l6.722,2.416l-1.461,7.951l5.338-6.562
		l9.909,3.559l-6.271,8.5l11.873-6.492l11.438,4.113l-17.363,12.08l24.752-9.424l13.285,4.766l-30.516,12.58l28.886-6.127
		l-56.592,76.779L81.54,482.01l28.88,6.127l-30.516-12.58L93.189,470.791z M113.58,491.682l-2.695,2.371l1.4,3.307l-2.095,2.922
		l2.095,2.912l-1.4,3.303l2.691,2.369l-0.627,3.539l3.158,1.711l0.175,3.584l3.457,0.965l0.966,3.463l3.588,0.178l1.712,3.148
		l3.533-0.621l2.369,2.688l3.308-1.393l2.917,2.094l2.912-2.094l3.302,1.396l2.376-2.691l3.532,0.621l1.712-3.148l3.583-0.178
		l0.971-3.457l3.457-0.971l0.179-3.584l3.153-1.711l-0.625-3.539l2.695-2.369l-1.4-3.303l2.094-2.912l-2.094-2.922l1.4-3.303
		l-2.691-2.365l0.621-3.537l-3.153-1.713l-0.179-3.586l-3.457-0.973l-0.966-3.451l-3.579-0.174l-1.717-3.16l-3.532,0.623
		l-2.376-2.691l-3.306,1.404l-2.912-2.098l-2.917,2.098l-3.308-1.404l-2.369,2.691l-3.533-0.623l-1.706,3.15l-3.59,0.184
		l-0.97,3.451l-3.453,0.973l-0.179,3.584l-3.154,1.711L113.58,491.682z M75.022,408.781v15.152c0,1.387-1.118,2.512-2.51,2.512
		c-1.388,0-2.513-1.125-2.513-2.512v-15.102c-9.398,1.314-16.639,9.359-16.639,19.119c0,10.676,8.653,19.326,19.329,19.326
		c10.677,0,19.329-8.65,19.329-19.326C92.02,418.068,84.597,409.934,75.022,408.781z M117.633,457.578l-24.754-9.424l17.363,12.08
		l-11.437,4.113l-11.876-6.492l6.269,8.5l-9.334,3.354l-5.163-6.357l1.412,7.703l-7.423,2.664l-6.722-2.416l1.461-7.951
		l-5.338,6.562l-9.909-3.559l6.271-8.5l-11.873,6.492l-11.438-4.113l17.363-12.08l-24.752,9.424l-13.285-4.766l30.516-12.58
		l-28.886,6.127L72.69,369.58l56.592,76.779l-28.88-6.127l30.516,12.58L117.633,457.578z M97.242,436.688l2.695-2.371l-1.4-3.307
		l2.095-2.922l-2.095-2.912l1.4-3.303l-2.691-2.369l0.627-3.539l-3.158-1.711l-0.175-3.584l-3.457-0.965l-0.966-3.463l-3.588-0.178
		l-1.712-3.148l-3.533,0.621l-2.369-2.688l-3.308,1.393l-2.917-2.094l-2.912,2.094l-3.302-1.396l-2.376,2.691l-3.532-0.621
		l-1.712,3.148l-3.583,0.178l-0.971,3.457l-3.457,0.971l-0.179,3.584l-3.153,1.711l0.625,3.539l-2.695,2.369l1.4,3.303l-2.094,2.912
		l2.094,2.922l-1.4,3.303l2.691,2.365l-0.621,3.537l3.153,1.713l0.179,3.586l3.457,0.973l0.966,3.451l3.579,0.174l1.717,3.16
		l3.532-0.623l2.376,2.691l3.306-1.404l2.912,2.098l2.917-2.098l3.308,1.404l2.369-2.691l3.533,0.623l1.706-3.15l3.59-0.184
		l0.97-3.451l3.453-0.973l0.179-3.584l3.154-1.711L97.242,436.688z M134.872,410.271v-15.152c0-1.387,1.118-2.512,2.51-2.512
		c1.388,0,2.513,1.125,2.513,2.512v15.102c9.398-1.314,16.639-9.359,16.639-19.119c0-10.676-8.653-19.326-19.329-19.326
		c-10.677,0-19.329,8.65-19.329,19.326C117.875,400.984,125.298,409.119,134.872,410.271z M92.262,361.475l24.754,9.424
		l-17.363-12.08l11.437-4.113l11.876,6.492l-6.269-8.5l9.334-3.354l5.163,6.357l-1.412-7.703l7.423-2.664l6.722,2.416l-1.461,7.951
		l5.338-6.562l9.909,3.559l-6.271,8.5l11.873-6.492l11.438,4.113l-17.363,12.08l24.752-9.424l13.285,4.766l-30.516,12.58
		l28.886-6.127l-56.592,76.779l-56.592-76.779l28.88,6.127l-30.516-12.58L92.262,361.475z M112.652,382.365l-2.695,2.371l1.4,3.307
		l-2.095,2.922l2.095,2.912l-1.4,3.303l2.691,2.369l-0.627,3.539l3.158,1.711l0.175,3.584l3.457,0.965l0.966,3.463l3.588,0.178
		l1.712,3.148l3.533-0.621l2.369,2.688l3.308-1.393l2.917,2.094l2.912-2.094l3.302,1.396l2.376-2.691l3.532,0.621l1.712-3.148
		l3.583-0.178l0.971-3.457l3.457-0.971l0.179-3.584l3.153-1.711l-0.625-3.539l2.695-2.369l-1.4-3.303l2.094-2.912l-2.094-2.922
		l1.4-3.303l-2.691-2.365l0.621-3.537l-3.153-1.713l-0.179-3.586l-3.457-0.973l-0.966-3.451l-3.579-0.174l-1.717-3.16l-3.532,0.623
		l-2.376-2.691l-3.306,1.404l-2.912-2.098l-2.917,2.098l-3.308-1.404l-2.369,2.691l-3.533-0.623l-1.706,3.15l-3.59,0.184
		l-0.97,3.451l-3.453,0.973l-0.179,3.584l-3.154,1.711L112.652,382.365z M75.021,299.314v15.152c0,1.387-1.118,2.512-2.51,2.512
		c-1.388,0-2.513-1.125-2.513-2.512v-15.102c-9.398,1.314-16.639,9.359-16.639,19.119c0,10.676,8.653,19.326,19.329,19.326
		c10.677,0,19.329-8.65,19.329-19.326C92.019,308.602,84.596,300.467,75.021,299.314z M117.632,348.111l-24.754-9.424l17.363,12.08
		l-11.437,4.113l-11.876-6.492l6.269,8.5l-9.334,3.354l-5.163-6.357l1.412,7.703l-7.423,2.664l-6.722-2.416l1.461-7.951
		l-5.338,6.562l-9.909-3.559l6.271-8.5l-11.873,6.492l-11.438-4.113l17.363-12.08l-24.752,9.424l-13.285-4.766l30.516-12.58
		l-28.886,6.127l56.592-76.779l56.592,76.779l-28.88-6.127l30.516,12.58L117.632,348.111z M97.241,327.221l2.695-2.371l-1.4-3.307
		l2.095-2.922l-2.095-2.912l1.4-3.303l-2.691-2.369l0.627-3.539l-3.158-1.711l-0.175-3.584l-3.457-0.965l-0.966-3.463l-3.588-0.178
		l-1.712-3.148l-3.533,0.621l-2.369-2.688l-3.308,1.393l-2.917-2.094l-2.912,2.094l-3.302-1.396L64.1,294.07l-3.532-0.621
		l-1.712,3.148l-3.583,0.178l-0.971,3.457l-3.457,0.971l-0.179,3.584l-3.153,1.711l0.625,3.539l-2.695,2.369l1.4,3.303l-2.094,2.912
		l2.094,2.922l-1.4,3.303l2.691,2.365l-0.621,3.537l3.153,1.713l0.179,3.586l3.457,0.973l0.966,3.451l3.579,0.174l1.717,3.16
		l3.532-0.623l2.376,2.691l3.306-1.404l2.912,2.098l2.917-2.098l3.308,1.404l2.369-2.691l3.533,0.623l1.706-3.15l3.59-0.184
		l0.97-3.451l3.453-0.973l0.179-3.584l3.154-1.711L97.241,327.221z M134.872,300.611v-15.154c0-1.387,1.118-2.512,2.51-2.512
		c1.388,0,2.513,1.125,2.513,2.512v15.104c9.398-1.316,16.639-9.361,16.639-19.121c0-10.676-8.653-19.326-19.329-19.326
		c-10.677,0-19.329,8.65-19.329,19.326C117.875,291.322,125.298,299.457,134.872,300.611z M92.262,251.812l24.754,9.424
		l-17.363-12.08l11.437-4.111l11.876,6.492l-6.269-8.502l9.334-3.354l5.163,6.357l-1.412-7.703l7.423-2.664l6.722,2.418
		l-1.461,7.949l5.338-6.562l9.909,3.559l-6.271,8.502l11.873-6.492l11.438,4.111l-17.363,12.08l24.752-9.424l13.285,4.766
		l-30.516,12.58l28.886-6.125l-56.592,76.777l-56.592-76.777l28.88,6.125l-30.516-12.58L92.262,251.812z M112.652,272.705
		l-2.695,2.369l1.4,3.309l-2.095,2.92l2.095,2.912l-1.4,3.303l2.691,2.369l-0.627,3.539l3.158,1.711l0.175,3.584l3.457,0.965
		l0.966,3.463l3.588,0.178l1.712,3.148l3.533-0.621l2.369,2.688l3.308-1.391l2.917,2.092l2.912-2.092l3.302,1.395l2.376-2.691
		l3.532,0.621l1.712-3.148l3.583-0.178l0.971-3.457l3.457-0.971l0.179-3.584l3.153-1.711l-0.625-3.539l2.695-2.369l-1.4-3.303
		l2.094-2.912l-2.094-2.92l1.4-3.305l-2.691-2.365l0.621-3.537l-3.153-1.711l-0.179-3.588l-3.457-0.971l-0.966-3.453l-3.579-0.174
		l-1.717-3.158l-3.532,0.621l-2.376-2.689l-3.306,1.404l-2.912-2.1l-2.917,2.1l-3.308-1.404l-2.369,2.689l-3.533-0.621l-1.706,3.148
		l-3.59,0.184l-0.97,3.453l-3.453,0.971l-0.179,3.584l-3.154,1.711L112.652,272.705z M67.022,189.781v15.152
		c0,1.387-1.118,2.512-2.51,2.512c-1.388,0-2.513-1.125-2.513-2.512v-15.102c-9.398,1.314-16.639,9.359-16.639,19.119
		c0,10.676,8.653,19.326,19.329,19.326c10.677,0,19.329-8.65,19.329-19.326C84.02,199.068,76.597,190.934,67.022,189.781z
		 M109.633,238.578l-24.754-9.424l17.363,12.08l-11.437,4.113l-11.876-6.492l6.269,8.5l-9.334,3.354l-5.163-6.357l1.412,7.703
		l-7.423,2.664l-6.722-2.416l1.461-7.951l-5.338,6.562l-9.909-3.559l6.271-8.5l-11.873,6.492l-11.438-4.113l17.363-12.08
		l-24.752,9.424l-13.285-4.766l30.516-12.58l-28.886,6.127L64.69,150.58l56.592,76.779l-28.88-6.127l30.516,12.58L109.633,238.578z
		 M89.242,217.688l2.695-2.371l-1.4-3.307l2.095-2.922l-2.095-2.912l1.4-3.303l-2.691-2.369l0.627-3.539l-3.158-1.711l-0.175-3.584
		l-3.457-0.965l-0.966-3.463l-3.588-0.178l-1.712-3.148l-3.533,0.621l-2.369-2.688l-3.308,1.393l-2.917-2.094l-2.912,2.094
		l-3.302-1.396l-2.376,2.691l-3.532-0.621l-1.712,3.148l-3.583,0.178l-0.971,3.457l-3.457,0.971l-0.179,3.584l-3.153,1.711
		l0.625,3.539l-2.695,2.369l1.4,3.303l-2.094,2.912l2.094,2.922l-1.4,3.303l2.691,2.365l-0.621,3.537l3.153,1.713l0.179,3.586
		l3.457,0.973l0.966,3.451l3.579,0.174l1.717,3.16l3.532-0.623l2.376,2.691l3.306-1.404l2.912,2.098l2.917-2.098l3.308,1.404
		l2.369-2.691l3.533,0.623l1.706-3.15l3.59-0.184l0.97-3.451l3.453-0.973l0.179-3.584l3.154-1.711L89.242,217.688z M126.872,191.271
		v-15.152c0-1.387,1.118-2.512,2.51-2.512c1.388,0,2.513,1.125,2.513,2.512v15.102c9.398-1.314,16.639-9.359,16.639-19.119
		c0-10.676-8.653-19.326-19.329-19.326c-10.677,0-19.329,8.65-19.329,19.326C109.875,181.984,117.298,190.119,126.872,191.271z
		 M84.262,142.475l24.754,9.424l-17.363-12.08l11.437-4.113l11.876,6.492l-6.269-8.5l9.334-3.354l5.163,6.357l-1.412-7.703
		l7.423-2.664l6.722,2.416l-1.461,7.951l5.338-6.562l9.909,3.559l-6.271,8.5l11.873-6.492l11.438,4.113l-17.363,12.08l24.752-9.424
		l13.285,4.766l-30.516,12.58l28.886-6.127l-56.592,76.779l-56.592-76.779l28.88,6.127l-30.516-12.58L84.262,142.475z
		 M104.652,163.365l-2.695,2.371l1.4,3.307l-2.095,2.922l2.095,2.912l-1.4,3.303l2.691,2.369l-0.627,3.539l3.158,1.711l0.175,3.584
		l3.457,0.965l0.966,3.463l3.588,0.178l1.712,3.148l3.533-0.621l2.369,2.688l3.308-1.393l2.917,2.094l2.912-2.094l3.302,1.396
		l2.376-2.691l3.532,0.621l1.712-3.148l3.583-0.178l0.971-3.457l3.457-0.971l0.179-3.584l3.153-1.711l-0.625-3.539l2.695-2.369
		l-1.4-3.303l2.094-2.912l-2.094-2.922l1.4-3.303l-2.691-2.365l0.621-3.537l-3.153-1.713l-0.179-3.586l-3.457-0.973l-0.966-3.451
		l-3.579-0.174l-1.717-3.16l-3.532,0.623l-2.376-2.691l-3.306,1.404l-2.912-2.098l-2.917,2.098l-3.308-1.404l-2.369,2.691
		l-3.533-0.623l-1.706,3.15l-3.59,0.184l-0.97,3.451l-3.453,0.973l-0.179,3.584l-3.154,1.711L104.652,163.365z M67.021,80.314
		v15.152c0,1.387-1.118,2.512-2.51,2.512c-1.388,0-2.513-1.125-2.513-2.512V80.365C52.601,81.68,45.36,89.725,45.36,99.484
		c0,10.676,8.653,19.326,19.329,19.326c10.677,0,19.329-8.65,19.329-19.326C84.019,89.602,76.596,81.467,67.021,80.314z
		 M109.632,129.111l-24.754-9.424l17.363,12.08l-11.437,4.113l-11.876-6.492l6.269,8.5l-9.334,3.354l-5.163-6.357l1.412,7.703
		l-7.423,2.664l-6.722-2.416l1.461-7.951l-5.338,6.562l-9.909-3.559l6.271-8.5l-11.873,6.492l-11.438-4.113l17.363-12.08
		l-24.752,9.424l-13.285-4.766l30.516-12.58l-28.886,6.127l56.592-76.779l56.592,76.779l-28.88-6.127l30.516,12.58L109.632,129.111z
		 M89.241,108.221l2.695-2.371l-1.4-3.307l2.095-2.922l-2.095-2.912l1.4-3.303l-2.691-2.369l0.627-3.539l-3.158-1.711l-0.175-3.584
		l-3.457-0.965l-0.966-3.463l-3.588-0.178l-1.712-3.148l-3.533,0.621l-2.369-2.688l-3.308,1.393l-2.917-2.094l-2.912,2.094
		l-3.302-1.396L56.1,75.07l-3.532-0.621l-1.712,3.148l-3.583,0.178l-0.971,3.457l-3.457,0.971l-0.179,3.584l-3.153,1.711
		l0.625,3.539l-2.695,2.369l1.4,3.303l-2.094,2.912l2.094,2.922l-1.4,3.303l2.691,2.365l-0.621,3.537l3.153,1.713l0.179,3.586
		l3.457,0.973l0.966,3.451l3.579,0.174l1.717,3.16l3.532-0.623l2.376,2.691l3.306-1.404l2.912,2.098l2.917-2.098l3.308,1.404
		l2.369-2.691l3.533,0.623l1.706-3.15l3.59-0.184l0.97-3.451l3.453-0.973l0.179-3.584l3.154-1.711L89.241,108.221z M126.872,81.611
		V66.457c0-1.387,1.118-2.512,2.51-2.512c1.388,0,2.513,1.125,2.513,2.512v15.104c9.398-1.316,16.639-9.361,16.639-19.121
		c0-10.676-8.653-19.326-19.329-19.326c-10.677,0-19.329,8.65-19.329,19.326C109.875,72.322,117.298,80.457,126.872,81.611z
		 M84.262,32.812l24.754,9.424l-17.363-12.08l11.437-4.111l11.876,6.492l-6.269-8.502l9.334-3.354l5.163,6.357l-1.412-7.703
		l7.423-2.664l6.722,2.418l-1.461,7.949l5.338-6.562l9.909,3.559l-6.271,8.502l11.873-6.492l11.438,4.111l-17.363,12.08
		l24.752-9.424l13.285,4.766l-30.516,12.58l28.886-6.125l-56.592,76.777L72.612,44.033l28.88,6.125l-30.516-12.58L84.262,32.812z
		 M104.652,53.705l-2.695,2.369l1.4,3.309l-2.095,2.92l2.095,2.912l-1.4,3.303l2.691,2.369l-0.627,3.539l3.158,1.711l0.175,3.584
		l3.457,0.965l0.966,3.463l3.588,0.178l1.712,3.148l3.533-0.621l2.369,2.688l3.308-1.391l2.917,2.092l2.912-2.092l3.302,1.395
		l2.376-2.691l3.532,0.621l1.712-3.148l3.583-0.178l0.971-3.457l3.457-0.971l0.179-3.584l3.153-1.711l-0.625-3.539l2.695-2.369
		l-1.4-3.303l2.094-2.912l-2.094-2.92l1.4-3.305l-2.691-2.365l0.621-3.537l-3.153-1.711l-0.179-3.588l-3.457-0.971l-0.966-3.453
		l-3.579-0.174l-1.717-3.158l-3.532,0.621l-2.376-2.689l-3.306,1.404l-2.912-2.1l-2.917,2.1l-3.308-1.404l-2.369,2.689l-3.533-0.621
		l-1.706,3.148l-3.59,0.184l-0.97,3.453l-3.453,0.971l-0.179,3.584l-3.154,1.711L104.652,53.705z"/>
</g>
</svg>
