<?xml version="1.0" encoding="utf-8"?>
<!-- Generator: Adobe Illustrator 16.0.4, SVG Export Plug-In . SVG Version: 6.00 Build 0)  -->
<!DOCTYPE svg PUBLIC "-//W3C//DTD SVG 1.1//EN" "http://www.w3.org/Graphics/SVG/1.1/DTD/svg11.dtd">
<svg version="1.1" id="Layer_1" xmlns="http://www.w3.org/2000/svg" xmlns:xlink="http://www.w3.org/1999/xlink" x="0px" y="0px"
	 width="800px" height="544.594px" viewBox="0 127.703 800 544.594" enable-background="new 0 127.703 800 544.594"
	 xml:space="preserve">
<g id="bg" display="none">
	<rect x="0.549" display="inline" width="799.451" height="800"/>
</g>
<g id="Layer_1_1_">
	<g>
		<path fill="#525252" d="M214.447,177.264c-27.221,0-49.278,22.06-49.278,49.281c0,27.234,22.058,49.294,49.278,49.294
			c27.22,0,49.278-22.06,49.278-49.294C263.726,199.323,241.668,177.264,214.447,177.264z M247.018,226.545
			c-0.405,2.634-1.045,4.662-1.466,6.442c-0.89,3.54-1.591,5.583-1.591,5.583s-0.687-2.043-1.592-5.583
			c-0.421-1.716-0.936-3.869-1.528-6.273c-0.546-2.244-1.482-4.584-2.729-6.705c-1.279-2.092-2.964-3.869-4.789-4.775
			c-1.81-0.89-3.604-0.935-5.055-0.403c-1.481,0.591-2.683,1.713-3.712,3.522c-0.983,1.872-1.67,4.492-1.731,7.459l-0.142,3.165
			c-0.047,1.232-0.249,2.573-0.421,3.883c-0.437,2.593-1.279,5.244-2.527,7.85c-2.418,5.162-7.472,9.843-13.321,11.34
			c-5.834,1.621-11.73,0.234-15.85-2.496c-4.242-2.808-6.738-6.801-7.955-10.469c-1.186-3.664-1.169-7.19-0.795-9.966
			c0.357-2.716,1.045-4.666,1.466-6.507c0.937-3.54,1.654-5.569,1.654-5.569s0.718,2.029,1.652,5.569
			c0.452,1.73,0.968,3.823,1.576,6.255c0.67,2.124,1.699,4.199,3.12,6.022c1.436,1.777,3.275,3.091,5.227,3.618
			c1.934,0.577,3.883,0.329,5.287-0.467c1.404-0.812,2.449-2.058,3.276-4.149c0.405-1.031,0.655-2.277,0.873-3.618
			c0.047-0.719,0.188-1.406,0.156-2.153l0.094-2.934c0.233-5.053,1.419-10.621,4.742-15.503c3.183-4.869,8.86-8.77,14.928-9.361
			c6.084-0.75,11.84,1.795,15.35,5.304c3.589,3.526,5.194,7.735,5.882,11.357C247.799,220.632,247.471,223.844,247.018,226.545z"/>
		<path fill="#525252" d="M585.555,177.264c-27.221,0-49.278,22.06-49.278,49.281c0,27.234,22.059,49.294,49.278,49.294
			c27.224,0,49.277-22.06,49.277-49.294C634.832,199.323,612.777,177.264,585.555,177.264z M607.689,224.187l-2.466-1.183
			l-4.68,24.46l-2.9,15.159l-8.096-13.135l-11.934-19.279l-0.922,12.044l-0.812,10.465l-8.424-5.863
			c-0.781-0.548-1.701-0.92-2.512-1.419c-0.812-0.5-1.404-1.342-2.074-2.075l-3.963-4.478c-2.59-3.06-5.146-6.146-7.597-9.453
			c4.023,0.812,7.908,1.842,11.777,2.899l2.244,0.658l1.703-22.045l1.418-18.36l9.688,15.631l13.492,21.825l3.482-18.331
			l1.963-10.264l7.94,6.896c0.779,0.688,1.543,1.402,2.341,2.058c0.842,0.627,1.743,1.186,2.262,2.17l3.494,5.522
			c2.309,3.665,4.572,7.424,6.66,11.34C615.645,227.809,611.637,226.077,607.689,224.187z"/>
		<g>
			<polygon fill="#525252" points="224.961,549.871 231.294,552.055 228.144,538.734 			"/>
			<polygon fill="#525252" points="503.393,571.803 509.648,569.684 506.529,557.779 			"/>
			<path fill="#525252" d="M554.152,533.367l-3.884,1.34v15.662l3.884-1.342c5.022-1.652,6.69-4.306,6.69-10.482
				C560.844,532.18,558.787,531.822,554.152,533.367z"/>
			<path fill="#525252" d="M145.311,508.08c0-3.385-1.045-5.852-6.192-7.627l-4.056-1.375v11.031l2.713,0.92
				C142.768,512.729,145.311,511.777,145.311,508.08z"/>
			<path fill="#525252" d="M139.289,525.379l-4.227-1.434v14.383l4.913,1.684c4.491,1.529,6.957-0.248,6.957-4.992
				C146.933,529.748,144.999,527.346,139.289,525.379z"/>
			<path fill="#525252" d="M799.451,333.882l-145.398,50.013v68.138L400,539.42l-254.05-87.388v-68.138L0.549,333.882l50.667,80.336
				L0.549,466.632l67.639,23.278v68.135L400,672.201l331.814-114.156V489.91l67.637-23.278l-50.664-52.414L799.451,333.882z
				 M132.972,400.584v47.578l-54.114-19.996L132.972,400.584z M139.976,554.004l-18.72-6.41v-67.451l17.862,6.113
				c12.572,4.338,20.091,14.273,20.091,26.582c0,4.433-1.341,7.99-3.76,10.203c3.511,4.49,5.289,10.045,5.289,16.535
				C160.738,549.512,155.294,559.262,139.976,554.004z M200.407,569.293c0,2.637-1.887,4.758-5.335,3.572l-28.001-9.578v-62.025
				c0-3.524,2.637-4.506,5.147-3.631l3.401,1.135c2.559,0.875,5.257,3.716,5.257,7.24v47.892l14.195,4.866
				c3.448,1.216,5.335,4.603,5.335,7.177L200.407,569.293L200.407,569.293z M251.588,590.258c-1.403,1.42-3.696,0.701-4.148,0.547
				l-3.916-1.344c-2.262-0.779-4.29-3.119-5.038-5.834l-3.54-16.221l-13.588-4.648l-3.728,13.57
				c-0.796,2.371-2.777,3.338-4.978,2.572l-4.023-1.388c-0.438-0.125-2.684-1-4.04-3.34c-0.64-1.076-1.264-2.742-0.656-4.711
				l15.506-51.477c0.826-2.619,3.244-3.072,5.148-2.437l7.066,2.437c1.95,0.653,4.398,2.809,5.225,5.959L252.244,586
				C252.821,588.371,252.213,589.619,251.588,590.258z M276.361,601.35c-12.714-4.354-20.592-15.815-20.592-29.918v-22.838
				c0-13.944,8.08-20.221,20.592-15.942c11.012,3.809,18.25,12.637,19.872,24.239c0.469,2.966-0.981,4.979-3.603,4.931l-3.136-0.234
				c-0.484-0.047-1.014-0.139-1.529-0.326c-2.683-0.905-4.96-3.557-5.381-6.239c-0.422-4.339-2.449-6.957-6.224-8.269
				c-4.307-1.465-6.787-0.844-6.787,6.568v22.836c0,7.379,2.371,9.576,6.787,11.061c3.166,1.123,6.441,1.187,6.441-6.539
				c0-3.508,2.652-4.506,5.163-3.664l3.401,1.187c2.542,0.844,5.241,3.682,5.241,7.209
				C296.608,599.945,289.23,605.748,276.361,601.35z M345.574,618.912c0,2.684-1.872,4.883-5.335,3.684l-1.7-0.592
				c-6.738-2.279-10.264-7.486-14.086-15.68l-7.722-16.396l-0.062,0.078v19.109c0,3.51-2.685,4.492-5.164,3.649l-3.51-1.198
				c-2.48-0.859-5.148-3.67-5.148-7.191V547.78c0-3.525,2.668-4.492,5.148-3.65l3.416,1.156c2.543,0.889,5.258,3.727,5.258,7.203
				v13.762l10.965-12.293c1.312-1.967,3.761-1.84,5.009-1.404l3.838,1.343c0.562,0.153,3.368,1.245,4.694,4.057
				c0.607,1.309,1.015,3.291-0.421,5.303l-14.57,16.662l11.106,24.285c0.968,2.029,1.935,3.963,2.527,4.147l0.421,0.144
				c3.463,1.199,5.335,4.682,5.335,7.332L345.574,618.912L345.574,618.912z M475.516,610.582c0,2.779-1.823,6.367-5.225,7.521
				l-3.119,1.029c-2.543,0.873-5.258-0.252-5.258-3.961l0.547-29.606l-1.904,5.987c-1.325,3.933-3.416,5.021-4.883,5.508
				l-3.772,1.295c-0.906,0.279-3.591,1.187-5.025-2.12l-2.369-5.619l0.547,30.172c0,2.84-1.811,6.396-5.166,7.52l-3.26,1.121
				c-2.512,0.844-5.162-0.311-5.162-4.008V565.5c0-2.742,1.793-6.314,5.162-7.441l4.945-1.666c1.545-0.53,3.807-0.312,5.039,2.027
				l6.94,15.74l6.834-20.201c1.265-3.525,3.804-5.18,5.101-5.617l4.805-1.621c2.541-0.844,5.226,0.25,5.226,3.992v59.869H475.516z
				 M529.615,596.047c-1.39,2.463-3.635,3.338-4.104,3.463l-3.852,1.31c-2.23,0.748-4.213-0.345-4.945-2.697l-3.479-14.697
				l-13.386,4.48l-3.666,16.971c-0.778,3.023-2.729,5.428-4.912,6.162l-3.944,1.307c-0.441,0.177-2.64,0.799-3.994-0.715
				c-0.625-0.701-1.219-2.045-0.658-4.543l15.289-65.201c0.812-3.34,3.197-5.522,5.051-6.146l6.978-2.371
				c1.918-0.625,4.352-0.047,5.146,2.715l15.101,55.002C530.814,593.189,530.209,594.951,529.615,596.047z M578.363,575.951
				c0,2.812-1.81,6.43-5.148,7.553l-1.762,0.592c-6.599,2.215-10.092-0.873-13.867-6.959l-5.93-12.322l-1.388,0.472v20.201
				c0,3.727-2.639,6.594-5.086,7.438l-3.354,1.127c-2.51,0.842-5.178-0.254-5.178-3.994v-65.645l17.502-5.867
				c13.274-4.475,20.278,0.939,20.278,15.631c0,9.752-2.869,17.006-9.252,22.996l4.886,9.795c1.247,1.982,1.901,2.027,1.948,2.027
				l1.201-0.437c3.34-1.106,5.148,1.297,5.148,4.119L578.363,575.951L578.363,575.951z M625.814,559.979
				c0,2.841-1.855,6.462-5.238,7.615l-1.687,0.527c-6.612,2.248-10.106-0.812-13.866-6.814l-7.599-12.012l-0.076,0.141v20.216
				c0,3.715-2.606,6.616-5.071,7.428l-3.433,1.153c-2.465,0.843-5.086-0.282-5.086-4.024v-59.9c0-3.717,2.621-6.614,5.086-7.424
				l3.338-1.129c2.525-0.84,5.166,0.285,5.166,3.996v14.567l10.824-20.618c1.279-3.029,3.685-4.558,4.914-4.966l3.789-1.276
				c0.547-0.188,3.324-0.998,4.603,1.076c0.596,0.95,1,2.729-0.404,5.881l-14.338,27.737l10.924,17.998
				c0.932,1.47,1.916,2.841,2.494,2.654l0.422-0.158c3.383-1.123,5.238,1.25,5.238,4.07V559.979z M668.715,489.314
				c0,2.748-1.779,6.241-5.07,7.332l-18.842,6.364v13.039l13.211-4.43c3.354-1.123,5.181,1.154,5.181,3.901v3.617
				c0,2.777-1.797,6.271-5.086,7.365l-13.306,4.473v13.525l18.765-6.303c3.34-1.121,5.147,1.154,5.147,3.901v3.65
				c0,2.715-1.779,6.238-5.07,7.346l-32.446,10.904v-71.352l32.369-10.89c3.34-1.123,5.147,1.187,5.147,3.933V489.314z
				 M712.299,474.572c0,2.762-1.811,6.35-5.178,7.473l-8.346,2.809v50.697c0,3.713-2.605,6.613-5.072,7.455l-3.352,1.125
				c-2.513,0.844-5.164-0.283-5.164-4.025v-50.68l-8.271,2.76c-3.352,1.154-5.178-1.153-5.178-3.883v-3.543
				c0-2.776,1.826-6.363,5.178-7.502l30.203-10.156c3.367-1.093,5.178,1.185,5.178,3.931L712.299,474.572L712.299,474.572z
				 M667.342,448.162v-47.578l54.103,27.582L667.342,448.162z"/>
		</g>
		<g>
			<path fill="#525252" d="M409.297,271.453v55.536c0,5.083-4.102,9.201-9.202,9.201c-5.085,0-9.204-4.118-9.204-9.201V271.64
				c-34.442,4.821-60.978,34.305-60.978,70.072c0,39.123,31.713,70.819,70.836,70.819c39.124,0,70.839-31.696,70.839-70.819
				C471.588,305.492,444.381,275.68,409.297,271.453z"/>
			<path fill="#525252" d="M614.133,432.815l-111.83-46.1l105.84,22.448L400.749,127.799L193.356,409.165l105.857-22.448
				l-111.832,46.1l48.687,17.471l90.709-34.539l-63.629,44.271l41.915,15.069l43.506-23.789l-22.979,31.152l36.315,13.041
				l19.562-24.053l-5.351,29.137l24.631,8.86l27.204-9.764l-5.178-28.233l18.922,23.301l34.209-12.289L452.928,451.3l43.521,23.789
				l41.916-15.07l-63.631-44.271l90.711,34.539L614.133,432.815z M493.02,386.671l-11.559,6.27l-0.654,13.134l-12.653,3.559
				l-3.556,12.649l-13.151,0.673l-6.256,11.541l-12.945-2.276l-8.688,9.859l-12.121-5.146l-10.687,7.688l-10.67-7.688l-12.12,5.146
				l-8.704-9.859l-12.947,2.276l-6.286-11.573l-13.119-0.641l-3.541-12.649l-12.667-3.559l-0.655-13.147l-11.559-6.271l2.276-12.964
				l-9.858-8.674l5.132-12.104l-7.675-10.702l7.675-10.67l-5.132-12.104l9.875-8.688l-2.293-12.965l11.559-6.27l0.655-13.135
				l12.667-3.558l3.557-12.667l13.135-0.655l6.271-11.541l12.945,2.276l8.707-9.859l12.104,5.115l10.67-7.675l10.688,7.675
				l12.121-5.102l8.688,9.846l12.945-2.276l6.272,11.541l13.15,0.655l3.539,12.685l12.668,3.54l0.641,13.135l11.574,6.27
				l-2.293,12.965l9.856,8.688l-5.131,12.104l7.674,10.67l-7.674,10.702l5.131,12.118l-9.873,8.691L493.02,386.671z"/>
		</g>
	</g>
</g>
</svg>
