<?xml version="1.0" encoding="utf-8"?>
<!-- Generator: Adobe Illustrator 16.0.4, SVG Export Plug-In . SVG Version: 6.00 Build 0)  -->
<!DOCTYPE svg PUBLIC "-//W3C//DTD SVG 1.1//EN" "http://www.w3.org/Graphics/SVG/1.1/DTD/svg11.dtd">
<svg version="1.1" id="Layer_1" xmlns="http://www.w3.org/2000/svg" xmlns:xlink="http://www.w3.org/1999/xlink" x="0px" y="0px"
	 width="542.973px" height="205.49px" viewBox="0 0 542.973 205.49" enable-background="new 0 0 542.973 205.49"
	 xml:space="preserve">
<g>
	<path fill="#666666" d="M309.541,189.608c-95.906,0-191.814,0-288.054,0c0-57.551,0-115.104,0-173.728
		c95.793,0,191.925,0,288.054,0c-0.57,18.89-1.693,37.782-1.602,56.668C308.128,111.571,308.97,150.587,309.541,189.608z
		 M48.369,164.465c28.957-1.659,59.37,9.046,80.583-19.646c11.567-15.643,11.518-70.271-0.11-86.802
		c-20.975-29.822-51.826-16.348-80.473-19.758C48.369,81.324,48.369,121.967,48.369,164.465z M248.865,164.058
		c-12.99-48.367,16.062-83.969,33.307-122.941c-12.344-5.581-18.375-1.452-22.867,8.965c-6.213,14.394-13.635,28.268-21.951,45.247
		c-8.301-17.176-15.496-30.921-21.625-45.125c-4.412-10.22-10.355-14.706-23.244-9.076c18.42,39.102,46.232,75.459,33.816,122.933
		C235.505,164.058,239.988,164.058,248.865,164.058z M157.037,39.266c0,42.309,0,82.911,0,123.934c6.182,0,11.39,0,16.377,0
		c0-42.07,0-82.71,0-123.934C167.729,39.266,163.23,39.266,157.037,39.266z"/>
	<path fill="#666666" d="M521.486,165.286c-27.082,0-54.164,0-82.31,0c0-42.59,0-83.965,0-128.557c27.322,0,54.816,0,82.31,0
		c0,5.792,0,11.58,0,17.372c-20.418,0.991-40.838,1.979-61.156,2.966c0,12.477,0,23.564,0,35.794c17.338,0,33.313,0,49.852,0
		c0,6.026,0,10.861,0,17.666c-17.147,0-33.543,0-50.037,0c0,13.154,0,24.316,0,37.388c21.23,0,41.287,0,61.343,0
		C521.486,153.707,521.486,159.495,521.486,165.286z"/>
	<path fill="#666666" d="M424.019,164.771c-9.543,0-16.399,0-23.702,0c-6.136-12.689-13.031-24.805-17.943-37.681
		c-5.703-14.956-14.811-20.546-32.854-14.458c0,7.592,0,16.02,0,24.444c0,8.612,0,17.223,0,27.009c-7.19,0-13.18,0-20.022,0
		c0-41.568,0-82.954,0-125.609c20.756,0,40.768-1.146,60.576,0.373c15.301,1.175,25.049,11.73,28.047,26.748
		c3.846,19.26-3.738,33.825-22.377,43.815C405.023,127.582,414.076,145.306,424.019,164.771z M350.251,92.25
		c11.625,0,22.592,2.284,31.812-0.742c7.04-2.312,15.03-10.492,16.946-17.59c2.853-10.529-5.459-16.766-16.246-17.217
		c-10.596-0.441-21.227-0.095-32.512-0.095C350.251,69.048,350.251,79.271,350.251,92.25z"/>
	<path fill="#666666" d="M66.556,147.099c0-30.789,0-60.489,0-90.015c37.915-7.968,51.859,2.859,51.886,39.485
		c0.002,1.73,0,3.461,0,5.188C118.441,144.705,112.687,149.95,66.556,147.099z"/>
</g>
</svg>
