<?xml version="1.0" encoding="utf-8"?>
<!-- Generator: Adobe Illustrator 16.0.4, SVG Export Plug-In . SVG Version: 6.00 Build 0)  -->
<!DOCTYPE svg PUBLIC "-//W3C//DTD SVG 1.1//EN" "http://www.w3.org/Graphics/SVG/1.1/DTD/svg11.dtd">
<svg version="1.1" id="Layer_1" xmlns="http://www.w3.org/2000/svg" xmlns:xlink="http://www.w3.org/1999/xlink" x="0px" y="0px"
	 width="530.973px" height="165.59px" viewBox="0 0 530.973 165.59" enable-background="new 0 0 530.973 165.59"
	 xml:space="preserve">
<g>
	<path fill="#666666" d="M92.378,14.875c3.001,0.973,5.97,2.063,9.01,2.901c28.772,7.937,48.606,34.032,48.592,64.003
		c-0.013,29.995-19.837,56.071-48.603,63.997c-3.035,0.834-6.001,1.922-8.999,2.893c-6.371,0-12.742,0-19.113,0
		c-2.765-0.968-5.502-2.027-8.3-2.889C37,137.175,20.057,118.207,16.257,89.535c-3.52-26.552,7.293-48.179,29.74-62.825
		c8.182-5.338,18.128-7.97,27.269-11.836C79.636,14.875,86.007,14.875,92.378,14.875z M83.062,21.255
		C48.95,21.186,21.456,48.206,21.478,81.78c0.021,33.352,27.235,60.38,60.927,60.506c34.361,0.131,61.703-26.513,61.762-60.185
		C144.226,48.164,117.273,21.324,83.062,21.255z"/>
	<path fill="#666666" d="M515.602,73.581c-1.852,5.993-3.845,11.946-5.526,17.985c-2.866,10.274-6.75,13.396-17.289,13.42
		c-8.625,0.019-17.249,0.105-25.87-0.034c-6.663-0.109-9.452-3.578-8.236-10.124c0.618-3.328,1.676-6.574,2.476-9.87
		c3.688-15.188,3.679-15.189,20.564-13.26c-1.483,6.113-3.293,12.073-4.246,18.169c-0.406,2.605-4.31,6.734,1.707,8.191
		c7.2,1.746,11.85-0.136,13.276-5.401c1.417-5.228,3.125-10.438,3.853-15.772c0.69-5.07,3.146-6.262,7.742-5.887
		c3.82,0.314,7.699-0.073,11.552-0.149C515.602,71.761,515.602,72.669,515.602,73.581z"/>
	<path fill="#666666" d="M515.602,65.389c-15.744,0-31.492,0-47.646,0c4.458-7.639,37.386-9.996,47.646-4.095
		C515.602,62.659,515.602,64.024,515.602,65.389z"/>
	<path fill="#666666" d="M211.851,71.286c5.995,0,11.191,0,16.598,0c0,1.984,0,3.764,0,6.447c4.22-0.253,8.923,0.714,11.948-1.106
		c2.52-1.517,3.067-6.305,5.162-11.227c-11.151,0-20.374-0.106-29.594,0.038c-6.508,0.1-14.726-1.737-19.019,1.492
		c-3.992,3.004-3.87,11.553-5.427,17.693c-1.612,6.354-3.064,12.746-4.748,19.807c-5.49,0-11.667,0-17.854,0
		c3.21-12.746,6.398-25.405,9.726-38.614c-5.093,0-9.512,0-13.918,0c0.146-5.875,3.094-7.44,8.626-7.382
		c25.688,0.267,51.382,0.038,77.072,0.198c4.163,0.026,9.653-1.94,11.313,4.517c1.366,5.306-2.046,13.004-6.711,15.78
		c-0.543,0.323-1.046,0.712-1.958,1.336c7.559,4.598,2.526,10.282,1.542,15.51c-0.908,4.828-3.867,8.744-8.996,8.875
		c-14.002,0.354-28.021,0.123-42.347,0.123C206.208,93.3,208.996,82.422,211.851,71.286z M239.394,85.594
		c-14.101-2.538-15.081-2.188-15.268,12.024C237.234,99.133,237.234,99.133,239.394,85.594z"/>
	<path fill="#666666" d="M400.688,97.266c12.38,2.227,12.814,1.953,15.543-9.017c1.421-5.708,2.608-11.489,4.371-17.09
		c1.396-4.438-0.091-5.834-4.358-5.78c-7.933,0.1-15.863,0.03-24.362,0.03c-0.13-2.205-0.238-4.068-0.392-6.683
		c14.058,0,27.622-0.279,41.165,0.137c5.443,0.168,7.153,4.615,6.098,9.379c-2.007,9.05-4.34,18.041-6.921,26.943
		c-1.566,5.4-5.31,9.42-11.147,9.578c-13.129,0.348-26.271,0.109-39.698,0.109c2.551-9.861,5.312-19.166,7.249-28.641
		c0.904-4.431,2.896-5.496,6.896-5.203c3.579,0.261,7.195,0.054,11.668,0.054C404.643,80.316,402.667,88.788,400.688,97.266z"/>
	<path fill="#666666" d="M320.906,104.77c-5.507,0-10.69,0-16.207,0c0.912-3.939,1.762-7.604,2.622-11.32
		c-16.626-2.004-20.316-2.012-26.167,11.279c-4.129,0-8.373,0-13.801,0c9.57-9.787,18.566-18.834,27.381-28.054
		c5.136-5.371,9.918-11.075,15.024-16.476c0.886-0.94,2.574-1.532,3.911-1.57c5.878-0.168,11.764-0.072,17.833-0.072
		C327.943,74.08,324.478,89.184,320.906,104.77z M298.986,84.011c10.956,1.772,11.61,1.034,12.232-12.93
		C307.068,75.469,303.412,79.334,298.986,84.011z"/>
	<path fill="#666666" d="M351.438,71.088c-1.826,7.207-3.494,13.534-5.022,19.896c-1.106,4.599-0.103,7.367,5.567,7.222
		c21.354-0.547,16.923,3.135,22.136-16.812c0.854-3.265,1.788-6.507,2.752-10.001c2.094,0,4.041,0,5.967,0
		c0.186,0.542,0.514,0.985,0.429,1.328c-1.828,7.462-3.469,14.984-5.641,22.347c-1.936,6.563-6.421,10.098-13.614,9.961
		c-8.848-0.168-17.701,0.074-26.548-0.084c-7.049-0.125-9.727-2.721-8.816-9.725c0.926-7.125,2.785-14.161,4.692-21.11
		c0.36-1.311,2.804-2.736,4.399-2.886C342.002,70.822,346.329,71.088,351.438,71.088z"/>
	<path fill="#666666" d="M452.425,104.792c-5.996,0-11.631,0-17.626,0c2.501-10.194,4.793-20.21,7.559-30.096
		c0.423-1.516,2.935-3.245,4.647-3.445c4.242-0.496,8.58-0.163,13.518-0.163C457.799,82.413,455.181,93.314,452.425,104.792z"/>
	<path fill="#666666" d="M444.355,66.592c0.796-4.029,1.164-5.908,1.532-7.769c6.273,0,12.114,0,18.39,0
		C460.97,70.828,451.631,62.769,444.355,66.592z"/>
	<path fill="#666666" d="M335.699,64.594c1.552-7.039,3.703-7.589,18.921-5.437C352.632,66.234,349.562,67.137,335.699,64.594z"/>
	<path fill="#666666" d="M379.195,58.819c3.144,0,5.574,0,8.01,0c0.349,0.52,0.697,1.04,1.047,1.561
		c-2.539,2.058-5.079,4.118-7.618,6.176c-0.591-0.507-1.184-1.015-1.773-1.522C378.963,63.104,379.067,61.174,379.195,58.819z"/>
	<path fill="#666666" d="M140.578,81.854c-0.026,31.649-26.154,57.35-58.112,57.158c-31.479-0.187-57.449-26.128-57.389-57.323
		c0.062-31.498,26.383-57.331,58.237-57.156C114.894,24.705,140.604,50.44,140.578,81.854z M113.636,83.757
		c0.404-0.527,0.757-1.119,1.231-1.59c7.158-7.122,9.686-15.433,5.397-24.838c-4.112-9.021-11.571-12.786-21.479-12.582
		c-12.961,0.267-25.932,0.062-38.898,0.067c-3.867,0.001-7.762-0.236-11.585,0.184c-1.375,0.151-3.074,1.692-3.655,3.022
		c-0.314,0.72,1.162,2.931,2.279,3.4c1.573,0.658,3.562,0.401,5.372,0.403c15.924,0.023,31.849-0.106,47.771,0.071
		c8.091,0.09,13.728,5.143,14.686,12.47c0.944,7.218-3.663,13.189-11.382,15.539c-2.152,0.657-3.879,2.709-5.801,4.123
		c1.903,1.151,3.671,2.801,5.735,3.363c7.215,1.969,12.11,8.02,11.555,14.851c-0.582,7.155-5.912,12.459-13.352,13.165
		c-2.032,0.193-4.225-0.312-6.092,0.287c-1.401,0.449-3.297,2.136-3.323,3.308c-0.026,1.167,1.812,3.085,3.166,3.456
		c7.833,2.148,18.163-1.916,22.954-8.684C124.969,104.229,123.465,94.307,113.636,83.757z M67.897,88.695
		c0-9.548,0.163-19.104-0.154-28.642c-0.056-1.671-2.128-3.277-3.269-4.913c-1.195,1.617-3.409,3.22-3.43,4.852
		c-0.244,19.095-0.259,38.195,0.009,57.291c0.024,1.746,2.418,3.46,3.711,5.189c1.044-1.709,2.938-3.393,2.992-5.134
		C68.053,107.799,67.898,98.246,67.897,88.695z M91.105,83.128c0-7.711,0.201-15.433-0.158-23.128
		c-0.078-1.665-2.164-3.236-3.325-4.852c-1.176,1.63-3.344,3.241-3.372,4.891c-0.259,15.646-0.253,31.298-0.016,46.945
		c0.026,1.707,1.986,3.383,3.05,5.074c1.272-1.705,3.555-3.358,3.645-5.125C91.328,99.016,91.103,91.066,91.105,83.128z"/>
</g>
</svg>
