<?xml version="1.0" encoding="utf-8"?>
<!-- Generator: Adobe Illustrator 16.0.4, SVG Export Plug-In . SVG Version: 6.00 Build 0)  -->
<!DOCTYPE svg PUBLIC "-//W3C//DTD SVG 1.1//EN" "http://www.w3.org/Graphics/SVG/1.1/DTD/svg11.dtd">
<svg version="1.1" id="Layer_1" xmlns="http://www.w3.org/2000/svg" xmlns:xlink="http://www.w3.org/1999/xlink" x="0px" y="0px"
	 width="537px" height="129px" viewBox="0 0 537 129" enable-background="new 0 0 537 129" xml:space="preserve">
<g>
	<path fill="#666666" d="M156.579,99.66c0,7.511,0,14.748,0,22.441c-8.246-0.463-16.012-1.664-22.592-7.097
		c-9.505-7.847-13.883-17.716-13.479-30.171c0.463-14.266,0.116-28.559,0.103-42.84c-0.006-6.478-5.223-11.373-12.088-11.39
		c-6.485-0.015-10.59,4.29-10.592,11.12c-0.004,10.912-0.001,21.825-0.001,33.211c-15.069,0-29.957,0-45.372,0
		c0,4.471-0.192,8.488,0.035,12.481c0.782,13.778-10.204,29.29-23.244,32.46c-4.342,1.057-8.743,1.869-13.516,2.878
		c0-8.151,0-15.497,0-23.136c5.492,0.283,10.291-0.983,12.879-6.232c0.758-1.537,1.101-3.429,1.111-5.16
		c0.085-14.281-0.007-28.562,0.065-42.843c0.059-11.681,3.458-22.104,12.838-29.646c9.953-8.002,25.42-11.074,37.375-3.378
		c6.453,4.153,6.242,3.863,13.203-0.13c13.794-7.914,31.535-4.45,41.641,8.076c5.921,7.339,7.923,15.342,7.626,24.589
		c-0.432,13.427-0.216,26.88-0.076,40.319C142.597,94.893,147.069,99.443,156.579,99.66z M92.048,68.34
		c0-9.28-0.219-17.964,0.115-26.626c0.122-3.157,0.934-6.633,2.516-9.325c5.506-9.361,19.387-9.544,25.575-3.684
		c4.733,4.481,6.218,9.527,6.231,15.493c0.034,14.977-0.208,29.959,0.076,44.931c0.254,13.404,10.216,25.129,25.141,26.514
		c0-2.496-0.076-4.955,0.022-7.408c0.09-2.268-0.547-3.196-3.084-3.867c-5.494-1.45-11.48-7.844-11.311-14.62
		c0.313-12.449,0.164-24.913,0.052-37.37c-0.042-4.7-0.28-9.423-0.835-14.087c-1.872-15.738-17.88-28.555-35.335-22.975
		c-5.398,1.727-10.154,5.458-14.967,8.138c-3.488-2.222-7.443-5.195-11.785-7.409c-7.68-3.917-15.83-3.1-23.072,0.606
		c-10.67,5.462-15.501,15.106-15.604,26.973c-0.131,15.256-0.208,30.518,0.054,45.771c0.106,6.152-5.538,12.559-9.893,14.129
		c-3.751,1.353-5.041,3.123-4.515,6.832c0.228,1.61,0.038,3.28,0.038,4.871c11.43,1.178,24.928-13.365,25.178-24.938
		c0.156-7.215,0.029-14.438,0.029-21.947C62.045,68.34,76.832,68.34,92.048,68.34z"/>
	<path fill="#666666" d="M310.842,43.91c2.885,0,5.675-0.223,8.393,0.121c0.949,0.121,2.096,1.483,2.521,2.535
		c4.827,11.896,9.532,23.844,14.915,35.739c0-5.664,0.007-11.326-0.002-16.988c-0.01-5.73,0.042-11.462-0.082-17.191
		c-0.075-3.449,1.331-5.013,4.821-4.513c0.952,0.137,1.909,0.246,3.271,0.42c0,8.776,0,17.511,0,26.245c0,8.768,0,17.533,0,26.15
		c-0.261,0.24-0.354,0.404-0.462,0.414c-9.172,0.879-9.295,0.928-12.693-7.568c-3.768-9.414-7.278-18.928-10.907-28.396
		c-0.33-0.864-0.699-1.714-1.839-2.491c0,9.667-0.004,19.335,0.005,29.003c0,0.838,0.112,1.676,0.107,2.514
		c-0.036,7.5-0.041,7.5-8.048,6.832C310.842,79.355,310.842,61.944,310.842,43.91z"/>
	<path fill="#666666" d="M239.756,81.253c0.638,8.21,3.38,11.081,9.917,10.687c4.57-0.276,7.234-2.817,7.862-7.502
		c0.488-3.633-2.069-7.936-5.422-9.308c-4.408-1.803-8.872-3.503-13.149-5.584c-5.501-2.675-6.871-7.717-6.555-13.299
		c0.325-5.759,3.396-9.765,8.584-12.234c6.334-3.014,17.098-1.693,19.928,3.083c1.749,2.951,2.817,6.305,4.476,10.132
		c-3.841,0-6.429,0-9.021-0.001c-1.149-6.137-2.664-7.853-6.8-8.283c-4.052-0.421-7.158,0.743-8.597,4.746
		c-1.437,3.998,0.093,8.328,4.03,10.352c3.518,1.808,7.438,2.817,11.049,4.467c4.384,2,8.503,4.675,8.987,9.978
		c0.585,6.432,0.612,12.787-5.873,17.064c-10.445,6.891-24.247,1.612-26.884-10.478c-0.257-1.175-0.62-2.328-1.022-3.82
		C234.283,81.253,236.88,81.253,239.756,81.253z"/>
	<path fill="#666666" d="M274.677,44.135c9.427,0,18.607,0,28.028,0c0,2.085,0,3.961,0,6.233c-6.512,0-12.906,0-19.613,0
		c0,5.206,0,10.035,0,15.327c6.035,0,12.247,0,18.73,0c0,2.451,0,4.453,0,6.764c-6.151,0-12.262,0-18.707,0
		c0,5.932,0,11.575,0,17.682c6.658,0,13.431,0,20.43,0c0,2.451,0,4.452,0,6.648c-9.639,0-19.104,0-28.868,0
		C274.677,79.367,274.677,61.966,274.677,44.135z"/>
	<path fill="#666666" d="M181.414,43.55c8.831,0,17.594-0.084,26.348,0.164c0.673,0.019,1.844,2.415,1.752,3.627
		c-0.087,1.137-1.501,3.062-2.402,3.104c-5.973,0.279-11.965,0.145-18.192,0.145c0,5.203,0,9.909,0,15.08c6.071,0,12.286,0,18.784,0
		c0,2.451,0,4.454,0,6.916c-6.213,0-12.429,0-18.832,0c0,5.992,0,11.535,0,17.539c6.781,0,13.555,0,20.562,0c0,2.456,0,4.457,0,6.66
		c-9.343,0-18.53,0-28.02,0C181.414,79.23,181.414,61.69,181.414,43.55z"/>
	<path fill="#666666" d="M429.062,96.977c0-18.131,0-35.62,0-53.69c8.188,0.398,16.679-2.095,23.979,3.347
		c2.512,1.873,5.29,4.702,5.919,7.542c2.152,9.71,2.761,19.479,0.521,29.517c-1.641,7.354-6.739,12.554-14.603,13.205
		C439.766,97.318,434.587,96.977,429.062,96.977z M433.569,93.622c3.217,0,6.146,0.028,9.074-0.007
		c4.917-0.061,9.946-3.9,11.634-8.684c3.056-8.668,1.64-17.594,1.154-26.362c-0.287-5.189-3.175-9.904-9.002-10.757
		c-4.288-0.628-8.74-0.124-13.233-0.124c0,15.047-0.002,29.702,0.011,44.355C433.208,92.434,433.38,92.822,433.569,93.622z"/>
	<path fill="#666666" d="M481.926,70.439c-0.128-7.8,0.271-14.629,4.026-21.025c3.748-6.384,9.47-7.718,15.888-6.909
		c6.607,0.833,10.121,5.785,11.868,11.644c2.938,9.854,2.44,20.003,0.848,29.994c-1.518,9.514-11.152,15.978-20.561,13.435
		c-3.128-0.845-6.015-4.272-8.032-7.195C481.701,84.205,481.623,76.912,481.926,70.439z M511.782,71.516
		c-0.514-5.484-0.688-9.784-1.369-14.002c-0.781-4.849-3.396-8.846-7.903-10.853c-6.396-2.849-14.071,2.735-15.562,10.87
		c-1.722,9.394-0.977,18.721,0.899,27.969c1.34,6.604,8.822,10.94,14.546,7.918c2.979-1.574,5.862-4.87,6.999-8.031
		C511.079,80.699,511.176,75.441,511.782,71.516z"/>
	<path fill="#666666" d="M390.327,43.372c1.513,0,2.592,0,4.2,0c0,1.514,0,3.007,0,4.501c0,11.76-0.011,23.521,0.004,35.279
		c0.006,5.268,2.491,8.902,7.092,10.459c5.173,1.753,10.019,0.699,12.798-3.729c1.415-2.258,1.828-5.438,1.87-8.212
		c0.188-12.59,0.082-25.183,0.082-38.114c1.289-0.147,2.456-0.279,3.64-0.414c0.223,0.574,0.494,0.952,0.495,1.331
		c0.037,13.3,0.201,26.602,0.012,39.898c-0.129,9.076-4.95,13.45-14.157,13.433c-2.359-0.006-4.818,0.159-7.057-0.429
		c-5.701-1.496-8.829-5.834-8.924-12.806C390.197,71.005,390.327,57.433,390.327,43.372z"/>
	<path fill="#666666" d="M358.661,81.02c-1.223,4.42-2.464,8.601-3.518,12.826c-0.649,2.615-1.926,3.84-5.361,2.644
		c1.296-4.712,2.538-9.515,3.939-14.271c3.479-11.803,7.055-23.576,10.528-35.38c0.544-1.848,0.569-3.672,3.373-3.714
		c2.765-0.043,3.641,0.935,4.412,3.586c4.47,15.362,9.27,30.627,13.889,45.946c0.35,1.153,0.157,2.472,0.222,3.819
		c-2.894,1.172-4.456,0.44-5.083-2.613c-0.627-3.069-1.951-6.043-2.229-9.125c-0.291-3.225-1.719-3.872-4.574-3.771
		C369.236,81.148,364.204,81.02,358.661,81.02z M368.692,47.656c-0.403-0.039-0.808-0.078-1.21-0.118
		c-2.604,9.873-5.205,19.744-7.873,29.86c6.34,0,11.715,0,17.341,0C374.141,67.279,371.417,57.468,368.692,47.656z"/>
	<path fill="#666666" d="M216.748,44.221c2.671,0,5.134,0,7.825,0c0,17.55,0,34.929,0,52.535c-2.573,0-5.023,0-7.825,0
		C216.748,79.338,216.748,61.971,216.748,44.221z"/>
	<path fill="#666666" d="M469.462,97.098c0-18.191,0-35.779,0-53.623c1.287,0,2.448,0,3.829,0c0,17.639,0,35.227,0,53.181
		C472.222,96.779,471.055,96.913,469.462,97.098z"/>
	<path fill="#666666" d="M81.125,59.017c-11.691,0-22.817,0-34.418,0c0-6.658-0.734-13.275,0.176-19.658
		c1.294-9.077,9.369-15.865,20.107-14.583c6.259,0.748,14.786,7.576,14.197,17.157C80.846,47.477,81.125,53.06,81.125,59.017z
		 M75.244,53.095c0-3.945,0.001-7.561,0-11.177c-0.003-6.049-4.18-10.794-9.677-11.34c-6.82-0.676-12.255,3.533-12.91,9.863
		c-0.426,4.116-0.081,8.312-0.081,12.655C60.206,53.095,67.43,53.095,75.244,53.095z"/>
</g>
</svg>
