<?xml version="1.0" encoding="utf-8"?>
<!-- Generator: Adobe Illustrator 16.0.4, SVG Export Plug-In . SVG Version: 6.00 Build 0)  -->
<!DOCTYPE svg PUBLIC "-//W3C//DTD SVG 1.1//EN" "http://www.w3.org/Graphics/SVG/1.1/DTD/svg11.dtd">
<svg version="1.1" id="Layer_1" xmlns="http://www.w3.org/2000/svg" xmlns:xlink="http://www.w3.org/1999/xlink" x="0px" y="0px"
	 width="350px" height="350px" viewBox="0 0 350 350" enable-background="new 0 0 350 350" xml:space="preserve">
<g>
	<path fill-rule="evenodd" clip-rule="evenodd" fill="#404040" d="M120.218,299.867c-0.424,0.424-0.841,1.213-1.385,1.313
		c-1.515,0.279-2.277,3.103-4.406,1.304c-0.221-0.187-0.295,0.359-0.433,0.59c-0.576,0.967-1.312,1.84,0.563,2.238
		c0.412,0.088,0.862,0.617,0.826,1.303c-0.06,1.116-0.435,2.514,0.079,3.295c0.84,1.276-0.659,2.152-0.095,3.198
		c-1.671,1.886,0.175,3.289,0.682,4.868c0.363,1.135,1.315,0.396,1.984,0.546c0.602,0.134,0.595-0.362,0.727-0.808
		c0.501-1.688,0.533-1.679,2.456-1.197c1.085,0.271,1.485-0.105,1.582-1.316c0.07-0.866-0.353-1.812,0.208-2.591
		c0.884-1.223,0.247-2.574,0.452-3.847c-1.34-0.972-0.43-1.661,0.32-2.326c0.395-0.351,0.533-0.889,0.326-1.182
		C122.835,303.463,123.501,300.396,120.218,299.867z"/>
	<path fill-rule="evenodd" clip-rule="evenodd" fill="#404040" d="M117.572,296.831c0.336,0.884,1.771,0.393,1.832,1.521
		c0.035,0.652,0.469,0.689,0.905,0.618c0.34-0.057,0.397-0.382,0.472-0.73c0.312-1.45,0.789-2.854,0.762-4.381
		c-0.011-0.664,0.649-5.013,0.566-5.547c-0.2-1.281-0.182-1.257-1.538-0.282c-0.497,0.357-1.081,0.615-1.657,0.835
		c-1.683,0.645-2.583,1.6-2.114,3.056c0.356,1.107,0.193,2.193,0.259,3.531C115.856,296.005,117.363,296.282,117.572,296.831z"/>
	<path fill-rule="evenodd" clip-rule="evenodd" fill="#404040" d="M229.177,49.032c0.828,0.781,2.073,0.756,2.427-0.215
		c0.323-0.886,2.068-1.72,0.478-2.979c-0.12-0.096-0.05-0.702,0.123-0.854c0.971-0.851-0.15-1.169-0.468-1.378
		c-0.396-0.26-1.043-0.138-1.219-0.151c-0.809,0-1.265-0.07-1.691,0.014c-0.908,0.179-1.358,0.68-1.586,1.69
		C226.809,47.081,228.076,47.993,229.177,49.032z"/>
	<path fill-rule="evenodd" clip-rule="evenodd" fill="#404040" d="M83.727,309.807c-0.53-0.16-0.75-0.329-0.723-0.84
		c0.054-0.978,0.111-1.016-1.095-0.693c-1.577,0.422-2.79,1.44-4.335,1.751c0.583,1.141,1.803,1.261,2.645,1.941
		c2.049,1.657,2.124,1.566,3.921-0.292c0.078-0.08,0.161-0.157,0.237-0.238C85.375,310.368,85.392,310.312,83.727,309.807z"/>
	<path fill-rule="evenodd" clip-rule="evenodd" fill="#404040" d="M162.863,164.858c-0.482-0.084-1.175-0.344-1.543,0.212
		c-1.134,1.711-2.229,3.58-1.19,5.607c0.374,0.728,0.1,1.501,0.774,2.289c0.579-1.295,0.941-2.513,1.931-3.39
		c0.212-0.187,0.44-0.742,0.378-0.795c-1.127-0.964-0.182-1.871,0.01-2.806C163.306,165.57,163.364,164.946,162.863,164.858z"/>
	<path fill-rule="evenodd" clip-rule="evenodd" fill="#404040" d="M133.933,191.08c-1.408,0.358-3.188-0.745-4.622,1.437
		c1.165-0.449,1.63,0.249,2.082,0.83c0.781,1.006,1.201-0.903,1.872-0.176c0.609,0.662,1.051,0.895,0.972-0.331
		C134.202,192.308,134.441,191.734,133.933,191.08z"/>
	<path fill-rule="evenodd" clip-rule="evenodd" fill="#404040" d="M176.101,155.672c0.153,0.645,0.977,0.453,1.455,0.346
		c0.835-0.186,0.479-1.31,1.135-1.708c-0.084-0.084-0.164-0.163-0.243-0.243c-0.382-0.393-0.711-0.755-1.389-0.748
		c-0.945,0.011-1.419,0.942-2.299,0.984c0.129,0.132,0.266,0.385,0.387,0.377C175.899,154.637,175.95,155.043,176.101,155.672z"/>
	<path fill-rule="evenodd" clip-rule="evenodd" fill="#404040" d="M190.893,318.063c-0.251,0.508-1.106,0.839-0.478,1.72
		c0.965,0,2,0,3.222,0c-0.551-0.7-1.014-1.222-1.4-1.794C191.517,316.925,191.466,316.901,190.893,318.063z"/>
	<path fill-rule="evenodd" clip-rule="evenodd" fill="#404040" d="M14.974,84.293c0.816,0.471,1.904,0.223,2.63,0.963
		c1.299,1.145,1.275,1.146,1.359,2.744c0.039,0.734-0.321,1.579,0.493,2.147c0.194,0.136,0.098,0.491-0.13,0.443
		c-1.253-0.262-0.787,1.196-1.406,1.361c-0.458,0.122-1.091,0.291-1.571-0.191c-0.882-0.884-1.025,0.314-1.386,0.604
		c-0.242,0.195-0.123,0.781,0.445,0.996c1.064,0.401,2.067,0.993,3.152,1.309c1.542,0.449,2.481,1.259,2.417,2.961
		c-0.016,0.426-0.12,1.009,0.434,1.086c1.267,0.176,1.752,1.278,2.528,2.007c2.038,1.914,2.556,1.962,5.289,0.236
		c0.25-0.158,0.641-0.248,0.919-0.177c1.143,0.288,2.073,0.646,3.469,0.253c1.923-0.543,4.473-0.564,5.533-1.279
		c0.303-0.205,0.621-0.364,0.68,0.025c0.26,1.705,0.975,0.443,1.659,0.481c1.372,0.076,0.628-1.912,2.072-1.569
		c1.827,0.434,2.719-1.452,4.138-2.107c0.451-0.208,0.426-0.998-0.002-1.071c-1.203-0.206-1.237-0.55-0.345-1.234
		c0.966-0.741,1.553-1.394,0.194-2.426c-0.52-0.395-0.518-1.381-1.216-1.825c-0.245-0.155-0.536-0.42-0.094-0.701
		c1.189-0.758,0.832-1.409-0.052-2.161c-0.499-0.424-0.479-0.979,0.261-1.231c0.533-0.182,1.678,0.358,1.44-0.705
		c-0.341-1.523-0.984,0.894-1.606,0.047c-0.076-0.104-0.694,0.006-0.875,0.195c-0.814,0.848-0.888,0.134-0.808-0.413
		c0.226-1.542,0.069-1.897-1.135-2.638c-0.476-0.292-0.708-0.86-0.938,0.205c-0.337,1.567-0.418,1.542-2.372,1.288
		c-0.312-0.041-0.606-0.017-0.911,0.241c-1.287,1.088-1.317,0.203-1.441-0.869c-0.112-0.968-0.237-0.954-1.315-0.055
		c-0.45,0.225-0.898,0.45-1.348,0.674c-0.121-0.86,0.231-1.764-0.343-2.946c-0.362,1.512-1.454,0.695-2.204,1.064
		c-0.751,0.368-0.432,1.547-1.406,1.648c-0.412-1.248,0.618-2.94-1.188-3.727c-0.526,2.228-0.526,2.226-3.049,3.051
		c-0.196,0.063-0.383,0.156-0.575,0.235c-0.467,0.017-0.691-0.208-0.674-0.674c0.633-0.348-1.95-1.385,0.248-1.312
		c1.324,0.043,1.408-1.05,1.041-1.428c-1.103-1.135-0.49-2.594-1.033-3.857c-0.648-1.508-1.084-2.459-2.498-2.133
		c-0.823,0.19-0.036,0.543,0.067,0.846c0.152,0.446-0.193,0.48-0.521,0.469c-0.225,0-0.45,0-0.674,0
		c0.05-0.645-0.392-0.669-0.85-0.674l-1.847,2.393c-0.347,1.032-1.03,1.312-2.327,1.031c-0.276-0.06-0.728-0.018-0.869,0.16
		c-0.264,0.332,0.347,0.432,0.366,0.682c0.072,0.958,0.558,1.259,1.476,1.139c0.97-0.127,1.907,0.018,2.703,0.663
		c-0.048,0.633,0.385,0.633,0.837,0.687c0.337,0.04,0.588,0.251,0.512,0.662c-1.009,0.057-0.573,0.837-0.674,1.348
		c-0.58,0.061-1.323-0.295-1.379,0.82c-0.042,0.829-0.481,0.387-0.763,0.067c-0.358-0.406-0.822-0.131-1.229-0.213
		c-0.544,0.283-0.805-1.212-1.586-0.204c-0.219,0.282-0.902-0.718-1.624-0.491c-0.299,0.095-0.771,0.062-0.768,0.378
		C14.302,83.831,14.692,84.131,14.974,84.293z"/>
	<path fill-rule="evenodd" clip-rule="evenodd" fill="#404040" d="M88.07,307.783c-0.5-0.064-1.083-0.229-1.598,0.183
		c0.246,0.592,0.62,1.152,1.273,1.1c0.668-0.053,1.767,0.594,1.947-0.485C89.924,307.2,88.68,307.86,88.07,307.783z"/>
	<path fill-rule="evenodd" clip-rule="evenodd" fill="#404040" d="M175.203,160.761c0.548,0.093,1.225,0.047,0.393,0.811
		c-0.37,0.339-0.406,0.83,0.034,1.065c0.142,0.076,0.646-0.379,0.886-0.672c0.454-0.556,0.105-1.246,0.206-1.869
		c1.49,0.165,2.086-0.941,2.68-1.963c0.339-0.585-0.138-1.354-0.76-1.408c-2.438-0.208-3.772,0.933-3.942,3.371
		C174.623,160.503,174.871,160.704,175.203,160.761z"/>
	<path fill-rule="evenodd" clip-rule="evenodd" fill="#404040" d="M78.45,313.826c-0.462-0.027-0.866,0.041-0.845,0.675
		c0.03,0.904,0.705,0.624,1.189,0.66c0.464,0.036,0.882-0.048,0.872-0.213C79.608,313.609,78.939,313.855,78.45,313.826z"/>
	<path fill-rule="evenodd" clip-rule="evenodd" fill="#404040" d="M136.274,85.938c0.652,0.019,0.654-0.412,0.674-0.873
		c-0.072-0.47,0.215-1.14-0.687-1.164c-0.649-0.016-0.685,0.408-0.661,0.859C135.627,85.251,135.378,85.911,136.274,85.938z"/>
	<path fill-rule="evenodd" clip-rule="evenodd" fill="#404040" d="M345.947,141.275c0.074-0.595-0.299-0.713-0.807-0.738
		c-2.36-0.115-2.771-3.02-4.971-3.48c-0.712-0.149-0.156-1.167-0.445-1.792c-0.706-1.527-1.317-3.136-2.458-4.356
		c-1.296-1.386-0.462-2.966-0.765-4.422c-0.225-1.086,0.455-1.699,1.15-2.211c0.853-0.627,0.954-1.414,0.893-2.346
		c-0.063-0.964-0.299-1.843-0.585-2.784c-0.84-2.761-2.346-5.108-3.727-7.572c-1.598-2.85-3.988-5.155-5.232-8.278
		c-0.545-1.371-1.798-2.602-3.848-2.643c-1.07-0.021-2.257-0.438-3.423-0.61c-1.968-0.29-4.199-0.416-5.768-1.449
		c-3.275-2.16-6.132-4.875-8.489-8.137c-2.373-3.284-4.387-6.803-6.96-9.967c-1.839-2.263-3.707-4.528-5.444-6.854
		c-1.339-1.793-2.885-3.316-4.427-4.854c-1.621-1.617-2.909-3.643-5.158-4.586c-0.365-0.153-0.707-0.585-0.867-0.968
		c-0.875-2.09-2.144-3.883-3.623-5.599c-0.711-0.825-1.593-2.002-1.059-3.2c0.424-0.951,0.009-1.669-0.027-2.501
		c-0.089-2.019,0.119-4.058-0.07-6.062c-0.194-2.042,0.39-4.039-0.489-6.188c-0.71-1.731-0.132-3.985-0.147-6.008
		c-0.018-2.397,0.123-4.786-0.63-7.149c-0.476-1.491-0.584-1.809-2.046-1.947c-4.168-0.394-7.909-1.705-10.747-4.984
		c-0.655-0.758-1.485-1.381-2.051-2.195c-0.508-0.731,0.557-1.445,0.294-2.252c-0.011-0.033-0.211-0.004-0.324-0.004
		c-1.434,0.319-2.813,0.942-4.346,0.682c-0.911-0.155-1.605,0.509-2.244,0.924c-2.139,1.387-4.156,2.961-6.221,4.463
		c0,0.111,0.03,0.235-0.008,0.331c-0.039,0.095-0.148,0.161-0.227,0.24c-0.663-0.693-1.522-0.561-2.354-0.575
		c-1.569-0.026-3.173,0.26-4.827-0.975c0,0.903-0.039,1.332,0.009,1.75c0.072,0.631-0.257,1.802,0.285,1.786
		c1.076-0.034,2.015,1.223,2.663,0.739c1.474-1.101,3.003-0.297,4.459-0.6c-0.076,0.412,0.231,0.732,0.504,0.647
		c1.374-0.43,2.401,0.682,3.678,0.761c0.68,0.042,1.15,0.731,1.254,1.625c0.11,0.955-0.362,1.612-0.716,2.36
		c-0.074-0.011-0.126,0.021-0.164,0.083c-0.396,0.197-0.79,0.395-1.185,0.592c-0.336,0-0.673-0.015-1.009,0.003
		c-1.972,0.104-2.312,0.422-2.357,2.266c-0.024,1.009-0.017,2.019,0.001,3.028c0.009,0.552-0.282,0.64-0.768,0.8
		c-2.74,0.9-3.576,2.436-2.929,5.342c0.066,0.294,0.325,0.625-0.055,0.671c-1.663,0.202-2.073,2.079-3.488,2.648
		c-0.079-0.31-0.243-0.614-0.166-0.699c0.807-0.886,0.918-1.628-0.154-2.448c-0.486-0.371-1.156-0.723-1.211-1.498
		c-0.086-0.681,0.049-1.253,0.643-1.708c0.102-0.079-0.107-0.562-0.174-0.857c-0.23,0.142-0.549,0.231-0.675,0.437
		c-0.418,0.687-0.767,1.416-1.143,2.128c-1.319,2.822-1.472,6.093-3.35,8.709c-0.159,0.222,0.097,0.718-0.04,0.984
		c-0.855,1.663-0.259,3.979-2.3,5.11c-0.306,0.169-0.393,0.419-0.045,0.712c0.531,0.452,0.5,0.99-0.045,1.368
		c-1.166,0.811-1.045,1.75-0.275,2.683c0.771,0.934,1,2.191,1.194,3.18c0.271,1.363-1.469,1.802-2.498,2.549
		c-1.373,0.998-1.324,1.173-2.31,0.396c-0.532-0.42-0.947-0.924-1.718-0.748c-0.879,0.201-1.737-0.184-1.922-0.909
		c-0.282-1.105-0.553-2.303,0.388-3.416c0.744-0.881,2.501-1.423,1.979-2.742c-0.344-0.869-2.042-0.858-2.919-1.676
		c-0.185-0.172-0.574-0.068-0.901-0.242c-1.463-0.773-2.941-0.91-4.091,0.557c-0.701,0.896-1.564,1.088-2.617,1.034
		c-0.467-0.023-1.086-0.303-1.429,0.43c0.414,0.348,1.083,0.543,1.431,0.584c2.298,0.269,3.082,1.933,3.981,3.683
		c0.476,0.923,0.671,1.792,0.628,2.771c-0.052,1.177,0.528,1.661,1.661,1.986c3.185,0.914,3.673,1.715,3.734,5.358
		c0.204,1.104-0.245,1.553-1.349,1.349c-1.656-0.191-3.009,1.107-4.771,0.634c0.186,2.179,0.148,3.97-1.249,5.502
		c-0.338,0.37-1.01,0.921-0.721,1.698c0.407,1.094-0.353,2.034-0.848,2.65c-0.868,1.082-0.336,1.549,0.353,2.161
		c0.395,0.351,0.756,0.672,1.315,0.889c1.779,0.69,3.276,1.789,3.789,4.097c-1.644-0.602-2.885,0.654-4.44,0.601
		c-2.596-0.088-5.212,0.175-7.648-1.081c-0.784-0.403-1.225,0.676-1.1,0.799c0.795,0.78,0.529,1.303-0.141,1.941
		c-0.156,0.148-0.198,0.693,0.174,0.878c1.624,0.81,2.775,2.975,5.064,1.899c0.945-0.444,1.863,0.198,2.021,0.604
		c0.385,0.99-0.05,2.035-0.504,3.072c-0.432,0.984-1.078,0.549-1.631,0.601c-0.891,0.083-1.818-0.109-2.688,0.05
		c-1.744,0.318-0.632-1.378-0.763-1.311c-1.215,0.626-2.183-1.735-3.586-0.129c-0.668,0.765-1.699-0.551-2.62-0.774
		c-0.428-0.103-0.354-0.722,0.017-1.104c0.139-0.142,0.246-0.314,0.368-0.473c-1.194-0.678-1.099-2.602-2.429-2.915
		c-1.615-0.38-1.073-1.02-1.012-2.175c0.078-1.455,0.195-3.465-2.062-3.976c-0.388-0.088-0.688-0.527-1.077-0.64
		c-2.445-0.709-2.45-0.694-3.479-2.038c-0.041-0.584,0.333-0.677,0.793-0.675c0.635,0.002,1.27,0,1.904,0
		c1.048-0.578,2.143-1.181,3.289-0.381c0.74,0.516,1.294,0.345,2.088,0.127c1.617-0.442,3.205-1.303,4.927-1.065
		c2.202,0.303,3.26,0.007,4.696-1.166c2.496-2.039,3.669-4.527,3.22-7.762c-0.106-0.769,0.014-1.567-0.03-2.349
		c-0.017-0.296-0.213-0.841-0.308-0.836c-1.688,0.078-1.541-1.612-2.318-2.391c-1.489-1.494-3.598-1.335-5.322-2.171
		c-1.056,1.214-1.929-0.089-2.892-0.162c-1.189-0.09-2.372-0.064-3.409-0.728c-1.903-1.218-4.061-1.616-6.223-2.016
		c-0.381-0.071-4.229-0.077-4.481,0.001c-0.6,0.187-1.119,0.791-1.831,0.033c-0.291-0.31-0.72,0.294-1.086,0.509
		c-0.58,0.342-0.221,1.084-0.706,1.395c-0.163,0.104-0.445,0.132-0.629,0.068c-0.299-0.103-0.475-0.234-0.161-0.637
		c1.077-1.385,0.043-1.387-0.959-1.37c-0.467,0.017-0.691-0.208-0.675-0.674c-1.443-0.867-2.518-1.303-3.22-1.352
		c-0.793-0.055-0.878,0.417-0.83,1.033c0.025,0.33,0.005,0.663,0.005,0.994c-0.979,0-1.956-0.005-2.935,0.002
		c-0.514,0.004-1.135-0.138-1.111,0.714c0.017,0.629-0.445,0.711-0.865,0.615c-0.771-0.177-0.398-0.854-0.483-1.332
		c0.016-0.034,0.013-0.068,0-0.102c0-0.416,0-0.831,0-1.246c1.152-0.182,1.099-1.749,1.781-1.927
		c1.196-0.311,0.907-0.573,0.266-1.068c-0.984-0.759-2.364-0.857-3.205-1.874c-0.289-0.349-0.652-0.714-1.102-0.507
		c-0.939,0.436,0.407,0.769,0.12,1.072c-0.451,0.477-1.135,0.467-1.188-0.254c-0.082-1.123-0.802-0.783-1.392-0.837
		c-0.225,0-0.45,0-0.674,0c0.042-0.584-0.333-0.677-0.792-0.675c-0.635,0.002-1.27,0-1.904,0c-0.034-0.453-0.368-0.934-0.591-0.336
		c-0.34,0.908-0.587,1.789-1.432,2.359c-0.674,0.45-1.348,0.898-2.022,1.348c0.106-0.544-0.574-0.649-0.612-1.049
		c-0.03-0.306,0.954-0.508,0.276-0.898c-0.378-0.217-1.116-0.327-1.518,0.158c-0.101,0.121,0.432,0.761,0.329,0.891
		c-0.388,0.49-1.198-0.051-1.503,0.295c-0.42,0.475-0.643,1.187-0.754,1.831c-0.031,0.181,0.834-0.015,1.076,0.467
		c-0.231,0.231-0.534,0.431-0.693,0.712c-0.562,0.992-1.217,0.846-2.027,0.313c-0.234-0.154-0.858,0.101-0.955-0.051
		c-0.811-1.284-1.424,0.186-2.122,0.215c-0.446,0.019-0.346,1.095-0.009,1.832c0.625-0.287,0.862-1.136,1.647-1.216
		c0.151,0.899,0.284,1.742-0.156,2.568c-1.036,0-2.066-0.14-3.031,0.05c-0.628,0.123-2.059,0.19-0.847,1.612
		c0.335,0.395,0.245,1.326,0.074,1.933c-0.229,0.812-0.542,0.026-0.843-0.073c-0.443-0.146-0.479,0.195-0.468,0.523
		c-1.001-0.757-1.688-0.569-2.022,0.674c-0.414,0.076-0.654-0.18-0.661-0.516c-0.027-1.417-1.459-0.954-1.627-0.772
		c-0.543,0.589-0.942,1.466,0.265,1.961c-0.45,0.899-0.898,1.798-1.348,2.697c-0.942,0.319-1.507-0.968-2.353-0.637
		c-0.838,0.329-1.003,1.306-1.415,2.032c-0.105,0.185-0.296,0.325-0.462,0.47c-0.441,0.387-0.803,0.839-0.273,1.353
		c0.343,0.333,0.755,0.172,1.125-0.161c0.557-0.5,1.123-0.732,1.354,0.313c0,0.225,0,0.45,0,0.674
		c0.353,0.879-0.603,1.331-0.688,2.076c-0.025,0.218-1.996,0.256-1.988,0.06c0.024-0.686-0.505-1.005-0.916-1.291
		c-0.362-0.251-0.463,0.174-0.454,0.503c-0.251-0.139-0.513-0.262-0.752-0.419c-0.609-0.401-1.106-0.505-1.271,0.419
		c-0.937-0.322-1.474,0.636-2.33,0.743c-0.552,0.069-0.387,0.738-0.071,1.288c0.458,0.794,1.876,0.414,1.901,1.784
		c0.009,0.506,0.458-0.109,0.612-0.249c0.393-0.357,0.831-0.114,1.236-0.194c0.225,0,0.45,0,0.674,0
		c0.06,1.453-0.618,2.039-2.086,2.066c-0.803,0.015-0.796,0.286,0.063,1.305c0.048,0.633-0.385,0.634-0.837,0.687
		c-0.337,0.04-0.588,0.251-0.512,0.662c-0.578,1.011-0.578,1.011,0,2.022c0,0.45,0,0.899,0,1.349
		c0.357,0.969-1.953,0.814-0.863,2.276c0.579,0.776,0.3,0.986-1.213,1.094c-0.645,0.046-0.814,0.696-1.287,0.979
		c0.448,0.476,0.884,0.94,1.323,1.407c-0.469,0.531-1.074,0.34-1.58,0.286c-0.901-0.093-0.896,0.487-1.231,1.072
		c-0.526,0.919-1.219,1.603,0.132,2.324c-0.208,0.417-0.417,0.834-0.625,1.251c-0.032,0.014-0.375,0.453-0.382,0.097
		c-0.008-0.45-0.332-0.178-0.264,0.237c0.131,0.803,1.247,0.207,1.128,0.68c-0.135,0.542-1.195,1.053-1.115,1.413
		c0.272,1.219-1.084,1.924-0.764,3.063c-0.993,1.233-0.937,1.784,0.227,2.014c0.474,0.093,1.125-0.171,1.122,0.683
		c-1.097-0.299-1.48,0.952-2.196,1.098c-1.705,0.351-2.506,1.214-2.52,2.896c-0.002,0.327-0.224,0.778-0.4,0.596
		c-0.504-0.519-0.809-0.489-1.221,0.049c-0.329,0.431-0.758,0.787-1.073,1.226c-1.271,1.776-2.271,3.72-3.378,5.597
		c0,0.45,0,0.899,0,1.349c-0.681-0.077-0.951,1.102-1.696,0.624c-0.44-0.282-0.691-0.817-1.207-0.101
		c-0.32,0.443-1.08,0.798-1.085,1.199c-0.02,1.526-1.641,1.292-2.116,2.096c-1.009,1.709-2.039,0.265-3.053,0.231
		c-0.316-0.01-0.673-0.091-0.885,0.265c0.097,0.708,1.4,0.758,1.013,1.639c-0.351,0.796-1.172,0.868-1.986,0.8
		c-0.387-0.033-0.863-0.164-1.092,0.44c0.388,0.135,0.954,0.158,1.124,0.429c0.288,0.462-0.353,0.65-0.608,0.903
		c-0.536,0.531-1.262,0.123-1.893,0.24c-1.299,0.316-0.417,1.359-0.674,2.022c-0.755-0.344-1.434-0.988-2.362-0.65
		c-0.106,0.038-0.132,0.296-0.195,0.453c0.194,0.065,0.391,0.123,0.58,0.2c0.189,0.077,0.371,0.173,0.555,0.26
		c-1.192,1.294-1.19,1.294-1.277,4.155c-0.009,0.312,0.094,0.646-0.242,0.899c-0.252,0.189-0.409,0.431-0.454,0.807
		c-0.083,0.707,0.557,1.213,0.547,1.686c-0.011,0.494-0.867,0.918-1.161,1.475c-0.188,0.356-0.005,0.88,0.638,0.83
		c-0.054,1.151-0.144,2.319,1.349,2.697c0.042,0.585-0.371,0.564-0.786,0.697c-1.032,0.33-0.715,1.278-0.383,1.752
		c0.406,0.58,0.594-0.713,1.169-0.427c-0.351,0.941,1.131,1.76,0.607,2.253c-0.887,0.835,0.082,1.219,0.067,1.792
		c0.049,0.633-0.384,0.633-0.836,0.687c-0.337,0.04-0.588,0.25-0.512,0.662c-1.146,0.299-1.391,1.123-1.361,2.187
		c0.033,1.208,0.038,1.227,1.361,0.51c0.467,0.017,0.691-0.208,0.674-0.674c0.45,0.225,0.898,0.45,1.348,0.674
		c0.32,0.962-0.79,1.487-0.735,2.396c0.017,0.261-0.32,0.332-0.438,0.125c-0.101-0.176-0.101-0.405-0.18-0.596
		c-0.079-0.192-0.2-0.366-0.302-0.547c-1.232,1.992-0.754,3.625,0.991,5.056c0.828,0.678,1.412,1.676,2.58,1.888
		c0.303,2.358,2.287,1.331,3.523,1.886c1.638,0.735,2.124-1.897,3.626-0.877c0.09,0.061,0.673-0.453,0.907-0.784
		c0.68-0.965,2.118-1.345,2.164-2.794c1.238-0.357,1.656-1.425,1.994-2.47c0.193-0.597,0.533-0.587,0.976-0.585
		c0.56,0.002,1.172,0.145,1.666-0.036c0.636-0.232,2.122-0.244,0.833-1.575c1.171-0.721,0.144-2.195,0.911-3.11
		c0.775,0.576,0.044,1.353,0.569,1.939c0.589,0.659,0.684,1.847,2.056,1.456c0.506-0.144,1.289-0.094,1.079,0.73
		c-0.331,1.296-0.653-0.127-0.974-0.053c-0.146,0.033-0.372,0.412-0.323,0.493c0.892,1.504,0.622,3.157,0.652,4.77
		c0.015,0.75,0.566,1.047,1.1,1.367c0.41-0.41,0.803-0.809,1.209-1.194c0.021-0.021,0.15,0.07,0.279,0.134
		c0.09,0.817,0.364,1.681-0.204,2.464c-0.577,0.794-0.411,1.657-0.244,2.494c0.437,2.171,2.23,3.732,2.669,5.961
		c0.144,0.729,1.2,1.271,1.82,1.917c1.001,1.042,0.992,1.047-0.084,2.334c-0.203,0.241-0.583,0.384-0.476,0.81
		c-0.07,1.771-0.064,1.911-1.536,1.973c-0.956,0.04-1.315,0.675-1.908,1.122c-1.376,1.038-2.877,1.735-4.569,1.949
		c0.734,0.437,1.085,0.659,1.447,0.86c1.008,0.561,0.27,1.776,1.082,2.631c0.661,0.695,1.834,0.398,2.214,1.669
		c0.308,1.028,1.622,0.792,1.906-0.263c0.108-0.4-0.009-0.811,0.36-1.191c0.968-1,0.937-1.03-0.295-1.62
		c0.125-0.159,0.255-0.314,0.375-0.477c0.674-0.903,2.449-1.411,1.082-3.093c-0.085-0.104,0.777-0.1,1.19-0.189
		c0.18,0.241,0.667,2.528,0.672,3.205c0.003,0.483,0.109,0.741,0.7,0.869c1.629,0.354,3.169-1.058,4.874-0.093
		c0.506,0.286,1.341-1.163,0.843-1.868c-0.543-0.768-0.4-1.53-0.293-2.219c0.117-0.747,0.751-1.3,1.654-1.266
		c0.179-1.591,1.35-1.353,2.424-1.33c1.087,0.021,2.174,0.004,3.286,0.004c-0.223-1.627,1.017-2.686,0.672-4.045
		c1.285,0.209,0.492,1.198,0.653,1.817c0.108,0.412,0.013,0.864,0.641,0.884c0.562,0.019,0.738-0.271,0.732-0.78
		c-0.011-1.09-0.003-2.18-0.003-3.269c0.191-0.079,0.497-0.109,0.556-0.244c0.467-1.079-0.467-2.459,0.724-3.395
		c-0.122-0.136-0.226-0.359-0.369-0.389c-0.319-0.064-0.82-0.053-0.848,0.29c-0.088,1.067,0.042,2.166-0.736,3.063
		c-0.224,0-0.45,0-0.674,0c0.035-1.049,0.676-2.04,0.048-3.173c-0.27-0.487-0.227-1.336,0.506-1.764
		c-0.583-0.625,0.159-1.618,0.07-1.684c-1.17-0.877,0.629-1.937-0.228-2.761c-1.247-1.197,0.87-2.059,0.314-3.277
		c-0.341-0.749,0.16-1.435,0.776-2.016c0.459-0.433,1.154-0.731,1.209-1.507c1.782-0.465,2.472-2.022,3.371-3.371
		c-0.075-0.378,0.167-0.648,0.457-0.655c1.114-0.026,0.943-0.41,0.296-0.94c-0.22-0.18-0.5-0.288-0.753-0.428
		c0.522-1.335,1.92-1.925,2.653-3.127c-0.945-0.68-1.492-1.825-2.653-2.267c1.069-1.942,1.051-1.977-1.062-2.022
		c-0.32-0.006-0.64,0-0.96,0c-0.915-0.252-0.994-1.903-2.421-1.371c-0.799,0.298-1.533-0.6-1.522-0.964
		c0.037-1.242-0.825-2.36-0.675-3.403c0.192-1.341,0.15-2.431-0.812-3.5c0.704-0.447,1.499,0.114,2.079-0.568
		c-0.789-0.616-1.594-1.237-0.734-2.436c0.266-0.371,0.037-1.093,0.042-1.654c0.007-0.902-1.954-2.648,1.002-2.317
		c0.279,0.032,0.344-0.48,0.354-0.826c0.014-0.544,0.035-1.552,0.127-1.561c1.554-0.145,1.17-1.287,1.21-2.2
		c0.035-0.778,0.602-1.291,1.176-1.396c0.773-0.144,1.28-0.609,1.484-1.146c0.539-1.424,1.674-2.134,2.792-3.004
		c0.847-0.659,1.662-1.717,1.883-2.729c0.277-1.271-0.038-2.6,1.281-3.564c0.395-0.289,0.359-1.224-0.208-1.771
		c-0.404-0.389-0.772-0.819-1.197-1.183c-0.666-0.569-0.646-1.077,0.012-1.636c0.958-0.815,1.368-1.661,0.341-2.798
		c-0.373-0.413-0.276-1.138,0.562-1.08c0.974,0.068,1.363-0.181,1.348-1.259c-0.023-1.671,0.066-1.667,1.795-1.465
		c0.204,0.024,0.604-0.05,0.605-0.092c0.071-1.544,1.217-1.272,2.144-1.232c1.071,0.047,1.168-1.414,2.134-1.342
		c1.165,0.086,0.687,1.786,1.799,2c0.521,0.1,1.258-0.294,1.533,0.308c0.56,1.223,1.124,2.49,1.363,3.798
		c0.172,0.938-1.296,0.448-1.63,1.253c-0.237,0.569-0.899,0.814-1.048,1.595c-0.809,4.252-1.303,4.897-3.886,8.759
		c-0.294,0.438-0.94,0.677-0.792,1.354c0.486,2.235-0.684,3.17-2.686,3.503c-0.18,0.03-0.304,0.323-0.482,0.454
		c-0.247,0.181-0.248,0.442,0.06,0.461c1.466,0.094,0.853,0.534,0.322,1.226c-1.411,1.842-1.35,3.276,0.124,5.288
		c0.319,0.436,0.958,0.832,0.537,1.37c-0.397,0.508-0.534,0.714-0.018,1.241c0.583,0.596,0.833,1.587,1.483,2.032
		c1.187,0.813-0.491,1.538,0.067,2.13c0.85,0.902,0.551,1.529,0.093,2.591c-0.867,2.011,0.59,3.922,2.681,4.48
		c1.802,0.482,3.962,0.479,4.932,2.639c0.057,0.126,0.638,0.017,0.975,0.017c-0.225,0.45-0.492,0.883-0.659,1.354
		c-0.106,0.299,0.333,0.693,0.388,0.537c0.506-1.448,2.375-0.673,2.968-1.89c-0.066-1.042,0.966-0.576,1.408-1.006
		c1.427-1.39,4.166-0.958,4.852-3.51c0.114-0.421,0.435,0.196,0.658,0.322c0.44,0.247,1.055,0.249,1.103-0.167
		c0.168-1.458,1.531-1.648,2.272-1.605c1.368,0.081,1.118-1.833,2.747-1.584c1.436,0.219,2.684-1.18,3.478-2.561
		c0.869,3.022,1.768,3.488,4.889,2.733c0.469-0.114,1.403-0.482,1.518,0.636c0.05,0.641-0.39,0.648-0.845,0.68
		c-0.487,0.035-1.173-0.233-1.178,0.668c-0.189,0.077-0.511,0.113-0.55,0.238c-0.552,1.755-0.543,1.758-2.147,1.785
		c-0.673-0.053-0.962,0.665-1.67,0.775c-0.535,0.083-0.705,1.027,0.322,1.248c-0.078,1.992-0.078,2.006-1.541,2.019
		c-1.684,0.016-3.385,0.148-5.042-0.056c-0.874-0.107-1.65,1.156-2.49,0.088c-0.238,0.443-0.438,0.913-0.724,1.323
		c-0.325,0.466-0.786,0.894-1.392,0.654c-1.118-0.442-1.745,0.744-2.758,0.729c-0.624-0.009-0.655,0.151-1.049,1.479
		c-0.348,1.169-1.845-0.078-2.251,1.171c-0.233,0.719-0.604,1.179,0.454,1.361c0.814,0.14,0.786,0.688,0.405,1.174
		c-0.288,0.366-0.736,0.885-0.438,1.121c1.064,0.844,1.212,2.404,2.373,3.024c0.346,0.184,1.627,1.446,1.878-0.44
		c0.044-0.328,0.902-0.277,1.057,0.17c0.172,0.501,0.022,1.106,0.061,1.663c0.109,1.605-0.262,3.211,0.627,4.793
		c1.113,1.979,0.981,2.052-0.529,3.558c-1.211,1.207-3.017,1.381-3.339,0.05c-0.542-2.235-3.53-1.889-3.703-4.163
		c-0.006-0.07-0.509-0.216-0.562-0.151c-0.921,1.146-2.695,1.126-3.342,2.79c-0.828,2.132-0.892,4.363-1.237,6.541
		c-0.481,3.027,0.711,5.922,1.292,8.857c0.137,1.618-0.745,3.034-0.941,4.595c-0.039,0.309-1.148-0.098-1.082,0.8
		c-0.671,0.295-2.129-0.791-1.98,0.862c0.246,2.726-1.587,3.697-3.418,4.984c-1.233,0.867-1.404-0.823-2.366-0.541
		c-0.415,0.121-0.424-0.969-0.286-1.428c0.187-0.62,1.157-1.391-0.467-1.159c-0.779,0.111-1.028-0.914-1.737-0.681
		c-0.587,0.193-1.17,0.485-1.713,0.729c-1.99,0.896-4.029,1.858-5.716,3.213c-2.333,1.872-2.204,2.033-4.528,2.784
		c-2.079,0.672-3.97,1.968-5.46,3.732c-0.331,0.392-0.766,0.483-1.135,0.137c-0.381-0.358-0.945-0.634-0.863-1.318
		c0.232-1.916-1.228-1.001-2.021-1.202c0.116-1.074,2.406-1.618,0.762-3.122c1.531-1.396-0.504-0.74-0.721-1.145
		c-0.496-0.92-0.95,0.041-1.089,0.316c-0.393,0.776-0.578,1.58-1.785,1.271c-1.643-0.421-2.095,0.836-2.561,2.004
		c-2.19,0.171-2.702,0.5-3.367,2.228c-0.208,0.541-0.698,0.631-1.023,0.397c-0.283-0.201-0.233-0.878-0.517-1.068
		c-0.503-0.34-0.697,0.737-1.291,0.461c-0.214-0.101-0.758-0.035-0.325-0.562c0.464-0.563,1.265-0.871,1.16-1.868
		c-0.073-0.689-0.52-1.286-0.904-0.884c-0.978,1.024-1.684-0.494-2.499-0.051c0.079-1.017-1.072-0.397-1.299-0.973
		c-0.219-0.551,0.245-1.272-0.411-1.718c-0.073-0.05-0.207-0.007-0.313-0.007c0.076-1.023-1.441-0.668-1.251-0.936
		c0.449-0.628,0.624-1.033-0.098-1.404c-1.192-0.61,0.067-1.142,0-1.706c0.85-0.703,1.084-0.766,1.299,0.038
		c0.424,1.593,2.033,0.914,2.8,1.719c0.218,0.229,0.269,0.21,0.488,0.087c1.022-0.571,1.065-1.937,0.157-3.732
		c-0.132-0.262-0.275-0.846-0.37-0.771c-0.721,0.571-1.097-1.388-1.887-0.208c-0.255,0.381-0.917,0.289-1.062-0.154
		c-0.096-0.292,0.697-0.48,0.597-1.022c0.418,0.076,0.642-0.18,0.661-0.522c0.042-0.773-0.028-1.555,0.026-2.327
		c0.043-0.616,0.783-0.712,0.954-0.49c0.611,0.792,1.248,0.555,1.393-0.105c0.188-0.858,1.156-1.305,1.01-2.273
		c-0.718-0.894-2.487,0.218-2.551-0.687c-0.082-1.133-1.14-1.896-0.819-3.034c1.606-0.894,1.308-2.444,1.354-3.885
		c0.025-0.797-0.574-1.258-1.099-1.453c-0.529-0.196-1.199-0.167-1.792,0.409c-0.869,0.842-1.294,1.894-1.833,2.905
		c-1.491,0.021-3.084-0.264-4.045,1.349c-0.651-0.029-1.134,0.576-1.18,0.905c-0.208,1.513-1.265,2.87-0.843,4.488
		c0,0.674,0,1.349,0,2.022c-0.413,0.041-0.89,0.126-0.361,0.619c0.459,0.43,0.334,0.915,0.361,1.404
		c0.049,1.208-0.423,2.591,1.374,3.102c0.743,0.211,0.711,1.04,0.647,1.72c-0.204,2.176-0.02,2.747,1.074,4.719
		c0.378,0.681,0.978,1.639-0.568,1.947c-0.721,0.144-0.532,0.43,0.059,0.659c1.449,0.563,0.659,1.831,0.745,2.772
		c0.079,0.87-0.767,0.558-1.247,0.572c-0.591,0.019-0.748,0.31-0.738,0.823c0.012,0.561,0.069,1.132-0.016,1.68
		c-0.086,0.552,0.474,1.433-0.642,1.554c-0.907,0.099-0.471-0.85-0.831-1.112c-0.513-0.374-0.333-1.151-0.719-1.368
		c-0.896-0.505-1.948-0.148-2.934-0.203c-0.92-0.052-1.355,0.546-1.598,1.34c-0.381,0.361-0.351,1.546-1.349,0.674
		c0.052-0.662-0.445-0.784-0.86-0.654c-1.976,0.621-4.11,0.787-5.882,2.003c-1.067,1.323-0.291,2.515,0.229,3.754
		c0.322,0.769,0.615,1.625-0.797,2.237c-0.082-2.478,0.111-5.105-3.477-3.969c-0.022,1.498,0.253,3.067-0.705,4.384
		c-0.56,0.77-1.491,1.273-1.634,2.338c-1.884-0.417-0.249,2.104-1.707,2.043c-0.39,0.053-0.938-0.034-1.136,0.188
		c-0.393,0.443,0.393,0.505,0.459,0.853c0.018,0.1,0.002,0.205,0.002,0.308c-0.426,0-0.854,0.016-1.279-0.005
		c-0.329-0.016-0.763,0.264-0.661,0.366c1.333,1.352-0.061,0.926-0.63,0.979c-0.456,0.041-0.844,0.089-0.801,0.683
		c-0.226,0-0.518-0.093-0.667,0.015c-1.972,1.417-4.173,2.05-6.585,2.009c-0.486-0.009-0.796,0.089-0.871,0.702
		c-0.052,0.423-1.155,4.396-0.953,4.679c0.749,1.048,0.095,1.056-0.714,1.463c-1.462,0.736-2.895,1.238-4.542,1.271
		c-1.266,0.026-2.39,0.934-2.529,1.75c-0.11,0.646,0.375,1.36-0.919,1.726c-0.901,0.253-1.313,0.512-2.217-0.061
		c-0.83-0.527-1.897-0.871-3.05-0.796c-0.767,0.051-1.285-1.017-0.919-1.879c0.211-0.498,0.44-0.683-0.259-0.77
		c-0.735-0.091-1.589,0.336-2.169-0.444c-0.201-0.271-0.537-0.191-0.446,0.003c0.365,0.769-1.182,1.012-0.397,1.899
		c0.991,1.122,1.07,2.553,0.938,3.979c-0.101,1.102,0.029,1.805,0.529,2.47c-0.758,0.317-1.357,0.204-2.089-0.301
		c-1.182-0.814-0.969,0.599-1.379,1.04c-0.03,0.032-0.311-0.145-0.458-0.248c-0.478-0.335-0.476-1.008-0.768-1.342
		c-0.486-0.555-0.857,0.58-1.593,0.426c-0.615-0.129-1.102-0.341-1.35-0.8c-1.014-1.873-2.295-2.568-4.279-1.316
		c-0.278,0.176-0.83-0.084-1.255-0.141l-3.672,0.173c-0.485,0.076-1.218-0.257-1.205,0.67c0.009,0.606-0.279,1.299,0.854,1.408
		c0.751,0.072,1.024,1.334,0.973,1.691c-0.103,0.721-1.221-0.109-1.805,0.594c0.359,0.677,1.123,1.074,1.399,1.96
		c0.371,1.189,1.356-0.376,1.698-0.064c0.733,0.668,1.606,1.579,2.38,1.519c1.561-0.123,1.731,1.656,2.982,1.724
		c0.069,1.463,1.124,1.32,2.104,1.284c0.344-0.012,0.654,0.033,0.863,0.344c-0.315,0.315-0.631,0.636-0.952,0.95
		c-0.226,0.222-0.395,0.751-0.087,0.661c1.388-0.402,0.602,1.61,1.755,1.445c0.659-0.095,0.75,0.394,0.223,0.69
		c-1.075,0.608-0.709,1.273-0.272,2.052c0.359,0.64,2.326,3.28,2.87,3.809c1.033,1.004,2.15,1.961,1.222,3.683
		c-0.234,0.436,0.004,1.107-0.046,1.665c-0.047,0.521,0.482,0.782,0.53,1.121c0.114,0.805-0.944,0.142-1.123,0.708
		c-0.606,1.916-1.521,3.804-1.713,5.761c-0.192,1.945-1.247,3.693-1.054,5.675c-1.04,0.493-0.437,1.604-0.879,2.333
		c-0.474,0.781-0.829,1.65-1.871,1.863c-1.598,0.327-3.123,0.785-4.61-0.574c-0.602-0.55-1.668-1.672-2.431-1.022
		c-1.306,1.113-1.817,0.145-2.378-0.559c-0.935-1.173-2.132-1.317-3.201-0.643c-0.895,0.563-1.926,0.611-2.487,0.267
		c-1.191-0.732-2.587-0.782-3.764-1.548c-1.471-0.956-3.078-1.995-4.749-2.276c-1.785-0.302-3.625-0.381-5.441-0.722
		c-1.235-0.231-2.257-0.114-2.654-1.75c-0.382-1.573-2.116-0.713-3.157-1.196c-0.222-0.104-0.221-0.703-0.72-0.256
		c-1.906,1.707-4.164,2.476-6.721,2.487c-0.87,0.004-1.427,0.594-1.436,1.475c-0.007,0.627-0.206,1.274,0.295,1.899
		c0.539,0.673,0.949,0.519,1.453,0.062c0.411,0.603,0.383,1.211,0.031,1.825c-0.284,0.495-1.099,3.288-1.115,4.029
		c-0.015,0.672,0.056,1.336-0.63,1.768c-0.702,0.44-0.799,0.93-0.055,1.438c-0.822,1.498-0.948,2.967-0.03,4.513
		c0.286,0.481-0.264,0.958-0.518,1.443c-1.347,2.579-2.583,5.216-3.844,7.839c-0.562,1.169-1.097,2.305-2.528,2.721
		c-0.457,0.132-1.104,0.7-1.112,1.081c-0.028,1.274-0.636,2.198-1.294,3.2c-0.714,1.085,0.687,1.924,0.594,3.038
		c-0.095,1.129,0.923,0.544,1.446,0.746c0.993,0.386,1.608,1.599,1.161,2.37c-0.324,0.56-0.888,0.973-1.281,1.498
		c-0.436,0.582,0.57,0.759,0.374,1.597c-0.488,2.085-1.427,3.969-2.372,6.024c2.252-0.147,4.155-0.131,5.81,1.276
		c0.656,0.558,1.573,0.496,2.456,0.053c1.736-0.869,3.288-0.36,4.92,0.585c0.797,0.461,1.203,0.896,1.682,1.66
		c0.835,1.336,1.074,2.896,1.143,4.209c0.101,1.94,1.678,2.669,2.336,4.075c0.203,0.433,1.032,0.573,1.574,0.848
		c0.332-0.673,1.488-0.409,1.568-0.963c0.289-2.009,1.731-1.58,3.01-1.69c0.843-0.072,1.782,0.414,2.526-0.398
		c1.46-1.595,3.107-1.061,4.8-0.438c2.243,0.825,6.438,1.187,8.522,0.872c0.521-0.078,1.148-0.188,1.503,0.41
		c0.683,1.148,1.27,0.79,1.922-0.048c0.336-0.431,0.609-1.255,0.741-1.316c1.115-0.525,1.021-1.929,2.246-2.539
		c1.587-0.79,2.855-1.763,4.625-0.597c0.293,0.194,0.937,0.162,1.147-0.335c0.108-0.257,0.123-0.645-0.216-0.908
		c-0.201-0.156-0.509-0.286-0.159-0.717c2.153-2.66,4.074-5.583,8.284-6.286c-1.07-0.938-1.774-1.635-2.559-2.225
		c-1.209-0.908-0.063-2.542-1.139-3.463c0.882-0.939,0.946-2.342,1.897-3.262c1.776-1.718,3.514-3.475,5.241-5.242
		c0.342-0.351,0.83-0.312,1.131-0.511c0.78-0.515-0.469-0.69-0.346-1.232c0.081-0.354,0.153-0.623,0.495-0.732
		c1.592-0.515,2.952-1.733,4.839-1.395c0.681,0.122,1.42-0.004,2.209-0.29c2.771-1.005,5.044-2.938,7.813-3.93
		c0.883-0.317,1.111-1.306,0.733-2.255c-0.119-0.298-0.916-0.688-0.128-0.852c1.276-0.265,1.122-0.63,0.511-1.506
		c-1.361-1.954-1.472-4.176,0.128-5.865c1.102-1.163,3.019-1.47,4.224-2.758c0.178-0.19,1.037-0.101,1.215,0.136
		c0.506,0.672,1.559,0.333,1.905,1.16c0.895-0.376,1.166,1.102,2.072,0.694c0.846-0.38,1.616,0.699,2.267,0.331
		c1.528-0.863,0.071,1.563,1.289,1.05c0.782-0.329,1.662,0.081,1.952,0.838c0.474,1.235,1.357-0.986,1.742,0.293
		c0.036,0.117,0.756,0.22,0.846,0.098c0.482-0.653,1.135-0.552,1.798-0.603c0.885-0.067,0.303-1.187,1.002-1.492
		c0.952-0.416,2.252-0.705,2.699-1.464c0.831-1.409,1.911-1.873,3.322-1.715c1.059,0.119,1.701-0.334,2.272-1.056
		c0.67-0.847,1.531-1.475,2.112-2.478c0.504-0.87,1.704-1.478,3.014-1.161c2.271,0.548,3.627,2.946,6.226,2.968
		c0.482,0.005,1.315,1.284,1.354,2.008c0.079,1.458,0.424,2.717,1.251,3.895c0.167,0.236,0.244,0.635,0.183,0.919
		c-0.324,1.517,0.456,2.305,1.678,2.99c0.66,0.369,1.041,1.255,1.707,1.593c1.025,0.521-0.18,1.422,0.324,1.654
		c0.651,0.302,1.482,0.206,2.234,0.302c0.088,0.011,0.174,0.14,0.238,0.23c1.031,1.483,2.755,2.39,3.677,3.83
		c0.858,1.34,2.227,1.889,3.253,2.89c0.559,0.546,1.71,0.725,2.249,1.609c1.049-0.797,2.067-0.268,3.164-0.124
		c0.404,0.054,0.825-0.354,1.464,0.122c0.871,0.649,1.237,1.65,1.499,2.436c0.366,1.095,0.375,0.766,1.118,0.354
		c0.762-0.423,1.336,0.282,1.529,1.071c0.22,0.899,0.313,1.019,0.559,0.751c0.697-0.757,1.243-0.749,1.899,0.033
		c0.513,0.612,1.431,1.07,0.412,1.996c-0.074,0.066,0.1,0.569,0.133,0.566c1.473-0.127,2.05,2.802,3.917,1.175
		c0.4-0.35,0.595-0.104,0.714,0.13c0.899,1.76,2.038,3.466,2.517,5.339c0.234,0.916,0.439,2.058,0.912,2.641
		c1.067,1.316,0.378,1.516-0.657,1.967c-0.441,0.192-1.17,0.872-0.764,1.273c0.981,0.969-0.467,1.696-0.046,2.521
		c-1.438-0.141-2.729,0.187-4.006,0.92c-1.033,0.593-2.449-0.26-3.49,0.815c-1.5,1.55-3.729,0.501-5.487,1.393
		c-0.807,0.409-1.299-0.825-1.968-1.217c-1.135-0.665-1.725-0.649-2.458,0.318c-0.372,0.491-0.857,0.772-1.377,0.208
		c-0.623-0.676-1.105-0.476-1.641,0.11c-0.732,0.802-0.891,1.917-0.759,2.767c0.092,0.6,0.899,1.533,2,1.432
		c1.397-0.128,2.408,0.657,3.455,1.432c1.092,0.809,2.564,0.952,3.576,1.936c2.066-0.48,3.281,0.79,4.524,2.119
		c1.072,1.146,2.567,0.64,3.787,0.491c1.053-0.129-0.043-1.883,1.119-2.46c0.286-0.142-0.472-0.741-0.491-1.059
		c-0.055-0.897-1.271-1.443-0.807-2.359c0.984-1.938,0.978-4.288,2.439-6.063c0.416,0.438-0.017,1.319,0.909,1.24
		c1.742,1.016,1.973,0.967,2.743-0.368c0.422-0.731,0.832-1.53,1.444-2.078c0.903-0.809,1.353-1.655,1.226-2.887
		c-0.133-1.291,0.376-2.15,1.854-2.085c0.793,0.034,1.154-0.587,1.476-1.126c0.278-0.467-0.781-3.378-1.351-3.558
		c-1.018-0.321-1.365-1.839-2.809-1.423c-0.565,0.162-0.729-0.693-0.502-0.92c0.532-0.529,0.65-1.074,0.657-1.775
		c0.012-1.226,0.631-2.218,1.436-3.102c0.98-1.076,1.015-1.119,2.321-0.123c0.466,0.355,0.863,0.557,1.456,0.586
		c1.612,0.079,1.994,0.38,3.129,1.917c0.33,0.446,0.759,0.829,1.186,1.19c0.509,0.432,1.013,0.468,1.229-0.295
		c0.117-0.409,0.04-0.876,0.164-1.281c0.304-0.994,0.066-2.648-0.666-2.86c-2.054-0.594-3.051-3.029-5.449-3.026
		c-0.273,0-0.902-0.229-1.116-0.45c-1.367-1.417-3.156-1.565-4.91-2.037c-1.247-0.336-2.79-0.406-3.658-1.727
		c-0.219-0.332-0.729-0.557-0.125-0.958c0.838-0.558,1.344-1.47,0.868-2.264c-0.502-0.839-1.645-0.241-2.498-0.34
		c-0.265-0.031-0.567,0.224-0.847,0.359c-1.803,0.873-3.352-0.144-4.76-0.911c-1.194-0.65-1.977-1.948-3.309-2.591
		c-1.097-0.529-1.771-1.813-1.887-2.855c-0.112-1.014-0.686-1.783-0.898-2.713c-0.272-1.198-0.62-2.785-1.851-3.401
		c-2.212-1.107-4.125-2.587-6.047-4.089c-1.345-1.052-2.233-4.661-1.01-5.275c1.444-0.725,1.089-1.137,0.277-1.731
		c-0.697-0.511-0.581-1.368-1.144-1.918c-0.447-0.437-0.39-0.89,0.342-1.215c1.739-0.772,3.52-1.462,4.849-2.976
		c0.533-0.605,1.713,1.136,2.307-0.346c0.614,0.368,0.451,1.016,0.339,1.467c-0.896,3.595-0.857,3.798,1.877,6.429
		c0.862-1.424,1.82-2.808,1.662-4.491c1.107-0.236,1.305,0.71,1.876,0.905c1.744,0.595,2.349,1.721,2.046,3.504
		c-0.18,1.058,0.142,1.951,1.331,2.271c0.426,0.101,0.65,0.252,0.76,0.431c-0.268-0.104-0.523-0.239-0.76-0.431
		c0,0.635,0.002,1.27,0,1.904c-0.002,0.46,0.091,0.834,0.675,0.793c1.433,1.567,3.605,2.333,4.667,4.312
		c0.132,0.247,0.306,0.328,0.716,0.131c2.155-1.033,3.871,0.064,5.459,1.372c0.6,0.493,1.051,1.163,1.969,0.927
		c-0.005,1.334-1.643,0.155-2.091,1.349c1.083,0,1.924,0,2.765,0c-0.052,0.665,0.466,0.533,0.859,0.696
		c1.915,0.799,4.044,1.161,5.618,2.675c1.306-0.486,0.529,1.554,1.742,1.383c1.403-0.198,2.281,0.63,2.858,1.898
		c0.207,0.455,0.658,0.89,1.343,0.77c1.339-0.233,1.213,0.814,1.016,1.466c-0.237,0.787-1.09,1.511-0.469,2.353
		c1.064,1.442,0.549,3.043,0.449,4.498c-0.204,2.993-0.011,3.964,2.428,5.103c1.401,0.654,2.491,1.296,2.363,3.033
		c-0.031,0.427-0.115,0.964,0.469,1.058c1.241,0.199,1.598,1.744,2.55,1.927c1.688,0.325,1.567,1.86,2.384,2.724
		c0.845,0.893,1.799,1.681,2.67,2.55c0.111,0.112,0.015,0.434,0.015,0.657c0.001,1.462,0.505,0.647,1.032,0.274
		c0.225-0.159,0.654-0.026,0.991-0.026c0,0.225,0,0.449,0,0.674c0.121,0.714-0.277,1.183-0.636,1.762
		c-0.723,1.169-0.521,1.684,0.546,2.538c0.253,0.203,0.591,0.298,0.811,0.455c1.177,0.841,2.879,1.551,1.47,3.494
		c-0.142,0.194-0.027,0.254,0.112,0.492c0.525,0.894,0.931,1.859,1.471,2.743c0.135,0.22,0.388,0.94,0.917,0.331
		c0.287-0.331,1.004-0.506,0.242-1.215c-0.715-0.663,0.081-1.225,0.569-1.566c0.696-0.485,1.108,0.546,1.11,0.675
		c0.014,1.377,2.162,1.819,1.482,3.443c0.29,0.11,0.586,0.323,0.868,0.307c0.34-0.021,0.589-0.331,0.461-0.701
		c-0.1-0.289-0.341-0.527-0.499-0.801c-0.596-1.03,0.368-1.46,0.906-1.791c0.535-0.329,0.98,0.084,0.989,0.837
		c0.002,0.252,0.39,0.495,0.593,0.75c0.312,0.39,0.736,0.554,1.137,0.277c0.431-0.298,0.466-0.902,0.02-1.099
		c-1.057-0.466,0.771-1.095-0.22-1.808c-0.496-0.356-1.215-1.273-1.428-2.009c-0.242-0.833-0.756-1.3-1.274-1.829
		c-0.291-0.297-0.298-0.672-0.166-0.906c0.245-0.435,0.71-0.479,1.119-0.176c1.143,0.847,2.301,0.576,3.886,0.223
		c-1.846-1.033-3.205-2-3.699-3.752c1.368,0.367,2.253-0.391,3.007-1.358c1.14,1.035,1.994,2.396,4.069,2.462
		c-1.31-1.46-0.952-2.999-1.008-4.475c0.667-0.053,0.624,0.418,0.684,0.869c0.1,0.76,0.901,0.348,1.3,0.734
		c0.837,0.812,1.011-0.339,1.347-0.663c0.226-0.219,0.061-1.07-0.51-0.902c-1.448,0.429-1.749-1.22-2.82-1.387
		c0.041-1.235-0.395-2.089-1.784-2.011c-1.062,0.061-2.058-0.023-2.936-0.687c-0.824-0.918-2.35-0.27-3.092-1.396
		c-0.344-0.521-1.331-0.871-0.911-1.581c0.647-1.098,1.219,0.138,1.843,0.268c0.187,0.04,0.405-0.075,0.942-0.192
		c-0.512-0.513-0.855-1.09-1.355-1.312c-1.43-0.633-1.749-2.353-3.021-3.022c-1.921-1.011-0.472-3.142-1.622-4.346
		c-0.202-0.211-0.248-0.397,0.066-0.459c0.373-0.073,0.493-1.364,1.066-0.291c0.757,1.416,2.012,1.574,3.387,1.546
		c0,0.225,0,0.449,0,0.674c-0.563,1.539,0.978,1.505,1.616,1.854c1.191,0.651,1.063-0.448,1.081-1.181
		c0.411,0.077,0.623-0.174,0.661-0.511c0.051-0.453-0.028-0.886-0.661-0.837c0.102-0.512-0.335-1.291,0.674-1.349
		c0.406,0.081,0.847-0.166,1.239,0.196c0.153,0.142,0.303,0.776,0.658,0.229c0.135-0.207,0.085-0.814-0.002-0.842
		c-0.873-0.268-1.526-1.159-2.569-0.932c-0.902-1.72-0.911-1.804,0.908-1.99c1.045-0.107,1.603-0.537,1.783-1.513
		c0.115-0.623,0.776-0.736,0.964-0.513c1.027,1.234,1.678,0.441,2.368-0.323c0.877-0.971,1.646-1.651,3.059-0.533
		c0.601,0.476,1.833,0.434,2.705-0.43c0.378-0.374,1.134-0.096,1.007,0.692c-0.251,1.556,0.916,1.443,1.628,1.164
		c0.578-0.226,1.05-0.717,1.76-0.6c-0.003,0.531,0.142,1.118-0.449,1.455c-1.062,0.606-0.904,1.621-0.899,2.59
		c0.898-1.014,1.825-2.005,2.673-3.059c0.164-0.204,0.024-0.651,0.024-0.986c0.858,0.329,1.306-0.577,2.022-0.675
		c0.688-0.09,1.291,0.031,1.686,0.675c0.395,0.643,0.998,0.764,1.686,0.674c1.06-0.274,2.139-0.496,3.164-0.868
		c0.184-0.067,0.144-0.754,0.207-1.154c0.674,0,1.349,0,2.022,0c0.779,0,1.558-0.005,2.336,0.002
		c0.432,0.003,1.009,0.091,1.002-0.499c-0.006-0.537,0.477-1.412-0.641-1.525c-0.076-0.411,0.174-0.622,0.511-0.662
		c0.453-0.054,0.887-0.054,0.838-0.687c0.4-0.45,0.397-0.899,0-1.349c-0.899,0-1.799,0-2.697,0c0.257-0.664-0.625-1.707,0.674-2.022
		c0.228-0.286,0.23-0.575,0.007-0.866c-3.376-0.921-6.496-2.028-8.387-5.462c-0.752-1.363-2.552-2.005-1.267-4.081
		c0.899-1.453-0.649-3.74,1.317-4.94c1.691-1.032,1.765-2.499,1.31-4.105c-0.663-2.343-0.471-4.651,0.045-6.978
		c0.046-0.226-0.09-0.394-0.23-0.56c0.23-0.04,0.378-0.161,0.434-0.374c0.118-0.001,0.241-0.016,0.363-0.028
		c2.425-0.641,3.273-2.212,2.559-4.565c-0.68-2.233-0.238-4.151,1.243-5.923c0.802-0.96,1.276-2.134,1.454-3.362
		c0.262-1.807,1.268-3.048,2.709-4.027c0.062-0.254,0.16-0.438,0.282-0.575c0.039,0,0.078,0,0.117,0
		c3.107,4.722,7.302,3.009,12.006,1.201c-1.419,1.615-2.344,2.436-3.149,3.364c-0.71,0.818-1.802,1.576-1.316,2.856
		c0.45,1.187,1.668,0.873,2.634,1.008c1.681,0.236,3.215,0.468,3.927,2.507c1.161,3.322,3.54,3.818,5.495,0.997
		c1.496-2.159,3.27-4.102,5.254-5.527c2.552-1.834,5.258-4.572,8.92-3.198c2.368,0.888,4.824,1.258,7.198,1.356
		c3.033,0.127,5.673,0.91,8.289,2.295c1.221,0.646,2.562,1.537,4.074,0.557c0.07-1.781,0.064-1.918,1.534-1.978
		c1.097-0.044,2.043-1.658,3.247-0.32c1.086-0.25,2.166-0.564,3.3-0.396c1.383,0.204,2.588-0.344,3.514-1.208
		c1.299-1.214,3.058-0.72,4.435-1.491c1.829,1.47,4.312-0.118,6.183,1.314c0.234,0.181,1.094,0.038,1.195-0.177
		c0.854-1.795,2.237-2.699,4.195-2.782c-0.156-1.309,1.006-1.326,1.475-0.99c0.971,0.697,1.618,0.654,2.547-0.008
		c0.315-0.227,1.398-0.433,1.411,0.705c0.008,0.663-0.05,1.629,0.924,1.201c0.839-0.368,0.964,0.983,1.954,0.345
		c1.275-0.82,3.055,0.085,4.5-0.661c1.176,1.118,3.015,0.782,4.207,2.082c0.823,0.897,3.964-0.418,3.852-1.608
		c-0.215-2.276,1.248-4.051,1.422-6.163c-0.849-0.042-1.581-0.037-2.426-0.624c-1.589-1.104-3.101-2.302-5.127-2.902
		c-1.536-0.455-3.52-1.564-3.59-3.89c0-0.003-0.209-0.001-0.319-0.001c0.329-0.859-0.577-1.306-0.675-2.022
		c-0.069-1.768-0.062-1.88-1.543-1.978c-0.786-0.052-1.125-0.581-1.682-0.859c-1.01-0.506-2.104-1.055-3.197-1.139
		c-1.667-0.13-1.872-0.127-1.436-1.31c0.797-2.158,1.934-4.282,0.546-6.618c0.707-0.896-0.808-2.54,1.029-3.053
		c0.388-1.568,2.059-2.434,2.254-4.12c0.029-0.257,0.218-0.657,0.603-0.2c0.199,0.238,0.484,0.525,0.688,0.068
		c0.115-0.259,0.172-0.663-0.18-0.899c-0.338-0.228-0.884,0.021-1.146-0.58c0.576-0.218,1.19-0.342,1.684-0.825
		c0.901-0.884-0.142-1.31-0.309-1.944c-0.189-0.719,0.353-1.577-0.385-2.194c-0.408-0.342-0.122-0.639,0.143-0.619
		c2.308,0.175,2.406-1.684,2.921-3.134c0.317-0.893,0.517-1.873,1.262-2.496c1.179-0.985,1.816-2.148,1.352-3.834
		c1.065,0,1.832,0,2.6,0c0.897,0,1.795,0.003,2.692-0.001c0.457-0.002,0.921-0.008,0.869-0.673c0.44-0.782-0.222-1.013-0.675-1.349
		c-1.587-2.912-2.43-6.124-2.588-9.338c-0.135-2.731-0.802-4.877-2.887-6.601c-0.518-0.427-1.164-0.863-1.396-1.438
		c-0.559-1.387-2.774-2.327-1.251-4.353c0.199-0.264-0.166-0.811-0.247-1.2c-0.361-1.718-1.485-2.835-2.666-3.968
		c-0.535-0.512-1.121-0.928-1.144-1.896c-0.054-2.222,1.603-4.119,3.923-4.248c0.811-0.045,0.911,0.427,0.836,1.049
		c-0.083,0.693,0.184,1.149,0.9,0.955c0.742-0.2,0.534-0.966,0.405-1.402c-0.141-0.478-0.596-0.894-0.989-1.255
		c-0.228-0.208-1.045,0.255-0.792-0.482c0.143-0.414,0.752-1.189,1.243-0.837c1.106,0.794,2.283,0.616,3.461,0.621
		c1.862,0.007,2.77-1.165,2.446-3.096c-0.202-1.212,0.042-1.903,1.143-3.007c0.223-0.224,0.262-0.288,0.092-0.493
		c-0.879-1.065,0.263-1.297,0.781-1.438c0.732-0.197,1.616,0.12,2.323-0.116c0.402-0.134,1.662-0.502,0.568-1.574
		c-0.389-0.38-0.179-1.016,0.638-1.069C346.254,142.495,345.887,141.758,345.947,141.275z M136.785,100.223
		c-0.045,0.014-0.084,0.027-0.127,0.041c-0.125-0.054-0.246-0.091-0.363-0.117c0-0.007,0.006-0.012,0.005-0.02
		C136.23,99.69,136.672,100.238,136.785,100.223z M137.261,195.18c0.094-0.09,0.201-0.144,0.315-0.164
		C137.474,195.062,137.37,195.116,137.261,195.18z M238.332,291.554c0.11-0.126,0.219-0.255,0.327-0.385
		C238.782,291.428,238.599,291.515,238.332,291.554z"/>
	<path fill-rule="evenodd" clip-rule="evenodd" fill="#404040" d="M58.227,165.782c-0.088,0.066,0.803,1.259-0.594,1.062
		c-0.22-0.032-0.448-0.009-0.672-0.004c-2.204,0.054,0.378,1-0.251,1.348c-0.317,0-0.643-0.045-0.952,0.008
		c-1.452,0.249-1.55,0.46-1.079,2.056c0.058,0.195,0.008,0.421,0.008,0.633c-0.475,0.075-1.101-0.261-1.336,0.454
		c-0.06,0.18-0.041,0.546,0.054,0.591c0.724,0.346,1.514,0.83,1.957-0.371c0.45,0,0.899,0,1.349,0c0,0.899,0,1.798,0,2.697
		c-0.439,0.101-1.426,0.128-1.22,0.328c0.98,0.952-0.636,1.588-0.128,2.368c-1.282,0.437-0.288,2.021-1.327,2.639
		c-0.208,0.124,0.078,0.63,0.418,0.718c0.313,0.08,0.811,0.053,0.85-0.294c0.119-1.058,1.084-1.905,0.733-3.062
		c0.839-0.009,2.037,0.03,1.043-1.22c-0.703-0.885,0.637-0.925,0.305-1.477c0.682,0.079,0.969-1.125,1.705-0.616
		c0.643,0.445,0.258,1.235,0.305,1.868c0.057,0.762-0.913,1.169-0.691,2.078c0.203,0.835-0.425,2.563-0.613,3.194
		c-0.386,1.295-1.807,1.997-1.858,3.446c1.14,0.201,2.477,0.121,2.544,1.851c0.011,0.271,0.296,0.317,0.542,0.063
		c0.023-0.217,0.069-0.529,0.086-0.845c0.018-0.326-0.041-0.67,0.312-0.89c0.413,0.632,0.438,1.67,1.712,1.351
		c0.582-0.146,1.312-0.238,1.983,0.226c-0.535,0.96-1.604,1.851-0.634,3.106c-0.307,1.839,0.763,2.989,2.023,4.045
		c-0.86,0.065-0.744,0.587-0.536,1.149c0.093,0.251,0.649,0.644,0.355,0.654c-1.843,0.071-0.673,2.14-1.827,2.639
		c-0.14,0.061,0.105,0.812-0.272,0.832c-0.607,0.031-0.32-0.616-0.477-0.945c-0.141-0.298-0.334-0.331-0.469-0.087
		c-0.664,1.2-1.425-0.201-2.103,0.084c-1.151,0.484-1.276-0.743-1.892-1.135c-0.372-0.236-0.59-0.628-0.971-0.062
		c-0.199,0.297-0.624,0.376-0.247,0.983c0.483,0.778,0.959,1.861-0.738,2.058c-0.382,0.044-0.354,0.606-0.239,0.864
		c0.208,0.467,0.657,0.481,1.1,0.269c0.247-0.119,0.514-0.7,0.671-0.385c0.413,0.828,1.118,2.058,0.802,2.595
		c-0.802,1.362-1.776,3.068-3.496,3.199c-1.327,0.102-2.37,1.099-3.759,0.804c-0.791-0.167-0.89,0.509-0.623,1.057
		c0.181,0.37,0.414,0.724,0.609,1.091c0.437,0.822,0.962,1.864,2.214,0.684c0.422-0.396,1.658-0.398,1.697,0.189
		c0.092,1.387,0.971,0.913,1.639,0.986c0.523,0.058,1.052-0.123,1.176,0.74c0.131,0.923,1.124,1.279,1.448,1.677
		c1.295,0.179,1.74-1.32,3.079-0.997c0.146,0.718-0.54,0.851-0.808,1.223c-1.229,1.701-1.438,1.779-3.189,0.929
		c-0.465-0.226-1.03-0.143-1.431-0.665c-0.352-0.459-1.342-0.37-1.498-0.108c-0.742,1.245-2.706,1.031-3.056,2.711
		c-0.13,0.628-0.65,1.028-1.34,1.269c-0.94,0.33-1.599,1.065-2.004,1.995c-1.271-0.16-2.328,0.29-3.275,1.132
		c0.594,0.255,1.24,0.338,1.636,0.923c0.309,0.455,0.784,0.876,1.136,0.101c0.386-0.848,1.696-0.427,1.851-1.48
		c1.708-0.253,3.101,0.422,4.515,1.315c1.366,0.862,1.379,0.705,2.255-0.711c0.409-0.661,0.338-1.861,1.325-1.899
		c0.925-0.036,2.001-0.522,2.85,0.406c0.179,0.195,0.595,0.163,0.892,0.263c0.096,0.032,0.148,0.176,0.243,0.227
		c1.019,0.54,0.978,0.325,3.028-0.128c1.431-0.316,3.045-0.544,4.506,0.249c1.041,0.563,2.191,0.344,3.248,0.229
		c1.276-0.139,2.224,0.831,3.432,0.724c0.111-0.01,0.293,0.044,0.327-0.008c0.616-0.943,1.595-0.775,2.42-0.635
		c1.458,0.249,1.835-1.37,3.084-1.604c0.555-0.104,0.433-1.531,0.153-2.124c-0.379-0.807-0.681,0.572-1.206,0.323
		c-0.47-0.222-0.937-0.449-1.405-0.674c0.225-0.449,0.45-0.898,0.674-1.349c0.1-0.479-0.323-1.179,0.532-1.342
		c0.423-0.081,0.988,0.057,1.26-0.174c0.492-0.418-0.557-0.58-0.346-0.903c0.37-0.565,1.03-0.164,1.548-0.284
		c0.094-0.022,0.205-0.117,0.245-0.207c0.5-1.138,1.223-2.239,1.434-3.431c0.504-2.854-0.033-3.605-2.888-4.406
		c-0.545-0.153-0.977-0.306-1.431-0.644c-0.325-0.241-0.73-0.071-1.053,0.387c-0.695,0.985-0.75,0.947-2.156-0.245
		c0.793-0.588,1.568-1.162,2.405-1.782c-2.06-1.512-0.944-3.894-2.163-5.447c-0.113-0.144-0.046-0.422-0.087-0.633
		c-0.123-0.628,0.28-0.986,0.61-1.44c0.236-0.324,0.161-0.9-0.418-1.008c-0.445-0.083-0.922-0.03-0.863-0.691
		c0.134-1.491-0.912-2.17-2.009-2.659c-0.654-0.291-1.356-0.703-1.308-1.263c0.145-1.676-1.238-3.127-0.703-4.763
		c0.681-2.083-1.371-3.277-1.507-5.149c-0.066-0.912-1.628-1.19-2.565-1.672c0.225-0.449,0.45-0.898,0.674-1.348
		c-0.156-0.817,0.151-1.812,0.752-2.437c0.078-0.081,0.173-0.149,0.235-0.24c1.43-2.099,2.875-4.189,4.273-6.309
		c0.476-0.72,0.115-1.255-0.883-1.827c-1.719-0.983-3.681-0.885-5.525-1.255c-0.967-0.194-2.228-0.565-3.136,0.478
		c-0.022,0.026-0.401-0.144-0.414-0.246c-0.036-0.312-0.118-0.871,0.239-0.865c1.326,0.024,1.907-0.476,1.888-1.856
		c-0.004-0.28,0.654-0.736,1.202-0.996c1.646-0.779,2.693-2.147,3.227-4c-1.471,0-2.812-0.001-4.153,0
		c-1.211,0.001-2.426,0.169-3.266-1.118c-0.319-0.49-0.912-0.416-1.199,0.338c-0.293,0.773-0.738,1.488-1.098,2.237
		c-0.315,0.653-0.818,1.306-0.86,1.983c-0.074,1.185-1.699-0.793-1.415,0.786c0.024,0.131-0.223,0.31-0.344,0.467
		c-0.238-0.194-0.619-0.597-0.69-0.548c-0.426,0.293-0.396,0.689-0.097,1.119C59.287,162.792,60.245,164.265,58.227,165.782z"/>
	<path fill-rule="evenodd" clip-rule="evenodd" fill="#404040" d="M54.421,159.18c0.724-0.69,2.821,0.276,2.345-1.887
		c-0.072-0.327,0.599-0.833,0.952-1.233c0.662-0.752-0.427-0.748-0.467-1.204c-0.43-0.19-0.495,0.27-0.737,0.374
		c-0.66,0.283-1.315,0.583-1.994,0.814c-1.312,0.449-1.605,0.81-0.879,1.873C53.936,158.346,53.93,159.646,54.421,159.18z"/>
	<path fill-rule="evenodd" clip-rule="evenodd" fill="#404040" d="M79.281,145.221c1.279-0.328,0.76,1.077,1.381,1.396
		c0.117-0.93,1.109-1.499,0.993-2.521c-0.061-0.536-0.034-1.262-0.79-0.397c-0.358,0.409-0.818,0.195-1.223,0.199
		c-0.402,0.004-0.651,0.188-0.659,0.515C78.976,144.691,79.245,145.23,79.281,145.221z"/>
	<path fill-rule="evenodd" clip-rule="evenodd" fill="#404040" d="M72.377,154.702c0.171-0.112,0.452-0.193,0.495-0.342
		c0.279-0.961-1.184-2.551-2.132-2.356c-0.348,0.072-0.603,0.236-0.542,0.63C70.312,153.368,71.667,154.639,72.377,154.702z"/>
	<path fill-rule="evenodd" clip-rule="evenodd" fill="#404040" d="M58.254,188.417c-1.228-0.248-0.643,1.122-1.288,1.462
		c-0.439,0.232-0.38,0.715-0.048,1.094c0.039,0.045,0.149,0.027,0.053,0.014c0.671-0.339,1.264-0.549,1.743-0.91
		C59.039,189.833,58.625,188.492,58.254,188.417z"/>
	<path fill-rule="evenodd" clip-rule="evenodd" fill="#404040" d="M45.432,178.92c-0.521,0.095-1.135-0.537-1.729-0.587
		c-0.916-0.078-2.092-0.436-1.889,1.363c0.08,0.707-0.702,1.122-1.55,1.378c-0.67,0.202-0.765,1.021,0.263,1.271
		c0,0.449,0,0.898,0,1.349c-1.497-0.148-3.364,2.154-4.468-0.67c-0.015-0.038-0.211-0.005-0.323-0.005c-1.083,0-2.167,0-4.049,0
		c1.726,1.266,0.683,3.37,2.763,3.7c-0.169,0.115-0.397,0.368-0.5,0.325c-1.676-0.704-2.165,1.152-3.331,1.557
		c-0.41,0.142-0.235,1.103,0.061,1.043c1.848-0.37,2.19,1.272,3.104,2.14c0,0.225,0,0.45,0,0.675
		c-0.489,2.016-2.42,2.91-3.555,4.433c-0.43,0.576-1.482,1.082-2.549,0.995c-0.816-0.067-0.856,0.719-0.459,1.092
		c0.639,0.602,0.271,0.896-0.164,1.201c-0.622,0.438-0.791,1.013-0.69,1.719c0.164,0.734,0.614,1.185,1.349,1.348
		c-0.023-0.307,0.07-0.461,0.225-0.548c0.004,0.148-0.072,0.32-0.225,0.548c0.224,0,0.452-0.028,0.67,0.007
		c0.417,0.067,1.088-0.265,1.201,0.237c0.143,0.631-0.576,0.31-0.887,0.471c-0.346,0.179-0.375,0.556-0.295,0.868
		c0.088,0.342,0.382,0.507,0.754,0.438c2.291-0.416,4.92,1.051,6.881-1.231c0.031-0.036,0.193-0.025,0.226,0.017
		c0.672,0.863,1.154,0.456,1.906-0.034c0.594-0.388,1.756,0.181,1.81-1.205c0.014-0.384,0.75-0.345,0.846-0.219
		c0.765,1.01,1.834,0.511,2.771,0.662c1.45,0.236,2.145-0.479,3.018-1.607c2.017-2.605,3.084-5.348,2.698-8.654
		c-0.115-0.979-0.167-2.055,0.129-2.963c0.235-0.72,1.496,0.141,2.011-0.719c0.216-0.361,0.6-0.651,0.962-0.893
		c1.91-1.265,1.815-1.227,1.169-3.52c-0.339-1.201-0.971-2.317-0.963-3.653c0.007-1.146-0.785-1.761-1.974-1.588
		c-0.945,0.136-1.871-0.21-2.878,0.371C47.017,180.468,46.621,178.705,45.432,178.92z"/>
</g>
</svg>
