<?xml version="1.0" encoding="utf-8"?>
<!-- Generator: Adobe Illustrator 16.0.4, SVG Export Plug-In . SVG Version: 6.00 Build 0)  -->
<!DOCTYPE svg PUBLIC "-//W3C//DTD SVG 1.1//EN" "http://www.w3.org/Graphics/SVG/1.1/DTD/svg11.dtd">
<svg version="1.1" id="Layer_1" xmlns="http://www.w3.org/2000/svg" xmlns:xlink="http://www.w3.org/1999/xlink" x="0px" y="0px"
	 width="283px" height="632px" viewBox="0 0 283 632" enable-background="new 0 0 283 632" xml:space="preserve">
<path fill="#333333" d="M177.702,521.109c-2.717-23.832-4.899-47.687-6.371-71.607l-8.04,3.405l-9.131-10.38l-13.603,2.414
	l-6.589-12.146l-13.802-0.688l-3.742-13.298l-13.294-3.734l-0.704-13.825l-12.132-6.569l2.396-13.607l-10.361-9.123l5.408-12.738
	l-8.082-11.233l8.082-11.214l-5.408-12.73l10.361-9.15l-2.396-13.603l12.167-6.611l0.669-13.783l13.294-3.72l3.742-13.312
	l13.813-0.688l6.592-12.144l13.622,2.392l9.112-10.364l6.48,2.747c1.617-15.561,2.89-31.13,1.616-46.796
	c0.028-9.189,0.901-18.147,2.599-26.881l-57.088-42.078l23.595,111.24L92.063,123.765l-18.356,51.161l36.291,95.32L63.481,203.38
	l-15.84,44.046l25.001,45.724l-32.737-24.147l-13.705,38.16l25.276,20.557l-30.62-5.626l-9.308,25.885l10.259,28.586l29.669-5.438
	l-24.486,19.884l12.915,35.945l32.737-24.141l-25.001,45.735l15.84,44.042l46.517-66.866l-36.291,95.328l18.356,51.161
	l48.446-117.517l-23.595,111.217L177.702,521.109z"/>
<path fill="#1A1A1A" d="M169.324,373.892c0.177-15.026-0.159-30.054-1.001-45.06c-0.796-14.202-2.545-28.384-2.068-42.623
	c-19.834,13.371-32.876,36.044-32.876,61.769c0,27.164,14.543,50.916,36.264,63.914
	C169.299,399.251,169.175,386.588,169.324,373.892z"/>
<rect y="145" fill="none" width="144" height="455"/>
<g id="bar_2_">
	<polygon fill="#1A1A1A" points="173.549,97.201 203,65 144.263,65 	"/>
	<g>
		<polygon fill="#1A1A1A" points="173.713,599.799 144.263,632 203,632 		"/>
		<polygon fill="#1A1A1A" points="173.541,104.838 144,82.231 144,287.787 144,290.787 144,608.787 173.459,586.903 203,609.287 
			203,245.028 203,242.787 203,82.736 		"/>
	</g>
</g>
</svg>
