<?xml version="1.0" encoding="utf-8"?>
<!-- Generator: Adobe Illustrator 16.0.4, SVG Export Plug-In . SVG Version: 6.00 Build 0)  -->
<!DOCTYPE svg PUBLIC "-//W3C//DTD SVG 1.1//EN" "http://www.w3.org/Graphics/SVG/1.1/DTD/svg11.dtd">
<svg version="1.1" id="Layer_1" xmlns="http://www.w3.org/2000/svg" xmlns:xlink="http://www.w3.org/1999/xlink" x="0px" y="0px"
	 width="449.994px" height="260px" viewBox="-71.164 -41.5 449.994 260" enable-background="new -71.164 -41.5 449.994 260"
	 xml:space="preserve">
<g id="Layer_1_1_" display="none">
</g>
<g>
	<path fill="#74787B" d="M306.833,45.513c5.652,0,10.251-4.598,10.251-10.25s-4.599-10.25-10.251-10.25s-10.25,4.598-10.25,10.25
		S301.181,45.513,306.833,45.513z M306.833,27.013c4.55,0,8.251,3.701,8.251,8.25s-3.701,8.25-8.251,8.25
		c-4.549,0-8.25-3.701-8.25-8.25S302.285,27.013,306.833,27.013z"/>
	<path fill="#74787B" d="M288.896,79.594c2.188,0,3.97-1.781,3.97-3.97c0-2.189-1.781-3.971-3.97-3.971s-3.97,1.781-3.97,3.971
		C284.926,77.812,286.708,79.594,288.896,79.594z M288.896,72.653c1.638,0,2.97,1.333,2.97,2.971c0,1.638-1.332,2.97-2.97,2.97
		s-2.97-1.333-2.97-2.97C285.926,73.985,287.258,72.653,288.896,72.653z"/>
	<path fill="#74787B" d="M300.854,79.594c2.189,0,3.971-1.781,3.971-3.97c0-2.189-1.781-3.971-3.971-3.971
		c-2.188,0-3.97,1.781-3.97,3.971C296.884,77.812,298.666,79.594,300.854,79.594z M300.854,72.653c1.638,0,2.971,1.333,2.971,2.971
		c0,1.638-1.333,2.97-2.971,2.97s-2.97-1.333-2.97-2.97C297.884,73.985,299.216,72.653,300.854,72.653z"/>
	<path fill="#74787B" d="M288.896,90.058c2.188,0,3.97-1.781,3.97-3.971c0-2.189-1.781-3.97-3.97-3.97
		c-2.103,0-3.812,1.649-3.944,3.72h-14.083v0.5h14.083C285.083,88.408,286.793,90.058,288.896,90.058z M288.896,83.117
		c1.638,0,2.97,1.332,2.97,2.97c0,1.638-1.332,2.971-2.97,2.971c-1.552,0-2.815-1.202-2.944-2.721h2.947v-0.5h-2.947
		C286.081,84.317,287.344,83.117,288.896,83.117z"/>
	<path fill="#74787B" d="M300.854,90.058c2.189,0,3.971-1.781,3.971-3.971c0-2.189-1.781-3.97-3.971-3.97
		c-2.188,0-3.97,1.781-3.97,3.97C296.884,88.276,298.666,90.058,300.854,90.058z M300.854,83.117c1.638,0,2.971,1.332,2.971,2.97
		c0,1.638-1.333,2.971-2.971,2.971s-2.97-1.333-2.97-2.971C297.884,84.449,299.216,83.117,300.854,83.117z"/>
	<path fill="#74787B" d="M288.896,102.017c2.188,0,3.97-1.781,3.97-3.972c0-2.188-1.781-3.97-3.97-3.97
		c-2.103,0-3.812,1.649-3.944,3.72h-14.083v0.5h14.083C285.083,100.367,286.793,102.017,288.896,102.017z M288.896,95.075
		c1.638,0,2.97,1.332,2.97,2.97c0,1.639-1.332,2.972-2.97,2.972c-1.552,0-2.815-1.201-2.944-2.722h2.947v-0.5h-2.947
		C286.081,96.275,287.344,95.075,288.896,95.075z"/>
	<path fill="#74787B" d="M300.854,102.017c2.189,0,3.971-1.781,3.971-3.972c0-2.188-1.781-3.97-3.971-3.97
		c-2.188,0-3.97,1.781-3.97,3.97C296.884,100.235,298.666,102.017,300.854,102.017z M300.854,95.075c1.638,0,2.971,1.332,2.971,2.97
		c0,1.639-1.333,2.972-2.971,2.972s-2.97-1.333-2.97-2.972C297.884,96.407,299.216,95.075,300.854,95.075z"/>
	<path fill="#74787B" d="M288.896,106.034c-2.188,0-3.97,1.781-3.97,3.97c0,2.189,1.781,3.971,3.97,3.971s3.97-1.781,3.97-3.971
		C292.866,107.815,291.084,106.034,288.896,106.034z M288.896,112.975c-1.638,0-2.97-1.333-2.97-2.971s1.332-2.97,2.97-2.97
		s2.97,1.332,2.97,2.97S290.534,112.975,288.896,112.975z"/>
	<path fill="#74787B" d="M300.854,113.975c2.189,0,3.971-1.781,3.971-3.971c0-2.188-1.781-3.97-3.971-3.97
		c-2.188,0-3.97,1.781-3.97,3.97C296.884,112.193,298.666,113.975,300.854,113.975z M300.854,107.034
		c1.638,0,2.971,1.332,2.971,2.97s-1.333,2.971-2.971,2.971s-2.97-1.333-2.97-2.971S299.216,107.034,300.854,107.034z"/>
	<path fill="#74787B" d="M288.896,116.497c-2.188,0-3.97,1.781-3.97,3.971s1.781,3.971,3.97,3.971s3.97-1.781,3.97-3.971
		S291.084,116.497,288.896,116.497z M288.896,123.438c-1.638,0-2.97-1.333-2.97-2.971s1.332-2.971,2.97-2.971s2.97,1.333,2.97,2.971
		S290.534,123.438,288.896,123.438z"/>
	<path fill="#74787B" d="M300.854,124.438c2.189,0,3.971-1.781,3.971-3.971s-1.781-3.971-3.971-3.971
		c-2.188,0-3.97,1.781-3.97,3.971S298.666,124.438,300.854,124.438z M300.854,117.497c1.638,0,2.971,1.333,2.971,2.971
		s-1.333,2.971-2.971,2.971s-2.97-1.333-2.97-2.971S299.216,117.497,300.854,117.497z"/>
	<path fill="#74787B" d="M292.866,132.426c0-2.188-1.781-3.97-3.97-3.97s-3.97,1.781-3.97,3.97c0,2.105,1.651,3.816,3.723,3.946
		v15.98h0.5v-15.98C291.217,136.238,292.866,134.529,292.866,132.426z M285.926,132.426c0-1.638,1.332-2.97,2.97-2.97
		s2.97,1.332,2.97,2.97c0,1.552-1.199,2.815-2.717,2.946v-2.946h-0.5v2.946C287.128,135.244,285.926,133.979,285.926,132.426z"/>
	<path fill="#74787B" d="M306.833,150.578c-2.119,0-4.091,0.646-5.727,1.753v-15.959c2.069-0.134,3.718-1.843,3.718-3.946
		c0-2.188-1.781-3.97-3.971-3.97c-2.188,0-3.97,1.781-3.97,3.97c0,2.105,1.651,3.816,3.723,3.946v15.98h0.471
		c-2.71,1.847-4.494,4.956-4.494,8.476c0,5.652,4.598,10.25,10.25,10.25s10.251-4.598,10.251-10.25S312.486,150.578,306.833,150.578
		z M297.884,132.426c0-1.638,1.332-2.97,2.97-2.97s2.971,1.332,2.971,2.97c0,1.552-1.2,2.815-2.718,2.946v-2.946h-0.5v2.946
		C299.086,135.244,297.884,133.979,297.884,132.426z M306.833,169.078c-4.549,0-8.25-3.701-8.25-8.25s3.701-8.25,8.25-8.25
		c4.55,0,8.251,3.701,8.251,8.25S311.383,169.078,306.833,169.078z"/>
	<path fill="#74787B" d="M343.304,63.915v-0.5h-19.309V32.378c0-1.682-0.266-3.302-0.75-4.826v-9.884h16.572v-0.5h-16.572v-32.574
		h-0.5v11.122l-4.157-2.397v2.173H-18.089v-2.173l-3.952,2.279v-11.004h-0.5v32.76h-46.688v0.5h46.688v9.648
		c-0.495,1.538-0.768,3.174-0.768,4.875v2.728h-19.013v0.5h19.013v126.8c0,1.7,0.273,3.337,0.768,4.875v9.835h-47.622v0.5h47.622
		v34.131h0.5v-34.131h9.866c1.524,0.484,3.144,0.75,4.826,0.75h3.009v33.381h0.5v-33.381h311.875c8.801,0,15.961-7.159,15.961-15.96
		V63.915H343.304z M322.746,26.188c-1.618-3.831-4.69-6.902-8.521-8.521h8.521V26.188z M-22.042-4.113l3.952,2.279v-2.173h336.678
		v2.173l4.157-2.397v21.399h-9.885c-1.523-0.484-3.145-0.75-4.826-0.75H-7.35c-1.873,0-3.664,0.341-5.334,0.937h-9.357V-4.113z
		 M-22.042,17.854h8.112c-3.632,1.652-6.546,4.614-8.112,8.292V17.854z M-22.042,177.115v-8.479
		c1.623,3.811,4.686,6.866,8.502,8.479H-22.042z M321.996,162.405c0,7.697-6.263,13.96-13.961,13.96H-3.84v-5.3
		c5.536-0.135,10-4.669,10-10.237c0-5.652-4.598-10.25-10.25-10.25s-10.25,4.598-10.25,10.25c0,5.568,4.464,10.103,10,10.237v5.3
		H-7.35c-7.698,0-13.96-6.263-13.96-13.96v-126.8h6.987c0.183,5.493,4.696,9.908,10.232,9.908c5.652,0,10.25-4.598,10.25-10.25
		s-4.598-10.25-10.25-10.25c-5.599,0-10.156,4.514-10.242,10.092h-6.977v-2.728c0-7.698,6.262-13.96,13.96-13.96h315.384
		c7.698,0,13.961,6.262,13.961,13.96v31.037h-17.196c-0.132-2.071-1.842-3.721-3.945-3.721c-2.103,0-3.812,1.649-3.944,3.721h-4.069
		c-0.132-2.071-1.842-3.721-3.944-3.721c-2.188,0-3.97,1.781-3.97,3.971s1.781,3.971,3.97,3.971c2.103,0,3.812-1.649,3.944-3.721
		h4.069c0.132,2.071,1.842,3.721,3.944,3.721c2.104,0,3.813-1.649,3.945-3.721h17.196V162.405z M-4.34,169.065
		c-4.433-0.134-8-3.772-8-8.237c0-4.549,3.701-8.25,8.25-8.25s8.25,3.701,8.25,8.25c0,4.465-3.567,8.104-8,8.237v-6.648h-0.5
		V169.065z M-12.333,35.105c0.085-4.476,3.747-8.092,8.242-8.092c4.549,0,8.25,3.701,8.25,8.25s-3.701,8.25-8.25,8.25
		c-4.433,0-8.051-3.518-8.232-7.908h9.259v-0.5H-12.333z M297.91,63.415c0.129-1.52,1.393-2.721,2.944-2.721
		s2.816,1.201,2.945,2.721H297.91z M303.799,63.915c-0.129,1.52-1.394,2.721-2.945,2.721s-2.815-1.201-2.944-2.721H303.799z
		 M291.84,63.915c-0.129,1.52-1.393,2.721-2.944,2.721c-1.638,0-2.97-1.333-2.97-2.971s1.332-2.971,2.97-2.971
		c1.552,0,2.815,1.201,2.944,2.721h-2.944v0.5H291.84z"/>
	<polygon fill="#74787B" points="277.353,109.754 272.533,109.754 272.533,110.254 277.353,110.254 277.353,112.427 
		281.548,110.004 277.353,107.58 	"/>
	<polygon fill="#74787B" points="13.277,158.405 9.081,160.828 13.277,163.252 13.277,161.078 36.363,161.078 36.363,160.578 
		13.277,160.578 	"/>
	<polygon fill="#74787B" points="300.11,140.118 295.916,137.696 295.916,139.868 293.875,139.868 293.875,137.696 289.68,140.118 
		293.875,142.541 293.875,140.368 295.916,140.368 295.916,142.541 	"/>
	<polygon fill="#74787B" points="301.583,140.118 305.777,142.541 305.777,140.368 317.311,140.368 317.311,142.541 
		321.506,140.118 317.311,137.696 317.311,139.868 305.777,139.868 305.777,137.696 	"/>
	<polygon fill="#74787B" points="304.855,181.929 300.526,184.963 285.388,184.963 285.388,185.463 300.684,185.463 
		305.142,182.339 306.39,184.118 308.435,179.727 303.608,180.15 	"/>
	<polygon fill="#74787B" points="280.763,90.928 278.343,86.375 275.919,90.928 278.093,90.928 278.093,93.242 275.919,93.242 
		278.343,97.792 280.763,93.242 278.593,93.242 278.593,90.928 	"/>
	<polygon fill="#74787B" points="335.762,22.112 333.339,17.916 330.918,22.112 333.089,22.112 333.089,58.862 330.918,58.862 
		333.339,63.057 335.762,58.862 333.589,58.862 333.589,22.112 	"/>
	<polygon fill="#74787B" points="-8.776,200.005 -17.598,200.005 -17.598,197.831 -22,200.255 -17.598,202.678 -17.598,200.505 
		-8.776,200.505 -8.776,202.678 -4.375,200.255 -8.776,197.831 	"/>
	<polygon fill="#74787B" points="-60.608,172.734 -58.185,176.927 -55.764,172.734 -57.935,172.734 -57.935,22.221 -55.764,22.221 
		-58.185,18.025 -60.608,22.221 -58.435,22.221 -58.435,172.734 	"/>
	<polygon fill="#74787B" points="-33.702,30.742 -31.278,35.062 -28.855,30.742 -31.028,30.742 -31.028,22.196 -28.855,22.196 
		-31.278,17.875 -33.702,22.196 -31.528,22.196 -31.528,30.742 	"/>
	<polygon fill="#74787B" points="197.244,107.487 197.397,108.089 198.411,107.541 198.428,107.541 198.428,112.638 
		199.191,112.638 199.191,106.806 198.518,106.806 	"/>
	<path fill="#74787B" d="M204.5,106.806h-0.853l-2.602,3.724v0.512h2.709v1.597h0.745v-1.597h0.816v-0.61H204.5V106.806z
		 M203.755,108.483v1.947h-1.91v-0.019l1.426-1.982c0.162-0.27,0.306-0.521,0.484-0.861h0.027
		C203.765,107.873,203.755,108.179,203.755,108.483z"/>
	<path fill="#74787B" d="M209.524,108.295h-0.861l-0.602,0.925c-0.152,0.232-0.296,0.457-0.439,0.718h-0.026
		c-0.145-0.252-0.278-0.467-0.44-0.709l-0.619-0.934h-0.879l1.472,2.127l-1.543,2.216h0.87l0.628-0.978
		c0.161-0.261,0.313-0.494,0.457-0.754h0.019c0.152,0.26,0.296,0.502,0.466,0.754l0.638,0.978h0.897l-1.517-2.243L209.524,108.295z"
		/>
	<path fill="#74787B" d="M215.292,106.563l-0.476-0.323l-0.529,0.727c-0.431-0.313-0.951-0.475-1.508-0.475
		c-1.588,0-2.79,1.247-2.79,3.158c0,0.906,0.296,1.695,0.798,2.242l-0.556,0.781l0.439,0.35l0.565-0.771
		c0.431,0.314,0.96,0.484,1.525,0.484c1.453,0,2.754-1.067,2.754-3.176c0-0.889-0.278-1.678-0.78-2.226L215.292,106.563z
		 M211.227,111.229c-0.27-0.458-0.44-0.951-0.44-1.615c0-1.274,0.664-2.494,1.975-2.494c0.457,0,0.834,0.161,1.139,0.421
		l-2.655,3.679L211.227,111.229z M212.751,112.108c-0.493,0-0.834-0.152-1.13-0.431l2.646-3.661h0.027
		c0.313,0.512,0.422,1.06,0.422,1.57C214.717,110.951,214.008,112.108,212.751,112.108z"/>
	<path fill="#74787B" d="M218.205,106.707c-1.184,0-2.036,1.067-2.036,3.032c0.018,1.93,0.798,2.997,1.938,2.997h0.009
		c1.274,0,2.02-1.095,2.02-3.077C220.134,107.802,219.425,106.707,218.205,106.707z M218.151,112.126h-0.009
		c-0.727,0-1.193-0.915-1.176-2.431c0-1.463,0.467-2.378,1.185-2.378c0.825,0,1.185,0.942,1.185,2.378
		C219.335,111.185,218.95,112.126,218.151,112.126z"/>
	<path fill="#74787B" d="M221.451,111.605c-0.314,0-0.538,0.242-0.538,0.565s0.215,0.565,0.521,0.565h0.009
		c0.323,0,0.538-0.242,0.538-0.565C221.98,111.839,221.765,111.605,221.451,111.605z"/>
	<path fill="#74787B" d="M224.662,106.707c-1.184,0-2.036,1.067-2.036,3.032c0.018,1.93,0.798,2.997,1.938,2.997h0.009
		c1.274,0,2.02-1.095,2.02-3.077C226.591,107.802,225.882,106.707,224.662,106.707z M224.608,112.126h-0.009
		c-0.727,0-1.193-0.915-1.176-2.431c0-1.463,0.467-2.378,1.185-2.378c0.825,0,1.185,0.942,1.185,2.378
		C225.792,111.185,225.407,112.126,224.608,112.126z"/>
	<path fill="#74787B" d="M230.923,110.986c0-0.816-0.583-1.354-1.301-1.489v-0.018c0.709-0.26,1.076-0.771,1.076-1.382
		c0-0.709-0.521-1.391-1.669-1.391c-0.628,0-1.22,0.225-1.534,0.448l0.216,0.574c0.251-0.179,0.7-0.386,1.166-0.386
		c0.727,0,1.023,0.413,1.023,0.88c0,0.69-0.728,0.986-1.302,0.986h-0.439v0.593h0.439c0.763,0,1.499,0.35,1.508,1.166
		c0.009,0.493-0.314,1.131-1.319,1.131c-0.556,0-1.067-0.225-1.292-0.359l-0.215,0.602c0.287,0.188,0.861,0.395,1.517,0.395
		C230.188,112.736,230.923,111.92,230.923,110.986z"/>
	<path fill="#74787B" d="M233.864,106.707c-1.193,0-2.001,0.969-2.001,2.063c0,1.005,0.674,1.795,1.723,1.795
		c0.593,0,1.06-0.233,1.382-0.628h0.027c-0.107,0.69-0.386,1.193-0.771,1.552c-0.332,0.314-0.763,0.503-1.221,0.557
		c-0.269,0.035-0.466,0.045-0.637,0.035v0.646c0.18,0.009,0.439-0.009,0.727-0.045c0.628-0.072,1.247-0.35,1.696-0.78
		c0.574-0.557,1.005-1.454,1.005-2.737C235.793,107.667,235.057,106.707,233.864,106.707z M234.932,109.354
		c-0.216,0.351-0.628,0.61-1.158,0.61c-0.682,0-1.121-0.512-1.121-1.238c0-0.825,0.476-1.417,1.14-1.417h0.009
		c0.825,0,1.202,0.753,1.193,1.758C234.995,109.192,234.967,109.282,234.932,109.354z"/>
	<path fill="#74787B" d="M237.738,108.618l0.503-0.054c0.242-0.413,0.628-1.382,0.834-2.136l-0.808,0.09
		C238.168,107.165,237.926,108.089,237.738,108.618z"/>
	<path fill="#74787B" d="M236.939,106.519c-0.099,0.646-0.332,1.57-0.529,2.1l0.503-0.054c0.242-0.413,0.628-1.382,0.834-2.136
		L236.939,106.519z"/>
	<polygon fill="#74787B" points="243.514,106.492 242.895,106.492 240.401,112.996 241.001,112.996 	"/>
	<polygon fill="#74787B" points="246.322,107.487 246.474,108.089 247.488,107.541 247.505,107.541 247.505,112.638 
		248.268,112.638 248.268,106.806 247.595,106.806 	"/>
	<path fill="#74787B" d="M256.852,112.638v-2.557c0-1.508-0.852-1.885-1.436-1.885c-0.412,0-0.69,0.107-0.95,0.306
		c-0.18,0.134-0.359,0.313-0.494,0.564h-0.018c-0.188-0.511-0.637-0.87-1.221-0.87c-0.727,0-1.13,0.386-1.372,0.799h-0.027
		l-0.036-0.7h-0.69c0.018,0.359,0.036,0.718,0.036,1.176v3.167h0.771v-2.62c0-0.135,0.018-0.269,0.062-0.386
		c0.126-0.395,0.493-0.789,0.979-0.789c0.601,0,0.906,0.493,0.906,1.184v2.611h0.771v-2.691c0-0.135,0.026-0.278,0.062-0.396
		c0.144-0.376,0.484-0.708,0.942-0.708c0.628,0,0.941,0.493,0.941,1.337v2.458H256.852z"/>
	<path fill="#74787B" d="M261.614,112.638v-2.691c0-0.135,0.026-0.278,0.062-0.396c0.144-0.376,0.484-0.708,0.942-0.708
		c0.628,0,0.941,0.493,0.941,1.337v2.458h0.771v-2.557c0-1.508-0.852-1.885-1.436-1.885c-0.412,0-0.69,0.107-0.95,0.306
		c-0.18,0.134-0.359,0.313-0.494,0.564h-0.018c-0.188-0.511-0.637-0.87-1.221-0.87c-0.727,0-1.13,0.386-1.372,0.799h-0.027
		l-0.036-0.7h-0.69c0.018,0.359,0.036,0.718,0.036,1.176v3.167h0.771v-2.62c0-0.135,0.018-0.269,0.062-0.386
		c0.126-0.395,0.493-0.789,0.979-0.789c0.601,0,0.905,0.493,0.905,1.184v2.611H261.614z"/>
	<path fill="#74787B" d="M43.316,158.096h-0.853l-2.602,3.725v0.512h2.709v1.596h0.745v-1.596h0.816v-0.611h-0.816V158.096z
		 M42.572,159.773v1.947h-1.911v-0.018l1.427-1.982c0.161-0.27,0.305-0.521,0.484-0.861h0.027
		C42.581,159.164,42.572,159.469,42.572,159.773z"/>
	<path fill="#74787B" d="M48.339,159.586h-0.861l-0.602,0.924c-0.152,0.232-0.296,0.457-0.439,0.719H46.41
		c-0.144-0.252-0.278-0.467-0.439-0.709l-0.619-0.934h-0.879l1.472,2.127l-1.543,2.215h0.87l0.628-0.977
		c0.161-0.262,0.314-0.494,0.458-0.754h0.018c0.152,0.26,0.296,0.502,0.466,0.754l0.637,0.977h0.897l-1.516-2.242L48.339,159.586z"
		/>
	<path fill="#74787B" d="M54.106,157.854l-0.476-0.322l-0.529,0.727c-0.431-0.314-0.951-0.475-1.507-0.475
		c-1.588,0-2.79,1.246-2.79,3.158c0,0.904,0.296,1.695,0.798,2.242l-0.556,0.781l0.439,0.35l0.565-0.771
		c0.431,0.312,0.96,0.484,1.525,0.484c1.454,0,2.754-1.068,2.754-3.176c0-0.889-0.278-1.678-0.78-2.227L54.106,157.854z
		 M50.042,162.52c-0.269-0.457-0.439-0.951-0.439-1.615c0-1.273,0.664-2.494,1.974-2.494c0.458,0,0.834,0.162,1.14,0.422
		l-2.656,3.678L50.042,162.52z M51.567,163.398c-0.494,0-0.834-0.152-1.13-0.43l2.646-3.662h0.027
		c0.314,0.512,0.421,1.061,0.421,1.57C53.532,162.242,52.824,163.398,51.567,163.398z"/>
	<path fill="#74787B" d="M57.021,157.998c-1.185,0-2.037,1.066-2.037,3.031c0.018,1.93,0.798,2.998,1.938,2.998h0.009
		c1.274,0,2.019-1.096,2.019-3.078C58.949,159.092,58.241,157.998,57.021,157.998z M56.966,163.416h-0.009
		c-0.727,0-1.193-0.914-1.175-2.432c0-1.461,0.466-2.377,1.184-2.377c0.826,0,1.185,0.941,1.185,2.377
		C58.151,162.475,57.765,163.416,56.966,163.416z"/>
	<path fill="#74787B" d="M60.267,162.896c-0.314,0-0.539,0.242-0.539,0.564c0,0.324,0.216,0.566,0.521,0.566h0.009
		c0.323,0,0.538-0.242,0.538-0.566C60.796,163.129,60.581,162.896,60.267,162.896z"/>
	<polygon fill="#74787B" points="62.051,158.777 62.204,159.379 63.218,158.832 63.236,158.832 63.236,163.928 63.998,163.928 
		63.998,158.096 63.325,158.096 	"/>
	<path fill="#74787B" d="M67.235,163.256l0.458-0.432c1.229-1.184,2.01-2.055,2.01-3.131c0-0.834-0.53-1.695-1.777-1.695
		c-0.673,0-1.256,0.26-1.651,0.592l0.251,0.557c0.269-0.225,0.708-0.494,1.238-0.494c0.871,0,1.148,0.547,1.148,1.141
		c0,0.879-0.682,1.633-2.171,3.049l-0.619,0.602v0.484h3.724v-0.654h-2.611V163.256z"/>
	<path fill="#74787B" d="M73.487,160.537c-0.359-0.215-0.798-0.314-1.256-0.314c-0.215,0-0.341,0.018-0.476,0.035l0.224-1.498h2.225
		v-0.664h-2.79l-0.377,2.801c0.215-0.037,0.476-0.064,0.816-0.064c1.157,0,1.669,0.539,1.669,1.283
		c0.009,0.791-0.637,1.275-1.373,1.275c-0.538,0-1.014-0.18-1.256-0.324l-0.197,0.602c0.287,0.18,0.816,0.359,1.453,0.359
		c1.265,0,2.171-0.854,2.171-1.992C74.321,161.299,73.945,160.787,73.487,160.537z"/>
	<path fill="#74787B" d="M75.755,157.809c-0.099,0.646-0.332,1.57-0.529,2.1l0.502-0.053c0.242-0.414,0.628-1.383,0.834-2.137
		L75.755,157.809z"/>
	<path fill="#74787B" d="M76.554,159.908l0.502-0.053c0.242-0.414,0.628-1.383,0.834-2.137l-0.808,0.09
		C76.984,158.455,76.742,159.379,76.554,159.908z"/>
	<polygon fill="#74787B" points="79.217,164.287 79.818,164.287 82.33,157.783 81.711,157.783 	"/>
	<path fill="#74787B" d="M86.922,160.787v-0.018c0.708-0.26,1.077-0.771,1.077-1.381c0-0.709-0.521-1.391-1.669-1.391
		c-0.628,0-1.22,0.225-1.534,0.447l0.215,0.574c0.251-0.178,0.7-0.385,1.167-0.385c0.727,0,1.022,0.412,1.022,0.879
		c0,0.691-0.727,0.986-1.301,0.986h-0.439v0.594h0.439c0.763,0,1.498,0.35,1.507,1.166c0.009,0.492-0.314,1.131-1.319,1.131
		c-0.557,0-1.068-0.225-1.292-0.359l-0.215,0.602c0.287,0.188,0.861,0.395,1.516,0.395c1.391,0,2.126-0.816,2.126-1.75
		C88.223,161.461,87.64,160.922,86.922,160.787z"/>
	<path fill="#74787B" d="M89.809,162.896c-0.314,0-0.538,0.242-0.538,0.564c0,0.324,0.215,0.566,0.52,0.566H89.8
		c0.323,0,0.538-0.242,0.538-0.566C90.338,163.129,90.123,162.896,89.809,162.896z"/>
	<path fill="#74787B" d="M92.177,163.256l0.458-0.432c1.229-1.184,2.01-2.055,2.01-3.131c0-0.834-0.529-1.695-1.776-1.695
		c-0.673,0-1.256,0.26-1.651,0.592l0.251,0.557c0.269-0.225,0.708-0.494,1.238-0.494c0.87,0,1.148,0.547,1.148,1.141
		c0,0.879-0.682,1.633-2.171,3.049l-0.619,0.602v0.484h3.723v-0.654h-2.611V163.256z"/>
	<path fill="#74787B" d="M100.69,159.486c-0.413,0-0.691,0.107-0.951,0.307c-0.179,0.133-0.359,0.312-0.493,0.564h-0.018
		c-0.188-0.512-0.637-0.871-1.22-0.871c-0.727,0-1.131,0.387-1.373,0.799h-0.027l-0.036-0.699h-0.691
		c0.018,0.359,0.036,0.717,0.036,1.176v3.166h0.772v-2.619c0-0.135,0.018-0.27,0.062-0.387c0.125-0.395,0.494-0.789,0.978-0.789
		c0.601,0,0.906,0.494,0.906,1.184v2.611h0.771v-2.691c0-0.135,0.027-0.277,0.063-0.395c0.144-0.377,0.484-0.709,0.942-0.709
		c0.628,0,0.942,0.494,0.942,1.338v2.457h0.771v-2.557C102.125,159.863,101.273,159.486,100.69,159.486z"/>
	<path fill="#74787B" d="M108.17,159.486c-0.413,0-0.691,0.107-0.951,0.307c-0.179,0.133-0.359,0.312-0.494,0.564h-0.018
		c-0.188-0.512-0.637-0.871-1.22-0.871c-0.727,0-1.13,0.387-1.373,0.799h-0.027l-0.036-0.699h-0.691
		c0.018,0.359,0.036,0.717,0.036,1.176v3.166h0.772v-2.619c0-0.135,0.018-0.27,0.062-0.387c0.126-0.395,0.494-0.789,0.978-0.789
		c0.601,0,0.906,0.494,0.906,1.184v2.611h0.771v-2.691c0-0.135,0.027-0.277,0.063-0.395c0.144-0.377,0.484-0.709,0.942-0.709
		c0.628,0,0.942,0.494,0.942,1.338v2.457h0.771v-2.557C109.605,159.863,108.753,159.486,108.17,159.486z"/>
	<path fill="#74787B" d="M3.516,197.055H2.664l-2.602,3.724v0.512h2.71v1.597h0.744v-1.597h0.816v-0.61H3.516V197.055z
		 M2.772,198.732v1.947H0.861v-0.018l1.427-1.983c0.161-0.27,0.305-0.521,0.484-0.861h0.026
		C2.781,198.122,2.772,198.428,2.772,198.732z"/>
	<path fill="#74787B" d="M8.54,198.544H7.678l-0.602,0.925c-0.152,0.232-0.296,0.457-0.439,0.718H6.61
		c-0.144-0.252-0.278-0.467-0.439-0.709l-0.619-0.934H4.672l1.471,2.127L4.6,202.887h0.87l0.629-0.978
		c0.161-0.261,0.313-0.494,0.457-0.754h0.018c0.153,0.26,0.297,0.502,0.467,0.754l0.638,0.978h0.896l-1.516-2.243L8.54,198.544z"/>
	<path fill="#74787B" d="M11.587,201.854c-0.314,0-0.539,0.243-0.539,0.565c0,0.323,0.216,0.565,0.521,0.565h0.01
		c0.322,0,0.538-0.242,0.538-0.565C12.117,202.088,11.901,201.854,11.587,201.854z"/>
	<polygon fill="#74787B" points="13.372,197.736 13.524,198.338 14.539,197.791 14.556,197.791 14.556,202.887 15.319,202.887 
		15.319,197.055 14.646,197.055 	"/>
	<path fill="#74787B" d="M20.207,199.495c-0.358-0.215-0.798-0.313-1.256-0.313c-0.215,0-0.341,0.018-0.476,0.035l0.225-1.498h2.225
		v-0.664h-2.79l-0.377,2.8c0.216-0.036,0.476-0.063,0.816-0.063c1.157,0,1.669,0.539,1.669,1.283
		c0.009,0.79-0.637,1.274-1.373,1.274c-0.538,0-1.014-0.18-1.256-0.323l-0.197,0.602c0.287,0.179,0.816,0.358,1.453,0.358
		c1.266,0,2.172-0.853,2.172-1.992C21.042,200.258,20.665,199.746,20.207,199.495z"/>
	<path fill="#74787B" d="M22.475,196.768c-0.099,0.646-0.332,1.57-0.529,2.1l0.503-0.054c0.242-0.413,0.628-1.382,0.834-2.136
		L22.475,196.768z"/>
	<path fill="#74787B" d="M23.274,198.867l0.502-0.054c0.242-0.413,0.628-1.382,0.835-2.136l-0.808,0.09
		C23.705,197.414,23.462,198.338,23.274,198.867z"/>
	<polygon fill="#74787B" points="25.937,203.246 26.538,203.246 29.05,196.741 28.431,196.741 	"/>
	<path fill="#74787B" d="M33.642,199.746v-0.018c0.708-0.26,1.076-0.771,1.076-1.382c0-0.709-0.521-1.391-1.669-1.391
		c-0.628,0-1.22,0.225-1.534,0.448l0.216,0.574c0.251-0.179,0.699-0.386,1.166-0.386c0.727,0,1.022,0.413,1.022,0.88
		c0,0.69-0.727,0.986-1.301,0.986h-0.439v0.593h0.439c0.763,0,1.498,0.35,1.508,1.166c0.009,0.493-0.314,1.131-1.319,1.131
		c-0.557,0-1.067-0.225-1.292-0.359l-0.215,0.602c0.287,0.188,0.861,0.395,1.516,0.395c1.391,0,2.127-0.816,2.127-1.749
		C34.943,200.419,34.36,199.881,33.642,199.746z"/>
	<path fill="#74787B" d="M36.529,201.854c-0.313,0-0.538,0.243-0.538,0.565c0,0.323,0.215,0.565,0.521,0.565h0.009
		c0.323,0,0.538-0.242,0.538-0.565C37.058,202.088,36.843,201.854,36.529,201.854z"/>
	<path fill="#74787B" d="M40.476,199.782v-0.026c0.718-0.332,0.969-0.871,0.969-1.364c0-0.735-0.574-1.436-1.704-1.436h-0.01
		c-1.022,0-1.803,0.628-1.803,1.552c0,0.503,0.277,1.006,0.933,1.311v0.026c-0.709,0.306-1.148,0.835-1.148,1.57
		c0,0.853,0.736,1.57,1.956,1.57c1.112,0,1.982-0.673,1.982-1.695C41.651,200.59,41.203,200.069,40.476,199.782z M38.681,198.454
		c0-0.502,0.359-0.933,1.015-0.933h0.009c0.699,0,0.978,0.484,0.978,0.951c0,0.529-0.386,0.888-0.888,1.059
		C39.122,199.352,38.672,199.038,38.681,198.454z M39.686,202.411h-0.009c-0.735,0-1.185-0.521-1.157-1.104
		c0-0.557,0.368-1.014,1.05-1.211c0.789,0.224,1.283,0.574,1.283,1.273C40.853,201.972,40.395,202.411,39.686,202.411z"/>
	<polygon fill="#74787B" points="42.915,197.736 43.067,198.338 44.081,197.791 44.098,197.791 44.098,202.887 44.861,202.887 
		44.861,197.055 44.188,197.055 	"/>
	<path fill="#74787B" d="M52.01,198.445c-0.412,0-0.69,0.107-0.951,0.306c-0.179,0.134-0.358,0.313-0.493,0.564h-0.018
		c-0.188-0.511-0.638-0.87-1.221-0.87c-0.727,0-1.131,0.386-1.373,0.799h-0.026l-0.036-0.7h-0.69
		c0.018,0.359,0.035,0.718,0.035,1.176v3.167h0.772v-2.62c0-0.135,0.018-0.269,0.062-0.386c0.125-0.395,0.493-0.789,0.978-0.789
		c0.602,0,0.906,0.493,0.906,1.184v2.611h0.771v-2.691c0-0.135,0.027-0.278,0.063-0.395c0.144-0.377,0.484-0.709,0.941-0.709
		c0.628,0,0.942,0.493,0.942,1.337v2.458h0.771v-2.557C53.446,198.822,52.593,198.445,52.01,198.445z"/>
	<path fill="#74787B" d="M59.491,198.445c-0.413,0-0.691,0.107-0.951,0.306c-0.18,0.134-0.359,0.313-0.494,0.564h-0.018
		c-0.188-0.511-0.637-0.87-1.22-0.87c-0.728,0-1.131,0.386-1.373,0.799h-0.027l-0.035-0.7h-0.691
		c0.019,0.359,0.036,0.718,0.036,1.176v3.167h0.771v-2.62c0-0.135,0.018-0.269,0.062-0.386c0.126-0.395,0.494-0.789,0.979-0.789
		c0.601,0,0.906,0.493,0.906,1.184v2.611h0.771v-2.691c0-0.135,0.026-0.278,0.062-0.395c0.144-0.377,0.484-0.709,0.942-0.709
		c0.628,0,0.942,0.493,0.942,1.337v2.458h0.771v-2.557C60.926,198.822,60.074,198.445,59.491,198.445z"/>
	<path fill="#74787B" d="M231.929,136.822c-1.184,0-2.036,1.067-2.036,3.032c0.018,1.93,0.798,2.997,1.938,2.997h0.009
		c1.274,0,2.02-1.095,2.02-3.077C233.859,137.917,233.15,136.822,231.929,136.822z M231.875,142.241h-0.009
		c-0.727,0-1.193-0.915-1.176-2.431c0-1.463,0.467-2.378,1.185-2.378c0.825,0,1.185,0.942,1.185,2.378
		C233.06,141.3,232.674,142.241,231.875,142.241z"/>
	<path fill="#74787B" d="M235.175,141.721c-0.314,0-0.538,0.242-0.538,0.565s0.215,0.565,0.521,0.565h0.009
		c0.323,0,0.538-0.242,0.538-0.565C235.705,141.954,235.49,141.721,235.175,141.721z"/>
	<polygon fill="#74787B" points="236.96,137.603 237.113,138.204 238.126,137.656 238.144,137.656 238.144,142.753 238.907,142.753 
		238.907,136.921 238.234,136.921 	"/>
	<path fill="#74787B" d="M241.462,136.634c-0.099,0.646-0.332,1.57-0.529,2.1l0.503-0.054c0.242-0.413,0.628-1.382,0.834-2.136
		L241.462,136.634z"/>
	<path fill="#74787B" d="M242.261,138.733l0.503-0.054c0.242-0.413,0.628-1.382,0.834-2.136l-0.808,0.09
		C242.692,137.28,242.45,138.204,242.261,138.733z"/>
	<polygon fill="#74787B" points="244.924,143.111 245.525,143.111 248.038,136.607 247.418,136.607 	"/>
	<path fill="#74787B" d="M251.427,142.08l0.457-0.431c1.229-1.185,2.01-2.055,2.01-3.132c0-0.834-0.529-1.695-1.776-1.695
		c-0.673,0-1.256,0.26-1.65,0.592l0.251,0.557c0.27-0.225,0.709-0.493,1.238-0.493c0.87,0,1.148,0.547,1.148,1.14
		c0,0.879-0.682,1.633-2.172,3.05l-0.619,0.602v0.484h3.724v-0.655h-2.61V142.08z"/>
	<path fill="#74787B" d="M255.516,141.721c-0.314,0-0.538,0.242-0.538,0.565s0.215,0.565,0.521,0.565h0.009
		c0.323,0,0.538-0.242,0.538-0.565C256.045,141.954,255.831,141.721,255.516,141.721z"/>
	<path fill="#74787B" d="M259.535,139.361c-0.358-0.215-0.799-0.313-1.256-0.313c-0.216,0-0.341,0.018-0.476,0.035l0.225-1.498
		h2.225v-0.664h-2.79l-0.377,2.8c0.215-0.036,0.476-0.063,0.816-0.063c1.157,0,1.669,0.539,1.669,1.283
		c0.009,0.79-0.637,1.274-1.373,1.274c-0.538,0-1.014-0.18-1.256-0.323l-0.197,0.602c0.287,0.179,0.816,0.358,1.453,0.358
		c1.266,0,2.172-0.853,2.172-1.992C260.37,140.124,259.993,139.612,259.535,139.361z"/>
	<path fill="#74787B" d="M264.558,136.921h-0.853l-2.602,3.724v0.512h2.709v1.597h0.745v-1.597h0.816v-0.61h-0.816V136.921z
		 M263.813,138.599v1.947h-1.911v-0.019l1.427-1.982c0.162-0.27,0.306-0.521,0.484-0.861h0.027
		C263.823,137.988,263.813,138.294,263.813,138.599z"/>
	<path fill="#74787B" d="M270.998,138.312c-0.412,0-0.69,0.107-0.95,0.306c-0.18,0.134-0.359,0.313-0.494,0.564h-0.018
		c-0.188-0.511-0.637-0.87-1.221-0.87c-0.727,0-1.13,0.386-1.372,0.799h-0.027l-0.036-0.7h-0.69
		c0.018,0.359,0.036,0.718,0.036,1.176v3.167h0.771v-2.62c0-0.135,0.018-0.269,0.062-0.386c0.126-0.395,0.493-0.789,0.979-0.789
		c0.601,0,0.905,0.493,0.905,1.184v2.611h0.772v-2.691c0-0.135,0.026-0.278,0.062-0.396c0.144-0.376,0.484-0.708,0.942-0.708
		c0.628,0,0.941,0.493,0.941,1.337v2.458h0.771v-2.557C272.433,138.688,271.582,138.312,270.998,138.312z"/>
	<path fill="#74787B" d="M278.478,138.312c-0.412,0-0.69,0.107-0.95,0.306c-0.18,0.134-0.359,0.313-0.494,0.564h-0.018
		c-0.188-0.511-0.637-0.87-1.221-0.87c-0.727,0-1.13,0.386-1.372,0.799h-0.027l-0.036-0.7h-0.69
		c0.018,0.359,0.036,0.718,0.036,1.176v3.167h0.771v-2.62c0-0.135,0.018-0.269,0.062-0.386c0.126-0.395,0.493-0.789,0.979-0.789
		c0.601,0,0.905,0.493,0.905,1.184v2.611h0.772v-2.691c0-0.135,0.026-0.278,0.062-0.396c0.144-0.376,0.484-0.708,0.942-0.708
		c0.628,0,0.941,0.493,0.941,1.337v2.458h0.771v-2.557C279.914,138.688,279.062,138.312,278.478,138.312z"/>
	<path fill="#74787B" d="M210.239,181.651h-0.853l-2.602,3.724v0.512h2.709v1.597h0.745v-1.597h0.816v-0.61h-0.816V181.651z
		 M209.494,183.329v1.947h-1.91v-0.019l1.426-1.982c0.162-0.27,0.306-0.521,0.484-0.861h0.027
		C209.503,182.719,209.494,183.024,209.494,183.329z"/>
	<path fill="#74787B" d="M215.261,183.141H214.4l-0.602,0.925c-0.152,0.232-0.296,0.457-0.439,0.718h-0.027
		c-0.143-0.252-0.277-0.467-0.439-0.709l-0.619-0.934h-0.879l1.472,2.127l-1.544,2.216h0.871l0.628-0.978
		c0.161-0.261,0.313-0.494,0.457-0.754h0.019c0.152,0.26,0.296,0.502,0.467,0.754l0.637,0.978h0.897l-1.517-2.243L215.261,183.141z"
		/>
	<path fill="#74787B" d="M220.58,184.604v-0.027c0.629-0.215,1.14-0.744,1.14-1.534c0-0.476-0.179-0.888-0.476-1.148
		c-0.377-0.341-0.924-0.502-1.758-0.502c-0.529,0-1.104,0.054-1.499,0.134v5.958h0.781v-2.62h0.735
		c0.709,0.027,1.041,0.341,1.22,1.176c0.162,0.754,0.297,1.265,0.396,1.444h0.808c-0.117-0.233-0.261-0.816-0.458-1.66
		C221.316,185.195,221.038,184.765,220.58,184.604z M219.566,184.271h-0.798v-2.198c0.134-0.036,0.395-0.072,0.771-0.072
		c0.825,0,1.391,0.342,1.391,1.122C220.93,183.813,220.401,184.271,219.566,184.271z"/>
	<path fill="#74787B" d="M224.49,181.553c-1.184,0-2.036,1.067-2.036,3.032c0.018,1.93,0.798,2.997,1.938,2.997h0.009
		c1.274,0,2.02-1.095,2.02-3.077C226.419,182.647,225.71,181.553,224.49,181.553z M224.436,186.972h-0.009
		c-0.727,0-1.193-0.915-1.176-2.431c0-1.463,0.467-2.378,1.185-2.378c0.825,0,1.185,0.942,1.185,2.378
		C225.621,186.03,225.235,186.972,224.436,186.972z"/>
	<path fill="#74787B" d="M227.736,186.451c-0.314,0-0.538,0.242-0.538,0.565s0.215,0.565,0.521,0.565h0.009
		c0.323,0,0.538-0.242,0.538-0.565C228.265,186.685,228.05,186.451,227.736,186.451z"/>
	<polygon fill="#74787B" points="229.521,182.333 229.673,182.935 230.687,182.387 230.705,182.387 230.705,187.483 
		231.467,187.483 231.467,181.651 230.794,181.651 	"/>
	<path fill="#74787B" d="M234.705,186.811l0.457-0.431c1.229-1.185,2.01-2.055,2.01-3.132c0-0.834-0.529-1.695-1.776-1.695
		c-0.673,0-1.256,0.26-1.65,0.592l0.251,0.557c0.27-0.225,0.709-0.493,1.238-0.493c0.87,0,1.148,0.547,1.148,1.14
		c0,0.879-0.682,1.633-2.172,3.05l-0.619,0.602v0.484h3.724v-0.655h-2.61V186.811z"/>
	<path fill="#74787B" d="M240.957,184.092c-0.358-0.215-0.799-0.313-1.256-0.313c-0.216,0-0.341,0.018-0.476,0.035l0.225-1.498
		h2.225v-0.664h-2.79l-0.377,2.8c0.215-0.036,0.476-0.063,0.816-0.063c1.157,0,1.669,0.539,1.669,1.283
		c0.009,0.79-0.637,1.274-1.373,1.274c-0.538,0-1.014-0.18-1.256-0.323l-0.197,0.602c0.287,0.179,0.816,0.358,1.453,0.358
		c1.266,0,2.172-0.853,2.172-1.992C241.792,184.854,241.415,184.343,240.957,184.092z"/>
	<path fill="#74787B" d="M243.224,181.364c-0.099,0.646-0.332,1.57-0.529,2.1l0.503-0.054c0.242-0.413,0.628-1.382,0.834-2.136
		L243.224,181.364z"/>
	<path fill="#74787B" d="M244.023,183.464l0.503-0.054c0.242-0.413,0.628-1.382,0.834-2.136l-0.808,0.09
		C244.454,182.011,244.211,182.935,244.023,183.464z"/>
	<polygon fill="#74787B" points="246.686,187.842 247.287,187.842 249.799,181.338 249.18,181.338 	"/>
	<path fill="#74787B" d="M254.391,184.343v-0.018c0.709-0.26,1.076-0.771,1.076-1.382c0-0.709-0.521-1.391-1.669-1.391
		c-0.628,0-1.22,0.225-1.534,0.448l0.216,0.574c0.251-0.179,0.699-0.386,1.166-0.386c0.727,0,1.023,0.413,1.023,0.88
		c0,0.69-0.728,0.986-1.302,0.986h-0.439v0.593h0.439c0.763,0,1.499,0.35,1.508,1.166c0.009,0.493-0.314,1.131-1.319,1.131
		c-0.556,0-1.067-0.225-1.292-0.359l-0.215,0.602c0.287,0.188,0.861,0.395,1.517,0.395c1.391,0,2.126-0.816,2.126-1.75
		C255.692,185.016,255.109,184.478,254.391,184.343z"/>
	<path fill="#74787B" d="M257.279,186.451c-0.314,0-0.538,0.242-0.538,0.565s0.215,0.565,0.521,0.565h0.009
		c0.323,0,0.538-0.242,0.538-0.565C257.808,186.685,257.593,186.451,257.279,186.451z"/>
	<path fill="#74787B" d="M259.647,186.811l0.457-0.431c1.229-1.185,2.01-2.055,2.01-3.132c0-0.834-0.529-1.695-1.776-1.695
		c-0.673,0-1.256,0.26-1.65,0.592l0.251,0.557c0.269-0.225,0.709-0.493,1.238-0.493c0.87,0,1.148,0.547,1.148,1.14
		c0,0.879-0.683,1.633-2.172,3.05l-0.619,0.602v0.484h3.724v-0.655h-2.61V186.811z"/>
	<path fill="#74787B" d="M268.159,183.042c-0.412,0-0.69,0.107-0.95,0.306c-0.18,0.134-0.359,0.313-0.494,0.564h-0.018
		c-0.188-0.511-0.637-0.87-1.221-0.87c-0.727,0-1.13,0.386-1.372,0.799h-0.027l-0.036-0.7h-0.69
		c0.018,0.359,0.036,0.718,0.036,1.176v3.167h0.771v-2.62c0-0.135,0.018-0.269,0.062-0.386c0.126-0.395,0.493-0.789,0.979-0.789
		c0.601,0,0.906,0.493,0.906,1.184v2.611h0.771v-2.691c0-0.135,0.026-0.278,0.062-0.396c0.144-0.376,0.484-0.708,0.942-0.708
		c0.628,0,0.941,0.493,0.941,1.337v2.458h0.771v-2.557C269.594,183.419,268.743,183.042,268.159,183.042z"/>
	<path fill="#74787B" d="M275.639,183.042c-0.412,0-0.69,0.107-0.95,0.306c-0.18,0.134-0.359,0.313-0.494,0.564h-0.018
		c-0.188-0.511-0.637-0.87-1.221-0.87c-0.727,0-1.13,0.386-1.372,0.799h-0.027l-0.036-0.7h-0.69
		c0.018,0.359,0.036,0.718,0.036,1.176v3.167h0.771v-2.62c0-0.135,0.018-0.269,0.062-0.386c0.126-0.395,0.493-0.789,0.979-0.789
		c0.601,0,0.906,0.493,0.906,1.184v2.611h0.771v-2.691c0-0.135,0.026-0.278,0.062-0.396c0.144-0.376,0.484-0.708,0.942-0.708
		c0.628,0,0.941,0.493,0.941,1.337v2.458h0.771v-2.557C277.075,183.419,276.223,183.042,275.639,183.042z"/>
	<path fill="#74787B" d="M127.463,3.576c0-0.816-0.583-1.355-1.301-1.489V2.069c0.708-0.26,1.077-0.771,1.077-1.382
		c0-0.708-0.521-1.391-1.669-1.391c-0.628,0-1.22,0.224-1.534,0.449l0.215,0.574c0.251-0.18,0.7-0.386,1.166-0.386
		c0.727,0,1.023,0.413,1.023,0.879c0,0.691-0.727,0.987-1.301,0.987h-0.44v0.592h0.44c0.763,0,1.499,0.35,1.507,1.167
		c0.009,0.494-0.314,1.13-1.319,1.13c-0.556,0-1.068-0.224-1.292-0.358l-0.215,0.601c0.287,0.188,0.861,0.395,1.516,0.395
		C126.728,5.326,127.463,4.509,127.463,3.576z"/>
	<path fill="#74787B" d="M129.032,5.326h0.009c0.323,0,0.538-0.242,0.538-0.565c0-0.332-0.215-0.565-0.529-0.565
		s-0.539,0.242-0.539,0.565C128.511,5.083,128.727,5.326,129.032,5.326z"/>
	<path fill="#74787B" d="M132.163,5.326h0.009c1.274,0,2.019-1.095,2.019-3.078c0-1.857-0.708-2.952-1.929-2.952
		c-1.185,0-2.037,1.068-2.037,3.033C130.242,4.258,131.023,5.326,132.163,5.326z M132.207-0.093c0.826,0,1.185,0.942,1.185,2.377
		c0,1.489-0.386,2.432-1.185,2.432h-0.009c-0.727,0-1.193-0.916-1.175-2.432C131.023,0.822,131.489-0.093,132.207-0.093z"/>
	<path fill="#74787B" d="M136.637,1.154c0.242-0.413,0.628-1.382,0.834-2.135l-0.808,0.089c-0.099,0.646-0.341,1.57-0.529,2.1
		L136.637,1.154z"/>
	<path fill="#74787B" d="M136.144-0.981l-0.808,0.089c-0.099,0.646-0.332,1.57-0.529,2.1l0.502-0.054
		C135.552,0.741,135.938-0.228,136.144-0.981z"/>
	<polygon fill="#74787B" points="141.912,-0.919 141.292,-0.919 138.798,5.586 139.399,5.586 	"/>
	<polygon fill="#74787B" points="147.149,0.068 144.628,5.227 145.436,5.227 147.975,-0.084 147.975,-0.605 144.296,-0.605 
		144.296,0.05 147.149,0.05 	"/>
	<path fill="#74787B" d="M150.746,5.326c1.22,0,1.947-0.987,1.947-2.063c0-1.13-0.727-1.884-1.758-1.884
		c-0.646,0-1.14,0.305-1.418,0.682h-0.018c0.134-0.969,0.78-1.866,2.027-2.064c0.225-0.036,0.431-0.054,0.592-0.045v-0.646
		c-0.144,0-0.341,0.009-0.574,0.044c-0.736,0.09-1.382,0.386-1.866,0.861c-0.583,0.574-0.987,1.48-0.987,2.629
		C148.691,4.357,149.507,5.326,150.746,5.326z M149.552,2.697c0.215-0.431,0.664-0.718,1.139-0.718c0.727,0,1.203,0.502,1.203,1.337
		s-0.458,1.4-1.131,1.4h-0.009c-0.825,0-1.274-0.718-1.283-1.678C149.471,2.895,149.507,2.787,149.552,2.697z"/>
	<path fill="#74787B" d="M153.973,5.326h0.009c0.323,0,0.539-0.242,0.539-0.565c0-0.332-0.216-0.565-0.53-0.565
		s-0.539,0.242-0.539,0.565C153.453,5.083,153.668,5.326,153.973,5.326z"/>
	<path fill="#74787B" d="M158.97,4.572h-2.611V4.554l0.458-0.431c1.229-1.185,2.01-2.055,2.01-3.131
		c0-0.834-0.529-1.696-1.776-1.696c-0.673,0-1.257,0.26-1.651,0.592l0.251,0.556c0.27-0.224,0.709-0.494,1.238-0.494
		c0.87,0,1.148,0.547,1.148,1.14c0,0.879-0.682,1.633-2.171,3.051l-0.619,0.601v0.484h3.724V4.572z"/>
	<path fill="#74787B" d="M160.099,5.227h0.771v-2.62c0-0.135,0.018-0.27,0.062-0.386c0.126-0.395,0.493-0.79,0.979-0.79
		c0.601,0,0.906,0.494,0.906,1.185v2.611h0.771V2.535c0-0.134,0.026-0.278,0.062-0.395c0.144-0.377,0.484-0.709,0.942-0.709
		c0.628,0,0.941,0.494,0.941,1.337v2.458h0.771V2.67c0-1.507-0.852-1.884-1.436-1.884c-0.412,0-0.69,0.108-0.95,0.305
		c-0.18,0.135-0.359,0.314-0.494,0.565h-0.018c-0.188-0.512-0.637-0.871-1.221-0.871c-0.727,0-1.13,0.386-1.372,0.799h-0.027
		l-0.036-0.7h-0.69c0.018,0.358,0.036,0.718,0.036,1.175V5.227z"/>
	<path fill="#74787B" d="M167.58,5.227h0.771v-2.62c0-0.135,0.018-0.27,0.062-0.386c0.126-0.395,0.493-0.79,0.979-0.79
		c0.601,0,0.906,0.494,0.906,1.185v2.611h0.771V2.535c0-0.134,0.026-0.278,0.062-0.395c0.144-0.377,0.484-0.709,0.942-0.709
		c0.628,0,0.941,0.494,0.941,1.337v2.458h0.771V2.67c0-1.507-0.852-1.884-1.436-1.884c-0.412,0-0.69,0.108-0.95,0.305
		c-0.18,0.135-0.359,0.314-0.494,0.565h-0.018c-0.188-0.512-0.637-0.871-1.221-0.871c-0.727,0-1.13,0.386-1.372,0.799h-0.027
		l-0.036-0.7h-0.69c0.018,0.358,0.036,0.718,0.036,1.175V5.227z"/>
	<path fill="#74787B" d="M328.97,136.822c-1.184,0-2.036,1.067-2.036,3.032c0.018,1.93,0.798,2.997,1.938,2.997h0.009
		c1.274,0,2.02-1.095,2.02-3.077C330.9,137.917,330.191,136.822,328.97,136.822z M328.917,142.241h-0.009
		c-0.727,0-1.193-0.915-1.176-2.431c0-1.463,0.467-2.378,1.185-2.378c0.825,0,1.185,0.942,1.185,2.378
		C330.101,141.3,329.715,142.241,328.917,142.241z"/>
	<path fill="#74787B" d="M332.216,141.721c-0.314,0-0.538,0.242-0.538,0.565s0.215,0.565,0.521,0.565h0.009
		c0.323,0,0.538-0.242,0.538-0.565C332.746,141.954,332.531,141.721,332.216,141.721z"/>
	<path fill="#74787B" d="M334.584,142.08l0.457-0.431c1.229-1.185,2.01-2.055,2.01-3.132c0-0.834-0.529-1.695-1.776-1.695
		c-0.673,0-1.256,0.26-1.65,0.592l0.251,0.557c0.269-0.225,0.709-0.493,1.238-0.493c0.87,0,1.148,0.547,1.148,1.14
		c0,0.879-0.683,1.633-2.172,3.05l-0.619,0.602v0.484h3.724v-0.655h-2.61V142.08z"/>
	<path fill="#74787B" d="M339.302,138.733l0.503-0.054c0.242-0.413,0.628-1.382,0.834-2.136l-0.808,0.09
		C339.733,137.28,339.491,138.204,339.302,138.733z"/>
	<path fill="#74787B" d="M338.503,136.634c-0.099,0.646-0.332,1.57-0.529,2.1l0.503-0.054c0.242-0.413,0.628-1.382,0.834-2.136
		L338.503,136.634z"/>
	<polygon fill="#74787B" points="341.965,143.111 342.566,143.111 345.079,136.607 344.459,136.607 	"/>
	<path fill="#74787B" d="M350.119,139.361c-0.358-0.215-0.799-0.313-1.256-0.313c-0.216,0-0.341,0.018-0.476,0.035l0.225-1.498
		h2.225v-0.664h-2.79l-0.377,2.8c0.215-0.036,0.476-0.063,0.816-0.063c1.157,0,1.669,0.539,1.669,1.283
		c0.009,0.79-0.637,1.274-1.373,1.274c-0.538,0-1.014-0.18-1.256-0.323l-0.197,0.602c0.287,0.179,0.816,0.358,1.453,0.358
		c1.266,0,2.172-0.853,2.172-1.992C350.954,140.124,350.577,139.612,350.119,139.361z"/>
	<path fill="#74787B" d="M352.557,141.721c-0.314,0-0.538,0.242-0.538,0.565s0.215,0.565,0.521,0.565h0.009
		c0.323,0,0.538-0.242,0.538-0.565C353.086,141.954,352.872,141.721,352.557,141.721z"/>
	<path fill="#74787B" d="M355.768,136.822c-1.184,0-2.036,1.067-2.036,3.032c0.018,1.93,0.798,2.997,1.938,2.997h0.009
		c1.274,0,2.02-1.095,2.02-3.077C357.698,137.917,356.989,136.822,355.768,136.822z M355.714,142.241h-0.009
		c-0.727,0-1.193-0.915-1.176-2.431c0-1.463,0.467-2.378,1.185-2.378c0.825,0,1.185,0.942,1.185,2.378
		C356.899,141.3,356.513,142.241,355.714,142.241z"/>
	<path fill="#74787B" d="M361.106,139.648v-0.026c0.718-0.332,0.969-0.871,0.969-1.364c0-0.735-0.574-1.436-1.705-1.436h-0.009
		c-1.022,0-1.804,0.628-1.804,1.553c0,0.502,0.278,1.004,0.934,1.31v0.026c-0.709,0.306-1.148,0.835-1.148,1.57
		c0,0.853,0.735,1.57,1.956,1.57c1.112,0,1.982-0.673,1.982-1.695C362.281,140.456,361.833,139.936,361.106,139.648z
		 M359.311,138.32c0-0.502,0.359-0.933,1.014-0.933h0.01c0.699,0,0.978,0.484,0.978,0.951c0,0.529-0.386,0.888-0.889,1.059
		C359.75,139.218,359.302,138.904,359.311,138.32z M360.316,142.277h-0.009c-0.735,0-1.185-0.521-1.157-1.104
		c0-0.557,0.367-1.014,1.05-1.211c0.789,0.224,1.283,0.574,1.283,1.273C361.483,141.838,361.025,142.277,360.316,142.277z"/>
	<path fill="#74787B" d="M368.039,138.312c-0.412,0-0.69,0.107-0.95,0.306c-0.18,0.134-0.359,0.313-0.494,0.564h-0.018
		c-0.188-0.511-0.637-0.87-1.221-0.87c-0.727,0-1.13,0.386-1.372,0.799h-0.027l-0.036-0.7h-0.69
		c0.018,0.359,0.036,0.718,0.036,1.176v3.167h0.771v-2.62c0-0.135,0.018-0.269,0.062-0.386c0.126-0.395,0.493-0.789,0.979-0.789
		c0.601,0,0.905,0.493,0.905,1.184v2.611h0.772v-2.691c0-0.135,0.026-0.278,0.062-0.396c0.144-0.376,0.484-0.708,0.942-0.708
		c0.628,0,0.941,0.493,0.941,1.337v2.458h0.771v-2.557C369.474,138.688,368.623,138.312,368.039,138.312z"/>
	<path fill="#74787B" d="M375.519,138.312c-0.412,0-0.69,0.107-0.95,0.306c-0.18,0.134-0.359,0.313-0.494,0.564h-0.018
		c-0.188-0.511-0.637-0.87-1.221-0.87c-0.727,0-1.13,0.386-1.372,0.799h-0.027l-0.036-0.7h-0.69
		c0.018,0.359,0.036,0.718,0.036,1.176v3.167h0.771v-2.62c0-0.135,0.018-0.269,0.062-0.386c0.126-0.395,0.493-0.789,0.979-0.789
		c0.601,0,0.905,0.493,0.905,1.184v2.611h0.772v-2.691c0-0.135,0.026-0.278,0.062-0.396c0.144-0.376,0.484-0.708,0.942-0.708
		c0.628,0,0.941,0.493,0.941,1.337v2.458h0.771v-2.557C376.955,138.688,376.103,138.312,375.519,138.312z"/>
	<path fill="#74787B" d="M333.068,14.739c1.93-0.018,2.997-0.798,2.997-1.938v-0.009c0-1.274-1.095-2.019-3.077-2.019
		c-1.857,0-2.952,0.708-2.952,1.929C330.036,13.887,331.103,14.739,333.068,14.739z M333.023,11.572c1.49,0,2.432,0.386,2.432,1.185
		v0.009c0,0.727-0.915,1.193-2.432,1.175c-1.462,0-2.377-0.466-2.377-1.184C330.646,11.931,331.587,11.572,333.023,11.572z"/>
	<path fill="#74787B" d="M336.065,9.465c0-0.323-0.242-0.538-0.565-0.538c-0.332,0-0.565,0.215-0.565,0.529s0.243,0.539,0.565,0.539
		c0.323,0,0.565-0.216,0.565-0.521V9.465z"/>
	<path fill="#74787B" d="M333.759,4.199v0.816h-3.625v0.853l3.724,2.602h0.512V5.76h1.597V5.016h-1.597V4.199H333.759z
		 M333.759,7.671h-0.018l-1.983-1.427c-0.27-0.161-0.521-0.305-0.861-0.484V5.733c0.305,0.018,0.61,0.027,0.915,0.027h1.947V7.671z"
		/>
	<path fill="#74787B" d="M331.947,2.371l-0.054-0.502c-0.413-0.242-1.382-0.628-2.136-0.834l0.09,0.808
		C330.494,1.94,331.417,2.183,331.947,2.371z"/>
	<path fill="#74787B" d="M331.947,3.699l-0.054-0.502c-0.413-0.242-1.382-0.628-2.136-0.834l0.09,0.808
		C330.494,3.268,331.417,3.501,331.947,3.699z"/>
	<polygon fill="#74787B" points="336.326,-0.894 329.821,-3.406 329.821,-2.787 336.326,-0.292 	"/>
	<polygon fill="#74787B" points="335.966,-7.396 335.966,-8.159 330.134,-8.159 330.134,-7.486 330.816,-6.212 331.417,-6.364 
		330.871,-7.378 330.871,-7.396 	"/>
	<path fill="#74787B" d="M333.068-10.203c1.93-0.018,2.997-0.799,2.997-1.938v-0.009c0-1.274-1.095-2.019-3.077-2.019
		c-1.857,0-2.952,0.708-2.952,1.929C330.036-11.055,331.103-10.203,333.068-10.203z M333.023-13.37c1.49,0,2.432,0.386,2.432,1.185
		v0.009c0,0.727-0.915,1.193-2.432,1.175c-1.462,0-2.377-0.466-2.377-1.184C330.646-13.011,331.587-13.37,333.023-13.37z"/>
	<path fill="#74787B" d="M335.5-14.947c0.323,0,0.565-0.216,0.565-0.521v-0.009c0-0.323-0.242-0.538-0.565-0.538
		c-0.332,0-0.565,0.215-0.565,0.529S335.177-14.947,335.5-14.947z"/>
	<polygon fill="#74787B" points="335.966,-18.455 335.966,-19.217 330.134,-19.217 330.134,-18.544 330.816,-17.27 331.417,-17.422 
		330.871,-18.437 330.871,-18.455 	"/>
	<path fill="#74787B" d="M330.951-22.23c0.574,0.583,1.48,0.987,2.629,0.987c1.517,0,2.485-0.816,2.485-2.055
		c0-1.22-0.987-1.947-2.063-1.947c-1.131,0-1.884,0.727-1.884,1.759c0,0.646,0.305,1.139,0.682,1.417v0.018
		c-0.969-0.135-1.866-0.781-2.063-2.028c-0.036-0.225-0.054-0.431-0.045-0.592h-0.646c0,0.144,0.009,0.341,0.045,0.574
		C330.179-23.36,330.475-22.714,330.951-22.23z M332.718-23.244c0-0.727,0.503-1.203,1.337-1.203c0.835,0,1.399,0.458,1.399,1.131
		v0.009c0,0.826-0.718,1.274-1.678,1.283c-0.144,0-0.251-0.036-0.341-0.081C333.005-22.32,332.718-22.768,332.718-23.244z"/>
	<path fill="#74787B" d="M331.525-28.285c0,0.727,0.386,1.131,0.799,1.373v0.027l-0.7,0.036v0.691
		c0.359-0.018,0.718-0.036,1.176-0.036h3.167v-0.772h-2.62c-0.135,0-0.269-0.018-0.386-0.062c-0.395-0.125-0.789-0.494-0.789-0.978
		c0-0.601,0.493-0.906,1.184-0.906h2.611v-0.771h-2.691c-0.135,0-0.278-0.027-0.395-0.063c-0.377-0.144-0.709-0.484-0.709-0.942
		c0-0.628,0.493-0.942,1.337-0.942h2.458v-0.771h-2.557c-1.508,0-1.885,0.853-1.885,1.436c0,0.413,0.107,0.691,0.306,0.951
		c0.134,0.179,0.313,0.359,0.564,0.493v0.018C331.884-29.316,331.525-28.868,331.525-28.285z"/>
	<path fill="#74787B" d="M331.525-35.765c0,0.727,0.386,1.13,0.799,1.373v0.027l-0.7,0.036v0.691
		c0.359-0.018,0.718-0.036,1.176-0.036h3.167v-0.772h-2.62c-0.135,0-0.269-0.018-0.386-0.062c-0.395-0.126-0.789-0.494-0.789-0.978
		c0-0.601,0.493-0.906,1.184-0.906h2.611v-0.771h-2.691c-0.135,0-0.278-0.027-0.395-0.063c-0.377-0.144-0.709-0.484-0.709-0.942
		c0-0.628,0.493-0.942,1.337-0.942h2.458v-0.771h-2.557c-1.508,0-1.885,0.853-1.885,1.436c0,0.413,0.107,0.691,0.306,0.951
		c0.134,0.179,0.313,0.359,0.564,0.494v0.018C331.884-36.796,331.525-36.348,331.525-35.765z"/>
	<path fill="#74787B" d="M278.075,84.348c1.93-0.018,2.997-0.798,2.997-1.938v-0.009c0-1.274-1.095-2.019-3.077-2.019
		c-1.857,0-2.952,0.708-2.952,1.929C275.042,83.496,276.11,84.348,278.075,84.348z M278.031,81.181c1.489,0,2.431,0.386,2.431,1.185
		v0.009c0,0.727-0.915,1.193-2.431,1.175c-1.463,0-2.378-0.466-2.378-1.184C275.653,81.54,276.595,81.181,278.031,81.181z"/>
	<path fill="#74787B" d="M281.072,79.074c0-0.323-0.242-0.538-0.565-0.538c-0.332,0-0.565,0.215-0.565,0.529
		s0.242,0.539,0.565,0.539s0.565-0.216,0.565-0.521V79.074z"/>
	<polygon fill="#74787B" points="280.973,76.096 280.973,75.334 275.141,75.334 275.141,76.007 275.823,77.281 276.424,77.128 
		275.876,76.114 275.876,76.096 	"/>
	<path fill="#74787B" d="M276.954,71.98l-0.054-0.502c-0.413-0.242-1.382-0.628-2.136-0.834l0.09,0.808
		C275.5,71.55,276.424,71.792,276.954,71.98z"/>
	<path fill="#74787B" d="M276.954,73.308l-0.054-0.502c-0.413-0.242-1.382-0.628-2.136-0.834l0.09,0.808
		C275.5,72.877,276.424,73.111,276.954,73.308z"/>
	<polygon fill="#74787B" points="281.332,68.716 274.828,66.204 274.828,66.823 281.332,69.317 	"/>
	<path fill="#74787B" d="M276.191,63.523c-0.225-0.269-0.493-0.708-0.493-1.238c0-0.87,0.547-1.148,1.14-1.148
		c0.879,0,1.633,0.682,3.05,2.171l0.602,0.619h0.484v-3.723h-0.655v2.611H280.3l-0.431-0.458c-1.185-1.229-2.055-2.01-3.132-2.01
		c-0.834,0-1.695,0.529-1.695,1.776c0,0.673,0.26,1.256,0.592,1.651L276.191,63.523z"/>
	<path fill="#74787B" d="M279.941,58.725c0,0.314,0.242,0.539,0.565,0.539s0.565-0.216,0.565-0.521v-0.009
		c0-0.323-0.242-0.538-0.565-0.538C280.174,58.195,279.941,58.411,279.941,58.725z"/>
	<path fill="#74787B" d="M277.877,56.339c0-1.158,0.539-1.669,1.283-1.669c0.79-0.009,1.274,0.637,1.274,1.373
		c0,0.539-0.18,1.014-0.323,1.256l0.602,0.197c0.179-0.287,0.358-0.816,0.358-1.454c0-1.265-0.853-2.171-1.992-2.171
		c-0.735,0-1.247,0.377-1.498,0.834c-0.215,0.359-0.313,0.798-0.313,1.256c0,0.215,0.018,0.341,0.035,0.476l-1.498-0.224v-2.225
		h-0.664v2.79l2.8,0.377C277.905,56.94,277.877,56.68,277.877,56.339z"/>
	<path fill="#74787B" d="M279.376,53.138v-2.709h1.597v-0.745h-1.597v-0.816h-0.61v0.816h-3.625v0.853l3.724,2.602H279.376z
		 M278.766,52.339h-0.019l-1.982-1.427c-0.27-0.161-0.521-0.305-0.861-0.484v-0.027c0.305,0.018,0.61,0.027,0.915,0.027h1.947
		V52.339z"/>
	<path fill="#74787B" d="M276.532,45.926c0,0.727,0.386,1.13,0.799,1.373v0.027l-0.7,0.036v0.691
		c0.359-0.018,0.718-0.036,1.176-0.036h3.167v-0.772h-2.62c-0.135,0-0.269-0.018-0.386-0.062c-0.395-0.126-0.789-0.494-0.789-0.978
		c0-0.601,0.493-0.906,1.184-0.906h2.611v-0.771h-2.691c-0.135,0-0.278-0.027-0.396-0.063c-0.376-0.144-0.708-0.484-0.708-0.942
		c0-0.628,0.493-0.942,1.337-0.942h2.458v-0.771h-2.557c-1.508,0-1.885,0.853-1.885,1.436c0,0.413,0.107,0.691,0.306,0.951
		c0.134,0.179,0.313,0.359,0.564,0.494v0.018C276.891,44.894,276.532,45.343,276.532,45.926z"/>
	<path fill="#74787B" d="M276.532,38.446c0,0.727,0.386,1.131,0.799,1.373v0.027l-0.7,0.036v0.691
		c0.359-0.018,0.718-0.036,1.176-0.036h3.167v-0.772h-2.62c-0.135,0-0.269-0.018-0.386-0.062c-0.395-0.125-0.789-0.494-0.789-0.978
		c0-0.601,0.493-0.906,1.184-0.906h2.611v-0.771h-2.691c-0.135,0-0.278-0.027-0.396-0.063c-0.376-0.144-0.708-0.484-0.708-0.942
		c0-0.628,0.493-0.942,1.337-0.942h2.458v-0.771h-2.557c-1.508,0-1.885,0.853-1.885,1.436c0,0.413,0.107,0.691,0.306,0.951
		c0.134,0.179,0.313,0.359,0.564,0.493v0.018C276.891,37.414,276.532,37.863,276.532,38.446z"/>
	<path fill="#74787B" d="M-33.731,102.803l3.724,2.602h0.511v-2.709h1.597v-0.745h-1.597v-0.816h-0.61v0.816h-3.625V102.803z
		 M-32.969,102.668c0.305,0.018,0.61,0.027,0.915,0.027h1.947v1.91h-0.018l-1.983-1.426c-0.269-0.162-0.521-0.306-0.861-0.484
		V102.668z"/>
	<path fill="#74787B" d="M-28.877,98.426l0.978-0.637v-0.897l-2.243,1.517l-2.1-1.48v0.861l0.924,0.602
		c0.233,0.152,0.458,0.296,0.718,0.439v0.027c-0.251,0.143-0.466,0.277-0.708,0.439l-0.934,0.619v0.879l2.126-1.472l2.216,1.544
		v-0.871l-0.978-0.628c-0.26-0.161-0.494-0.313-0.753-0.457v-0.019C-29.371,98.74-29.128,98.597-28.877,98.426z"/>
	<path fill="#74787B" d="M-27.801,93.888c0-0.323-0.242-0.538-0.565-0.538c-0.332,0-0.565,0.215-0.565,0.529
		s0.242,0.538,0.565,0.538c0.323,0,0.565-0.215,0.565-0.521V93.888z"/>
	<polygon fill="#74787B" points="-27.899,90.91 -27.899,90.147 -33.731,90.147 -33.731,90.82 -33.049,92.094 -32.448,91.941 
		-32.996,90.928 -32.996,90.91 	"/>
	<path fill="#74787B" d="M-29.792,84.425c-0.736,0-1.247,0.376-1.499,0.834c-0.215,0.359-0.314,0.798-0.314,1.256
		c0,0.215,0.018,0.341,0.036,0.476l-1.499-0.224v-2.225h-0.664v2.79l2.799,0.377c-0.036-0.215-0.062-0.476-0.062-0.816
		c0-1.157,0.538-1.669,1.283-1.669c0.79-0.009,1.274,0.637,1.274,1.373c0,0.538-0.18,1.014-0.323,1.256l0.601,0.197
		c0.18-0.287,0.359-0.816,0.359-1.453C-27.801,85.331-28.653,84.425-29.792,84.425z"/>
	<path fill="#74787B" d="M-34.019,81.663c0.646,0.099,1.57,0.341,2.1,0.529l-0.054-0.502c-0.413-0.242-1.382-0.628-2.136-0.834
		L-34.019,81.663z"/>
	<path fill="#74787B" d="M-34.019,82.991c0.646,0.099,1.57,0.332,2.1,0.529l-0.054-0.502c-0.413-0.242-1.382-0.628-2.136-0.834
		L-34.019,82.991z"/>
	<polygon fill="#74787B" points="-34.045,77.035 -27.541,79.529 -27.541,78.928 -34.045,76.416 	"/>
	<path fill="#74787B" d="M-33.381,73.951l0.574-0.215c-0.18-0.251-0.386-0.7-0.386-1.167c0-0.727,0.413-1.022,0.879-1.022
		c0.69,0,0.987,0.727,0.987,1.301v0.439h0.592v-0.439c0-0.763,0.35-1.498,1.166-1.507c0.494-0.009,1.131,0.314,1.131,1.319
		c0,0.557-0.225,1.068-0.359,1.292l0.602,0.215c0.188-0.287,0.395-0.861,0.395-1.516c0-1.391-0.816-2.126-1.75-2.126
		c-0.816,0-1.355,0.583-1.489,1.301h-0.018c-0.26-0.708-0.771-1.077-1.382-1.077c-0.708,0-1.391,0.521-1.391,1.669
		C-33.83,73.044-33.605,73.637-33.381,73.951z"/>
	<path fill="#74787B" d="M-28.931,68.937c0,0.314,0.242,0.538,0.565,0.538c0.323,0,0.565-0.215,0.565-0.52v-0.009
		c0-0.323-0.242-0.538-0.565-0.538C-28.698,68.408-28.931,68.623-28.931,68.937z"/>
	<path fill="#74787B" d="M-33.83,65.735c0,1.022,0.628,1.803,1.552,1.803c0.502,0,1.005-0.278,1.31-0.933h0.027
		c0.305,0.709,0.834,1.148,1.57,1.148c0.853,0,1.57-0.736,1.57-1.956c0-1.112-0.673-1.982-1.696-1.982
		c-0.7,0-1.22,0.448-1.507,1.175h-0.027c-0.332-0.718-0.87-0.969-1.364-0.969c-0.736,0-1.436,0.574-1.436,1.705V65.735z
		 M-29.416,64.613c0.601,0,1.041,0.458,1.041,1.167v0.009c0,0.736-0.521,1.185-1.104,1.157c-0.556,0-1.014-0.368-1.211-1.05
		C-30.465,65.107-30.116,64.613-29.416,64.613z M-33.265,65.762c0-0.7,0.484-0.978,0.951-0.978c0.529,0,0.888,0.386,1.059,0.888
		c-0.18,0.673-0.494,1.122-1.077,1.113c-0.502,0-0.933-0.359-0.933-1.014V65.762z"/>
	<polygon fill="#74787B" points="-33.731,61.278 -33.049,62.552 -32.448,62.399 -32.996,61.385 -32.996,61.368 -27.899,61.368 
		-27.899,60.605 -33.731,60.605 	"/>
	<path fill="#74787B" d="M-32.341,56.138c0,0.727,0.386,1.131,0.799,1.373v0.027l-0.7,0.036v0.691
		c0.359-0.018,0.718-0.036,1.176-0.036h3.167v-0.772h-2.62c-0.134,0-0.269-0.018-0.386-0.062c-0.395-0.125-0.79-0.494-0.79-0.978
		c0-0.601,0.494-0.906,1.185-0.906h2.611v-0.771h-2.691c-0.135,0-0.278-0.027-0.395-0.063c-0.377-0.144-0.709-0.484-0.709-0.942
		c0-0.628,0.494-0.942,1.337-0.942h2.458V52.02h-2.557c-1.507,0-1.884,0.853-1.884,1.436c0,0.413,0.108,0.691,0.305,0.951
		c0.135,0.179,0.314,0.359,0.565,0.493v0.018C-31.982,55.106-32.341,55.555-32.341,56.138z"/>
	<path fill="#74787B" d="M-32.341,48.658c0,0.727,0.386,1.13,0.799,1.373v0.027l-0.7,0.036v0.691
		c0.359-0.018,0.718-0.036,1.176-0.036h3.167v-0.772h-2.62c-0.134,0-0.269-0.018-0.386-0.062c-0.395-0.126-0.79-0.494-0.79-0.978
		c0-0.601,0.494-0.906,1.185-0.906h2.611v-0.771h-2.691c-0.135,0-0.278-0.027-0.395-0.063c-0.377-0.144-0.709-0.484-0.709-0.942
		c0-0.628,0.494-0.942,1.337-0.942h2.458V44.54h-2.557c-1.507,0-1.884,0.853-1.884,1.436c0,0.413,0.108,0.691,0.305,0.951
		c0.135,0.179,0.314,0.359,0.565,0.494v0.018C-31.982,47.626-32.341,48.075-32.341,48.658z"/>
	<polygon fill="#74787B" points="-47.554,128.586 -47.554,127.823 -53.386,127.823 -53.386,128.496 -52.704,129.77 -52.103,129.617 
		-52.65,128.604 -52.65,128.586 	"/>
	<path fill="#74787B" d="M-47.456,125.106c0-0.323-0.242-0.538-0.565-0.538c-0.332,0-0.565,0.215-0.565,0.529
		s0.242,0.538,0.565,0.538c0.323,0,0.565-0.215,0.565-0.521V125.106z"/>
	<path fill="#74787B" d="M-49.761,119.841v0.816h-3.625v0.853l3.724,2.602h0.511v-2.709h1.597v-0.745h-1.597v-0.816H-49.761z
		 M-49.761,123.312h-0.018l-1.983-1.426c-0.269-0.162-0.521-0.306-0.861-0.484v-0.027c0.305,0.018,0.61,0.027,0.915,0.027h1.947
		V123.312z"/>
	<path fill="#74787B" d="M-53.673,118.811c0.646,0.099,1.57,0.332,2.1,0.529l-0.054-0.503c-0.413-0.242-1.382-0.628-2.135-0.834
		L-53.673,118.811z"/>
	<path fill="#74787B" d="M-53.673,117.482c0.646,0.099,1.57,0.341,2.1,0.529l-0.054-0.503c-0.413-0.242-1.382-0.628-2.135-0.834
		L-53.673,117.482z"/>
	<polygon fill="#74787B" points="-53.7,112.854 -47.195,115.349 -47.195,114.748 -53.7,112.235 	"/>
	<path fill="#74787B" d="M-53.036,109.771l0.574-0.216c-0.18-0.251-0.386-0.699-0.386-1.166c0-0.727,0.413-1.023,0.879-1.023
		c0.691,0,0.987,0.728,0.987,1.302v0.439h0.592v-0.439c0-0.763,0.35-1.499,1.167-1.508c0.494-0.009,1.13,0.314,1.13,1.319
		c0,0.556-0.224,1.067-0.358,1.292l0.601,0.215c0.188-0.287,0.395-0.861,0.395-1.517c0-1.391-0.816-2.126-1.75-2.126
		c-0.816,0-1.355,0.583-1.489,1.301h-0.018c-0.26-0.709-0.771-1.076-1.382-1.076c-0.708,0-1.391,0.521-1.391,1.669
		C-53.485,108.864-53.261,109.456-53.036,109.771z"/>
	<path fill="#74787B" d="M-47.814,105.385c0.18-0.287,0.359-0.816,0.359-1.453c0-1.266-0.852-2.172-1.992-2.172
		c-0.736,0-1.247,0.377-1.499,0.835c-0.215,0.358-0.314,0.798-0.314,1.256c0,0.216,0.018,0.341,0.036,0.476l-1.499-0.225v-2.225
		h-0.664v2.79l2.799,0.377c-0.036-0.216-0.062-0.476-0.062-0.816c0-1.157,0.538-1.669,1.283-1.669
		c0.79-0.009,1.274,0.637,1.274,1.373c0,0.538-0.179,1.014-0.323,1.256L-47.814,105.385z"/>
	<path fill="#74787B" d="M-47.456,100.164c0-0.323-0.242-0.538-0.565-0.538c-0.332,0-0.565,0.215-0.565,0.529
		s0.242,0.538,0.565,0.538c0.323,0,0.565-0.215,0.565-0.521V100.164z"/>
	<path fill="#74787B" d="M-52.785,96.163c-0.036-0.224-0.054-0.431-0.045-0.592h-0.646c0,0.144,0.009,0.341,0.044,0.574
		c0.09,0.735,0.386,1.382,0.861,1.866c0.574,0.583,1.48,0.987,2.629,0.987c1.517,0,2.485-0.816,2.485-2.055
		c0-1.221-0.987-1.947-2.063-1.947c-1.13,0-1.884,0.727-1.884,1.759c0,0.646,0.305,1.14,0.682,1.417v0.019
		C-51.69,98.057-52.587,97.41-52.785,96.163z M-50.802,96.998c0-0.727,0.502-1.202,1.337-1.202s1.4,0.457,1.4,1.13v0.01
		c0,0.825-0.718,1.273-1.678,1.282c-0.144,0-0.251-0.035-0.341-0.08C-50.515,97.922-50.802,97.474-50.802,96.998z"/>
	<path fill="#74787B" d="M-51.996,91.958c0,0.727,0.386,1.13,0.799,1.372v0.027l-0.7,0.036v0.69
		c0.358-0.018,0.718-0.036,1.175-0.036h3.167v-0.771h-2.62c-0.135,0-0.27-0.018-0.386-0.062c-0.395-0.126-0.79-0.493-0.79-0.979
		c0-0.601,0.494-0.905,1.185-0.905h2.611v-0.772h-2.692c-0.134,0-0.278-0.026-0.395-0.062c-0.377-0.144-0.709-0.484-0.709-0.942
		c0-0.628,0.494-0.942,1.337-0.942h2.458v-0.771h-2.557c-1.507,0-1.884,0.853-1.884,1.436c0,0.413,0.108,0.69,0.305,0.951
		c0.135,0.18,0.314,0.359,0.565,0.494v0.018C-51.637,90.926-51.996,91.374-51.996,91.958z"/>
	<path fill="#74787B" d="M-51.996,84.477c0,0.727,0.386,1.131,0.799,1.373v0.027l-0.7,0.036v0.691
		c0.358-0.018,0.718-0.036,1.175-0.036h3.167v-0.772h-2.62c-0.135,0-0.27-0.018-0.386-0.062c-0.395-0.125-0.79-0.494-0.79-0.978
		c0-0.601,0.494-0.906,1.185-0.906h2.611v-0.771h-2.692c-0.134,0-0.278-0.027-0.395-0.063c-0.377-0.144-0.709-0.484-0.709-0.942
		c0-0.628,0.494-0.942,1.337-0.942h2.458v-0.771h-2.557c-1.507,0-1.884,0.853-1.884,1.436c0,0.413,0.108,0.691,0.305,0.951
		c0.135,0.179,0.314,0.359,0.565,0.493v0.018C-51.637,83.445-51.996,83.894-51.996,84.477z"/>
</g>
</svg>
