<?xml version="1.0" encoding="utf-8"?>
<!-- Generator: Adobe Illustrator 16.0.4, SVG Export Plug-In . SVG Version: 6.00 Build 0)  -->
<!DOCTYPE svg PUBLIC "-//W3C//DTD SVG 1.1//EN" "http://www.w3.org/Graphics/SVG/1.1/DTD/svg11.dtd">
<svg version="1.1" id="board" xmlns="http://www.w3.org/2000/svg" xmlns:xlink="http://www.w3.org/1999/xlink" x="0px" y="0px"
	 width="307.667px" height="177px" viewBox="0 0 307.667 177" enable-background="new 0 0 307.667 177" xml:space="preserve">
<polygon fill="#878787" stroke="#383838" stroke-width="0.3" stroke-miterlimit="10" points="197.234,80.34 197.234,77.25 
	194.655,77.25 194.655,80.34 187.826,80.34 187.826,77.25 185.246,77.25 185.246,80.709 183.903,82.126 182.21,80.34 182.194,80.34 
	182.194,77.25 179.615,77.25 179.615,80.34 172.785,80.34 172.785,77.25 170.205,77.25 170.205,80.79 170.226,80.79 168.947,82.14 
	167.262,80.362 167.262,77.25 164.683,77.25 164.683,80.34 157.853,80.34 157.853,77.25 155.273,77.25 155.273,80.773 153.93,82.19 
	152.429,80.606 152.429,77.25 149.85,77.25 149.85,80.34 143.02,80.34 143.02,77.25 140.44,77.25 140.44,80.529 138.987,82.063 
	137.498,80.492 137.498,77.25 134.918,77.25 134.918,80.34 128.088,80.34 128.088,77.25 125.509,77.25 125.509,80.644 
	124.064,82.167 122.444,80.458 122.444,77.25 119.865,77.25 119.865,80.34 113.035,80.34 113.035,77.25 110.456,77.25 
	110.456,80.678 108.936,82.281 107.513,80.779 107.513,77.25 104.934,77.25 104.934,80.34 98.104,80.34 98.104,77.25 95.524,77.25 
	95.524,80.34 93.699,80.34 93.699,92.533 107.098,92.533 108.937,90.593 110.775,92.533 122.334,92.533 124.064,90.706 
	125.796,92.533 137.355,92.533 138.987,90.812 140.619,92.533 152.178,92.533 153.93,90.684 155.683,92.533 167.242,92.533 
	168.947,90.734 170.652,92.533 182.21,92.533 183.903,90.747 185.595,92.533 198.996,92.533 198.996,80.34 "/>
<rect x="49.062" y="67.756" fill="#9E9E9E" stroke="#383838" stroke-width="0.3" stroke-miterlimit="10" width="209.646" height="9.494"/>
<polygon fill="#9E9E9E" stroke="#383838" stroke-width="0.3" stroke-miterlimit="10" points="301.337,96.238 10.697,96.238 
	6.629,105.721 297.05,105.721 "/>
<rect x="93.623" y="105.721" fill="#383838" width="105.599" height="20.889"/>
<line fill="none" stroke="#383838" stroke-width="0.7" stroke-linejoin="round" stroke-miterlimit="10" x1="294.14" y1="111.859" x2="304.021" y2="89.917"/>
<line fill="none" stroke="#383838" stroke-width="0.7" stroke-linejoin="round" stroke-miterlimit="10" x1="13.382" y1="89.989" x2="3.646" y2="111.788"/>
<path fill="#CCCCCC" stroke="#383838" stroke-width="0.4" stroke-linejoin="round" stroke-miterlimit="10" d="M103.408,80.253
	h-3.729V61.022h3.729V80.253z M102.154,58.964h-1.308l-1.168,2.058h3.729L102.154,58.964z"/>
<path fill="#CCCCCC" stroke="#383838" stroke-width="0.4" stroke-linejoin="round" stroke-miterlimit="10" d="M118.085,80.253
	h-3.729V61.022h3.729V80.253z M116.832,58.964h-1.308l-1.168,2.058h3.729L116.832,58.964z"/>
<path fill="#CCCCCC" stroke="#383838" stroke-width="0.4" stroke-linejoin="round" stroke-miterlimit="10" d="M133.44,80.253h-3.729
	V61.022h3.729V80.253z M132.187,58.964h-1.308l-1.168,2.058h3.729L132.187,58.964z"/>
<path fill="#CCCCCC" stroke="#383838" stroke-width="0.4" stroke-linejoin="round" stroke-miterlimit="10" d="M148.263,80.253
	h-3.729V61.022h3.729V80.253z M147.01,58.964h-1.308l-1.168,2.058h3.729L147.01,58.964z"/>
<path fill="#CCCCCC" stroke="#383838" stroke-width="0.4" stroke-linejoin="round" stroke-miterlimit="10" d="M163.328,80.253
	h-3.729V61.022h3.729V80.253z M162.074,58.964h-1.308l-1.168,2.058h3.729L162.074,58.964z"/>
<path fill="#CCCCCC" stroke="#383838" stroke-width="0.4" stroke-linejoin="round" stroke-miterlimit="10" d="M178.296,80.253
	h-3.729V61.022h3.729V80.253z M177.042,58.964h-1.309l-1.168,2.058h3.729L177.042,58.964z"/>
<path fill="#CCCCCC" stroke="#383838" stroke-width="0.4" stroke-linejoin="round" stroke-miterlimit="10" d="M193.36,80.253h-3.729
	V61.022h3.729V80.253z M192.107,58.964h-1.309l-1.168,2.058h3.729L192.107,58.964z"/>
<path fill="#CCCCCC" stroke="#383838" stroke-width="0.4" stroke-linejoin="round" stroke-miterlimit="10" d="M189.509,92.533h3.729
	v32.018h-3.729V92.533z M190.764,126.609h1.308l1.168-2.06h-3.729L190.764,126.609z"/>
<path fill="#CCCCCC" stroke="#383838" stroke-width="0.4" stroke-linejoin="round" stroke-miterlimit="10" d="M174.833,92.533h3.729
	v32.018h-3.729V92.533z M176.085,126.609h1.309l1.168-2.06h-3.729L176.085,126.609z"/>
<path fill="#CCCCCC" stroke="#383838" stroke-width="0.4" stroke-linejoin="round" stroke-miterlimit="10" d="M159.478,92.533h3.729
	v32.018h-3.729V92.533z M160.731,126.609h1.308l1.168-2.06h-3.729L160.731,126.609z"/>
<path fill="#CCCCCC" stroke="#383838" stroke-width="0.4" stroke-linejoin="round" stroke-miterlimit="10" d="M144.655,92.533h3.729
	v32.018h-3.729V92.533z M145.908,126.609h1.308l1.168-2.06h-3.729L145.908,126.609z"/>
<path fill="#CCCCCC" stroke="#383838" stroke-width="0.4" stroke-linejoin="round" stroke-miterlimit="10" d="M129.591,92.533h3.729
	v32.018h-3.729V92.533z M130.844,126.609h1.308l1.168-2.06h-3.729L130.844,126.609z"/>
<path fill="#CCCCCC" stroke="#383838" stroke-width="0.4" stroke-linejoin="round" stroke-miterlimit="10" d="M114.622,92.533h3.729
	v32.018h-3.729V92.533z M115.875,126.609h1.308l1.168-2.06h-3.729L115.875,126.609z"/>
<path fill="#CCCCCC" stroke="#383838" stroke-width="0.4" stroke-linejoin="round" stroke-miterlimit="10" d="M99.557,92.533h3.73
	v32.018h-3.73V92.533z M100.811,126.609h1.309l1.168-2.06h-3.73L100.811,126.609z"/>
<g>
	<path fill="#CCCCCC" d="M233.494,56.517h-5.23h5.158v18.262c0,0,0.725,2.568,2.81,2.568c2.082,0,2.567-2.713,2.567-2.713V56.517
		h5.182h-5.204 M243.979,56.517l3.44,8.622v2.229h-2.217v9.979h4.541v18.601h-5.269c0,0,2.471,11.116,2.36,12.062
		c-0.107,0.944,0.037,1.816-0.58,3.451s-3.271,7.012-3.271,7.012h-4.505V98.055c0,0-0.398-2.106-2.252-2.106
		s-2.253,2.106-2.253,2.106v20.418h-4.505c0,0-2.652-5.377-3.27-7.013c-0.619-1.635-0.474-2.507-0.582-3.451
		s2.361-12.062,2.361-12.062h-5.268v-18.6h4.468v-9.979h-2.334v-2.229l3.413-8.622"/>
	<path fill="none" stroke="#383838" stroke-width="0.7" stroke-linejoin="round" stroke-miterlimit="10" d="M249.746,95.948h-27.029
		V77.347h27.029V95.948z M228.263,56.517h5.158v18.262c0,0,0.725,2.568,2.81,2.568c2.082,0,2.567-2.713,2.567-2.713V56.517h5.182
		 M247.419,65.139h-5.156v2.229h5.156V65.139z M242.263,65.139l-3.487-8.622 M247.494,65.139l-3.486-8.622L247.494,65.139z
		 M242.263,67.367h-3.439 M224.85,67.367h5.155v-2.229h-5.155V67.367z M233.494,56.517l-3.488,8.622 M224.774,65.139l3.488-8.622
		L224.774,65.139z M233.446,67.367h-3.44 M227.184,67.367v9.979 M245.203,67.367v9.979 M227.983,95.948
		c0,0-2.471,11.116-2.36,12.062c0.107,0.944-0.037,1.816,0.58,3.451s3.271,7.012,3.271,7.012h4.505V98.055
		c0,0,0.398-2.106,2.253-2.106 M236.23,95.948c1.854,0,2.252,2.106,2.252,2.106v20.418h4.505c0,0,2.652-5.377,3.271-7.013
		c0.617-1.635,0.473-2.507,0.58-3.451c0.109-0.944-2.36-12.062-2.36-12.062"/>
</g>
<g>
	<path fill="#CCCCCC" d="M68.993,56.517h-5.231h5.158v18.262c0,0,0.725,2.568,2.809,2.568s2.568-2.713,2.568-2.713V56.517h5.183
		h-5.206 M79.479,56.517l3.438,8.622v2.229h-2.216v9.979h4.541v18.601h-5.268c0,0,2.47,11.116,2.361,12.062
		c-0.109,0.944,0.036,1.816-0.582,3.451c-0.617,1.635-3.27,7.012-3.27,7.012H73.98V98.055c0,0-0.399-2.106-2.252-2.106
		s-2.252,2.106-2.252,2.106v20.418h-4.505c0,0-2.652-5.377-3.27-7.013c-0.618-1.635-0.473-2.507-0.582-3.451
		c-0.109-0.944,2.361-12.062,2.361-12.062h-5.268v-18.6h4.469v-9.979h-2.333v-2.229l3.413-8.622"/>
	<path fill="none" stroke="#383838" stroke-width="0.7" stroke-linejoin="round" stroke-miterlimit="10" d="M85.243,95.948h-27.03
		V77.347h27.029L85.243,95.948L85.243,95.948z M63.762,56.517h5.158v18.262c0,0,0.725,2.568,2.809,2.568s2.568-2.713,2.568-2.713
		V56.517h5.183 M82.917,65.139h-5.156v2.229h5.156V65.139z M77.761,65.139l-3.488-8.622 M82.993,65.139l-3.488-8.622L82.993,65.139z
		 M77.761,67.367h-3.439 M60.349,67.367h5.156v-2.229h-5.156V67.367z M68.993,56.517l-3.488,8.622 M60.274,65.139l3.488-8.622
		L60.274,65.139z M68.944,67.367h-3.439 M62.682,67.367v9.979 M80.702,67.367v9.979 M63.481,95.948c0,0-2.47,11.116-2.361,12.062
		c0.109,0.944-0.036,1.816,0.582,3.451c0.618,1.635,3.27,7.012,3.27,7.012h4.505V98.055c0,0,0.399-2.106,2.252-2.106 M71.728,95.948
		c1.853,0,2.252,2.106,2.252,2.106v20.418h4.505c0,0,2.652-5.377,3.27-7.013c0.618-1.635,0.473-2.507,0.582-3.451
		s-2.361-12.062-2.361-12.062"/>
</g>
<line fill="none" stroke="#74787B" stroke-width="0.5" stroke-miterlimit="10" x1="263.843" y1="77.25" x2="281.136" y2="77.25"/>
<polygon fill="#74787B" points="272.737,82.67 273.939,82.67 272.487,77.25 271.035,82.67 272.237,82.67 272.237,90.818 
	271.035,90.818 272.487,96.238 273.939,90.818 272.737,90.818 "/>
<polygon fill="#74787B" points="212.576,97.008 213.777,97.008 212.326,91.588 210.873,97.008 212.076,97.008 212.076,121.189 
	210.873,121.189 212.326,126.609 213.777,121.189 212.576,121.189 "/>
<line fill="none" stroke="#74787B" stroke-width="0.5" stroke-miterlimit="10" x1="203.681" y1="91.588" x2="220.974" y2="91.588"/>
<line fill="none" stroke="#74787B" stroke-width="0.5" stroke-miterlimit="10" x1="203.681" y1="126.609" x2="220.974" y2="126.609"/>
<text transform="matrix(1 0 0 1 279.3511 89.2637)" fill="#74787B" font-family="'MyriadPro-Regular'" font-size="6.9753">A</text>
<text transform="matrix(1 0 0 1 214.1909 116.165)" fill="#74787B" font-family="'MyriadPro-Regular'" font-size="6.9753">B</text>
<text transform="matrix(1 0 0 1 123.123 137.4785)" fill="#74787B" font-family="'MyriadPro-Regular'" font-size="6.9753">Samtec HLE Socket</text>
<text transform="matrix(1 0 0 1 195.2026 73.6836)" fill="#74787B" font-family="'MyriadPro-Regular'" font-size="4.6502">ColourCV PCB</text>
<text transform="matrix(1 0 0 1 115.3765 51.9873)" fill="#74787B" font-family="'MyriadPro-Regular'" font-size="6.9753">14-pin, dual row header</text>
<text transform="matrix(1 0 0 1 213.0034 43.6162)" fill="#74787B" font-family="'MyriadPro-Regular'" font-size="6.9753">Keystone 88xx</text>
<text transform="matrix(1 0 0 1 222.9429 51.9873)" fill="#74787B" font-family="'MyriadPro-Regular'" font-size="6.9753">standoff</text>
<text transform="matrix(1 0 0 1 48.5015 43.6162)" fill="#74787B" font-family="'MyriadPro-Regular'" font-size="6.9753">Keystone 88xx</text>
<text transform="matrix(1 0 0 1 58.4414 51.9873)" fill="#74787B" font-family="'MyriadPro-Regular'" font-size="6.9753">standoff</text>
</svg>
